M48
;GenerationSoftware,Autodesk,EAGLE,9.2.2*%
;CreationDate,2018-12-24T15:44:01Z*%
FMAT,2
ICI,OFF
METRIC,TZ,000.000
T7C0.350
T6C0.914
T5C1.016
T4C1.100
T3C1.600
T2C1.778
T1C3.175
%
G90
M71
T1
X5080Y54610
X50800Y54610
T2
X35560Y51511
T3
X25560Y17885
T4
X45560Y17885
T5
X16002Y28118
X13462Y28118
T6
X17780Y2540
X20320Y2540
X22860Y5080
X22860Y2540
X25400Y5080
X25400Y2540
X27940Y5080
X20320Y5080
X30480Y5080
X30480Y2540
X33020Y5080
X33020Y2540
X35560Y5080
X35560Y2540
X38100Y5080
X40640Y5080
X40640Y2540
X43180Y5080
X43180Y2540
X45720Y5080
X45720Y2540
X38100Y2540
X10160Y5080
X7620Y5080
X7620Y2540
X27940Y2540
X10160Y2540
X12700Y5080
X12700Y2540
X15240Y5080
X15240Y2540
X17780Y5080
T7
X39548Y22022
X37465Y13970
X36601Y14961
X49530Y10160
X50800Y20320
X19456Y23038
X26797Y21869
X38659Y23444
X39294Y10795
X32055Y21819
X22327Y19050
X10719Y23495
X43840Y18288
X33020Y55982
X22301Y13970
X40056Y18288
X10719Y38735
X35814Y10744
X22479Y8890
X34315Y10744
X22377Y11405
X22301Y16510
X20320Y63500
X35560Y21742
X10693Y30175
M30