G04 EAGLE Gerber RS-274X export*
G75*
%MOMM*%
%FSLAX34Y34*%
%LPD*%
%IN*%
%IPPOS*%
%AMOC8*
5,1,8,0,0,1.08239X$1,22.5*%
G01*
%ADD10C,0.000000*%


D10*
X25400Y660400D02*
X533400Y660400D01*
X533400Y436880D01*
X533370Y-50D01*
X25400Y0D01*
X25400Y660400D01*
X34925Y546100D02*
X34930Y546490D01*
X34944Y546879D01*
X34968Y547268D01*
X35001Y547656D01*
X35044Y548043D01*
X35097Y548429D01*
X35159Y548814D01*
X35230Y549197D01*
X35311Y549578D01*
X35401Y549957D01*
X35500Y550334D01*
X35609Y550708D01*
X35726Y551080D01*
X35853Y551448D01*
X35989Y551813D01*
X36133Y552175D01*
X36287Y552533D01*
X36449Y552887D01*
X36620Y553238D01*
X36799Y553583D01*
X36987Y553925D01*
X37184Y554261D01*
X37388Y554593D01*
X37600Y554920D01*
X37821Y555241D01*
X38049Y555557D01*
X38285Y555867D01*
X38528Y556171D01*
X38779Y556469D01*
X39037Y556761D01*
X39303Y557046D01*
X39575Y557325D01*
X39854Y557597D01*
X40139Y557863D01*
X40431Y558121D01*
X40729Y558372D01*
X41033Y558615D01*
X41343Y558851D01*
X41659Y559079D01*
X41980Y559300D01*
X42307Y559512D01*
X42639Y559716D01*
X42975Y559913D01*
X43317Y560101D01*
X43662Y560280D01*
X44013Y560451D01*
X44367Y560613D01*
X44725Y560767D01*
X45087Y560911D01*
X45452Y561047D01*
X45820Y561174D01*
X46192Y561291D01*
X46566Y561400D01*
X46943Y561499D01*
X47322Y561589D01*
X47703Y561670D01*
X48086Y561741D01*
X48471Y561803D01*
X48857Y561856D01*
X49244Y561899D01*
X49632Y561932D01*
X50021Y561956D01*
X50410Y561970D01*
X50800Y561975D01*
X51190Y561970D01*
X51579Y561956D01*
X51968Y561932D01*
X52356Y561899D01*
X52743Y561856D01*
X53129Y561803D01*
X53514Y561741D01*
X53897Y561670D01*
X54278Y561589D01*
X54657Y561499D01*
X55034Y561400D01*
X55408Y561291D01*
X55780Y561174D01*
X56148Y561047D01*
X56513Y560911D01*
X56875Y560767D01*
X57233Y560613D01*
X57587Y560451D01*
X57938Y560280D01*
X58283Y560101D01*
X58625Y559913D01*
X58961Y559716D01*
X59293Y559512D01*
X59620Y559300D01*
X59941Y559079D01*
X60257Y558851D01*
X60567Y558615D01*
X60871Y558372D01*
X61169Y558121D01*
X61461Y557863D01*
X61746Y557597D01*
X62025Y557325D01*
X62297Y557046D01*
X62563Y556761D01*
X62821Y556469D01*
X63072Y556171D01*
X63315Y555867D01*
X63551Y555557D01*
X63779Y555241D01*
X64000Y554920D01*
X64212Y554593D01*
X64416Y554261D01*
X64613Y553925D01*
X64801Y553583D01*
X64980Y553238D01*
X65151Y552887D01*
X65313Y552533D01*
X65467Y552175D01*
X65611Y551813D01*
X65747Y551448D01*
X65874Y551080D01*
X65991Y550708D01*
X66100Y550334D01*
X66199Y549957D01*
X66289Y549578D01*
X66370Y549197D01*
X66441Y548814D01*
X66503Y548429D01*
X66556Y548043D01*
X66599Y547656D01*
X66632Y547268D01*
X66656Y546879D01*
X66670Y546490D01*
X66675Y546100D01*
X66670Y545710D01*
X66656Y545321D01*
X66632Y544932D01*
X66599Y544544D01*
X66556Y544157D01*
X66503Y543771D01*
X66441Y543386D01*
X66370Y543003D01*
X66289Y542622D01*
X66199Y542243D01*
X66100Y541866D01*
X65991Y541492D01*
X65874Y541120D01*
X65747Y540752D01*
X65611Y540387D01*
X65467Y540025D01*
X65313Y539667D01*
X65151Y539313D01*
X64980Y538962D01*
X64801Y538617D01*
X64613Y538275D01*
X64416Y537939D01*
X64212Y537607D01*
X64000Y537280D01*
X63779Y536959D01*
X63551Y536643D01*
X63315Y536333D01*
X63072Y536029D01*
X62821Y535731D01*
X62563Y535439D01*
X62297Y535154D01*
X62025Y534875D01*
X61746Y534603D01*
X61461Y534337D01*
X61169Y534079D01*
X60871Y533828D01*
X60567Y533585D01*
X60257Y533349D01*
X59941Y533121D01*
X59620Y532900D01*
X59293Y532688D01*
X58961Y532484D01*
X58625Y532287D01*
X58283Y532099D01*
X57938Y531920D01*
X57587Y531749D01*
X57233Y531587D01*
X56875Y531433D01*
X56513Y531289D01*
X56148Y531153D01*
X55780Y531026D01*
X55408Y530909D01*
X55034Y530800D01*
X54657Y530701D01*
X54278Y530611D01*
X53897Y530530D01*
X53514Y530459D01*
X53129Y530397D01*
X52743Y530344D01*
X52356Y530301D01*
X51968Y530268D01*
X51579Y530244D01*
X51190Y530230D01*
X50800Y530225D01*
X50410Y530230D01*
X50021Y530244D01*
X49632Y530268D01*
X49244Y530301D01*
X48857Y530344D01*
X48471Y530397D01*
X48086Y530459D01*
X47703Y530530D01*
X47322Y530611D01*
X46943Y530701D01*
X46566Y530800D01*
X46192Y530909D01*
X45820Y531026D01*
X45452Y531153D01*
X45087Y531289D01*
X44725Y531433D01*
X44367Y531587D01*
X44013Y531749D01*
X43662Y531920D01*
X43317Y532099D01*
X42975Y532287D01*
X42639Y532484D01*
X42307Y532688D01*
X41980Y532900D01*
X41659Y533121D01*
X41343Y533349D01*
X41033Y533585D01*
X40729Y533828D01*
X40431Y534079D01*
X40139Y534337D01*
X39854Y534603D01*
X39575Y534875D01*
X39303Y535154D01*
X39037Y535439D01*
X38779Y535731D01*
X38528Y536029D01*
X38285Y536333D01*
X38049Y536643D01*
X37821Y536959D01*
X37600Y537280D01*
X37388Y537607D01*
X37184Y537939D01*
X36987Y538275D01*
X36799Y538617D01*
X36620Y538962D01*
X36449Y539313D01*
X36287Y539667D01*
X36133Y540025D01*
X35989Y540387D01*
X35853Y540752D01*
X35726Y541120D01*
X35609Y541492D01*
X35500Y541866D01*
X35401Y542243D01*
X35311Y542622D01*
X35230Y543003D01*
X35159Y543386D01*
X35097Y543771D01*
X35044Y544157D01*
X35001Y544544D01*
X34968Y544932D01*
X34944Y545321D01*
X34930Y545710D01*
X34925Y546100D01*
X492125Y546100D02*
X492130Y546490D01*
X492144Y546879D01*
X492168Y547268D01*
X492201Y547656D01*
X492244Y548043D01*
X492297Y548429D01*
X492359Y548814D01*
X492430Y549197D01*
X492511Y549578D01*
X492601Y549957D01*
X492700Y550334D01*
X492809Y550708D01*
X492926Y551080D01*
X493053Y551448D01*
X493189Y551813D01*
X493333Y552175D01*
X493487Y552533D01*
X493649Y552887D01*
X493820Y553238D01*
X493999Y553583D01*
X494187Y553925D01*
X494384Y554261D01*
X494588Y554593D01*
X494800Y554920D01*
X495021Y555241D01*
X495249Y555557D01*
X495485Y555867D01*
X495728Y556171D01*
X495979Y556469D01*
X496237Y556761D01*
X496503Y557046D01*
X496775Y557325D01*
X497054Y557597D01*
X497339Y557863D01*
X497631Y558121D01*
X497929Y558372D01*
X498233Y558615D01*
X498543Y558851D01*
X498859Y559079D01*
X499180Y559300D01*
X499507Y559512D01*
X499839Y559716D01*
X500175Y559913D01*
X500517Y560101D01*
X500862Y560280D01*
X501213Y560451D01*
X501567Y560613D01*
X501925Y560767D01*
X502287Y560911D01*
X502652Y561047D01*
X503020Y561174D01*
X503392Y561291D01*
X503766Y561400D01*
X504143Y561499D01*
X504522Y561589D01*
X504903Y561670D01*
X505286Y561741D01*
X505671Y561803D01*
X506057Y561856D01*
X506444Y561899D01*
X506832Y561932D01*
X507221Y561956D01*
X507610Y561970D01*
X508000Y561975D01*
X508390Y561970D01*
X508779Y561956D01*
X509168Y561932D01*
X509556Y561899D01*
X509943Y561856D01*
X510329Y561803D01*
X510714Y561741D01*
X511097Y561670D01*
X511478Y561589D01*
X511857Y561499D01*
X512234Y561400D01*
X512608Y561291D01*
X512980Y561174D01*
X513348Y561047D01*
X513713Y560911D01*
X514075Y560767D01*
X514433Y560613D01*
X514787Y560451D01*
X515138Y560280D01*
X515483Y560101D01*
X515825Y559913D01*
X516161Y559716D01*
X516493Y559512D01*
X516820Y559300D01*
X517141Y559079D01*
X517457Y558851D01*
X517767Y558615D01*
X518071Y558372D01*
X518369Y558121D01*
X518661Y557863D01*
X518946Y557597D01*
X519225Y557325D01*
X519497Y557046D01*
X519763Y556761D01*
X520021Y556469D01*
X520272Y556171D01*
X520515Y555867D01*
X520751Y555557D01*
X520979Y555241D01*
X521200Y554920D01*
X521412Y554593D01*
X521616Y554261D01*
X521813Y553925D01*
X522001Y553583D01*
X522180Y553238D01*
X522351Y552887D01*
X522513Y552533D01*
X522667Y552175D01*
X522811Y551813D01*
X522947Y551448D01*
X523074Y551080D01*
X523191Y550708D01*
X523300Y550334D01*
X523399Y549957D01*
X523489Y549578D01*
X523570Y549197D01*
X523641Y548814D01*
X523703Y548429D01*
X523756Y548043D01*
X523799Y547656D01*
X523832Y547268D01*
X523856Y546879D01*
X523870Y546490D01*
X523875Y546100D01*
X523870Y545710D01*
X523856Y545321D01*
X523832Y544932D01*
X523799Y544544D01*
X523756Y544157D01*
X523703Y543771D01*
X523641Y543386D01*
X523570Y543003D01*
X523489Y542622D01*
X523399Y542243D01*
X523300Y541866D01*
X523191Y541492D01*
X523074Y541120D01*
X522947Y540752D01*
X522811Y540387D01*
X522667Y540025D01*
X522513Y539667D01*
X522351Y539313D01*
X522180Y538962D01*
X522001Y538617D01*
X521813Y538275D01*
X521616Y537939D01*
X521412Y537607D01*
X521200Y537280D01*
X520979Y536959D01*
X520751Y536643D01*
X520515Y536333D01*
X520272Y536029D01*
X520021Y535731D01*
X519763Y535439D01*
X519497Y535154D01*
X519225Y534875D01*
X518946Y534603D01*
X518661Y534337D01*
X518369Y534079D01*
X518071Y533828D01*
X517767Y533585D01*
X517457Y533349D01*
X517141Y533121D01*
X516820Y532900D01*
X516493Y532688D01*
X516161Y532484D01*
X515825Y532287D01*
X515483Y532099D01*
X515138Y531920D01*
X514787Y531749D01*
X514433Y531587D01*
X514075Y531433D01*
X513713Y531289D01*
X513348Y531153D01*
X512980Y531026D01*
X512608Y530909D01*
X512234Y530800D01*
X511857Y530701D01*
X511478Y530611D01*
X511097Y530530D01*
X510714Y530459D01*
X510329Y530397D01*
X509943Y530344D01*
X509556Y530301D01*
X509168Y530268D01*
X508779Y530244D01*
X508390Y530230D01*
X508000Y530225D01*
X507610Y530230D01*
X507221Y530244D01*
X506832Y530268D01*
X506444Y530301D01*
X506057Y530344D01*
X505671Y530397D01*
X505286Y530459D01*
X504903Y530530D01*
X504522Y530611D01*
X504143Y530701D01*
X503766Y530800D01*
X503392Y530909D01*
X503020Y531026D01*
X502652Y531153D01*
X502287Y531289D01*
X501925Y531433D01*
X501567Y531587D01*
X501213Y531749D01*
X500862Y531920D01*
X500517Y532099D01*
X500175Y532287D01*
X499839Y532484D01*
X499507Y532688D01*
X499180Y532900D01*
X498859Y533121D01*
X498543Y533349D01*
X498233Y533585D01*
X497929Y533828D01*
X497631Y534079D01*
X497339Y534337D01*
X497054Y534603D01*
X496775Y534875D01*
X496503Y535154D01*
X496237Y535439D01*
X495979Y535731D01*
X495728Y536029D01*
X495485Y536333D01*
X495249Y536643D01*
X495021Y536959D01*
X494800Y537280D01*
X494588Y537607D01*
X494384Y537939D01*
X494187Y538275D01*
X493999Y538617D01*
X493820Y538962D01*
X493649Y539313D01*
X493487Y539667D01*
X493333Y540025D01*
X493189Y540387D01*
X493053Y540752D01*
X492926Y541120D01*
X492809Y541492D01*
X492700Y541866D01*
X492601Y542243D01*
X492511Y542622D01*
X492430Y543003D01*
X492359Y543386D01*
X492297Y543771D01*
X492244Y544157D01*
X492201Y544544D01*
X492168Y544932D01*
X492144Y545321D01*
X492130Y545710D01*
X492125Y546100D01*
X450100Y178850D02*
X450102Y178998D01*
X450108Y179146D01*
X450118Y179294D01*
X450132Y179442D01*
X450150Y179589D01*
X450172Y179736D01*
X450198Y179882D01*
X450227Y180027D01*
X450261Y180172D01*
X450299Y180315D01*
X450340Y180458D01*
X450385Y180599D01*
X450435Y180739D01*
X450487Y180877D01*
X450544Y181015D01*
X450604Y181150D01*
X450668Y181284D01*
X450735Y181416D01*
X450806Y181546D01*
X450881Y181675D01*
X450959Y181801D01*
X451040Y181925D01*
X451124Y182047D01*
X451212Y182166D01*
X451303Y182283D01*
X451397Y182398D01*
X451495Y182510D01*
X451595Y182619D01*
X451698Y182726D01*
X451804Y182830D01*
X451912Y182931D01*
X452024Y183029D01*
X452138Y183124D01*
X452254Y183215D01*
X452373Y183304D01*
X452494Y183389D01*
X452618Y183471D01*
X452744Y183550D01*
X452871Y183625D01*
X453001Y183697D01*
X453133Y183766D01*
X453266Y183830D01*
X453401Y183891D01*
X453538Y183949D01*
X453676Y184003D01*
X453816Y184053D01*
X453957Y184099D01*
X454099Y184141D01*
X454242Y184180D01*
X454386Y184214D01*
X454532Y184245D01*
X454677Y184272D01*
X454824Y184295D01*
X454971Y184314D01*
X455119Y184329D01*
X455266Y184340D01*
X455415Y184347D01*
X455563Y184350D01*
X455711Y184349D01*
X455859Y184344D01*
X456007Y184335D01*
X456155Y184322D01*
X456303Y184305D01*
X456449Y184284D01*
X456596Y184259D01*
X456741Y184230D01*
X456886Y184198D01*
X457029Y184161D01*
X457172Y184121D01*
X457314Y184076D01*
X457454Y184028D01*
X457593Y183976D01*
X457730Y183921D01*
X457866Y183861D01*
X458001Y183798D01*
X458133Y183732D01*
X458264Y183662D01*
X458393Y183588D01*
X458519Y183511D01*
X458644Y183431D01*
X458766Y183347D01*
X458887Y183260D01*
X459004Y183170D01*
X459120Y183076D01*
X459232Y182980D01*
X459342Y182881D01*
X459450Y182778D01*
X459554Y182673D01*
X459656Y182565D01*
X459754Y182454D01*
X459850Y182341D01*
X459943Y182225D01*
X460032Y182107D01*
X460118Y181986D01*
X460201Y181863D01*
X460281Y181738D01*
X460357Y181611D01*
X460430Y181481D01*
X460499Y181350D01*
X460564Y181217D01*
X460627Y181083D01*
X460685Y180946D01*
X460740Y180808D01*
X460790Y180669D01*
X460838Y180528D01*
X460881Y180387D01*
X460921Y180244D01*
X460956Y180100D01*
X460988Y179955D01*
X461016Y179809D01*
X461040Y179663D01*
X461060Y179516D01*
X461076Y179368D01*
X461088Y179221D01*
X461096Y179072D01*
X461100Y178924D01*
X461100Y178776D01*
X461096Y178628D01*
X461088Y178479D01*
X461076Y178332D01*
X461060Y178184D01*
X461040Y178037D01*
X461016Y177891D01*
X460988Y177745D01*
X460956Y177600D01*
X460921Y177456D01*
X460881Y177313D01*
X460838Y177172D01*
X460790Y177031D01*
X460740Y176892D01*
X460685Y176754D01*
X460627Y176617D01*
X460564Y176483D01*
X460499Y176350D01*
X460430Y176219D01*
X460357Y176089D01*
X460281Y175962D01*
X460201Y175837D01*
X460118Y175714D01*
X460032Y175593D01*
X459943Y175475D01*
X459850Y175359D01*
X459754Y175246D01*
X459656Y175135D01*
X459554Y175027D01*
X459450Y174922D01*
X459342Y174819D01*
X459232Y174720D01*
X459120Y174624D01*
X459004Y174530D01*
X458887Y174440D01*
X458766Y174353D01*
X458644Y174269D01*
X458519Y174189D01*
X458393Y174112D01*
X458264Y174038D01*
X458133Y173968D01*
X458001Y173902D01*
X457866Y173839D01*
X457730Y173779D01*
X457593Y173724D01*
X457454Y173672D01*
X457314Y173624D01*
X457172Y173579D01*
X457029Y173539D01*
X456886Y173502D01*
X456741Y173470D01*
X456596Y173441D01*
X456449Y173416D01*
X456303Y173395D01*
X456155Y173378D01*
X456007Y173365D01*
X455859Y173356D01*
X455711Y173351D01*
X455563Y173350D01*
X455415Y173353D01*
X455266Y173360D01*
X455119Y173371D01*
X454971Y173386D01*
X454824Y173405D01*
X454677Y173428D01*
X454532Y173455D01*
X454386Y173486D01*
X454242Y173520D01*
X454099Y173559D01*
X453957Y173601D01*
X453816Y173647D01*
X453676Y173697D01*
X453538Y173751D01*
X453401Y173809D01*
X453266Y173870D01*
X453133Y173934D01*
X453001Y174003D01*
X452871Y174075D01*
X452744Y174150D01*
X452618Y174229D01*
X452494Y174311D01*
X452373Y174396D01*
X452254Y174485D01*
X452138Y174576D01*
X452024Y174671D01*
X451912Y174769D01*
X451804Y174870D01*
X451698Y174974D01*
X451595Y175081D01*
X451495Y175190D01*
X451397Y175302D01*
X451303Y175417D01*
X451212Y175534D01*
X451124Y175653D01*
X451040Y175775D01*
X450959Y175899D01*
X450881Y176025D01*
X450806Y176154D01*
X450735Y176284D01*
X450668Y176416D01*
X450604Y176550D01*
X450544Y176685D01*
X450487Y176823D01*
X450435Y176961D01*
X450385Y177101D01*
X450340Y177242D01*
X450299Y177385D01*
X450261Y177528D01*
X450227Y177673D01*
X450198Y177818D01*
X450172Y177964D01*
X450150Y178111D01*
X450132Y178258D01*
X450118Y178406D01*
X450108Y178554D01*
X450102Y178702D01*
X450100Y178850D01*
X247600Y178850D02*
X247602Y179046D01*
X247610Y179243D01*
X247622Y179439D01*
X247639Y179634D01*
X247660Y179829D01*
X247687Y180024D01*
X247718Y180218D01*
X247754Y180411D01*
X247794Y180603D01*
X247840Y180794D01*
X247890Y180984D01*
X247944Y181172D01*
X248004Y181359D01*
X248068Y181545D01*
X248136Y181729D01*
X248209Y181911D01*
X248286Y182092D01*
X248368Y182270D01*
X248454Y182447D01*
X248545Y182621D01*
X248639Y182793D01*
X248738Y182963D01*
X248841Y183130D01*
X248948Y183295D01*
X249059Y183456D01*
X249174Y183616D01*
X249293Y183772D01*
X249416Y183925D01*
X249542Y184075D01*
X249672Y184222D01*
X249806Y184366D01*
X249943Y184507D01*
X250084Y184644D01*
X250228Y184778D01*
X250375Y184908D01*
X250525Y185034D01*
X250678Y185157D01*
X250834Y185276D01*
X250994Y185391D01*
X251155Y185502D01*
X251320Y185609D01*
X251487Y185712D01*
X251657Y185811D01*
X251829Y185905D01*
X252003Y185996D01*
X252180Y186082D01*
X252358Y186164D01*
X252539Y186241D01*
X252721Y186314D01*
X252905Y186382D01*
X253091Y186446D01*
X253278Y186506D01*
X253466Y186560D01*
X253656Y186610D01*
X253847Y186656D01*
X254039Y186696D01*
X254232Y186732D01*
X254426Y186763D01*
X254621Y186790D01*
X254816Y186811D01*
X255011Y186828D01*
X255207Y186840D01*
X255404Y186848D01*
X255600Y186850D01*
X255796Y186848D01*
X255993Y186840D01*
X256189Y186828D01*
X256384Y186811D01*
X256579Y186790D01*
X256774Y186763D01*
X256968Y186732D01*
X257161Y186696D01*
X257353Y186656D01*
X257544Y186610D01*
X257734Y186560D01*
X257922Y186506D01*
X258109Y186446D01*
X258295Y186382D01*
X258479Y186314D01*
X258661Y186241D01*
X258842Y186164D01*
X259020Y186082D01*
X259197Y185996D01*
X259371Y185905D01*
X259543Y185811D01*
X259713Y185712D01*
X259880Y185609D01*
X260045Y185502D01*
X260206Y185391D01*
X260366Y185276D01*
X260522Y185157D01*
X260675Y185034D01*
X260825Y184908D01*
X260972Y184778D01*
X261116Y184644D01*
X261257Y184507D01*
X261394Y184366D01*
X261528Y184222D01*
X261658Y184075D01*
X261784Y183925D01*
X261907Y183772D01*
X262026Y183616D01*
X262141Y183456D01*
X262252Y183295D01*
X262359Y183130D01*
X262462Y182963D01*
X262561Y182793D01*
X262655Y182621D01*
X262746Y182447D01*
X262832Y182270D01*
X262914Y182092D01*
X262991Y181911D01*
X263064Y181729D01*
X263132Y181545D01*
X263196Y181359D01*
X263256Y181172D01*
X263310Y180984D01*
X263360Y180794D01*
X263406Y180603D01*
X263446Y180411D01*
X263482Y180218D01*
X263513Y180024D01*
X263540Y179829D01*
X263561Y179634D01*
X263578Y179439D01*
X263590Y179243D01*
X263598Y179046D01*
X263600Y178850D01*
X263598Y178654D01*
X263590Y178457D01*
X263578Y178261D01*
X263561Y178066D01*
X263540Y177871D01*
X263513Y177676D01*
X263482Y177482D01*
X263446Y177289D01*
X263406Y177097D01*
X263360Y176906D01*
X263310Y176716D01*
X263256Y176528D01*
X263196Y176341D01*
X263132Y176155D01*
X263064Y175971D01*
X262991Y175789D01*
X262914Y175608D01*
X262832Y175430D01*
X262746Y175253D01*
X262655Y175079D01*
X262561Y174907D01*
X262462Y174737D01*
X262359Y174570D01*
X262252Y174405D01*
X262141Y174244D01*
X262026Y174084D01*
X261907Y173928D01*
X261784Y173775D01*
X261658Y173625D01*
X261528Y173478D01*
X261394Y173334D01*
X261257Y173193D01*
X261116Y173056D01*
X260972Y172922D01*
X260825Y172792D01*
X260675Y172666D01*
X260522Y172543D01*
X260366Y172424D01*
X260206Y172309D01*
X260045Y172198D01*
X259880Y172091D01*
X259713Y171988D01*
X259543Y171889D01*
X259371Y171795D01*
X259197Y171704D01*
X259020Y171618D01*
X258842Y171536D01*
X258661Y171459D01*
X258479Y171386D01*
X258295Y171318D01*
X258109Y171254D01*
X257922Y171194D01*
X257734Y171140D01*
X257544Y171090D01*
X257353Y171044D01*
X257161Y171004D01*
X256968Y170968D01*
X256774Y170937D01*
X256579Y170910D01*
X256384Y170889D01*
X256189Y170872D01*
X255993Y170860D01*
X255796Y170852D01*
X255600Y170850D01*
X255404Y170852D01*
X255207Y170860D01*
X255011Y170872D01*
X254816Y170889D01*
X254621Y170910D01*
X254426Y170937D01*
X254232Y170968D01*
X254039Y171004D01*
X253847Y171044D01*
X253656Y171090D01*
X253466Y171140D01*
X253278Y171194D01*
X253091Y171254D01*
X252905Y171318D01*
X252721Y171386D01*
X252539Y171459D01*
X252358Y171536D01*
X252180Y171618D01*
X252003Y171704D01*
X251829Y171795D01*
X251657Y171889D01*
X251487Y171988D01*
X251320Y172091D01*
X251155Y172198D01*
X250994Y172309D01*
X250834Y172424D01*
X250678Y172543D01*
X250525Y172666D01*
X250375Y172792D01*
X250228Y172922D01*
X250084Y173056D01*
X249943Y173193D01*
X249806Y173334D01*
X249672Y173478D01*
X249542Y173625D01*
X249416Y173775D01*
X249293Y173928D01*
X249174Y174084D01*
X249059Y174244D01*
X248948Y174405D01*
X248841Y174570D01*
X248738Y174737D01*
X248639Y174907D01*
X248545Y175079D01*
X248454Y175253D01*
X248368Y175430D01*
X248286Y175608D01*
X248209Y175789D01*
X248136Y175971D01*
X248068Y176155D01*
X248004Y176341D01*
X247944Y176528D01*
X247890Y176716D01*
X247840Y176906D01*
X247794Y177097D01*
X247754Y177289D01*
X247718Y177482D01*
X247687Y177676D01*
X247660Y177871D01*
X247639Y178066D01*
X247622Y178261D01*
X247610Y178457D01*
X247602Y178654D01*
X247600Y178850D01*
M02*
