G04 EAGLE Gerber RS-274X export*
G75*
%MOMM*%
%FSLAX34Y34*%
%LPD*%
%INSilkscreen Bottom*%
%IPPOS*%
%AMOC8*
5,1,8,0,0,1.08239X$1,22.5*%
G01*
%ADD10C,0.101600*%
%ADD11C,0.254000*%
%ADD12C,0.203200*%
%ADD13C,0.100000*%
%ADD14R,2.940000X0.740000*%

G36*
X193225Y360930D02*
X193225Y360930D01*
X193281Y360930D01*
X193309Y360945D01*
X193341Y360950D01*
X193400Y360990D01*
X193436Y361008D01*
X193445Y361020D01*
X193461Y361031D01*
X197769Y365339D01*
X197786Y365366D01*
X197810Y365387D01*
X197831Y365439D01*
X197860Y365486D01*
X197863Y365518D01*
X197875Y365548D01*
X197872Y365603D01*
X197877Y365659D01*
X197865Y365689D01*
X197863Y365721D01*
X197829Y365784D01*
X197815Y365821D01*
X197804Y365831D01*
X197795Y365848D01*
X192828Y371939D01*
X194017Y374249D01*
X194024Y374275D01*
X194041Y374307D01*
X194833Y376781D01*
X202652Y377575D01*
X202683Y377585D01*
X202715Y377586D01*
X202764Y377613D01*
X202816Y377631D01*
X202839Y377654D01*
X202867Y377669D01*
X202899Y377715D01*
X202938Y377754D01*
X202948Y377785D01*
X202967Y377811D01*
X202980Y377881D01*
X202993Y377919D01*
X202991Y377934D01*
X202994Y377953D01*
X202994Y384047D01*
X202987Y384078D01*
X202989Y384110D01*
X202967Y384161D01*
X202955Y384216D01*
X202934Y384240D01*
X202922Y384270D01*
X202880Y384306D01*
X202845Y384349D01*
X202815Y384362D01*
X202791Y384383D01*
X202722Y384404D01*
X202686Y384420D01*
X202671Y384420D01*
X202652Y384425D01*
X194833Y385219D01*
X194041Y387693D01*
X194028Y387716D01*
X194017Y387751D01*
X192828Y390061D01*
X197795Y396152D01*
X197809Y396180D01*
X197830Y396204D01*
X197846Y396257D01*
X197871Y396307D01*
X197871Y396339D01*
X197880Y396370D01*
X197870Y396425D01*
X197870Y396481D01*
X197855Y396509D01*
X197850Y396541D01*
X197810Y396600D01*
X197792Y396636D01*
X197780Y396645D01*
X197769Y396661D01*
X193461Y400969D01*
X193434Y400986D01*
X193413Y401010D01*
X193361Y401031D01*
X193314Y401060D01*
X193282Y401063D01*
X193252Y401075D01*
X193197Y401072D01*
X193141Y401077D01*
X193111Y401065D01*
X193079Y401063D01*
X193016Y401029D01*
X192979Y401015D01*
X192969Y401004D01*
X192952Y400995D01*
X186861Y396028D01*
X184551Y397217D01*
X184525Y397224D01*
X184493Y397241D01*
X182019Y398033D01*
X181225Y405852D01*
X181217Y405878D01*
X181216Y405890D01*
X181215Y405893D01*
X181214Y405915D01*
X181187Y405964D01*
X181169Y406016D01*
X181146Y406039D01*
X181131Y406067D01*
X181085Y406099D01*
X181046Y406138D01*
X181015Y406148D01*
X180989Y406167D01*
X180919Y406180D01*
X180881Y406193D01*
X180866Y406191D01*
X180847Y406194D01*
X174753Y406194D01*
X174722Y406187D01*
X174690Y406189D01*
X174639Y406167D01*
X174584Y406155D01*
X174560Y406134D01*
X174530Y406122D01*
X174494Y406080D01*
X174451Y406045D01*
X174438Y406015D01*
X174417Y405991D01*
X174396Y405922D01*
X174380Y405886D01*
X174380Y405871D01*
X174378Y405864D01*
X174377Y405862D01*
X174377Y405861D01*
X174375Y405852D01*
X173581Y398033D01*
X171107Y397241D01*
X171084Y397228D01*
X171049Y397217D01*
X168739Y396028D01*
X162648Y400995D01*
X162620Y401009D01*
X162596Y401030D01*
X162543Y401046D01*
X162493Y401071D01*
X162461Y401071D01*
X162430Y401080D01*
X162375Y401070D01*
X162319Y401070D01*
X162291Y401055D01*
X162259Y401050D01*
X162200Y401010D01*
X162165Y400992D01*
X162155Y400980D01*
X162139Y400969D01*
X157831Y396661D01*
X157814Y396634D01*
X157790Y396613D01*
X157769Y396561D01*
X157740Y396514D01*
X157737Y396482D01*
X157725Y396452D01*
X157729Y396397D01*
X157723Y396341D01*
X157735Y396311D01*
X157737Y396279D01*
X157771Y396216D01*
X157785Y396179D01*
X157796Y396169D01*
X157805Y396152D01*
X162772Y390061D01*
X161583Y387751D01*
X161576Y387725D01*
X161559Y387693D01*
X160767Y385219D01*
X152948Y384425D01*
X152917Y384415D01*
X152885Y384414D01*
X152836Y384387D01*
X152784Y384369D01*
X152761Y384346D01*
X152733Y384331D01*
X152701Y384285D01*
X152662Y384246D01*
X152652Y384215D01*
X152633Y384189D01*
X152620Y384119D01*
X152607Y384081D01*
X152609Y384066D01*
X152606Y384047D01*
X152606Y377953D01*
X152613Y377922D01*
X152611Y377890D01*
X152633Y377839D01*
X152645Y377784D01*
X152666Y377760D01*
X152678Y377730D01*
X152720Y377694D01*
X152755Y377651D01*
X152785Y377638D01*
X152809Y377617D01*
X152878Y377596D01*
X152914Y377580D01*
X152929Y377580D01*
X152948Y377575D01*
X160767Y376781D01*
X161559Y374307D01*
X161572Y374284D01*
X161583Y374249D01*
X162772Y371939D01*
X157805Y365848D01*
X157791Y365820D01*
X157770Y365796D01*
X157754Y365743D01*
X157729Y365693D01*
X157729Y365661D01*
X157720Y365630D01*
X157730Y365575D01*
X157730Y365519D01*
X157745Y365491D01*
X157750Y365459D01*
X157790Y365400D01*
X157808Y365365D01*
X157820Y365355D01*
X157831Y365339D01*
X162139Y361031D01*
X162166Y361014D01*
X162187Y360990D01*
X162239Y360969D01*
X162286Y360940D01*
X162318Y360937D01*
X162348Y360925D01*
X162403Y360929D01*
X162459Y360923D01*
X162489Y360935D01*
X162521Y360937D01*
X162584Y360971D01*
X162621Y360985D01*
X162631Y360996D01*
X162648Y361005D01*
X168739Y365972D01*
X171048Y364782D01*
X171112Y364766D01*
X171175Y364743D01*
X171196Y364745D01*
X171216Y364740D01*
X171281Y364754D01*
X171347Y364761D01*
X171365Y364772D01*
X171385Y364777D01*
X171437Y364818D01*
X171493Y364854D01*
X171506Y364873D01*
X171521Y364885D01*
X171537Y364920D01*
X171573Y364974D01*
X175161Y373636D01*
X175166Y373668D01*
X175180Y373696D01*
X175180Y373752D01*
X175189Y373807D01*
X175180Y373838D01*
X175180Y373869D01*
X175155Y373920D01*
X175139Y373973D01*
X175117Y373996D01*
X175103Y374025D01*
X175047Y374071D01*
X175020Y374099D01*
X175006Y374104D01*
X174991Y374117D01*
X173614Y374861D01*
X172448Y375845D01*
X171508Y377047D01*
X170834Y378415D01*
X170453Y379893D01*
X170381Y381417D01*
X170623Y382923D01*
X171167Y384349D01*
X171991Y385633D01*
X173060Y386722D01*
X174328Y387570D01*
X175743Y388140D01*
X177245Y388410D01*
X178770Y388367D01*
X180254Y388014D01*
X181635Y387364D01*
X182854Y386447D01*
X183860Y385300D01*
X184611Y383971D01*
X185074Y382518D01*
X185231Y380999D01*
X185088Y379550D01*
X184665Y378156D01*
X183979Y376872D01*
X183055Y375746D01*
X181929Y374822D01*
X180611Y374117D01*
X180586Y374096D01*
X180557Y374082D01*
X180522Y374039D01*
X180481Y374003D01*
X180468Y373973D01*
X180448Y373948D01*
X180436Y373894D01*
X180415Y373843D01*
X180417Y373810D01*
X180410Y373778D01*
X180424Y373709D01*
X180427Y373670D01*
X180435Y373656D01*
X180439Y373636D01*
X184027Y364974D01*
X184066Y364920D01*
X184098Y364863D01*
X184115Y364851D01*
X184128Y364834D01*
X184186Y364803D01*
X184241Y364765D01*
X184262Y364762D01*
X184281Y364752D01*
X184347Y364751D01*
X184413Y364741D01*
X184436Y364748D01*
X184454Y364747D01*
X184489Y364764D01*
X184552Y364782D01*
X186861Y365972D01*
X192952Y361005D01*
X192980Y360991D01*
X193004Y360970D01*
X193057Y360954D01*
X193107Y360929D01*
X193139Y360929D01*
X193170Y360920D01*
X193225Y360930D01*
G37*
D10*
X455467Y414031D02*
X464280Y414031D01*
X464280Y400812D01*
X455467Y400812D01*
X459873Y407422D02*
X464280Y407422D01*
X451182Y409625D02*
X451182Y400812D01*
X451182Y409625D02*
X444573Y409625D01*
X442369Y407422D01*
X442369Y400812D01*
X433679Y396406D02*
X431475Y396406D01*
X429272Y398609D01*
X429272Y409625D01*
X435882Y409625D01*
X438085Y407422D01*
X438085Y403015D01*
X435882Y400812D01*
X429272Y400812D01*
X424988Y409625D02*
X422785Y409625D01*
X422785Y400812D01*
X424988Y400812D02*
X420581Y400812D01*
X422785Y414031D02*
X422785Y416235D01*
X416256Y409625D02*
X416256Y400812D01*
X416256Y409625D02*
X409647Y409625D01*
X407443Y407422D01*
X407443Y400812D01*
X400956Y400812D02*
X396549Y400812D01*
X400956Y400812D02*
X403159Y403015D01*
X403159Y407422D01*
X400956Y409625D01*
X396549Y409625D01*
X394346Y407422D01*
X394346Y405218D01*
X403159Y405218D01*
X387859Y400812D02*
X383452Y400812D01*
X387859Y400812D02*
X390062Y403015D01*
X390062Y407422D01*
X387859Y409625D01*
X383452Y409625D01*
X381249Y407422D01*
X381249Y405218D01*
X390062Y405218D01*
X376965Y400812D02*
X376965Y409625D01*
X376965Y405218D02*
X372558Y409625D01*
X370355Y409625D01*
X366050Y409625D02*
X363847Y409625D01*
X363847Y400812D01*
X366050Y400812D02*
X361644Y400812D01*
X363847Y414031D02*
X363847Y416235D01*
X357319Y409625D02*
X357319Y400812D01*
X357319Y409625D02*
X350709Y409625D01*
X348506Y407422D01*
X348506Y400812D01*
X339815Y396406D02*
X337612Y396406D01*
X335409Y398609D01*
X335409Y409625D01*
X342018Y409625D01*
X344221Y407422D01*
X344221Y403015D01*
X342018Y400812D01*
X335409Y400812D01*
X331124Y409625D02*
X326718Y414031D01*
X322311Y409625D01*
X318027Y411828D02*
X315824Y414031D01*
X311417Y414031D01*
X309214Y411828D01*
X309214Y409625D01*
X311417Y407422D01*
X313620Y407422D01*
X311417Y407422D02*
X309214Y405218D01*
X309214Y403015D01*
X311417Y400812D01*
X315824Y400812D01*
X318027Y403015D01*
X304930Y396406D02*
X300523Y400812D01*
X300523Y403015D01*
X302726Y403015D01*
X302726Y400812D01*
X300523Y400812D01*
X283101Y400812D02*
X274288Y400812D01*
X283101Y400812D02*
X274288Y409625D01*
X274288Y411828D01*
X276491Y414031D01*
X280898Y414031D01*
X283101Y411828D01*
X270004Y411828D02*
X270004Y403015D01*
X270004Y411828D02*
X267800Y414031D01*
X263394Y414031D01*
X261191Y411828D01*
X261191Y403015D01*
X263394Y400812D01*
X267800Y400812D01*
X270004Y403015D01*
X261191Y411828D01*
X256906Y409625D02*
X252500Y414031D01*
X252500Y400812D01*
X256906Y400812D02*
X248094Y400812D01*
X243809Y411828D02*
X241606Y414031D01*
X237200Y414031D01*
X234996Y411828D01*
X234996Y409625D01*
X237200Y407422D01*
X234996Y405218D01*
X234996Y403015D01*
X237200Y400812D01*
X241606Y400812D01*
X243809Y403015D01*
X243809Y405218D01*
X241606Y407422D01*
X243809Y409625D01*
X243809Y411828D01*
X241606Y407422D02*
X237200Y407422D01*
X490474Y392695D02*
X490474Y379476D01*
X490474Y386086D02*
X488271Y388289D01*
X483864Y388289D01*
X481661Y386086D01*
X481661Y379476D01*
X475174Y381679D02*
X475174Y390492D01*
X475174Y381679D02*
X472970Y379476D01*
X472970Y388289D02*
X477377Y388289D01*
X466442Y390492D02*
X466442Y381679D01*
X464239Y379476D01*
X464239Y388289D02*
X468645Y388289D01*
X459914Y388289D02*
X459914Y375070D01*
X459914Y388289D02*
X453304Y388289D01*
X451101Y386086D01*
X451101Y381679D01*
X453304Y379476D01*
X459914Y379476D01*
X446817Y388289D02*
X444613Y388289D01*
X444613Y386086D01*
X446817Y386086D01*
X446817Y388289D01*
X446817Y381679D02*
X444613Y381679D01*
X444613Y379476D01*
X446817Y379476D01*
X446817Y381679D01*
X440268Y379476D02*
X431455Y392695D01*
X418358Y392695D02*
X427171Y379476D01*
X411870Y379476D02*
X407464Y379476D01*
X411870Y379476D02*
X414073Y381679D01*
X414073Y386086D01*
X411870Y388289D01*
X407464Y388289D01*
X405261Y386086D01*
X405261Y383882D01*
X414073Y383882D01*
X400976Y379476D02*
X400976Y388289D01*
X394367Y388289D01*
X392163Y386086D01*
X392163Y379476D01*
X383472Y375070D02*
X381269Y375070D01*
X379066Y377273D01*
X379066Y388289D01*
X385676Y388289D01*
X387879Y386086D01*
X387879Y381679D01*
X385676Y379476D01*
X379066Y379476D01*
X374782Y388289D02*
X372578Y388289D01*
X372578Y379476D01*
X370375Y379476D02*
X374782Y379476D01*
X372578Y392695D02*
X372578Y394899D01*
X366050Y388289D02*
X366050Y379476D01*
X366050Y388289D02*
X359441Y388289D01*
X357237Y386086D01*
X357237Y379476D01*
X350750Y379476D02*
X346343Y379476D01*
X350750Y379476D02*
X352953Y381679D01*
X352953Y386086D01*
X350750Y388289D01*
X346343Y388289D01*
X344140Y386086D01*
X344140Y383882D01*
X352953Y383882D01*
X337652Y379476D02*
X333246Y379476D01*
X337652Y379476D02*
X339856Y381679D01*
X339856Y386086D01*
X337652Y388289D01*
X333246Y388289D01*
X331043Y386086D01*
X331043Y383882D01*
X339856Y383882D01*
X326758Y379476D02*
X326758Y388289D01*
X322352Y388289D02*
X326758Y383882D01*
X322352Y388289D02*
X320149Y388289D01*
X315844Y388289D02*
X313641Y388289D01*
X313641Y379476D01*
X315844Y379476D02*
X311438Y379476D01*
X313641Y392695D02*
X313641Y394899D01*
X307113Y388289D02*
X307113Y379476D01*
X307113Y388289D02*
X300503Y388289D01*
X298300Y386086D01*
X298300Y379476D01*
X289609Y375070D02*
X287406Y375070D01*
X285202Y377273D01*
X285202Y388289D01*
X291812Y388289D01*
X294015Y386086D01*
X294015Y381679D01*
X291812Y379476D01*
X285202Y379476D01*
X280918Y390492D02*
X278715Y392695D01*
X274308Y392695D01*
X272105Y390492D01*
X272105Y388289D01*
X274308Y386086D01*
X276512Y386086D01*
X274308Y386086D02*
X272105Y383882D01*
X272105Y381679D01*
X274308Y379476D01*
X278715Y379476D01*
X280918Y381679D01*
X267821Y381679D02*
X267821Y379476D01*
X267821Y381679D02*
X265618Y381679D01*
X265618Y379476D01*
X267821Y379476D01*
X259069Y379476D02*
X254663Y379476D01*
X252459Y381679D01*
X252459Y386086D01*
X254663Y388289D01*
X259069Y388289D01*
X261272Y386086D01*
X261272Y381679D01*
X259069Y379476D01*
X248175Y379476D02*
X248175Y388289D01*
X248175Y383882D02*
X243768Y388289D01*
X241565Y388289D01*
X232854Y375070D02*
X230651Y375070D01*
X228448Y377273D01*
X228448Y388289D01*
X235057Y388289D01*
X237261Y386086D01*
X237261Y381679D01*
X235057Y379476D01*
X228448Y379476D01*
X293370Y333259D02*
X293370Y320040D01*
X293370Y333259D02*
X286760Y333259D01*
X284557Y331056D01*
X284557Y326650D01*
X286760Y324446D01*
X293370Y324446D01*
X288964Y324446D02*
X284557Y320040D01*
X278070Y320040D02*
X273663Y320040D01*
X271460Y322243D01*
X271460Y326650D01*
X273663Y328853D01*
X278070Y328853D01*
X280273Y326650D01*
X280273Y322243D01*
X278070Y320040D01*
X267176Y320040D02*
X267176Y333259D01*
X267176Y326650D02*
X258363Y326650D01*
X258363Y333259D02*
X258363Y320040D01*
X245265Y331056D02*
X247469Y333259D01*
X251875Y333259D01*
X254078Y331056D01*
X254078Y328853D01*
X251875Y326650D01*
X247469Y326650D01*
X245265Y324446D01*
X245265Y322243D01*
X247469Y320040D01*
X251875Y320040D01*
X254078Y322243D01*
X284557Y309720D02*
X286760Y311923D01*
X291167Y311923D01*
X293370Y309720D01*
X293370Y300907D01*
X291167Y298704D01*
X286760Y298704D01*
X284557Y300907D01*
X278070Y298704D02*
X273663Y298704D01*
X271460Y300907D01*
X271460Y305314D01*
X273663Y307517D01*
X278070Y307517D01*
X280273Y305314D01*
X280273Y300907D01*
X278070Y298704D01*
X267176Y298704D02*
X267176Y307517D01*
X264972Y307517D01*
X262769Y305314D01*
X262769Y298704D01*
X262769Y305314D02*
X260566Y307517D01*
X258363Y305314D01*
X258363Y298704D01*
X254078Y294298D02*
X254078Y307517D01*
X247469Y307517D01*
X245265Y305314D01*
X245265Y300907D01*
X247469Y298704D01*
X254078Y298704D01*
X240981Y311923D02*
X238778Y311923D01*
X238778Y298704D01*
X240981Y298704D02*
X236575Y298704D01*
X232250Y307517D02*
X230046Y307517D01*
X230046Y298704D01*
X227843Y298704D02*
X232250Y298704D01*
X230046Y311923D02*
X230046Y314127D01*
X221315Y307517D02*
X216908Y307517D01*
X214705Y305314D01*
X214705Y298704D01*
X221315Y298704D01*
X223518Y300907D01*
X221315Y303110D01*
X214705Y303110D01*
X210421Y298704D02*
X210421Y307517D01*
X203811Y307517D01*
X201608Y305314D01*
X201608Y298704D01*
X195120Y300907D02*
X195120Y309720D01*
X195120Y300907D02*
X192917Y298704D01*
X192917Y307517D02*
X197324Y307517D01*
D11*
X490348Y405130D02*
X490352Y405439D01*
X490363Y405747D01*
X490382Y406055D01*
X490409Y406362D01*
X490443Y406669D01*
X490484Y406975D01*
X490533Y407279D01*
X490590Y407583D01*
X490653Y407885D01*
X490725Y408185D01*
X490803Y408483D01*
X490889Y408779D01*
X490983Y409074D01*
X491083Y409365D01*
X491190Y409655D01*
X491305Y409941D01*
X491427Y410225D01*
X491555Y410505D01*
X491690Y410783D01*
X491832Y411056D01*
X491981Y411327D01*
X492137Y411593D01*
X492299Y411856D01*
X492467Y412115D01*
X492641Y412369D01*
X492822Y412619D01*
X493009Y412865D01*
X493202Y413106D01*
X493400Y413342D01*
X493605Y413573D01*
X493815Y413799D01*
X494030Y414020D01*
X494251Y414235D01*
X494477Y414445D01*
X494708Y414650D01*
X494944Y414848D01*
X495185Y415041D01*
X495431Y415228D01*
X495681Y415409D01*
X495935Y415583D01*
X496194Y415751D01*
X496457Y415913D01*
X496723Y416069D01*
X496994Y416218D01*
X497267Y416360D01*
X497545Y416495D01*
X497825Y416623D01*
X498109Y416745D01*
X498395Y416860D01*
X498685Y416967D01*
X498976Y417067D01*
X499271Y417161D01*
X499567Y417247D01*
X499865Y417325D01*
X500165Y417397D01*
X500467Y417460D01*
X500771Y417517D01*
X501075Y417566D01*
X501381Y417607D01*
X501688Y417641D01*
X501995Y417668D01*
X502303Y417687D01*
X502611Y417698D01*
X502920Y417702D01*
X503229Y417698D01*
X503537Y417687D01*
X503845Y417668D01*
X504152Y417641D01*
X504459Y417607D01*
X504765Y417566D01*
X505069Y417517D01*
X505373Y417460D01*
X505675Y417397D01*
X505975Y417325D01*
X506273Y417247D01*
X506569Y417161D01*
X506864Y417067D01*
X507155Y416967D01*
X507445Y416860D01*
X507731Y416745D01*
X508015Y416623D01*
X508295Y416495D01*
X508573Y416360D01*
X508846Y416218D01*
X509117Y416069D01*
X509383Y415913D01*
X509646Y415751D01*
X509905Y415583D01*
X510159Y415409D01*
X510409Y415228D01*
X510655Y415041D01*
X510896Y414848D01*
X511132Y414650D01*
X511363Y414445D01*
X511589Y414235D01*
X511810Y414020D01*
X512025Y413799D01*
X512235Y413573D01*
X512440Y413342D01*
X512638Y413106D01*
X512831Y412865D01*
X513018Y412619D01*
X513199Y412369D01*
X513373Y412115D01*
X513541Y411856D01*
X513703Y411593D01*
X513859Y411327D01*
X514008Y411056D01*
X514150Y410783D01*
X514285Y410505D01*
X514413Y410225D01*
X514535Y409941D01*
X514650Y409655D01*
X514757Y409365D01*
X514857Y409074D01*
X514951Y408779D01*
X515037Y408483D01*
X515115Y408185D01*
X515187Y407885D01*
X515250Y407583D01*
X515307Y407279D01*
X515356Y406975D01*
X515397Y406669D01*
X515431Y406362D01*
X515458Y406055D01*
X515477Y405747D01*
X515488Y405439D01*
X515492Y405130D01*
X515488Y404821D01*
X515477Y404513D01*
X515458Y404205D01*
X515431Y403898D01*
X515397Y403591D01*
X515356Y403285D01*
X515307Y402981D01*
X515250Y402677D01*
X515187Y402375D01*
X515115Y402075D01*
X515037Y401777D01*
X514951Y401481D01*
X514857Y401186D01*
X514757Y400895D01*
X514650Y400605D01*
X514535Y400319D01*
X514413Y400035D01*
X514285Y399755D01*
X514150Y399477D01*
X514008Y399204D01*
X513859Y398933D01*
X513703Y398667D01*
X513541Y398404D01*
X513373Y398145D01*
X513199Y397891D01*
X513018Y397641D01*
X512831Y397395D01*
X512638Y397154D01*
X512440Y396918D01*
X512235Y396687D01*
X512025Y396461D01*
X511810Y396240D01*
X511589Y396025D01*
X511363Y395815D01*
X511132Y395610D01*
X510896Y395412D01*
X510655Y395219D01*
X510409Y395032D01*
X510159Y394851D01*
X509905Y394677D01*
X509646Y394509D01*
X509383Y394347D01*
X509117Y394191D01*
X508846Y394042D01*
X508573Y393900D01*
X508295Y393765D01*
X508015Y393637D01*
X507731Y393515D01*
X507445Y393400D01*
X507155Y393293D01*
X506864Y393193D01*
X506569Y393099D01*
X506273Y393013D01*
X505975Y392935D01*
X505675Y392863D01*
X505373Y392800D01*
X505069Y392743D01*
X504765Y392694D01*
X504459Y392653D01*
X504152Y392619D01*
X503845Y392592D01*
X503537Y392573D01*
X503229Y392562D01*
X502920Y392558D01*
X502611Y392562D01*
X502303Y392573D01*
X501995Y392592D01*
X501688Y392619D01*
X501381Y392653D01*
X501075Y392694D01*
X500771Y392743D01*
X500467Y392800D01*
X500165Y392863D01*
X499865Y392935D01*
X499567Y393013D01*
X499271Y393099D01*
X498976Y393193D01*
X498685Y393293D01*
X498395Y393400D01*
X498109Y393515D01*
X497825Y393637D01*
X497545Y393765D01*
X497267Y393900D01*
X496994Y394042D01*
X496723Y394191D01*
X496457Y394347D01*
X496194Y394509D01*
X495935Y394677D01*
X495681Y394851D01*
X495431Y395032D01*
X495185Y395219D01*
X494944Y395412D01*
X494708Y395610D01*
X494477Y395815D01*
X494251Y396025D01*
X494030Y396240D01*
X493815Y396461D01*
X493605Y396687D01*
X493400Y396918D01*
X493202Y397154D01*
X493009Y397395D01*
X492822Y397641D01*
X492641Y397891D01*
X492467Y398145D01*
X492299Y398404D01*
X492137Y398667D01*
X491981Y398933D01*
X491832Y399204D01*
X491690Y399477D01*
X491555Y399755D01*
X491427Y400035D01*
X491305Y400319D01*
X491190Y400605D01*
X491083Y400895D01*
X490983Y401186D01*
X490889Y401481D01*
X490803Y401777D01*
X490725Y402075D01*
X490653Y402375D01*
X490590Y402677D01*
X490533Y402981D01*
X490484Y403285D01*
X490443Y403591D01*
X490409Y403898D01*
X490382Y404205D01*
X490363Y404513D01*
X490352Y404821D01*
X490348Y405130D01*
X500380Y398780D02*
X500537Y398750D01*
X500695Y398725D01*
X500854Y398703D01*
X501013Y398685D01*
X501173Y398672D01*
X501333Y398662D01*
X501493Y398656D01*
X501653Y398654D01*
X501813Y398656D01*
X501973Y398662D01*
X502133Y398672D01*
X502292Y398686D01*
X502452Y398704D01*
X502610Y398726D01*
X502768Y398751D01*
X502926Y398781D01*
X503082Y398814D01*
X503238Y398852D01*
X503393Y398893D01*
X503546Y398938D01*
X503699Y398987D01*
X503850Y399039D01*
X504000Y399096D01*
X504149Y399155D01*
X504296Y399219D01*
X504441Y399286D01*
X504585Y399357D01*
X504727Y399431D01*
X504867Y399509D01*
X505005Y399591D01*
X505140Y399675D01*
X505274Y399763D01*
X505406Y399854D01*
X505535Y399949D01*
X505662Y400047D01*
X505787Y400147D01*
X505909Y400251D01*
X506028Y400358D01*
X506145Y400468D01*
X506258Y400580D01*
X506370Y400696D01*
X506478Y400814D01*
X506583Y400934D01*
X506685Y401058D01*
X506784Y401183D01*
X506880Y401311D01*
X506973Y401442D01*
X507063Y401575D01*
X507149Y401710D01*
X507232Y401847D01*
X507311Y401986D01*
X507387Y402127D01*
X507460Y402269D01*
X507529Y402414D01*
X507594Y402560D01*
X507656Y402708D01*
X507714Y402857D01*
X507768Y403008D01*
X507819Y403160D01*
X507866Y403313D01*
X507909Y403467D01*
X507948Y403623D01*
X507983Y403779D01*
X508015Y403936D01*
X508043Y404093D01*
X508066Y404252D01*
X508086Y404411D01*
X508102Y404570D01*
X508114Y404730D01*
X508122Y404890D01*
X508126Y405050D01*
X508126Y405210D01*
X508122Y405370D01*
X508114Y405530D01*
X508102Y405690D01*
X508086Y405849D01*
X508066Y406008D01*
X508043Y406167D01*
X508015Y406324D01*
X507983Y406481D01*
X507948Y406637D01*
X507909Y406793D01*
X507866Y406947D01*
X507819Y407100D01*
X507768Y407252D01*
X507714Y407403D01*
X507656Y407552D01*
X507594Y407700D01*
X507529Y407846D01*
X507460Y407991D01*
X507387Y408133D01*
X507311Y408274D01*
X507232Y408413D01*
X507149Y408550D01*
X507063Y408685D01*
X506973Y408818D01*
X506880Y408949D01*
X506784Y409077D01*
X506685Y409202D01*
X506583Y409326D01*
X506478Y409446D01*
X506370Y409564D01*
X506258Y409680D01*
X506145Y409792D01*
X506028Y409902D01*
X505909Y410009D01*
X505787Y410113D01*
X505662Y410213D01*
X505535Y410311D01*
X505406Y410406D01*
X505274Y410497D01*
X505140Y410585D01*
X505005Y410669D01*
X504867Y410751D01*
X504727Y410829D01*
X504585Y410903D01*
X504441Y410974D01*
X504296Y411041D01*
X504149Y411105D01*
X504000Y411164D01*
X503850Y411221D01*
X503699Y411273D01*
X503546Y411322D01*
X503393Y411367D01*
X503238Y411408D01*
X503082Y411446D01*
X502926Y411479D01*
X502768Y411509D01*
X502610Y411534D01*
X502452Y411556D01*
X502292Y411574D01*
X502133Y411588D01*
X501973Y411598D01*
X501813Y411604D01*
X501653Y411606D01*
X501493Y411604D01*
X501333Y411598D01*
X501173Y411588D01*
X501013Y411575D01*
X500854Y411557D01*
X500695Y411535D01*
X500537Y411510D01*
X500380Y411480D01*
D12*
X491998Y265189D02*
X481490Y265189D01*
X491998Y265189D02*
X491998Y249428D01*
X481490Y249428D01*
X486744Y257309D02*
X491998Y257309D01*
X475626Y259936D02*
X470373Y265189D01*
X465119Y259936D01*
X459255Y262563D02*
X456628Y265189D01*
X451374Y265189D01*
X448747Y262563D01*
X448747Y259936D01*
X451374Y257309D01*
X454001Y257309D01*
X451374Y257309D02*
X448747Y254682D01*
X448747Y252055D01*
X451374Y249428D01*
X456628Y249428D01*
X459255Y252055D01*
X426512Y249428D02*
X426512Y265189D01*
X418631Y265189D01*
X416004Y262563D01*
X416004Y257309D01*
X418631Y254682D01*
X426512Y254682D01*
X421258Y254682D02*
X416004Y249428D01*
X402259Y265189D02*
X399633Y262563D01*
X402259Y265189D02*
X407513Y265189D01*
X410140Y262563D01*
X410140Y252055D01*
X407513Y249428D01*
X402259Y249428D01*
X399633Y252055D01*
X393769Y249428D02*
X393769Y265189D01*
X388515Y259936D01*
X383261Y265189D01*
X383261Y249428D01*
X377397Y257309D02*
X366889Y257309D01*
X353145Y265189D02*
X350518Y262563D01*
X353145Y265189D02*
X358399Y265189D01*
X361026Y262563D01*
X361026Y252055D01*
X358399Y249428D01*
X353145Y249428D01*
X350518Y252055D01*
X342027Y249428D02*
X336773Y249428D01*
X334146Y252055D01*
X334146Y257309D01*
X336773Y259936D01*
X342027Y259936D01*
X344654Y257309D01*
X344654Y252055D01*
X342027Y249428D01*
X328282Y249428D02*
X328282Y259936D01*
X325655Y259936D01*
X323029Y257309D01*
X323029Y249428D01*
X323029Y257309D02*
X320402Y259936D01*
X317775Y257309D01*
X317775Y249428D01*
X311911Y249428D02*
X311911Y259936D01*
X309284Y259936D01*
X306657Y257309D01*
X306657Y249428D01*
X306657Y257309D02*
X304030Y259936D01*
X301403Y257309D01*
X301403Y249428D01*
X279168Y259936D02*
X273914Y249428D01*
X268660Y259936D01*
X254915Y265189D02*
X254915Y249428D01*
X262796Y257309D02*
X254915Y265189D01*
X252289Y257309D02*
X262796Y257309D01*
X230053Y254682D02*
X224799Y249428D01*
X230053Y254682D02*
X230053Y259936D01*
X224799Y265189D01*
X216512Y259936D02*
X208631Y259936D01*
X216512Y259936D02*
X219139Y257309D01*
X219139Y252055D01*
X216512Y249428D01*
X208631Y249428D01*
X202767Y249428D02*
X197513Y254682D01*
X197513Y259936D01*
X202767Y265189D01*
X175481Y249428D02*
X164974Y249428D01*
X175481Y249428D02*
X164974Y259936D01*
X164974Y262563D01*
X167600Y265189D01*
X172854Y265189D01*
X175481Y262563D01*
X159110Y262563D02*
X159110Y252055D01*
X159110Y262563D02*
X156483Y265189D01*
X151229Y265189D01*
X148602Y262563D01*
X148602Y252055D01*
X151229Y249428D01*
X156483Y249428D01*
X159110Y252055D01*
X148602Y262563D01*
X142738Y259936D02*
X137484Y265189D01*
X137484Y249428D01*
X142738Y249428D02*
X132230Y249428D01*
X126366Y262563D02*
X123740Y265189D01*
X118486Y265189D01*
X115859Y262563D01*
X115859Y259936D01*
X118486Y257309D01*
X115859Y254682D01*
X115859Y252055D01*
X118486Y249428D01*
X123740Y249428D01*
X126366Y252055D01*
X126366Y254682D01*
X123740Y257309D01*
X126366Y259936D01*
X126366Y262563D01*
X123740Y257309D02*
X118486Y257309D01*
D13*
X194310Y309910D02*
X161310Y343910D01*
X194310Y343910D02*
X162310Y310910D01*
X183110Y315410D02*
X185110Y338710D01*
X184810Y340010D01*
X184210Y340810D01*
X183410Y341410D01*
X182410Y341810D01*
X181210Y342210D01*
X180310Y342310D01*
X179510Y342410D01*
X178910Y342410D01*
X178910Y341710D01*
X174410Y341710D01*
X174410Y343210D01*
X178810Y343210D01*
X178810Y342010D01*
X174310Y342410D02*
X173110Y342210D01*
X171810Y341910D01*
X170910Y341510D01*
X170210Y340910D01*
X169510Y340010D01*
X169110Y338910D01*
X169110Y337110D01*
X170110Y337110D01*
X170110Y334210D01*
X169410Y334210D01*
X167210Y334210D01*
X167210Y337110D01*
X169110Y337110D01*
X169410Y334210D02*
X170810Y318210D01*
X171710Y318310D01*
X172710Y318210D01*
X173710Y317610D01*
X174010Y317010D01*
X174310Y316310D01*
X174310Y315510D01*
X173910Y314610D01*
X173410Y314010D01*
X172710Y313610D01*
X171810Y313510D01*
X170810Y313710D01*
X170110Y314210D01*
X169610Y315010D01*
X169510Y315910D01*
X169610Y316810D01*
X170010Y317510D01*
X170610Y317910D01*
X181810Y315410D02*
X183110Y315410D01*
X181110Y315410D02*
X174210Y315410D01*
X182610Y315310D02*
X182610Y312910D01*
X181110Y312910D01*
X181110Y315410D01*
X181810Y315410D01*
X181810Y313210D01*
X171810Y316510D02*
X171510Y316410D01*
X171310Y316110D01*
X171310Y315710D01*
X171510Y315410D01*
X171810Y315310D01*
X172110Y315310D01*
X172410Y315510D01*
X172510Y315810D01*
X172510Y316110D01*
X172310Y316410D01*
X172010Y316510D01*
X171910Y316010D01*
X178910Y331510D02*
X178910Y332410D01*
X178910Y331510D02*
X173310Y331510D01*
X173310Y333310D01*
X178910Y333310D01*
X178910Y332410D01*
X173810Y332410D01*
X169110Y340110D02*
X168910Y340510D01*
X168510Y340810D01*
X168010Y340810D01*
X167710Y340710D01*
X167410Y340410D01*
X167310Y339910D01*
X167410Y339510D01*
X167610Y339310D01*
X168110Y339110D01*
X168310Y339110D01*
X168710Y339110D01*
X168810Y339510D01*
X168210Y339910D01*
X168310Y339110D02*
X168310Y338510D01*
X168310Y339110D02*
X186710Y339210D01*
X186710Y338610D01*
X168310Y338510D01*
X183310Y339310D02*
X183310Y342410D01*
X183310Y339310D02*
X182510Y339310D01*
X182510Y342510D01*
X183310Y342510D01*
D14*
X176910Y299510D03*
M02*
