G04 EAGLE Gerber RS-274X export*
G75*
%MOMM*%
%FSLAX34Y34*%
%LPD*%
%INSilkscreen Top*%
%IPPOS*%
%AMOC8*
5,1,8,0,0,1.08239X$1,22.5*%
G01*
%ADD10C,0.254000*%
%ADD11C,0.101600*%
%ADD12C,0.000000*%
%ADD13C,0.152400*%
%ADD14C,0.127000*%
%ADD15C,0.203200*%
%ADD16R,0.762000X0.457200*%
%ADD17C,0.381000*%
%ADD18C,0.200000*%
%ADD19R,0.457200X0.762000*%


D10*
X472440Y50800D02*
X472442Y50900D01*
X472448Y51001D01*
X472458Y51100D01*
X472472Y51200D01*
X472489Y51299D01*
X472511Y51397D01*
X472537Y51494D01*
X472566Y51590D01*
X472599Y51684D01*
X472636Y51778D01*
X472676Y51870D01*
X472720Y51960D01*
X472768Y52048D01*
X472819Y52135D01*
X472873Y52219D01*
X472931Y52301D01*
X472992Y52381D01*
X473056Y52458D01*
X473123Y52533D01*
X473193Y52605D01*
X473266Y52674D01*
X473341Y52740D01*
X473419Y52804D01*
X473499Y52864D01*
X473582Y52921D01*
X473667Y52974D01*
X473754Y53024D01*
X473843Y53071D01*
X473933Y53114D01*
X474025Y53154D01*
X474119Y53190D01*
X474214Y53222D01*
X474310Y53250D01*
X474408Y53275D01*
X474506Y53295D01*
X474605Y53312D01*
X474705Y53325D01*
X474804Y53334D01*
X474905Y53339D01*
X475005Y53340D01*
X475105Y53337D01*
X475206Y53330D01*
X475305Y53319D01*
X475405Y53304D01*
X475503Y53286D01*
X475601Y53263D01*
X475698Y53236D01*
X475793Y53206D01*
X475888Y53172D01*
X475981Y53134D01*
X476072Y53093D01*
X476162Y53048D01*
X476250Y53000D01*
X476336Y52948D01*
X476420Y52893D01*
X476501Y52834D01*
X476580Y52772D01*
X476657Y52708D01*
X476731Y52640D01*
X476802Y52569D01*
X476871Y52496D01*
X476936Y52420D01*
X476999Y52341D01*
X477058Y52260D01*
X477114Y52177D01*
X477167Y52092D01*
X477216Y52004D01*
X477262Y51915D01*
X477304Y51824D01*
X477343Y51731D01*
X477378Y51637D01*
X477409Y51542D01*
X477437Y51445D01*
X477460Y51348D01*
X477480Y51249D01*
X477496Y51150D01*
X477508Y51051D01*
X477516Y50950D01*
X477520Y50850D01*
X477520Y50750D01*
X477516Y50650D01*
X477508Y50549D01*
X477496Y50450D01*
X477480Y50351D01*
X477460Y50252D01*
X477437Y50155D01*
X477409Y50058D01*
X477378Y49963D01*
X477343Y49869D01*
X477304Y49776D01*
X477262Y49685D01*
X477216Y49596D01*
X477167Y49508D01*
X477114Y49423D01*
X477058Y49340D01*
X476999Y49259D01*
X476936Y49180D01*
X476871Y49104D01*
X476802Y49031D01*
X476731Y48960D01*
X476657Y48892D01*
X476580Y48828D01*
X476501Y48766D01*
X476420Y48707D01*
X476336Y48652D01*
X476250Y48600D01*
X476162Y48552D01*
X476072Y48507D01*
X475981Y48466D01*
X475888Y48428D01*
X475793Y48394D01*
X475698Y48364D01*
X475601Y48337D01*
X475503Y48314D01*
X475405Y48296D01*
X475305Y48281D01*
X475206Y48270D01*
X475105Y48263D01*
X475005Y48260D01*
X474905Y48261D01*
X474804Y48266D01*
X474705Y48275D01*
X474605Y48288D01*
X474506Y48305D01*
X474408Y48325D01*
X474310Y48350D01*
X474214Y48378D01*
X474119Y48410D01*
X474025Y48446D01*
X473933Y48486D01*
X473843Y48529D01*
X473754Y48576D01*
X473667Y48626D01*
X473582Y48679D01*
X473499Y48736D01*
X473419Y48796D01*
X473341Y48860D01*
X473266Y48926D01*
X473193Y48995D01*
X473123Y49067D01*
X473056Y49142D01*
X472992Y49219D01*
X472931Y49299D01*
X472873Y49381D01*
X472819Y49465D01*
X472768Y49552D01*
X472720Y49640D01*
X472676Y49730D01*
X472636Y49822D01*
X472599Y49916D01*
X472566Y50010D01*
X472537Y50106D01*
X472511Y50203D01*
X472489Y50301D01*
X472472Y50400D01*
X472458Y50500D01*
X472448Y50599D01*
X472442Y50700D01*
X472440Y50800D01*
D11*
X162483Y554747D02*
X153670Y554747D01*
X153670Y541528D01*
X162483Y541528D01*
X158076Y548138D02*
X153670Y548138D01*
X166767Y550341D02*
X171174Y554747D01*
X175580Y550341D01*
X179865Y552544D02*
X182068Y554747D01*
X186474Y554747D01*
X188677Y552544D01*
X188677Y550341D01*
X186474Y548138D01*
X184271Y548138D01*
X186474Y548138D02*
X188677Y545934D01*
X188677Y543731D01*
X186474Y541528D01*
X182068Y541528D01*
X179865Y543731D01*
X206059Y541528D02*
X206059Y554747D01*
X212669Y554747D01*
X214872Y552544D01*
X214872Y548138D01*
X212669Y545934D01*
X206059Y545934D01*
X210465Y545934D02*
X214872Y541528D01*
X227969Y552544D02*
X225766Y554747D01*
X221359Y554747D01*
X219156Y552544D01*
X219156Y543731D01*
X221359Y541528D01*
X225766Y541528D01*
X227969Y543731D01*
X232254Y541528D02*
X232254Y554747D01*
X236660Y550341D01*
X241066Y554747D01*
X241066Y541528D01*
X245351Y548138D02*
X254164Y548138D01*
X265058Y554747D02*
X267261Y552544D01*
X265058Y554747D02*
X260651Y554747D01*
X258448Y552544D01*
X258448Y543731D01*
X260651Y541528D01*
X265058Y541528D01*
X267261Y543731D01*
X273748Y541528D02*
X278155Y541528D01*
X280358Y543731D01*
X280358Y548138D01*
X278155Y550341D01*
X273748Y550341D01*
X271545Y548138D01*
X271545Y543731D01*
X273748Y541528D01*
X284643Y541528D02*
X284643Y550341D01*
X286846Y550341D01*
X289049Y548138D01*
X289049Y541528D01*
X289049Y548138D02*
X291252Y550341D01*
X293455Y548138D01*
X293455Y541528D01*
X297740Y541528D02*
X297740Y550341D01*
X299943Y550341D01*
X302146Y548138D01*
X302146Y541528D01*
X302146Y548138D02*
X304349Y550341D01*
X306553Y548138D01*
X306553Y541528D01*
X323934Y550341D02*
X328341Y541528D01*
X332747Y550341D01*
X343641Y554747D02*
X343641Y541528D01*
X337032Y548138D02*
X343641Y554747D01*
X345844Y548138D02*
X337032Y548138D01*
X363226Y545934D02*
X367632Y541528D01*
X363226Y545934D02*
X363226Y550341D01*
X367632Y554747D01*
X374161Y550341D02*
X380770Y550341D01*
X374161Y550341D02*
X371958Y548138D01*
X371958Y543731D01*
X374161Y541528D01*
X380770Y541528D01*
X385055Y541528D02*
X389461Y545934D01*
X389461Y550341D01*
X385055Y554747D01*
X406884Y541528D02*
X415696Y541528D01*
X406884Y541528D02*
X415696Y550341D01*
X415696Y552544D01*
X413493Y554747D01*
X409087Y554747D01*
X406884Y552544D01*
X419981Y552544D02*
X419981Y543731D01*
X419981Y552544D02*
X422184Y554747D01*
X426590Y554747D01*
X428794Y552544D01*
X428794Y543731D01*
X426590Y541528D01*
X422184Y541528D01*
X419981Y543731D01*
X428794Y552544D01*
X433078Y550341D02*
X437484Y554747D01*
X437484Y541528D01*
X433078Y541528D02*
X441891Y541528D01*
X446175Y552544D02*
X448378Y554747D01*
X452785Y554747D01*
X454988Y552544D01*
X454988Y550341D01*
X452785Y548138D01*
X454988Y545934D01*
X454988Y543731D01*
X452785Y541528D01*
X448378Y541528D01*
X446175Y543731D01*
X446175Y545934D01*
X448378Y548138D01*
X446175Y550341D01*
X446175Y552544D01*
X448378Y548138D02*
X452785Y548138D01*
X338070Y644390D02*
X336545Y645916D01*
X338070Y644390D02*
X341121Y644390D01*
X342646Y645916D01*
X342646Y647441D01*
X341121Y648966D01*
X338070Y648966D01*
X336545Y650491D01*
X336545Y652017D01*
X338070Y653542D01*
X341121Y653542D01*
X342646Y652017D01*
X333291Y645916D02*
X333291Y644390D01*
X333291Y645916D02*
X330240Y648966D01*
X327190Y645916D01*
X327190Y644390D01*
X330240Y648966D02*
X330240Y653542D01*
X319360Y644390D02*
X317834Y645916D01*
X319360Y644390D02*
X322410Y644390D01*
X323936Y645916D01*
X323936Y647441D01*
X322410Y648966D01*
X319360Y648966D01*
X317834Y650491D01*
X317834Y652017D01*
X319360Y653542D01*
X322410Y653542D01*
X323936Y652017D01*
X242824Y646170D02*
X241299Y644644D01*
X238248Y644644D01*
X236723Y646170D01*
X236723Y647695D01*
X238248Y649220D01*
X239773Y649220D01*
X238248Y649220D02*
X236723Y650745D01*
X236723Y652271D01*
X238248Y653796D01*
X241299Y653796D01*
X242824Y652271D01*
X233469Y652271D02*
X233469Y653796D01*
X233469Y652271D02*
X231944Y652271D01*
X231944Y653796D01*
X233469Y653796D01*
X228791Y646170D02*
X227266Y644644D01*
X224215Y644644D01*
X222690Y646170D01*
X222690Y647695D01*
X224215Y649220D01*
X225741Y649220D01*
X224215Y649220D02*
X222690Y650745D01*
X222690Y652271D01*
X224215Y653796D01*
X227266Y653796D01*
X228791Y652271D01*
X219436Y650745D02*
X219436Y644644D01*
X219436Y650745D02*
X216385Y653796D01*
X213335Y650745D01*
X213335Y644644D01*
X33528Y408186D02*
X33528Y399034D01*
X36579Y402085D01*
X39629Y399034D01*
X39629Y408186D01*
X42883Y405135D02*
X42883Y399034D01*
X42883Y405135D02*
X45934Y408186D01*
X48984Y405135D01*
X48984Y399034D01*
X48984Y403610D02*
X42883Y403610D01*
X52238Y408186D02*
X52238Y399034D01*
X52238Y402085D02*
X58340Y408186D01*
X53764Y403610D02*
X58340Y399034D01*
X61594Y408186D02*
X67695Y408186D01*
X61594Y408186D02*
X61594Y399034D01*
X67695Y399034D01*
X64644Y403610D02*
X61594Y403610D01*
X33528Y331986D02*
X33528Y322834D01*
X38104Y322834D01*
X39629Y324359D01*
X39629Y330461D01*
X38104Y331986D01*
X33528Y331986D01*
X42883Y331986D02*
X48984Y331986D01*
X42883Y331986D02*
X42883Y322834D01*
X48984Y322834D01*
X45934Y327410D02*
X42883Y327410D01*
X52238Y328935D02*
X52238Y322834D01*
X52238Y328935D02*
X55289Y331986D01*
X58340Y328935D01*
X58340Y322834D01*
X58340Y327410D02*
X52238Y327410D01*
X61594Y322834D02*
X61594Y331986D01*
X67695Y331986D01*
X64644Y327410D02*
X61594Y327410D01*
X70949Y328935D02*
X70949Y322834D01*
X70949Y328935D02*
X73999Y331986D01*
X77050Y328935D01*
X77050Y322834D01*
X77050Y327410D02*
X70949Y327410D01*
X80304Y324359D02*
X80304Y331986D01*
X80304Y324359D02*
X81829Y322834D01*
X84880Y322834D01*
X86405Y324359D01*
X86405Y331986D01*
X89659Y331986D02*
X89659Y322834D01*
X95760Y322834D01*
X102065Y322834D02*
X102065Y331986D01*
X99014Y331986D02*
X105116Y331986D01*
X33528Y255786D02*
X33528Y246634D01*
X33528Y255786D02*
X38104Y255786D01*
X39629Y254261D01*
X39629Y251210D01*
X38104Y249685D01*
X33528Y249685D01*
X36579Y249685D02*
X39629Y246634D01*
X42883Y255786D02*
X48984Y255786D01*
X42883Y255786D02*
X42883Y246634D01*
X48984Y246634D01*
X45934Y251210D02*
X42883Y251210D01*
X56814Y255786D02*
X58340Y254261D01*
X56814Y255786D02*
X53764Y255786D01*
X52238Y254261D01*
X52238Y252735D01*
X53764Y251210D01*
X56814Y251210D01*
X58340Y249685D01*
X58340Y248159D01*
X56814Y246634D01*
X53764Y246634D01*
X52238Y248159D01*
X61594Y255786D02*
X67695Y255786D01*
X61594Y255786D02*
X61594Y246634D01*
X67695Y246634D01*
X64644Y251210D02*
X61594Y251210D01*
X73999Y246634D02*
X73999Y255786D01*
X70949Y255786D02*
X77050Y255786D01*
D12*
X90170Y368300D02*
X39370Y368300D01*
D13*
X465582Y515112D02*
X465582Y203708D01*
X245364Y203708D02*
X245364Y515112D01*
X465582Y515112D01*
D11*
X320979Y451866D02*
X312166Y460679D01*
X312166Y451866D02*
X320979Y460679D01*
X325263Y465085D02*
X325263Y451866D01*
X325263Y465085D02*
X331873Y465085D01*
X334076Y462882D01*
X334076Y458476D01*
X331873Y456272D01*
X325263Y456272D01*
X338361Y460679D02*
X340564Y460679D01*
X340564Y451866D01*
X338361Y451866D02*
X342767Y451866D01*
X340564Y465085D02*
X340564Y467289D01*
X349295Y460679D02*
X355905Y460679D01*
X349295Y460679D02*
X347092Y458476D01*
X347092Y454069D01*
X349295Y451866D01*
X355905Y451866D01*
X362392Y451866D02*
X366799Y451866D01*
X369002Y454069D01*
X369002Y458476D01*
X366799Y460679D01*
X362392Y460679D01*
X360189Y458476D01*
X360189Y454069D01*
X362392Y451866D01*
X386384Y451866D02*
X395197Y451866D01*
X386384Y451866D02*
X395197Y460679D01*
X395197Y462882D01*
X392993Y465085D01*
X388587Y465085D01*
X386384Y462882D01*
X406091Y465085D02*
X406091Y451866D01*
X399481Y458476D02*
X406091Y465085D01*
X408294Y458476D02*
X399481Y458476D01*
X412578Y454069D02*
X412578Y462882D01*
X414781Y465085D01*
X419188Y465085D01*
X421391Y462882D01*
X421391Y454069D01*
X419188Y451866D01*
X414781Y451866D01*
X412578Y454069D01*
X421391Y462882D01*
D13*
X63500Y62230D02*
X63500Y13970D01*
X63500Y62230D02*
X63502Y62388D01*
X63508Y62547D01*
X63518Y62705D01*
X63532Y62862D01*
X63549Y63020D01*
X63571Y63176D01*
X63596Y63333D01*
X63626Y63488D01*
X63659Y63643D01*
X63696Y63797D01*
X63737Y63950D01*
X63782Y64102D01*
X63831Y64252D01*
X63883Y64402D01*
X63939Y64550D01*
X63999Y64697D01*
X64062Y64842D01*
X64129Y64985D01*
X64199Y65127D01*
X64273Y65267D01*
X64351Y65405D01*
X64432Y65541D01*
X64516Y65675D01*
X64603Y65807D01*
X64694Y65937D01*
X64788Y66064D01*
X64885Y66189D01*
X64986Y66312D01*
X65089Y66432D01*
X65195Y66549D01*
X65304Y66664D01*
X65416Y66776D01*
X65531Y66885D01*
X65648Y66991D01*
X65768Y67094D01*
X65891Y67195D01*
X66016Y67292D01*
X66143Y67386D01*
X66273Y67477D01*
X66405Y67564D01*
X66539Y67648D01*
X66675Y67729D01*
X66813Y67807D01*
X66953Y67881D01*
X67095Y67951D01*
X67238Y68018D01*
X67383Y68081D01*
X67530Y68141D01*
X67678Y68197D01*
X67828Y68249D01*
X67978Y68298D01*
X68130Y68343D01*
X68283Y68384D01*
X68437Y68421D01*
X68592Y68454D01*
X68747Y68484D01*
X68904Y68509D01*
X69060Y68531D01*
X69218Y68548D01*
X69375Y68562D01*
X69533Y68572D01*
X69692Y68578D01*
X69850Y68580D01*
X63500Y13970D02*
X63502Y13812D01*
X63508Y13653D01*
X63518Y13495D01*
X63532Y13338D01*
X63549Y13180D01*
X63571Y13024D01*
X63596Y12867D01*
X63626Y12712D01*
X63659Y12557D01*
X63696Y12403D01*
X63737Y12250D01*
X63782Y12098D01*
X63831Y11948D01*
X63883Y11798D01*
X63939Y11650D01*
X63999Y11503D01*
X64062Y11358D01*
X64129Y11215D01*
X64199Y11073D01*
X64273Y10933D01*
X64351Y10795D01*
X64432Y10659D01*
X64516Y10525D01*
X64603Y10393D01*
X64694Y10263D01*
X64788Y10136D01*
X64885Y10011D01*
X64986Y9888D01*
X65089Y9768D01*
X65195Y9651D01*
X65304Y9536D01*
X65416Y9424D01*
X65531Y9315D01*
X65648Y9209D01*
X65768Y9106D01*
X65891Y9005D01*
X66016Y8908D01*
X66143Y8814D01*
X66273Y8723D01*
X66405Y8636D01*
X66539Y8552D01*
X66675Y8471D01*
X66813Y8393D01*
X66953Y8319D01*
X67095Y8249D01*
X67238Y8182D01*
X67383Y8119D01*
X67530Y8059D01*
X67678Y8003D01*
X67828Y7951D01*
X67978Y7902D01*
X68130Y7857D01*
X68283Y7816D01*
X68437Y7779D01*
X68592Y7746D01*
X68747Y7716D01*
X68904Y7691D01*
X69060Y7669D01*
X69218Y7652D01*
X69375Y7638D01*
X69533Y7628D01*
X69692Y7622D01*
X69850Y7620D01*
X69850Y68580D02*
X463550Y68580D01*
X469900Y62230D02*
X469900Y13970D01*
X463550Y7620D02*
X69850Y7620D01*
X463550Y68580D02*
X463708Y68578D01*
X463867Y68572D01*
X464025Y68562D01*
X464182Y68548D01*
X464340Y68531D01*
X464496Y68509D01*
X464653Y68484D01*
X464808Y68454D01*
X464963Y68421D01*
X465117Y68384D01*
X465270Y68343D01*
X465422Y68298D01*
X465572Y68249D01*
X465722Y68197D01*
X465870Y68141D01*
X466017Y68081D01*
X466162Y68018D01*
X466305Y67951D01*
X466447Y67881D01*
X466587Y67807D01*
X466725Y67729D01*
X466861Y67648D01*
X466995Y67564D01*
X467127Y67477D01*
X467257Y67386D01*
X467384Y67292D01*
X467509Y67195D01*
X467632Y67094D01*
X467752Y66991D01*
X467869Y66885D01*
X467984Y66776D01*
X468096Y66664D01*
X468205Y66549D01*
X468311Y66432D01*
X468414Y66312D01*
X468515Y66189D01*
X468612Y66064D01*
X468706Y65937D01*
X468797Y65807D01*
X468884Y65675D01*
X468968Y65541D01*
X469049Y65405D01*
X469127Y65267D01*
X469201Y65127D01*
X469271Y64985D01*
X469338Y64842D01*
X469401Y64697D01*
X469461Y64550D01*
X469517Y64402D01*
X469569Y64252D01*
X469618Y64102D01*
X469663Y63950D01*
X469704Y63797D01*
X469741Y63643D01*
X469774Y63488D01*
X469804Y63333D01*
X469829Y63176D01*
X469851Y63020D01*
X469868Y62862D01*
X469882Y62705D01*
X469892Y62547D01*
X469898Y62388D01*
X469900Y62230D01*
X469900Y13970D02*
X469898Y13812D01*
X469892Y13653D01*
X469882Y13495D01*
X469868Y13338D01*
X469851Y13180D01*
X469829Y13024D01*
X469804Y12867D01*
X469774Y12712D01*
X469741Y12557D01*
X469704Y12403D01*
X469663Y12250D01*
X469618Y12098D01*
X469569Y11948D01*
X469517Y11798D01*
X469461Y11650D01*
X469401Y11503D01*
X469338Y11358D01*
X469271Y11215D01*
X469201Y11073D01*
X469127Y10933D01*
X469049Y10795D01*
X468968Y10659D01*
X468884Y10525D01*
X468797Y10393D01*
X468706Y10263D01*
X468612Y10136D01*
X468515Y10011D01*
X468414Y9888D01*
X468311Y9768D01*
X468205Y9651D01*
X468096Y9536D01*
X467984Y9424D01*
X467869Y9315D01*
X467752Y9209D01*
X467632Y9106D01*
X467509Y9005D01*
X467384Y8908D01*
X467257Y8814D01*
X467127Y8723D01*
X466995Y8636D01*
X466861Y8552D01*
X466725Y8471D01*
X466587Y8393D01*
X466447Y8319D01*
X466305Y8249D01*
X466162Y8182D01*
X466017Y8119D01*
X465870Y8059D01*
X465722Y8003D01*
X465572Y7951D01*
X465422Y7902D01*
X465270Y7857D01*
X465117Y7816D01*
X464963Y7779D01*
X464808Y7746D01*
X464653Y7716D01*
X464496Y7691D01*
X464340Y7669D01*
X464182Y7652D01*
X464025Y7638D01*
X463867Y7628D01*
X463708Y7622D01*
X463550Y7620D01*
D14*
X479425Y55252D02*
X483238Y59065D01*
X483238Y47625D01*
X479425Y47625D02*
X487052Y47625D01*
D11*
X40557Y24902D02*
X38608Y22953D01*
X40557Y24902D02*
X44455Y24902D01*
X46404Y22953D01*
X46404Y21004D01*
X44455Y19055D01*
X42506Y19055D01*
X44455Y19055D02*
X46404Y17106D01*
X46404Y15157D01*
X44455Y13208D01*
X40557Y13208D01*
X38608Y15157D01*
X50302Y13208D02*
X58098Y13208D01*
X50302Y13208D02*
X58098Y21004D01*
X58098Y22953D01*
X56149Y24902D01*
X52251Y24902D01*
X50302Y22953D01*
D14*
X475869Y15580D02*
X477352Y14097D01*
X478835Y14097D01*
X480318Y15580D01*
X480318Y22995D01*
X478835Y22995D02*
X481801Y22995D01*
X485224Y20029D02*
X488190Y22995D01*
X488190Y14097D01*
X485224Y14097D02*
X491156Y14097D01*
D15*
X230300Y630400D02*
X230300Y635000D01*
X230300Y639600D01*
X230300Y635000D02*
X227200Y632662D01*
X230146Y635254D02*
X227200Y637184D01*
D14*
X212979Y625610D02*
X212979Y616712D01*
X218911Y616712D01*
X222334Y625610D02*
X228266Y625610D01*
X222334Y625610D02*
X222334Y616712D01*
X228266Y616712D01*
X225300Y621161D02*
X222334Y621161D01*
X231689Y625610D02*
X231689Y616712D01*
X236138Y616712D01*
X237621Y618195D01*
X237621Y624127D01*
X236138Y625610D01*
X231689Y625610D01*
X241045Y622644D02*
X244010Y625610D01*
X244010Y616712D01*
X241045Y616712D02*
X246976Y616712D01*
X201893Y610919D02*
X200410Y612402D01*
X197444Y612402D01*
X195961Y610919D01*
X195961Y604987D01*
X197444Y603504D01*
X200410Y603504D01*
X201893Y604987D01*
X201893Y607953D01*
X198927Y607953D01*
X205316Y603504D02*
X205316Y612402D01*
X209765Y612402D01*
X211248Y610919D01*
X211248Y607953D01*
X209765Y606470D01*
X205316Y606470D01*
X208282Y606470D02*
X211248Y603504D01*
X214671Y612402D02*
X220603Y612402D01*
X214671Y612402D02*
X214671Y603504D01*
X220603Y603504D01*
X217637Y607953D02*
X214671Y607953D01*
X224027Y612402D02*
X229958Y612402D01*
X224027Y612402D02*
X224027Y603504D01*
X229958Y603504D01*
X226992Y607953D02*
X224027Y607953D01*
X233382Y603504D02*
X233382Y612402D01*
X239313Y603504D01*
X239313Y612402D01*
D15*
X331900Y630400D02*
X331900Y635000D01*
X331900Y639600D01*
X331900Y635000D02*
X328800Y632662D01*
X331746Y635254D02*
X328800Y637184D01*
D14*
X315849Y624340D02*
X315849Y615442D01*
X321781Y615442D01*
X325204Y624340D02*
X331136Y624340D01*
X325204Y624340D02*
X325204Y615442D01*
X331136Y615442D01*
X328170Y619891D02*
X325204Y619891D01*
X334559Y624340D02*
X334559Y615442D01*
X339008Y615442D01*
X340491Y616925D01*
X340491Y622857D01*
X339008Y624340D01*
X334559Y624340D01*
X343915Y615442D02*
X349846Y615442D01*
X343915Y615442D02*
X349846Y621374D01*
X349846Y622857D01*
X348363Y624340D01*
X345397Y624340D01*
X343915Y622857D01*
X322289Y610157D02*
X320806Y611640D01*
X317840Y611640D01*
X316357Y610157D01*
X316357Y604225D01*
X317840Y602742D01*
X320806Y602742D01*
X322289Y604225D01*
X322289Y607191D01*
X319323Y607191D01*
X325712Y602742D02*
X325712Y611640D01*
X330161Y611640D01*
X331644Y610157D01*
X331644Y607191D01*
X330161Y605708D01*
X325712Y605708D01*
X328678Y605708D02*
X331644Y602742D01*
X335067Y611640D02*
X340999Y611640D01*
X335067Y611640D02*
X335067Y602742D01*
X340999Y602742D01*
X338033Y607191D02*
X335067Y607191D01*
X344423Y611640D02*
X350354Y611640D01*
X344423Y611640D02*
X344423Y602742D01*
X350354Y602742D01*
X347388Y607191D02*
X344423Y607191D01*
X353778Y602742D02*
X353778Y611640D01*
X359709Y602742D01*
X359709Y611640D01*
D16*
X228600Y584200D03*
D14*
X239649Y588137D02*
X239649Y597035D01*
X244098Y597035D01*
X245581Y595552D01*
X245581Y592586D01*
X244098Y591103D01*
X239649Y591103D01*
X242615Y591103D02*
X245581Y588137D01*
X249004Y595552D02*
X250487Y597035D01*
X253453Y597035D01*
X254936Y595552D01*
X254936Y594069D01*
X253453Y592586D01*
X251970Y592586D01*
X253453Y592586D02*
X254936Y591103D01*
X254936Y589620D01*
X253453Y588137D01*
X250487Y588137D01*
X249004Y589620D01*
X241640Y583065D02*
X240157Y581582D01*
X241640Y583065D02*
X244606Y583065D01*
X246089Y581582D01*
X246089Y580099D01*
X244606Y578616D01*
X243123Y578616D01*
X244606Y578616D02*
X246089Y577133D01*
X246089Y575650D01*
X244606Y574167D01*
X241640Y574167D01*
X240157Y575650D01*
X249512Y581582D02*
X250995Y583065D01*
X253961Y583065D01*
X255444Y581582D01*
X255444Y580099D01*
X253961Y578616D01*
X252478Y578616D01*
X253961Y578616D02*
X255444Y577133D01*
X255444Y575650D01*
X253961Y574167D01*
X250995Y574167D01*
X249512Y575650D01*
X258867Y575650D02*
X258867Y581582D01*
X260350Y583065D01*
X263316Y583065D01*
X264799Y581582D01*
X264799Y575650D01*
X263316Y574167D01*
X260350Y574167D01*
X258867Y575650D01*
X264799Y581582D01*
D16*
X330200Y584200D03*
D14*
X341757Y589153D02*
X341757Y598051D01*
X346206Y598051D01*
X347689Y596568D01*
X347689Y593602D01*
X346206Y592119D01*
X341757Y592119D01*
X344723Y592119D02*
X347689Y589153D01*
X351112Y598051D02*
X357044Y598051D01*
X351112Y598051D02*
X351112Y593602D01*
X354078Y595085D01*
X355561Y595085D01*
X357044Y593602D01*
X357044Y590636D01*
X355561Y589153D01*
X352595Y589153D01*
X351112Y590636D01*
X343240Y585097D02*
X341757Y583614D01*
X343240Y585097D02*
X346206Y585097D01*
X347689Y583614D01*
X347689Y582131D01*
X346206Y580648D01*
X344723Y580648D01*
X346206Y580648D02*
X347689Y579165D01*
X347689Y577682D01*
X346206Y576199D01*
X343240Y576199D01*
X341757Y577682D01*
X351112Y583614D02*
X352595Y585097D01*
X355561Y585097D01*
X357044Y583614D01*
X357044Y582131D01*
X355561Y580648D01*
X354078Y580648D01*
X355561Y580648D02*
X357044Y579165D01*
X357044Y577682D01*
X355561Y576199D01*
X352595Y576199D01*
X351112Y577682D01*
X360467Y577682D02*
X360467Y583614D01*
X361950Y585097D01*
X364916Y585097D01*
X366399Y583614D01*
X366399Y577682D01*
X364916Y576199D01*
X361950Y576199D01*
X360467Y577682D01*
X366399Y583614D01*
D17*
X203200Y216179D02*
X203200Y215621D01*
D14*
X176747Y227252D02*
X175264Y228735D01*
X172298Y228735D01*
X170815Y227252D01*
X170815Y221320D01*
X172298Y219837D01*
X175264Y219837D01*
X176747Y221320D01*
X180170Y225769D02*
X183136Y228735D01*
X183136Y219837D01*
X180170Y219837D02*
X186102Y219837D01*
X147955Y213282D02*
X147955Y207350D01*
X147955Y213282D02*
X149438Y214765D01*
X152404Y214765D01*
X153887Y213282D01*
X153887Y207350D01*
X152404Y205867D01*
X149438Y205867D01*
X147955Y207350D01*
X153887Y213282D01*
X157310Y207350D02*
X157310Y205867D01*
X157310Y207350D02*
X158793Y207350D01*
X158793Y205867D01*
X157310Y205867D01*
X161988Y211799D02*
X164954Y214765D01*
X164954Y205867D01*
X161988Y205867D02*
X167920Y205867D01*
X171343Y207350D02*
X171343Y211799D01*
X171343Y207350D02*
X172826Y205867D01*
X177275Y205867D01*
X177275Y211799D01*
X180698Y214765D02*
X180698Y205867D01*
X180698Y214765D02*
X186630Y214765D01*
X183664Y210316D02*
X180698Y210316D01*
D17*
X482321Y228600D02*
X482879Y228600D01*
D14*
X480646Y200962D02*
X479163Y199479D01*
X479163Y196514D01*
X480646Y195031D01*
X486578Y195031D01*
X488061Y196514D01*
X488061Y199479D01*
X486578Y200962D01*
X488061Y208835D02*
X479163Y208835D01*
X483612Y204386D01*
X483612Y210318D01*
X485308Y249047D02*
X479376Y249047D01*
X477893Y250530D01*
X477893Y253496D01*
X479376Y254979D01*
X485308Y254979D01*
X486791Y253496D01*
X486791Y250530D01*
X485308Y249047D01*
X479376Y254979D01*
X485308Y258402D02*
X486791Y258402D01*
X485308Y258402D02*
X485308Y259885D01*
X486791Y259885D01*
X486791Y258402D01*
X480859Y263080D02*
X477893Y266046D01*
X486791Y266046D01*
X486791Y263080D02*
X486791Y269012D01*
X485308Y272435D02*
X480859Y272435D01*
X485308Y272435D02*
X486791Y273918D01*
X486791Y278367D01*
X480859Y278367D01*
X477893Y281790D02*
X486791Y281790D01*
X477893Y281790D02*
X477893Y287722D01*
X482342Y284756D02*
X482342Y281790D01*
D17*
X482321Y118618D02*
X482879Y118618D01*
D14*
X479630Y90387D02*
X478147Y88904D01*
X478147Y85938D01*
X479630Y84455D01*
X485562Y84455D01*
X487045Y85938D01*
X487045Y88904D01*
X485562Y90387D01*
X478147Y93810D02*
X478147Y99742D01*
X478147Y93810D02*
X482596Y93810D01*
X481113Y96776D01*
X481113Y98259D01*
X482596Y99742D01*
X485562Y99742D01*
X487045Y98259D01*
X487045Y95293D01*
X485562Y93810D01*
X483022Y140843D02*
X477090Y140843D01*
X475607Y142326D01*
X475607Y145292D01*
X477090Y146775D01*
X483022Y146775D01*
X484505Y145292D01*
X484505Y142326D01*
X483022Y140843D01*
X477090Y146775D01*
X483022Y150198D02*
X484505Y150198D01*
X483022Y150198D02*
X483022Y151681D01*
X484505Y151681D01*
X484505Y150198D01*
X478573Y154876D02*
X475607Y157842D01*
X484505Y157842D01*
X484505Y154876D02*
X484505Y160808D01*
X483022Y164231D02*
X478573Y164231D01*
X483022Y164231D02*
X484505Y165714D01*
X484505Y170163D01*
X478573Y170163D01*
X475607Y173586D02*
X484505Y173586D01*
X475607Y173586D02*
X475607Y179518D01*
X480056Y176552D02*
X480056Y173586D01*
D17*
X507721Y118618D02*
X508279Y118618D01*
D14*
X505030Y90387D02*
X503547Y88904D01*
X503547Y85938D01*
X505030Y84455D01*
X510962Y84455D01*
X512445Y85938D01*
X512445Y88904D01*
X510962Y90387D01*
X505030Y96776D02*
X503547Y99742D01*
X505030Y96776D02*
X507996Y93810D01*
X510962Y93810D01*
X512445Y95293D01*
X512445Y98259D01*
X510962Y99742D01*
X509479Y99742D01*
X507996Y98259D01*
X507996Y93810D01*
X504735Y140843D02*
X501769Y143809D01*
X510667Y143809D01*
X510667Y140843D02*
X510667Y146775D01*
X509184Y150198D02*
X503252Y150198D01*
X501769Y151681D01*
X501769Y154647D01*
X503252Y156130D01*
X509184Y156130D01*
X510667Y154647D01*
X510667Y151681D01*
X509184Y150198D01*
X503252Y156130D01*
X504735Y159553D02*
X509184Y159553D01*
X510667Y161036D01*
X510667Y165485D01*
X504735Y165485D01*
X501769Y168909D02*
X510667Y168909D01*
X501769Y168909D02*
X501769Y174840D01*
X506218Y171874D02*
X506218Y168909D01*
D17*
X507721Y228600D02*
X508279Y228600D01*
D14*
X506046Y200454D02*
X504563Y198971D01*
X504563Y196006D01*
X506046Y194523D01*
X511978Y194523D01*
X513461Y196006D01*
X513461Y198971D01*
X511978Y200454D01*
X504563Y203878D02*
X504563Y209810D01*
X506046Y209810D01*
X511978Y203878D01*
X513461Y203878D01*
X504735Y249809D02*
X501769Y252775D01*
X510667Y252775D01*
X510667Y249809D02*
X510667Y255741D01*
X509184Y259164D02*
X503252Y259164D01*
X501769Y260647D01*
X501769Y263613D01*
X503252Y265096D01*
X509184Y265096D01*
X510667Y263613D01*
X510667Y260647D01*
X509184Y259164D01*
X503252Y265096D01*
X504735Y268519D02*
X509184Y268519D01*
X510667Y270002D01*
X510667Y274451D01*
X504735Y274451D01*
X501769Y277875D02*
X510667Y277875D01*
X501769Y277875D02*
X501769Y283806D01*
X506218Y280840D02*
X506218Y277875D01*
D15*
X90170Y355600D02*
X90170Y380700D01*
X80170Y342900D02*
X49370Y342900D01*
X39370Y355900D02*
X39370Y380700D01*
X49370Y393700D02*
X80170Y393700D01*
X52070Y368300D02*
X52074Y368612D01*
X52085Y368923D01*
X52104Y369234D01*
X52131Y369545D01*
X52166Y369855D01*
X52207Y370163D01*
X52257Y370471D01*
X52314Y370778D01*
X52379Y371083D01*
X52451Y371386D01*
X52530Y371687D01*
X52617Y371987D01*
X52711Y372284D01*
X52812Y372579D01*
X52921Y372871D01*
X53037Y373160D01*
X53160Y373447D01*
X53289Y373730D01*
X53426Y374010D01*
X53570Y374287D01*
X53720Y374560D01*
X53877Y374829D01*
X54040Y375094D01*
X54210Y375356D01*
X54387Y375613D01*
X54569Y375865D01*
X54758Y376113D01*
X54953Y376357D01*
X55153Y376595D01*
X55360Y376829D01*
X55572Y377057D01*
X55790Y377280D01*
X56013Y377498D01*
X56241Y377710D01*
X56475Y377917D01*
X56713Y378117D01*
X56957Y378312D01*
X57205Y378501D01*
X57457Y378683D01*
X57714Y378860D01*
X57976Y379030D01*
X58241Y379193D01*
X58510Y379350D01*
X58783Y379500D01*
X59060Y379644D01*
X59340Y379781D01*
X59623Y379910D01*
X59910Y380033D01*
X60199Y380149D01*
X60491Y380258D01*
X60786Y380359D01*
X61083Y380453D01*
X61383Y380540D01*
X61684Y380619D01*
X61987Y380691D01*
X62292Y380756D01*
X62599Y380813D01*
X62907Y380863D01*
X63215Y380904D01*
X63525Y380939D01*
X63836Y380966D01*
X64147Y380985D01*
X64458Y380996D01*
X64770Y381000D01*
X65082Y380996D01*
X65393Y380985D01*
X65704Y380966D01*
X66015Y380939D01*
X66325Y380904D01*
X66633Y380863D01*
X66941Y380813D01*
X67248Y380756D01*
X67553Y380691D01*
X67856Y380619D01*
X68157Y380540D01*
X68457Y380453D01*
X68754Y380359D01*
X69049Y380258D01*
X69341Y380149D01*
X69630Y380033D01*
X69917Y379910D01*
X70200Y379781D01*
X70480Y379644D01*
X70757Y379500D01*
X71030Y379350D01*
X71299Y379193D01*
X71564Y379030D01*
X71826Y378860D01*
X72083Y378683D01*
X72335Y378501D01*
X72583Y378312D01*
X72827Y378117D01*
X73065Y377917D01*
X73299Y377710D01*
X73527Y377498D01*
X73750Y377280D01*
X73968Y377057D01*
X74180Y376829D01*
X74387Y376595D01*
X74587Y376357D01*
X74782Y376113D01*
X74971Y375865D01*
X75153Y375613D01*
X75330Y375356D01*
X75500Y375094D01*
X75663Y374829D01*
X75820Y374560D01*
X75970Y374287D01*
X76114Y374010D01*
X76251Y373730D01*
X76380Y373447D01*
X76503Y373160D01*
X76619Y372871D01*
X76728Y372579D01*
X76829Y372284D01*
X76923Y371987D01*
X77010Y371687D01*
X77089Y371386D01*
X77161Y371083D01*
X77226Y370778D01*
X77283Y370471D01*
X77333Y370163D01*
X77374Y369855D01*
X77409Y369545D01*
X77436Y369234D01*
X77455Y368923D01*
X77466Y368612D01*
X77470Y368300D01*
X77466Y367988D01*
X77455Y367677D01*
X77436Y367366D01*
X77409Y367055D01*
X77374Y366745D01*
X77333Y366437D01*
X77283Y366129D01*
X77226Y365822D01*
X77161Y365517D01*
X77089Y365214D01*
X77010Y364913D01*
X76923Y364613D01*
X76829Y364316D01*
X76728Y364021D01*
X76619Y363729D01*
X76503Y363440D01*
X76380Y363153D01*
X76251Y362870D01*
X76114Y362590D01*
X75970Y362313D01*
X75820Y362040D01*
X75663Y361771D01*
X75500Y361506D01*
X75330Y361244D01*
X75153Y360987D01*
X74971Y360735D01*
X74782Y360487D01*
X74587Y360243D01*
X74387Y360005D01*
X74180Y359771D01*
X73968Y359543D01*
X73750Y359320D01*
X73527Y359102D01*
X73299Y358890D01*
X73065Y358683D01*
X72827Y358483D01*
X72583Y358288D01*
X72335Y358099D01*
X72083Y357917D01*
X71826Y357740D01*
X71564Y357570D01*
X71299Y357407D01*
X71030Y357250D01*
X70757Y357100D01*
X70480Y356956D01*
X70200Y356819D01*
X69917Y356690D01*
X69630Y356567D01*
X69341Y356451D01*
X69049Y356342D01*
X68754Y356241D01*
X68457Y356147D01*
X68157Y356060D01*
X67856Y355981D01*
X67553Y355909D01*
X67248Y355844D01*
X66941Y355787D01*
X66633Y355737D01*
X66325Y355696D01*
X66015Y355661D01*
X65704Y355634D01*
X65393Y355615D01*
X65082Y355604D01*
X64770Y355600D01*
X64458Y355604D01*
X64147Y355615D01*
X63836Y355634D01*
X63525Y355661D01*
X63215Y355696D01*
X62907Y355737D01*
X62599Y355787D01*
X62292Y355844D01*
X61987Y355909D01*
X61684Y355981D01*
X61383Y356060D01*
X61083Y356147D01*
X60786Y356241D01*
X60491Y356342D01*
X60199Y356451D01*
X59910Y356567D01*
X59623Y356690D01*
X59340Y356819D01*
X59060Y356956D01*
X58783Y357100D01*
X58510Y357250D01*
X58241Y357407D01*
X57976Y357570D01*
X57714Y357740D01*
X57457Y357917D01*
X57205Y358099D01*
X56957Y358288D01*
X56713Y358483D01*
X56475Y358683D01*
X56241Y358890D01*
X56013Y359102D01*
X55790Y359320D01*
X55572Y359543D01*
X55360Y359771D01*
X55153Y360005D01*
X54953Y360243D01*
X54758Y360487D01*
X54569Y360735D01*
X54387Y360987D01*
X54210Y361244D01*
X54040Y361506D01*
X53877Y361771D01*
X53720Y362040D01*
X53570Y362313D01*
X53426Y362590D01*
X53289Y362870D01*
X53160Y363153D01*
X53037Y363440D01*
X52921Y363729D01*
X52812Y364021D01*
X52711Y364316D01*
X52617Y364613D01*
X52530Y364913D01*
X52451Y365214D01*
X52379Y365517D01*
X52314Y365822D01*
X52257Y366129D01*
X52207Y366437D01*
X52166Y366745D01*
X52131Y367055D01*
X52104Y367366D01*
X52085Y367677D01*
X52074Y367988D01*
X52070Y368300D01*
D14*
X109986Y354465D02*
X111469Y352982D01*
X109986Y354465D02*
X107020Y354465D01*
X105537Y352982D01*
X105537Y351499D01*
X107020Y350016D01*
X109986Y350016D01*
X111469Y348533D01*
X111469Y347050D01*
X109986Y345567D01*
X107020Y345567D01*
X105537Y347050D01*
X114892Y351499D02*
X117858Y354465D01*
X117858Y345567D01*
X114892Y345567D02*
X120824Y345567D01*
D15*
X90170Y304500D02*
X90170Y279400D01*
X80170Y266700D02*
X49370Y266700D01*
X39370Y279700D02*
X39370Y304500D01*
X49370Y317500D02*
X80170Y317500D01*
X52070Y292100D02*
X52074Y292412D01*
X52085Y292723D01*
X52104Y293034D01*
X52131Y293345D01*
X52166Y293655D01*
X52207Y293963D01*
X52257Y294271D01*
X52314Y294578D01*
X52379Y294883D01*
X52451Y295186D01*
X52530Y295487D01*
X52617Y295787D01*
X52711Y296084D01*
X52812Y296379D01*
X52921Y296671D01*
X53037Y296960D01*
X53160Y297247D01*
X53289Y297530D01*
X53426Y297810D01*
X53570Y298087D01*
X53720Y298360D01*
X53877Y298629D01*
X54040Y298894D01*
X54210Y299156D01*
X54387Y299413D01*
X54569Y299665D01*
X54758Y299913D01*
X54953Y300157D01*
X55153Y300395D01*
X55360Y300629D01*
X55572Y300857D01*
X55790Y301080D01*
X56013Y301298D01*
X56241Y301510D01*
X56475Y301717D01*
X56713Y301917D01*
X56957Y302112D01*
X57205Y302301D01*
X57457Y302483D01*
X57714Y302660D01*
X57976Y302830D01*
X58241Y302993D01*
X58510Y303150D01*
X58783Y303300D01*
X59060Y303444D01*
X59340Y303581D01*
X59623Y303710D01*
X59910Y303833D01*
X60199Y303949D01*
X60491Y304058D01*
X60786Y304159D01*
X61083Y304253D01*
X61383Y304340D01*
X61684Y304419D01*
X61987Y304491D01*
X62292Y304556D01*
X62599Y304613D01*
X62907Y304663D01*
X63215Y304704D01*
X63525Y304739D01*
X63836Y304766D01*
X64147Y304785D01*
X64458Y304796D01*
X64770Y304800D01*
X65082Y304796D01*
X65393Y304785D01*
X65704Y304766D01*
X66015Y304739D01*
X66325Y304704D01*
X66633Y304663D01*
X66941Y304613D01*
X67248Y304556D01*
X67553Y304491D01*
X67856Y304419D01*
X68157Y304340D01*
X68457Y304253D01*
X68754Y304159D01*
X69049Y304058D01*
X69341Y303949D01*
X69630Y303833D01*
X69917Y303710D01*
X70200Y303581D01*
X70480Y303444D01*
X70757Y303300D01*
X71030Y303150D01*
X71299Y302993D01*
X71564Y302830D01*
X71826Y302660D01*
X72083Y302483D01*
X72335Y302301D01*
X72583Y302112D01*
X72827Y301917D01*
X73065Y301717D01*
X73299Y301510D01*
X73527Y301298D01*
X73750Y301080D01*
X73968Y300857D01*
X74180Y300629D01*
X74387Y300395D01*
X74587Y300157D01*
X74782Y299913D01*
X74971Y299665D01*
X75153Y299413D01*
X75330Y299156D01*
X75500Y298894D01*
X75663Y298629D01*
X75820Y298360D01*
X75970Y298087D01*
X76114Y297810D01*
X76251Y297530D01*
X76380Y297247D01*
X76503Y296960D01*
X76619Y296671D01*
X76728Y296379D01*
X76829Y296084D01*
X76923Y295787D01*
X77010Y295487D01*
X77089Y295186D01*
X77161Y294883D01*
X77226Y294578D01*
X77283Y294271D01*
X77333Y293963D01*
X77374Y293655D01*
X77409Y293345D01*
X77436Y293034D01*
X77455Y292723D01*
X77466Y292412D01*
X77470Y292100D01*
X77466Y291788D01*
X77455Y291477D01*
X77436Y291166D01*
X77409Y290855D01*
X77374Y290545D01*
X77333Y290237D01*
X77283Y289929D01*
X77226Y289622D01*
X77161Y289317D01*
X77089Y289014D01*
X77010Y288713D01*
X76923Y288413D01*
X76829Y288116D01*
X76728Y287821D01*
X76619Y287529D01*
X76503Y287240D01*
X76380Y286953D01*
X76251Y286670D01*
X76114Y286390D01*
X75970Y286113D01*
X75820Y285840D01*
X75663Y285571D01*
X75500Y285306D01*
X75330Y285044D01*
X75153Y284787D01*
X74971Y284535D01*
X74782Y284287D01*
X74587Y284043D01*
X74387Y283805D01*
X74180Y283571D01*
X73968Y283343D01*
X73750Y283120D01*
X73527Y282902D01*
X73299Y282690D01*
X73065Y282483D01*
X72827Y282283D01*
X72583Y282088D01*
X72335Y281899D01*
X72083Y281717D01*
X71826Y281540D01*
X71564Y281370D01*
X71299Y281207D01*
X71030Y281050D01*
X70757Y280900D01*
X70480Y280756D01*
X70200Y280619D01*
X69917Y280490D01*
X69630Y280367D01*
X69341Y280251D01*
X69049Y280142D01*
X68754Y280041D01*
X68457Y279947D01*
X68157Y279860D01*
X67856Y279781D01*
X67553Y279709D01*
X67248Y279644D01*
X66941Y279587D01*
X66633Y279537D01*
X66325Y279496D01*
X66015Y279461D01*
X65704Y279434D01*
X65393Y279415D01*
X65082Y279404D01*
X64770Y279400D01*
X64458Y279404D01*
X64147Y279415D01*
X63836Y279434D01*
X63525Y279461D01*
X63215Y279496D01*
X62907Y279537D01*
X62599Y279587D01*
X62292Y279644D01*
X61987Y279709D01*
X61684Y279781D01*
X61383Y279860D01*
X61083Y279947D01*
X60786Y280041D01*
X60491Y280142D01*
X60199Y280251D01*
X59910Y280367D01*
X59623Y280490D01*
X59340Y280619D01*
X59060Y280756D01*
X58783Y280900D01*
X58510Y281050D01*
X58241Y281207D01*
X57976Y281370D01*
X57714Y281540D01*
X57457Y281717D01*
X57205Y281899D01*
X56957Y282088D01*
X56713Y282283D01*
X56475Y282483D01*
X56241Y282690D01*
X56013Y282902D01*
X55790Y283120D01*
X55572Y283343D01*
X55360Y283571D01*
X55153Y283805D01*
X54953Y284043D01*
X54758Y284287D01*
X54569Y284535D01*
X54387Y284787D01*
X54210Y285044D01*
X54040Y285306D01*
X53877Y285571D01*
X53720Y285840D01*
X53570Y286113D01*
X53426Y286390D01*
X53289Y286670D01*
X53160Y286953D01*
X53037Y287240D01*
X52921Y287529D01*
X52812Y287821D01*
X52711Y288116D01*
X52617Y288413D01*
X52530Y288713D01*
X52451Y289014D01*
X52379Y289317D01*
X52314Y289622D01*
X52257Y289929D01*
X52207Y290237D01*
X52166Y290545D01*
X52131Y290855D01*
X52104Y291166D01*
X52085Y291477D01*
X52074Y291788D01*
X52070Y292100D01*
D14*
X110748Y278519D02*
X112231Y277036D01*
X110748Y278519D02*
X107782Y278519D01*
X106299Y277036D01*
X106299Y275553D01*
X107782Y274070D01*
X110748Y274070D01*
X112231Y272587D01*
X112231Y271104D01*
X110748Y269621D01*
X107782Y269621D01*
X106299Y271104D01*
X115654Y269621D02*
X121586Y269621D01*
X115654Y269621D02*
X121586Y275553D01*
X121586Y277036D01*
X120103Y278519D01*
X117137Y278519D01*
X115654Y277036D01*
D15*
X90170Y228300D02*
X90170Y203200D01*
X80170Y190500D02*
X49370Y190500D01*
X39370Y203500D02*
X39370Y228300D01*
X49370Y241300D02*
X80170Y241300D01*
X52070Y215900D02*
X52074Y216212D01*
X52085Y216523D01*
X52104Y216834D01*
X52131Y217145D01*
X52166Y217455D01*
X52207Y217763D01*
X52257Y218071D01*
X52314Y218378D01*
X52379Y218683D01*
X52451Y218986D01*
X52530Y219287D01*
X52617Y219587D01*
X52711Y219884D01*
X52812Y220179D01*
X52921Y220471D01*
X53037Y220760D01*
X53160Y221047D01*
X53289Y221330D01*
X53426Y221610D01*
X53570Y221887D01*
X53720Y222160D01*
X53877Y222429D01*
X54040Y222694D01*
X54210Y222956D01*
X54387Y223213D01*
X54569Y223465D01*
X54758Y223713D01*
X54953Y223957D01*
X55153Y224195D01*
X55360Y224429D01*
X55572Y224657D01*
X55790Y224880D01*
X56013Y225098D01*
X56241Y225310D01*
X56475Y225517D01*
X56713Y225717D01*
X56957Y225912D01*
X57205Y226101D01*
X57457Y226283D01*
X57714Y226460D01*
X57976Y226630D01*
X58241Y226793D01*
X58510Y226950D01*
X58783Y227100D01*
X59060Y227244D01*
X59340Y227381D01*
X59623Y227510D01*
X59910Y227633D01*
X60199Y227749D01*
X60491Y227858D01*
X60786Y227959D01*
X61083Y228053D01*
X61383Y228140D01*
X61684Y228219D01*
X61987Y228291D01*
X62292Y228356D01*
X62599Y228413D01*
X62907Y228463D01*
X63215Y228504D01*
X63525Y228539D01*
X63836Y228566D01*
X64147Y228585D01*
X64458Y228596D01*
X64770Y228600D01*
X65082Y228596D01*
X65393Y228585D01*
X65704Y228566D01*
X66015Y228539D01*
X66325Y228504D01*
X66633Y228463D01*
X66941Y228413D01*
X67248Y228356D01*
X67553Y228291D01*
X67856Y228219D01*
X68157Y228140D01*
X68457Y228053D01*
X68754Y227959D01*
X69049Y227858D01*
X69341Y227749D01*
X69630Y227633D01*
X69917Y227510D01*
X70200Y227381D01*
X70480Y227244D01*
X70757Y227100D01*
X71030Y226950D01*
X71299Y226793D01*
X71564Y226630D01*
X71826Y226460D01*
X72083Y226283D01*
X72335Y226101D01*
X72583Y225912D01*
X72827Y225717D01*
X73065Y225517D01*
X73299Y225310D01*
X73527Y225098D01*
X73750Y224880D01*
X73968Y224657D01*
X74180Y224429D01*
X74387Y224195D01*
X74587Y223957D01*
X74782Y223713D01*
X74971Y223465D01*
X75153Y223213D01*
X75330Y222956D01*
X75500Y222694D01*
X75663Y222429D01*
X75820Y222160D01*
X75970Y221887D01*
X76114Y221610D01*
X76251Y221330D01*
X76380Y221047D01*
X76503Y220760D01*
X76619Y220471D01*
X76728Y220179D01*
X76829Y219884D01*
X76923Y219587D01*
X77010Y219287D01*
X77089Y218986D01*
X77161Y218683D01*
X77226Y218378D01*
X77283Y218071D01*
X77333Y217763D01*
X77374Y217455D01*
X77409Y217145D01*
X77436Y216834D01*
X77455Y216523D01*
X77466Y216212D01*
X77470Y215900D01*
X77466Y215588D01*
X77455Y215277D01*
X77436Y214966D01*
X77409Y214655D01*
X77374Y214345D01*
X77333Y214037D01*
X77283Y213729D01*
X77226Y213422D01*
X77161Y213117D01*
X77089Y212814D01*
X77010Y212513D01*
X76923Y212213D01*
X76829Y211916D01*
X76728Y211621D01*
X76619Y211329D01*
X76503Y211040D01*
X76380Y210753D01*
X76251Y210470D01*
X76114Y210190D01*
X75970Y209913D01*
X75820Y209640D01*
X75663Y209371D01*
X75500Y209106D01*
X75330Y208844D01*
X75153Y208587D01*
X74971Y208335D01*
X74782Y208087D01*
X74587Y207843D01*
X74387Y207605D01*
X74180Y207371D01*
X73968Y207143D01*
X73750Y206920D01*
X73527Y206702D01*
X73299Y206490D01*
X73065Y206283D01*
X72827Y206083D01*
X72583Y205888D01*
X72335Y205699D01*
X72083Y205517D01*
X71826Y205340D01*
X71564Y205170D01*
X71299Y205007D01*
X71030Y204850D01*
X70757Y204700D01*
X70480Y204556D01*
X70200Y204419D01*
X69917Y204290D01*
X69630Y204167D01*
X69341Y204051D01*
X69049Y203942D01*
X68754Y203841D01*
X68457Y203747D01*
X68157Y203660D01*
X67856Y203581D01*
X67553Y203509D01*
X67248Y203444D01*
X66941Y203387D01*
X66633Y203337D01*
X66325Y203296D01*
X66015Y203261D01*
X65704Y203234D01*
X65393Y203215D01*
X65082Y203204D01*
X64770Y203200D01*
X64458Y203204D01*
X64147Y203215D01*
X63836Y203234D01*
X63525Y203261D01*
X63215Y203296D01*
X62907Y203337D01*
X62599Y203387D01*
X62292Y203444D01*
X61987Y203509D01*
X61684Y203581D01*
X61383Y203660D01*
X61083Y203747D01*
X60786Y203841D01*
X60491Y203942D01*
X60199Y204051D01*
X59910Y204167D01*
X59623Y204290D01*
X59340Y204419D01*
X59060Y204556D01*
X58783Y204700D01*
X58510Y204850D01*
X58241Y205007D01*
X57976Y205170D01*
X57714Y205340D01*
X57457Y205517D01*
X57205Y205699D01*
X56957Y205888D01*
X56713Y206083D01*
X56475Y206283D01*
X56241Y206490D01*
X56013Y206702D01*
X55790Y206920D01*
X55572Y207143D01*
X55360Y207371D01*
X55153Y207605D01*
X54953Y207843D01*
X54758Y208087D01*
X54569Y208335D01*
X54387Y208587D01*
X54210Y208844D01*
X54040Y209106D01*
X53877Y209371D01*
X53720Y209640D01*
X53570Y209913D01*
X53426Y210190D01*
X53289Y210470D01*
X53160Y210753D01*
X53037Y211040D01*
X52921Y211329D01*
X52812Y211621D01*
X52711Y211916D01*
X52617Y212213D01*
X52530Y212513D01*
X52451Y212814D01*
X52379Y213117D01*
X52314Y213422D01*
X52257Y213729D01*
X52207Y214037D01*
X52166Y214345D01*
X52131Y214655D01*
X52104Y214966D01*
X52085Y215277D01*
X52074Y215588D01*
X52070Y215900D01*
D14*
X110748Y201557D02*
X112231Y200074D01*
X110748Y201557D02*
X107782Y201557D01*
X106299Y200074D01*
X106299Y198591D01*
X107782Y197108D01*
X110748Y197108D01*
X112231Y195625D01*
X112231Y194142D01*
X110748Y192659D01*
X107782Y192659D01*
X106299Y194142D01*
X115654Y200074D02*
X117137Y201557D01*
X120103Y201557D01*
X121586Y200074D01*
X121586Y198591D01*
X120103Y197108D01*
X118620Y197108D01*
X120103Y197108D02*
X121586Y195625D01*
X121586Y194142D01*
X120103Y192659D01*
X117137Y192659D01*
X115654Y194142D01*
D17*
X127000Y310871D02*
X127000Y311429D01*
D14*
X125185Y327836D02*
X123702Y329319D01*
X120736Y329319D01*
X119253Y327836D01*
X119253Y321904D01*
X120736Y320421D01*
X123702Y320421D01*
X125185Y321904D01*
X128608Y320421D02*
X134540Y320421D01*
X128608Y320421D02*
X134540Y326353D01*
X134540Y327836D01*
X133057Y329319D01*
X130091Y329319D01*
X128608Y327836D01*
X113157Y300150D02*
X113157Y294218D01*
X113157Y300150D02*
X114640Y301633D01*
X117606Y301633D01*
X119089Y300150D01*
X119089Y294218D01*
X117606Y292735D01*
X114640Y292735D01*
X113157Y294218D01*
X119089Y300150D01*
X122512Y294218D02*
X122512Y292735D01*
X122512Y294218D02*
X123995Y294218D01*
X123995Y292735D01*
X122512Y292735D01*
X127190Y298667D02*
X130156Y301633D01*
X130156Y292735D01*
X127190Y292735D02*
X133122Y292735D01*
X136545Y294218D02*
X136545Y298667D01*
X136545Y294218D02*
X138028Y292735D01*
X142477Y292735D01*
X142477Y298667D01*
X145900Y301633D02*
X145900Y292735D01*
X145900Y301633D02*
X151832Y301633D01*
X148866Y297184D02*
X145900Y297184D01*
D17*
X127000Y235229D02*
X127000Y234671D01*
D14*
X125439Y251382D02*
X123956Y252865D01*
X120990Y252865D01*
X119507Y251382D01*
X119507Y245450D01*
X120990Y243967D01*
X123956Y243967D01*
X125439Y245450D01*
X128862Y251382D02*
X130345Y252865D01*
X133311Y252865D01*
X134794Y251382D01*
X134794Y249899D01*
X133311Y248416D01*
X134794Y246933D01*
X134794Y245450D01*
X133311Y243967D01*
X130345Y243967D01*
X128862Y245450D01*
X128862Y246933D01*
X130345Y248416D01*
X128862Y249899D01*
X128862Y251382D01*
X130345Y248416D02*
X133311Y248416D01*
X112141Y223950D02*
X112141Y218018D01*
X112141Y223950D02*
X113624Y225433D01*
X116590Y225433D01*
X118073Y223950D01*
X118073Y218018D01*
X116590Y216535D01*
X113624Y216535D01*
X112141Y218018D01*
X118073Y223950D01*
X121496Y218018D02*
X121496Y216535D01*
X121496Y218018D02*
X122979Y218018D01*
X122979Y216535D01*
X121496Y216535D01*
X126174Y222467D02*
X129140Y225433D01*
X129140Y216535D01*
X126174Y216535D02*
X132106Y216535D01*
X135529Y218018D02*
X135529Y222467D01*
X135529Y218018D02*
X137012Y216535D01*
X141461Y216535D01*
X141461Y222467D01*
X144884Y225433D02*
X144884Y216535D01*
X144884Y225433D02*
X150816Y225433D01*
X147850Y220984D02*
X144884Y220984D01*
D17*
X127254Y387071D02*
X127254Y387629D01*
D14*
X125439Y403782D02*
X123956Y405265D01*
X120990Y405265D01*
X119507Y403782D01*
X119507Y397850D01*
X120990Y396367D01*
X123956Y396367D01*
X125439Y397850D01*
X128862Y397850D02*
X130345Y396367D01*
X133311Y396367D01*
X134794Y397850D01*
X134794Y403782D01*
X133311Y405265D01*
X130345Y405265D01*
X128862Y403782D01*
X128862Y402299D01*
X130345Y400816D01*
X134794Y400816D01*
X112395Y375080D02*
X112395Y369148D01*
X112395Y375080D02*
X113878Y376563D01*
X116844Y376563D01*
X118327Y375080D01*
X118327Y369148D01*
X116844Y367665D01*
X113878Y367665D01*
X112395Y369148D01*
X118327Y375080D01*
X121750Y369148D02*
X121750Y367665D01*
X121750Y369148D02*
X123233Y369148D01*
X123233Y367665D01*
X121750Y367665D01*
X126428Y373597D02*
X129394Y376563D01*
X129394Y367665D01*
X126428Y367665D02*
X132360Y367665D01*
X135783Y369148D02*
X135783Y373597D01*
X135783Y369148D02*
X137266Y367665D01*
X141715Y367665D01*
X141715Y373597D01*
X145138Y376563D02*
X145138Y367665D01*
X145138Y376563D02*
X151070Y376563D01*
X148104Y372114D02*
X145138Y372114D01*
D18*
X447100Y115160D02*
X447102Y115223D01*
X447108Y115285D01*
X447118Y115347D01*
X447131Y115409D01*
X447149Y115469D01*
X447170Y115528D01*
X447195Y115586D01*
X447224Y115642D01*
X447256Y115696D01*
X447291Y115748D01*
X447329Y115797D01*
X447371Y115845D01*
X447415Y115889D01*
X447463Y115931D01*
X447512Y115969D01*
X447564Y116004D01*
X447618Y116036D01*
X447674Y116065D01*
X447732Y116090D01*
X447791Y116111D01*
X447851Y116129D01*
X447913Y116142D01*
X447975Y116152D01*
X448037Y116158D01*
X448100Y116160D01*
X448163Y116158D01*
X448225Y116152D01*
X448287Y116142D01*
X448349Y116129D01*
X448409Y116111D01*
X448468Y116090D01*
X448526Y116065D01*
X448582Y116036D01*
X448636Y116004D01*
X448688Y115969D01*
X448737Y115931D01*
X448785Y115889D01*
X448829Y115845D01*
X448871Y115797D01*
X448909Y115748D01*
X448944Y115696D01*
X448976Y115642D01*
X449005Y115586D01*
X449030Y115528D01*
X449051Y115469D01*
X449069Y115409D01*
X449082Y115347D01*
X449092Y115285D01*
X449098Y115223D01*
X449100Y115160D01*
X449098Y115097D01*
X449092Y115035D01*
X449082Y114973D01*
X449069Y114911D01*
X449051Y114851D01*
X449030Y114792D01*
X449005Y114734D01*
X448976Y114678D01*
X448944Y114624D01*
X448909Y114572D01*
X448871Y114523D01*
X448829Y114475D01*
X448785Y114431D01*
X448737Y114389D01*
X448688Y114351D01*
X448636Y114316D01*
X448582Y114284D01*
X448526Y114255D01*
X448468Y114230D01*
X448409Y114209D01*
X448349Y114191D01*
X448287Y114178D01*
X448225Y114168D01*
X448163Y114162D01*
X448100Y114160D01*
X448037Y114162D01*
X447975Y114168D01*
X447913Y114178D01*
X447851Y114191D01*
X447791Y114209D01*
X447732Y114230D01*
X447674Y114255D01*
X447618Y114284D01*
X447564Y114316D01*
X447512Y114351D01*
X447463Y114389D01*
X447415Y114431D01*
X447371Y114475D01*
X447329Y114523D01*
X447291Y114572D01*
X447256Y114624D01*
X447224Y114678D01*
X447195Y114734D01*
X447170Y114792D01*
X447149Y114851D01*
X447131Y114911D01*
X447118Y114973D01*
X447108Y115035D01*
X447102Y115097D01*
X447100Y115160D01*
D14*
X465600Y149850D02*
X465600Y203850D01*
X450600Y203850D01*
X390600Y203850D02*
X375600Y203850D01*
X259600Y203850D02*
X245600Y203850D01*
X245600Y187850D01*
X245600Y170850D02*
X245600Y149850D01*
X372600Y126350D02*
X388600Y126350D01*
X449389Y100906D02*
X450872Y99423D01*
X452354Y99423D01*
X453837Y100906D01*
X453837Y108320D01*
X452354Y108320D02*
X455320Y108320D01*
X458744Y99423D02*
X464676Y99423D01*
X458744Y99423D02*
X464676Y105355D01*
X464676Y106837D01*
X463193Y108320D01*
X460227Y108320D01*
X458744Y106837D01*
X324895Y156693D02*
X318963Y156693D01*
X324895Y162625D01*
X324895Y164107D01*
X323412Y165590D01*
X320446Y165590D01*
X318963Y164107D01*
X328318Y162625D02*
X331284Y165590D01*
X331284Y156693D01*
X328318Y156693D02*
X334250Y156693D01*
X337673Y158176D02*
X339156Y156693D01*
X342122Y156693D01*
X343605Y158176D01*
X343605Y164107D01*
X342122Y165590D01*
X339156Y165590D01*
X337673Y164107D01*
X337673Y162625D01*
X339156Y161142D01*
X343605Y161142D01*
X347029Y158176D02*
X348511Y156693D01*
X351477Y156693D01*
X352960Y158176D01*
X352960Y164107D01*
X351477Y165590D01*
X348511Y165590D01*
X347029Y164107D01*
X347029Y162625D01*
X348511Y161142D01*
X352960Y161142D01*
X356384Y156693D02*
X362315Y156693D01*
X356384Y156693D02*
X362315Y162625D01*
X362315Y164107D01*
X360833Y165590D01*
X357867Y165590D01*
X356384Y164107D01*
X365739Y164107D02*
X367222Y165590D01*
X370188Y165590D01*
X371671Y164107D01*
X371671Y162625D01*
X370188Y161142D01*
X368705Y161142D01*
X370188Y161142D02*
X371671Y159659D01*
X371671Y158176D01*
X370188Y156693D01*
X367222Y156693D01*
X365739Y158176D01*
X375094Y158176D02*
X375094Y164107D01*
X376577Y165590D01*
X379543Y165590D01*
X381026Y164107D01*
X381026Y158176D01*
X379543Y156693D01*
X376577Y156693D01*
X375094Y158176D01*
X381026Y164107D01*
X384449Y161142D02*
X390381Y161142D01*
X398253Y165590D02*
X398253Y156693D01*
X393805Y161142D02*
X398253Y165590D01*
X399736Y161142D02*
X393805Y161142D01*
D19*
X203200Y139700D03*
D14*
X169799Y141097D02*
X169799Y149995D01*
X174248Y149995D01*
X175731Y148512D01*
X175731Y145546D01*
X174248Y144063D01*
X169799Y144063D01*
X172765Y144063D02*
X175731Y141097D01*
X183603Y141097D02*
X183603Y149995D01*
X179154Y145546D01*
X185086Y145546D01*
X152953Y137295D02*
X149987Y134329D01*
X152953Y137295D02*
X152953Y128397D01*
X149987Y128397D02*
X155919Y128397D01*
X159342Y129880D02*
X159342Y135812D01*
X160825Y137295D01*
X163791Y137295D01*
X165274Y135812D01*
X165274Y129880D01*
X163791Y128397D01*
X160825Y128397D01*
X159342Y129880D01*
X165274Y135812D01*
X168697Y135812D02*
X168697Y129880D01*
X168697Y135812D02*
X170180Y137295D01*
X173146Y137295D01*
X174629Y135812D01*
X174629Y129880D01*
X173146Y128397D01*
X170180Y128397D01*
X168697Y129880D01*
X174629Y135812D01*
X178053Y137295D02*
X178053Y128397D01*
X178053Y131363D02*
X183984Y137295D01*
X179535Y132846D02*
X183984Y128397D01*
D19*
X203200Y165100D03*
D14*
X169799Y165481D02*
X169799Y174379D01*
X174248Y174379D01*
X175731Y172896D01*
X175731Y169930D01*
X174248Y168447D01*
X169799Y168447D01*
X172765Y168447D02*
X175731Y165481D01*
X179154Y174379D02*
X185086Y174379D01*
X185086Y172896D01*
X179154Y166964D01*
X179154Y165481D01*
X154223Y161425D02*
X151257Y158459D01*
X154223Y161425D02*
X154223Y152527D01*
X151257Y152527D02*
X157189Y152527D01*
X160612Y154010D02*
X160612Y159942D01*
X162095Y161425D01*
X165061Y161425D01*
X166544Y159942D01*
X166544Y154010D01*
X165061Y152527D01*
X162095Y152527D01*
X160612Y154010D01*
X166544Y159942D01*
X169967Y159942D02*
X169967Y154010D01*
X169967Y159942D02*
X171450Y161425D01*
X174416Y161425D01*
X175899Y159942D01*
X175899Y154010D01*
X174416Y152527D01*
X171450Y152527D01*
X169967Y154010D01*
X175899Y159942D01*
X179323Y161425D02*
X179323Y152527D01*
X179323Y155493D02*
X185254Y161425D01*
X180805Y156976D02*
X185254Y152527D01*
D19*
X203200Y114300D03*
D14*
X169545Y115951D02*
X169545Y124849D01*
X173994Y124849D01*
X175477Y123366D01*
X175477Y120400D01*
X173994Y118917D01*
X169545Y118917D01*
X172511Y118917D02*
X175477Y115951D01*
X178900Y123366D02*
X180383Y124849D01*
X183349Y124849D01*
X184832Y123366D01*
X184832Y121883D01*
X183349Y120400D01*
X184832Y118917D01*
X184832Y117434D01*
X183349Y115951D01*
X180383Y115951D01*
X178900Y117434D01*
X178900Y118917D01*
X180383Y120400D01*
X178900Y121883D01*
X178900Y123366D01*
X180383Y120400D02*
X183349Y120400D01*
X153715Y112657D02*
X150749Y109691D01*
X153715Y112657D02*
X153715Y103759D01*
X150749Y103759D02*
X156681Y103759D01*
X160104Y105242D02*
X160104Y111174D01*
X161587Y112657D01*
X164553Y112657D01*
X166036Y111174D01*
X166036Y105242D01*
X164553Y103759D01*
X161587Y103759D01*
X160104Y105242D01*
X166036Y111174D01*
X169459Y111174D02*
X169459Y105242D01*
X169459Y111174D02*
X170942Y112657D01*
X173908Y112657D01*
X175391Y111174D01*
X175391Y105242D01*
X173908Y103759D01*
X170942Y103759D01*
X169459Y105242D01*
X175391Y111174D01*
X178815Y112657D02*
X178815Y103759D01*
X178815Y106725D02*
X184746Y112657D01*
X180297Y108208D02*
X184746Y103759D01*
D19*
X203200Y88900D03*
D14*
X170053Y90297D02*
X170053Y99195D01*
X174502Y99195D01*
X175985Y97712D01*
X175985Y94746D01*
X174502Y93263D01*
X170053Y93263D01*
X173019Y93263D02*
X175985Y90297D01*
X179408Y91780D02*
X180891Y90297D01*
X183857Y90297D01*
X185340Y91780D01*
X185340Y97712D01*
X183857Y99195D01*
X180891Y99195D01*
X179408Y97712D01*
X179408Y96229D01*
X180891Y94746D01*
X185340Y94746D01*
X153715Y87003D02*
X150749Y84037D01*
X153715Y87003D02*
X153715Y78105D01*
X150749Y78105D02*
X156681Y78105D01*
X160104Y79588D02*
X160104Y85520D01*
X161587Y87003D01*
X164553Y87003D01*
X166036Y85520D01*
X166036Y79588D01*
X164553Y78105D01*
X161587Y78105D01*
X160104Y79588D01*
X166036Y85520D01*
X169459Y85520D02*
X169459Y79588D01*
X169459Y85520D02*
X170942Y87003D01*
X173908Y87003D01*
X175391Y85520D01*
X175391Y79588D01*
X173908Y78105D01*
X170942Y78105D01*
X169459Y79588D01*
X175391Y85520D01*
X178815Y87003D02*
X178815Y78105D01*
X178815Y81071D02*
X184746Y87003D01*
X180297Y82554D02*
X184746Y78105D01*
D19*
X203200Y190500D03*
D14*
X160655Y193167D02*
X160655Y202065D01*
X165104Y202065D01*
X166587Y200582D01*
X166587Y197616D01*
X165104Y196133D01*
X160655Y196133D01*
X163621Y196133D02*
X166587Y193167D01*
X170010Y199099D02*
X172976Y202065D01*
X172976Y193167D01*
X170010Y193167D02*
X175942Y193167D01*
X179365Y194650D02*
X179365Y200582D01*
X180848Y202065D01*
X183814Y202065D01*
X185297Y200582D01*
X185297Y194650D01*
X183814Y193167D01*
X180848Y193167D01*
X179365Y194650D01*
X185297Y200582D01*
X154477Y188603D02*
X151511Y185637D01*
X154477Y188603D02*
X154477Y179705D01*
X151511Y179705D02*
X157443Y179705D01*
X160866Y181188D02*
X160866Y187120D01*
X162349Y188603D01*
X165315Y188603D01*
X166798Y187120D01*
X166798Y181188D01*
X165315Y179705D01*
X162349Y179705D01*
X160866Y181188D01*
X166798Y187120D01*
X170221Y187120D02*
X170221Y181188D01*
X170221Y187120D02*
X171704Y188603D01*
X174670Y188603D01*
X176153Y187120D01*
X176153Y181188D01*
X174670Y179705D01*
X171704Y179705D01*
X170221Y181188D01*
X176153Y187120D01*
X179577Y188603D02*
X179577Y179705D01*
X179577Y182671D02*
X185508Y188603D01*
X181059Y184154D02*
X185508Y179705D01*
M02*
