G04 EAGLE Gerber RS-274X export*
G75*
%MOMM*%
%FSLAX34Y34*%
%LPD*%
%INSoldermask Top*%
%IPPOS*%
%AMOC8*
5,1,8,0,0,1.08239X$1,22.5*%
G01*
%ADD10C,3.327400*%
%ADD11C,1.524000*%
%ADD12P,1.649562X8X22.500000*%
%ADD13R,0.952400X0.952400*%
%ADD14R,1.152400X1.252400*%
%ADD15R,1.252400X1.152400*%
%ADD16R,1.676400X0.914400*%
%ADD17C,1.252400*%
%ADD18C,1.752400*%
%ADD19C,0.199053*%
%ADD20C,0.338100*%
%ADD21C,2.819400*%

G36*
X509792Y624520D02*
X509792Y624520D01*
X509835Y624532D01*
X509901Y624539D01*
X511584Y624990D01*
X511625Y625009D01*
X511688Y625028D01*
X513268Y625765D01*
X513305Y625791D01*
X513364Y625820D01*
X514792Y626820D01*
X514823Y626852D01*
X514876Y626891D01*
X516109Y628124D01*
X516134Y628160D01*
X516180Y628208D01*
X517180Y629636D01*
X517198Y629677D01*
X517235Y629732D01*
X517972Y631312D01*
X517983Y631355D01*
X518010Y631416D01*
X518461Y633099D01*
X518463Y633131D01*
X518470Y633152D01*
X518470Y633167D01*
X518480Y633208D01*
X518632Y634945D01*
X518628Y634989D01*
X518632Y635055D01*
X518480Y636792D01*
X518468Y636835D01*
X518461Y636901D01*
X518010Y638584D01*
X517991Y638625D01*
X517972Y638688D01*
X517235Y640268D01*
X517209Y640305D01*
X517180Y640364D01*
X516180Y641792D01*
X516148Y641823D01*
X516109Y641876D01*
X514876Y643109D01*
X514840Y643134D01*
X514792Y643180D01*
X513364Y644180D01*
X513323Y644198D01*
X513268Y644235D01*
X511688Y644972D01*
X511645Y644983D01*
X511584Y645010D01*
X509901Y645461D01*
X509856Y645464D01*
X509792Y645480D01*
X508055Y645632D01*
X508011Y645628D01*
X507945Y645632D01*
X506208Y645480D01*
X506165Y645468D01*
X506099Y645461D01*
X504416Y645010D01*
X504375Y644991D01*
X504312Y644972D01*
X502732Y644235D01*
X502695Y644209D01*
X502636Y644180D01*
X501208Y643180D01*
X501177Y643148D01*
X501124Y643109D01*
X499891Y641876D01*
X499866Y641840D01*
X499820Y641792D01*
X498820Y640364D01*
X498802Y640323D01*
X498765Y640268D01*
X498028Y638688D01*
X498017Y638645D01*
X497990Y638584D01*
X497539Y636901D01*
X497536Y636856D01*
X497520Y636792D01*
X497368Y635055D01*
X497372Y635011D01*
X497368Y634945D01*
X497520Y633208D01*
X497532Y633165D01*
X497536Y633131D01*
X497536Y633115D01*
X497538Y633110D01*
X497539Y633099D01*
X497990Y631416D01*
X498009Y631375D01*
X498028Y631312D01*
X498765Y629732D01*
X498791Y629695D01*
X498820Y629636D01*
X499820Y628208D01*
X499852Y628177D01*
X499891Y628124D01*
X501124Y626891D01*
X501160Y626866D01*
X501208Y626820D01*
X502636Y625820D01*
X502677Y625802D01*
X502732Y625765D01*
X504312Y625028D01*
X504355Y625017D01*
X504416Y624990D01*
X506099Y624539D01*
X506144Y624536D01*
X506208Y624520D01*
X507945Y624368D01*
X507989Y624372D01*
X508055Y624368D01*
X509792Y624520D01*
G37*
G36*
X509792Y27620D02*
X509792Y27620D01*
X509835Y27632D01*
X509901Y27639D01*
X511584Y28090D01*
X511625Y28109D01*
X511688Y28128D01*
X513268Y28865D01*
X513305Y28891D01*
X513364Y28920D01*
X514792Y29920D01*
X514823Y29952D01*
X514876Y29991D01*
X516109Y31224D01*
X516134Y31260D01*
X516180Y31308D01*
X517180Y32736D01*
X517198Y32777D01*
X517235Y32832D01*
X517972Y34412D01*
X517983Y34455D01*
X518010Y34516D01*
X518461Y36199D01*
X518463Y36231D01*
X518470Y36252D01*
X518470Y36267D01*
X518480Y36308D01*
X518632Y38045D01*
X518628Y38089D01*
X518632Y38155D01*
X518480Y39892D01*
X518468Y39935D01*
X518461Y40001D01*
X518010Y41684D01*
X517991Y41725D01*
X517972Y41788D01*
X517235Y43368D01*
X517209Y43405D01*
X517180Y43464D01*
X516180Y44892D01*
X516148Y44923D01*
X516109Y44976D01*
X514876Y46209D01*
X514840Y46234D01*
X514792Y46280D01*
X513364Y47280D01*
X513323Y47298D01*
X513268Y47335D01*
X511688Y48072D01*
X511645Y48083D01*
X511584Y48110D01*
X509901Y48561D01*
X509856Y48564D01*
X509792Y48580D01*
X508055Y48732D01*
X508011Y48728D01*
X507945Y48732D01*
X506208Y48580D01*
X506165Y48568D01*
X506099Y48561D01*
X504416Y48110D01*
X504375Y48091D01*
X504312Y48072D01*
X502732Y47335D01*
X502695Y47309D01*
X502636Y47280D01*
X501208Y46280D01*
X501177Y46248D01*
X501124Y46209D01*
X499891Y44976D01*
X499866Y44940D01*
X499820Y44892D01*
X498820Y43464D01*
X498802Y43423D01*
X498765Y43368D01*
X498028Y41788D01*
X498017Y41745D01*
X497990Y41684D01*
X497539Y40001D01*
X497536Y39956D01*
X497520Y39892D01*
X497368Y38155D01*
X497372Y38111D01*
X497368Y38045D01*
X497520Y36308D01*
X497532Y36265D01*
X497536Y36231D01*
X497536Y36215D01*
X497538Y36210D01*
X497539Y36199D01*
X497990Y34516D01*
X498009Y34475D01*
X498028Y34412D01*
X498765Y32832D01*
X498791Y32795D01*
X498820Y32736D01*
X499820Y31308D01*
X499852Y31277D01*
X499891Y31224D01*
X501124Y29991D01*
X501160Y29966D01*
X501208Y29920D01*
X502636Y28920D01*
X502677Y28902D01*
X502732Y28865D01*
X504312Y28128D01*
X504355Y28117D01*
X504416Y28090D01*
X506099Y27639D01*
X506144Y27636D01*
X506208Y27620D01*
X507945Y27468D01*
X507989Y27472D01*
X508055Y27468D01*
X509792Y27620D01*
G37*
G36*
X52592Y27620D02*
X52592Y27620D01*
X52635Y27632D01*
X52701Y27639D01*
X54384Y28090D01*
X54425Y28109D01*
X54488Y28128D01*
X56068Y28865D01*
X56105Y28891D01*
X56164Y28920D01*
X57592Y29920D01*
X57623Y29952D01*
X57676Y29991D01*
X58909Y31224D01*
X58934Y31260D01*
X58980Y31308D01*
X59980Y32736D01*
X59998Y32777D01*
X60035Y32832D01*
X60772Y34412D01*
X60783Y34455D01*
X60810Y34516D01*
X61261Y36199D01*
X61263Y36231D01*
X61270Y36252D01*
X61270Y36267D01*
X61280Y36308D01*
X61432Y38045D01*
X61428Y38089D01*
X61432Y38155D01*
X61280Y39892D01*
X61268Y39935D01*
X61261Y40001D01*
X60810Y41684D01*
X60791Y41725D01*
X60772Y41788D01*
X60035Y43368D01*
X60009Y43405D01*
X59980Y43464D01*
X58980Y44892D01*
X58948Y44923D01*
X58909Y44976D01*
X57676Y46209D01*
X57640Y46234D01*
X57592Y46280D01*
X56164Y47280D01*
X56123Y47298D01*
X56068Y47335D01*
X54488Y48072D01*
X54445Y48083D01*
X54384Y48110D01*
X52701Y48561D01*
X52656Y48564D01*
X52592Y48580D01*
X50855Y48732D01*
X50811Y48728D01*
X50745Y48732D01*
X49008Y48580D01*
X48965Y48568D01*
X48899Y48561D01*
X47216Y48110D01*
X47175Y48091D01*
X47112Y48072D01*
X45532Y47335D01*
X45495Y47309D01*
X45436Y47280D01*
X44008Y46280D01*
X43977Y46248D01*
X43924Y46209D01*
X42691Y44976D01*
X42666Y44940D01*
X42620Y44892D01*
X41620Y43464D01*
X41602Y43423D01*
X41565Y43368D01*
X40828Y41788D01*
X40817Y41745D01*
X40790Y41684D01*
X40339Y40001D01*
X40336Y39956D01*
X40320Y39892D01*
X40168Y38155D01*
X40172Y38111D01*
X40168Y38045D01*
X40320Y36308D01*
X40332Y36265D01*
X40336Y36231D01*
X40336Y36215D01*
X40338Y36210D01*
X40339Y36199D01*
X40790Y34516D01*
X40809Y34475D01*
X40828Y34412D01*
X41565Y32832D01*
X41591Y32795D01*
X41620Y32736D01*
X42620Y31308D01*
X42652Y31277D01*
X42691Y31224D01*
X43924Y29991D01*
X43960Y29966D01*
X44008Y29920D01*
X45436Y28920D01*
X45477Y28902D01*
X45532Y28865D01*
X47112Y28128D01*
X47155Y28117D01*
X47216Y28090D01*
X48899Y27639D01*
X48944Y27636D01*
X49008Y27620D01*
X50745Y27468D01*
X50789Y27472D01*
X50855Y27468D01*
X52592Y27620D01*
G37*
D10*
X50800Y546100D03*
X508000Y546100D03*
D11*
X76200Y50800D03*
D12*
X76200Y25400D03*
X101600Y50800D03*
X101600Y25400D03*
X127000Y50800D03*
X127000Y25400D03*
X152400Y50800D03*
X152400Y25400D03*
X177800Y50800D03*
X177800Y25400D03*
X203200Y50800D03*
X203200Y25400D03*
X228600Y50800D03*
X228600Y25400D03*
X254000Y50800D03*
X254000Y25400D03*
X279400Y50800D03*
X279400Y25400D03*
X304800Y50800D03*
X304800Y25400D03*
X330200Y50800D03*
X330200Y25400D03*
X355600Y50800D03*
X355600Y25400D03*
X381000Y50800D03*
X381000Y25400D03*
X406400Y50800D03*
X406400Y25400D03*
X431800Y50800D03*
X431800Y25400D03*
X457200Y50800D03*
X457200Y25400D03*
D13*
X236100Y635000D03*
X221100Y635000D03*
X337700Y635000D03*
X322700Y635000D03*
D14*
X228600Y575700D03*
X228600Y592700D03*
X330200Y575700D03*
X330200Y592700D03*
D15*
X194700Y215900D03*
X211700Y215900D03*
D14*
X482600Y220100D03*
X482600Y237100D03*
X482600Y110118D03*
X482600Y127118D03*
X508000Y110118D03*
X508000Y127118D03*
X508000Y220100D03*
X508000Y237100D03*
D16*
X92710Y349250D03*
X36830Y349250D03*
X92710Y387350D03*
X36830Y387350D03*
X92710Y273050D03*
X36830Y273050D03*
X92710Y311150D03*
X36830Y311150D03*
X92710Y196850D03*
X36830Y196850D03*
X92710Y234950D03*
X36830Y234950D03*
D15*
X118500Y311150D03*
X135500Y311150D03*
X118500Y234950D03*
X135500Y234950D03*
X118754Y387350D03*
X135754Y387350D03*
D17*
X455600Y178850D03*
D18*
X255600Y178850D03*
D19*
X419333Y194083D02*
X419333Y209117D01*
X421867Y209117D01*
X421867Y194083D01*
X419333Y194083D01*
X419333Y195974D02*
X421867Y195974D01*
X421867Y197865D02*
X419333Y197865D01*
X419333Y199756D02*
X421867Y199756D01*
X421867Y201647D02*
X419333Y201647D01*
X419333Y203538D02*
X421867Y203538D01*
X421867Y205429D02*
X419333Y205429D01*
X419333Y207320D02*
X421867Y207320D01*
X424333Y209117D02*
X424333Y194083D01*
X424333Y209117D02*
X426867Y209117D01*
X426867Y194083D01*
X424333Y194083D01*
X424333Y195974D02*
X426867Y195974D01*
X426867Y197865D02*
X424333Y197865D01*
X424333Y199756D02*
X426867Y199756D01*
X426867Y201647D02*
X424333Y201647D01*
X424333Y203538D02*
X426867Y203538D01*
X426867Y205429D02*
X424333Y205429D01*
X424333Y207320D02*
X426867Y207320D01*
X429333Y209117D02*
X429333Y194083D01*
X429333Y209117D02*
X431867Y209117D01*
X431867Y194083D01*
X429333Y194083D01*
X429333Y195974D02*
X431867Y195974D01*
X431867Y197865D02*
X429333Y197865D01*
X429333Y199756D02*
X431867Y199756D01*
X431867Y201647D02*
X429333Y201647D01*
X429333Y203538D02*
X431867Y203538D01*
X431867Y205429D02*
X429333Y205429D01*
X429333Y207320D02*
X431867Y207320D01*
X434333Y209117D02*
X434333Y194083D01*
X434333Y209117D02*
X436867Y209117D01*
X436867Y194083D01*
X434333Y194083D01*
X434333Y195974D02*
X436867Y195974D01*
X436867Y197865D02*
X434333Y197865D01*
X434333Y199756D02*
X436867Y199756D01*
X436867Y201647D02*
X434333Y201647D01*
X434333Y203538D02*
X436867Y203538D01*
X436867Y205429D02*
X434333Y205429D01*
X434333Y207320D02*
X436867Y207320D01*
X439333Y209117D02*
X439333Y194083D01*
X439333Y209117D02*
X441867Y209117D01*
X441867Y194083D01*
X439333Y194083D01*
X439333Y195974D02*
X441867Y195974D01*
X441867Y197865D02*
X439333Y197865D01*
X439333Y199756D02*
X441867Y199756D01*
X441867Y201647D02*
X439333Y201647D01*
X439333Y203538D02*
X441867Y203538D01*
X441867Y205429D02*
X439333Y205429D01*
X439333Y207320D02*
X441867Y207320D01*
X444333Y209117D02*
X444333Y194083D01*
X444333Y209117D02*
X446867Y209117D01*
X446867Y194083D01*
X444333Y194083D01*
X444333Y195974D02*
X446867Y195974D01*
X446867Y197865D02*
X444333Y197865D01*
X444333Y199756D02*
X446867Y199756D01*
X446867Y201647D02*
X444333Y201647D01*
X444333Y203538D02*
X446867Y203538D01*
X446867Y205429D02*
X444333Y205429D01*
X444333Y207320D02*
X446867Y207320D01*
X446833Y133617D02*
X446833Y118583D01*
X446833Y133617D02*
X449367Y133617D01*
X449367Y118583D01*
X446833Y118583D01*
X446833Y120474D02*
X449367Y120474D01*
X449367Y122365D02*
X446833Y122365D01*
X446833Y124256D02*
X449367Y124256D01*
X449367Y126147D02*
X446833Y126147D01*
X446833Y128038D02*
X449367Y128038D01*
X449367Y129929D02*
X446833Y129929D01*
X446833Y131820D02*
X449367Y131820D01*
X441833Y133617D02*
X441833Y118583D01*
X441833Y133617D02*
X444367Y133617D01*
X444367Y118583D01*
X441833Y118583D01*
X441833Y120474D02*
X444367Y120474D01*
X444367Y122365D02*
X441833Y122365D01*
X441833Y124256D02*
X444367Y124256D01*
X444367Y126147D02*
X441833Y126147D01*
X441833Y128038D02*
X444367Y128038D01*
X444367Y129929D02*
X441833Y129929D01*
X441833Y131820D02*
X444367Y131820D01*
X436833Y133617D02*
X436833Y118583D01*
X436833Y133617D02*
X439367Y133617D01*
X439367Y118583D01*
X436833Y118583D01*
X436833Y120474D02*
X439367Y120474D01*
X439367Y122365D02*
X436833Y122365D01*
X436833Y124256D02*
X439367Y124256D01*
X439367Y126147D02*
X436833Y126147D01*
X436833Y128038D02*
X439367Y128038D01*
X439367Y129929D02*
X436833Y129929D01*
X436833Y131820D02*
X439367Y131820D01*
X431833Y133617D02*
X431833Y118583D01*
X431833Y133617D02*
X434367Y133617D01*
X434367Y118583D01*
X431833Y118583D01*
X431833Y120474D02*
X434367Y120474D01*
X434367Y122365D02*
X431833Y122365D01*
X431833Y124256D02*
X434367Y124256D01*
X434367Y126147D02*
X431833Y126147D01*
X431833Y128038D02*
X434367Y128038D01*
X434367Y129929D02*
X431833Y129929D01*
X431833Y131820D02*
X434367Y131820D01*
X426833Y133617D02*
X426833Y118583D01*
X426833Y133617D02*
X429367Y133617D01*
X429367Y118583D01*
X426833Y118583D01*
X426833Y120474D02*
X429367Y120474D01*
X429367Y122365D02*
X426833Y122365D01*
X426833Y124256D02*
X429367Y124256D01*
X429367Y126147D02*
X426833Y126147D01*
X426833Y128038D02*
X429367Y128038D01*
X429367Y129929D02*
X426833Y129929D01*
X426833Y131820D02*
X429367Y131820D01*
X421833Y133617D02*
X421833Y118583D01*
X421833Y133617D02*
X424367Y133617D01*
X424367Y118583D01*
X421833Y118583D01*
X421833Y120474D02*
X424367Y120474D01*
X424367Y122365D02*
X421833Y122365D01*
X421833Y124256D02*
X424367Y124256D01*
X424367Y126147D02*
X421833Y126147D01*
X421833Y128038D02*
X424367Y128038D01*
X424367Y129929D02*
X421833Y129929D01*
X421833Y131820D02*
X424367Y131820D01*
X416833Y133617D02*
X416833Y118583D01*
X416833Y133617D02*
X419367Y133617D01*
X419367Y118583D01*
X416833Y118583D01*
X416833Y120474D02*
X419367Y120474D01*
X419367Y122365D02*
X416833Y122365D01*
X416833Y124256D02*
X419367Y124256D01*
X419367Y126147D02*
X416833Y126147D01*
X416833Y128038D02*
X419367Y128038D01*
X419367Y129929D02*
X416833Y129929D01*
X416833Y131820D02*
X419367Y131820D01*
D20*
X454028Y121028D02*
X454028Y146672D01*
X464172Y146672D01*
X464172Y121028D01*
X454028Y121028D01*
X454028Y124240D02*
X464172Y124240D01*
X464172Y127452D02*
X454028Y127452D01*
X454028Y130664D02*
X464172Y130664D01*
X464172Y133876D02*
X454028Y133876D01*
X454028Y137088D02*
X464172Y137088D01*
X464172Y140300D02*
X454028Y140300D01*
X454028Y143512D02*
X464172Y143512D01*
X247028Y146672D02*
X247028Y121028D01*
X247028Y146672D02*
X257172Y146672D01*
X257172Y121028D01*
X247028Y121028D01*
X247028Y124240D02*
X257172Y124240D01*
X257172Y127452D02*
X247028Y127452D01*
X247028Y130664D02*
X257172Y130664D01*
X257172Y133876D02*
X247028Y133876D01*
X247028Y137088D02*
X257172Y137088D01*
X257172Y140300D02*
X247028Y140300D01*
X247028Y143512D02*
X257172Y143512D01*
D19*
X414333Y194083D02*
X414333Y209117D01*
X416867Y209117D01*
X416867Y194083D01*
X414333Y194083D01*
X414333Y195974D02*
X416867Y195974D01*
X416867Y197865D02*
X414333Y197865D01*
X414333Y199756D02*
X416867Y199756D01*
X416867Y201647D02*
X414333Y201647D01*
X414333Y203538D02*
X416867Y203538D01*
X416867Y205429D02*
X414333Y205429D01*
X414333Y207320D02*
X416867Y207320D01*
X411833Y133617D02*
X411833Y118583D01*
X411833Y133617D02*
X414367Y133617D01*
X414367Y118583D01*
X411833Y118583D01*
X411833Y120474D02*
X414367Y120474D01*
X414367Y122365D02*
X411833Y122365D01*
X411833Y124256D02*
X414367Y124256D01*
X414367Y126147D02*
X411833Y126147D01*
X411833Y128038D02*
X414367Y128038D01*
X414367Y129929D02*
X411833Y129929D01*
X411833Y131820D02*
X414367Y131820D01*
X409333Y194083D02*
X409333Y209117D01*
X411867Y209117D01*
X411867Y194083D01*
X409333Y194083D01*
X409333Y195974D02*
X411867Y195974D01*
X411867Y197865D02*
X409333Y197865D01*
X409333Y199756D02*
X411867Y199756D01*
X411867Y201647D02*
X409333Y201647D01*
X409333Y203538D02*
X411867Y203538D01*
X411867Y205429D02*
X409333Y205429D01*
X409333Y207320D02*
X411867Y207320D01*
X406833Y133617D02*
X406833Y118583D01*
X406833Y133617D02*
X409367Y133617D01*
X409367Y118583D01*
X406833Y118583D01*
X406833Y120474D02*
X409367Y120474D01*
X409367Y122365D02*
X406833Y122365D01*
X406833Y124256D02*
X409367Y124256D01*
X409367Y126147D02*
X406833Y126147D01*
X406833Y128038D02*
X409367Y128038D01*
X409367Y129929D02*
X406833Y129929D01*
X406833Y131820D02*
X409367Y131820D01*
X404333Y194083D02*
X404333Y209117D01*
X406867Y209117D01*
X406867Y194083D01*
X404333Y194083D01*
X404333Y195974D02*
X406867Y195974D01*
X406867Y197865D02*
X404333Y197865D01*
X404333Y199756D02*
X406867Y199756D01*
X406867Y201647D02*
X404333Y201647D01*
X404333Y203538D02*
X406867Y203538D01*
X406867Y205429D02*
X404333Y205429D01*
X404333Y207320D02*
X406867Y207320D01*
X401833Y133617D02*
X401833Y118583D01*
X401833Y133617D02*
X404367Y133617D01*
X404367Y118583D01*
X401833Y118583D01*
X401833Y120474D02*
X404367Y120474D01*
X404367Y122365D02*
X401833Y122365D01*
X401833Y124256D02*
X404367Y124256D01*
X404367Y126147D02*
X401833Y126147D01*
X401833Y128038D02*
X404367Y128038D01*
X404367Y129929D02*
X401833Y129929D01*
X401833Y131820D02*
X404367Y131820D01*
X399333Y194083D02*
X399333Y209117D01*
X401867Y209117D01*
X401867Y194083D01*
X399333Y194083D01*
X399333Y195974D02*
X401867Y195974D01*
X401867Y197865D02*
X399333Y197865D01*
X399333Y199756D02*
X401867Y199756D01*
X401867Y201647D02*
X399333Y201647D01*
X399333Y203538D02*
X401867Y203538D01*
X401867Y205429D02*
X399333Y205429D01*
X399333Y207320D02*
X401867Y207320D01*
X396833Y133617D02*
X396833Y118583D01*
X396833Y133617D02*
X399367Y133617D01*
X399367Y118583D01*
X396833Y118583D01*
X396833Y120474D02*
X399367Y120474D01*
X399367Y122365D02*
X396833Y122365D01*
X396833Y124256D02*
X399367Y124256D01*
X399367Y126147D02*
X396833Y126147D01*
X396833Y128038D02*
X399367Y128038D01*
X399367Y129929D02*
X396833Y129929D01*
X396833Y131820D02*
X399367Y131820D01*
X394333Y194083D02*
X394333Y209117D01*
X396867Y209117D01*
X396867Y194083D01*
X394333Y194083D01*
X394333Y195974D02*
X396867Y195974D01*
X396867Y197865D02*
X394333Y197865D01*
X394333Y199756D02*
X396867Y199756D01*
X396867Y201647D02*
X394333Y201647D01*
X394333Y203538D02*
X396867Y203538D01*
X396867Y205429D02*
X394333Y205429D01*
X394333Y207320D02*
X396867Y207320D01*
X391833Y133617D02*
X391833Y118583D01*
X391833Y133617D02*
X394367Y133617D01*
X394367Y118583D01*
X391833Y118583D01*
X391833Y120474D02*
X394367Y120474D01*
X394367Y122365D02*
X391833Y122365D01*
X391833Y124256D02*
X394367Y124256D01*
X394367Y126147D02*
X391833Y126147D01*
X391833Y128038D02*
X394367Y128038D01*
X394367Y129929D02*
X391833Y129929D01*
X391833Y131820D02*
X394367Y131820D01*
X369333Y194083D02*
X369333Y209117D01*
X371867Y209117D01*
X371867Y194083D01*
X369333Y194083D01*
X369333Y195974D02*
X371867Y195974D01*
X371867Y197865D02*
X369333Y197865D01*
X369333Y199756D02*
X371867Y199756D01*
X371867Y201647D02*
X369333Y201647D01*
X369333Y203538D02*
X371867Y203538D01*
X371867Y205429D02*
X369333Y205429D01*
X369333Y207320D02*
X371867Y207320D01*
X366833Y133617D02*
X366833Y118583D01*
X366833Y133617D02*
X369367Y133617D01*
X369367Y118583D01*
X366833Y118583D01*
X366833Y120474D02*
X369367Y120474D01*
X369367Y122365D02*
X366833Y122365D01*
X366833Y124256D02*
X369367Y124256D01*
X369367Y126147D02*
X366833Y126147D01*
X366833Y128038D02*
X369367Y128038D01*
X369367Y129929D02*
X366833Y129929D01*
X366833Y131820D02*
X369367Y131820D01*
X364333Y194083D02*
X364333Y209117D01*
X366867Y209117D01*
X366867Y194083D01*
X364333Y194083D01*
X364333Y195974D02*
X366867Y195974D01*
X366867Y197865D02*
X364333Y197865D01*
X364333Y199756D02*
X366867Y199756D01*
X366867Y201647D02*
X364333Y201647D01*
X364333Y203538D02*
X366867Y203538D01*
X366867Y205429D02*
X364333Y205429D01*
X364333Y207320D02*
X366867Y207320D01*
X361833Y133617D02*
X361833Y118583D01*
X361833Y133617D02*
X364367Y133617D01*
X364367Y118583D01*
X361833Y118583D01*
X361833Y120474D02*
X364367Y120474D01*
X364367Y122365D02*
X361833Y122365D01*
X361833Y124256D02*
X364367Y124256D01*
X364367Y126147D02*
X361833Y126147D01*
X361833Y128038D02*
X364367Y128038D01*
X364367Y129929D02*
X361833Y129929D01*
X361833Y131820D02*
X364367Y131820D01*
X359333Y194083D02*
X359333Y209117D01*
X361867Y209117D01*
X361867Y194083D01*
X359333Y194083D01*
X359333Y195974D02*
X361867Y195974D01*
X361867Y197865D02*
X359333Y197865D01*
X359333Y199756D02*
X361867Y199756D01*
X361867Y201647D02*
X359333Y201647D01*
X359333Y203538D02*
X361867Y203538D01*
X361867Y205429D02*
X359333Y205429D01*
X359333Y207320D02*
X361867Y207320D01*
X356833Y133617D02*
X356833Y118583D01*
X356833Y133617D02*
X359367Y133617D01*
X359367Y118583D01*
X356833Y118583D01*
X356833Y120474D02*
X359367Y120474D01*
X359367Y122365D02*
X356833Y122365D01*
X356833Y124256D02*
X359367Y124256D01*
X359367Y126147D02*
X356833Y126147D01*
X356833Y128038D02*
X359367Y128038D01*
X359367Y129929D02*
X356833Y129929D01*
X356833Y131820D02*
X359367Y131820D01*
X354333Y194083D02*
X354333Y209117D01*
X356867Y209117D01*
X356867Y194083D01*
X354333Y194083D01*
X354333Y195974D02*
X356867Y195974D01*
X356867Y197865D02*
X354333Y197865D01*
X354333Y199756D02*
X356867Y199756D01*
X356867Y201647D02*
X354333Y201647D01*
X354333Y203538D02*
X356867Y203538D01*
X356867Y205429D02*
X354333Y205429D01*
X354333Y207320D02*
X356867Y207320D01*
X351833Y133617D02*
X351833Y118583D01*
X351833Y133617D02*
X354367Y133617D01*
X354367Y118583D01*
X351833Y118583D01*
X351833Y120474D02*
X354367Y120474D01*
X354367Y122365D02*
X351833Y122365D01*
X351833Y124256D02*
X354367Y124256D01*
X354367Y126147D02*
X351833Y126147D01*
X351833Y128038D02*
X354367Y128038D01*
X354367Y129929D02*
X351833Y129929D01*
X351833Y131820D02*
X354367Y131820D01*
X349333Y194083D02*
X349333Y209117D01*
X351867Y209117D01*
X351867Y194083D01*
X349333Y194083D01*
X349333Y195974D02*
X351867Y195974D01*
X351867Y197865D02*
X349333Y197865D01*
X349333Y199756D02*
X351867Y199756D01*
X351867Y201647D02*
X349333Y201647D01*
X349333Y203538D02*
X351867Y203538D01*
X351867Y205429D02*
X349333Y205429D01*
X349333Y207320D02*
X351867Y207320D01*
X346833Y133617D02*
X346833Y118583D01*
X346833Y133617D02*
X349367Y133617D01*
X349367Y118583D01*
X346833Y118583D01*
X346833Y120474D02*
X349367Y120474D01*
X349367Y122365D02*
X346833Y122365D01*
X346833Y124256D02*
X349367Y124256D01*
X349367Y126147D02*
X346833Y126147D01*
X346833Y128038D02*
X349367Y128038D01*
X349367Y129929D02*
X346833Y129929D01*
X346833Y131820D02*
X349367Y131820D01*
X344333Y194083D02*
X344333Y209117D01*
X346867Y209117D01*
X346867Y194083D01*
X344333Y194083D01*
X344333Y195974D02*
X346867Y195974D01*
X346867Y197865D02*
X344333Y197865D01*
X344333Y199756D02*
X346867Y199756D01*
X346867Y201647D02*
X344333Y201647D01*
X344333Y203538D02*
X346867Y203538D01*
X346867Y205429D02*
X344333Y205429D01*
X344333Y207320D02*
X346867Y207320D01*
X341833Y133617D02*
X341833Y118583D01*
X341833Y133617D02*
X344367Y133617D01*
X344367Y118583D01*
X341833Y118583D01*
X341833Y120474D02*
X344367Y120474D01*
X344367Y122365D02*
X341833Y122365D01*
X341833Y124256D02*
X344367Y124256D01*
X344367Y126147D02*
X341833Y126147D01*
X341833Y128038D02*
X344367Y128038D01*
X344367Y129929D02*
X341833Y129929D01*
X341833Y131820D02*
X344367Y131820D01*
X339333Y194083D02*
X339333Y209117D01*
X341867Y209117D01*
X341867Y194083D01*
X339333Y194083D01*
X339333Y195974D02*
X341867Y195974D01*
X341867Y197865D02*
X339333Y197865D01*
X339333Y199756D02*
X341867Y199756D01*
X341867Y201647D02*
X339333Y201647D01*
X339333Y203538D02*
X341867Y203538D01*
X341867Y205429D02*
X339333Y205429D01*
X339333Y207320D02*
X341867Y207320D01*
X336833Y133617D02*
X336833Y118583D01*
X336833Y133617D02*
X339367Y133617D01*
X339367Y118583D01*
X336833Y118583D01*
X336833Y120474D02*
X339367Y120474D01*
X339367Y122365D02*
X336833Y122365D01*
X336833Y124256D02*
X339367Y124256D01*
X339367Y126147D02*
X336833Y126147D01*
X336833Y128038D02*
X339367Y128038D01*
X339367Y129929D02*
X336833Y129929D01*
X336833Y131820D02*
X339367Y131820D01*
X334333Y194083D02*
X334333Y209117D01*
X336867Y209117D01*
X336867Y194083D01*
X334333Y194083D01*
X334333Y195974D02*
X336867Y195974D01*
X336867Y197865D02*
X334333Y197865D01*
X334333Y199756D02*
X336867Y199756D01*
X336867Y201647D02*
X334333Y201647D01*
X334333Y203538D02*
X336867Y203538D01*
X336867Y205429D02*
X334333Y205429D01*
X334333Y207320D02*
X336867Y207320D01*
X331833Y133617D02*
X331833Y118583D01*
X331833Y133617D02*
X334367Y133617D01*
X334367Y118583D01*
X331833Y118583D01*
X331833Y120474D02*
X334367Y120474D01*
X334367Y122365D02*
X331833Y122365D01*
X331833Y124256D02*
X334367Y124256D01*
X334367Y126147D02*
X331833Y126147D01*
X331833Y128038D02*
X334367Y128038D01*
X334367Y129929D02*
X331833Y129929D01*
X331833Y131820D02*
X334367Y131820D01*
X329333Y194083D02*
X329333Y209117D01*
X331867Y209117D01*
X331867Y194083D01*
X329333Y194083D01*
X329333Y195974D02*
X331867Y195974D01*
X331867Y197865D02*
X329333Y197865D01*
X329333Y199756D02*
X331867Y199756D01*
X331867Y201647D02*
X329333Y201647D01*
X329333Y203538D02*
X331867Y203538D01*
X331867Y205429D02*
X329333Y205429D01*
X329333Y207320D02*
X331867Y207320D01*
X326833Y133617D02*
X326833Y118583D01*
X326833Y133617D02*
X329367Y133617D01*
X329367Y118583D01*
X326833Y118583D01*
X326833Y120474D02*
X329367Y120474D01*
X329367Y122365D02*
X326833Y122365D01*
X326833Y124256D02*
X329367Y124256D01*
X329367Y126147D02*
X326833Y126147D01*
X326833Y128038D02*
X329367Y128038D01*
X329367Y129929D02*
X326833Y129929D01*
X326833Y131820D02*
X329367Y131820D01*
X324333Y194083D02*
X324333Y209117D01*
X326867Y209117D01*
X326867Y194083D01*
X324333Y194083D01*
X324333Y195974D02*
X326867Y195974D01*
X326867Y197865D02*
X324333Y197865D01*
X324333Y199756D02*
X326867Y199756D01*
X326867Y201647D02*
X324333Y201647D01*
X324333Y203538D02*
X326867Y203538D01*
X326867Y205429D02*
X324333Y205429D01*
X324333Y207320D02*
X326867Y207320D01*
X321833Y133617D02*
X321833Y118583D01*
X321833Y133617D02*
X324367Y133617D01*
X324367Y118583D01*
X321833Y118583D01*
X321833Y120474D02*
X324367Y120474D01*
X324367Y122365D02*
X321833Y122365D01*
X321833Y124256D02*
X324367Y124256D01*
X324367Y126147D02*
X321833Y126147D01*
X321833Y128038D02*
X324367Y128038D01*
X324367Y129929D02*
X321833Y129929D01*
X321833Y131820D02*
X324367Y131820D01*
X319333Y194083D02*
X319333Y209117D01*
X321867Y209117D01*
X321867Y194083D01*
X319333Y194083D01*
X319333Y195974D02*
X321867Y195974D01*
X321867Y197865D02*
X319333Y197865D01*
X319333Y199756D02*
X321867Y199756D01*
X321867Y201647D02*
X319333Y201647D01*
X319333Y203538D02*
X321867Y203538D01*
X321867Y205429D02*
X319333Y205429D01*
X319333Y207320D02*
X321867Y207320D01*
X316833Y133617D02*
X316833Y118583D01*
X316833Y133617D02*
X319367Y133617D01*
X319367Y118583D01*
X316833Y118583D01*
X316833Y120474D02*
X319367Y120474D01*
X319367Y122365D02*
X316833Y122365D01*
X316833Y124256D02*
X319367Y124256D01*
X319367Y126147D02*
X316833Y126147D01*
X316833Y128038D02*
X319367Y128038D01*
X319367Y129929D02*
X316833Y129929D01*
X316833Y131820D02*
X319367Y131820D01*
X314333Y194083D02*
X314333Y209117D01*
X316867Y209117D01*
X316867Y194083D01*
X314333Y194083D01*
X314333Y195974D02*
X316867Y195974D01*
X316867Y197865D02*
X314333Y197865D01*
X314333Y199756D02*
X316867Y199756D01*
X316867Y201647D02*
X314333Y201647D01*
X314333Y203538D02*
X316867Y203538D01*
X316867Y205429D02*
X314333Y205429D01*
X314333Y207320D02*
X316867Y207320D01*
X311833Y133617D02*
X311833Y118583D01*
X311833Y133617D02*
X314367Y133617D01*
X314367Y118583D01*
X311833Y118583D01*
X311833Y120474D02*
X314367Y120474D01*
X314367Y122365D02*
X311833Y122365D01*
X311833Y124256D02*
X314367Y124256D01*
X314367Y126147D02*
X311833Y126147D01*
X311833Y128038D02*
X314367Y128038D01*
X314367Y129929D02*
X311833Y129929D01*
X311833Y131820D02*
X314367Y131820D01*
X309333Y194083D02*
X309333Y209117D01*
X311867Y209117D01*
X311867Y194083D01*
X309333Y194083D01*
X309333Y195974D02*
X311867Y195974D01*
X311867Y197865D02*
X309333Y197865D01*
X309333Y199756D02*
X311867Y199756D01*
X311867Y201647D02*
X309333Y201647D01*
X309333Y203538D02*
X311867Y203538D01*
X311867Y205429D02*
X309333Y205429D01*
X309333Y207320D02*
X311867Y207320D01*
X306833Y133617D02*
X306833Y118583D01*
X306833Y133617D02*
X309367Y133617D01*
X309367Y118583D01*
X306833Y118583D01*
X306833Y120474D02*
X309367Y120474D01*
X309367Y122365D02*
X306833Y122365D01*
X306833Y124256D02*
X309367Y124256D01*
X309367Y126147D02*
X306833Y126147D01*
X306833Y128038D02*
X309367Y128038D01*
X309367Y129929D02*
X306833Y129929D01*
X306833Y131820D02*
X309367Y131820D01*
X304333Y194083D02*
X304333Y209117D01*
X306867Y209117D01*
X306867Y194083D01*
X304333Y194083D01*
X304333Y195974D02*
X306867Y195974D01*
X306867Y197865D02*
X304333Y197865D01*
X304333Y199756D02*
X306867Y199756D01*
X306867Y201647D02*
X304333Y201647D01*
X304333Y203538D02*
X306867Y203538D01*
X306867Y205429D02*
X304333Y205429D01*
X304333Y207320D02*
X306867Y207320D01*
X301833Y133617D02*
X301833Y118583D01*
X301833Y133617D02*
X304367Y133617D01*
X304367Y118583D01*
X301833Y118583D01*
X301833Y120474D02*
X304367Y120474D01*
X304367Y122365D02*
X301833Y122365D01*
X301833Y124256D02*
X304367Y124256D01*
X304367Y126147D02*
X301833Y126147D01*
X301833Y128038D02*
X304367Y128038D01*
X304367Y129929D02*
X301833Y129929D01*
X301833Y131820D02*
X304367Y131820D01*
X299333Y194083D02*
X299333Y209117D01*
X301867Y209117D01*
X301867Y194083D01*
X299333Y194083D01*
X299333Y195974D02*
X301867Y195974D01*
X301867Y197865D02*
X299333Y197865D01*
X299333Y199756D02*
X301867Y199756D01*
X301867Y201647D02*
X299333Y201647D01*
X299333Y203538D02*
X301867Y203538D01*
X301867Y205429D02*
X299333Y205429D01*
X299333Y207320D02*
X301867Y207320D01*
X296833Y133617D02*
X296833Y118583D01*
X296833Y133617D02*
X299367Y133617D01*
X299367Y118583D01*
X296833Y118583D01*
X296833Y120474D02*
X299367Y120474D01*
X299367Y122365D02*
X296833Y122365D01*
X296833Y124256D02*
X299367Y124256D01*
X299367Y126147D02*
X296833Y126147D01*
X296833Y128038D02*
X299367Y128038D01*
X299367Y129929D02*
X296833Y129929D01*
X296833Y131820D02*
X299367Y131820D01*
X294333Y194083D02*
X294333Y209117D01*
X296867Y209117D01*
X296867Y194083D01*
X294333Y194083D01*
X294333Y195974D02*
X296867Y195974D01*
X296867Y197865D02*
X294333Y197865D01*
X294333Y199756D02*
X296867Y199756D01*
X296867Y201647D02*
X294333Y201647D01*
X294333Y203538D02*
X296867Y203538D01*
X296867Y205429D02*
X294333Y205429D01*
X294333Y207320D02*
X296867Y207320D01*
X291833Y133617D02*
X291833Y118583D01*
X291833Y133617D02*
X294367Y133617D01*
X294367Y118583D01*
X291833Y118583D01*
X291833Y120474D02*
X294367Y120474D01*
X294367Y122365D02*
X291833Y122365D01*
X291833Y124256D02*
X294367Y124256D01*
X294367Y126147D02*
X291833Y126147D01*
X291833Y128038D02*
X294367Y128038D01*
X294367Y129929D02*
X291833Y129929D01*
X291833Y131820D02*
X294367Y131820D01*
X289333Y194083D02*
X289333Y209117D01*
X291867Y209117D01*
X291867Y194083D01*
X289333Y194083D01*
X289333Y195974D02*
X291867Y195974D01*
X291867Y197865D02*
X289333Y197865D01*
X289333Y199756D02*
X291867Y199756D01*
X291867Y201647D02*
X289333Y201647D01*
X289333Y203538D02*
X291867Y203538D01*
X291867Y205429D02*
X289333Y205429D01*
X289333Y207320D02*
X291867Y207320D01*
X286833Y133617D02*
X286833Y118583D01*
X286833Y133617D02*
X289367Y133617D01*
X289367Y118583D01*
X286833Y118583D01*
X286833Y120474D02*
X289367Y120474D01*
X289367Y122365D02*
X286833Y122365D01*
X286833Y124256D02*
X289367Y124256D01*
X289367Y126147D02*
X286833Y126147D01*
X286833Y128038D02*
X289367Y128038D01*
X289367Y129929D02*
X286833Y129929D01*
X286833Y131820D02*
X289367Y131820D01*
X284333Y194083D02*
X284333Y209117D01*
X286867Y209117D01*
X286867Y194083D01*
X284333Y194083D01*
X284333Y195974D02*
X286867Y195974D01*
X286867Y197865D02*
X284333Y197865D01*
X284333Y199756D02*
X286867Y199756D01*
X286867Y201647D02*
X284333Y201647D01*
X284333Y203538D02*
X286867Y203538D01*
X286867Y205429D02*
X284333Y205429D01*
X284333Y207320D02*
X286867Y207320D01*
X281833Y133617D02*
X281833Y118583D01*
X281833Y133617D02*
X284367Y133617D01*
X284367Y118583D01*
X281833Y118583D01*
X281833Y120474D02*
X284367Y120474D01*
X284367Y122365D02*
X281833Y122365D01*
X281833Y124256D02*
X284367Y124256D01*
X284367Y126147D02*
X281833Y126147D01*
X281833Y128038D02*
X284367Y128038D01*
X284367Y129929D02*
X281833Y129929D01*
X281833Y131820D02*
X284367Y131820D01*
X279333Y194083D02*
X279333Y209117D01*
X281867Y209117D01*
X281867Y194083D01*
X279333Y194083D01*
X279333Y195974D02*
X281867Y195974D01*
X281867Y197865D02*
X279333Y197865D01*
X279333Y199756D02*
X281867Y199756D01*
X281867Y201647D02*
X279333Y201647D01*
X279333Y203538D02*
X281867Y203538D01*
X281867Y205429D02*
X279333Y205429D01*
X279333Y207320D02*
X281867Y207320D01*
X276833Y133617D02*
X276833Y118583D01*
X276833Y133617D02*
X279367Y133617D01*
X279367Y118583D01*
X276833Y118583D01*
X276833Y120474D02*
X279367Y120474D01*
X279367Y122365D02*
X276833Y122365D01*
X276833Y124256D02*
X279367Y124256D01*
X279367Y126147D02*
X276833Y126147D01*
X276833Y128038D02*
X279367Y128038D01*
X279367Y129929D02*
X276833Y129929D01*
X276833Y131820D02*
X279367Y131820D01*
X274333Y194083D02*
X274333Y209117D01*
X276867Y209117D01*
X276867Y194083D01*
X274333Y194083D01*
X274333Y195974D02*
X276867Y195974D01*
X276867Y197865D02*
X274333Y197865D01*
X274333Y199756D02*
X276867Y199756D01*
X276867Y201647D02*
X274333Y201647D01*
X274333Y203538D02*
X276867Y203538D01*
X276867Y205429D02*
X274333Y205429D01*
X274333Y207320D02*
X276867Y207320D01*
X271833Y133617D02*
X271833Y118583D01*
X271833Y133617D02*
X274367Y133617D01*
X274367Y118583D01*
X271833Y118583D01*
X271833Y120474D02*
X274367Y120474D01*
X274367Y122365D02*
X271833Y122365D01*
X271833Y124256D02*
X274367Y124256D01*
X274367Y126147D02*
X271833Y126147D01*
X271833Y128038D02*
X274367Y128038D01*
X274367Y129929D02*
X271833Y129929D01*
X271833Y131820D02*
X274367Y131820D01*
X269333Y194083D02*
X269333Y209117D01*
X271867Y209117D01*
X271867Y194083D01*
X269333Y194083D01*
X269333Y195974D02*
X271867Y195974D01*
X271867Y197865D02*
X269333Y197865D01*
X269333Y199756D02*
X271867Y199756D01*
X271867Y201647D02*
X269333Y201647D01*
X269333Y203538D02*
X271867Y203538D01*
X271867Y205429D02*
X269333Y205429D01*
X269333Y207320D02*
X271867Y207320D01*
X266833Y133617D02*
X266833Y118583D01*
X266833Y133617D02*
X269367Y133617D01*
X269367Y118583D01*
X266833Y118583D01*
X266833Y120474D02*
X269367Y120474D01*
X269367Y122365D02*
X266833Y122365D01*
X266833Y124256D02*
X269367Y124256D01*
X269367Y126147D02*
X266833Y126147D01*
X266833Y128038D02*
X269367Y128038D01*
X269367Y129929D02*
X266833Y129929D01*
X266833Y131820D02*
X269367Y131820D01*
X264333Y194083D02*
X264333Y209117D01*
X266867Y209117D01*
X266867Y194083D01*
X264333Y194083D01*
X264333Y195974D02*
X266867Y195974D01*
X266867Y197865D02*
X264333Y197865D01*
X264333Y199756D02*
X266867Y199756D01*
X266867Y201647D02*
X264333Y201647D01*
X264333Y203538D02*
X266867Y203538D01*
X266867Y205429D02*
X264333Y205429D01*
X264333Y207320D02*
X266867Y207320D01*
X261833Y133617D02*
X261833Y118583D01*
X261833Y133617D02*
X264367Y133617D01*
X264367Y118583D01*
X261833Y118583D01*
X261833Y120474D02*
X264367Y120474D01*
X264367Y122365D02*
X261833Y122365D01*
X261833Y124256D02*
X264367Y124256D01*
X264367Y126147D02*
X261833Y126147D01*
X261833Y128038D02*
X264367Y128038D01*
X264367Y129929D02*
X261833Y129929D01*
X261833Y131820D02*
X264367Y131820D01*
D15*
X194700Y139700D03*
X211700Y139700D03*
X194700Y165100D03*
X211700Y165100D03*
X194700Y114300D03*
X211700Y114300D03*
X194700Y88900D03*
X211700Y88900D03*
X194700Y190500D03*
X211700Y190500D03*
D21*
X355600Y515112D03*
M02*
