G04 EAGLE Gerber RS-274X export*
G75*
%MOMM*%
%FSLAX34Y34*%
%LPD*%
%INSolderpaste Top*%
%IPPOS*%
%AMOC8*
5,1,8,0,0,1.08239X$1,22.5*%
G01*
%ADD10R,0.800000X0.800000*%
%ADD11R,1.000000X1.100000*%
%ADD12R,1.100000X1.000000*%
%ADD13R,1.524000X0.762000*%
%ADD14C,0.045000*%
%ADD15C,0.180000*%


D10*
X236100Y635000D03*
X221100Y635000D03*
X337700Y635000D03*
X322700Y635000D03*
D11*
X228600Y575700D03*
X228600Y592700D03*
X330200Y575700D03*
X330200Y592700D03*
D12*
X194700Y215900D03*
X211700Y215900D03*
D11*
X482600Y220100D03*
X482600Y237100D03*
X482600Y110118D03*
X482600Y127118D03*
X508000Y110118D03*
X508000Y127118D03*
X508000Y220100D03*
X508000Y237100D03*
D13*
X99060Y349250D03*
X43180Y349250D03*
X99060Y387350D03*
X43180Y387350D03*
X99314Y273050D03*
X43434Y273050D03*
X99314Y311150D03*
X43434Y311150D03*
X99314Y196850D03*
X43434Y196850D03*
X99314Y234950D03*
X43434Y234950D03*
D12*
X131200Y311150D03*
X148200Y311150D03*
X131200Y234950D03*
X148200Y234950D03*
X131454Y387350D03*
X148454Y387350D03*
D14*
X419325Y209125D02*
X419325Y194075D01*
X419325Y209125D02*
X421875Y209125D01*
X421875Y194075D01*
X419325Y194075D01*
X419325Y194502D02*
X421875Y194502D01*
X421875Y194929D02*
X419325Y194929D01*
X419325Y195356D02*
X421875Y195356D01*
X421875Y195783D02*
X419325Y195783D01*
X419325Y196210D02*
X421875Y196210D01*
X421875Y196637D02*
X419325Y196637D01*
X419325Y197064D02*
X421875Y197064D01*
X421875Y197491D02*
X419325Y197491D01*
X419325Y197918D02*
X421875Y197918D01*
X421875Y198345D02*
X419325Y198345D01*
X419325Y198772D02*
X421875Y198772D01*
X421875Y199199D02*
X419325Y199199D01*
X419325Y199626D02*
X421875Y199626D01*
X421875Y200053D02*
X419325Y200053D01*
X419325Y200480D02*
X421875Y200480D01*
X421875Y200907D02*
X419325Y200907D01*
X419325Y201334D02*
X421875Y201334D01*
X421875Y201761D02*
X419325Y201761D01*
X419325Y202188D02*
X421875Y202188D01*
X421875Y202615D02*
X419325Y202615D01*
X419325Y203042D02*
X421875Y203042D01*
X421875Y203469D02*
X419325Y203469D01*
X419325Y203896D02*
X421875Y203896D01*
X421875Y204323D02*
X419325Y204323D01*
X419325Y204750D02*
X421875Y204750D01*
X421875Y205177D02*
X419325Y205177D01*
X419325Y205604D02*
X421875Y205604D01*
X421875Y206031D02*
X419325Y206031D01*
X419325Y206458D02*
X421875Y206458D01*
X421875Y206885D02*
X419325Y206885D01*
X419325Y207312D02*
X421875Y207312D01*
X421875Y207739D02*
X419325Y207739D01*
X419325Y208166D02*
X421875Y208166D01*
X421875Y208593D02*
X419325Y208593D01*
X419325Y209020D02*
X421875Y209020D01*
X424325Y209125D02*
X424325Y194075D01*
X424325Y209125D02*
X426875Y209125D01*
X426875Y194075D01*
X424325Y194075D01*
X424325Y194502D02*
X426875Y194502D01*
X426875Y194929D02*
X424325Y194929D01*
X424325Y195356D02*
X426875Y195356D01*
X426875Y195783D02*
X424325Y195783D01*
X424325Y196210D02*
X426875Y196210D01*
X426875Y196637D02*
X424325Y196637D01*
X424325Y197064D02*
X426875Y197064D01*
X426875Y197491D02*
X424325Y197491D01*
X424325Y197918D02*
X426875Y197918D01*
X426875Y198345D02*
X424325Y198345D01*
X424325Y198772D02*
X426875Y198772D01*
X426875Y199199D02*
X424325Y199199D01*
X424325Y199626D02*
X426875Y199626D01*
X426875Y200053D02*
X424325Y200053D01*
X424325Y200480D02*
X426875Y200480D01*
X426875Y200907D02*
X424325Y200907D01*
X424325Y201334D02*
X426875Y201334D01*
X426875Y201761D02*
X424325Y201761D01*
X424325Y202188D02*
X426875Y202188D01*
X426875Y202615D02*
X424325Y202615D01*
X424325Y203042D02*
X426875Y203042D01*
X426875Y203469D02*
X424325Y203469D01*
X424325Y203896D02*
X426875Y203896D01*
X426875Y204323D02*
X424325Y204323D01*
X424325Y204750D02*
X426875Y204750D01*
X426875Y205177D02*
X424325Y205177D01*
X424325Y205604D02*
X426875Y205604D01*
X426875Y206031D02*
X424325Y206031D01*
X424325Y206458D02*
X426875Y206458D01*
X426875Y206885D02*
X424325Y206885D01*
X424325Y207312D02*
X426875Y207312D01*
X426875Y207739D02*
X424325Y207739D01*
X424325Y208166D02*
X426875Y208166D01*
X426875Y208593D02*
X424325Y208593D01*
X424325Y209020D02*
X426875Y209020D01*
X429325Y209125D02*
X429325Y194075D01*
X429325Y209125D02*
X431875Y209125D01*
X431875Y194075D01*
X429325Y194075D01*
X429325Y194502D02*
X431875Y194502D01*
X431875Y194929D02*
X429325Y194929D01*
X429325Y195356D02*
X431875Y195356D01*
X431875Y195783D02*
X429325Y195783D01*
X429325Y196210D02*
X431875Y196210D01*
X431875Y196637D02*
X429325Y196637D01*
X429325Y197064D02*
X431875Y197064D01*
X431875Y197491D02*
X429325Y197491D01*
X429325Y197918D02*
X431875Y197918D01*
X431875Y198345D02*
X429325Y198345D01*
X429325Y198772D02*
X431875Y198772D01*
X431875Y199199D02*
X429325Y199199D01*
X429325Y199626D02*
X431875Y199626D01*
X431875Y200053D02*
X429325Y200053D01*
X429325Y200480D02*
X431875Y200480D01*
X431875Y200907D02*
X429325Y200907D01*
X429325Y201334D02*
X431875Y201334D01*
X431875Y201761D02*
X429325Y201761D01*
X429325Y202188D02*
X431875Y202188D01*
X431875Y202615D02*
X429325Y202615D01*
X429325Y203042D02*
X431875Y203042D01*
X431875Y203469D02*
X429325Y203469D01*
X429325Y203896D02*
X431875Y203896D01*
X431875Y204323D02*
X429325Y204323D01*
X429325Y204750D02*
X431875Y204750D01*
X431875Y205177D02*
X429325Y205177D01*
X429325Y205604D02*
X431875Y205604D01*
X431875Y206031D02*
X429325Y206031D01*
X429325Y206458D02*
X431875Y206458D01*
X431875Y206885D02*
X429325Y206885D01*
X429325Y207312D02*
X431875Y207312D01*
X431875Y207739D02*
X429325Y207739D01*
X429325Y208166D02*
X431875Y208166D01*
X431875Y208593D02*
X429325Y208593D01*
X429325Y209020D02*
X431875Y209020D01*
X434325Y209125D02*
X434325Y194075D01*
X434325Y209125D02*
X436875Y209125D01*
X436875Y194075D01*
X434325Y194075D01*
X434325Y194502D02*
X436875Y194502D01*
X436875Y194929D02*
X434325Y194929D01*
X434325Y195356D02*
X436875Y195356D01*
X436875Y195783D02*
X434325Y195783D01*
X434325Y196210D02*
X436875Y196210D01*
X436875Y196637D02*
X434325Y196637D01*
X434325Y197064D02*
X436875Y197064D01*
X436875Y197491D02*
X434325Y197491D01*
X434325Y197918D02*
X436875Y197918D01*
X436875Y198345D02*
X434325Y198345D01*
X434325Y198772D02*
X436875Y198772D01*
X436875Y199199D02*
X434325Y199199D01*
X434325Y199626D02*
X436875Y199626D01*
X436875Y200053D02*
X434325Y200053D01*
X434325Y200480D02*
X436875Y200480D01*
X436875Y200907D02*
X434325Y200907D01*
X434325Y201334D02*
X436875Y201334D01*
X436875Y201761D02*
X434325Y201761D01*
X434325Y202188D02*
X436875Y202188D01*
X436875Y202615D02*
X434325Y202615D01*
X434325Y203042D02*
X436875Y203042D01*
X436875Y203469D02*
X434325Y203469D01*
X434325Y203896D02*
X436875Y203896D01*
X436875Y204323D02*
X434325Y204323D01*
X434325Y204750D02*
X436875Y204750D01*
X436875Y205177D02*
X434325Y205177D01*
X434325Y205604D02*
X436875Y205604D01*
X436875Y206031D02*
X434325Y206031D01*
X434325Y206458D02*
X436875Y206458D01*
X436875Y206885D02*
X434325Y206885D01*
X434325Y207312D02*
X436875Y207312D01*
X436875Y207739D02*
X434325Y207739D01*
X434325Y208166D02*
X436875Y208166D01*
X436875Y208593D02*
X434325Y208593D01*
X434325Y209020D02*
X436875Y209020D01*
X439325Y209125D02*
X439325Y194075D01*
X439325Y209125D02*
X441875Y209125D01*
X441875Y194075D01*
X439325Y194075D01*
X439325Y194502D02*
X441875Y194502D01*
X441875Y194929D02*
X439325Y194929D01*
X439325Y195356D02*
X441875Y195356D01*
X441875Y195783D02*
X439325Y195783D01*
X439325Y196210D02*
X441875Y196210D01*
X441875Y196637D02*
X439325Y196637D01*
X439325Y197064D02*
X441875Y197064D01*
X441875Y197491D02*
X439325Y197491D01*
X439325Y197918D02*
X441875Y197918D01*
X441875Y198345D02*
X439325Y198345D01*
X439325Y198772D02*
X441875Y198772D01*
X441875Y199199D02*
X439325Y199199D01*
X439325Y199626D02*
X441875Y199626D01*
X441875Y200053D02*
X439325Y200053D01*
X439325Y200480D02*
X441875Y200480D01*
X441875Y200907D02*
X439325Y200907D01*
X439325Y201334D02*
X441875Y201334D01*
X441875Y201761D02*
X439325Y201761D01*
X439325Y202188D02*
X441875Y202188D01*
X441875Y202615D02*
X439325Y202615D01*
X439325Y203042D02*
X441875Y203042D01*
X441875Y203469D02*
X439325Y203469D01*
X439325Y203896D02*
X441875Y203896D01*
X441875Y204323D02*
X439325Y204323D01*
X439325Y204750D02*
X441875Y204750D01*
X441875Y205177D02*
X439325Y205177D01*
X439325Y205604D02*
X441875Y205604D01*
X441875Y206031D02*
X439325Y206031D01*
X439325Y206458D02*
X441875Y206458D01*
X441875Y206885D02*
X439325Y206885D01*
X439325Y207312D02*
X441875Y207312D01*
X441875Y207739D02*
X439325Y207739D01*
X439325Y208166D02*
X441875Y208166D01*
X441875Y208593D02*
X439325Y208593D01*
X439325Y209020D02*
X441875Y209020D01*
X444325Y209125D02*
X444325Y194075D01*
X444325Y209125D02*
X446875Y209125D01*
X446875Y194075D01*
X444325Y194075D01*
X444325Y194502D02*
X446875Y194502D01*
X446875Y194929D02*
X444325Y194929D01*
X444325Y195356D02*
X446875Y195356D01*
X446875Y195783D02*
X444325Y195783D01*
X444325Y196210D02*
X446875Y196210D01*
X446875Y196637D02*
X444325Y196637D01*
X444325Y197064D02*
X446875Y197064D01*
X446875Y197491D02*
X444325Y197491D01*
X444325Y197918D02*
X446875Y197918D01*
X446875Y198345D02*
X444325Y198345D01*
X444325Y198772D02*
X446875Y198772D01*
X446875Y199199D02*
X444325Y199199D01*
X444325Y199626D02*
X446875Y199626D01*
X446875Y200053D02*
X444325Y200053D01*
X444325Y200480D02*
X446875Y200480D01*
X446875Y200907D02*
X444325Y200907D01*
X444325Y201334D02*
X446875Y201334D01*
X446875Y201761D02*
X444325Y201761D01*
X444325Y202188D02*
X446875Y202188D01*
X446875Y202615D02*
X444325Y202615D01*
X444325Y203042D02*
X446875Y203042D01*
X446875Y203469D02*
X444325Y203469D01*
X444325Y203896D02*
X446875Y203896D01*
X446875Y204323D02*
X444325Y204323D01*
X444325Y204750D02*
X446875Y204750D01*
X446875Y205177D02*
X444325Y205177D01*
X444325Y205604D02*
X446875Y205604D01*
X446875Y206031D02*
X444325Y206031D01*
X444325Y206458D02*
X446875Y206458D01*
X446875Y206885D02*
X444325Y206885D01*
X444325Y207312D02*
X446875Y207312D01*
X446875Y207739D02*
X444325Y207739D01*
X444325Y208166D02*
X446875Y208166D01*
X446875Y208593D02*
X444325Y208593D01*
X444325Y209020D02*
X446875Y209020D01*
X446825Y133625D02*
X446825Y118575D01*
X446825Y133625D02*
X449375Y133625D01*
X449375Y118575D01*
X446825Y118575D01*
X446825Y119002D02*
X449375Y119002D01*
X449375Y119429D02*
X446825Y119429D01*
X446825Y119856D02*
X449375Y119856D01*
X449375Y120283D02*
X446825Y120283D01*
X446825Y120710D02*
X449375Y120710D01*
X449375Y121137D02*
X446825Y121137D01*
X446825Y121564D02*
X449375Y121564D01*
X449375Y121991D02*
X446825Y121991D01*
X446825Y122418D02*
X449375Y122418D01*
X449375Y122845D02*
X446825Y122845D01*
X446825Y123272D02*
X449375Y123272D01*
X449375Y123699D02*
X446825Y123699D01*
X446825Y124126D02*
X449375Y124126D01*
X449375Y124553D02*
X446825Y124553D01*
X446825Y124980D02*
X449375Y124980D01*
X449375Y125407D02*
X446825Y125407D01*
X446825Y125834D02*
X449375Y125834D01*
X449375Y126261D02*
X446825Y126261D01*
X446825Y126688D02*
X449375Y126688D01*
X449375Y127115D02*
X446825Y127115D01*
X446825Y127542D02*
X449375Y127542D01*
X449375Y127969D02*
X446825Y127969D01*
X446825Y128396D02*
X449375Y128396D01*
X449375Y128823D02*
X446825Y128823D01*
X446825Y129250D02*
X449375Y129250D01*
X449375Y129677D02*
X446825Y129677D01*
X446825Y130104D02*
X449375Y130104D01*
X449375Y130531D02*
X446825Y130531D01*
X446825Y130958D02*
X449375Y130958D01*
X449375Y131385D02*
X446825Y131385D01*
X446825Y131812D02*
X449375Y131812D01*
X449375Y132239D02*
X446825Y132239D01*
X446825Y132666D02*
X449375Y132666D01*
X449375Y133093D02*
X446825Y133093D01*
X446825Y133520D02*
X449375Y133520D01*
X441825Y133625D02*
X441825Y118575D01*
X441825Y133625D02*
X444375Y133625D01*
X444375Y118575D01*
X441825Y118575D01*
X441825Y119002D02*
X444375Y119002D01*
X444375Y119429D02*
X441825Y119429D01*
X441825Y119856D02*
X444375Y119856D01*
X444375Y120283D02*
X441825Y120283D01*
X441825Y120710D02*
X444375Y120710D01*
X444375Y121137D02*
X441825Y121137D01*
X441825Y121564D02*
X444375Y121564D01*
X444375Y121991D02*
X441825Y121991D01*
X441825Y122418D02*
X444375Y122418D01*
X444375Y122845D02*
X441825Y122845D01*
X441825Y123272D02*
X444375Y123272D01*
X444375Y123699D02*
X441825Y123699D01*
X441825Y124126D02*
X444375Y124126D01*
X444375Y124553D02*
X441825Y124553D01*
X441825Y124980D02*
X444375Y124980D01*
X444375Y125407D02*
X441825Y125407D01*
X441825Y125834D02*
X444375Y125834D01*
X444375Y126261D02*
X441825Y126261D01*
X441825Y126688D02*
X444375Y126688D01*
X444375Y127115D02*
X441825Y127115D01*
X441825Y127542D02*
X444375Y127542D01*
X444375Y127969D02*
X441825Y127969D01*
X441825Y128396D02*
X444375Y128396D01*
X444375Y128823D02*
X441825Y128823D01*
X441825Y129250D02*
X444375Y129250D01*
X444375Y129677D02*
X441825Y129677D01*
X441825Y130104D02*
X444375Y130104D01*
X444375Y130531D02*
X441825Y130531D01*
X441825Y130958D02*
X444375Y130958D01*
X444375Y131385D02*
X441825Y131385D01*
X441825Y131812D02*
X444375Y131812D01*
X444375Y132239D02*
X441825Y132239D01*
X441825Y132666D02*
X444375Y132666D01*
X444375Y133093D02*
X441825Y133093D01*
X441825Y133520D02*
X444375Y133520D01*
X436825Y133625D02*
X436825Y118575D01*
X436825Y133625D02*
X439375Y133625D01*
X439375Y118575D01*
X436825Y118575D01*
X436825Y119002D02*
X439375Y119002D01*
X439375Y119429D02*
X436825Y119429D01*
X436825Y119856D02*
X439375Y119856D01*
X439375Y120283D02*
X436825Y120283D01*
X436825Y120710D02*
X439375Y120710D01*
X439375Y121137D02*
X436825Y121137D01*
X436825Y121564D02*
X439375Y121564D01*
X439375Y121991D02*
X436825Y121991D01*
X436825Y122418D02*
X439375Y122418D01*
X439375Y122845D02*
X436825Y122845D01*
X436825Y123272D02*
X439375Y123272D01*
X439375Y123699D02*
X436825Y123699D01*
X436825Y124126D02*
X439375Y124126D01*
X439375Y124553D02*
X436825Y124553D01*
X436825Y124980D02*
X439375Y124980D01*
X439375Y125407D02*
X436825Y125407D01*
X436825Y125834D02*
X439375Y125834D01*
X439375Y126261D02*
X436825Y126261D01*
X436825Y126688D02*
X439375Y126688D01*
X439375Y127115D02*
X436825Y127115D01*
X436825Y127542D02*
X439375Y127542D01*
X439375Y127969D02*
X436825Y127969D01*
X436825Y128396D02*
X439375Y128396D01*
X439375Y128823D02*
X436825Y128823D01*
X436825Y129250D02*
X439375Y129250D01*
X439375Y129677D02*
X436825Y129677D01*
X436825Y130104D02*
X439375Y130104D01*
X439375Y130531D02*
X436825Y130531D01*
X436825Y130958D02*
X439375Y130958D01*
X439375Y131385D02*
X436825Y131385D01*
X436825Y131812D02*
X439375Y131812D01*
X439375Y132239D02*
X436825Y132239D01*
X436825Y132666D02*
X439375Y132666D01*
X439375Y133093D02*
X436825Y133093D01*
X436825Y133520D02*
X439375Y133520D01*
X431825Y133625D02*
X431825Y118575D01*
X431825Y133625D02*
X434375Y133625D01*
X434375Y118575D01*
X431825Y118575D01*
X431825Y119002D02*
X434375Y119002D01*
X434375Y119429D02*
X431825Y119429D01*
X431825Y119856D02*
X434375Y119856D01*
X434375Y120283D02*
X431825Y120283D01*
X431825Y120710D02*
X434375Y120710D01*
X434375Y121137D02*
X431825Y121137D01*
X431825Y121564D02*
X434375Y121564D01*
X434375Y121991D02*
X431825Y121991D01*
X431825Y122418D02*
X434375Y122418D01*
X434375Y122845D02*
X431825Y122845D01*
X431825Y123272D02*
X434375Y123272D01*
X434375Y123699D02*
X431825Y123699D01*
X431825Y124126D02*
X434375Y124126D01*
X434375Y124553D02*
X431825Y124553D01*
X431825Y124980D02*
X434375Y124980D01*
X434375Y125407D02*
X431825Y125407D01*
X431825Y125834D02*
X434375Y125834D01*
X434375Y126261D02*
X431825Y126261D01*
X431825Y126688D02*
X434375Y126688D01*
X434375Y127115D02*
X431825Y127115D01*
X431825Y127542D02*
X434375Y127542D01*
X434375Y127969D02*
X431825Y127969D01*
X431825Y128396D02*
X434375Y128396D01*
X434375Y128823D02*
X431825Y128823D01*
X431825Y129250D02*
X434375Y129250D01*
X434375Y129677D02*
X431825Y129677D01*
X431825Y130104D02*
X434375Y130104D01*
X434375Y130531D02*
X431825Y130531D01*
X431825Y130958D02*
X434375Y130958D01*
X434375Y131385D02*
X431825Y131385D01*
X431825Y131812D02*
X434375Y131812D01*
X434375Y132239D02*
X431825Y132239D01*
X431825Y132666D02*
X434375Y132666D01*
X434375Y133093D02*
X431825Y133093D01*
X431825Y133520D02*
X434375Y133520D01*
X426825Y133625D02*
X426825Y118575D01*
X426825Y133625D02*
X429375Y133625D01*
X429375Y118575D01*
X426825Y118575D01*
X426825Y119002D02*
X429375Y119002D01*
X429375Y119429D02*
X426825Y119429D01*
X426825Y119856D02*
X429375Y119856D01*
X429375Y120283D02*
X426825Y120283D01*
X426825Y120710D02*
X429375Y120710D01*
X429375Y121137D02*
X426825Y121137D01*
X426825Y121564D02*
X429375Y121564D01*
X429375Y121991D02*
X426825Y121991D01*
X426825Y122418D02*
X429375Y122418D01*
X429375Y122845D02*
X426825Y122845D01*
X426825Y123272D02*
X429375Y123272D01*
X429375Y123699D02*
X426825Y123699D01*
X426825Y124126D02*
X429375Y124126D01*
X429375Y124553D02*
X426825Y124553D01*
X426825Y124980D02*
X429375Y124980D01*
X429375Y125407D02*
X426825Y125407D01*
X426825Y125834D02*
X429375Y125834D01*
X429375Y126261D02*
X426825Y126261D01*
X426825Y126688D02*
X429375Y126688D01*
X429375Y127115D02*
X426825Y127115D01*
X426825Y127542D02*
X429375Y127542D01*
X429375Y127969D02*
X426825Y127969D01*
X426825Y128396D02*
X429375Y128396D01*
X429375Y128823D02*
X426825Y128823D01*
X426825Y129250D02*
X429375Y129250D01*
X429375Y129677D02*
X426825Y129677D01*
X426825Y130104D02*
X429375Y130104D01*
X429375Y130531D02*
X426825Y130531D01*
X426825Y130958D02*
X429375Y130958D01*
X429375Y131385D02*
X426825Y131385D01*
X426825Y131812D02*
X429375Y131812D01*
X429375Y132239D02*
X426825Y132239D01*
X426825Y132666D02*
X429375Y132666D01*
X429375Y133093D02*
X426825Y133093D01*
X426825Y133520D02*
X429375Y133520D01*
X421825Y133625D02*
X421825Y118575D01*
X421825Y133625D02*
X424375Y133625D01*
X424375Y118575D01*
X421825Y118575D01*
X421825Y119002D02*
X424375Y119002D01*
X424375Y119429D02*
X421825Y119429D01*
X421825Y119856D02*
X424375Y119856D01*
X424375Y120283D02*
X421825Y120283D01*
X421825Y120710D02*
X424375Y120710D01*
X424375Y121137D02*
X421825Y121137D01*
X421825Y121564D02*
X424375Y121564D01*
X424375Y121991D02*
X421825Y121991D01*
X421825Y122418D02*
X424375Y122418D01*
X424375Y122845D02*
X421825Y122845D01*
X421825Y123272D02*
X424375Y123272D01*
X424375Y123699D02*
X421825Y123699D01*
X421825Y124126D02*
X424375Y124126D01*
X424375Y124553D02*
X421825Y124553D01*
X421825Y124980D02*
X424375Y124980D01*
X424375Y125407D02*
X421825Y125407D01*
X421825Y125834D02*
X424375Y125834D01*
X424375Y126261D02*
X421825Y126261D01*
X421825Y126688D02*
X424375Y126688D01*
X424375Y127115D02*
X421825Y127115D01*
X421825Y127542D02*
X424375Y127542D01*
X424375Y127969D02*
X421825Y127969D01*
X421825Y128396D02*
X424375Y128396D01*
X424375Y128823D02*
X421825Y128823D01*
X421825Y129250D02*
X424375Y129250D01*
X424375Y129677D02*
X421825Y129677D01*
X421825Y130104D02*
X424375Y130104D01*
X424375Y130531D02*
X421825Y130531D01*
X421825Y130958D02*
X424375Y130958D01*
X424375Y131385D02*
X421825Y131385D01*
X421825Y131812D02*
X424375Y131812D01*
X424375Y132239D02*
X421825Y132239D01*
X421825Y132666D02*
X424375Y132666D01*
X424375Y133093D02*
X421825Y133093D01*
X421825Y133520D02*
X424375Y133520D01*
X416825Y133625D02*
X416825Y118575D01*
X416825Y133625D02*
X419375Y133625D01*
X419375Y118575D01*
X416825Y118575D01*
X416825Y119002D02*
X419375Y119002D01*
X419375Y119429D02*
X416825Y119429D01*
X416825Y119856D02*
X419375Y119856D01*
X419375Y120283D02*
X416825Y120283D01*
X416825Y120710D02*
X419375Y120710D01*
X419375Y121137D02*
X416825Y121137D01*
X416825Y121564D02*
X419375Y121564D01*
X419375Y121991D02*
X416825Y121991D01*
X416825Y122418D02*
X419375Y122418D01*
X419375Y122845D02*
X416825Y122845D01*
X416825Y123272D02*
X419375Y123272D01*
X419375Y123699D02*
X416825Y123699D01*
X416825Y124126D02*
X419375Y124126D01*
X419375Y124553D02*
X416825Y124553D01*
X416825Y124980D02*
X419375Y124980D01*
X419375Y125407D02*
X416825Y125407D01*
X416825Y125834D02*
X419375Y125834D01*
X419375Y126261D02*
X416825Y126261D01*
X416825Y126688D02*
X419375Y126688D01*
X419375Y127115D02*
X416825Y127115D01*
X416825Y127542D02*
X419375Y127542D01*
X419375Y127969D02*
X416825Y127969D01*
X416825Y128396D02*
X419375Y128396D01*
X419375Y128823D02*
X416825Y128823D01*
X416825Y129250D02*
X419375Y129250D01*
X419375Y129677D02*
X416825Y129677D01*
X416825Y130104D02*
X419375Y130104D01*
X419375Y130531D02*
X416825Y130531D01*
X416825Y130958D02*
X419375Y130958D01*
X419375Y131385D02*
X416825Y131385D01*
X416825Y131812D02*
X419375Y131812D01*
X419375Y132239D02*
X416825Y132239D01*
X416825Y132666D02*
X419375Y132666D01*
X419375Y133093D02*
X416825Y133093D01*
X416825Y133520D02*
X419375Y133520D01*
D15*
X454000Y121000D02*
X454000Y146700D01*
X464200Y146700D01*
X464200Y121000D01*
X454000Y121000D01*
X454000Y122710D02*
X464200Y122710D01*
X464200Y124420D02*
X454000Y124420D01*
X454000Y126130D02*
X464200Y126130D01*
X464200Y127840D02*
X454000Y127840D01*
X454000Y129550D02*
X464200Y129550D01*
X464200Y131260D02*
X454000Y131260D01*
X454000Y132970D02*
X464200Y132970D01*
X464200Y134680D02*
X454000Y134680D01*
X454000Y136390D02*
X464200Y136390D01*
X464200Y138100D02*
X454000Y138100D01*
X454000Y139810D02*
X464200Y139810D01*
X464200Y141520D02*
X454000Y141520D01*
X454000Y143230D02*
X464200Y143230D01*
X464200Y144940D02*
X454000Y144940D01*
X454000Y146650D02*
X464200Y146650D01*
X247000Y146700D02*
X247000Y121000D01*
X247000Y146700D02*
X257200Y146700D01*
X257200Y121000D01*
X247000Y121000D01*
X247000Y122710D02*
X257200Y122710D01*
X257200Y124420D02*
X247000Y124420D01*
X247000Y126130D02*
X257200Y126130D01*
X257200Y127840D02*
X247000Y127840D01*
X247000Y129550D02*
X257200Y129550D01*
X257200Y131260D02*
X247000Y131260D01*
X247000Y132970D02*
X257200Y132970D01*
X257200Y134680D02*
X247000Y134680D01*
X247000Y136390D02*
X257200Y136390D01*
X257200Y138100D02*
X247000Y138100D01*
X247000Y139810D02*
X257200Y139810D01*
X257200Y141520D02*
X247000Y141520D01*
X247000Y143230D02*
X257200Y143230D01*
X257200Y144940D02*
X247000Y144940D01*
X247000Y146650D02*
X257200Y146650D01*
D14*
X414325Y194075D02*
X414325Y209125D01*
X416875Y209125D01*
X416875Y194075D01*
X414325Y194075D01*
X414325Y194502D02*
X416875Y194502D01*
X416875Y194929D02*
X414325Y194929D01*
X414325Y195356D02*
X416875Y195356D01*
X416875Y195783D02*
X414325Y195783D01*
X414325Y196210D02*
X416875Y196210D01*
X416875Y196637D02*
X414325Y196637D01*
X414325Y197064D02*
X416875Y197064D01*
X416875Y197491D02*
X414325Y197491D01*
X414325Y197918D02*
X416875Y197918D01*
X416875Y198345D02*
X414325Y198345D01*
X414325Y198772D02*
X416875Y198772D01*
X416875Y199199D02*
X414325Y199199D01*
X414325Y199626D02*
X416875Y199626D01*
X416875Y200053D02*
X414325Y200053D01*
X414325Y200480D02*
X416875Y200480D01*
X416875Y200907D02*
X414325Y200907D01*
X414325Y201334D02*
X416875Y201334D01*
X416875Y201761D02*
X414325Y201761D01*
X414325Y202188D02*
X416875Y202188D01*
X416875Y202615D02*
X414325Y202615D01*
X414325Y203042D02*
X416875Y203042D01*
X416875Y203469D02*
X414325Y203469D01*
X414325Y203896D02*
X416875Y203896D01*
X416875Y204323D02*
X414325Y204323D01*
X414325Y204750D02*
X416875Y204750D01*
X416875Y205177D02*
X414325Y205177D01*
X414325Y205604D02*
X416875Y205604D01*
X416875Y206031D02*
X414325Y206031D01*
X414325Y206458D02*
X416875Y206458D01*
X416875Y206885D02*
X414325Y206885D01*
X414325Y207312D02*
X416875Y207312D01*
X416875Y207739D02*
X414325Y207739D01*
X414325Y208166D02*
X416875Y208166D01*
X416875Y208593D02*
X414325Y208593D01*
X414325Y209020D02*
X416875Y209020D01*
X411825Y133625D02*
X411825Y118575D01*
X411825Y133625D02*
X414375Y133625D01*
X414375Y118575D01*
X411825Y118575D01*
X411825Y119002D02*
X414375Y119002D01*
X414375Y119429D02*
X411825Y119429D01*
X411825Y119856D02*
X414375Y119856D01*
X414375Y120283D02*
X411825Y120283D01*
X411825Y120710D02*
X414375Y120710D01*
X414375Y121137D02*
X411825Y121137D01*
X411825Y121564D02*
X414375Y121564D01*
X414375Y121991D02*
X411825Y121991D01*
X411825Y122418D02*
X414375Y122418D01*
X414375Y122845D02*
X411825Y122845D01*
X411825Y123272D02*
X414375Y123272D01*
X414375Y123699D02*
X411825Y123699D01*
X411825Y124126D02*
X414375Y124126D01*
X414375Y124553D02*
X411825Y124553D01*
X411825Y124980D02*
X414375Y124980D01*
X414375Y125407D02*
X411825Y125407D01*
X411825Y125834D02*
X414375Y125834D01*
X414375Y126261D02*
X411825Y126261D01*
X411825Y126688D02*
X414375Y126688D01*
X414375Y127115D02*
X411825Y127115D01*
X411825Y127542D02*
X414375Y127542D01*
X414375Y127969D02*
X411825Y127969D01*
X411825Y128396D02*
X414375Y128396D01*
X414375Y128823D02*
X411825Y128823D01*
X411825Y129250D02*
X414375Y129250D01*
X414375Y129677D02*
X411825Y129677D01*
X411825Y130104D02*
X414375Y130104D01*
X414375Y130531D02*
X411825Y130531D01*
X411825Y130958D02*
X414375Y130958D01*
X414375Y131385D02*
X411825Y131385D01*
X411825Y131812D02*
X414375Y131812D01*
X414375Y132239D02*
X411825Y132239D01*
X411825Y132666D02*
X414375Y132666D01*
X414375Y133093D02*
X411825Y133093D01*
X411825Y133520D02*
X414375Y133520D01*
X409325Y194075D02*
X409325Y209125D01*
X411875Y209125D01*
X411875Y194075D01*
X409325Y194075D01*
X409325Y194502D02*
X411875Y194502D01*
X411875Y194929D02*
X409325Y194929D01*
X409325Y195356D02*
X411875Y195356D01*
X411875Y195783D02*
X409325Y195783D01*
X409325Y196210D02*
X411875Y196210D01*
X411875Y196637D02*
X409325Y196637D01*
X409325Y197064D02*
X411875Y197064D01*
X411875Y197491D02*
X409325Y197491D01*
X409325Y197918D02*
X411875Y197918D01*
X411875Y198345D02*
X409325Y198345D01*
X409325Y198772D02*
X411875Y198772D01*
X411875Y199199D02*
X409325Y199199D01*
X409325Y199626D02*
X411875Y199626D01*
X411875Y200053D02*
X409325Y200053D01*
X409325Y200480D02*
X411875Y200480D01*
X411875Y200907D02*
X409325Y200907D01*
X409325Y201334D02*
X411875Y201334D01*
X411875Y201761D02*
X409325Y201761D01*
X409325Y202188D02*
X411875Y202188D01*
X411875Y202615D02*
X409325Y202615D01*
X409325Y203042D02*
X411875Y203042D01*
X411875Y203469D02*
X409325Y203469D01*
X409325Y203896D02*
X411875Y203896D01*
X411875Y204323D02*
X409325Y204323D01*
X409325Y204750D02*
X411875Y204750D01*
X411875Y205177D02*
X409325Y205177D01*
X409325Y205604D02*
X411875Y205604D01*
X411875Y206031D02*
X409325Y206031D01*
X409325Y206458D02*
X411875Y206458D01*
X411875Y206885D02*
X409325Y206885D01*
X409325Y207312D02*
X411875Y207312D01*
X411875Y207739D02*
X409325Y207739D01*
X409325Y208166D02*
X411875Y208166D01*
X411875Y208593D02*
X409325Y208593D01*
X409325Y209020D02*
X411875Y209020D01*
X406825Y133625D02*
X406825Y118575D01*
X406825Y133625D02*
X409375Y133625D01*
X409375Y118575D01*
X406825Y118575D01*
X406825Y119002D02*
X409375Y119002D01*
X409375Y119429D02*
X406825Y119429D01*
X406825Y119856D02*
X409375Y119856D01*
X409375Y120283D02*
X406825Y120283D01*
X406825Y120710D02*
X409375Y120710D01*
X409375Y121137D02*
X406825Y121137D01*
X406825Y121564D02*
X409375Y121564D01*
X409375Y121991D02*
X406825Y121991D01*
X406825Y122418D02*
X409375Y122418D01*
X409375Y122845D02*
X406825Y122845D01*
X406825Y123272D02*
X409375Y123272D01*
X409375Y123699D02*
X406825Y123699D01*
X406825Y124126D02*
X409375Y124126D01*
X409375Y124553D02*
X406825Y124553D01*
X406825Y124980D02*
X409375Y124980D01*
X409375Y125407D02*
X406825Y125407D01*
X406825Y125834D02*
X409375Y125834D01*
X409375Y126261D02*
X406825Y126261D01*
X406825Y126688D02*
X409375Y126688D01*
X409375Y127115D02*
X406825Y127115D01*
X406825Y127542D02*
X409375Y127542D01*
X409375Y127969D02*
X406825Y127969D01*
X406825Y128396D02*
X409375Y128396D01*
X409375Y128823D02*
X406825Y128823D01*
X406825Y129250D02*
X409375Y129250D01*
X409375Y129677D02*
X406825Y129677D01*
X406825Y130104D02*
X409375Y130104D01*
X409375Y130531D02*
X406825Y130531D01*
X406825Y130958D02*
X409375Y130958D01*
X409375Y131385D02*
X406825Y131385D01*
X406825Y131812D02*
X409375Y131812D01*
X409375Y132239D02*
X406825Y132239D01*
X406825Y132666D02*
X409375Y132666D01*
X409375Y133093D02*
X406825Y133093D01*
X406825Y133520D02*
X409375Y133520D01*
X404325Y194075D02*
X404325Y209125D01*
X406875Y209125D01*
X406875Y194075D01*
X404325Y194075D01*
X404325Y194502D02*
X406875Y194502D01*
X406875Y194929D02*
X404325Y194929D01*
X404325Y195356D02*
X406875Y195356D01*
X406875Y195783D02*
X404325Y195783D01*
X404325Y196210D02*
X406875Y196210D01*
X406875Y196637D02*
X404325Y196637D01*
X404325Y197064D02*
X406875Y197064D01*
X406875Y197491D02*
X404325Y197491D01*
X404325Y197918D02*
X406875Y197918D01*
X406875Y198345D02*
X404325Y198345D01*
X404325Y198772D02*
X406875Y198772D01*
X406875Y199199D02*
X404325Y199199D01*
X404325Y199626D02*
X406875Y199626D01*
X406875Y200053D02*
X404325Y200053D01*
X404325Y200480D02*
X406875Y200480D01*
X406875Y200907D02*
X404325Y200907D01*
X404325Y201334D02*
X406875Y201334D01*
X406875Y201761D02*
X404325Y201761D01*
X404325Y202188D02*
X406875Y202188D01*
X406875Y202615D02*
X404325Y202615D01*
X404325Y203042D02*
X406875Y203042D01*
X406875Y203469D02*
X404325Y203469D01*
X404325Y203896D02*
X406875Y203896D01*
X406875Y204323D02*
X404325Y204323D01*
X404325Y204750D02*
X406875Y204750D01*
X406875Y205177D02*
X404325Y205177D01*
X404325Y205604D02*
X406875Y205604D01*
X406875Y206031D02*
X404325Y206031D01*
X404325Y206458D02*
X406875Y206458D01*
X406875Y206885D02*
X404325Y206885D01*
X404325Y207312D02*
X406875Y207312D01*
X406875Y207739D02*
X404325Y207739D01*
X404325Y208166D02*
X406875Y208166D01*
X406875Y208593D02*
X404325Y208593D01*
X404325Y209020D02*
X406875Y209020D01*
X401825Y133625D02*
X401825Y118575D01*
X401825Y133625D02*
X404375Y133625D01*
X404375Y118575D01*
X401825Y118575D01*
X401825Y119002D02*
X404375Y119002D01*
X404375Y119429D02*
X401825Y119429D01*
X401825Y119856D02*
X404375Y119856D01*
X404375Y120283D02*
X401825Y120283D01*
X401825Y120710D02*
X404375Y120710D01*
X404375Y121137D02*
X401825Y121137D01*
X401825Y121564D02*
X404375Y121564D01*
X404375Y121991D02*
X401825Y121991D01*
X401825Y122418D02*
X404375Y122418D01*
X404375Y122845D02*
X401825Y122845D01*
X401825Y123272D02*
X404375Y123272D01*
X404375Y123699D02*
X401825Y123699D01*
X401825Y124126D02*
X404375Y124126D01*
X404375Y124553D02*
X401825Y124553D01*
X401825Y124980D02*
X404375Y124980D01*
X404375Y125407D02*
X401825Y125407D01*
X401825Y125834D02*
X404375Y125834D01*
X404375Y126261D02*
X401825Y126261D01*
X401825Y126688D02*
X404375Y126688D01*
X404375Y127115D02*
X401825Y127115D01*
X401825Y127542D02*
X404375Y127542D01*
X404375Y127969D02*
X401825Y127969D01*
X401825Y128396D02*
X404375Y128396D01*
X404375Y128823D02*
X401825Y128823D01*
X401825Y129250D02*
X404375Y129250D01*
X404375Y129677D02*
X401825Y129677D01*
X401825Y130104D02*
X404375Y130104D01*
X404375Y130531D02*
X401825Y130531D01*
X401825Y130958D02*
X404375Y130958D01*
X404375Y131385D02*
X401825Y131385D01*
X401825Y131812D02*
X404375Y131812D01*
X404375Y132239D02*
X401825Y132239D01*
X401825Y132666D02*
X404375Y132666D01*
X404375Y133093D02*
X401825Y133093D01*
X401825Y133520D02*
X404375Y133520D01*
X399325Y194075D02*
X399325Y209125D01*
X401875Y209125D01*
X401875Y194075D01*
X399325Y194075D01*
X399325Y194502D02*
X401875Y194502D01*
X401875Y194929D02*
X399325Y194929D01*
X399325Y195356D02*
X401875Y195356D01*
X401875Y195783D02*
X399325Y195783D01*
X399325Y196210D02*
X401875Y196210D01*
X401875Y196637D02*
X399325Y196637D01*
X399325Y197064D02*
X401875Y197064D01*
X401875Y197491D02*
X399325Y197491D01*
X399325Y197918D02*
X401875Y197918D01*
X401875Y198345D02*
X399325Y198345D01*
X399325Y198772D02*
X401875Y198772D01*
X401875Y199199D02*
X399325Y199199D01*
X399325Y199626D02*
X401875Y199626D01*
X401875Y200053D02*
X399325Y200053D01*
X399325Y200480D02*
X401875Y200480D01*
X401875Y200907D02*
X399325Y200907D01*
X399325Y201334D02*
X401875Y201334D01*
X401875Y201761D02*
X399325Y201761D01*
X399325Y202188D02*
X401875Y202188D01*
X401875Y202615D02*
X399325Y202615D01*
X399325Y203042D02*
X401875Y203042D01*
X401875Y203469D02*
X399325Y203469D01*
X399325Y203896D02*
X401875Y203896D01*
X401875Y204323D02*
X399325Y204323D01*
X399325Y204750D02*
X401875Y204750D01*
X401875Y205177D02*
X399325Y205177D01*
X399325Y205604D02*
X401875Y205604D01*
X401875Y206031D02*
X399325Y206031D01*
X399325Y206458D02*
X401875Y206458D01*
X401875Y206885D02*
X399325Y206885D01*
X399325Y207312D02*
X401875Y207312D01*
X401875Y207739D02*
X399325Y207739D01*
X399325Y208166D02*
X401875Y208166D01*
X401875Y208593D02*
X399325Y208593D01*
X399325Y209020D02*
X401875Y209020D01*
X396825Y133625D02*
X396825Y118575D01*
X396825Y133625D02*
X399375Y133625D01*
X399375Y118575D01*
X396825Y118575D01*
X396825Y119002D02*
X399375Y119002D01*
X399375Y119429D02*
X396825Y119429D01*
X396825Y119856D02*
X399375Y119856D01*
X399375Y120283D02*
X396825Y120283D01*
X396825Y120710D02*
X399375Y120710D01*
X399375Y121137D02*
X396825Y121137D01*
X396825Y121564D02*
X399375Y121564D01*
X399375Y121991D02*
X396825Y121991D01*
X396825Y122418D02*
X399375Y122418D01*
X399375Y122845D02*
X396825Y122845D01*
X396825Y123272D02*
X399375Y123272D01*
X399375Y123699D02*
X396825Y123699D01*
X396825Y124126D02*
X399375Y124126D01*
X399375Y124553D02*
X396825Y124553D01*
X396825Y124980D02*
X399375Y124980D01*
X399375Y125407D02*
X396825Y125407D01*
X396825Y125834D02*
X399375Y125834D01*
X399375Y126261D02*
X396825Y126261D01*
X396825Y126688D02*
X399375Y126688D01*
X399375Y127115D02*
X396825Y127115D01*
X396825Y127542D02*
X399375Y127542D01*
X399375Y127969D02*
X396825Y127969D01*
X396825Y128396D02*
X399375Y128396D01*
X399375Y128823D02*
X396825Y128823D01*
X396825Y129250D02*
X399375Y129250D01*
X399375Y129677D02*
X396825Y129677D01*
X396825Y130104D02*
X399375Y130104D01*
X399375Y130531D02*
X396825Y130531D01*
X396825Y130958D02*
X399375Y130958D01*
X399375Y131385D02*
X396825Y131385D01*
X396825Y131812D02*
X399375Y131812D01*
X399375Y132239D02*
X396825Y132239D01*
X396825Y132666D02*
X399375Y132666D01*
X399375Y133093D02*
X396825Y133093D01*
X396825Y133520D02*
X399375Y133520D01*
X394325Y194075D02*
X394325Y209125D01*
X396875Y209125D01*
X396875Y194075D01*
X394325Y194075D01*
X394325Y194502D02*
X396875Y194502D01*
X396875Y194929D02*
X394325Y194929D01*
X394325Y195356D02*
X396875Y195356D01*
X396875Y195783D02*
X394325Y195783D01*
X394325Y196210D02*
X396875Y196210D01*
X396875Y196637D02*
X394325Y196637D01*
X394325Y197064D02*
X396875Y197064D01*
X396875Y197491D02*
X394325Y197491D01*
X394325Y197918D02*
X396875Y197918D01*
X396875Y198345D02*
X394325Y198345D01*
X394325Y198772D02*
X396875Y198772D01*
X396875Y199199D02*
X394325Y199199D01*
X394325Y199626D02*
X396875Y199626D01*
X396875Y200053D02*
X394325Y200053D01*
X394325Y200480D02*
X396875Y200480D01*
X396875Y200907D02*
X394325Y200907D01*
X394325Y201334D02*
X396875Y201334D01*
X396875Y201761D02*
X394325Y201761D01*
X394325Y202188D02*
X396875Y202188D01*
X396875Y202615D02*
X394325Y202615D01*
X394325Y203042D02*
X396875Y203042D01*
X396875Y203469D02*
X394325Y203469D01*
X394325Y203896D02*
X396875Y203896D01*
X396875Y204323D02*
X394325Y204323D01*
X394325Y204750D02*
X396875Y204750D01*
X396875Y205177D02*
X394325Y205177D01*
X394325Y205604D02*
X396875Y205604D01*
X396875Y206031D02*
X394325Y206031D01*
X394325Y206458D02*
X396875Y206458D01*
X396875Y206885D02*
X394325Y206885D01*
X394325Y207312D02*
X396875Y207312D01*
X396875Y207739D02*
X394325Y207739D01*
X394325Y208166D02*
X396875Y208166D01*
X396875Y208593D02*
X394325Y208593D01*
X394325Y209020D02*
X396875Y209020D01*
X391825Y133625D02*
X391825Y118575D01*
X391825Y133625D02*
X394375Y133625D01*
X394375Y118575D01*
X391825Y118575D01*
X391825Y119002D02*
X394375Y119002D01*
X394375Y119429D02*
X391825Y119429D01*
X391825Y119856D02*
X394375Y119856D01*
X394375Y120283D02*
X391825Y120283D01*
X391825Y120710D02*
X394375Y120710D01*
X394375Y121137D02*
X391825Y121137D01*
X391825Y121564D02*
X394375Y121564D01*
X394375Y121991D02*
X391825Y121991D01*
X391825Y122418D02*
X394375Y122418D01*
X394375Y122845D02*
X391825Y122845D01*
X391825Y123272D02*
X394375Y123272D01*
X394375Y123699D02*
X391825Y123699D01*
X391825Y124126D02*
X394375Y124126D01*
X394375Y124553D02*
X391825Y124553D01*
X391825Y124980D02*
X394375Y124980D01*
X394375Y125407D02*
X391825Y125407D01*
X391825Y125834D02*
X394375Y125834D01*
X394375Y126261D02*
X391825Y126261D01*
X391825Y126688D02*
X394375Y126688D01*
X394375Y127115D02*
X391825Y127115D01*
X391825Y127542D02*
X394375Y127542D01*
X394375Y127969D02*
X391825Y127969D01*
X391825Y128396D02*
X394375Y128396D01*
X394375Y128823D02*
X391825Y128823D01*
X391825Y129250D02*
X394375Y129250D01*
X394375Y129677D02*
X391825Y129677D01*
X391825Y130104D02*
X394375Y130104D01*
X394375Y130531D02*
X391825Y130531D01*
X391825Y130958D02*
X394375Y130958D01*
X394375Y131385D02*
X391825Y131385D01*
X391825Y131812D02*
X394375Y131812D01*
X394375Y132239D02*
X391825Y132239D01*
X391825Y132666D02*
X394375Y132666D01*
X394375Y133093D02*
X391825Y133093D01*
X391825Y133520D02*
X394375Y133520D01*
X369325Y194075D02*
X369325Y209125D01*
X371875Y209125D01*
X371875Y194075D01*
X369325Y194075D01*
X369325Y194502D02*
X371875Y194502D01*
X371875Y194929D02*
X369325Y194929D01*
X369325Y195356D02*
X371875Y195356D01*
X371875Y195783D02*
X369325Y195783D01*
X369325Y196210D02*
X371875Y196210D01*
X371875Y196637D02*
X369325Y196637D01*
X369325Y197064D02*
X371875Y197064D01*
X371875Y197491D02*
X369325Y197491D01*
X369325Y197918D02*
X371875Y197918D01*
X371875Y198345D02*
X369325Y198345D01*
X369325Y198772D02*
X371875Y198772D01*
X371875Y199199D02*
X369325Y199199D01*
X369325Y199626D02*
X371875Y199626D01*
X371875Y200053D02*
X369325Y200053D01*
X369325Y200480D02*
X371875Y200480D01*
X371875Y200907D02*
X369325Y200907D01*
X369325Y201334D02*
X371875Y201334D01*
X371875Y201761D02*
X369325Y201761D01*
X369325Y202188D02*
X371875Y202188D01*
X371875Y202615D02*
X369325Y202615D01*
X369325Y203042D02*
X371875Y203042D01*
X371875Y203469D02*
X369325Y203469D01*
X369325Y203896D02*
X371875Y203896D01*
X371875Y204323D02*
X369325Y204323D01*
X369325Y204750D02*
X371875Y204750D01*
X371875Y205177D02*
X369325Y205177D01*
X369325Y205604D02*
X371875Y205604D01*
X371875Y206031D02*
X369325Y206031D01*
X369325Y206458D02*
X371875Y206458D01*
X371875Y206885D02*
X369325Y206885D01*
X369325Y207312D02*
X371875Y207312D01*
X371875Y207739D02*
X369325Y207739D01*
X369325Y208166D02*
X371875Y208166D01*
X371875Y208593D02*
X369325Y208593D01*
X369325Y209020D02*
X371875Y209020D01*
X366825Y133625D02*
X366825Y118575D01*
X366825Y133625D02*
X369375Y133625D01*
X369375Y118575D01*
X366825Y118575D01*
X366825Y119002D02*
X369375Y119002D01*
X369375Y119429D02*
X366825Y119429D01*
X366825Y119856D02*
X369375Y119856D01*
X369375Y120283D02*
X366825Y120283D01*
X366825Y120710D02*
X369375Y120710D01*
X369375Y121137D02*
X366825Y121137D01*
X366825Y121564D02*
X369375Y121564D01*
X369375Y121991D02*
X366825Y121991D01*
X366825Y122418D02*
X369375Y122418D01*
X369375Y122845D02*
X366825Y122845D01*
X366825Y123272D02*
X369375Y123272D01*
X369375Y123699D02*
X366825Y123699D01*
X366825Y124126D02*
X369375Y124126D01*
X369375Y124553D02*
X366825Y124553D01*
X366825Y124980D02*
X369375Y124980D01*
X369375Y125407D02*
X366825Y125407D01*
X366825Y125834D02*
X369375Y125834D01*
X369375Y126261D02*
X366825Y126261D01*
X366825Y126688D02*
X369375Y126688D01*
X369375Y127115D02*
X366825Y127115D01*
X366825Y127542D02*
X369375Y127542D01*
X369375Y127969D02*
X366825Y127969D01*
X366825Y128396D02*
X369375Y128396D01*
X369375Y128823D02*
X366825Y128823D01*
X366825Y129250D02*
X369375Y129250D01*
X369375Y129677D02*
X366825Y129677D01*
X366825Y130104D02*
X369375Y130104D01*
X369375Y130531D02*
X366825Y130531D01*
X366825Y130958D02*
X369375Y130958D01*
X369375Y131385D02*
X366825Y131385D01*
X366825Y131812D02*
X369375Y131812D01*
X369375Y132239D02*
X366825Y132239D01*
X366825Y132666D02*
X369375Y132666D01*
X369375Y133093D02*
X366825Y133093D01*
X366825Y133520D02*
X369375Y133520D01*
X364325Y194075D02*
X364325Y209125D01*
X366875Y209125D01*
X366875Y194075D01*
X364325Y194075D01*
X364325Y194502D02*
X366875Y194502D01*
X366875Y194929D02*
X364325Y194929D01*
X364325Y195356D02*
X366875Y195356D01*
X366875Y195783D02*
X364325Y195783D01*
X364325Y196210D02*
X366875Y196210D01*
X366875Y196637D02*
X364325Y196637D01*
X364325Y197064D02*
X366875Y197064D01*
X366875Y197491D02*
X364325Y197491D01*
X364325Y197918D02*
X366875Y197918D01*
X366875Y198345D02*
X364325Y198345D01*
X364325Y198772D02*
X366875Y198772D01*
X366875Y199199D02*
X364325Y199199D01*
X364325Y199626D02*
X366875Y199626D01*
X366875Y200053D02*
X364325Y200053D01*
X364325Y200480D02*
X366875Y200480D01*
X366875Y200907D02*
X364325Y200907D01*
X364325Y201334D02*
X366875Y201334D01*
X366875Y201761D02*
X364325Y201761D01*
X364325Y202188D02*
X366875Y202188D01*
X366875Y202615D02*
X364325Y202615D01*
X364325Y203042D02*
X366875Y203042D01*
X366875Y203469D02*
X364325Y203469D01*
X364325Y203896D02*
X366875Y203896D01*
X366875Y204323D02*
X364325Y204323D01*
X364325Y204750D02*
X366875Y204750D01*
X366875Y205177D02*
X364325Y205177D01*
X364325Y205604D02*
X366875Y205604D01*
X366875Y206031D02*
X364325Y206031D01*
X364325Y206458D02*
X366875Y206458D01*
X366875Y206885D02*
X364325Y206885D01*
X364325Y207312D02*
X366875Y207312D01*
X366875Y207739D02*
X364325Y207739D01*
X364325Y208166D02*
X366875Y208166D01*
X366875Y208593D02*
X364325Y208593D01*
X364325Y209020D02*
X366875Y209020D01*
X361825Y133625D02*
X361825Y118575D01*
X361825Y133625D02*
X364375Y133625D01*
X364375Y118575D01*
X361825Y118575D01*
X361825Y119002D02*
X364375Y119002D01*
X364375Y119429D02*
X361825Y119429D01*
X361825Y119856D02*
X364375Y119856D01*
X364375Y120283D02*
X361825Y120283D01*
X361825Y120710D02*
X364375Y120710D01*
X364375Y121137D02*
X361825Y121137D01*
X361825Y121564D02*
X364375Y121564D01*
X364375Y121991D02*
X361825Y121991D01*
X361825Y122418D02*
X364375Y122418D01*
X364375Y122845D02*
X361825Y122845D01*
X361825Y123272D02*
X364375Y123272D01*
X364375Y123699D02*
X361825Y123699D01*
X361825Y124126D02*
X364375Y124126D01*
X364375Y124553D02*
X361825Y124553D01*
X361825Y124980D02*
X364375Y124980D01*
X364375Y125407D02*
X361825Y125407D01*
X361825Y125834D02*
X364375Y125834D01*
X364375Y126261D02*
X361825Y126261D01*
X361825Y126688D02*
X364375Y126688D01*
X364375Y127115D02*
X361825Y127115D01*
X361825Y127542D02*
X364375Y127542D01*
X364375Y127969D02*
X361825Y127969D01*
X361825Y128396D02*
X364375Y128396D01*
X364375Y128823D02*
X361825Y128823D01*
X361825Y129250D02*
X364375Y129250D01*
X364375Y129677D02*
X361825Y129677D01*
X361825Y130104D02*
X364375Y130104D01*
X364375Y130531D02*
X361825Y130531D01*
X361825Y130958D02*
X364375Y130958D01*
X364375Y131385D02*
X361825Y131385D01*
X361825Y131812D02*
X364375Y131812D01*
X364375Y132239D02*
X361825Y132239D01*
X361825Y132666D02*
X364375Y132666D01*
X364375Y133093D02*
X361825Y133093D01*
X361825Y133520D02*
X364375Y133520D01*
X359325Y194075D02*
X359325Y209125D01*
X361875Y209125D01*
X361875Y194075D01*
X359325Y194075D01*
X359325Y194502D02*
X361875Y194502D01*
X361875Y194929D02*
X359325Y194929D01*
X359325Y195356D02*
X361875Y195356D01*
X361875Y195783D02*
X359325Y195783D01*
X359325Y196210D02*
X361875Y196210D01*
X361875Y196637D02*
X359325Y196637D01*
X359325Y197064D02*
X361875Y197064D01*
X361875Y197491D02*
X359325Y197491D01*
X359325Y197918D02*
X361875Y197918D01*
X361875Y198345D02*
X359325Y198345D01*
X359325Y198772D02*
X361875Y198772D01*
X361875Y199199D02*
X359325Y199199D01*
X359325Y199626D02*
X361875Y199626D01*
X361875Y200053D02*
X359325Y200053D01*
X359325Y200480D02*
X361875Y200480D01*
X361875Y200907D02*
X359325Y200907D01*
X359325Y201334D02*
X361875Y201334D01*
X361875Y201761D02*
X359325Y201761D01*
X359325Y202188D02*
X361875Y202188D01*
X361875Y202615D02*
X359325Y202615D01*
X359325Y203042D02*
X361875Y203042D01*
X361875Y203469D02*
X359325Y203469D01*
X359325Y203896D02*
X361875Y203896D01*
X361875Y204323D02*
X359325Y204323D01*
X359325Y204750D02*
X361875Y204750D01*
X361875Y205177D02*
X359325Y205177D01*
X359325Y205604D02*
X361875Y205604D01*
X361875Y206031D02*
X359325Y206031D01*
X359325Y206458D02*
X361875Y206458D01*
X361875Y206885D02*
X359325Y206885D01*
X359325Y207312D02*
X361875Y207312D01*
X361875Y207739D02*
X359325Y207739D01*
X359325Y208166D02*
X361875Y208166D01*
X361875Y208593D02*
X359325Y208593D01*
X359325Y209020D02*
X361875Y209020D01*
X356825Y133625D02*
X356825Y118575D01*
X356825Y133625D02*
X359375Y133625D01*
X359375Y118575D01*
X356825Y118575D01*
X356825Y119002D02*
X359375Y119002D01*
X359375Y119429D02*
X356825Y119429D01*
X356825Y119856D02*
X359375Y119856D01*
X359375Y120283D02*
X356825Y120283D01*
X356825Y120710D02*
X359375Y120710D01*
X359375Y121137D02*
X356825Y121137D01*
X356825Y121564D02*
X359375Y121564D01*
X359375Y121991D02*
X356825Y121991D01*
X356825Y122418D02*
X359375Y122418D01*
X359375Y122845D02*
X356825Y122845D01*
X356825Y123272D02*
X359375Y123272D01*
X359375Y123699D02*
X356825Y123699D01*
X356825Y124126D02*
X359375Y124126D01*
X359375Y124553D02*
X356825Y124553D01*
X356825Y124980D02*
X359375Y124980D01*
X359375Y125407D02*
X356825Y125407D01*
X356825Y125834D02*
X359375Y125834D01*
X359375Y126261D02*
X356825Y126261D01*
X356825Y126688D02*
X359375Y126688D01*
X359375Y127115D02*
X356825Y127115D01*
X356825Y127542D02*
X359375Y127542D01*
X359375Y127969D02*
X356825Y127969D01*
X356825Y128396D02*
X359375Y128396D01*
X359375Y128823D02*
X356825Y128823D01*
X356825Y129250D02*
X359375Y129250D01*
X359375Y129677D02*
X356825Y129677D01*
X356825Y130104D02*
X359375Y130104D01*
X359375Y130531D02*
X356825Y130531D01*
X356825Y130958D02*
X359375Y130958D01*
X359375Y131385D02*
X356825Y131385D01*
X356825Y131812D02*
X359375Y131812D01*
X359375Y132239D02*
X356825Y132239D01*
X356825Y132666D02*
X359375Y132666D01*
X359375Y133093D02*
X356825Y133093D01*
X356825Y133520D02*
X359375Y133520D01*
X354325Y194075D02*
X354325Y209125D01*
X356875Y209125D01*
X356875Y194075D01*
X354325Y194075D01*
X354325Y194502D02*
X356875Y194502D01*
X356875Y194929D02*
X354325Y194929D01*
X354325Y195356D02*
X356875Y195356D01*
X356875Y195783D02*
X354325Y195783D01*
X354325Y196210D02*
X356875Y196210D01*
X356875Y196637D02*
X354325Y196637D01*
X354325Y197064D02*
X356875Y197064D01*
X356875Y197491D02*
X354325Y197491D01*
X354325Y197918D02*
X356875Y197918D01*
X356875Y198345D02*
X354325Y198345D01*
X354325Y198772D02*
X356875Y198772D01*
X356875Y199199D02*
X354325Y199199D01*
X354325Y199626D02*
X356875Y199626D01*
X356875Y200053D02*
X354325Y200053D01*
X354325Y200480D02*
X356875Y200480D01*
X356875Y200907D02*
X354325Y200907D01*
X354325Y201334D02*
X356875Y201334D01*
X356875Y201761D02*
X354325Y201761D01*
X354325Y202188D02*
X356875Y202188D01*
X356875Y202615D02*
X354325Y202615D01*
X354325Y203042D02*
X356875Y203042D01*
X356875Y203469D02*
X354325Y203469D01*
X354325Y203896D02*
X356875Y203896D01*
X356875Y204323D02*
X354325Y204323D01*
X354325Y204750D02*
X356875Y204750D01*
X356875Y205177D02*
X354325Y205177D01*
X354325Y205604D02*
X356875Y205604D01*
X356875Y206031D02*
X354325Y206031D01*
X354325Y206458D02*
X356875Y206458D01*
X356875Y206885D02*
X354325Y206885D01*
X354325Y207312D02*
X356875Y207312D01*
X356875Y207739D02*
X354325Y207739D01*
X354325Y208166D02*
X356875Y208166D01*
X356875Y208593D02*
X354325Y208593D01*
X354325Y209020D02*
X356875Y209020D01*
X351825Y133625D02*
X351825Y118575D01*
X351825Y133625D02*
X354375Y133625D01*
X354375Y118575D01*
X351825Y118575D01*
X351825Y119002D02*
X354375Y119002D01*
X354375Y119429D02*
X351825Y119429D01*
X351825Y119856D02*
X354375Y119856D01*
X354375Y120283D02*
X351825Y120283D01*
X351825Y120710D02*
X354375Y120710D01*
X354375Y121137D02*
X351825Y121137D01*
X351825Y121564D02*
X354375Y121564D01*
X354375Y121991D02*
X351825Y121991D01*
X351825Y122418D02*
X354375Y122418D01*
X354375Y122845D02*
X351825Y122845D01*
X351825Y123272D02*
X354375Y123272D01*
X354375Y123699D02*
X351825Y123699D01*
X351825Y124126D02*
X354375Y124126D01*
X354375Y124553D02*
X351825Y124553D01*
X351825Y124980D02*
X354375Y124980D01*
X354375Y125407D02*
X351825Y125407D01*
X351825Y125834D02*
X354375Y125834D01*
X354375Y126261D02*
X351825Y126261D01*
X351825Y126688D02*
X354375Y126688D01*
X354375Y127115D02*
X351825Y127115D01*
X351825Y127542D02*
X354375Y127542D01*
X354375Y127969D02*
X351825Y127969D01*
X351825Y128396D02*
X354375Y128396D01*
X354375Y128823D02*
X351825Y128823D01*
X351825Y129250D02*
X354375Y129250D01*
X354375Y129677D02*
X351825Y129677D01*
X351825Y130104D02*
X354375Y130104D01*
X354375Y130531D02*
X351825Y130531D01*
X351825Y130958D02*
X354375Y130958D01*
X354375Y131385D02*
X351825Y131385D01*
X351825Y131812D02*
X354375Y131812D01*
X354375Y132239D02*
X351825Y132239D01*
X351825Y132666D02*
X354375Y132666D01*
X354375Y133093D02*
X351825Y133093D01*
X351825Y133520D02*
X354375Y133520D01*
X349325Y194075D02*
X349325Y209125D01*
X351875Y209125D01*
X351875Y194075D01*
X349325Y194075D01*
X349325Y194502D02*
X351875Y194502D01*
X351875Y194929D02*
X349325Y194929D01*
X349325Y195356D02*
X351875Y195356D01*
X351875Y195783D02*
X349325Y195783D01*
X349325Y196210D02*
X351875Y196210D01*
X351875Y196637D02*
X349325Y196637D01*
X349325Y197064D02*
X351875Y197064D01*
X351875Y197491D02*
X349325Y197491D01*
X349325Y197918D02*
X351875Y197918D01*
X351875Y198345D02*
X349325Y198345D01*
X349325Y198772D02*
X351875Y198772D01*
X351875Y199199D02*
X349325Y199199D01*
X349325Y199626D02*
X351875Y199626D01*
X351875Y200053D02*
X349325Y200053D01*
X349325Y200480D02*
X351875Y200480D01*
X351875Y200907D02*
X349325Y200907D01*
X349325Y201334D02*
X351875Y201334D01*
X351875Y201761D02*
X349325Y201761D01*
X349325Y202188D02*
X351875Y202188D01*
X351875Y202615D02*
X349325Y202615D01*
X349325Y203042D02*
X351875Y203042D01*
X351875Y203469D02*
X349325Y203469D01*
X349325Y203896D02*
X351875Y203896D01*
X351875Y204323D02*
X349325Y204323D01*
X349325Y204750D02*
X351875Y204750D01*
X351875Y205177D02*
X349325Y205177D01*
X349325Y205604D02*
X351875Y205604D01*
X351875Y206031D02*
X349325Y206031D01*
X349325Y206458D02*
X351875Y206458D01*
X351875Y206885D02*
X349325Y206885D01*
X349325Y207312D02*
X351875Y207312D01*
X351875Y207739D02*
X349325Y207739D01*
X349325Y208166D02*
X351875Y208166D01*
X351875Y208593D02*
X349325Y208593D01*
X349325Y209020D02*
X351875Y209020D01*
X346825Y133625D02*
X346825Y118575D01*
X346825Y133625D02*
X349375Y133625D01*
X349375Y118575D01*
X346825Y118575D01*
X346825Y119002D02*
X349375Y119002D01*
X349375Y119429D02*
X346825Y119429D01*
X346825Y119856D02*
X349375Y119856D01*
X349375Y120283D02*
X346825Y120283D01*
X346825Y120710D02*
X349375Y120710D01*
X349375Y121137D02*
X346825Y121137D01*
X346825Y121564D02*
X349375Y121564D01*
X349375Y121991D02*
X346825Y121991D01*
X346825Y122418D02*
X349375Y122418D01*
X349375Y122845D02*
X346825Y122845D01*
X346825Y123272D02*
X349375Y123272D01*
X349375Y123699D02*
X346825Y123699D01*
X346825Y124126D02*
X349375Y124126D01*
X349375Y124553D02*
X346825Y124553D01*
X346825Y124980D02*
X349375Y124980D01*
X349375Y125407D02*
X346825Y125407D01*
X346825Y125834D02*
X349375Y125834D01*
X349375Y126261D02*
X346825Y126261D01*
X346825Y126688D02*
X349375Y126688D01*
X349375Y127115D02*
X346825Y127115D01*
X346825Y127542D02*
X349375Y127542D01*
X349375Y127969D02*
X346825Y127969D01*
X346825Y128396D02*
X349375Y128396D01*
X349375Y128823D02*
X346825Y128823D01*
X346825Y129250D02*
X349375Y129250D01*
X349375Y129677D02*
X346825Y129677D01*
X346825Y130104D02*
X349375Y130104D01*
X349375Y130531D02*
X346825Y130531D01*
X346825Y130958D02*
X349375Y130958D01*
X349375Y131385D02*
X346825Y131385D01*
X346825Y131812D02*
X349375Y131812D01*
X349375Y132239D02*
X346825Y132239D01*
X346825Y132666D02*
X349375Y132666D01*
X349375Y133093D02*
X346825Y133093D01*
X346825Y133520D02*
X349375Y133520D01*
X344325Y194075D02*
X344325Y209125D01*
X346875Y209125D01*
X346875Y194075D01*
X344325Y194075D01*
X344325Y194502D02*
X346875Y194502D01*
X346875Y194929D02*
X344325Y194929D01*
X344325Y195356D02*
X346875Y195356D01*
X346875Y195783D02*
X344325Y195783D01*
X344325Y196210D02*
X346875Y196210D01*
X346875Y196637D02*
X344325Y196637D01*
X344325Y197064D02*
X346875Y197064D01*
X346875Y197491D02*
X344325Y197491D01*
X344325Y197918D02*
X346875Y197918D01*
X346875Y198345D02*
X344325Y198345D01*
X344325Y198772D02*
X346875Y198772D01*
X346875Y199199D02*
X344325Y199199D01*
X344325Y199626D02*
X346875Y199626D01*
X346875Y200053D02*
X344325Y200053D01*
X344325Y200480D02*
X346875Y200480D01*
X346875Y200907D02*
X344325Y200907D01*
X344325Y201334D02*
X346875Y201334D01*
X346875Y201761D02*
X344325Y201761D01*
X344325Y202188D02*
X346875Y202188D01*
X346875Y202615D02*
X344325Y202615D01*
X344325Y203042D02*
X346875Y203042D01*
X346875Y203469D02*
X344325Y203469D01*
X344325Y203896D02*
X346875Y203896D01*
X346875Y204323D02*
X344325Y204323D01*
X344325Y204750D02*
X346875Y204750D01*
X346875Y205177D02*
X344325Y205177D01*
X344325Y205604D02*
X346875Y205604D01*
X346875Y206031D02*
X344325Y206031D01*
X344325Y206458D02*
X346875Y206458D01*
X346875Y206885D02*
X344325Y206885D01*
X344325Y207312D02*
X346875Y207312D01*
X346875Y207739D02*
X344325Y207739D01*
X344325Y208166D02*
X346875Y208166D01*
X346875Y208593D02*
X344325Y208593D01*
X344325Y209020D02*
X346875Y209020D01*
X341825Y133625D02*
X341825Y118575D01*
X341825Y133625D02*
X344375Y133625D01*
X344375Y118575D01*
X341825Y118575D01*
X341825Y119002D02*
X344375Y119002D01*
X344375Y119429D02*
X341825Y119429D01*
X341825Y119856D02*
X344375Y119856D01*
X344375Y120283D02*
X341825Y120283D01*
X341825Y120710D02*
X344375Y120710D01*
X344375Y121137D02*
X341825Y121137D01*
X341825Y121564D02*
X344375Y121564D01*
X344375Y121991D02*
X341825Y121991D01*
X341825Y122418D02*
X344375Y122418D01*
X344375Y122845D02*
X341825Y122845D01*
X341825Y123272D02*
X344375Y123272D01*
X344375Y123699D02*
X341825Y123699D01*
X341825Y124126D02*
X344375Y124126D01*
X344375Y124553D02*
X341825Y124553D01*
X341825Y124980D02*
X344375Y124980D01*
X344375Y125407D02*
X341825Y125407D01*
X341825Y125834D02*
X344375Y125834D01*
X344375Y126261D02*
X341825Y126261D01*
X341825Y126688D02*
X344375Y126688D01*
X344375Y127115D02*
X341825Y127115D01*
X341825Y127542D02*
X344375Y127542D01*
X344375Y127969D02*
X341825Y127969D01*
X341825Y128396D02*
X344375Y128396D01*
X344375Y128823D02*
X341825Y128823D01*
X341825Y129250D02*
X344375Y129250D01*
X344375Y129677D02*
X341825Y129677D01*
X341825Y130104D02*
X344375Y130104D01*
X344375Y130531D02*
X341825Y130531D01*
X341825Y130958D02*
X344375Y130958D01*
X344375Y131385D02*
X341825Y131385D01*
X341825Y131812D02*
X344375Y131812D01*
X344375Y132239D02*
X341825Y132239D01*
X341825Y132666D02*
X344375Y132666D01*
X344375Y133093D02*
X341825Y133093D01*
X341825Y133520D02*
X344375Y133520D01*
X339325Y194075D02*
X339325Y209125D01*
X341875Y209125D01*
X341875Y194075D01*
X339325Y194075D01*
X339325Y194502D02*
X341875Y194502D01*
X341875Y194929D02*
X339325Y194929D01*
X339325Y195356D02*
X341875Y195356D01*
X341875Y195783D02*
X339325Y195783D01*
X339325Y196210D02*
X341875Y196210D01*
X341875Y196637D02*
X339325Y196637D01*
X339325Y197064D02*
X341875Y197064D01*
X341875Y197491D02*
X339325Y197491D01*
X339325Y197918D02*
X341875Y197918D01*
X341875Y198345D02*
X339325Y198345D01*
X339325Y198772D02*
X341875Y198772D01*
X341875Y199199D02*
X339325Y199199D01*
X339325Y199626D02*
X341875Y199626D01*
X341875Y200053D02*
X339325Y200053D01*
X339325Y200480D02*
X341875Y200480D01*
X341875Y200907D02*
X339325Y200907D01*
X339325Y201334D02*
X341875Y201334D01*
X341875Y201761D02*
X339325Y201761D01*
X339325Y202188D02*
X341875Y202188D01*
X341875Y202615D02*
X339325Y202615D01*
X339325Y203042D02*
X341875Y203042D01*
X341875Y203469D02*
X339325Y203469D01*
X339325Y203896D02*
X341875Y203896D01*
X341875Y204323D02*
X339325Y204323D01*
X339325Y204750D02*
X341875Y204750D01*
X341875Y205177D02*
X339325Y205177D01*
X339325Y205604D02*
X341875Y205604D01*
X341875Y206031D02*
X339325Y206031D01*
X339325Y206458D02*
X341875Y206458D01*
X341875Y206885D02*
X339325Y206885D01*
X339325Y207312D02*
X341875Y207312D01*
X341875Y207739D02*
X339325Y207739D01*
X339325Y208166D02*
X341875Y208166D01*
X341875Y208593D02*
X339325Y208593D01*
X339325Y209020D02*
X341875Y209020D01*
X336825Y133625D02*
X336825Y118575D01*
X336825Y133625D02*
X339375Y133625D01*
X339375Y118575D01*
X336825Y118575D01*
X336825Y119002D02*
X339375Y119002D01*
X339375Y119429D02*
X336825Y119429D01*
X336825Y119856D02*
X339375Y119856D01*
X339375Y120283D02*
X336825Y120283D01*
X336825Y120710D02*
X339375Y120710D01*
X339375Y121137D02*
X336825Y121137D01*
X336825Y121564D02*
X339375Y121564D01*
X339375Y121991D02*
X336825Y121991D01*
X336825Y122418D02*
X339375Y122418D01*
X339375Y122845D02*
X336825Y122845D01*
X336825Y123272D02*
X339375Y123272D01*
X339375Y123699D02*
X336825Y123699D01*
X336825Y124126D02*
X339375Y124126D01*
X339375Y124553D02*
X336825Y124553D01*
X336825Y124980D02*
X339375Y124980D01*
X339375Y125407D02*
X336825Y125407D01*
X336825Y125834D02*
X339375Y125834D01*
X339375Y126261D02*
X336825Y126261D01*
X336825Y126688D02*
X339375Y126688D01*
X339375Y127115D02*
X336825Y127115D01*
X336825Y127542D02*
X339375Y127542D01*
X339375Y127969D02*
X336825Y127969D01*
X336825Y128396D02*
X339375Y128396D01*
X339375Y128823D02*
X336825Y128823D01*
X336825Y129250D02*
X339375Y129250D01*
X339375Y129677D02*
X336825Y129677D01*
X336825Y130104D02*
X339375Y130104D01*
X339375Y130531D02*
X336825Y130531D01*
X336825Y130958D02*
X339375Y130958D01*
X339375Y131385D02*
X336825Y131385D01*
X336825Y131812D02*
X339375Y131812D01*
X339375Y132239D02*
X336825Y132239D01*
X336825Y132666D02*
X339375Y132666D01*
X339375Y133093D02*
X336825Y133093D01*
X336825Y133520D02*
X339375Y133520D01*
X334325Y194075D02*
X334325Y209125D01*
X336875Y209125D01*
X336875Y194075D01*
X334325Y194075D01*
X334325Y194502D02*
X336875Y194502D01*
X336875Y194929D02*
X334325Y194929D01*
X334325Y195356D02*
X336875Y195356D01*
X336875Y195783D02*
X334325Y195783D01*
X334325Y196210D02*
X336875Y196210D01*
X336875Y196637D02*
X334325Y196637D01*
X334325Y197064D02*
X336875Y197064D01*
X336875Y197491D02*
X334325Y197491D01*
X334325Y197918D02*
X336875Y197918D01*
X336875Y198345D02*
X334325Y198345D01*
X334325Y198772D02*
X336875Y198772D01*
X336875Y199199D02*
X334325Y199199D01*
X334325Y199626D02*
X336875Y199626D01*
X336875Y200053D02*
X334325Y200053D01*
X334325Y200480D02*
X336875Y200480D01*
X336875Y200907D02*
X334325Y200907D01*
X334325Y201334D02*
X336875Y201334D01*
X336875Y201761D02*
X334325Y201761D01*
X334325Y202188D02*
X336875Y202188D01*
X336875Y202615D02*
X334325Y202615D01*
X334325Y203042D02*
X336875Y203042D01*
X336875Y203469D02*
X334325Y203469D01*
X334325Y203896D02*
X336875Y203896D01*
X336875Y204323D02*
X334325Y204323D01*
X334325Y204750D02*
X336875Y204750D01*
X336875Y205177D02*
X334325Y205177D01*
X334325Y205604D02*
X336875Y205604D01*
X336875Y206031D02*
X334325Y206031D01*
X334325Y206458D02*
X336875Y206458D01*
X336875Y206885D02*
X334325Y206885D01*
X334325Y207312D02*
X336875Y207312D01*
X336875Y207739D02*
X334325Y207739D01*
X334325Y208166D02*
X336875Y208166D01*
X336875Y208593D02*
X334325Y208593D01*
X334325Y209020D02*
X336875Y209020D01*
X331825Y133625D02*
X331825Y118575D01*
X331825Y133625D02*
X334375Y133625D01*
X334375Y118575D01*
X331825Y118575D01*
X331825Y119002D02*
X334375Y119002D01*
X334375Y119429D02*
X331825Y119429D01*
X331825Y119856D02*
X334375Y119856D01*
X334375Y120283D02*
X331825Y120283D01*
X331825Y120710D02*
X334375Y120710D01*
X334375Y121137D02*
X331825Y121137D01*
X331825Y121564D02*
X334375Y121564D01*
X334375Y121991D02*
X331825Y121991D01*
X331825Y122418D02*
X334375Y122418D01*
X334375Y122845D02*
X331825Y122845D01*
X331825Y123272D02*
X334375Y123272D01*
X334375Y123699D02*
X331825Y123699D01*
X331825Y124126D02*
X334375Y124126D01*
X334375Y124553D02*
X331825Y124553D01*
X331825Y124980D02*
X334375Y124980D01*
X334375Y125407D02*
X331825Y125407D01*
X331825Y125834D02*
X334375Y125834D01*
X334375Y126261D02*
X331825Y126261D01*
X331825Y126688D02*
X334375Y126688D01*
X334375Y127115D02*
X331825Y127115D01*
X331825Y127542D02*
X334375Y127542D01*
X334375Y127969D02*
X331825Y127969D01*
X331825Y128396D02*
X334375Y128396D01*
X334375Y128823D02*
X331825Y128823D01*
X331825Y129250D02*
X334375Y129250D01*
X334375Y129677D02*
X331825Y129677D01*
X331825Y130104D02*
X334375Y130104D01*
X334375Y130531D02*
X331825Y130531D01*
X331825Y130958D02*
X334375Y130958D01*
X334375Y131385D02*
X331825Y131385D01*
X331825Y131812D02*
X334375Y131812D01*
X334375Y132239D02*
X331825Y132239D01*
X331825Y132666D02*
X334375Y132666D01*
X334375Y133093D02*
X331825Y133093D01*
X331825Y133520D02*
X334375Y133520D01*
X329325Y194075D02*
X329325Y209125D01*
X331875Y209125D01*
X331875Y194075D01*
X329325Y194075D01*
X329325Y194502D02*
X331875Y194502D01*
X331875Y194929D02*
X329325Y194929D01*
X329325Y195356D02*
X331875Y195356D01*
X331875Y195783D02*
X329325Y195783D01*
X329325Y196210D02*
X331875Y196210D01*
X331875Y196637D02*
X329325Y196637D01*
X329325Y197064D02*
X331875Y197064D01*
X331875Y197491D02*
X329325Y197491D01*
X329325Y197918D02*
X331875Y197918D01*
X331875Y198345D02*
X329325Y198345D01*
X329325Y198772D02*
X331875Y198772D01*
X331875Y199199D02*
X329325Y199199D01*
X329325Y199626D02*
X331875Y199626D01*
X331875Y200053D02*
X329325Y200053D01*
X329325Y200480D02*
X331875Y200480D01*
X331875Y200907D02*
X329325Y200907D01*
X329325Y201334D02*
X331875Y201334D01*
X331875Y201761D02*
X329325Y201761D01*
X329325Y202188D02*
X331875Y202188D01*
X331875Y202615D02*
X329325Y202615D01*
X329325Y203042D02*
X331875Y203042D01*
X331875Y203469D02*
X329325Y203469D01*
X329325Y203896D02*
X331875Y203896D01*
X331875Y204323D02*
X329325Y204323D01*
X329325Y204750D02*
X331875Y204750D01*
X331875Y205177D02*
X329325Y205177D01*
X329325Y205604D02*
X331875Y205604D01*
X331875Y206031D02*
X329325Y206031D01*
X329325Y206458D02*
X331875Y206458D01*
X331875Y206885D02*
X329325Y206885D01*
X329325Y207312D02*
X331875Y207312D01*
X331875Y207739D02*
X329325Y207739D01*
X329325Y208166D02*
X331875Y208166D01*
X331875Y208593D02*
X329325Y208593D01*
X329325Y209020D02*
X331875Y209020D01*
X326825Y133625D02*
X326825Y118575D01*
X326825Y133625D02*
X329375Y133625D01*
X329375Y118575D01*
X326825Y118575D01*
X326825Y119002D02*
X329375Y119002D01*
X329375Y119429D02*
X326825Y119429D01*
X326825Y119856D02*
X329375Y119856D01*
X329375Y120283D02*
X326825Y120283D01*
X326825Y120710D02*
X329375Y120710D01*
X329375Y121137D02*
X326825Y121137D01*
X326825Y121564D02*
X329375Y121564D01*
X329375Y121991D02*
X326825Y121991D01*
X326825Y122418D02*
X329375Y122418D01*
X329375Y122845D02*
X326825Y122845D01*
X326825Y123272D02*
X329375Y123272D01*
X329375Y123699D02*
X326825Y123699D01*
X326825Y124126D02*
X329375Y124126D01*
X329375Y124553D02*
X326825Y124553D01*
X326825Y124980D02*
X329375Y124980D01*
X329375Y125407D02*
X326825Y125407D01*
X326825Y125834D02*
X329375Y125834D01*
X329375Y126261D02*
X326825Y126261D01*
X326825Y126688D02*
X329375Y126688D01*
X329375Y127115D02*
X326825Y127115D01*
X326825Y127542D02*
X329375Y127542D01*
X329375Y127969D02*
X326825Y127969D01*
X326825Y128396D02*
X329375Y128396D01*
X329375Y128823D02*
X326825Y128823D01*
X326825Y129250D02*
X329375Y129250D01*
X329375Y129677D02*
X326825Y129677D01*
X326825Y130104D02*
X329375Y130104D01*
X329375Y130531D02*
X326825Y130531D01*
X326825Y130958D02*
X329375Y130958D01*
X329375Y131385D02*
X326825Y131385D01*
X326825Y131812D02*
X329375Y131812D01*
X329375Y132239D02*
X326825Y132239D01*
X326825Y132666D02*
X329375Y132666D01*
X329375Y133093D02*
X326825Y133093D01*
X326825Y133520D02*
X329375Y133520D01*
X324325Y194075D02*
X324325Y209125D01*
X326875Y209125D01*
X326875Y194075D01*
X324325Y194075D01*
X324325Y194502D02*
X326875Y194502D01*
X326875Y194929D02*
X324325Y194929D01*
X324325Y195356D02*
X326875Y195356D01*
X326875Y195783D02*
X324325Y195783D01*
X324325Y196210D02*
X326875Y196210D01*
X326875Y196637D02*
X324325Y196637D01*
X324325Y197064D02*
X326875Y197064D01*
X326875Y197491D02*
X324325Y197491D01*
X324325Y197918D02*
X326875Y197918D01*
X326875Y198345D02*
X324325Y198345D01*
X324325Y198772D02*
X326875Y198772D01*
X326875Y199199D02*
X324325Y199199D01*
X324325Y199626D02*
X326875Y199626D01*
X326875Y200053D02*
X324325Y200053D01*
X324325Y200480D02*
X326875Y200480D01*
X326875Y200907D02*
X324325Y200907D01*
X324325Y201334D02*
X326875Y201334D01*
X326875Y201761D02*
X324325Y201761D01*
X324325Y202188D02*
X326875Y202188D01*
X326875Y202615D02*
X324325Y202615D01*
X324325Y203042D02*
X326875Y203042D01*
X326875Y203469D02*
X324325Y203469D01*
X324325Y203896D02*
X326875Y203896D01*
X326875Y204323D02*
X324325Y204323D01*
X324325Y204750D02*
X326875Y204750D01*
X326875Y205177D02*
X324325Y205177D01*
X324325Y205604D02*
X326875Y205604D01*
X326875Y206031D02*
X324325Y206031D01*
X324325Y206458D02*
X326875Y206458D01*
X326875Y206885D02*
X324325Y206885D01*
X324325Y207312D02*
X326875Y207312D01*
X326875Y207739D02*
X324325Y207739D01*
X324325Y208166D02*
X326875Y208166D01*
X326875Y208593D02*
X324325Y208593D01*
X324325Y209020D02*
X326875Y209020D01*
X321825Y133625D02*
X321825Y118575D01*
X321825Y133625D02*
X324375Y133625D01*
X324375Y118575D01*
X321825Y118575D01*
X321825Y119002D02*
X324375Y119002D01*
X324375Y119429D02*
X321825Y119429D01*
X321825Y119856D02*
X324375Y119856D01*
X324375Y120283D02*
X321825Y120283D01*
X321825Y120710D02*
X324375Y120710D01*
X324375Y121137D02*
X321825Y121137D01*
X321825Y121564D02*
X324375Y121564D01*
X324375Y121991D02*
X321825Y121991D01*
X321825Y122418D02*
X324375Y122418D01*
X324375Y122845D02*
X321825Y122845D01*
X321825Y123272D02*
X324375Y123272D01*
X324375Y123699D02*
X321825Y123699D01*
X321825Y124126D02*
X324375Y124126D01*
X324375Y124553D02*
X321825Y124553D01*
X321825Y124980D02*
X324375Y124980D01*
X324375Y125407D02*
X321825Y125407D01*
X321825Y125834D02*
X324375Y125834D01*
X324375Y126261D02*
X321825Y126261D01*
X321825Y126688D02*
X324375Y126688D01*
X324375Y127115D02*
X321825Y127115D01*
X321825Y127542D02*
X324375Y127542D01*
X324375Y127969D02*
X321825Y127969D01*
X321825Y128396D02*
X324375Y128396D01*
X324375Y128823D02*
X321825Y128823D01*
X321825Y129250D02*
X324375Y129250D01*
X324375Y129677D02*
X321825Y129677D01*
X321825Y130104D02*
X324375Y130104D01*
X324375Y130531D02*
X321825Y130531D01*
X321825Y130958D02*
X324375Y130958D01*
X324375Y131385D02*
X321825Y131385D01*
X321825Y131812D02*
X324375Y131812D01*
X324375Y132239D02*
X321825Y132239D01*
X321825Y132666D02*
X324375Y132666D01*
X324375Y133093D02*
X321825Y133093D01*
X321825Y133520D02*
X324375Y133520D01*
X319325Y194075D02*
X319325Y209125D01*
X321875Y209125D01*
X321875Y194075D01*
X319325Y194075D01*
X319325Y194502D02*
X321875Y194502D01*
X321875Y194929D02*
X319325Y194929D01*
X319325Y195356D02*
X321875Y195356D01*
X321875Y195783D02*
X319325Y195783D01*
X319325Y196210D02*
X321875Y196210D01*
X321875Y196637D02*
X319325Y196637D01*
X319325Y197064D02*
X321875Y197064D01*
X321875Y197491D02*
X319325Y197491D01*
X319325Y197918D02*
X321875Y197918D01*
X321875Y198345D02*
X319325Y198345D01*
X319325Y198772D02*
X321875Y198772D01*
X321875Y199199D02*
X319325Y199199D01*
X319325Y199626D02*
X321875Y199626D01*
X321875Y200053D02*
X319325Y200053D01*
X319325Y200480D02*
X321875Y200480D01*
X321875Y200907D02*
X319325Y200907D01*
X319325Y201334D02*
X321875Y201334D01*
X321875Y201761D02*
X319325Y201761D01*
X319325Y202188D02*
X321875Y202188D01*
X321875Y202615D02*
X319325Y202615D01*
X319325Y203042D02*
X321875Y203042D01*
X321875Y203469D02*
X319325Y203469D01*
X319325Y203896D02*
X321875Y203896D01*
X321875Y204323D02*
X319325Y204323D01*
X319325Y204750D02*
X321875Y204750D01*
X321875Y205177D02*
X319325Y205177D01*
X319325Y205604D02*
X321875Y205604D01*
X321875Y206031D02*
X319325Y206031D01*
X319325Y206458D02*
X321875Y206458D01*
X321875Y206885D02*
X319325Y206885D01*
X319325Y207312D02*
X321875Y207312D01*
X321875Y207739D02*
X319325Y207739D01*
X319325Y208166D02*
X321875Y208166D01*
X321875Y208593D02*
X319325Y208593D01*
X319325Y209020D02*
X321875Y209020D01*
X316825Y133625D02*
X316825Y118575D01*
X316825Y133625D02*
X319375Y133625D01*
X319375Y118575D01*
X316825Y118575D01*
X316825Y119002D02*
X319375Y119002D01*
X319375Y119429D02*
X316825Y119429D01*
X316825Y119856D02*
X319375Y119856D01*
X319375Y120283D02*
X316825Y120283D01*
X316825Y120710D02*
X319375Y120710D01*
X319375Y121137D02*
X316825Y121137D01*
X316825Y121564D02*
X319375Y121564D01*
X319375Y121991D02*
X316825Y121991D01*
X316825Y122418D02*
X319375Y122418D01*
X319375Y122845D02*
X316825Y122845D01*
X316825Y123272D02*
X319375Y123272D01*
X319375Y123699D02*
X316825Y123699D01*
X316825Y124126D02*
X319375Y124126D01*
X319375Y124553D02*
X316825Y124553D01*
X316825Y124980D02*
X319375Y124980D01*
X319375Y125407D02*
X316825Y125407D01*
X316825Y125834D02*
X319375Y125834D01*
X319375Y126261D02*
X316825Y126261D01*
X316825Y126688D02*
X319375Y126688D01*
X319375Y127115D02*
X316825Y127115D01*
X316825Y127542D02*
X319375Y127542D01*
X319375Y127969D02*
X316825Y127969D01*
X316825Y128396D02*
X319375Y128396D01*
X319375Y128823D02*
X316825Y128823D01*
X316825Y129250D02*
X319375Y129250D01*
X319375Y129677D02*
X316825Y129677D01*
X316825Y130104D02*
X319375Y130104D01*
X319375Y130531D02*
X316825Y130531D01*
X316825Y130958D02*
X319375Y130958D01*
X319375Y131385D02*
X316825Y131385D01*
X316825Y131812D02*
X319375Y131812D01*
X319375Y132239D02*
X316825Y132239D01*
X316825Y132666D02*
X319375Y132666D01*
X319375Y133093D02*
X316825Y133093D01*
X316825Y133520D02*
X319375Y133520D01*
X314325Y194075D02*
X314325Y209125D01*
X316875Y209125D01*
X316875Y194075D01*
X314325Y194075D01*
X314325Y194502D02*
X316875Y194502D01*
X316875Y194929D02*
X314325Y194929D01*
X314325Y195356D02*
X316875Y195356D01*
X316875Y195783D02*
X314325Y195783D01*
X314325Y196210D02*
X316875Y196210D01*
X316875Y196637D02*
X314325Y196637D01*
X314325Y197064D02*
X316875Y197064D01*
X316875Y197491D02*
X314325Y197491D01*
X314325Y197918D02*
X316875Y197918D01*
X316875Y198345D02*
X314325Y198345D01*
X314325Y198772D02*
X316875Y198772D01*
X316875Y199199D02*
X314325Y199199D01*
X314325Y199626D02*
X316875Y199626D01*
X316875Y200053D02*
X314325Y200053D01*
X314325Y200480D02*
X316875Y200480D01*
X316875Y200907D02*
X314325Y200907D01*
X314325Y201334D02*
X316875Y201334D01*
X316875Y201761D02*
X314325Y201761D01*
X314325Y202188D02*
X316875Y202188D01*
X316875Y202615D02*
X314325Y202615D01*
X314325Y203042D02*
X316875Y203042D01*
X316875Y203469D02*
X314325Y203469D01*
X314325Y203896D02*
X316875Y203896D01*
X316875Y204323D02*
X314325Y204323D01*
X314325Y204750D02*
X316875Y204750D01*
X316875Y205177D02*
X314325Y205177D01*
X314325Y205604D02*
X316875Y205604D01*
X316875Y206031D02*
X314325Y206031D01*
X314325Y206458D02*
X316875Y206458D01*
X316875Y206885D02*
X314325Y206885D01*
X314325Y207312D02*
X316875Y207312D01*
X316875Y207739D02*
X314325Y207739D01*
X314325Y208166D02*
X316875Y208166D01*
X316875Y208593D02*
X314325Y208593D01*
X314325Y209020D02*
X316875Y209020D01*
X311825Y133625D02*
X311825Y118575D01*
X311825Y133625D02*
X314375Y133625D01*
X314375Y118575D01*
X311825Y118575D01*
X311825Y119002D02*
X314375Y119002D01*
X314375Y119429D02*
X311825Y119429D01*
X311825Y119856D02*
X314375Y119856D01*
X314375Y120283D02*
X311825Y120283D01*
X311825Y120710D02*
X314375Y120710D01*
X314375Y121137D02*
X311825Y121137D01*
X311825Y121564D02*
X314375Y121564D01*
X314375Y121991D02*
X311825Y121991D01*
X311825Y122418D02*
X314375Y122418D01*
X314375Y122845D02*
X311825Y122845D01*
X311825Y123272D02*
X314375Y123272D01*
X314375Y123699D02*
X311825Y123699D01*
X311825Y124126D02*
X314375Y124126D01*
X314375Y124553D02*
X311825Y124553D01*
X311825Y124980D02*
X314375Y124980D01*
X314375Y125407D02*
X311825Y125407D01*
X311825Y125834D02*
X314375Y125834D01*
X314375Y126261D02*
X311825Y126261D01*
X311825Y126688D02*
X314375Y126688D01*
X314375Y127115D02*
X311825Y127115D01*
X311825Y127542D02*
X314375Y127542D01*
X314375Y127969D02*
X311825Y127969D01*
X311825Y128396D02*
X314375Y128396D01*
X314375Y128823D02*
X311825Y128823D01*
X311825Y129250D02*
X314375Y129250D01*
X314375Y129677D02*
X311825Y129677D01*
X311825Y130104D02*
X314375Y130104D01*
X314375Y130531D02*
X311825Y130531D01*
X311825Y130958D02*
X314375Y130958D01*
X314375Y131385D02*
X311825Y131385D01*
X311825Y131812D02*
X314375Y131812D01*
X314375Y132239D02*
X311825Y132239D01*
X311825Y132666D02*
X314375Y132666D01*
X314375Y133093D02*
X311825Y133093D01*
X311825Y133520D02*
X314375Y133520D01*
X309325Y194075D02*
X309325Y209125D01*
X311875Y209125D01*
X311875Y194075D01*
X309325Y194075D01*
X309325Y194502D02*
X311875Y194502D01*
X311875Y194929D02*
X309325Y194929D01*
X309325Y195356D02*
X311875Y195356D01*
X311875Y195783D02*
X309325Y195783D01*
X309325Y196210D02*
X311875Y196210D01*
X311875Y196637D02*
X309325Y196637D01*
X309325Y197064D02*
X311875Y197064D01*
X311875Y197491D02*
X309325Y197491D01*
X309325Y197918D02*
X311875Y197918D01*
X311875Y198345D02*
X309325Y198345D01*
X309325Y198772D02*
X311875Y198772D01*
X311875Y199199D02*
X309325Y199199D01*
X309325Y199626D02*
X311875Y199626D01*
X311875Y200053D02*
X309325Y200053D01*
X309325Y200480D02*
X311875Y200480D01*
X311875Y200907D02*
X309325Y200907D01*
X309325Y201334D02*
X311875Y201334D01*
X311875Y201761D02*
X309325Y201761D01*
X309325Y202188D02*
X311875Y202188D01*
X311875Y202615D02*
X309325Y202615D01*
X309325Y203042D02*
X311875Y203042D01*
X311875Y203469D02*
X309325Y203469D01*
X309325Y203896D02*
X311875Y203896D01*
X311875Y204323D02*
X309325Y204323D01*
X309325Y204750D02*
X311875Y204750D01*
X311875Y205177D02*
X309325Y205177D01*
X309325Y205604D02*
X311875Y205604D01*
X311875Y206031D02*
X309325Y206031D01*
X309325Y206458D02*
X311875Y206458D01*
X311875Y206885D02*
X309325Y206885D01*
X309325Y207312D02*
X311875Y207312D01*
X311875Y207739D02*
X309325Y207739D01*
X309325Y208166D02*
X311875Y208166D01*
X311875Y208593D02*
X309325Y208593D01*
X309325Y209020D02*
X311875Y209020D01*
X306825Y133625D02*
X306825Y118575D01*
X306825Y133625D02*
X309375Y133625D01*
X309375Y118575D01*
X306825Y118575D01*
X306825Y119002D02*
X309375Y119002D01*
X309375Y119429D02*
X306825Y119429D01*
X306825Y119856D02*
X309375Y119856D01*
X309375Y120283D02*
X306825Y120283D01*
X306825Y120710D02*
X309375Y120710D01*
X309375Y121137D02*
X306825Y121137D01*
X306825Y121564D02*
X309375Y121564D01*
X309375Y121991D02*
X306825Y121991D01*
X306825Y122418D02*
X309375Y122418D01*
X309375Y122845D02*
X306825Y122845D01*
X306825Y123272D02*
X309375Y123272D01*
X309375Y123699D02*
X306825Y123699D01*
X306825Y124126D02*
X309375Y124126D01*
X309375Y124553D02*
X306825Y124553D01*
X306825Y124980D02*
X309375Y124980D01*
X309375Y125407D02*
X306825Y125407D01*
X306825Y125834D02*
X309375Y125834D01*
X309375Y126261D02*
X306825Y126261D01*
X306825Y126688D02*
X309375Y126688D01*
X309375Y127115D02*
X306825Y127115D01*
X306825Y127542D02*
X309375Y127542D01*
X309375Y127969D02*
X306825Y127969D01*
X306825Y128396D02*
X309375Y128396D01*
X309375Y128823D02*
X306825Y128823D01*
X306825Y129250D02*
X309375Y129250D01*
X309375Y129677D02*
X306825Y129677D01*
X306825Y130104D02*
X309375Y130104D01*
X309375Y130531D02*
X306825Y130531D01*
X306825Y130958D02*
X309375Y130958D01*
X309375Y131385D02*
X306825Y131385D01*
X306825Y131812D02*
X309375Y131812D01*
X309375Y132239D02*
X306825Y132239D01*
X306825Y132666D02*
X309375Y132666D01*
X309375Y133093D02*
X306825Y133093D01*
X306825Y133520D02*
X309375Y133520D01*
X304325Y194075D02*
X304325Y209125D01*
X306875Y209125D01*
X306875Y194075D01*
X304325Y194075D01*
X304325Y194502D02*
X306875Y194502D01*
X306875Y194929D02*
X304325Y194929D01*
X304325Y195356D02*
X306875Y195356D01*
X306875Y195783D02*
X304325Y195783D01*
X304325Y196210D02*
X306875Y196210D01*
X306875Y196637D02*
X304325Y196637D01*
X304325Y197064D02*
X306875Y197064D01*
X306875Y197491D02*
X304325Y197491D01*
X304325Y197918D02*
X306875Y197918D01*
X306875Y198345D02*
X304325Y198345D01*
X304325Y198772D02*
X306875Y198772D01*
X306875Y199199D02*
X304325Y199199D01*
X304325Y199626D02*
X306875Y199626D01*
X306875Y200053D02*
X304325Y200053D01*
X304325Y200480D02*
X306875Y200480D01*
X306875Y200907D02*
X304325Y200907D01*
X304325Y201334D02*
X306875Y201334D01*
X306875Y201761D02*
X304325Y201761D01*
X304325Y202188D02*
X306875Y202188D01*
X306875Y202615D02*
X304325Y202615D01*
X304325Y203042D02*
X306875Y203042D01*
X306875Y203469D02*
X304325Y203469D01*
X304325Y203896D02*
X306875Y203896D01*
X306875Y204323D02*
X304325Y204323D01*
X304325Y204750D02*
X306875Y204750D01*
X306875Y205177D02*
X304325Y205177D01*
X304325Y205604D02*
X306875Y205604D01*
X306875Y206031D02*
X304325Y206031D01*
X304325Y206458D02*
X306875Y206458D01*
X306875Y206885D02*
X304325Y206885D01*
X304325Y207312D02*
X306875Y207312D01*
X306875Y207739D02*
X304325Y207739D01*
X304325Y208166D02*
X306875Y208166D01*
X306875Y208593D02*
X304325Y208593D01*
X304325Y209020D02*
X306875Y209020D01*
X301825Y133625D02*
X301825Y118575D01*
X301825Y133625D02*
X304375Y133625D01*
X304375Y118575D01*
X301825Y118575D01*
X301825Y119002D02*
X304375Y119002D01*
X304375Y119429D02*
X301825Y119429D01*
X301825Y119856D02*
X304375Y119856D01*
X304375Y120283D02*
X301825Y120283D01*
X301825Y120710D02*
X304375Y120710D01*
X304375Y121137D02*
X301825Y121137D01*
X301825Y121564D02*
X304375Y121564D01*
X304375Y121991D02*
X301825Y121991D01*
X301825Y122418D02*
X304375Y122418D01*
X304375Y122845D02*
X301825Y122845D01*
X301825Y123272D02*
X304375Y123272D01*
X304375Y123699D02*
X301825Y123699D01*
X301825Y124126D02*
X304375Y124126D01*
X304375Y124553D02*
X301825Y124553D01*
X301825Y124980D02*
X304375Y124980D01*
X304375Y125407D02*
X301825Y125407D01*
X301825Y125834D02*
X304375Y125834D01*
X304375Y126261D02*
X301825Y126261D01*
X301825Y126688D02*
X304375Y126688D01*
X304375Y127115D02*
X301825Y127115D01*
X301825Y127542D02*
X304375Y127542D01*
X304375Y127969D02*
X301825Y127969D01*
X301825Y128396D02*
X304375Y128396D01*
X304375Y128823D02*
X301825Y128823D01*
X301825Y129250D02*
X304375Y129250D01*
X304375Y129677D02*
X301825Y129677D01*
X301825Y130104D02*
X304375Y130104D01*
X304375Y130531D02*
X301825Y130531D01*
X301825Y130958D02*
X304375Y130958D01*
X304375Y131385D02*
X301825Y131385D01*
X301825Y131812D02*
X304375Y131812D01*
X304375Y132239D02*
X301825Y132239D01*
X301825Y132666D02*
X304375Y132666D01*
X304375Y133093D02*
X301825Y133093D01*
X301825Y133520D02*
X304375Y133520D01*
X299325Y194075D02*
X299325Y209125D01*
X301875Y209125D01*
X301875Y194075D01*
X299325Y194075D01*
X299325Y194502D02*
X301875Y194502D01*
X301875Y194929D02*
X299325Y194929D01*
X299325Y195356D02*
X301875Y195356D01*
X301875Y195783D02*
X299325Y195783D01*
X299325Y196210D02*
X301875Y196210D01*
X301875Y196637D02*
X299325Y196637D01*
X299325Y197064D02*
X301875Y197064D01*
X301875Y197491D02*
X299325Y197491D01*
X299325Y197918D02*
X301875Y197918D01*
X301875Y198345D02*
X299325Y198345D01*
X299325Y198772D02*
X301875Y198772D01*
X301875Y199199D02*
X299325Y199199D01*
X299325Y199626D02*
X301875Y199626D01*
X301875Y200053D02*
X299325Y200053D01*
X299325Y200480D02*
X301875Y200480D01*
X301875Y200907D02*
X299325Y200907D01*
X299325Y201334D02*
X301875Y201334D01*
X301875Y201761D02*
X299325Y201761D01*
X299325Y202188D02*
X301875Y202188D01*
X301875Y202615D02*
X299325Y202615D01*
X299325Y203042D02*
X301875Y203042D01*
X301875Y203469D02*
X299325Y203469D01*
X299325Y203896D02*
X301875Y203896D01*
X301875Y204323D02*
X299325Y204323D01*
X299325Y204750D02*
X301875Y204750D01*
X301875Y205177D02*
X299325Y205177D01*
X299325Y205604D02*
X301875Y205604D01*
X301875Y206031D02*
X299325Y206031D01*
X299325Y206458D02*
X301875Y206458D01*
X301875Y206885D02*
X299325Y206885D01*
X299325Y207312D02*
X301875Y207312D01*
X301875Y207739D02*
X299325Y207739D01*
X299325Y208166D02*
X301875Y208166D01*
X301875Y208593D02*
X299325Y208593D01*
X299325Y209020D02*
X301875Y209020D01*
X296825Y133625D02*
X296825Y118575D01*
X296825Y133625D02*
X299375Y133625D01*
X299375Y118575D01*
X296825Y118575D01*
X296825Y119002D02*
X299375Y119002D01*
X299375Y119429D02*
X296825Y119429D01*
X296825Y119856D02*
X299375Y119856D01*
X299375Y120283D02*
X296825Y120283D01*
X296825Y120710D02*
X299375Y120710D01*
X299375Y121137D02*
X296825Y121137D01*
X296825Y121564D02*
X299375Y121564D01*
X299375Y121991D02*
X296825Y121991D01*
X296825Y122418D02*
X299375Y122418D01*
X299375Y122845D02*
X296825Y122845D01*
X296825Y123272D02*
X299375Y123272D01*
X299375Y123699D02*
X296825Y123699D01*
X296825Y124126D02*
X299375Y124126D01*
X299375Y124553D02*
X296825Y124553D01*
X296825Y124980D02*
X299375Y124980D01*
X299375Y125407D02*
X296825Y125407D01*
X296825Y125834D02*
X299375Y125834D01*
X299375Y126261D02*
X296825Y126261D01*
X296825Y126688D02*
X299375Y126688D01*
X299375Y127115D02*
X296825Y127115D01*
X296825Y127542D02*
X299375Y127542D01*
X299375Y127969D02*
X296825Y127969D01*
X296825Y128396D02*
X299375Y128396D01*
X299375Y128823D02*
X296825Y128823D01*
X296825Y129250D02*
X299375Y129250D01*
X299375Y129677D02*
X296825Y129677D01*
X296825Y130104D02*
X299375Y130104D01*
X299375Y130531D02*
X296825Y130531D01*
X296825Y130958D02*
X299375Y130958D01*
X299375Y131385D02*
X296825Y131385D01*
X296825Y131812D02*
X299375Y131812D01*
X299375Y132239D02*
X296825Y132239D01*
X296825Y132666D02*
X299375Y132666D01*
X299375Y133093D02*
X296825Y133093D01*
X296825Y133520D02*
X299375Y133520D01*
X294325Y194075D02*
X294325Y209125D01*
X296875Y209125D01*
X296875Y194075D01*
X294325Y194075D01*
X294325Y194502D02*
X296875Y194502D01*
X296875Y194929D02*
X294325Y194929D01*
X294325Y195356D02*
X296875Y195356D01*
X296875Y195783D02*
X294325Y195783D01*
X294325Y196210D02*
X296875Y196210D01*
X296875Y196637D02*
X294325Y196637D01*
X294325Y197064D02*
X296875Y197064D01*
X296875Y197491D02*
X294325Y197491D01*
X294325Y197918D02*
X296875Y197918D01*
X296875Y198345D02*
X294325Y198345D01*
X294325Y198772D02*
X296875Y198772D01*
X296875Y199199D02*
X294325Y199199D01*
X294325Y199626D02*
X296875Y199626D01*
X296875Y200053D02*
X294325Y200053D01*
X294325Y200480D02*
X296875Y200480D01*
X296875Y200907D02*
X294325Y200907D01*
X294325Y201334D02*
X296875Y201334D01*
X296875Y201761D02*
X294325Y201761D01*
X294325Y202188D02*
X296875Y202188D01*
X296875Y202615D02*
X294325Y202615D01*
X294325Y203042D02*
X296875Y203042D01*
X296875Y203469D02*
X294325Y203469D01*
X294325Y203896D02*
X296875Y203896D01*
X296875Y204323D02*
X294325Y204323D01*
X294325Y204750D02*
X296875Y204750D01*
X296875Y205177D02*
X294325Y205177D01*
X294325Y205604D02*
X296875Y205604D01*
X296875Y206031D02*
X294325Y206031D01*
X294325Y206458D02*
X296875Y206458D01*
X296875Y206885D02*
X294325Y206885D01*
X294325Y207312D02*
X296875Y207312D01*
X296875Y207739D02*
X294325Y207739D01*
X294325Y208166D02*
X296875Y208166D01*
X296875Y208593D02*
X294325Y208593D01*
X294325Y209020D02*
X296875Y209020D01*
X291825Y133625D02*
X291825Y118575D01*
X291825Y133625D02*
X294375Y133625D01*
X294375Y118575D01*
X291825Y118575D01*
X291825Y119002D02*
X294375Y119002D01*
X294375Y119429D02*
X291825Y119429D01*
X291825Y119856D02*
X294375Y119856D01*
X294375Y120283D02*
X291825Y120283D01*
X291825Y120710D02*
X294375Y120710D01*
X294375Y121137D02*
X291825Y121137D01*
X291825Y121564D02*
X294375Y121564D01*
X294375Y121991D02*
X291825Y121991D01*
X291825Y122418D02*
X294375Y122418D01*
X294375Y122845D02*
X291825Y122845D01*
X291825Y123272D02*
X294375Y123272D01*
X294375Y123699D02*
X291825Y123699D01*
X291825Y124126D02*
X294375Y124126D01*
X294375Y124553D02*
X291825Y124553D01*
X291825Y124980D02*
X294375Y124980D01*
X294375Y125407D02*
X291825Y125407D01*
X291825Y125834D02*
X294375Y125834D01*
X294375Y126261D02*
X291825Y126261D01*
X291825Y126688D02*
X294375Y126688D01*
X294375Y127115D02*
X291825Y127115D01*
X291825Y127542D02*
X294375Y127542D01*
X294375Y127969D02*
X291825Y127969D01*
X291825Y128396D02*
X294375Y128396D01*
X294375Y128823D02*
X291825Y128823D01*
X291825Y129250D02*
X294375Y129250D01*
X294375Y129677D02*
X291825Y129677D01*
X291825Y130104D02*
X294375Y130104D01*
X294375Y130531D02*
X291825Y130531D01*
X291825Y130958D02*
X294375Y130958D01*
X294375Y131385D02*
X291825Y131385D01*
X291825Y131812D02*
X294375Y131812D01*
X294375Y132239D02*
X291825Y132239D01*
X291825Y132666D02*
X294375Y132666D01*
X294375Y133093D02*
X291825Y133093D01*
X291825Y133520D02*
X294375Y133520D01*
X289325Y194075D02*
X289325Y209125D01*
X291875Y209125D01*
X291875Y194075D01*
X289325Y194075D01*
X289325Y194502D02*
X291875Y194502D01*
X291875Y194929D02*
X289325Y194929D01*
X289325Y195356D02*
X291875Y195356D01*
X291875Y195783D02*
X289325Y195783D01*
X289325Y196210D02*
X291875Y196210D01*
X291875Y196637D02*
X289325Y196637D01*
X289325Y197064D02*
X291875Y197064D01*
X291875Y197491D02*
X289325Y197491D01*
X289325Y197918D02*
X291875Y197918D01*
X291875Y198345D02*
X289325Y198345D01*
X289325Y198772D02*
X291875Y198772D01*
X291875Y199199D02*
X289325Y199199D01*
X289325Y199626D02*
X291875Y199626D01*
X291875Y200053D02*
X289325Y200053D01*
X289325Y200480D02*
X291875Y200480D01*
X291875Y200907D02*
X289325Y200907D01*
X289325Y201334D02*
X291875Y201334D01*
X291875Y201761D02*
X289325Y201761D01*
X289325Y202188D02*
X291875Y202188D01*
X291875Y202615D02*
X289325Y202615D01*
X289325Y203042D02*
X291875Y203042D01*
X291875Y203469D02*
X289325Y203469D01*
X289325Y203896D02*
X291875Y203896D01*
X291875Y204323D02*
X289325Y204323D01*
X289325Y204750D02*
X291875Y204750D01*
X291875Y205177D02*
X289325Y205177D01*
X289325Y205604D02*
X291875Y205604D01*
X291875Y206031D02*
X289325Y206031D01*
X289325Y206458D02*
X291875Y206458D01*
X291875Y206885D02*
X289325Y206885D01*
X289325Y207312D02*
X291875Y207312D01*
X291875Y207739D02*
X289325Y207739D01*
X289325Y208166D02*
X291875Y208166D01*
X291875Y208593D02*
X289325Y208593D01*
X289325Y209020D02*
X291875Y209020D01*
X286825Y133625D02*
X286825Y118575D01*
X286825Y133625D02*
X289375Y133625D01*
X289375Y118575D01*
X286825Y118575D01*
X286825Y119002D02*
X289375Y119002D01*
X289375Y119429D02*
X286825Y119429D01*
X286825Y119856D02*
X289375Y119856D01*
X289375Y120283D02*
X286825Y120283D01*
X286825Y120710D02*
X289375Y120710D01*
X289375Y121137D02*
X286825Y121137D01*
X286825Y121564D02*
X289375Y121564D01*
X289375Y121991D02*
X286825Y121991D01*
X286825Y122418D02*
X289375Y122418D01*
X289375Y122845D02*
X286825Y122845D01*
X286825Y123272D02*
X289375Y123272D01*
X289375Y123699D02*
X286825Y123699D01*
X286825Y124126D02*
X289375Y124126D01*
X289375Y124553D02*
X286825Y124553D01*
X286825Y124980D02*
X289375Y124980D01*
X289375Y125407D02*
X286825Y125407D01*
X286825Y125834D02*
X289375Y125834D01*
X289375Y126261D02*
X286825Y126261D01*
X286825Y126688D02*
X289375Y126688D01*
X289375Y127115D02*
X286825Y127115D01*
X286825Y127542D02*
X289375Y127542D01*
X289375Y127969D02*
X286825Y127969D01*
X286825Y128396D02*
X289375Y128396D01*
X289375Y128823D02*
X286825Y128823D01*
X286825Y129250D02*
X289375Y129250D01*
X289375Y129677D02*
X286825Y129677D01*
X286825Y130104D02*
X289375Y130104D01*
X289375Y130531D02*
X286825Y130531D01*
X286825Y130958D02*
X289375Y130958D01*
X289375Y131385D02*
X286825Y131385D01*
X286825Y131812D02*
X289375Y131812D01*
X289375Y132239D02*
X286825Y132239D01*
X286825Y132666D02*
X289375Y132666D01*
X289375Y133093D02*
X286825Y133093D01*
X286825Y133520D02*
X289375Y133520D01*
X284325Y194075D02*
X284325Y209125D01*
X286875Y209125D01*
X286875Y194075D01*
X284325Y194075D01*
X284325Y194502D02*
X286875Y194502D01*
X286875Y194929D02*
X284325Y194929D01*
X284325Y195356D02*
X286875Y195356D01*
X286875Y195783D02*
X284325Y195783D01*
X284325Y196210D02*
X286875Y196210D01*
X286875Y196637D02*
X284325Y196637D01*
X284325Y197064D02*
X286875Y197064D01*
X286875Y197491D02*
X284325Y197491D01*
X284325Y197918D02*
X286875Y197918D01*
X286875Y198345D02*
X284325Y198345D01*
X284325Y198772D02*
X286875Y198772D01*
X286875Y199199D02*
X284325Y199199D01*
X284325Y199626D02*
X286875Y199626D01*
X286875Y200053D02*
X284325Y200053D01*
X284325Y200480D02*
X286875Y200480D01*
X286875Y200907D02*
X284325Y200907D01*
X284325Y201334D02*
X286875Y201334D01*
X286875Y201761D02*
X284325Y201761D01*
X284325Y202188D02*
X286875Y202188D01*
X286875Y202615D02*
X284325Y202615D01*
X284325Y203042D02*
X286875Y203042D01*
X286875Y203469D02*
X284325Y203469D01*
X284325Y203896D02*
X286875Y203896D01*
X286875Y204323D02*
X284325Y204323D01*
X284325Y204750D02*
X286875Y204750D01*
X286875Y205177D02*
X284325Y205177D01*
X284325Y205604D02*
X286875Y205604D01*
X286875Y206031D02*
X284325Y206031D01*
X284325Y206458D02*
X286875Y206458D01*
X286875Y206885D02*
X284325Y206885D01*
X284325Y207312D02*
X286875Y207312D01*
X286875Y207739D02*
X284325Y207739D01*
X284325Y208166D02*
X286875Y208166D01*
X286875Y208593D02*
X284325Y208593D01*
X284325Y209020D02*
X286875Y209020D01*
X281825Y133625D02*
X281825Y118575D01*
X281825Y133625D02*
X284375Y133625D01*
X284375Y118575D01*
X281825Y118575D01*
X281825Y119002D02*
X284375Y119002D01*
X284375Y119429D02*
X281825Y119429D01*
X281825Y119856D02*
X284375Y119856D01*
X284375Y120283D02*
X281825Y120283D01*
X281825Y120710D02*
X284375Y120710D01*
X284375Y121137D02*
X281825Y121137D01*
X281825Y121564D02*
X284375Y121564D01*
X284375Y121991D02*
X281825Y121991D01*
X281825Y122418D02*
X284375Y122418D01*
X284375Y122845D02*
X281825Y122845D01*
X281825Y123272D02*
X284375Y123272D01*
X284375Y123699D02*
X281825Y123699D01*
X281825Y124126D02*
X284375Y124126D01*
X284375Y124553D02*
X281825Y124553D01*
X281825Y124980D02*
X284375Y124980D01*
X284375Y125407D02*
X281825Y125407D01*
X281825Y125834D02*
X284375Y125834D01*
X284375Y126261D02*
X281825Y126261D01*
X281825Y126688D02*
X284375Y126688D01*
X284375Y127115D02*
X281825Y127115D01*
X281825Y127542D02*
X284375Y127542D01*
X284375Y127969D02*
X281825Y127969D01*
X281825Y128396D02*
X284375Y128396D01*
X284375Y128823D02*
X281825Y128823D01*
X281825Y129250D02*
X284375Y129250D01*
X284375Y129677D02*
X281825Y129677D01*
X281825Y130104D02*
X284375Y130104D01*
X284375Y130531D02*
X281825Y130531D01*
X281825Y130958D02*
X284375Y130958D01*
X284375Y131385D02*
X281825Y131385D01*
X281825Y131812D02*
X284375Y131812D01*
X284375Y132239D02*
X281825Y132239D01*
X281825Y132666D02*
X284375Y132666D01*
X284375Y133093D02*
X281825Y133093D01*
X281825Y133520D02*
X284375Y133520D01*
X279325Y194075D02*
X279325Y209125D01*
X281875Y209125D01*
X281875Y194075D01*
X279325Y194075D01*
X279325Y194502D02*
X281875Y194502D01*
X281875Y194929D02*
X279325Y194929D01*
X279325Y195356D02*
X281875Y195356D01*
X281875Y195783D02*
X279325Y195783D01*
X279325Y196210D02*
X281875Y196210D01*
X281875Y196637D02*
X279325Y196637D01*
X279325Y197064D02*
X281875Y197064D01*
X281875Y197491D02*
X279325Y197491D01*
X279325Y197918D02*
X281875Y197918D01*
X281875Y198345D02*
X279325Y198345D01*
X279325Y198772D02*
X281875Y198772D01*
X281875Y199199D02*
X279325Y199199D01*
X279325Y199626D02*
X281875Y199626D01*
X281875Y200053D02*
X279325Y200053D01*
X279325Y200480D02*
X281875Y200480D01*
X281875Y200907D02*
X279325Y200907D01*
X279325Y201334D02*
X281875Y201334D01*
X281875Y201761D02*
X279325Y201761D01*
X279325Y202188D02*
X281875Y202188D01*
X281875Y202615D02*
X279325Y202615D01*
X279325Y203042D02*
X281875Y203042D01*
X281875Y203469D02*
X279325Y203469D01*
X279325Y203896D02*
X281875Y203896D01*
X281875Y204323D02*
X279325Y204323D01*
X279325Y204750D02*
X281875Y204750D01*
X281875Y205177D02*
X279325Y205177D01*
X279325Y205604D02*
X281875Y205604D01*
X281875Y206031D02*
X279325Y206031D01*
X279325Y206458D02*
X281875Y206458D01*
X281875Y206885D02*
X279325Y206885D01*
X279325Y207312D02*
X281875Y207312D01*
X281875Y207739D02*
X279325Y207739D01*
X279325Y208166D02*
X281875Y208166D01*
X281875Y208593D02*
X279325Y208593D01*
X279325Y209020D02*
X281875Y209020D01*
X276825Y133625D02*
X276825Y118575D01*
X276825Y133625D02*
X279375Y133625D01*
X279375Y118575D01*
X276825Y118575D01*
X276825Y119002D02*
X279375Y119002D01*
X279375Y119429D02*
X276825Y119429D01*
X276825Y119856D02*
X279375Y119856D01*
X279375Y120283D02*
X276825Y120283D01*
X276825Y120710D02*
X279375Y120710D01*
X279375Y121137D02*
X276825Y121137D01*
X276825Y121564D02*
X279375Y121564D01*
X279375Y121991D02*
X276825Y121991D01*
X276825Y122418D02*
X279375Y122418D01*
X279375Y122845D02*
X276825Y122845D01*
X276825Y123272D02*
X279375Y123272D01*
X279375Y123699D02*
X276825Y123699D01*
X276825Y124126D02*
X279375Y124126D01*
X279375Y124553D02*
X276825Y124553D01*
X276825Y124980D02*
X279375Y124980D01*
X279375Y125407D02*
X276825Y125407D01*
X276825Y125834D02*
X279375Y125834D01*
X279375Y126261D02*
X276825Y126261D01*
X276825Y126688D02*
X279375Y126688D01*
X279375Y127115D02*
X276825Y127115D01*
X276825Y127542D02*
X279375Y127542D01*
X279375Y127969D02*
X276825Y127969D01*
X276825Y128396D02*
X279375Y128396D01*
X279375Y128823D02*
X276825Y128823D01*
X276825Y129250D02*
X279375Y129250D01*
X279375Y129677D02*
X276825Y129677D01*
X276825Y130104D02*
X279375Y130104D01*
X279375Y130531D02*
X276825Y130531D01*
X276825Y130958D02*
X279375Y130958D01*
X279375Y131385D02*
X276825Y131385D01*
X276825Y131812D02*
X279375Y131812D01*
X279375Y132239D02*
X276825Y132239D01*
X276825Y132666D02*
X279375Y132666D01*
X279375Y133093D02*
X276825Y133093D01*
X276825Y133520D02*
X279375Y133520D01*
X274325Y194075D02*
X274325Y209125D01*
X276875Y209125D01*
X276875Y194075D01*
X274325Y194075D01*
X274325Y194502D02*
X276875Y194502D01*
X276875Y194929D02*
X274325Y194929D01*
X274325Y195356D02*
X276875Y195356D01*
X276875Y195783D02*
X274325Y195783D01*
X274325Y196210D02*
X276875Y196210D01*
X276875Y196637D02*
X274325Y196637D01*
X274325Y197064D02*
X276875Y197064D01*
X276875Y197491D02*
X274325Y197491D01*
X274325Y197918D02*
X276875Y197918D01*
X276875Y198345D02*
X274325Y198345D01*
X274325Y198772D02*
X276875Y198772D01*
X276875Y199199D02*
X274325Y199199D01*
X274325Y199626D02*
X276875Y199626D01*
X276875Y200053D02*
X274325Y200053D01*
X274325Y200480D02*
X276875Y200480D01*
X276875Y200907D02*
X274325Y200907D01*
X274325Y201334D02*
X276875Y201334D01*
X276875Y201761D02*
X274325Y201761D01*
X274325Y202188D02*
X276875Y202188D01*
X276875Y202615D02*
X274325Y202615D01*
X274325Y203042D02*
X276875Y203042D01*
X276875Y203469D02*
X274325Y203469D01*
X274325Y203896D02*
X276875Y203896D01*
X276875Y204323D02*
X274325Y204323D01*
X274325Y204750D02*
X276875Y204750D01*
X276875Y205177D02*
X274325Y205177D01*
X274325Y205604D02*
X276875Y205604D01*
X276875Y206031D02*
X274325Y206031D01*
X274325Y206458D02*
X276875Y206458D01*
X276875Y206885D02*
X274325Y206885D01*
X274325Y207312D02*
X276875Y207312D01*
X276875Y207739D02*
X274325Y207739D01*
X274325Y208166D02*
X276875Y208166D01*
X276875Y208593D02*
X274325Y208593D01*
X274325Y209020D02*
X276875Y209020D01*
X271825Y133625D02*
X271825Y118575D01*
X271825Y133625D02*
X274375Y133625D01*
X274375Y118575D01*
X271825Y118575D01*
X271825Y119002D02*
X274375Y119002D01*
X274375Y119429D02*
X271825Y119429D01*
X271825Y119856D02*
X274375Y119856D01*
X274375Y120283D02*
X271825Y120283D01*
X271825Y120710D02*
X274375Y120710D01*
X274375Y121137D02*
X271825Y121137D01*
X271825Y121564D02*
X274375Y121564D01*
X274375Y121991D02*
X271825Y121991D01*
X271825Y122418D02*
X274375Y122418D01*
X274375Y122845D02*
X271825Y122845D01*
X271825Y123272D02*
X274375Y123272D01*
X274375Y123699D02*
X271825Y123699D01*
X271825Y124126D02*
X274375Y124126D01*
X274375Y124553D02*
X271825Y124553D01*
X271825Y124980D02*
X274375Y124980D01*
X274375Y125407D02*
X271825Y125407D01*
X271825Y125834D02*
X274375Y125834D01*
X274375Y126261D02*
X271825Y126261D01*
X271825Y126688D02*
X274375Y126688D01*
X274375Y127115D02*
X271825Y127115D01*
X271825Y127542D02*
X274375Y127542D01*
X274375Y127969D02*
X271825Y127969D01*
X271825Y128396D02*
X274375Y128396D01*
X274375Y128823D02*
X271825Y128823D01*
X271825Y129250D02*
X274375Y129250D01*
X274375Y129677D02*
X271825Y129677D01*
X271825Y130104D02*
X274375Y130104D01*
X274375Y130531D02*
X271825Y130531D01*
X271825Y130958D02*
X274375Y130958D01*
X274375Y131385D02*
X271825Y131385D01*
X271825Y131812D02*
X274375Y131812D01*
X274375Y132239D02*
X271825Y132239D01*
X271825Y132666D02*
X274375Y132666D01*
X274375Y133093D02*
X271825Y133093D01*
X271825Y133520D02*
X274375Y133520D01*
X269325Y194075D02*
X269325Y209125D01*
X271875Y209125D01*
X271875Y194075D01*
X269325Y194075D01*
X269325Y194502D02*
X271875Y194502D01*
X271875Y194929D02*
X269325Y194929D01*
X269325Y195356D02*
X271875Y195356D01*
X271875Y195783D02*
X269325Y195783D01*
X269325Y196210D02*
X271875Y196210D01*
X271875Y196637D02*
X269325Y196637D01*
X269325Y197064D02*
X271875Y197064D01*
X271875Y197491D02*
X269325Y197491D01*
X269325Y197918D02*
X271875Y197918D01*
X271875Y198345D02*
X269325Y198345D01*
X269325Y198772D02*
X271875Y198772D01*
X271875Y199199D02*
X269325Y199199D01*
X269325Y199626D02*
X271875Y199626D01*
X271875Y200053D02*
X269325Y200053D01*
X269325Y200480D02*
X271875Y200480D01*
X271875Y200907D02*
X269325Y200907D01*
X269325Y201334D02*
X271875Y201334D01*
X271875Y201761D02*
X269325Y201761D01*
X269325Y202188D02*
X271875Y202188D01*
X271875Y202615D02*
X269325Y202615D01*
X269325Y203042D02*
X271875Y203042D01*
X271875Y203469D02*
X269325Y203469D01*
X269325Y203896D02*
X271875Y203896D01*
X271875Y204323D02*
X269325Y204323D01*
X269325Y204750D02*
X271875Y204750D01*
X271875Y205177D02*
X269325Y205177D01*
X269325Y205604D02*
X271875Y205604D01*
X271875Y206031D02*
X269325Y206031D01*
X269325Y206458D02*
X271875Y206458D01*
X271875Y206885D02*
X269325Y206885D01*
X269325Y207312D02*
X271875Y207312D01*
X271875Y207739D02*
X269325Y207739D01*
X269325Y208166D02*
X271875Y208166D01*
X271875Y208593D02*
X269325Y208593D01*
X269325Y209020D02*
X271875Y209020D01*
X266825Y133625D02*
X266825Y118575D01*
X266825Y133625D02*
X269375Y133625D01*
X269375Y118575D01*
X266825Y118575D01*
X266825Y119002D02*
X269375Y119002D01*
X269375Y119429D02*
X266825Y119429D01*
X266825Y119856D02*
X269375Y119856D01*
X269375Y120283D02*
X266825Y120283D01*
X266825Y120710D02*
X269375Y120710D01*
X269375Y121137D02*
X266825Y121137D01*
X266825Y121564D02*
X269375Y121564D01*
X269375Y121991D02*
X266825Y121991D01*
X266825Y122418D02*
X269375Y122418D01*
X269375Y122845D02*
X266825Y122845D01*
X266825Y123272D02*
X269375Y123272D01*
X269375Y123699D02*
X266825Y123699D01*
X266825Y124126D02*
X269375Y124126D01*
X269375Y124553D02*
X266825Y124553D01*
X266825Y124980D02*
X269375Y124980D01*
X269375Y125407D02*
X266825Y125407D01*
X266825Y125834D02*
X269375Y125834D01*
X269375Y126261D02*
X266825Y126261D01*
X266825Y126688D02*
X269375Y126688D01*
X269375Y127115D02*
X266825Y127115D01*
X266825Y127542D02*
X269375Y127542D01*
X269375Y127969D02*
X266825Y127969D01*
X266825Y128396D02*
X269375Y128396D01*
X269375Y128823D02*
X266825Y128823D01*
X266825Y129250D02*
X269375Y129250D01*
X269375Y129677D02*
X266825Y129677D01*
X266825Y130104D02*
X269375Y130104D01*
X269375Y130531D02*
X266825Y130531D01*
X266825Y130958D02*
X269375Y130958D01*
X269375Y131385D02*
X266825Y131385D01*
X266825Y131812D02*
X269375Y131812D01*
X269375Y132239D02*
X266825Y132239D01*
X266825Y132666D02*
X269375Y132666D01*
X269375Y133093D02*
X266825Y133093D01*
X266825Y133520D02*
X269375Y133520D01*
X264325Y194075D02*
X264325Y209125D01*
X266875Y209125D01*
X266875Y194075D01*
X264325Y194075D01*
X264325Y194502D02*
X266875Y194502D01*
X266875Y194929D02*
X264325Y194929D01*
X264325Y195356D02*
X266875Y195356D01*
X266875Y195783D02*
X264325Y195783D01*
X264325Y196210D02*
X266875Y196210D01*
X266875Y196637D02*
X264325Y196637D01*
X264325Y197064D02*
X266875Y197064D01*
X266875Y197491D02*
X264325Y197491D01*
X264325Y197918D02*
X266875Y197918D01*
X266875Y198345D02*
X264325Y198345D01*
X264325Y198772D02*
X266875Y198772D01*
X266875Y199199D02*
X264325Y199199D01*
X264325Y199626D02*
X266875Y199626D01*
X266875Y200053D02*
X264325Y200053D01*
X264325Y200480D02*
X266875Y200480D01*
X266875Y200907D02*
X264325Y200907D01*
X264325Y201334D02*
X266875Y201334D01*
X266875Y201761D02*
X264325Y201761D01*
X264325Y202188D02*
X266875Y202188D01*
X266875Y202615D02*
X264325Y202615D01*
X264325Y203042D02*
X266875Y203042D01*
X266875Y203469D02*
X264325Y203469D01*
X264325Y203896D02*
X266875Y203896D01*
X266875Y204323D02*
X264325Y204323D01*
X264325Y204750D02*
X266875Y204750D01*
X266875Y205177D02*
X264325Y205177D01*
X264325Y205604D02*
X266875Y205604D01*
X266875Y206031D02*
X264325Y206031D01*
X264325Y206458D02*
X266875Y206458D01*
X266875Y206885D02*
X264325Y206885D01*
X264325Y207312D02*
X266875Y207312D01*
X266875Y207739D02*
X264325Y207739D01*
X264325Y208166D02*
X266875Y208166D01*
X266875Y208593D02*
X264325Y208593D01*
X264325Y209020D02*
X266875Y209020D01*
X261825Y133625D02*
X261825Y118575D01*
X261825Y133625D02*
X264375Y133625D01*
X264375Y118575D01*
X261825Y118575D01*
X261825Y119002D02*
X264375Y119002D01*
X264375Y119429D02*
X261825Y119429D01*
X261825Y119856D02*
X264375Y119856D01*
X264375Y120283D02*
X261825Y120283D01*
X261825Y120710D02*
X264375Y120710D01*
X264375Y121137D02*
X261825Y121137D01*
X261825Y121564D02*
X264375Y121564D01*
X264375Y121991D02*
X261825Y121991D01*
X261825Y122418D02*
X264375Y122418D01*
X264375Y122845D02*
X261825Y122845D01*
X261825Y123272D02*
X264375Y123272D01*
X264375Y123699D02*
X261825Y123699D01*
X261825Y124126D02*
X264375Y124126D01*
X264375Y124553D02*
X261825Y124553D01*
X261825Y124980D02*
X264375Y124980D01*
X264375Y125407D02*
X261825Y125407D01*
X261825Y125834D02*
X264375Y125834D01*
X264375Y126261D02*
X261825Y126261D01*
X261825Y126688D02*
X264375Y126688D01*
X264375Y127115D02*
X261825Y127115D01*
X261825Y127542D02*
X264375Y127542D01*
X264375Y127969D02*
X261825Y127969D01*
X261825Y128396D02*
X264375Y128396D01*
X264375Y128823D02*
X261825Y128823D01*
X261825Y129250D02*
X264375Y129250D01*
X264375Y129677D02*
X261825Y129677D01*
X261825Y130104D02*
X264375Y130104D01*
X264375Y130531D02*
X261825Y130531D01*
X261825Y130958D02*
X264375Y130958D01*
X264375Y131385D02*
X261825Y131385D01*
X261825Y131812D02*
X264375Y131812D01*
X264375Y132239D02*
X261825Y132239D01*
X261825Y132666D02*
X264375Y132666D01*
X264375Y133093D02*
X261825Y133093D01*
X261825Y133520D02*
X264375Y133520D01*
D12*
X194700Y139700D03*
X211700Y139700D03*
X194700Y165100D03*
X211700Y165100D03*
X194700Y114300D03*
X211700Y114300D03*
X194700Y88900D03*
X211700Y88900D03*
X194700Y190500D03*
X211700Y190500D03*
D11*
X279400Y575700D03*
X279400Y592700D03*
D10*
X286900Y635000D03*
X271900Y635000D03*
M02*
