G75*
%MOIN*%
%OFA0B0*%
%FSLAX24Y24*%
%IPPOS*%
%LPD*%
%AMOC8*
5,1,8,0,0,1.08239X$1,22.5*
%
%ADD10R,0.0433X0.0394*%
%ADD11R,0.0315X0.0315*%
%ADD12R,0.0394X0.0433*%
%ADD13R,0.0276X0.0079*%
%ADD14R,0.0600X0.0300*%
%ADD15R,0.0551X0.0138*%
%ADD16R,0.0748X0.0709*%
%ADD17R,0.0748X0.0748*%
D10*
X004150Y003815D03*
X004150Y004485D03*
X004150Y005815D03*
X004150Y006485D03*
X003815Y009400D03*
X004485Y009400D03*
X006815Y008150D03*
X007485Y008150D03*
X007485Y007150D03*
X006815Y007150D03*
X006815Y011150D03*
X007485Y011150D03*
X004485Y012400D03*
X003815Y012400D03*
X003825Y015400D03*
X004495Y015400D03*
D11*
X007355Y025150D03*
X007945Y025150D03*
X009355Y025150D03*
X009945Y025150D03*
X011355Y025150D03*
X011945Y025150D03*
D12*
X011650Y023485D03*
X011650Y022815D03*
X009650Y022815D03*
X009650Y023485D03*
X007650Y023485D03*
X007650Y022815D03*
X004485Y013900D03*
X003815Y013900D03*
X018430Y003475D03*
X018430Y002805D03*
X019390Y002815D03*
X019390Y003485D03*
D13*
X012130Y007008D03*
X012130Y007166D03*
X012130Y007323D03*
X012130Y007481D03*
X012130Y007638D03*
X012130Y007796D03*
X012130Y007953D03*
X012130Y008111D03*
X012130Y008268D03*
X012130Y008426D03*
X012130Y008583D03*
X012130Y008741D03*
X012130Y008898D03*
X012130Y009056D03*
X012130Y009213D03*
X012130Y009370D03*
X012130Y009528D03*
X012130Y009685D03*
X012130Y009843D03*
X012130Y010000D03*
X010918Y010000D03*
X010918Y009843D03*
X010918Y009685D03*
X010918Y009528D03*
X010918Y009370D03*
X010918Y009213D03*
X010918Y009056D03*
X010918Y008898D03*
X010918Y008741D03*
X010918Y008583D03*
X010918Y008426D03*
X010918Y008268D03*
X010918Y008111D03*
X010918Y007953D03*
X010918Y007796D03*
X010918Y007638D03*
X010918Y007481D03*
X010918Y007323D03*
X010918Y007166D03*
X010918Y007008D03*
D14*
X002800Y007900D03*
X002800Y009400D03*
X002800Y010900D03*
X002800Y012400D03*
X002800Y013900D03*
X002800Y015400D03*
X000600Y015400D03*
X000600Y013900D03*
X000600Y012400D03*
X000600Y010900D03*
X000600Y009400D03*
X000600Y007900D03*
D15*
X018257Y013938D03*
X018257Y014194D03*
X018257Y014450D03*
X018257Y014706D03*
X018257Y014962D03*
D16*
X019300Y016025D03*
X019300Y012875D03*
D17*
X019300Y013950D03*
X019300Y014950D03*
M02*
