G75*
%MOIN*%
%OFA0B0*%
%FSLAX24Y24*%
%IPPOS*%
%LPD*%
%AMOC8*
5,1,8,0,0,1.08239X$1,22.5*
%
%ADD10C,0.2600*%
%ADD11C,0.1320*%
%ADD12C,0.0600*%
%ADD13OC8,0.0600*%
%ADD14R,0.0591X0.0591*%
%ADD15C,0.0591*%
%ADD16R,0.0454X0.0493*%
%ADD17OC8,0.0540*%
%ADD18R,0.0375X0.0375*%
%ADD19C,0.0800*%
%ADD20R,0.0296X0.0532*%
%ADD21C,0.0705*%
%ADD22C,0.1400*%
%ADD23C,0.0050*%
%ADD24C,0.0350*%
D10*
X010610Y024150D03*
X020610Y024150D03*
D11*
X020610Y024150D03*
X010610Y024150D03*
D12*
X008110Y002150D03*
D13*
X008110Y001150D03*
X009110Y001150D03*
X010110Y001150D03*
X010110Y002150D03*
X009110Y002150D03*
X011110Y002150D03*
X012110Y002150D03*
X012110Y001150D03*
X011110Y001150D03*
X013110Y001150D03*
X014110Y001150D03*
X014110Y002150D03*
X013110Y002150D03*
X015110Y002150D03*
X016110Y002150D03*
X016110Y001150D03*
X015110Y001150D03*
X017110Y001150D03*
X018110Y001150D03*
X018110Y002150D03*
X017110Y002150D03*
X019110Y002150D03*
X020110Y002150D03*
X020110Y001150D03*
X019110Y001150D03*
X021110Y001150D03*
X022110Y001150D03*
X022110Y002150D03*
X021110Y002150D03*
X023110Y002150D03*
X023110Y001150D03*
D14*
X024410Y006550D03*
D15*
X024410Y007340D03*
X024410Y008130D03*
X024410Y008920D03*
X024410Y009710D03*
X024410Y010500D03*
X024410Y011290D03*
X024410Y012080D03*
X024410Y012870D03*
X024410Y013660D03*
X024430Y014450D03*
X024430Y015240D03*
X024430Y016030D03*
X024430Y016820D03*
X024430Y017610D03*
X024430Y018400D03*
X024430Y019190D03*
X024430Y019980D03*
X024430Y020770D03*
X024430Y021560D03*
X010250Y021600D03*
X010250Y020810D03*
X010250Y020020D03*
X010250Y019230D03*
X010250Y018440D03*
X010250Y017650D03*
X010250Y016860D03*
X010250Y016070D03*
X010250Y015280D03*
X010250Y014490D03*
X010230Y013700D03*
X010230Y012910D03*
X010230Y012120D03*
X010230Y011330D03*
X010230Y010540D03*
X010230Y009750D03*
X010230Y008960D03*
X010230Y008170D03*
X010230Y007380D03*
X010230Y006590D03*
D16*
X008110Y006315D03*
X008110Y006985D03*
X008110Y008315D03*
X008110Y008985D03*
X008110Y010315D03*
X008110Y010985D03*
X008110Y004985D03*
X008110Y004315D03*
X012610Y018315D03*
X012610Y018985D03*
X024510Y002485D03*
X024510Y001815D03*
D17*
X022110Y010150D03*
X020110Y010150D03*
X020110Y014150D03*
X022110Y014150D03*
D18*
X007110Y010945D03*
X007110Y010355D03*
X007110Y008945D03*
X007110Y008355D03*
X007110Y006945D03*
X007110Y006355D03*
X007110Y004945D03*
X007110Y004355D03*
D19*
X013110Y021150D03*
X014110Y021150D03*
X015110Y021150D03*
X016110Y021150D03*
X017110Y021150D03*
X018110Y021150D03*
X023610Y023650D03*
X023610Y024650D03*
X024610Y024650D03*
X024610Y023650D03*
D20*
X015860Y016900D03*
X015360Y016900D03*
X014860Y016900D03*
X014360Y016900D03*
X013860Y016900D03*
X013360Y016900D03*
X012860Y016900D03*
X012360Y016900D03*
X012360Y013400D03*
X012860Y013400D03*
X013360Y013400D03*
X013860Y013400D03*
X014360Y013400D03*
X014860Y013400D03*
X015360Y013400D03*
X015860Y013400D03*
D21*
X008433Y021150D02*
X007788Y021150D01*
X007788Y022150D02*
X008433Y022150D01*
X008433Y023150D02*
X007788Y023150D01*
X007788Y024150D02*
X008433Y024150D01*
D22*
X004780Y024700D03*
X004780Y020600D03*
D23*
X006552Y001692D02*
X006570Y001625D01*
X006599Y001563D01*
X006638Y001507D01*
X006687Y001458D01*
X006743Y001419D01*
X006805Y001390D01*
X006872Y001372D01*
X006940Y001366D01*
X007008Y001372D01*
X007075Y001390D01*
X007137Y001419D01*
X007193Y001458D01*
X007242Y001507D01*
X007281Y001563D01*
X007310Y001625D01*
X007328Y001692D01*
X007334Y001760D01*
X007328Y001828D01*
X007310Y001895D01*
X007281Y001957D01*
X007242Y002013D01*
X007193Y002062D01*
X007137Y002101D01*
X007075Y002130D01*
X007008Y002148D01*
X006940Y002154D01*
X006872Y002148D01*
X006805Y002130D01*
X006743Y002101D01*
X006687Y002062D01*
X006638Y002013D01*
X006599Y001957D01*
X006570Y001895D01*
X006552Y001828D01*
X006546Y001760D01*
X006552Y001692D01*
X006551Y001702D02*
X007329Y001702D01*
X007333Y001751D02*
X006547Y001751D01*
X006550Y001799D02*
X007330Y001799D01*
X007323Y001848D02*
X006557Y001848D01*
X006571Y001896D02*
X007309Y001896D01*
X007287Y001945D02*
X006593Y001945D01*
X006624Y001993D02*
X007256Y001993D01*
X007213Y002042D02*
X006667Y002042D01*
X006728Y002090D02*
X007152Y002090D01*
X007043Y002139D02*
X006837Y002139D01*
X006562Y001654D02*
X007318Y001654D01*
X007300Y001605D02*
X006580Y001605D01*
X006604Y001557D02*
X007276Y001557D01*
X007242Y001508D02*
X006638Y001508D01*
X006686Y001460D02*
X007194Y001460D01*
X007120Y001411D02*
X006760Y001411D01*
X024716Y001150D02*
X024722Y001218D01*
X024740Y001285D01*
X024769Y001347D01*
X024808Y001403D01*
X024857Y001452D01*
X024913Y001491D01*
X024975Y001520D01*
X025042Y001538D01*
X025110Y001544D01*
X025178Y001538D01*
X025245Y001520D01*
X025307Y001491D01*
X025363Y001452D01*
X025412Y001403D01*
X025451Y001347D01*
X025480Y001285D01*
X025498Y001218D01*
X025504Y001150D01*
X025498Y001082D01*
X025480Y001015D01*
X025451Y000953D01*
X025412Y000897D01*
X025363Y000848D01*
X025307Y000809D01*
X025245Y000780D01*
X025178Y000762D01*
X025110Y000756D01*
X025042Y000762D01*
X024975Y000780D01*
X024913Y000809D01*
X024857Y000848D01*
X024808Y000897D01*
X024769Y000953D01*
X024740Y001015D01*
X024722Y001082D01*
X024716Y001150D01*
X024718Y001169D02*
X025502Y001169D01*
X025498Y001217D02*
X024722Y001217D01*
X024735Y001266D02*
X025485Y001266D01*
X025466Y001314D02*
X024754Y001314D01*
X024780Y001363D02*
X025440Y001363D01*
X025404Y001411D02*
X024816Y001411D01*
X024868Y001460D02*
X025352Y001460D01*
X025270Y001508D02*
X024950Y001508D01*
X024719Y001120D02*
X025501Y001120D01*
X025495Y001072D02*
X024725Y001072D01*
X024738Y001023D02*
X025482Y001023D01*
X025461Y000975D02*
X024759Y000975D01*
X024788Y000926D02*
X025432Y000926D01*
X025392Y000878D02*
X024828Y000878D01*
X024885Y000829D02*
X025335Y000829D01*
X025246Y000781D02*
X024974Y000781D01*
X021678Y021262D02*
X021610Y021256D01*
X021542Y021262D01*
X021475Y021280D01*
X021413Y021309D01*
X021357Y021348D01*
X021308Y021397D01*
X021269Y021453D01*
X021240Y021515D01*
X021222Y021582D01*
X021216Y021650D01*
X021222Y021718D01*
X021240Y021785D01*
X021269Y021847D01*
X021308Y021903D01*
X021357Y021952D01*
X021413Y021991D01*
X021475Y022020D01*
X021542Y022038D01*
X021610Y022044D01*
X021678Y022038D01*
X021745Y022020D01*
X021807Y021991D01*
X021863Y021952D01*
X021912Y021903D01*
X021951Y021847D01*
X021980Y021785D01*
X021998Y021718D01*
X022004Y021650D01*
X021998Y021582D01*
X021980Y021515D01*
X021951Y021453D01*
X021912Y021397D01*
X021863Y021348D01*
X021807Y021309D01*
X021745Y021280D01*
X021678Y021262D01*
X021779Y021296D02*
X021441Y021296D01*
X021362Y021345D02*
X021858Y021345D01*
X021908Y021393D02*
X021312Y021393D01*
X021277Y021442D02*
X021943Y021442D01*
X021968Y021490D02*
X021252Y021490D01*
X021234Y021539D02*
X021986Y021539D01*
X021998Y021587D02*
X021222Y021587D01*
X021218Y021636D02*
X022002Y021636D01*
X022001Y021684D02*
X021219Y021684D01*
X021226Y021733D02*
X021994Y021733D01*
X021981Y021781D02*
X021239Y021781D01*
X021261Y021830D02*
X021959Y021830D01*
X021929Y021878D02*
X021291Y021878D01*
X021332Y021927D02*
X021888Y021927D01*
X021829Y021975D02*
X021391Y021975D01*
X021489Y022024D02*
X021731Y022024D01*
D24*
X015860Y016130D03*
X014860Y016140D03*
X013360Y016120D03*
X012360Y016130D03*
X012410Y012350D03*
X012410Y010850D03*
X014210Y012150D03*
X015310Y012150D03*
X022610Y009150D03*
X022910Y009650D03*
X023610Y010450D03*
X023110Y008410D03*
X007120Y003670D03*
X007110Y005740D03*
X007110Y007700D03*
X007110Y009790D03*
M02*
