G75*
%MOIN*%
%OFA0B0*%
%FSLAX24Y24*%
%IPPOS*%
%LPD*%
%AMOC8*
5,1,8,0,0,1.08239X$1,22.5*
%
%ADD10C,0.2600*%
%ADD11C,0.1320*%
%ADD12C,0.0600*%
%ADD13OC8,0.0600*%
%ADD14R,0.0493X0.0454*%
%ADD15R,0.0375X0.0375*%
%ADD16R,0.0454X0.0493*%
%ADD17C,0.0050*%
%ADD18R,0.0336X0.0139*%
%ADD19C,0.1529*%
%ADD20C,0.0080*%
%ADD21R,0.0660X0.0360*%
%ADD22R,0.0611X0.0198*%
%ADD23R,0.0808X0.0769*%
%ADD24R,0.0808X0.0808*%
%ADD25C,0.0800*%
D10*
X004650Y024150D03*
X014650Y024150D03*
D11*
X014650Y024150D03*
X004650Y024150D03*
D12*
X002150Y002150D03*
D13*
X002150Y001150D03*
X003150Y001150D03*
X003150Y002150D03*
X004150Y002150D03*
X004150Y001150D03*
X005150Y001150D03*
X005150Y002150D03*
X006150Y002150D03*
X006150Y001150D03*
X007150Y001150D03*
X007150Y002150D03*
X008150Y002150D03*
X008150Y001150D03*
X009150Y001150D03*
X009150Y002150D03*
X010150Y002150D03*
X010150Y001150D03*
X011150Y001150D03*
X011150Y002150D03*
X012150Y002150D03*
X012150Y001150D03*
X013150Y001150D03*
X013150Y002150D03*
X014150Y002150D03*
X014150Y001150D03*
X015150Y001150D03*
X015150Y002150D03*
X016150Y002150D03*
X016150Y001150D03*
X017150Y001150D03*
X017150Y002150D03*
D14*
X007485Y007150D03*
X006815Y007150D03*
X006815Y008150D03*
X007485Y008150D03*
X007485Y011150D03*
X006815Y011150D03*
X004485Y012400D03*
X003815Y012400D03*
X003825Y015400D03*
X004495Y015400D03*
X004485Y009400D03*
X003815Y009400D03*
X004150Y006485D03*
X004150Y005815D03*
X004150Y004485D03*
X004150Y003815D03*
D15*
X007355Y025150D03*
X007945Y025150D03*
X009355Y025150D03*
X009945Y025150D03*
X011355Y025150D03*
X011945Y025150D03*
D16*
X011650Y023485D03*
X011650Y022815D03*
X009650Y022815D03*
X009650Y023485D03*
X007650Y023485D03*
X007650Y022815D03*
X004485Y013900D03*
X003815Y013900D03*
X018430Y003475D03*
X018430Y002805D03*
X019390Y002815D03*
X019390Y003485D03*
D17*
X001354Y001314D02*
X000946Y001314D01*
X000953Y001309D02*
X001015Y001280D01*
X001082Y001262D01*
X001150Y001256D01*
X001218Y001262D01*
X001285Y001280D01*
X001347Y001309D01*
X001403Y001348D01*
X001452Y001397D01*
X001491Y001453D01*
X001520Y001515D01*
X001538Y001582D01*
X001544Y001650D01*
X001538Y001718D01*
X001520Y001785D01*
X001491Y001847D01*
X001452Y001903D01*
X001403Y001952D01*
X001347Y001991D01*
X001285Y002020D01*
X001218Y002038D01*
X001150Y002044D01*
X001082Y002038D01*
X001015Y002020D01*
X000953Y001991D01*
X000897Y001952D01*
X000848Y001903D01*
X000809Y001847D01*
X000780Y001785D01*
X000762Y001718D01*
X000756Y001650D01*
X000762Y001582D01*
X000780Y001515D01*
X000809Y001453D01*
X000848Y001397D01*
X000897Y001348D01*
X000953Y001309D01*
X000883Y001363D02*
X001417Y001363D01*
X001461Y001411D02*
X000839Y001411D01*
X000806Y001460D02*
X001494Y001460D01*
X001517Y001508D02*
X000783Y001508D01*
X000769Y001557D02*
X001531Y001557D01*
X001540Y001605D02*
X000760Y001605D01*
X000757Y001654D02*
X001543Y001654D01*
X001539Y001702D02*
X000761Y001702D01*
X000771Y001751D02*
X001529Y001751D01*
X001513Y001799D02*
X000787Y001799D01*
X000810Y001848D02*
X001490Y001848D01*
X001457Y001896D02*
X000843Y001896D01*
X000890Y001945D02*
X001410Y001945D01*
X001342Y001993D02*
X000958Y001993D01*
X001125Y002042D02*
X001175Y002042D01*
X001230Y001266D02*
X001070Y001266D01*
X018756Y001650D02*
X018762Y001718D01*
X018780Y001785D01*
X018809Y001847D01*
X018848Y001903D01*
X018897Y001952D01*
X018953Y001991D01*
X019015Y002020D01*
X019082Y002038D01*
X019150Y002044D01*
X019218Y002038D01*
X019285Y002020D01*
X019347Y001991D01*
X019403Y001952D01*
X019452Y001903D01*
X019491Y001847D01*
X019520Y001785D01*
X019538Y001718D01*
X019544Y001650D01*
X019538Y001582D01*
X019520Y001515D01*
X019491Y001453D01*
X019452Y001397D01*
X019403Y001348D01*
X019347Y001309D01*
X019285Y001280D01*
X019218Y001262D01*
X019150Y001256D01*
X019082Y001262D01*
X019015Y001280D01*
X018953Y001309D01*
X018897Y001348D01*
X018848Y001397D01*
X018809Y001453D01*
X018780Y001515D01*
X018762Y001582D01*
X018756Y001650D01*
X018757Y001654D02*
X019543Y001654D01*
X019539Y001702D02*
X018761Y001702D01*
X018771Y001751D02*
X019529Y001751D01*
X019513Y001799D02*
X018787Y001799D01*
X018810Y001848D02*
X019490Y001848D01*
X019457Y001896D02*
X018843Y001896D01*
X018890Y001945D02*
X019410Y001945D01*
X019342Y001993D02*
X018958Y001993D01*
X019125Y002042D02*
X019175Y002042D01*
X019540Y001605D02*
X018760Y001605D01*
X018769Y001557D02*
X019531Y001557D01*
X019517Y001508D02*
X018783Y001508D01*
X018806Y001460D02*
X019494Y001460D01*
X019461Y001411D02*
X018839Y001411D01*
X018883Y001363D02*
X019417Y001363D01*
X019354Y001314D02*
X018946Y001314D01*
X019070Y001266D02*
X019230Y001266D01*
X019150Y024756D02*
X019082Y024762D01*
X019015Y024780D01*
X018953Y024809D01*
X018897Y024848D01*
X018848Y024897D01*
X018809Y024953D01*
X018780Y025015D01*
X018762Y025082D01*
X018756Y025150D01*
X018762Y025218D01*
X018780Y025285D01*
X018809Y025347D01*
X018848Y025403D01*
X018897Y025452D01*
X018953Y025491D01*
X019015Y025520D01*
X019082Y025538D01*
X019150Y025544D01*
X019218Y025538D01*
X019285Y025520D01*
X019347Y025491D01*
X019403Y025452D01*
X019452Y025403D01*
X019491Y025347D01*
X019520Y025285D01*
X019538Y025218D01*
X019544Y025150D01*
X019538Y025082D01*
X019520Y025015D01*
X019491Y024953D01*
X019452Y024897D01*
X019403Y024848D01*
X019347Y024809D01*
X019285Y024780D01*
X019218Y024762D01*
X019150Y024756D01*
X018998Y024788D02*
X019302Y024788D01*
X019386Y024837D02*
X018914Y024837D01*
X018860Y024885D02*
X019440Y024885D01*
X019477Y024934D02*
X018823Y024934D01*
X018796Y024982D02*
X019504Y024982D01*
X019524Y025031D02*
X018776Y025031D01*
X018763Y025079D02*
X019537Y025079D01*
X019542Y025128D02*
X018758Y025128D01*
X018759Y025176D02*
X019541Y025176D01*
X019536Y025225D02*
X018764Y025225D01*
X018777Y025273D02*
X019523Y025273D01*
X019503Y025322D02*
X018797Y025322D01*
X018825Y025370D02*
X019475Y025370D01*
X019436Y025419D02*
X018864Y025419D01*
X018919Y025467D02*
X019381Y025467D01*
X019294Y025516D02*
X019006Y025516D01*
D18*
X012130Y010000D03*
X012130Y009843D03*
X012130Y009685D03*
X012130Y009528D03*
X012130Y009370D03*
X012130Y009213D03*
X012130Y009056D03*
X012130Y008898D03*
X012130Y008741D03*
X012130Y008583D03*
X012130Y008426D03*
X012130Y008268D03*
X012130Y008111D03*
X012130Y007953D03*
X012130Y007796D03*
X012130Y007638D03*
X012130Y007481D03*
X012130Y007323D03*
X012130Y007166D03*
X012130Y007008D03*
X010918Y007008D03*
X010918Y007166D03*
X010918Y007323D03*
X010918Y007481D03*
X010918Y007638D03*
X010918Y007796D03*
X010918Y007953D03*
X010918Y008111D03*
X010918Y008268D03*
X010918Y008426D03*
X010918Y008583D03*
X010918Y008741D03*
X010918Y008898D03*
X010918Y009056D03*
X010918Y009213D03*
X010918Y009370D03*
X010918Y009528D03*
X010918Y009685D03*
X010918Y009843D03*
X010918Y010000D03*
D19*
X009622Y010914D03*
X009622Y006386D03*
X018678Y006386D03*
X018678Y010914D03*
D20*
X011081Y018288D02*
X011137Y018369D01*
X011179Y018458D01*
X011204Y018552D01*
X011213Y018650D01*
X011204Y018748D01*
X011179Y018842D01*
X011137Y018931D01*
X011081Y019012D01*
X011012Y019081D01*
X010931Y019137D01*
X010842Y019179D01*
X010748Y019204D01*
X010650Y019213D01*
X010552Y019204D01*
X010458Y019179D01*
X010369Y019137D01*
X010288Y019081D01*
X010219Y019012D01*
X010163Y018931D01*
X010121Y018842D01*
X010096Y018748D01*
X010088Y018650D01*
X010096Y018552D01*
X010121Y018458D01*
X010163Y018369D01*
X010219Y018288D01*
X010288Y018219D01*
X010369Y018163D01*
X010458Y018121D01*
X010552Y018096D01*
X010650Y018088D01*
X010748Y018096D01*
X010842Y018121D01*
X010931Y018163D01*
X011012Y018219D01*
X011081Y018288D01*
X011076Y018284D02*
X010224Y018284D01*
X010168Y018362D02*
X011132Y018362D01*
X011171Y018441D02*
X010129Y018441D01*
X010105Y018519D02*
X011195Y018519D01*
X011208Y018598D02*
X010092Y018598D01*
X010090Y018676D02*
X011210Y018676D01*
X011202Y018755D02*
X010098Y018755D01*
X010119Y018833D02*
X011181Y018833D01*
X011146Y018912D02*
X010154Y018912D01*
X010204Y018990D02*
X011096Y018990D01*
X011024Y019069D02*
X010276Y019069D01*
X010390Y019147D02*
X010910Y019147D01*
X010748Y019596D02*
X010650Y019588D01*
X010552Y019596D01*
X010458Y019621D01*
X010369Y019663D01*
X010288Y019719D01*
X010219Y019788D01*
X010163Y019869D01*
X010121Y019958D01*
X010096Y020052D01*
X010088Y020150D01*
X010096Y020248D01*
X010121Y020342D01*
X010163Y020431D01*
X010219Y020512D01*
X010288Y020581D01*
X010369Y020637D01*
X010458Y020679D01*
X010552Y020704D01*
X010650Y020713D01*
X010748Y020704D01*
X010842Y020679D01*
X010931Y020637D01*
X011012Y020581D01*
X011081Y020512D01*
X011137Y020431D01*
X011179Y020342D01*
X011204Y020248D01*
X011213Y020150D01*
X011204Y020052D01*
X011179Y019958D01*
X011137Y019869D01*
X011081Y019788D01*
X011012Y019719D01*
X010931Y019663D01*
X010842Y019621D01*
X010748Y019596D01*
X010830Y019618D02*
X010470Y019618D01*
X010321Y019697D02*
X010979Y019697D01*
X011068Y019775D02*
X010232Y019775D01*
X010173Y019854D02*
X011127Y019854D01*
X011167Y019932D02*
X010133Y019932D01*
X010107Y020011D02*
X011193Y020011D01*
X011207Y020089D02*
X010093Y020089D01*
X010089Y020168D02*
X011211Y020168D01*
X011204Y020246D02*
X010096Y020246D01*
X010117Y020325D02*
X011183Y020325D01*
X011150Y020403D02*
X010150Y020403D01*
X010198Y020482D02*
X011102Y020482D01*
X011032Y020560D02*
X010268Y020560D01*
X010372Y020639D02*
X010928Y020639D01*
X009204Y020248D02*
X009213Y020150D01*
X009204Y020052D01*
X009179Y019958D01*
X009137Y019869D01*
X009081Y019788D01*
X009012Y019719D01*
X008931Y019663D01*
X008842Y019621D01*
X008748Y019596D01*
X008650Y019588D01*
X008552Y019596D01*
X008458Y019621D01*
X008369Y019663D01*
X008288Y019719D01*
X008219Y019788D01*
X008163Y019869D01*
X008121Y019958D01*
X008096Y020052D01*
X008088Y020150D01*
X008096Y020248D01*
X008121Y020342D01*
X008163Y020431D01*
X008219Y020512D01*
X008288Y020581D01*
X008369Y020637D01*
X008458Y020679D01*
X008552Y020704D01*
X008650Y020713D01*
X008748Y020704D01*
X008842Y020679D01*
X008931Y020637D01*
X009012Y020581D01*
X009081Y020512D01*
X009137Y020431D01*
X009179Y020342D01*
X009204Y020248D01*
X009204Y020246D02*
X008096Y020246D01*
X008089Y020168D02*
X009211Y020168D01*
X009207Y020089D02*
X008093Y020089D01*
X008107Y020011D02*
X009193Y020011D01*
X009167Y019932D02*
X008133Y019932D01*
X008173Y019854D02*
X009127Y019854D01*
X009068Y019775D02*
X008232Y019775D01*
X008321Y019697D02*
X008979Y019697D01*
X008830Y019618D02*
X008470Y019618D01*
X008552Y019204D02*
X008650Y019213D01*
X008748Y019204D01*
X008842Y019179D01*
X008931Y019137D01*
X009012Y019081D01*
X009081Y019012D01*
X009137Y018931D01*
X009179Y018842D01*
X009204Y018748D01*
X009213Y018650D01*
X009204Y018552D01*
X009179Y018458D01*
X009137Y018369D01*
X009081Y018288D01*
X009012Y018219D01*
X008931Y018163D01*
X008842Y018121D01*
X008748Y018096D01*
X008650Y018088D01*
X008552Y018096D01*
X008458Y018121D01*
X008369Y018163D01*
X008288Y018219D01*
X008219Y018288D01*
X008163Y018369D01*
X008121Y018458D01*
X008096Y018552D01*
X008088Y018650D01*
X008096Y018748D01*
X008121Y018842D01*
X008163Y018931D01*
X008219Y019012D01*
X008288Y019081D01*
X008369Y019137D01*
X008458Y019179D01*
X008552Y019204D01*
X008390Y019147D02*
X008910Y019147D01*
X009024Y019069D02*
X008276Y019069D01*
X008204Y018990D02*
X009096Y018990D01*
X009146Y018912D02*
X008154Y018912D01*
X008119Y018833D02*
X009181Y018833D01*
X009202Y018755D02*
X008098Y018755D01*
X008090Y018676D02*
X009210Y018676D01*
X009208Y018598D02*
X008092Y018598D01*
X008105Y018519D02*
X009195Y018519D01*
X009171Y018441D02*
X008129Y018441D01*
X008168Y018362D02*
X009132Y018362D01*
X009076Y018284D02*
X008224Y018284D01*
X008308Y018205D02*
X008992Y018205D01*
X008853Y018127D02*
X008447Y018127D01*
X010308Y018205D02*
X010992Y018205D01*
X010853Y018127D02*
X010447Y018127D01*
X009183Y020325D02*
X008117Y020325D01*
X008150Y020403D02*
X009150Y020403D01*
X009102Y020482D02*
X008198Y020482D01*
X008268Y020560D02*
X009032Y020560D01*
X008928Y020639D02*
X008372Y020639D01*
X005748Y006704D02*
X005842Y006679D01*
X005931Y006637D01*
X006012Y006581D01*
X006081Y006512D01*
X006137Y006431D01*
X006179Y006342D01*
X006204Y006248D01*
X006213Y006150D01*
X006204Y006052D01*
X006179Y005958D01*
X006137Y005869D01*
X006081Y005788D01*
X006012Y005719D01*
X005931Y005663D01*
X005842Y005621D01*
X005748Y005596D01*
X005650Y005588D01*
X005552Y005596D01*
X005458Y005621D01*
X005369Y005663D01*
X005288Y005719D01*
X005219Y005788D01*
X005163Y005869D01*
X005121Y005958D01*
X005096Y006052D01*
X005088Y006150D01*
X005096Y006248D01*
X005121Y006342D01*
X005163Y006431D01*
X005219Y006512D01*
X005288Y006581D01*
X005369Y006637D01*
X005458Y006679D01*
X005552Y006704D01*
X005650Y006713D01*
X005748Y006704D01*
X005870Y006666D02*
X005430Y006666D01*
X005297Y006587D02*
X006003Y006587D01*
X006083Y006509D02*
X005217Y006509D01*
X005162Y006430D02*
X006138Y006430D01*
X006174Y006352D02*
X005126Y006352D01*
X005103Y006273D02*
X006197Y006273D01*
X006209Y006195D02*
X005091Y006195D01*
X005090Y006116D02*
X006210Y006116D01*
X006200Y006038D02*
X005100Y006038D01*
X005121Y005959D02*
X006179Y005959D01*
X006143Y005881D02*
X005157Y005881D01*
X005210Y005802D02*
X006090Y005802D01*
X006016Y005724D02*
X005284Y005724D01*
X005407Y005645D02*
X005893Y005645D01*
X005748Y004704D02*
X005842Y004679D01*
X005931Y004637D01*
X006012Y004581D01*
X006081Y004512D01*
X006137Y004431D01*
X006179Y004342D01*
X006204Y004248D01*
X006213Y004150D01*
X006204Y004052D01*
X006179Y003958D01*
X006137Y003869D01*
X006081Y003788D01*
X006012Y003719D01*
X005931Y003663D01*
X005842Y003621D01*
X005748Y003596D01*
X005650Y003588D01*
X005552Y003596D01*
X005458Y003621D01*
X005369Y003663D01*
X005288Y003719D01*
X005219Y003788D01*
X005163Y003869D01*
X005121Y003958D01*
X005096Y004052D01*
X005088Y004150D01*
X005096Y004248D01*
X005121Y004342D01*
X005163Y004431D01*
X005219Y004512D01*
X005288Y004581D01*
X005369Y004637D01*
X005458Y004679D01*
X005552Y004704D01*
X005650Y004713D01*
X005748Y004704D01*
X005751Y004703D02*
X005549Y004703D01*
X005351Y004625D02*
X005949Y004625D01*
X006046Y004546D02*
X005254Y004546D01*
X005188Y004468D02*
X006112Y004468D01*
X006157Y004389D02*
X005143Y004389D01*
X005113Y004311D02*
X006187Y004311D01*
X006205Y004232D02*
X005095Y004232D01*
X005088Y004154D02*
X006212Y004154D01*
X006206Y004075D02*
X005094Y004075D01*
X005111Y003997D02*
X006189Y003997D01*
X006160Y003918D02*
X005140Y003918D01*
X005183Y003840D02*
X006117Y003840D01*
X006053Y003761D02*
X005247Y003761D01*
X005341Y003683D02*
X005959Y003683D01*
X005777Y003604D02*
X005523Y003604D01*
D21*
X002800Y007900D03*
X002800Y009400D03*
X002800Y010900D03*
X002800Y012400D03*
X002800Y013900D03*
X002800Y015400D03*
X000600Y015400D03*
X000600Y013900D03*
X000600Y012400D03*
X000600Y010900D03*
X000600Y009400D03*
X000600Y007900D03*
D22*
X018257Y013938D03*
X018257Y014194D03*
X018257Y014450D03*
X018257Y014706D03*
X018257Y014962D03*
D23*
X019300Y016025D03*
X019300Y012875D03*
D24*
X019300Y013950D03*
X019300Y014950D03*
D25*
X014250Y018150D03*
X014150Y019150D03*
X014250Y020150D03*
X014150Y021150D03*
X014250Y022150D03*
X014150Y017150D03*
X008150Y015220D03*
X008150Y014080D03*
X005150Y017150D03*
X005250Y018150D03*
X005150Y019150D03*
X005250Y020150D03*
X005150Y021150D03*
X005250Y022150D03*
M02*
