G75*
%MOIN*%
%OFA0B0*%
%FSLAX24Y24*%
%IPPOS*%
%LPD*%
%AMOC8*
5,1,8,0,0,1.08239X$1,22.5*
%
%ADD10C,0.2600*%
%ADD11C,0.1320*%
%ADD12C,0.0600*%
%ADD13OC8,0.0600*%
%ADD14C,0.1529*%
%ADD15C,0.0800*%
D10*
X004650Y024150D03*
X014650Y024150D03*
D11*
X014650Y024150D03*
X004650Y024150D03*
D12*
X002150Y002150D03*
D13*
X002150Y001150D03*
X003150Y001150D03*
X003150Y002150D03*
X004150Y002150D03*
X004150Y001150D03*
X005150Y001150D03*
X005150Y002150D03*
X006150Y002150D03*
X006150Y001150D03*
X007150Y001150D03*
X007150Y002150D03*
X008150Y002150D03*
X008150Y001150D03*
X009150Y001150D03*
X009150Y002150D03*
X010150Y002150D03*
X010150Y001150D03*
X011150Y001150D03*
X011150Y002150D03*
X012150Y002150D03*
X012150Y001150D03*
X013150Y001150D03*
X013150Y002150D03*
X014150Y002150D03*
X014150Y001150D03*
X015150Y001150D03*
X015150Y002150D03*
X016150Y002150D03*
X016150Y001150D03*
X017150Y001150D03*
X017150Y002150D03*
D14*
X018678Y006386D03*
X018678Y010914D03*
X009622Y010914D03*
X009622Y006386D03*
D15*
X008150Y014080D03*
X008150Y015220D03*
X005150Y017150D03*
X005250Y018150D03*
X005150Y019150D03*
X005250Y020150D03*
X005150Y021150D03*
X005250Y022150D03*
X014150Y021150D03*
X014250Y020150D03*
X014150Y019150D03*
X014250Y018150D03*
X014150Y017150D03*
X014250Y022150D03*
M02*
