G75*
%MOIN*%
%OFA0B0*%
%FSLAX25Y25*%
%IPPOS*%
%LPD*%
%AMOC8*
5,1,8,0,0,1.08239X$1,22.5*
%
%ADD10C,0.00000*%
D10*
X0001500Y0001500D02*
X0001500Y0261500D01*
X0201500Y0261500D01*
X0201500Y0173500D01*
X0201488Y0001480D01*
X0001500Y0001500D01*
X0088881Y0063862D02*
X0088883Y0064042D01*
X0088890Y0064222D01*
X0088901Y0064402D01*
X0088916Y0064582D01*
X0088936Y0064761D01*
X0088960Y0064939D01*
X0088989Y0065117D01*
X0089022Y0065295D01*
X0089059Y0065471D01*
X0089101Y0065646D01*
X0089147Y0065820D01*
X0089197Y0065994D01*
X0089252Y0066165D01*
X0089310Y0066336D01*
X0089373Y0066505D01*
X0089440Y0066672D01*
X0089511Y0066838D01*
X0089586Y0067002D01*
X0089665Y0067163D01*
X0089748Y0067323D01*
X0089835Y0067481D01*
X0089926Y0067637D01*
X0090020Y0067790D01*
X0090119Y0067942D01*
X0090220Y0068090D01*
X0090326Y0068236D01*
X0090435Y0068380D01*
X0090548Y0068520D01*
X0090664Y0068658D01*
X0090783Y0068793D01*
X0090906Y0068925D01*
X0091032Y0069054D01*
X0091161Y0069180D01*
X0091293Y0069303D01*
X0091428Y0069422D01*
X0091566Y0069538D01*
X0091706Y0069651D01*
X0091850Y0069760D01*
X0091996Y0069866D01*
X0092144Y0069967D01*
X0092296Y0070066D01*
X0092449Y0070160D01*
X0092605Y0070251D01*
X0092763Y0070338D01*
X0092923Y0070421D01*
X0093084Y0070500D01*
X0093248Y0070575D01*
X0093414Y0070646D01*
X0093581Y0070713D01*
X0093750Y0070776D01*
X0093921Y0070834D01*
X0094092Y0070889D01*
X0094266Y0070939D01*
X0094440Y0070985D01*
X0094615Y0071027D01*
X0094791Y0071064D01*
X0094969Y0071097D01*
X0095147Y0071126D01*
X0095325Y0071150D01*
X0095504Y0071170D01*
X0095684Y0071185D01*
X0095864Y0071196D01*
X0096044Y0071203D01*
X0096224Y0071205D01*
X0096404Y0071203D01*
X0096584Y0071196D01*
X0096764Y0071185D01*
X0096944Y0071170D01*
X0097123Y0071150D01*
X0097301Y0071126D01*
X0097479Y0071097D01*
X0097657Y0071064D01*
X0097833Y0071027D01*
X0098008Y0070985D01*
X0098182Y0070939D01*
X0098356Y0070889D01*
X0098527Y0070834D01*
X0098698Y0070776D01*
X0098867Y0070713D01*
X0099034Y0070646D01*
X0099200Y0070575D01*
X0099364Y0070500D01*
X0099525Y0070421D01*
X0099685Y0070338D01*
X0099843Y0070251D01*
X0099999Y0070160D01*
X0100152Y0070066D01*
X0100304Y0069967D01*
X0100452Y0069866D01*
X0100598Y0069760D01*
X0100742Y0069651D01*
X0100882Y0069538D01*
X0101020Y0069422D01*
X0101155Y0069303D01*
X0101287Y0069180D01*
X0101416Y0069054D01*
X0101542Y0068925D01*
X0101665Y0068793D01*
X0101784Y0068658D01*
X0101900Y0068520D01*
X0102013Y0068380D01*
X0102122Y0068236D01*
X0102228Y0068090D01*
X0102329Y0067942D01*
X0102428Y0067790D01*
X0102522Y0067637D01*
X0102613Y0067481D01*
X0102700Y0067323D01*
X0102783Y0067163D01*
X0102862Y0067002D01*
X0102937Y0066838D01*
X0103008Y0066672D01*
X0103075Y0066505D01*
X0103138Y0066336D01*
X0103196Y0066165D01*
X0103251Y0065994D01*
X0103301Y0065820D01*
X0103347Y0065646D01*
X0103389Y0065471D01*
X0103426Y0065295D01*
X0103459Y0065117D01*
X0103488Y0064939D01*
X0103512Y0064761D01*
X0103532Y0064582D01*
X0103547Y0064402D01*
X0103558Y0064222D01*
X0103565Y0064042D01*
X0103567Y0063862D01*
X0103565Y0063682D01*
X0103558Y0063502D01*
X0103547Y0063322D01*
X0103532Y0063142D01*
X0103512Y0062963D01*
X0103488Y0062785D01*
X0103459Y0062607D01*
X0103426Y0062429D01*
X0103389Y0062253D01*
X0103347Y0062078D01*
X0103301Y0061904D01*
X0103251Y0061730D01*
X0103196Y0061559D01*
X0103138Y0061388D01*
X0103075Y0061219D01*
X0103008Y0061052D01*
X0102937Y0060886D01*
X0102862Y0060722D01*
X0102783Y0060561D01*
X0102700Y0060401D01*
X0102613Y0060243D01*
X0102522Y0060087D01*
X0102428Y0059934D01*
X0102329Y0059782D01*
X0102228Y0059634D01*
X0102122Y0059488D01*
X0102013Y0059344D01*
X0101900Y0059204D01*
X0101784Y0059066D01*
X0101665Y0058931D01*
X0101542Y0058799D01*
X0101416Y0058670D01*
X0101287Y0058544D01*
X0101155Y0058421D01*
X0101020Y0058302D01*
X0100882Y0058186D01*
X0100742Y0058073D01*
X0100598Y0057964D01*
X0100452Y0057858D01*
X0100304Y0057757D01*
X0100152Y0057658D01*
X0099999Y0057564D01*
X0099843Y0057473D01*
X0099685Y0057386D01*
X0099525Y0057303D01*
X0099364Y0057224D01*
X0099200Y0057149D01*
X0099034Y0057078D01*
X0098867Y0057011D01*
X0098698Y0056948D01*
X0098527Y0056890D01*
X0098356Y0056835D01*
X0098182Y0056785D01*
X0098008Y0056739D01*
X0097833Y0056697D01*
X0097657Y0056660D01*
X0097479Y0056627D01*
X0097301Y0056598D01*
X0097123Y0056574D01*
X0096944Y0056554D01*
X0096764Y0056539D01*
X0096584Y0056528D01*
X0096404Y0056521D01*
X0096224Y0056519D01*
X0096044Y0056521D01*
X0095864Y0056528D01*
X0095684Y0056539D01*
X0095504Y0056554D01*
X0095325Y0056574D01*
X0095147Y0056598D01*
X0094969Y0056627D01*
X0094791Y0056660D01*
X0094615Y0056697D01*
X0094440Y0056739D01*
X0094266Y0056785D01*
X0094092Y0056835D01*
X0093921Y0056890D01*
X0093750Y0056948D01*
X0093581Y0057011D01*
X0093414Y0057078D01*
X0093248Y0057149D01*
X0093084Y0057224D01*
X0092923Y0057303D01*
X0092763Y0057386D01*
X0092605Y0057473D01*
X0092449Y0057564D01*
X0092296Y0057658D01*
X0092144Y0057757D01*
X0091996Y0057858D01*
X0091850Y0057964D01*
X0091706Y0058073D01*
X0091566Y0058186D01*
X0091428Y0058302D01*
X0091293Y0058421D01*
X0091161Y0058544D01*
X0091032Y0058670D01*
X0090906Y0058799D01*
X0090783Y0058931D01*
X0090664Y0059066D01*
X0090548Y0059204D01*
X0090435Y0059344D01*
X0090326Y0059488D01*
X0090220Y0059634D01*
X0090119Y0059782D01*
X0090020Y0059934D01*
X0089926Y0060087D01*
X0089835Y0060243D01*
X0089748Y0060401D01*
X0089665Y0060561D01*
X0089586Y0060722D01*
X0089511Y0060886D01*
X0089440Y0061052D01*
X0089373Y0061219D01*
X0089310Y0061388D01*
X0089252Y0061559D01*
X0089197Y0061730D01*
X0089147Y0061904D01*
X0089101Y0062078D01*
X0089059Y0062253D01*
X0089022Y0062429D01*
X0088989Y0062607D01*
X0088960Y0062785D01*
X0088936Y0062963D01*
X0088916Y0063142D01*
X0088901Y0063322D01*
X0088890Y0063502D01*
X0088883Y0063682D01*
X0088881Y0063862D01*
X0088881Y0109138D02*
X0088883Y0109318D01*
X0088890Y0109498D01*
X0088901Y0109678D01*
X0088916Y0109858D01*
X0088936Y0110037D01*
X0088960Y0110215D01*
X0088989Y0110393D01*
X0089022Y0110571D01*
X0089059Y0110747D01*
X0089101Y0110922D01*
X0089147Y0111096D01*
X0089197Y0111270D01*
X0089252Y0111441D01*
X0089310Y0111612D01*
X0089373Y0111781D01*
X0089440Y0111948D01*
X0089511Y0112114D01*
X0089586Y0112278D01*
X0089665Y0112439D01*
X0089748Y0112599D01*
X0089835Y0112757D01*
X0089926Y0112913D01*
X0090020Y0113066D01*
X0090119Y0113218D01*
X0090220Y0113366D01*
X0090326Y0113512D01*
X0090435Y0113656D01*
X0090548Y0113796D01*
X0090664Y0113934D01*
X0090783Y0114069D01*
X0090906Y0114201D01*
X0091032Y0114330D01*
X0091161Y0114456D01*
X0091293Y0114579D01*
X0091428Y0114698D01*
X0091566Y0114814D01*
X0091706Y0114927D01*
X0091850Y0115036D01*
X0091996Y0115142D01*
X0092144Y0115243D01*
X0092296Y0115342D01*
X0092449Y0115436D01*
X0092605Y0115527D01*
X0092763Y0115614D01*
X0092923Y0115697D01*
X0093084Y0115776D01*
X0093248Y0115851D01*
X0093414Y0115922D01*
X0093581Y0115989D01*
X0093750Y0116052D01*
X0093921Y0116110D01*
X0094092Y0116165D01*
X0094266Y0116215D01*
X0094440Y0116261D01*
X0094615Y0116303D01*
X0094791Y0116340D01*
X0094969Y0116373D01*
X0095147Y0116402D01*
X0095325Y0116426D01*
X0095504Y0116446D01*
X0095684Y0116461D01*
X0095864Y0116472D01*
X0096044Y0116479D01*
X0096224Y0116481D01*
X0096404Y0116479D01*
X0096584Y0116472D01*
X0096764Y0116461D01*
X0096944Y0116446D01*
X0097123Y0116426D01*
X0097301Y0116402D01*
X0097479Y0116373D01*
X0097657Y0116340D01*
X0097833Y0116303D01*
X0098008Y0116261D01*
X0098182Y0116215D01*
X0098356Y0116165D01*
X0098527Y0116110D01*
X0098698Y0116052D01*
X0098867Y0115989D01*
X0099034Y0115922D01*
X0099200Y0115851D01*
X0099364Y0115776D01*
X0099525Y0115697D01*
X0099685Y0115614D01*
X0099843Y0115527D01*
X0099999Y0115436D01*
X0100152Y0115342D01*
X0100304Y0115243D01*
X0100452Y0115142D01*
X0100598Y0115036D01*
X0100742Y0114927D01*
X0100882Y0114814D01*
X0101020Y0114698D01*
X0101155Y0114579D01*
X0101287Y0114456D01*
X0101416Y0114330D01*
X0101542Y0114201D01*
X0101665Y0114069D01*
X0101784Y0113934D01*
X0101900Y0113796D01*
X0102013Y0113656D01*
X0102122Y0113512D01*
X0102228Y0113366D01*
X0102329Y0113218D01*
X0102428Y0113066D01*
X0102522Y0112913D01*
X0102613Y0112757D01*
X0102700Y0112599D01*
X0102783Y0112439D01*
X0102862Y0112278D01*
X0102937Y0112114D01*
X0103008Y0111948D01*
X0103075Y0111781D01*
X0103138Y0111612D01*
X0103196Y0111441D01*
X0103251Y0111270D01*
X0103301Y0111096D01*
X0103347Y0110922D01*
X0103389Y0110747D01*
X0103426Y0110571D01*
X0103459Y0110393D01*
X0103488Y0110215D01*
X0103512Y0110037D01*
X0103532Y0109858D01*
X0103547Y0109678D01*
X0103558Y0109498D01*
X0103565Y0109318D01*
X0103567Y0109138D01*
X0103565Y0108958D01*
X0103558Y0108778D01*
X0103547Y0108598D01*
X0103532Y0108418D01*
X0103512Y0108239D01*
X0103488Y0108061D01*
X0103459Y0107883D01*
X0103426Y0107705D01*
X0103389Y0107529D01*
X0103347Y0107354D01*
X0103301Y0107180D01*
X0103251Y0107006D01*
X0103196Y0106835D01*
X0103138Y0106664D01*
X0103075Y0106495D01*
X0103008Y0106328D01*
X0102937Y0106162D01*
X0102862Y0105998D01*
X0102783Y0105837D01*
X0102700Y0105677D01*
X0102613Y0105519D01*
X0102522Y0105363D01*
X0102428Y0105210D01*
X0102329Y0105058D01*
X0102228Y0104910D01*
X0102122Y0104764D01*
X0102013Y0104620D01*
X0101900Y0104480D01*
X0101784Y0104342D01*
X0101665Y0104207D01*
X0101542Y0104075D01*
X0101416Y0103946D01*
X0101287Y0103820D01*
X0101155Y0103697D01*
X0101020Y0103578D01*
X0100882Y0103462D01*
X0100742Y0103349D01*
X0100598Y0103240D01*
X0100452Y0103134D01*
X0100304Y0103033D01*
X0100152Y0102934D01*
X0099999Y0102840D01*
X0099843Y0102749D01*
X0099685Y0102662D01*
X0099525Y0102579D01*
X0099364Y0102500D01*
X0099200Y0102425D01*
X0099034Y0102354D01*
X0098867Y0102287D01*
X0098698Y0102224D01*
X0098527Y0102166D01*
X0098356Y0102111D01*
X0098182Y0102061D01*
X0098008Y0102015D01*
X0097833Y0101973D01*
X0097657Y0101936D01*
X0097479Y0101903D01*
X0097301Y0101874D01*
X0097123Y0101850D01*
X0096944Y0101830D01*
X0096764Y0101815D01*
X0096584Y0101804D01*
X0096404Y0101797D01*
X0096224Y0101795D01*
X0096044Y0101797D01*
X0095864Y0101804D01*
X0095684Y0101815D01*
X0095504Y0101830D01*
X0095325Y0101850D01*
X0095147Y0101874D01*
X0094969Y0101903D01*
X0094791Y0101936D01*
X0094615Y0101973D01*
X0094440Y0102015D01*
X0094266Y0102061D01*
X0094092Y0102111D01*
X0093921Y0102166D01*
X0093750Y0102224D01*
X0093581Y0102287D01*
X0093414Y0102354D01*
X0093248Y0102425D01*
X0093084Y0102500D01*
X0092923Y0102579D01*
X0092763Y0102662D01*
X0092605Y0102749D01*
X0092449Y0102840D01*
X0092296Y0102934D01*
X0092144Y0103033D01*
X0091996Y0103134D01*
X0091850Y0103240D01*
X0091706Y0103349D01*
X0091566Y0103462D01*
X0091428Y0103578D01*
X0091293Y0103697D01*
X0091161Y0103820D01*
X0091032Y0103946D01*
X0090906Y0104075D01*
X0090783Y0104207D01*
X0090664Y0104342D01*
X0090548Y0104480D01*
X0090435Y0104620D01*
X0090326Y0104764D01*
X0090220Y0104910D01*
X0090119Y0105058D01*
X0090020Y0105210D01*
X0089926Y0105363D01*
X0089835Y0105519D01*
X0089748Y0105677D01*
X0089665Y0105837D01*
X0089586Y0105998D01*
X0089511Y0106162D01*
X0089440Y0106328D01*
X0089373Y0106495D01*
X0089310Y0106664D01*
X0089252Y0106835D01*
X0089197Y0107006D01*
X0089147Y0107180D01*
X0089101Y0107354D01*
X0089059Y0107529D01*
X0089022Y0107705D01*
X0088989Y0107883D01*
X0088960Y0108061D01*
X0088936Y0108239D01*
X0088916Y0108418D01*
X0088901Y0108598D01*
X0088890Y0108778D01*
X0088883Y0108958D01*
X0088881Y0109138D01*
X0005250Y0216500D02*
X0005252Y0216658D01*
X0005258Y0216815D01*
X0005268Y0216973D01*
X0005282Y0217130D01*
X0005300Y0217286D01*
X0005321Y0217443D01*
X0005347Y0217598D01*
X0005377Y0217753D01*
X0005410Y0217907D01*
X0005448Y0218060D01*
X0005489Y0218213D01*
X0005534Y0218364D01*
X0005583Y0218514D01*
X0005636Y0218662D01*
X0005692Y0218810D01*
X0005753Y0218955D01*
X0005816Y0219100D01*
X0005884Y0219242D01*
X0005955Y0219383D01*
X0006029Y0219522D01*
X0006107Y0219659D01*
X0006189Y0219794D01*
X0006273Y0219927D01*
X0006362Y0220058D01*
X0006453Y0220186D01*
X0006548Y0220313D01*
X0006645Y0220436D01*
X0006746Y0220558D01*
X0006850Y0220676D01*
X0006957Y0220792D01*
X0007067Y0220905D01*
X0007179Y0221016D01*
X0007295Y0221123D01*
X0007413Y0221228D01*
X0007533Y0221330D01*
X0007656Y0221428D01*
X0007782Y0221524D01*
X0007910Y0221616D01*
X0008040Y0221705D01*
X0008172Y0221791D01*
X0008307Y0221873D01*
X0008444Y0221952D01*
X0008582Y0222027D01*
X0008722Y0222099D01*
X0008865Y0222167D01*
X0009008Y0222232D01*
X0009154Y0222293D01*
X0009301Y0222350D01*
X0009449Y0222404D01*
X0009599Y0222454D01*
X0009749Y0222500D01*
X0009901Y0222542D01*
X0010054Y0222581D01*
X0010208Y0222615D01*
X0010363Y0222646D01*
X0010518Y0222672D01*
X0010674Y0222695D01*
X0010831Y0222714D01*
X0010988Y0222729D01*
X0011145Y0222740D01*
X0011303Y0222747D01*
X0011461Y0222750D01*
X0011618Y0222749D01*
X0011776Y0222744D01*
X0011933Y0222735D01*
X0012091Y0222722D01*
X0012247Y0222705D01*
X0012404Y0222684D01*
X0012559Y0222660D01*
X0012714Y0222631D01*
X0012869Y0222598D01*
X0013022Y0222562D01*
X0013175Y0222521D01*
X0013326Y0222477D01*
X0013476Y0222429D01*
X0013625Y0222378D01*
X0013773Y0222322D01*
X0013919Y0222263D01*
X0014064Y0222200D01*
X0014207Y0222133D01*
X0014348Y0222063D01*
X0014487Y0221990D01*
X0014625Y0221913D01*
X0014761Y0221832D01*
X0014894Y0221748D01*
X0015025Y0221661D01*
X0015154Y0221570D01*
X0015281Y0221476D01*
X0015406Y0221379D01*
X0015527Y0221279D01*
X0015647Y0221176D01*
X0015763Y0221070D01*
X0015877Y0220961D01*
X0015989Y0220849D01*
X0016097Y0220735D01*
X0016202Y0220617D01*
X0016305Y0220497D01*
X0016404Y0220375D01*
X0016500Y0220250D01*
X0016593Y0220122D01*
X0016683Y0219993D01*
X0016769Y0219861D01*
X0016853Y0219727D01*
X0016932Y0219591D01*
X0017009Y0219453D01*
X0017081Y0219313D01*
X0017150Y0219171D01*
X0017216Y0219028D01*
X0017278Y0218883D01*
X0017336Y0218736D01*
X0017391Y0218588D01*
X0017442Y0218439D01*
X0017489Y0218288D01*
X0017532Y0218137D01*
X0017571Y0217984D01*
X0017607Y0217830D01*
X0017638Y0217676D01*
X0017666Y0217521D01*
X0017690Y0217365D01*
X0017710Y0217208D01*
X0017726Y0217051D01*
X0017738Y0216894D01*
X0017746Y0216737D01*
X0017750Y0216579D01*
X0017750Y0216421D01*
X0017746Y0216263D01*
X0017738Y0216106D01*
X0017726Y0215949D01*
X0017710Y0215792D01*
X0017690Y0215635D01*
X0017666Y0215479D01*
X0017638Y0215324D01*
X0017607Y0215170D01*
X0017571Y0215016D01*
X0017532Y0214863D01*
X0017489Y0214712D01*
X0017442Y0214561D01*
X0017391Y0214412D01*
X0017336Y0214264D01*
X0017278Y0214117D01*
X0017216Y0213972D01*
X0017150Y0213829D01*
X0017081Y0213687D01*
X0017009Y0213547D01*
X0016932Y0213409D01*
X0016853Y0213273D01*
X0016769Y0213139D01*
X0016683Y0213007D01*
X0016593Y0212878D01*
X0016500Y0212750D01*
X0016404Y0212625D01*
X0016305Y0212503D01*
X0016202Y0212383D01*
X0016097Y0212265D01*
X0015989Y0212151D01*
X0015877Y0212039D01*
X0015763Y0211930D01*
X0015647Y0211824D01*
X0015527Y0211721D01*
X0015406Y0211621D01*
X0015281Y0211524D01*
X0015154Y0211430D01*
X0015025Y0211339D01*
X0014894Y0211252D01*
X0014761Y0211168D01*
X0014625Y0211087D01*
X0014487Y0211010D01*
X0014348Y0210937D01*
X0014207Y0210867D01*
X0014064Y0210800D01*
X0013919Y0210737D01*
X0013773Y0210678D01*
X0013625Y0210622D01*
X0013476Y0210571D01*
X0013326Y0210523D01*
X0013175Y0210479D01*
X0013022Y0210438D01*
X0012869Y0210402D01*
X0012714Y0210369D01*
X0012559Y0210340D01*
X0012404Y0210316D01*
X0012247Y0210295D01*
X0012091Y0210278D01*
X0011933Y0210265D01*
X0011776Y0210256D01*
X0011618Y0210251D01*
X0011461Y0210250D01*
X0011303Y0210253D01*
X0011145Y0210260D01*
X0010988Y0210271D01*
X0010831Y0210286D01*
X0010674Y0210305D01*
X0010518Y0210328D01*
X0010363Y0210354D01*
X0010208Y0210385D01*
X0010054Y0210419D01*
X0009901Y0210458D01*
X0009749Y0210500D01*
X0009599Y0210546D01*
X0009449Y0210596D01*
X0009301Y0210650D01*
X0009154Y0210707D01*
X0009008Y0210768D01*
X0008865Y0210833D01*
X0008722Y0210901D01*
X0008582Y0210973D01*
X0008444Y0211048D01*
X0008307Y0211127D01*
X0008172Y0211209D01*
X0008040Y0211295D01*
X0007910Y0211384D01*
X0007782Y0211476D01*
X0007656Y0211572D01*
X0007533Y0211670D01*
X0007413Y0211772D01*
X0007295Y0211877D01*
X0007179Y0211984D01*
X0007067Y0212095D01*
X0006957Y0212208D01*
X0006850Y0212324D01*
X0006746Y0212442D01*
X0006645Y0212564D01*
X0006548Y0212687D01*
X0006453Y0212814D01*
X0006362Y0212942D01*
X0006273Y0213073D01*
X0006189Y0213206D01*
X0006107Y0213341D01*
X0006029Y0213478D01*
X0005955Y0213617D01*
X0005884Y0213758D01*
X0005816Y0213900D01*
X0005753Y0214045D01*
X0005692Y0214190D01*
X0005636Y0214338D01*
X0005583Y0214486D01*
X0005534Y0214636D01*
X0005489Y0214787D01*
X0005448Y0214940D01*
X0005410Y0215093D01*
X0005377Y0215247D01*
X0005347Y0215402D01*
X0005321Y0215557D01*
X0005300Y0215714D01*
X0005282Y0215870D01*
X0005268Y0216027D01*
X0005258Y0216185D01*
X0005252Y0216342D01*
X0005250Y0216500D01*
X0179433Y0109138D02*
X0179435Y0109318D01*
X0179442Y0109498D01*
X0179453Y0109678D01*
X0179468Y0109858D01*
X0179488Y0110037D01*
X0179512Y0110215D01*
X0179541Y0110393D01*
X0179574Y0110571D01*
X0179611Y0110747D01*
X0179653Y0110922D01*
X0179699Y0111096D01*
X0179749Y0111270D01*
X0179804Y0111441D01*
X0179862Y0111612D01*
X0179925Y0111781D01*
X0179992Y0111948D01*
X0180063Y0112114D01*
X0180138Y0112278D01*
X0180217Y0112439D01*
X0180300Y0112599D01*
X0180387Y0112757D01*
X0180478Y0112913D01*
X0180572Y0113066D01*
X0180671Y0113218D01*
X0180772Y0113366D01*
X0180878Y0113512D01*
X0180987Y0113656D01*
X0181100Y0113796D01*
X0181216Y0113934D01*
X0181335Y0114069D01*
X0181458Y0114201D01*
X0181584Y0114330D01*
X0181713Y0114456D01*
X0181845Y0114579D01*
X0181980Y0114698D01*
X0182118Y0114814D01*
X0182258Y0114927D01*
X0182402Y0115036D01*
X0182548Y0115142D01*
X0182696Y0115243D01*
X0182848Y0115342D01*
X0183001Y0115436D01*
X0183157Y0115527D01*
X0183315Y0115614D01*
X0183475Y0115697D01*
X0183636Y0115776D01*
X0183800Y0115851D01*
X0183966Y0115922D01*
X0184133Y0115989D01*
X0184302Y0116052D01*
X0184473Y0116110D01*
X0184644Y0116165D01*
X0184818Y0116215D01*
X0184992Y0116261D01*
X0185167Y0116303D01*
X0185343Y0116340D01*
X0185521Y0116373D01*
X0185699Y0116402D01*
X0185877Y0116426D01*
X0186056Y0116446D01*
X0186236Y0116461D01*
X0186416Y0116472D01*
X0186596Y0116479D01*
X0186776Y0116481D01*
X0186956Y0116479D01*
X0187136Y0116472D01*
X0187316Y0116461D01*
X0187496Y0116446D01*
X0187675Y0116426D01*
X0187853Y0116402D01*
X0188031Y0116373D01*
X0188209Y0116340D01*
X0188385Y0116303D01*
X0188560Y0116261D01*
X0188734Y0116215D01*
X0188908Y0116165D01*
X0189079Y0116110D01*
X0189250Y0116052D01*
X0189419Y0115989D01*
X0189586Y0115922D01*
X0189752Y0115851D01*
X0189916Y0115776D01*
X0190077Y0115697D01*
X0190237Y0115614D01*
X0190395Y0115527D01*
X0190551Y0115436D01*
X0190704Y0115342D01*
X0190856Y0115243D01*
X0191004Y0115142D01*
X0191150Y0115036D01*
X0191294Y0114927D01*
X0191434Y0114814D01*
X0191572Y0114698D01*
X0191707Y0114579D01*
X0191839Y0114456D01*
X0191968Y0114330D01*
X0192094Y0114201D01*
X0192217Y0114069D01*
X0192336Y0113934D01*
X0192452Y0113796D01*
X0192565Y0113656D01*
X0192674Y0113512D01*
X0192780Y0113366D01*
X0192881Y0113218D01*
X0192980Y0113066D01*
X0193074Y0112913D01*
X0193165Y0112757D01*
X0193252Y0112599D01*
X0193335Y0112439D01*
X0193414Y0112278D01*
X0193489Y0112114D01*
X0193560Y0111948D01*
X0193627Y0111781D01*
X0193690Y0111612D01*
X0193748Y0111441D01*
X0193803Y0111270D01*
X0193853Y0111096D01*
X0193899Y0110922D01*
X0193941Y0110747D01*
X0193978Y0110571D01*
X0194011Y0110393D01*
X0194040Y0110215D01*
X0194064Y0110037D01*
X0194084Y0109858D01*
X0194099Y0109678D01*
X0194110Y0109498D01*
X0194117Y0109318D01*
X0194119Y0109138D01*
X0194117Y0108958D01*
X0194110Y0108778D01*
X0194099Y0108598D01*
X0194084Y0108418D01*
X0194064Y0108239D01*
X0194040Y0108061D01*
X0194011Y0107883D01*
X0193978Y0107705D01*
X0193941Y0107529D01*
X0193899Y0107354D01*
X0193853Y0107180D01*
X0193803Y0107006D01*
X0193748Y0106835D01*
X0193690Y0106664D01*
X0193627Y0106495D01*
X0193560Y0106328D01*
X0193489Y0106162D01*
X0193414Y0105998D01*
X0193335Y0105837D01*
X0193252Y0105677D01*
X0193165Y0105519D01*
X0193074Y0105363D01*
X0192980Y0105210D01*
X0192881Y0105058D01*
X0192780Y0104910D01*
X0192674Y0104764D01*
X0192565Y0104620D01*
X0192452Y0104480D01*
X0192336Y0104342D01*
X0192217Y0104207D01*
X0192094Y0104075D01*
X0191968Y0103946D01*
X0191839Y0103820D01*
X0191707Y0103697D01*
X0191572Y0103578D01*
X0191434Y0103462D01*
X0191294Y0103349D01*
X0191150Y0103240D01*
X0191004Y0103134D01*
X0190856Y0103033D01*
X0190704Y0102934D01*
X0190551Y0102840D01*
X0190395Y0102749D01*
X0190237Y0102662D01*
X0190077Y0102579D01*
X0189916Y0102500D01*
X0189752Y0102425D01*
X0189586Y0102354D01*
X0189419Y0102287D01*
X0189250Y0102224D01*
X0189079Y0102166D01*
X0188908Y0102111D01*
X0188734Y0102061D01*
X0188560Y0102015D01*
X0188385Y0101973D01*
X0188209Y0101936D01*
X0188031Y0101903D01*
X0187853Y0101874D01*
X0187675Y0101850D01*
X0187496Y0101830D01*
X0187316Y0101815D01*
X0187136Y0101804D01*
X0186956Y0101797D01*
X0186776Y0101795D01*
X0186596Y0101797D01*
X0186416Y0101804D01*
X0186236Y0101815D01*
X0186056Y0101830D01*
X0185877Y0101850D01*
X0185699Y0101874D01*
X0185521Y0101903D01*
X0185343Y0101936D01*
X0185167Y0101973D01*
X0184992Y0102015D01*
X0184818Y0102061D01*
X0184644Y0102111D01*
X0184473Y0102166D01*
X0184302Y0102224D01*
X0184133Y0102287D01*
X0183966Y0102354D01*
X0183800Y0102425D01*
X0183636Y0102500D01*
X0183475Y0102579D01*
X0183315Y0102662D01*
X0183157Y0102749D01*
X0183001Y0102840D01*
X0182848Y0102934D01*
X0182696Y0103033D01*
X0182548Y0103134D01*
X0182402Y0103240D01*
X0182258Y0103349D01*
X0182118Y0103462D01*
X0181980Y0103578D01*
X0181845Y0103697D01*
X0181713Y0103820D01*
X0181584Y0103946D01*
X0181458Y0104075D01*
X0181335Y0104207D01*
X0181216Y0104342D01*
X0181100Y0104480D01*
X0180987Y0104620D01*
X0180878Y0104764D01*
X0180772Y0104910D01*
X0180671Y0105058D01*
X0180572Y0105210D01*
X0180478Y0105363D01*
X0180387Y0105519D01*
X0180300Y0105677D01*
X0180217Y0105837D01*
X0180138Y0105998D01*
X0180063Y0106162D01*
X0179992Y0106328D01*
X0179925Y0106495D01*
X0179862Y0106664D01*
X0179804Y0106835D01*
X0179749Y0107006D01*
X0179699Y0107180D01*
X0179653Y0107354D01*
X0179611Y0107529D01*
X0179574Y0107705D01*
X0179541Y0107883D01*
X0179512Y0108061D01*
X0179488Y0108239D01*
X0179468Y0108418D01*
X0179453Y0108598D01*
X0179442Y0108778D01*
X0179435Y0108958D01*
X0179433Y0109138D01*
X0179433Y0063862D02*
X0179435Y0064042D01*
X0179442Y0064222D01*
X0179453Y0064402D01*
X0179468Y0064582D01*
X0179488Y0064761D01*
X0179512Y0064939D01*
X0179541Y0065117D01*
X0179574Y0065295D01*
X0179611Y0065471D01*
X0179653Y0065646D01*
X0179699Y0065820D01*
X0179749Y0065994D01*
X0179804Y0066165D01*
X0179862Y0066336D01*
X0179925Y0066505D01*
X0179992Y0066672D01*
X0180063Y0066838D01*
X0180138Y0067002D01*
X0180217Y0067163D01*
X0180300Y0067323D01*
X0180387Y0067481D01*
X0180478Y0067637D01*
X0180572Y0067790D01*
X0180671Y0067942D01*
X0180772Y0068090D01*
X0180878Y0068236D01*
X0180987Y0068380D01*
X0181100Y0068520D01*
X0181216Y0068658D01*
X0181335Y0068793D01*
X0181458Y0068925D01*
X0181584Y0069054D01*
X0181713Y0069180D01*
X0181845Y0069303D01*
X0181980Y0069422D01*
X0182118Y0069538D01*
X0182258Y0069651D01*
X0182402Y0069760D01*
X0182548Y0069866D01*
X0182696Y0069967D01*
X0182848Y0070066D01*
X0183001Y0070160D01*
X0183157Y0070251D01*
X0183315Y0070338D01*
X0183475Y0070421D01*
X0183636Y0070500D01*
X0183800Y0070575D01*
X0183966Y0070646D01*
X0184133Y0070713D01*
X0184302Y0070776D01*
X0184473Y0070834D01*
X0184644Y0070889D01*
X0184818Y0070939D01*
X0184992Y0070985D01*
X0185167Y0071027D01*
X0185343Y0071064D01*
X0185521Y0071097D01*
X0185699Y0071126D01*
X0185877Y0071150D01*
X0186056Y0071170D01*
X0186236Y0071185D01*
X0186416Y0071196D01*
X0186596Y0071203D01*
X0186776Y0071205D01*
X0186956Y0071203D01*
X0187136Y0071196D01*
X0187316Y0071185D01*
X0187496Y0071170D01*
X0187675Y0071150D01*
X0187853Y0071126D01*
X0188031Y0071097D01*
X0188209Y0071064D01*
X0188385Y0071027D01*
X0188560Y0070985D01*
X0188734Y0070939D01*
X0188908Y0070889D01*
X0189079Y0070834D01*
X0189250Y0070776D01*
X0189419Y0070713D01*
X0189586Y0070646D01*
X0189752Y0070575D01*
X0189916Y0070500D01*
X0190077Y0070421D01*
X0190237Y0070338D01*
X0190395Y0070251D01*
X0190551Y0070160D01*
X0190704Y0070066D01*
X0190856Y0069967D01*
X0191004Y0069866D01*
X0191150Y0069760D01*
X0191294Y0069651D01*
X0191434Y0069538D01*
X0191572Y0069422D01*
X0191707Y0069303D01*
X0191839Y0069180D01*
X0191968Y0069054D01*
X0192094Y0068925D01*
X0192217Y0068793D01*
X0192336Y0068658D01*
X0192452Y0068520D01*
X0192565Y0068380D01*
X0192674Y0068236D01*
X0192780Y0068090D01*
X0192881Y0067942D01*
X0192980Y0067790D01*
X0193074Y0067637D01*
X0193165Y0067481D01*
X0193252Y0067323D01*
X0193335Y0067163D01*
X0193414Y0067002D01*
X0193489Y0066838D01*
X0193560Y0066672D01*
X0193627Y0066505D01*
X0193690Y0066336D01*
X0193748Y0066165D01*
X0193803Y0065994D01*
X0193853Y0065820D01*
X0193899Y0065646D01*
X0193941Y0065471D01*
X0193978Y0065295D01*
X0194011Y0065117D01*
X0194040Y0064939D01*
X0194064Y0064761D01*
X0194084Y0064582D01*
X0194099Y0064402D01*
X0194110Y0064222D01*
X0194117Y0064042D01*
X0194119Y0063862D01*
X0194117Y0063682D01*
X0194110Y0063502D01*
X0194099Y0063322D01*
X0194084Y0063142D01*
X0194064Y0062963D01*
X0194040Y0062785D01*
X0194011Y0062607D01*
X0193978Y0062429D01*
X0193941Y0062253D01*
X0193899Y0062078D01*
X0193853Y0061904D01*
X0193803Y0061730D01*
X0193748Y0061559D01*
X0193690Y0061388D01*
X0193627Y0061219D01*
X0193560Y0061052D01*
X0193489Y0060886D01*
X0193414Y0060722D01*
X0193335Y0060561D01*
X0193252Y0060401D01*
X0193165Y0060243D01*
X0193074Y0060087D01*
X0192980Y0059934D01*
X0192881Y0059782D01*
X0192780Y0059634D01*
X0192674Y0059488D01*
X0192565Y0059344D01*
X0192452Y0059204D01*
X0192336Y0059066D01*
X0192217Y0058931D01*
X0192094Y0058799D01*
X0191968Y0058670D01*
X0191839Y0058544D01*
X0191707Y0058421D01*
X0191572Y0058302D01*
X0191434Y0058186D01*
X0191294Y0058073D01*
X0191150Y0057964D01*
X0191004Y0057858D01*
X0190856Y0057757D01*
X0190704Y0057658D01*
X0190551Y0057564D01*
X0190395Y0057473D01*
X0190237Y0057386D01*
X0190077Y0057303D01*
X0189916Y0057224D01*
X0189752Y0057149D01*
X0189586Y0057078D01*
X0189419Y0057011D01*
X0189250Y0056948D01*
X0189079Y0056890D01*
X0188908Y0056835D01*
X0188734Y0056785D01*
X0188560Y0056739D01*
X0188385Y0056697D01*
X0188209Y0056660D01*
X0188031Y0056627D01*
X0187853Y0056598D01*
X0187675Y0056574D01*
X0187496Y0056554D01*
X0187316Y0056539D01*
X0187136Y0056528D01*
X0186956Y0056521D01*
X0186776Y0056519D01*
X0186596Y0056521D01*
X0186416Y0056528D01*
X0186236Y0056539D01*
X0186056Y0056554D01*
X0185877Y0056574D01*
X0185699Y0056598D01*
X0185521Y0056627D01*
X0185343Y0056660D01*
X0185167Y0056697D01*
X0184992Y0056739D01*
X0184818Y0056785D01*
X0184644Y0056835D01*
X0184473Y0056890D01*
X0184302Y0056948D01*
X0184133Y0057011D01*
X0183966Y0057078D01*
X0183800Y0057149D01*
X0183636Y0057224D01*
X0183475Y0057303D01*
X0183315Y0057386D01*
X0183157Y0057473D01*
X0183001Y0057564D01*
X0182848Y0057658D01*
X0182696Y0057757D01*
X0182548Y0057858D01*
X0182402Y0057964D01*
X0182258Y0058073D01*
X0182118Y0058186D01*
X0181980Y0058302D01*
X0181845Y0058421D01*
X0181713Y0058544D01*
X0181584Y0058670D01*
X0181458Y0058799D01*
X0181335Y0058931D01*
X0181216Y0059066D01*
X0181100Y0059204D01*
X0180987Y0059344D01*
X0180878Y0059488D01*
X0180772Y0059634D01*
X0180671Y0059782D01*
X0180572Y0059934D01*
X0180478Y0060087D01*
X0180387Y0060243D01*
X0180300Y0060401D01*
X0180217Y0060561D01*
X0180138Y0060722D01*
X0180063Y0060886D01*
X0179992Y0061052D01*
X0179925Y0061219D01*
X0179862Y0061388D01*
X0179804Y0061559D01*
X0179749Y0061730D01*
X0179699Y0061904D01*
X0179653Y0062078D01*
X0179611Y0062253D01*
X0179574Y0062429D01*
X0179541Y0062607D01*
X0179512Y0062785D01*
X0179488Y0062963D01*
X0179468Y0063142D01*
X0179453Y0063322D01*
X0179442Y0063502D01*
X0179435Y0063682D01*
X0179433Y0063862D01*
X0185250Y0216500D02*
X0185252Y0216658D01*
X0185258Y0216815D01*
X0185268Y0216973D01*
X0185282Y0217130D01*
X0185300Y0217286D01*
X0185321Y0217443D01*
X0185347Y0217598D01*
X0185377Y0217753D01*
X0185410Y0217907D01*
X0185448Y0218060D01*
X0185489Y0218213D01*
X0185534Y0218364D01*
X0185583Y0218514D01*
X0185636Y0218662D01*
X0185692Y0218810D01*
X0185753Y0218955D01*
X0185816Y0219100D01*
X0185884Y0219242D01*
X0185955Y0219383D01*
X0186029Y0219522D01*
X0186107Y0219659D01*
X0186189Y0219794D01*
X0186273Y0219927D01*
X0186362Y0220058D01*
X0186453Y0220186D01*
X0186548Y0220313D01*
X0186645Y0220436D01*
X0186746Y0220558D01*
X0186850Y0220676D01*
X0186957Y0220792D01*
X0187067Y0220905D01*
X0187179Y0221016D01*
X0187295Y0221123D01*
X0187413Y0221228D01*
X0187533Y0221330D01*
X0187656Y0221428D01*
X0187782Y0221524D01*
X0187910Y0221616D01*
X0188040Y0221705D01*
X0188172Y0221791D01*
X0188307Y0221873D01*
X0188444Y0221952D01*
X0188582Y0222027D01*
X0188722Y0222099D01*
X0188865Y0222167D01*
X0189008Y0222232D01*
X0189154Y0222293D01*
X0189301Y0222350D01*
X0189449Y0222404D01*
X0189599Y0222454D01*
X0189749Y0222500D01*
X0189901Y0222542D01*
X0190054Y0222581D01*
X0190208Y0222615D01*
X0190363Y0222646D01*
X0190518Y0222672D01*
X0190674Y0222695D01*
X0190831Y0222714D01*
X0190988Y0222729D01*
X0191145Y0222740D01*
X0191303Y0222747D01*
X0191461Y0222750D01*
X0191618Y0222749D01*
X0191776Y0222744D01*
X0191933Y0222735D01*
X0192091Y0222722D01*
X0192247Y0222705D01*
X0192404Y0222684D01*
X0192559Y0222660D01*
X0192714Y0222631D01*
X0192869Y0222598D01*
X0193022Y0222562D01*
X0193175Y0222521D01*
X0193326Y0222477D01*
X0193476Y0222429D01*
X0193625Y0222378D01*
X0193773Y0222322D01*
X0193919Y0222263D01*
X0194064Y0222200D01*
X0194207Y0222133D01*
X0194348Y0222063D01*
X0194487Y0221990D01*
X0194625Y0221913D01*
X0194761Y0221832D01*
X0194894Y0221748D01*
X0195025Y0221661D01*
X0195154Y0221570D01*
X0195281Y0221476D01*
X0195406Y0221379D01*
X0195527Y0221279D01*
X0195647Y0221176D01*
X0195763Y0221070D01*
X0195877Y0220961D01*
X0195989Y0220849D01*
X0196097Y0220735D01*
X0196202Y0220617D01*
X0196305Y0220497D01*
X0196404Y0220375D01*
X0196500Y0220250D01*
X0196593Y0220122D01*
X0196683Y0219993D01*
X0196769Y0219861D01*
X0196853Y0219727D01*
X0196932Y0219591D01*
X0197009Y0219453D01*
X0197081Y0219313D01*
X0197150Y0219171D01*
X0197216Y0219028D01*
X0197278Y0218883D01*
X0197336Y0218736D01*
X0197391Y0218588D01*
X0197442Y0218439D01*
X0197489Y0218288D01*
X0197532Y0218137D01*
X0197571Y0217984D01*
X0197607Y0217830D01*
X0197638Y0217676D01*
X0197666Y0217521D01*
X0197690Y0217365D01*
X0197710Y0217208D01*
X0197726Y0217051D01*
X0197738Y0216894D01*
X0197746Y0216737D01*
X0197750Y0216579D01*
X0197750Y0216421D01*
X0197746Y0216263D01*
X0197738Y0216106D01*
X0197726Y0215949D01*
X0197710Y0215792D01*
X0197690Y0215635D01*
X0197666Y0215479D01*
X0197638Y0215324D01*
X0197607Y0215170D01*
X0197571Y0215016D01*
X0197532Y0214863D01*
X0197489Y0214712D01*
X0197442Y0214561D01*
X0197391Y0214412D01*
X0197336Y0214264D01*
X0197278Y0214117D01*
X0197216Y0213972D01*
X0197150Y0213829D01*
X0197081Y0213687D01*
X0197009Y0213547D01*
X0196932Y0213409D01*
X0196853Y0213273D01*
X0196769Y0213139D01*
X0196683Y0213007D01*
X0196593Y0212878D01*
X0196500Y0212750D01*
X0196404Y0212625D01*
X0196305Y0212503D01*
X0196202Y0212383D01*
X0196097Y0212265D01*
X0195989Y0212151D01*
X0195877Y0212039D01*
X0195763Y0211930D01*
X0195647Y0211824D01*
X0195527Y0211721D01*
X0195406Y0211621D01*
X0195281Y0211524D01*
X0195154Y0211430D01*
X0195025Y0211339D01*
X0194894Y0211252D01*
X0194761Y0211168D01*
X0194625Y0211087D01*
X0194487Y0211010D01*
X0194348Y0210937D01*
X0194207Y0210867D01*
X0194064Y0210800D01*
X0193919Y0210737D01*
X0193773Y0210678D01*
X0193625Y0210622D01*
X0193476Y0210571D01*
X0193326Y0210523D01*
X0193175Y0210479D01*
X0193022Y0210438D01*
X0192869Y0210402D01*
X0192714Y0210369D01*
X0192559Y0210340D01*
X0192404Y0210316D01*
X0192247Y0210295D01*
X0192091Y0210278D01*
X0191933Y0210265D01*
X0191776Y0210256D01*
X0191618Y0210251D01*
X0191461Y0210250D01*
X0191303Y0210253D01*
X0191145Y0210260D01*
X0190988Y0210271D01*
X0190831Y0210286D01*
X0190674Y0210305D01*
X0190518Y0210328D01*
X0190363Y0210354D01*
X0190208Y0210385D01*
X0190054Y0210419D01*
X0189901Y0210458D01*
X0189749Y0210500D01*
X0189599Y0210546D01*
X0189449Y0210596D01*
X0189301Y0210650D01*
X0189154Y0210707D01*
X0189008Y0210768D01*
X0188865Y0210833D01*
X0188722Y0210901D01*
X0188582Y0210973D01*
X0188444Y0211048D01*
X0188307Y0211127D01*
X0188172Y0211209D01*
X0188040Y0211295D01*
X0187910Y0211384D01*
X0187782Y0211476D01*
X0187656Y0211572D01*
X0187533Y0211670D01*
X0187413Y0211772D01*
X0187295Y0211877D01*
X0187179Y0211984D01*
X0187067Y0212095D01*
X0186957Y0212208D01*
X0186850Y0212324D01*
X0186746Y0212442D01*
X0186645Y0212564D01*
X0186548Y0212687D01*
X0186453Y0212814D01*
X0186362Y0212942D01*
X0186273Y0213073D01*
X0186189Y0213206D01*
X0186107Y0213341D01*
X0186029Y0213478D01*
X0185955Y0213617D01*
X0185884Y0213758D01*
X0185816Y0213900D01*
X0185753Y0214045D01*
X0185692Y0214190D01*
X0185636Y0214338D01*
X0185583Y0214486D01*
X0185534Y0214636D01*
X0185489Y0214787D01*
X0185448Y0214940D01*
X0185410Y0215093D01*
X0185377Y0215247D01*
X0185347Y0215402D01*
X0185321Y0215557D01*
X0185300Y0215714D01*
X0185282Y0215870D01*
X0185268Y0216027D01*
X0185258Y0216185D01*
X0185252Y0216342D01*
X0185250Y0216500D01*
M02*
