G75*
%MOIN*%
%OFA0B0*%
%FSLAX25Y25*%
%IPPOS*%
%LPD*%
%AMOC8*
5,1,8,0,0,1.08239X$1,22.5*
%
%ADD10C,0.05400*%
%ADD11OC8,0.05400*%
%ADD12C,0.07400*%
%ADD13C,0.00800*%
%ADD14C,0.02900*%
%ADD15C,0.01000*%
D10*
X0021500Y0021500D03*
D11*
X0021500Y0011500D03*
X0031500Y0011500D03*
X0031500Y0021500D03*
X0041500Y0021500D03*
X0041500Y0011500D03*
X0051500Y0011500D03*
X0051500Y0021500D03*
X0061500Y0021500D03*
X0061500Y0011500D03*
X0071500Y0011500D03*
X0071500Y0021500D03*
X0081500Y0021500D03*
X0081500Y0011500D03*
X0091500Y0011500D03*
X0091500Y0021500D03*
X0101500Y0021500D03*
X0101500Y0011500D03*
X0111500Y0011500D03*
X0111500Y0021500D03*
X0121500Y0021500D03*
X0121500Y0011500D03*
X0131500Y0011500D03*
X0131500Y0021500D03*
X0141500Y0021500D03*
X0141500Y0011500D03*
X0151500Y0011500D03*
X0151500Y0021500D03*
X0161500Y0021500D03*
X0161500Y0011500D03*
X0171500Y0011500D03*
X0171500Y0021500D03*
D12*
X0081500Y0140800D03*
X0081500Y0152200D03*
X0051500Y0171500D03*
X0052500Y0181500D03*
X0051500Y0191500D03*
X0052500Y0201500D03*
X0051500Y0211500D03*
X0052500Y0221500D03*
X0141500Y0211500D03*
X0142500Y0201500D03*
X0141500Y0191500D03*
X0142500Y0181500D03*
X0141500Y0171500D03*
X0142500Y0221500D03*
D13*
X0129500Y0211500D02*
X0119500Y0221500D01*
X0116500Y0221500D01*
X0118500Y0216500D02*
X0101500Y0216500D01*
X0096500Y0221500D01*
X0094000Y0201500D02*
X0090000Y0197500D01*
X0090000Y0186000D01*
X0114000Y0162000D01*
X0114000Y0118000D01*
X0119000Y0113000D01*
X0131500Y0113000D01*
X0138000Y0106500D01*
X0138000Y0036000D01*
X0143000Y0031000D01*
X0141500Y0028000D02*
X0155000Y0028000D01*
X0161500Y0021500D01*
X0157000Y0022500D02*
X0157000Y0016000D01*
X0161500Y0011500D01*
X0157000Y0022500D02*
X0153500Y0026000D01*
X0140500Y0026000D01*
X0134000Y0032500D01*
X0134000Y0090500D01*
X0127500Y0097000D01*
X0126500Y0097000D01*
X0127500Y0094500D02*
X0107500Y0094500D01*
X0105000Y0097000D01*
X0107000Y0099500D02*
X0128500Y0099500D01*
X0136000Y0092000D01*
X0136000Y0033500D01*
X0141500Y0028000D01*
X0143000Y0035000D02*
X0140000Y0038000D01*
X0140000Y0108000D01*
X0133000Y0115000D01*
X0120000Y0115000D01*
X0116000Y0119000D01*
X0116000Y0165000D01*
X0094500Y0186500D01*
X0094000Y0186500D01*
X0099000Y0186500D02*
X0118000Y0167500D01*
X0118000Y0120000D01*
X0121000Y0117000D01*
X0134500Y0117000D01*
X0142000Y0109500D01*
X0142000Y0044000D01*
X0143000Y0043000D01*
X0146000Y0044500D02*
X0144000Y0046500D01*
X0144000Y0110500D01*
X0135500Y0119000D01*
X0122000Y0119000D01*
X0120000Y0121000D01*
X0120000Y0180500D01*
X0099000Y0201500D01*
X0116500Y0201500D02*
X0123500Y0194500D01*
X0123500Y0122000D01*
X0126500Y0126000D02*
X0126500Y0208500D01*
X0118500Y0216500D01*
X0129500Y0211500D02*
X0129500Y0122500D01*
X0134500Y0131500D02*
X0134500Y0184500D01*
X0141500Y0191500D01*
X0142500Y0181500D02*
X0149500Y0181500D01*
X0159500Y0171500D01*
X0159500Y0091000D01*
X0162000Y0088000D02*
X0168500Y0094500D01*
X0168500Y0138000D01*
X0176000Y0145500D01*
X0176000Y0141000D02*
X0171000Y0136000D01*
X0171000Y0093000D01*
X0162000Y0084000D01*
X0147500Y0084000D01*
X0147500Y0088000D02*
X0162000Y0088000D01*
X0156500Y0094000D02*
X0156500Y0168000D01*
X0153000Y0171500D01*
X0141500Y0171500D01*
X0112000Y0160500D02*
X0076500Y0196000D01*
X0076500Y0201500D01*
X0076500Y0186500D02*
X0109500Y0153500D01*
X0109500Y0116500D01*
X0117000Y0109000D01*
X0127000Y0109000D01*
X0135000Y0101000D01*
X0135000Y0105000D02*
X0129000Y0111000D01*
X0118000Y0111000D01*
X0112000Y0117000D01*
X0112000Y0160500D01*
X0107000Y0151000D02*
X0076500Y0181500D01*
X0053000Y0181500D01*
X0052500Y0181500D01*
X0051500Y0171500D02*
X0041500Y0161500D01*
X0021500Y0161500D01*
X0016500Y0156500D01*
X0016500Y0141500D01*
X0066500Y0091500D01*
X0066500Y0071500D01*
X0071500Y0066500D01*
X0073000Y0061500D02*
X0066500Y0061500D01*
X0062000Y0058000D02*
X0062000Y0088500D01*
X0033500Y0117000D01*
X0033000Y0133500D02*
X0033000Y0151000D01*
X0033000Y0133500D02*
X0082500Y0084000D01*
X0091000Y0084000D01*
X0099000Y0092000D01*
X0126000Y0092000D01*
X0127500Y0094500D02*
X0132000Y0090000D01*
X0132000Y0062000D01*
X0091500Y0021500D01*
X0093000Y0026500D02*
X0066500Y0026500D01*
X0061500Y0021500D01*
X0059500Y0016500D02*
X0056500Y0019500D01*
X0056500Y0041500D01*
X0065500Y0051000D02*
X0033500Y0083000D01*
X0033500Y0088500D01*
X0062000Y0058000D02*
X0067000Y0053000D01*
X0107000Y0053000D01*
X0126000Y0072000D01*
X0127000Y0072000D01*
X0126000Y0067500D02*
X0109500Y0051000D01*
X0065500Y0051000D01*
X0073000Y0061500D02*
X0093000Y0081500D01*
X0098000Y0081500D01*
X0094500Y0079000D02*
X0084500Y0069000D01*
X0084500Y0059500D01*
X0086500Y0088500D02*
X0086500Y0116500D01*
X0101500Y0131500D01*
X0107000Y0116000D02*
X0107000Y0151000D01*
X0107000Y0116000D02*
X0116000Y0107000D01*
X0125000Y0107000D01*
X0135000Y0097000D01*
X0127500Y0088500D02*
X0130000Y0086000D01*
X0130000Y0063500D01*
X0093000Y0026500D01*
X0059500Y0016500D02*
X0146500Y0016500D01*
X0151500Y0021500D01*
X0151500Y0011500D02*
X0146500Y0006500D01*
X0049500Y0006500D01*
X0046500Y0009500D01*
X0046500Y0028500D01*
X0041500Y0033500D01*
X0101500Y0095000D02*
X0101500Y0098000D01*
X0103500Y0100000D01*
X0106500Y0100000D01*
X0107000Y0099500D01*
X0146000Y0044500D02*
X0146000Y0042000D01*
X0143000Y0039000D01*
D14*
X0143000Y0039000D03*
X0143000Y0035000D03*
X0143000Y0031000D03*
X0143000Y0043000D03*
X0126000Y0067500D03*
X0127000Y0072000D03*
X0127500Y0088500D03*
X0126000Y0092000D03*
X0126500Y0097000D03*
X0135000Y0097000D03*
X0135000Y0101000D03*
X0135000Y0105000D03*
X0147500Y0088000D03*
X0147500Y0084000D03*
X0156500Y0094000D03*
X0159500Y0091000D03*
X0129500Y0122500D03*
X0126500Y0126000D03*
X0123500Y0122000D03*
X0134500Y0131500D03*
X0105000Y0097000D03*
X0101500Y0095000D03*
X0098000Y0081500D03*
X0094500Y0079000D03*
X0086500Y0088500D03*
X0075000Y0076500D03*
X0071500Y0066500D03*
X0066500Y0061500D03*
X0084500Y0059500D03*
X0074500Y0106500D03*
X0049500Y0139000D03*
X0033000Y0151000D03*
X0033500Y0117000D03*
X0033500Y0088500D03*
X0046500Y0051500D03*
X0041500Y0033500D03*
X0101500Y0131500D03*
X0099000Y0186500D03*
X0094000Y0186500D03*
X0094000Y0201500D03*
X0099000Y0201500D03*
X0116500Y0201500D03*
X0116500Y0221500D03*
X0096500Y0221500D03*
X0076500Y0201500D03*
X0076500Y0186500D03*
X0069000Y0251500D03*
X0089500Y0251500D03*
X0176000Y0145500D03*
X0176000Y0141000D03*
D15*
X0003500Y0214255D02*
X0003500Y0003500D01*
X0199488Y0003480D01*
X0199500Y0173435D01*
X0199500Y0214255D01*
X0198494Y0211827D01*
X0196173Y0209506D01*
X0193141Y0208250D01*
X0189859Y0208250D01*
X0186827Y0209506D01*
X0184506Y0211827D01*
X0183250Y0214859D01*
X0183250Y0218141D01*
X0184506Y0221173D01*
X0186827Y0223494D01*
X0189859Y0224750D01*
X0193141Y0224750D01*
X0196173Y0223494D01*
X0198494Y0221173D01*
X0199500Y0218745D01*
X0199500Y0259500D01*
X0003500Y0259500D01*
X0003500Y0218745D01*
X0004506Y0221173D01*
X0006827Y0223494D01*
X0009859Y0224750D01*
X0013141Y0224750D01*
X0016173Y0223494D01*
X0018494Y0221173D01*
X0019750Y0218141D01*
X0019750Y0214859D01*
X0018494Y0211827D01*
X0016173Y0209506D01*
X0013141Y0208250D01*
X0009859Y0208250D01*
X0006827Y0209506D01*
X0004506Y0211827D01*
X0003500Y0214255D01*
X0003500Y0214183D02*
X0003530Y0214183D01*
X0003500Y0213184D02*
X0003944Y0213184D01*
X0004357Y0212186D02*
X0003500Y0212186D01*
X0003500Y0211187D02*
X0005145Y0211187D01*
X0006144Y0210189D02*
X0003500Y0210189D01*
X0003500Y0209190D02*
X0007589Y0209190D01*
X0003500Y0208192D02*
X0047476Y0208192D01*
X0047534Y0208112D02*
X0048112Y0207534D01*
X0048775Y0207053D01*
X0049504Y0206681D01*
X0050282Y0206428D01*
X0051000Y0206314D01*
X0051000Y0211000D01*
X0046314Y0211000D01*
X0046428Y0210282D01*
X0046681Y0209504D01*
X0047053Y0208775D01*
X0047534Y0208112D01*
X0046841Y0209190D02*
X0015411Y0209190D01*
X0016856Y0210189D02*
X0046458Y0210189D01*
X0046314Y0212000D02*
X0051000Y0212000D01*
X0051000Y0216686D01*
X0050282Y0216572D01*
X0049504Y0216319D01*
X0048775Y0215947D01*
X0048112Y0215466D01*
X0047534Y0214888D01*
X0047053Y0214225D01*
X0046681Y0213496D01*
X0046428Y0212718D01*
X0046314Y0212000D01*
X0046344Y0212186D02*
X0018643Y0212186D01*
X0019056Y0213184D02*
X0046580Y0213184D01*
X0047031Y0214183D02*
X0019470Y0214183D01*
X0019750Y0215181D02*
X0047828Y0215181D01*
X0049231Y0216180D02*
X0019750Y0216180D01*
X0019750Y0217178D02*
X0050390Y0217178D01*
X0049781Y0217431D02*
X0051545Y0216700D01*
X0053455Y0216700D01*
X0055219Y0217431D01*
X0056569Y0218781D01*
X0057300Y0220545D01*
X0057300Y0222455D01*
X0056569Y0224219D01*
X0055219Y0225569D01*
X0053455Y0226300D01*
X0051545Y0226300D01*
X0049781Y0225569D01*
X0048431Y0224219D01*
X0047700Y0222455D01*
X0047700Y0220545D01*
X0048431Y0218781D01*
X0049781Y0217431D01*
X0049035Y0218177D02*
X0019735Y0218177D01*
X0019322Y0219175D02*
X0048267Y0219175D01*
X0047854Y0220174D02*
X0018908Y0220174D01*
X0018494Y0221172D02*
X0047700Y0221172D01*
X0047700Y0222171D02*
X0017496Y0222171D01*
X0016498Y0223170D02*
X0047996Y0223170D01*
X0048410Y0224168D02*
X0014546Y0224168D01*
X0008454Y0224168D02*
X0003500Y0224168D01*
X0003500Y0223170D02*
X0006502Y0223170D01*
X0005504Y0222171D02*
X0003500Y0222171D01*
X0003500Y0221172D02*
X0004506Y0221172D01*
X0004092Y0220174D02*
X0003500Y0220174D01*
X0003500Y0219175D02*
X0003678Y0219175D01*
X0003500Y0225167D02*
X0049378Y0225167D01*
X0051219Y0226165D02*
X0003500Y0226165D01*
X0003500Y0227164D02*
X0199500Y0227164D01*
X0199500Y0228162D02*
X0003500Y0228162D01*
X0003500Y0229161D02*
X0199500Y0229161D01*
X0199500Y0230159D02*
X0003500Y0230159D01*
X0003500Y0231158D02*
X0199500Y0231158D01*
X0199500Y0232156D02*
X0003500Y0232156D01*
X0003500Y0233155D02*
X0199500Y0233155D01*
X0199500Y0234153D02*
X0003500Y0234153D01*
X0003500Y0235152D02*
X0199500Y0235152D01*
X0199500Y0236150D02*
X0003500Y0236150D01*
X0003500Y0237149D02*
X0199500Y0237149D01*
X0199500Y0238147D02*
X0003500Y0238147D01*
X0003500Y0239146D02*
X0199500Y0239146D01*
X0199500Y0240144D02*
X0003500Y0240144D01*
X0003500Y0241143D02*
X0199500Y0241143D01*
X0199500Y0242141D02*
X0003500Y0242141D01*
X0003500Y0243140D02*
X0199500Y0243140D01*
X0199500Y0244138D02*
X0003500Y0244138D01*
X0003500Y0245137D02*
X0199500Y0245137D01*
X0199500Y0246135D02*
X0003500Y0246135D01*
X0003500Y0247134D02*
X0199500Y0247134D01*
X0199500Y0248132D02*
X0003500Y0248132D01*
X0003500Y0249131D02*
X0199500Y0249131D01*
X0199500Y0250129D02*
X0003500Y0250129D01*
X0003500Y0251128D02*
X0199500Y0251128D01*
X0199500Y0252126D02*
X0003500Y0252126D01*
X0003500Y0253125D02*
X0199500Y0253125D01*
X0199500Y0254123D02*
X0003500Y0254123D01*
X0003500Y0255122D02*
X0199500Y0255122D01*
X0199500Y0256120D02*
X0003500Y0256120D01*
X0003500Y0257119D02*
X0199500Y0257119D01*
X0199500Y0258117D02*
X0003500Y0258117D01*
X0003500Y0259116D02*
X0199500Y0259116D01*
X0199500Y0226165D02*
X0143781Y0226165D01*
X0143455Y0226300D02*
X0145219Y0225569D01*
X0146569Y0224219D01*
X0147300Y0222455D01*
X0147300Y0220545D01*
X0146569Y0218781D01*
X0145219Y0217431D01*
X0143455Y0216700D01*
X0141545Y0216700D01*
X0139781Y0217431D01*
X0138431Y0218781D01*
X0137700Y0220545D01*
X0137700Y0222455D01*
X0138431Y0224219D01*
X0139781Y0225569D01*
X0141545Y0226300D01*
X0143455Y0226300D01*
X0141219Y0226165D02*
X0053781Y0226165D01*
X0055622Y0225167D02*
X0139378Y0225167D01*
X0138410Y0224168D02*
X0056590Y0224168D01*
X0057004Y0223170D02*
X0094563Y0223170D01*
X0094338Y0222944D02*
X0095056Y0223662D01*
X0095993Y0224050D01*
X0097007Y0224050D01*
X0097944Y0223662D01*
X0098662Y0222944D01*
X0099050Y0222007D01*
X0099050Y0221071D01*
X0102121Y0218000D01*
X0119121Y0218000D01*
X0120000Y0217121D01*
X0128000Y0209121D01*
X0128000Y0128106D01*
X0128000Y0128106D01*
X0128000Y0210879D01*
X0118879Y0220000D01*
X0118606Y0220000D01*
X0117944Y0219338D01*
X0117007Y0218950D01*
X0115993Y0218950D01*
X0115056Y0219338D01*
X0114338Y0220056D01*
X0113950Y0220993D01*
X0113950Y0222007D01*
X0114338Y0222944D01*
X0115056Y0223662D01*
X0115993Y0224050D01*
X0117007Y0224050D01*
X0117944Y0223662D01*
X0118606Y0223000D01*
X0120121Y0223000D01*
X0121000Y0222121D01*
X0131000Y0212121D01*
X0131000Y0124606D01*
X0131662Y0123944D01*
X0132050Y0123007D01*
X0132050Y0121993D01*
X0131662Y0121056D01*
X0131106Y0120500D01*
X0136121Y0120500D01*
X0137000Y0119621D01*
X0145500Y0111121D01*
X0145500Y0089606D01*
X0146056Y0090162D01*
X0146993Y0090550D01*
X0148007Y0090550D01*
X0148944Y0090162D01*
X0149606Y0089500D01*
X0157394Y0089500D01*
X0157338Y0089556D01*
X0156950Y0090493D01*
X0156950Y0091450D01*
X0155993Y0091450D01*
X0155056Y0091838D01*
X0154338Y0092556D01*
X0153950Y0093493D01*
X0153950Y0094507D01*
X0154338Y0095444D01*
X0155000Y0096106D01*
X0155000Y0167379D01*
X0152379Y0170000D01*
X0146074Y0170000D01*
X0145569Y0168781D01*
X0144219Y0167431D01*
X0142455Y0166700D01*
X0140545Y0166700D01*
X0138781Y0167431D01*
X0137431Y0168781D01*
X0136700Y0170545D01*
X0136700Y0172455D01*
X0137431Y0174219D01*
X0138781Y0175569D01*
X0140545Y0176300D01*
X0142455Y0176300D01*
X0144219Y0175569D01*
X0145569Y0174219D01*
X0146074Y0173000D01*
X0153621Y0173000D01*
X0158000Y0168621D01*
X0158000Y0096106D01*
X0158000Y0096106D01*
X0158000Y0170879D01*
X0148879Y0180000D01*
X0147074Y0180000D01*
X0146569Y0178781D01*
X0145219Y0177431D01*
X0143455Y0176700D01*
X0141545Y0176700D01*
X0139781Y0177431D01*
X0138431Y0178781D01*
X0137700Y0180545D01*
X0137700Y0182455D01*
X0138431Y0184219D01*
X0139781Y0185569D01*
X0141545Y0186300D01*
X0143455Y0186300D01*
X0145219Y0185569D01*
X0146569Y0184219D01*
X0147074Y0183000D01*
X0150121Y0183000D01*
X0160121Y0173000D01*
X0161000Y0172121D01*
X0161000Y0093106D01*
X0161662Y0092444D01*
X0162050Y0091507D01*
X0162050Y0090493D01*
X0161823Y0089944D01*
X0167000Y0095121D01*
X0167000Y0138621D01*
X0173450Y0145071D01*
X0173450Y0146007D01*
X0173838Y0146944D01*
X0174556Y0147662D01*
X0175493Y0148050D01*
X0176507Y0148050D01*
X0177444Y0147662D01*
X0178162Y0146944D01*
X0178550Y0146007D01*
X0178550Y0144993D01*
X0178162Y0144056D01*
X0177444Y0143338D01*
X0177231Y0143250D01*
X0177444Y0143162D01*
X0178162Y0142444D01*
X0178550Y0141507D01*
X0178550Y0140493D01*
X0178162Y0139556D01*
X0177444Y0138838D01*
X0176507Y0138450D01*
X0175571Y0138450D01*
X0172500Y0135379D01*
X0172500Y0092379D01*
X0171621Y0091500D01*
X0162621Y0082500D01*
X0149606Y0082500D01*
X0148944Y0081838D01*
X0148007Y0081450D01*
X0146993Y0081450D01*
X0146056Y0081838D01*
X0145500Y0082394D01*
X0145500Y0047121D01*
X0146621Y0046000D01*
X0146621Y0046000D01*
X0147500Y0045121D01*
X0147500Y0041379D01*
X0146621Y0040500D01*
X0145550Y0039429D01*
X0145550Y0038493D01*
X0145162Y0037556D01*
X0144606Y0037000D01*
X0145162Y0036444D01*
X0145550Y0035507D01*
X0145550Y0034493D01*
X0145162Y0033556D01*
X0144606Y0033000D01*
X0145162Y0032444D01*
X0145550Y0031507D01*
X0145550Y0030493D01*
X0145162Y0029556D01*
X0145106Y0029500D01*
X0155621Y0029500D01*
X0159874Y0025248D01*
X0159926Y0025300D01*
X0163074Y0025300D01*
X0165300Y0023074D01*
X0165300Y0019926D01*
X0163074Y0017700D01*
X0159926Y0017700D01*
X0158500Y0019126D01*
X0158500Y0016621D01*
X0159874Y0015248D01*
X0159926Y0015300D01*
X0163074Y0015300D01*
X0165300Y0013074D01*
X0165300Y0009926D01*
X0163074Y0007700D01*
X0159926Y0007700D01*
X0157700Y0009926D01*
X0157700Y0013074D01*
X0157752Y0013126D01*
X0156379Y0014500D01*
X0155500Y0015379D01*
X0155500Y0021879D01*
X0155300Y0022079D01*
X0155300Y0019926D01*
X0153074Y0017700D01*
X0149926Y0017700D01*
X0149874Y0017752D01*
X0148000Y0015879D01*
X0147121Y0015000D01*
X0143374Y0015000D01*
X0145300Y0013074D01*
X0145300Y0009926D01*
X0143374Y0008000D01*
X0145879Y0008000D01*
X0147752Y0009874D01*
X0147700Y0009926D01*
X0147700Y0013074D01*
X0149926Y0015300D01*
X0153074Y0015300D01*
X0155300Y0013074D01*
X0155300Y0009926D01*
X0153074Y0007700D01*
X0149926Y0007700D01*
X0149874Y0007752D01*
X0148000Y0005879D01*
X0147121Y0005000D01*
X0048879Y0005000D01*
X0045879Y0008000D01*
X0045000Y0008879D01*
X0045000Y0009626D01*
X0043074Y0007700D01*
X0039926Y0007700D01*
X0037700Y0009926D01*
X0037700Y0013074D01*
X0039926Y0015300D01*
X0043074Y0015300D01*
X0045000Y0013374D01*
X0045000Y0019626D01*
X0043074Y0017700D01*
X0039926Y0017700D01*
X0037700Y0019926D01*
X0037700Y0023074D01*
X0039926Y0025300D01*
X0043074Y0025300D01*
X0045000Y0023374D01*
X0045000Y0027879D01*
X0041929Y0030950D01*
X0040993Y0030950D01*
X0040056Y0031338D01*
X0039338Y0032056D01*
X0038950Y0032993D01*
X0038950Y0034007D01*
X0039338Y0034944D01*
X0040056Y0035662D01*
X0040993Y0036050D01*
X0042007Y0036050D01*
X0042944Y0035662D01*
X0043662Y0034944D01*
X0044050Y0034007D01*
X0044050Y0033071D01*
X0048000Y0029121D01*
X0048000Y0023374D01*
X0049926Y0025300D01*
X0053074Y0025300D01*
X0055000Y0023374D01*
X0055000Y0040737D01*
X0046787Y0048950D01*
X0045993Y0048950D01*
X0045056Y0049338D01*
X0044338Y0050056D01*
X0043950Y0050993D01*
X0043950Y0052007D01*
X0044338Y0052944D01*
X0045056Y0053662D01*
X0045993Y0054050D01*
X0047007Y0054050D01*
X0047944Y0053662D01*
X0048662Y0052944D01*
X0049050Y0052007D01*
X0049050Y0051213D01*
X0058100Y0042163D01*
X0058100Y0040837D01*
X0058000Y0040737D01*
X0058000Y0023374D01*
X0059926Y0025300D01*
X0063074Y0025300D01*
X0063126Y0025248D01*
X0065000Y0027121D01*
X0065879Y0028000D01*
X0092379Y0028000D01*
X0128500Y0064121D01*
X0128500Y0066872D01*
X0128162Y0066056D01*
X0127444Y0065338D01*
X0126507Y0064950D01*
X0125571Y0064950D01*
X0110121Y0049500D01*
X0064879Y0049500D01*
X0032879Y0081500D01*
X0032000Y0082379D01*
X0032000Y0086394D01*
X0031338Y0087056D01*
X0030950Y0087993D01*
X0030950Y0089007D01*
X0031338Y0089944D01*
X0032056Y0090662D01*
X0032993Y0091050D01*
X0034007Y0091050D01*
X0034944Y0090662D01*
X0035662Y0089944D01*
X0036050Y0089007D01*
X0036050Y0087993D01*
X0035662Y0087056D01*
X0035000Y0086394D01*
X0035000Y0083621D01*
X0060500Y0058121D01*
X0060500Y0087879D01*
X0033929Y0114450D01*
X0032993Y0114450D01*
X0032056Y0114838D01*
X0031338Y0115556D01*
X0030950Y0116493D01*
X0030950Y0117507D01*
X0031338Y0118444D01*
X0032056Y0119162D01*
X0032993Y0119550D01*
X0034007Y0119550D01*
X0034944Y0119162D01*
X0035662Y0118444D01*
X0036050Y0117507D01*
X0036050Y0116571D01*
X0063500Y0089121D01*
X0063500Y0058621D01*
X0067621Y0054500D01*
X0106379Y0054500D01*
X0124495Y0072617D01*
X0124838Y0073444D01*
X0125556Y0074162D01*
X0126493Y0074550D01*
X0127507Y0074550D01*
X0128444Y0074162D01*
X0128500Y0074106D01*
X0128500Y0085379D01*
X0127929Y0085950D01*
X0126993Y0085950D01*
X0126056Y0086338D01*
X0125338Y0087056D01*
X0124950Y0087993D01*
X0124950Y0089007D01*
X0125186Y0089577D01*
X0124556Y0089838D01*
X0123894Y0090500D01*
X0099621Y0090500D01*
X0092500Y0083379D01*
X0091621Y0082500D01*
X0081879Y0082500D01*
X0032379Y0132000D01*
X0031500Y0132879D01*
X0031500Y0148894D01*
X0030838Y0149556D01*
X0030450Y0150493D01*
X0030450Y0151507D01*
X0030838Y0152444D01*
X0031556Y0153162D01*
X0032493Y0153550D01*
X0033507Y0153550D01*
X0034444Y0153162D01*
X0035162Y0152444D01*
X0035550Y0151507D01*
X0035550Y0150493D01*
X0035162Y0149556D01*
X0034500Y0148894D01*
X0034500Y0134121D01*
X0083121Y0085500D01*
X0090379Y0085500D01*
X0098379Y0093500D01*
X0099394Y0093500D01*
X0099338Y0093556D01*
X0098950Y0094493D01*
X0098950Y0095507D01*
X0099338Y0096444D01*
X0100000Y0097106D01*
X0100000Y0098621D01*
X0102000Y0100621D01*
X0102879Y0101500D01*
X0107121Y0101500D01*
X0107621Y0101000D01*
X0128879Y0101000D01*
X0124379Y0105500D01*
X0115379Y0105500D01*
X0106379Y0114500D01*
X0105500Y0115379D01*
X0105500Y0150379D01*
X0075879Y0180000D01*
X0057074Y0180000D01*
X0056569Y0178781D01*
X0055219Y0177431D01*
X0053455Y0176700D01*
X0051545Y0176700D01*
X0049781Y0177431D01*
X0048431Y0178781D01*
X0047700Y0180545D01*
X0047700Y0182455D01*
X0048431Y0184219D01*
X0049781Y0185569D01*
X0051545Y0186300D01*
X0053455Y0186300D01*
X0055219Y0185569D01*
X0056569Y0184219D01*
X0057074Y0183000D01*
X0077121Y0183000D01*
X0078000Y0182121D01*
X0108000Y0152121D01*
X0108000Y0152879D01*
X0076929Y0183950D01*
X0075993Y0183950D01*
X0075056Y0184338D01*
X0074338Y0185056D01*
X0073950Y0185993D01*
X0073950Y0187007D01*
X0074338Y0187944D01*
X0075056Y0188662D01*
X0075993Y0189050D01*
X0077007Y0189050D01*
X0077944Y0188662D01*
X0078662Y0187944D01*
X0079050Y0187007D01*
X0079050Y0186071D01*
X0110500Y0154621D01*
X0110500Y0159879D01*
X0075879Y0194500D01*
X0075000Y0195379D01*
X0075000Y0199394D01*
X0074338Y0200056D01*
X0073950Y0200993D01*
X0073950Y0202007D01*
X0074338Y0202944D01*
X0075056Y0203662D01*
X0075993Y0204050D01*
X0077007Y0204050D01*
X0077944Y0203662D01*
X0078662Y0202944D01*
X0079050Y0202007D01*
X0079050Y0200993D01*
X0078662Y0200056D01*
X0078000Y0199394D01*
X0078000Y0196621D01*
X0088500Y0186121D01*
X0088500Y0198121D01*
X0091450Y0201071D01*
X0091450Y0202007D01*
X0091838Y0202944D01*
X0092556Y0203662D01*
X0093493Y0204050D01*
X0094507Y0204050D01*
X0095444Y0203662D01*
X0096162Y0202944D01*
X0096500Y0202128D01*
X0096838Y0202944D01*
X0097556Y0203662D01*
X0098493Y0204050D01*
X0099507Y0204050D01*
X0100444Y0203662D01*
X0101162Y0202944D01*
X0101550Y0202007D01*
X0101550Y0201071D01*
X0121500Y0181121D01*
X0121500Y0123606D01*
X0122000Y0124106D01*
X0122000Y0193879D01*
X0116929Y0198950D01*
X0115993Y0198950D01*
X0115056Y0199338D01*
X0114338Y0200056D01*
X0113950Y0200993D01*
X0113950Y0202007D01*
X0114338Y0202944D01*
X0115056Y0203662D01*
X0115993Y0204050D01*
X0117007Y0204050D01*
X0117944Y0203662D01*
X0118662Y0202944D01*
X0119050Y0202007D01*
X0119050Y0201071D01*
X0125000Y0195121D01*
X0125000Y0128106D01*
X0125000Y0128106D01*
X0125000Y0207879D01*
X0117879Y0215000D01*
X0100879Y0215000D01*
X0096929Y0218950D01*
X0095993Y0218950D01*
X0095056Y0219338D01*
X0094338Y0220056D01*
X0093950Y0220993D01*
X0093950Y0222007D01*
X0094338Y0222944D01*
X0094018Y0222171D02*
X0057300Y0222171D01*
X0057300Y0221172D02*
X0093950Y0221172D01*
X0094289Y0220174D02*
X0057146Y0220174D01*
X0056733Y0219175D02*
X0095448Y0219175D01*
X0097702Y0218177D02*
X0055965Y0218177D01*
X0054610Y0217178D02*
X0098700Y0217178D01*
X0099699Y0216180D02*
X0053769Y0216180D01*
X0053496Y0216319D02*
X0052718Y0216572D01*
X0052000Y0216686D01*
X0052000Y0212000D01*
X0051000Y0212000D01*
X0051000Y0211000D01*
X0052000Y0211000D01*
X0052000Y0212000D01*
X0056686Y0212000D01*
X0056572Y0212718D01*
X0056319Y0213496D01*
X0055947Y0214225D01*
X0055466Y0214888D01*
X0054888Y0215466D01*
X0054225Y0215947D01*
X0053496Y0216319D01*
X0052000Y0216180D02*
X0051000Y0216180D01*
X0051000Y0215181D02*
X0052000Y0215181D01*
X0052000Y0214183D02*
X0051000Y0214183D01*
X0051000Y0213184D02*
X0052000Y0213184D01*
X0052000Y0212186D02*
X0051000Y0212186D01*
X0051000Y0211187D02*
X0017855Y0211187D01*
X0003500Y0207193D02*
X0048581Y0207193D01*
X0049781Y0205569D02*
X0048431Y0204219D01*
X0047700Y0202455D01*
X0047700Y0200545D01*
X0048431Y0198781D01*
X0049781Y0197431D01*
X0051545Y0196700D01*
X0053455Y0196700D01*
X0055219Y0197431D01*
X0056569Y0198781D01*
X0057300Y0200545D01*
X0057300Y0202455D01*
X0056569Y0204219D01*
X0055219Y0205569D01*
X0053455Y0206300D01*
X0051545Y0206300D01*
X0049781Y0205569D01*
X0049408Y0205196D02*
X0003500Y0205196D01*
X0003500Y0204198D02*
X0048422Y0204198D01*
X0048008Y0203199D02*
X0003500Y0203199D01*
X0003500Y0202201D02*
X0047700Y0202201D01*
X0047700Y0201202D02*
X0003500Y0201202D01*
X0003500Y0200204D02*
X0047841Y0200204D01*
X0048255Y0199205D02*
X0003500Y0199205D01*
X0003500Y0198207D02*
X0049005Y0198207D01*
X0050318Y0197208D02*
X0003500Y0197208D01*
X0003500Y0196210D02*
X0050327Y0196210D01*
X0050545Y0196300D02*
X0048781Y0195569D01*
X0047431Y0194219D01*
X0046700Y0192455D01*
X0046700Y0190545D01*
X0047431Y0188781D01*
X0048781Y0187431D01*
X0050545Y0186700D01*
X0052455Y0186700D01*
X0054219Y0187431D01*
X0055569Y0188781D01*
X0056300Y0190545D01*
X0056300Y0192455D01*
X0055569Y0194219D01*
X0054219Y0195569D01*
X0052455Y0196300D01*
X0050545Y0196300D01*
X0052673Y0196210D02*
X0075000Y0196210D01*
X0075000Y0197208D02*
X0054682Y0197208D01*
X0055995Y0198207D02*
X0075000Y0198207D01*
X0075000Y0199205D02*
X0056745Y0199205D01*
X0057159Y0200204D02*
X0074277Y0200204D01*
X0073950Y0201202D02*
X0057300Y0201202D01*
X0057300Y0202201D02*
X0074030Y0202201D01*
X0074593Y0203199D02*
X0056992Y0203199D01*
X0056578Y0204198D02*
X0125000Y0204198D01*
X0125000Y0205196D02*
X0055592Y0205196D01*
X0053709Y0206195D02*
X0125000Y0206195D01*
X0125000Y0207193D02*
X0054419Y0207193D01*
X0054225Y0207053D02*
X0054888Y0207534D01*
X0055466Y0208112D01*
X0055947Y0208775D01*
X0056319Y0209504D01*
X0056572Y0210282D01*
X0056686Y0211000D01*
X0052000Y0211000D01*
X0052000Y0206314D01*
X0052718Y0206428D01*
X0053496Y0206681D01*
X0054225Y0207053D01*
X0055524Y0208192D02*
X0124687Y0208192D01*
X0123688Y0209190D02*
X0056159Y0209190D01*
X0056542Y0210189D02*
X0122690Y0210189D01*
X0121691Y0211187D02*
X0052000Y0211187D01*
X0052000Y0210189D02*
X0051000Y0210189D01*
X0051000Y0209190D02*
X0052000Y0209190D01*
X0052000Y0208192D02*
X0051000Y0208192D01*
X0051000Y0207193D02*
X0052000Y0207193D01*
X0051291Y0206195D02*
X0003500Y0206195D01*
X0003500Y0195211D02*
X0048423Y0195211D01*
X0047428Y0194213D02*
X0003500Y0194213D01*
X0003500Y0193214D02*
X0047015Y0193214D01*
X0046700Y0192216D02*
X0003500Y0192216D01*
X0003500Y0191217D02*
X0046700Y0191217D01*
X0046835Y0190219D02*
X0003500Y0190219D01*
X0003500Y0189220D02*
X0047249Y0189220D01*
X0047990Y0188222D02*
X0003500Y0188222D01*
X0003500Y0187223D02*
X0049282Y0187223D01*
X0049438Y0185226D02*
X0003500Y0185226D01*
X0003500Y0184228D02*
X0048439Y0184228D01*
X0048021Y0183229D02*
X0003500Y0183229D01*
X0003500Y0182231D02*
X0047700Y0182231D01*
X0047700Y0181232D02*
X0003500Y0181232D01*
X0003500Y0180234D02*
X0047829Y0180234D01*
X0048243Y0179235D02*
X0003500Y0179235D01*
X0003500Y0178237D02*
X0048975Y0178237D01*
X0050246Y0177238D02*
X0003500Y0177238D01*
X0003500Y0176239D02*
X0050399Y0176239D01*
X0050545Y0176300D02*
X0048781Y0175569D01*
X0047431Y0174219D01*
X0046700Y0172455D01*
X0046700Y0170545D01*
X0047205Y0169326D01*
X0040879Y0163000D01*
X0022121Y0163000D01*
X0020879Y0163000D01*
X0015879Y0158000D01*
X0015000Y0157121D01*
X0015000Y0140879D01*
X0065000Y0090879D01*
X0065000Y0070879D01*
X0068950Y0066929D01*
X0068950Y0065993D01*
X0069338Y0065056D01*
X0070056Y0064338D01*
X0070993Y0063950D01*
X0072007Y0063950D01*
X0072944Y0064338D01*
X0073662Y0065056D01*
X0074050Y0065993D01*
X0074050Y0067007D01*
X0073662Y0067944D01*
X0072944Y0068662D01*
X0072007Y0069050D01*
X0071071Y0069050D01*
X0068000Y0072121D01*
X0068000Y0092121D01*
X0067121Y0093000D01*
X0018000Y0142121D01*
X0018000Y0155879D01*
X0022121Y0160000D01*
X0042121Y0160000D01*
X0049326Y0167205D01*
X0050545Y0166700D01*
X0052455Y0166700D01*
X0054219Y0167431D01*
X0055569Y0168781D01*
X0056300Y0170545D01*
X0056300Y0172455D01*
X0055569Y0174219D01*
X0054219Y0175569D01*
X0052455Y0176300D01*
X0050545Y0176300D01*
X0052601Y0176239D02*
X0079639Y0176239D01*
X0080638Y0175241D02*
X0054547Y0175241D01*
X0055546Y0174242D02*
X0081636Y0174242D01*
X0082635Y0173244D02*
X0055973Y0173244D01*
X0056300Y0172245D02*
X0083633Y0172245D01*
X0084632Y0171247D02*
X0056300Y0171247D01*
X0056177Y0170248D02*
X0085630Y0170248D01*
X0086629Y0169250D02*
X0055763Y0169250D01*
X0055040Y0168251D02*
X0087627Y0168251D01*
X0088626Y0167253D02*
X0053790Y0167253D01*
X0048376Y0166254D02*
X0089624Y0166254D01*
X0090623Y0165256D02*
X0047377Y0165256D01*
X0046379Y0164257D02*
X0091621Y0164257D01*
X0092620Y0163259D02*
X0045380Y0163259D01*
X0044382Y0162260D02*
X0093618Y0162260D01*
X0094617Y0161262D02*
X0043383Y0161262D01*
X0042385Y0160263D02*
X0095615Y0160263D01*
X0096614Y0159265D02*
X0021386Y0159265D01*
X0020388Y0158266D02*
X0097612Y0158266D01*
X0098611Y0157268D02*
X0019389Y0157268D01*
X0018391Y0156269D02*
X0078781Y0156269D01*
X0077431Y0154919D01*
X0076700Y0153155D01*
X0076700Y0151245D01*
X0077431Y0149481D01*
X0078781Y0148131D01*
X0080545Y0147400D01*
X0082455Y0147400D01*
X0084219Y0148131D01*
X0085569Y0149481D01*
X0086300Y0151245D01*
X0086300Y0153155D01*
X0085569Y0154919D01*
X0084219Y0156269D01*
X0082455Y0157000D01*
X0080545Y0157000D01*
X0078781Y0156269D01*
X0077783Y0155271D02*
X0018000Y0155271D01*
X0018000Y0154272D02*
X0077163Y0154272D01*
X0076749Y0153274D02*
X0034174Y0153274D01*
X0035232Y0152275D02*
X0076700Y0152275D01*
X0076700Y0151277D02*
X0035550Y0151277D01*
X0035461Y0150278D02*
X0077101Y0150278D01*
X0077632Y0149280D02*
X0034886Y0149280D01*
X0034500Y0148281D02*
X0078631Y0148281D01*
X0079786Y0145286D02*
X0034500Y0145286D01*
X0034500Y0146284D02*
X0105500Y0146284D01*
X0105500Y0145286D02*
X0083214Y0145286D01*
X0082455Y0145600D02*
X0080545Y0145600D01*
X0078781Y0144869D01*
X0077431Y0143519D01*
X0076700Y0141755D01*
X0076700Y0139845D01*
X0077431Y0138081D01*
X0078781Y0136731D01*
X0080545Y0136000D01*
X0082455Y0136000D01*
X0084219Y0136731D01*
X0085569Y0138081D01*
X0086300Y0139845D01*
X0086300Y0141755D01*
X0085569Y0143519D01*
X0084219Y0144869D01*
X0082455Y0145600D01*
X0084801Y0144287D02*
X0105500Y0144287D01*
X0105500Y0143289D02*
X0085665Y0143289D01*
X0086078Y0142290D02*
X0105500Y0142290D01*
X0105500Y0141292D02*
X0086300Y0141292D01*
X0086300Y0140293D02*
X0105500Y0140293D01*
X0105500Y0139295D02*
X0086072Y0139295D01*
X0085658Y0138296D02*
X0105500Y0138296D01*
X0105500Y0137298D02*
X0084786Y0137298D01*
X0083177Y0136299D02*
X0105500Y0136299D01*
X0105500Y0135301D02*
X0034500Y0135301D01*
X0034500Y0136299D02*
X0079823Y0136299D01*
X0078214Y0137298D02*
X0034500Y0137298D01*
X0034500Y0138296D02*
X0077342Y0138296D01*
X0076928Y0139295D02*
X0034500Y0139295D01*
X0034500Y0140293D02*
X0076700Y0140293D01*
X0076700Y0141292D02*
X0034500Y0141292D01*
X0034500Y0142290D02*
X0076922Y0142290D01*
X0077335Y0143289D02*
X0034500Y0143289D01*
X0034500Y0144287D02*
X0078199Y0144287D01*
X0084369Y0148281D02*
X0105500Y0148281D01*
X0105500Y0147283D02*
X0034500Y0147283D01*
X0031500Y0147283D02*
X0018000Y0147283D01*
X0018000Y0148281D02*
X0031500Y0148281D01*
X0031114Y0149280D02*
X0018000Y0149280D01*
X0018000Y0150278D02*
X0030539Y0150278D01*
X0030450Y0151277D02*
X0018000Y0151277D01*
X0018000Y0152275D02*
X0030768Y0152275D01*
X0031826Y0153274D02*
X0018000Y0153274D01*
X0015000Y0153274D02*
X0003500Y0153274D01*
X0003500Y0154272D02*
X0015000Y0154272D01*
X0015000Y0155271D02*
X0003500Y0155271D01*
X0003500Y0156269D02*
X0015000Y0156269D01*
X0015146Y0157268D02*
X0003500Y0157268D01*
X0003500Y0158266D02*
X0016145Y0158266D01*
X0017143Y0159265D02*
X0003500Y0159265D01*
X0003500Y0160263D02*
X0018142Y0160263D01*
X0019140Y0161262D02*
X0003500Y0161262D01*
X0003500Y0162260D02*
X0020139Y0162260D01*
X0015000Y0152275D02*
X0003500Y0152275D01*
X0003500Y0151277D02*
X0015000Y0151277D01*
X0015000Y0150278D02*
X0003500Y0150278D01*
X0003500Y0149280D02*
X0015000Y0149280D01*
X0015000Y0148281D02*
X0003500Y0148281D01*
X0003500Y0147283D02*
X0015000Y0147283D01*
X0015000Y0146284D02*
X0003500Y0146284D01*
X0003500Y0145286D02*
X0015000Y0145286D01*
X0015000Y0144287D02*
X0003500Y0144287D01*
X0003500Y0143289D02*
X0015000Y0143289D01*
X0015000Y0142290D02*
X0003500Y0142290D01*
X0003500Y0141292D02*
X0015000Y0141292D01*
X0015586Y0140293D02*
X0003500Y0140293D01*
X0003500Y0139295D02*
X0016584Y0139295D01*
X0017583Y0138296D02*
X0003500Y0138296D01*
X0003500Y0137298D02*
X0018581Y0137298D01*
X0019580Y0136299D02*
X0003500Y0136299D01*
X0003500Y0135301D02*
X0020578Y0135301D01*
X0021577Y0134302D02*
X0003500Y0134302D01*
X0003500Y0133303D02*
X0022575Y0133303D01*
X0023574Y0132305D02*
X0003500Y0132305D01*
X0003500Y0131306D02*
X0024572Y0131306D01*
X0025571Y0130308D02*
X0003500Y0130308D01*
X0003500Y0129309D02*
X0026569Y0129309D01*
X0027568Y0128311D02*
X0003500Y0128311D01*
X0003500Y0127312D02*
X0028566Y0127312D01*
X0029565Y0126314D02*
X0003500Y0126314D01*
X0003500Y0125315D02*
X0030563Y0125315D01*
X0031562Y0124317D02*
X0003500Y0124317D01*
X0003500Y0123318D02*
X0032560Y0123318D01*
X0033559Y0122320D02*
X0003500Y0122320D01*
X0003500Y0121321D02*
X0034557Y0121321D01*
X0035556Y0120323D02*
X0003500Y0120323D01*
X0003500Y0119324D02*
X0032448Y0119324D01*
X0031289Y0118326D02*
X0003500Y0118326D01*
X0003500Y0117327D02*
X0030950Y0117327D01*
X0031018Y0116329D02*
X0003500Y0116329D01*
X0003500Y0115330D02*
X0031563Y0115330D01*
X0034047Y0114332D02*
X0003500Y0114332D01*
X0003500Y0113333D02*
X0035045Y0113333D01*
X0036044Y0112335D02*
X0003500Y0112335D01*
X0003500Y0111336D02*
X0037042Y0111336D01*
X0038041Y0110338D02*
X0003500Y0110338D01*
X0003500Y0109339D02*
X0039039Y0109339D01*
X0040038Y0108341D02*
X0003500Y0108341D01*
X0003500Y0107342D02*
X0041036Y0107342D01*
X0042035Y0106344D02*
X0003500Y0106344D01*
X0003500Y0105345D02*
X0043033Y0105345D01*
X0044032Y0104347D02*
X0003500Y0104347D01*
X0003500Y0103348D02*
X0045031Y0103348D01*
X0046029Y0102350D02*
X0003500Y0102350D01*
X0003500Y0101351D02*
X0047028Y0101351D01*
X0048026Y0100353D02*
X0003500Y0100353D01*
X0003500Y0099354D02*
X0049025Y0099354D01*
X0050023Y0098356D02*
X0003500Y0098356D01*
X0003500Y0097357D02*
X0051022Y0097357D01*
X0052020Y0096359D02*
X0003500Y0096359D01*
X0003500Y0095360D02*
X0053019Y0095360D01*
X0054017Y0094362D02*
X0003500Y0094362D01*
X0003500Y0093363D02*
X0055016Y0093363D01*
X0056014Y0092365D02*
X0003500Y0092365D01*
X0003500Y0091366D02*
X0057013Y0091366D01*
X0058011Y0090368D02*
X0035239Y0090368D01*
X0035900Y0089369D02*
X0059010Y0089369D01*
X0060008Y0088370D02*
X0036050Y0088370D01*
X0035793Y0087372D02*
X0060500Y0087372D01*
X0060500Y0086373D02*
X0035000Y0086373D01*
X0035000Y0085375D02*
X0060500Y0085375D01*
X0060500Y0084376D02*
X0035000Y0084376D01*
X0035243Y0083378D02*
X0060500Y0083378D01*
X0060500Y0082379D02*
X0036242Y0082379D01*
X0037240Y0081381D02*
X0060500Y0081381D01*
X0060500Y0080382D02*
X0038239Y0080382D01*
X0039237Y0079384D02*
X0060500Y0079384D01*
X0060500Y0078385D02*
X0040236Y0078385D01*
X0041234Y0077387D02*
X0060500Y0077387D01*
X0060500Y0076388D02*
X0042233Y0076388D01*
X0043231Y0075390D02*
X0060500Y0075390D01*
X0060500Y0074391D02*
X0044230Y0074391D01*
X0045228Y0073393D02*
X0060500Y0073393D01*
X0060500Y0072394D02*
X0046227Y0072394D01*
X0047226Y0071396D02*
X0060500Y0071396D01*
X0060500Y0070397D02*
X0048224Y0070397D01*
X0049223Y0069399D02*
X0060500Y0069399D01*
X0060500Y0068400D02*
X0050221Y0068400D01*
X0051220Y0067402D02*
X0060500Y0067402D01*
X0060500Y0066403D02*
X0052218Y0066403D01*
X0053217Y0065405D02*
X0060500Y0065405D01*
X0060500Y0064406D02*
X0054215Y0064406D01*
X0055214Y0063408D02*
X0060500Y0063408D01*
X0060500Y0062409D02*
X0056212Y0062409D01*
X0057211Y0061411D02*
X0060500Y0061411D01*
X0060500Y0060412D02*
X0058209Y0060412D01*
X0059208Y0059414D02*
X0060500Y0059414D01*
X0060500Y0058415D02*
X0060206Y0058415D01*
X0057961Y0056418D02*
X0003500Y0056418D01*
X0003500Y0055420D02*
X0058959Y0055420D01*
X0059958Y0054421D02*
X0003500Y0054421D01*
X0003500Y0053423D02*
X0044816Y0053423D01*
X0044123Y0052424D02*
X0003500Y0052424D01*
X0003500Y0051426D02*
X0043950Y0051426D01*
X0044184Y0050427D02*
X0003500Y0050427D01*
X0003500Y0049429D02*
X0044965Y0049429D01*
X0046500Y0051500D02*
X0056500Y0041500D01*
X0058100Y0041440D02*
X0105819Y0041440D01*
X0104821Y0040442D02*
X0058000Y0040442D01*
X0058000Y0039443D02*
X0103822Y0039443D01*
X0102824Y0038445D02*
X0058000Y0038445D01*
X0058000Y0037446D02*
X0101825Y0037446D01*
X0100827Y0036448D02*
X0058000Y0036448D01*
X0058000Y0035449D02*
X0099828Y0035449D01*
X0098830Y0034451D02*
X0058000Y0034451D01*
X0058000Y0033452D02*
X0097831Y0033452D01*
X0096833Y0032454D02*
X0058000Y0032454D01*
X0058000Y0031455D02*
X0095834Y0031455D01*
X0094836Y0030457D02*
X0058000Y0030457D01*
X0058000Y0029458D02*
X0093837Y0029458D01*
X0092838Y0028460D02*
X0058000Y0028460D01*
X0058000Y0027461D02*
X0065340Y0027461D01*
X0064341Y0026463D02*
X0058000Y0026463D01*
X0058000Y0025464D02*
X0063343Y0025464D01*
X0059092Y0024466D02*
X0058000Y0024466D01*
X0058000Y0023467D02*
X0058093Y0023467D01*
X0055000Y0023467D02*
X0054907Y0023467D01*
X0055000Y0024466D02*
X0053908Y0024466D01*
X0055000Y0025464D02*
X0048000Y0025464D01*
X0048000Y0024466D02*
X0049092Y0024466D01*
X0048093Y0023467D02*
X0048000Y0023467D01*
X0048000Y0026463D02*
X0055000Y0026463D01*
X0055000Y0027461D02*
X0048000Y0027461D01*
X0048000Y0028460D02*
X0055000Y0028460D01*
X0055000Y0029458D02*
X0047663Y0029458D01*
X0046664Y0030457D02*
X0055000Y0030457D01*
X0055000Y0031455D02*
X0045666Y0031455D01*
X0044667Y0032454D02*
X0055000Y0032454D01*
X0055000Y0033452D02*
X0044050Y0033452D01*
X0043866Y0034451D02*
X0055000Y0034451D01*
X0055000Y0035449D02*
X0043157Y0035449D01*
X0039843Y0035449D02*
X0003500Y0035449D01*
X0003500Y0034451D02*
X0039134Y0034451D01*
X0038950Y0033452D02*
X0003500Y0033452D01*
X0003500Y0032454D02*
X0039173Y0032454D01*
X0039938Y0031455D02*
X0003500Y0031455D01*
X0003500Y0030457D02*
X0042422Y0030457D01*
X0043420Y0029458D02*
X0003500Y0029458D01*
X0003500Y0028460D02*
X0044419Y0028460D01*
X0045000Y0027461D02*
X0003500Y0027461D01*
X0003500Y0026463D02*
X0045000Y0026463D01*
X0045000Y0025464D02*
X0003500Y0025464D01*
X0003500Y0024466D02*
X0019092Y0024466D01*
X0019347Y0024721D02*
X0018279Y0023653D01*
X0017700Y0022256D01*
X0017700Y0020744D01*
X0018279Y0019347D01*
X0019347Y0018279D01*
X0020744Y0017700D01*
X0022256Y0017700D01*
X0023653Y0018279D01*
X0024721Y0019347D01*
X0025300Y0020744D01*
X0025300Y0022256D01*
X0024721Y0023653D01*
X0023653Y0024721D01*
X0022256Y0025300D01*
X0020744Y0025300D01*
X0019347Y0024721D01*
X0018202Y0023467D02*
X0003500Y0023467D01*
X0003500Y0022469D02*
X0017788Y0022469D01*
X0017700Y0021470D02*
X0003500Y0021470D01*
X0003500Y0020472D02*
X0017813Y0020472D01*
X0018226Y0019473D02*
X0003500Y0019473D01*
X0003500Y0018475D02*
X0019151Y0018475D01*
X0019926Y0015300D02*
X0017700Y0013074D01*
X0017700Y0009926D01*
X0019926Y0007700D01*
X0023074Y0007700D01*
X0025300Y0009926D01*
X0025300Y0013074D01*
X0023074Y0015300D01*
X0019926Y0015300D01*
X0019107Y0014481D02*
X0003500Y0014481D01*
X0003500Y0015479D02*
X0045000Y0015479D01*
X0045000Y0014481D02*
X0043893Y0014481D01*
X0044892Y0013482D02*
X0045000Y0013482D01*
X0045000Y0016478D02*
X0003500Y0016478D01*
X0003500Y0017476D02*
X0045000Y0017476D01*
X0045000Y0018475D02*
X0043849Y0018475D01*
X0044847Y0019473D02*
X0045000Y0019473D01*
X0045000Y0023467D02*
X0044907Y0023467D01*
X0045000Y0024466D02*
X0043908Y0024466D01*
X0039092Y0024466D02*
X0033908Y0024466D01*
X0033074Y0025300D02*
X0029926Y0025300D01*
X0027700Y0023074D01*
X0027700Y0019926D01*
X0029926Y0017700D01*
X0033074Y0017700D01*
X0035300Y0019926D01*
X0035300Y0023074D01*
X0033074Y0025300D01*
X0034907Y0023467D02*
X0038093Y0023467D01*
X0037700Y0022469D02*
X0035300Y0022469D01*
X0035300Y0021470D02*
X0037700Y0021470D01*
X0037700Y0020472D02*
X0035300Y0020472D01*
X0034847Y0019473D02*
X0038153Y0019473D01*
X0039151Y0018475D02*
X0033849Y0018475D01*
X0033074Y0015300D02*
X0029926Y0015300D01*
X0027700Y0013074D01*
X0027700Y0009926D01*
X0029926Y0007700D01*
X0033074Y0007700D01*
X0035300Y0009926D01*
X0035300Y0013074D01*
X0033074Y0015300D01*
X0033893Y0014481D02*
X0039107Y0014481D01*
X0038108Y0013482D02*
X0034892Y0013482D01*
X0035300Y0012484D02*
X0037700Y0012484D01*
X0037700Y0011485D02*
X0035300Y0011485D01*
X0035300Y0010487D02*
X0037700Y0010487D01*
X0038138Y0009488D02*
X0034862Y0009488D01*
X0033864Y0008490D02*
X0039136Y0008490D01*
X0043864Y0008490D02*
X0045389Y0008490D01*
X0045000Y0009488D02*
X0044862Y0009488D01*
X0046388Y0007491D02*
X0003500Y0007491D01*
X0003500Y0006493D02*
X0047386Y0006493D01*
X0048385Y0005494D02*
X0003500Y0005494D01*
X0003500Y0004496D02*
X0199488Y0004496D01*
X0199488Y0005494D02*
X0147615Y0005494D01*
X0148614Y0006493D02*
X0199489Y0006493D01*
X0199489Y0007491D02*
X0149612Y0007491D01*
X0147367Y0009488D02*
X0144862Y0009488D01*
X0145300Y0010487D02*
X0147700Y0010487D01*
X0147700Y0011485D02*
X0145300Y0011485D01*
X0145300Y0012484D02*
X0147700Y0012484D01*
X0148108Y0013482D02*
X0144892Y0013482D01*
X0143893Y0014481D02*
X0149107Y0014481D01*
X0147600Y0015479D02*
X0155500Y0015479D01*
X0155500Y0016478D02*
X0148599Y0016478D01*
X0149597Y0017476D02*
X0155500Y0017476D01*
X0155500Y0018475D02*
X0153849Y0018475D01*
X0154847Y0019473D02*
X0155500Y0019473D01*
X0155500Y0020472D02*
X0155300Y0020472D01*
X0155300Y0021470D02*
X0155500Y0021470D01*
X0158500Y0018475D02*
X0159151Y0018475D01*
X0158500Y0017476D02*
X0169584Y0017476D01*
X0169760Y0017300D02*
X0171100Y0017300D01*
X0171100Y0021100D01*
X0171900Y0021100D01*
X0171900Y0021900D01*
X0175700Y0021900D01*
X0175700Y0023240D01*
X0173240Y0025700D01*
X0171900Y0025700D01*
X0171900Y0021900D01*
X0171100Y0021900D01*
X0171100Y0025700D01*
X0169760Y0025700D01*
X0167300Y0023240D01*
X0167300Y0021900D01*
X0171100Y0021900D01*
X0171100Y0021100D01*
X0167300Y0021100D01*
X0167300Y0019760D01*
X0169760Y0017300D01*
X0171100Y0017476D02*
X0171900Y0017476D01*
X0171900Y0017300D02*
X0173240Y0017300D01*
X0175700Y0019760D01*
X0175700Y0021100D01*
X0171900Y0021100D01*
X0171900Y0017300D01*
X0171900Y0018475D02*
X0171100Y0018475D01*
X0171100Y0019473D02*
X0171900Y0019473D01*
X0171900Y0020472D02*
X0171100Y0020472D01*
X0171100Y0021470D02*
X0165300Y0021470D01*
X0165300Y0020472D02*
X0167300Y0020472D01*
X0167587Y0019473D02*
X0164847Y0019473D01*
X0163849Y0018475D02*
X0168586Y0018475D01*
X0167300Y0022469D02*
X0165300Y0022469D01*
X0164907Y0023467D02*
X0167528Y0023467D01*
X0168526Y0024466D02*
X0163908Y0024466D01*
X0159657Y0025464D02*
X0169525Y0025464D01*
X0171100Y0025464D02*
X0171900Y0025464D01*
X0171900Y0024466D02*
X0171100Y0024466D01*
X0171100Y0023467D02*
X0171900Y0023467D01*
X0171900Y0022469D02*
X0171100Y0022469D01*
X0171900Y0021470D02*
X0199490Y0021470D01*
X0199489Y0020472D02*
X0175700Y0020472D01*
X0175413Y0019473D02*
X0199489Y0019473D01*
X0199489Y0018475D02*
X0174414Y0018475D01*
X0173416Y0017476D02*
X0199489Y0017476D01*
X0199489Y0016478D02*
X0158644Y0016478D01*
X0159642Y0015479D02*
X0199489Y0015479D01*
X0199489Y0014481D02*
X0173893Y0014481D01*
X0173074Y0015300D02*
X0169926Y0015300D01*
X0167700Y0013074D01*
X0167700Y0009926D01*
X0169926Y0007700D01*
X0173074Y0007700D01*
X0175300Y0009926D01*
X0175300Y0013074D01*
X0173074Y0015300D01*
X0174892Y0013482D02*
X0199489Y0013482D01*
X0199489Y0012484D02*
X0175300Y0012484D01*
X0175300Y0011485D02*
X0199489Y0011485D01*
X0199489Y0010487D02*
X0175300Y0010487D01*
X0174862Y0009488D02*
X0199489Y0009488D01*
X0199489Y0008490D02*
X0173864Y0008490D01*
X0169136Y0008490D02*
X0163864Y0008490D01*
X0164862Y0009488D02*
X0168138Y0009488D01*
X0167700Y0010487D02*
X0165300Y0010487D01*
X0165300Y0011485D02*
X0167700Y0011485D01*
X0167700Y0012484D02*
X0165300Y0012484D01*
X0164892Y0013482D02*
X0168108Y0013482D01*
X0169107Y0014481D02*
X0163893Y0014481D01*
X0158138Y0009488D02*
X0154862Y0009488D01*
X0155300Y0010487D02*
X0157700Y0010487D01*
X0157700Y0011485D02*
X0155300Y0011485D01*
X0155300Y0012484D02*
X0157700Y0012484D01*
X0157397Y0013482D02*
X0154892Y0013482D01*
X0153893Y0014481D02*
X0156398Y0014481D01*
X0153864Y0008490D02*
X0159136Y0008490D01*
X0146368Y0008490D02*
X0143864Y0008490D01*
X0158659Y0026463D02*
X0199490Y0026463D01*
X0199490Y0027461D02*
X0157660Y0027461D01*
X0156662Y0028460D02*
X0199490Y0028460D01*
X0199490Y0029458D02*
X0155663Y0029458D01*
X0146563Y0040442D02*
X0199491Y0040442D01*
X0199491Y0041440D02*
X0147500Y0041440D01*
X0147500Y0042439D02*
X0199491Y0042439D01*
X0199491Y0043437D02*
X0147500Y0043437D01*
X0147500Y0044436D02*
X0199491Y0044436D01*
X0199491Y0045434D02*
X0147187Y0045434D01*
X0146188Y0046433D02*
X0199491Y0046433D01*
X0199491Y0047432D02*
X0145500Y0047432D01*
X0145500Y0048430D02*
X0199491Y0048430D01*
X0199491Y0049429D02*
X0145500Y0049429D01*
X0145500Y0050427D02*
X0199492Y0050427D01*
X0199492Y0051426D02*
X0145500Y0051426D01*
X0145500Y0052424D02*
X0199492Y0052424D01*
X0199492Y0053423D02*
X0145500Y0053423D01*
X0145500Y0054421D02*
X0199492Y0054421D01*
X0199492Y0055420D02*
X0190807Y0055420D01*
X0192068Y0055942D02*
X0188634Y0054520D01*
X0184917Y0054520D01*
X0181483Y0055942D01*
X0178855Y0058570D01*
X0177433Y0062004D01*
X0177433Y0065721D01*
X0178855Y0069154D01*
X0181483Y0071782D01*
X0184917Y0073205D01*
X0188634Y0073205D01*
X0192068Y0071782D01*
X0194696Y0069154D01*
X0196118Y0065721D01*
X0196118Y0062004D01*
X0194696Y0058570D01*
X0192068Y0055942D01*
X0192544Y0056418D02*
X0199492Y0056418D01*
X0199492Y0057417D02*
X0193542Y0057417D01*
X0194541Y0058415D02*
X0199492Y0058415D01*
X0199492Y0059414D02*
X0195045Y0059414D01*
X0195459Y0060412D02*
X0199492Y0060412D01*
X0199492Y0061411D02*
X0195872Y0061411D01*
X0196118Y0062409D02*
X0199492Y0062409D01*
X0199492Y0063408D02*
X0196118Y0063408D01*
X0196118Y0064406D02*
X0199493Y0064406D01*
X0199493Y0065405D02*
X0196118Y0065405D01*
X0195835Y0066403D02*
X0199493Y0066403D01*
X0199493Y0067402D02*
X0195422Y0067402D01*
X0195008Y0068400D02*
X0199493Y0068400D01*
X0199493Y0069399D02*
X0194451Y0069399D01*
X0193453Y0070397D02*
X0199493Y0070397D01*
X0199493Y0071396D02*
X0192454Y0071396D01*
X0190590Y0072394D02*
X0199493Y0072394D01*
X0199493Y0073393D02*
X0145500Y0073393D01*
X0145500Y0074391D02*
X0199493Y0074391D01*
X0199493Y0075390D02*
X0145500Y0075390D01*
X0145500Y0076388D02*
X0199493Y0076388D01*
X0199493Y0077387D02*
X0145500Y0077387D01*
X0145500Y0078385D02*
X0199493Y0078385D01*
X0199494Y0079384D02*
X0145500Y0079384D01*
X0145500Y0080382D02*
X0199494Y0080382D01*
X0199494Y0081381D02*
X0145500Y0081381D01*
X0145500Y0082379D02*
X0145514Y0082379D01*
X0149486Y0082379D02*
X0199494Y0082379D01*
X0199494Y0083378D02*
X0163499Y0083378D01*
X0164498Y0084376D02*
X0199494Y0084376D01*
X0199494Y0085375D02*
X0165496Y0085375D01*
X0166495Y0086373D02*
X0199494Y0086373D01*
X0199494Y0087372D02*
X0167493Y0087372D01*
X0168492Y0088370D02*
X0199494Y0088370D01*
X0199494Y0089369D02*
X0169490Y0089369D01*
X0170489Y0090368D02*
X0199494Y0090368D01*
X0199494Y0091366D02*
X0171487Y0091366D01*
X0172486Y0092365D02*
X0199494Y0092365D01*
X0199495Y0093363D02*
X0172500Y0093363D01*
X0172500Y0094362D02*
X0199495Y0094362D01*
X0199495Y0095360D02*
X0172500Y0095360D01*
X0172500Y0096359D02*
X0199495Y0096359D01*
X0199495Y0097357D02*
X0172500Y0097357D01*
X0172500Y0098356D02*
X0199495Y0098356D01*
X0199495Y0099354D02*
X0172500Y0099354D01*
X0172500Y0100353D02*
X0183572Y0100353D01*
X0184917Y0099795D02*
X0188634Y0099795D01*
X0192068Y0101218D01*
X0194696Y0103846D01*
X0196118Y0107279D01*
X0196118Y0110996D01*
X0194696Y0114430D01*
X0192068Y0117058D01*
X0188634Y0118480D01*
X0184917Y0118480D01*
X0181483Y0117058D01*
X0178855Y0114430D01*
X0177433Y0110996D01*
X0177433Y0107279D01*
X0178855Y0103846D01*
X0181483Y0101218D01*
X0184917Y0099795D01*
X0181350Y0101351D02*
X0172500Y0101351D01*
X0172500Y0102350D02*
X0180351Y0102350D01*
X0179353Y0103348D02*
X0172500Y0103348D01*
X0172500Y0104347D02*
X0178648Y0104347D01*
X0178234Y0105345D02*
X0172500Y0105345D01*
X0172500Y0106344D02*
X0177821Y0106344D01*
X0177433Y0107342D02*
X0172500Y0107342D01*
X0172500Y0108341D02*
X0177433Y0108341D01*
X0177433Y0109339D02*
X0172500Y0109339D01*
X0172500Y0110338D02*
X0177433Y0110338D01*
X0177574Y0111336D02*
X0172500Y0111336D01*
X0172500Y0112335D02*
X0177988Y0112335D01*
X0178401Y0113333D02*
X0172500Y0113333D01*
X0172500Y0114332D02*
X0178815Y0114332D01*
X0179756Y0115330D02*
X0172500Y0115330D01*
X0172500Y0116329D02*
X0180754Y0116329D01*
X0182134Y0117327D02*
X0172500Y0117327D01*
X0172500Y0118326D02*
X0184544Y0118326D01*
X0189007Y0118326D02*
X0199496Y0118326D01*
X0199496Y0119324D02*
X0172500Y0119324D01*
X0172500Y0120323D02*
X0199496Y0120323D01*
X0199496Y0121321D02*
X0172500Y0121321D01*
X0172500Y0122320D02*
X0199496Y0122320D01*
X0199497Y0123318D02*
X0172500Y0123318D01*
X0172500Y0124317D02*
X0199497Y0124317D01*
X0199497Y0125315D02*
X0172500Y0125315D01*
X0172500Y0126314D02*
X0199497Y0126314D01*
X0199497Y0127312D02*
X0172500Y0127312D01*
X0172500Y0128311D02*
X0199497Y0128311D01*
X0199497Y0129309D02*
X0172500Y0129309D01*
X0172500Y0130308D02*
X0199497Y0130308D01*
X0199497Y0131306D02*
X0172500Y0131306D01*
X0172500Y0132305D02*
X0199497Y0132305D01*
X0199497Y0133303D02*
X0172500Y0133303D01*
X0172500Y0134302D02*
X0199497Y0134302D01*
X0199497Y0135301D02*
X0172500Y0135301D01*
X0173420Y0136299D02*
X0199497Y0136299D01*
X0199498Y0137298D02*
X0174419Y0137298D01*
X0175417Y0138296D02*
X0199498Y0138296D01*
X0199498Y0139295D02*
X0177901Y0139295D01*
X0178467Y0140293D02*
X0199498Y0140293D01*
X0199498Y0141292D02*
X0178550Y0141292D01*
X0178226Y0142290D02*
X0199498Y0142290D01*
X0199498Y0143289D02*
X0177325Y0143289D01*
X0178258Y0144287D02*
X0199498Y0144287D01*
X0199498Y0145286D02*
X0178550Y0145286D01*
X0178435Y0146284D02*
X0199498Y0146284D01*
X0199498Y0147283D02*
X0177824Y0147283D01*
X0174176Y0147283D02*
X0161000Y0147283D01*
X0161000Y0148281D02*
X0199498Y0148281D01*
X0199498Y0149280D02*
X0161000Y0149280D01*
X0161000Y0150278D02*
X0199498Y0150278D01*
X0199498Y0151277D02*
X0161000Y0151277D01*
X0161000Y0152275D02*
X0199499Y0152275D01*
X0199499Y0153274D02*
X0161000Y0153274D01*
X0161000Y0154272D02*
X0199499Y0154272D01*
X0199499Y0155271D02*
X0161000Y0155271D01*
X0161000Y0156269D02*
X0199499Y0156269D01*
X0199499Y0157268D02*
X0161000Y0157268D01*
X0161000Y0158266D02*
X0199499Y0158266D01*
X0199499Y0159265D02*
X0161000Y0159265D01*
X0161000Y0160263D02*
X0199499Y0160263D01*
X0199499Y0161262D02*
X0161000Y0161262D01*
X0161000Y0162260D02*
X0199499Y0162260D01*
X0199499Y0163259D02*
X0161000Y0163259D01*
X0161000Y0164257D02*
X0199499Y0164257D01*
X0199499Y0165256D02*
X0161000Y0165256D01*
X0161000Y0166254D02*
X0199500Y0166254D01*
X0199500Y0167253D02*
X0161000Y0167253D01*
X0161000Y0168251D02*
X0199500Y0168251D01*
X0199500Y0169250D02*
X0161000Y0169250D01*
X0161000Y0170248D02*
X0199500Y0170248D01*
X0199500Y0171247D02*
X0161000Y0171247D01*
X0160876Y0172245D02*
X0199500Y0172245D01*
X0199500Y0173244D02*
X0159877Y0173244D01*
X0158879Y0174242D02*
X0199500Y0174242D01*
X0199500Y0175241D02*
X0157880Y0175241D01*
X0156882Y0176239D02*
X0199500Y0176239D01*
X0199500Y0177238D02*
X0155883Y0177238D01*
X0154885Y0178237D02*
X0199500Y0178237D01*
X0199500Y0179235D02*
X0153886Y0179235D01*
X0152888Y0180234D02*
X0199500Y0180234D01*
X0199500Y0181232D02*
X0151889Y0181232D01*
X0150891Y0182231D02*
X0199500Y0182231D01*
X0199500Y0183229D02*
X0146979Y0183229D01*
X0146561Y0184228D02*
X0199500Y0184228D01*
X0199500Y0185226D02*
X0145562Y0185226D01*
X0143637Y0186225D02*
X0199500Y0186225D01*
X0199500Y0187223D02*
X0143718Y0187223D01*
X0144219Y0187431D02*
X0145569Y0188781D01*
X0146300Y0190545D01*
X0146300Y0192455D01*
X0145569Y0194219D01*
X0144219Y0195569D01*
X0142455Y0196300D01*
X0140545Y0196300D01*
X0138781Y0195569D01*
X0137431Y0194219D01*
X0136700Y0192455D01*
X0136700Y0190545D01*
X0137205Y0189326D01*
X0133000Y0185121D01*
X0133000Y0133606D01*
X0132338Y0132944D01*
X0131950Y0132007D01*
X0131950Y0130993D01*
X0132338Y0130056D01*
X0133056Y0129338D01*
X0133993Y0128950D01*
X0135007Y0128950D01*
X0135944Y0129338D01*
X0136662Y0130056D01*
X0137050Y0130993D01*
X0137050Y0132007D01*
X0136662Y0132944D01*
X0136000Y0133606D01*
X0136000Y0183879D01*
X0139326Y0187205D01*
X0140545Y0186700D01*
X0142455Y0186700D01*
X0144219Y0187431D01*
X0145010Y0188222D02*
X0199500Y0188222D01*
X0199500Y0189220D02*
X0145751Y0189220D01*
X0146165Y0190219D02*
X0199500Y0190219D01*
X0199500Y0191217D02*
X0146300Y0191217D01*
X0146300Y0192216D02*
X0199500Y0192216D01*
X0199500Y0193214D02*
X0145985Y0193214D01*
X0145572Y0194213D02*
X0199500Y0194213D01*
X0199500Y0195211D02*
X0144577Y0195211D01*
X0143455Y0196700D02*
X0145219Y0197431D01*
X0146569Y0198781D01*
X0147300Y0200545D01*
X0147300Y0202455D01*
X0146569Y0204219D01*
X0145219Y0205569D01*
X0143455Y0206300D01*
X0141545Y0206300D01*
X0139781Y0205569D01*
X0138431Y0204219D01*
X0137700Y0202455D01*
X0137700Y0200545D01*
X0138431Y0198781D01*
X0139781Y0197431D01*
X0141545Y0196700D01*
X0143455Y0196700D01*
X0142673Y0196210D02*
X0199500Y0196210D01*
X0199500Y0197208D02*
X0144682Y0197208D01*
X0145995Y0198207D02*
X0199500Y0198207D01*
X0199500Y0199205D02*
X0146745Y0199205D01*
X0147159Y0200204D02*
X0199500Y0200204D01*
X0199500Y0201202D02*
X0147300Y0201202D01*
X0147300Y0202201D02*
X0199500Y0202201D01*
X0199500Y0203199D02*
X0146992Y0203199D01*
X0146578Y0204198D02*
X0199500Y0204198D01*
X0199500Y0205196D02*
X0145592Y0205196D01*
X0143709Y0206195D02*
X0199500Y0206195D01*
X0199500Y0207193D02*
X0144419Y0207193D01*
X0144225Y0207053D02*
X0144888Y0207534D01*
X0145466Y0208112D01*
X0145947Y0208775D01*
X0146319Y0209504D01*
X0146572Y0210282D01*
X0146686Y0211000D01*
X0142000Y0211000D01*
X0142000Y0212000D01*
X0141000Y0212000D01*
X0141000Y0216686D01*
X0140282Y0216572D01*
X0139504Y0216319D01*
X0138775Y0215947D01*
X0138112Y0215466D01*
X0137534Y0214888D01*
X0137053Y0214225D01*
X0136681Y0213496D01*
X0136428Y0212718D01*
X0136314Y0212000D01*
X0141000Y0212000D01*
X0141000Y0211000D01*
X0136314Y0211000D01*
X0136428Y0210282D01*
X0136681Y0209504D01*
X0137053Y0208775D01*
X0137534Y0208112D01*
X0138112Y0207534D01*
X0138775Y0207053D01*
X0139504Y0206681D01*
X0140282Y0206428D01*
X0141000Y0206314D01*
X0141000Y0211000D01*
X0142000Y0211000D01*
X0142000Y0206314D01*
X0142718Y0206428D01*
X0143496Y0206681D01*
X0144225Y0207053D01*
X0145524Y0208192D02*
X0199500Y0208192D01*
X0199500Y0209190D02*
X0195411Y0209190D01*
X0196856Y0210189D02*
X0199500Y0210189D01*
X0199500Y0211187D02*
X0197855Y0211187D01*
X0198643Y0212186D02*
X0199500Y0212186D01*
X0199500Y0213184D02*
X0199056Y0213184D01*
X0199470Y0214183D02*
X0199500Y0214183D01*
X0199500Y0219175D02*
X0199322Y0219175D01*
X0199500Y0220174D02*
X0198908Y0220174D01*
X0198494Y0221172D02*
X0199500Y0221172D01*
X0199500Y0222171D02*
X0197496Y0222171D01*
X0196498Y0223170D02*
X0199500Y0223170D01*
X0199500Y0224168D02*
X0194546Y0224168D01*
X0199500Y0225167D02*
X0145622Y0225167D01*
X0146590Y0224168D02*
X0188454Y0224168D01*
X0186502Y0223170D02*
X0147004Y0223170D01*
X0147300Y0222171D02*
X0185504Y0222171D01*
X0184506Y0221172D02*
X0147300Y0221172D01*
X0147146Y0220174D02*
X0184092Y0220174D01*
X0183678Y0219175D02*
X0146733Y0219175D01*
X0145965Y0218177D02*
X0183265Y0218177D01*
X0183250Y0217178D02*
X0144610Y0217178D01*
X0144225Y0215947D02*
X0143496Y0216319D01*
X0142718Y0216572D01*
X0142000Y0216686D01*
X0142000Y0212000D01*
X0146686Y0212000D01*
X0146572Y0212718D01*
X0146319Y0213496D01*
X0145947Y0214225D01*
X0145466Y0214888D01*
X0144888Y0215466D01*
X0144225Y0215947D01*
X0143769Y0216180D02*
X0183250Y0216180D01*
X0183250Y0215181D02*
X0145172Y0215181D01*
X0145969Y0214183D02*
X0183530Y0214183D01*
X0183944Y0213184D02*
X0146420Y0213184D01*
X0146656Y0212186D02*
X0184357Y0212186D01*
X0185145Y0211187D02*
X0142000Y0211187D01*
X0142000Y0210189D02*
X0141000Y0210189D01*
X0141000Y0211187D02*
X0131000Y0211187D01*
X0131000Y0210189D02*
X0136458Y0210189D01*
X0136841Y0209190D02*
X0131000Y0209190D01*
X0131000Y0208192D02*
X0137476Y0208192D01*
X0138581Y0207193D02*
X0131000Y0207193D01*
X0131000Y0206195D02*
X0141291Y0206195D01*
X0141000Y0207193D02*
X0142000Y0207193D01*
X0142000Y0208192D02*
X0141000Y0208192D01*
X0141000Y0209190D02*
X0142000Y0209190D01*
X0142000Y0212186D02*
X0141000Y0212186D01*
X0141000Y0213184D02*
X0142000Y0213184D01*
X0142000Y0214183D02*
X0141000Y0214183D01*
X0141000Y0215181D02*
X0142000Y0215181D01*
X0142000Y0216180D02*
X0141000Y0216180D01*
X0140390Y0217178D02*
X0125943Y0217178D01*
X0126941Y0216180D02*
X0139231Y0216180D01*
X0137828Y0215181D02*
X0127940Y0215181D01*
X0128938Y0214183D02*
X0137031Y0214183D01*
X0136580Y0213184D02*
X0129937Y0213184D01*
X0130935Y0212186D02*
X0136344Y0212186D01*
X0139035Y0218177D02*
X0124944Y0218177D01*
X0123946Y0219175D02*
X0138267Y0219175D01*
X0137854Y0220174D02*
X0122947Y0220174D01*
X0121949Y0221172D02*
X0137700Y0221172D01*
X0137700Y0222171D02*
X0120950Y0222171D01*
X0118437Y0223170D02*
X0137996Y0223170D01*
X0146542Y0210189D02*
X0186144Y0210189D01*
X0187589Y0209190D02*
X0146159Y0209190D01*
X0139408Y0205196D02*
X0131000Y0205196D01*
X0131000Y0204198D02*
X0138422Y0204198D01*
X0138008Y0203199D02*
X0131000Y0203199D01*
X0131000Y0202201D02*
X0137700Y0202201D01*
X0137700Y0201202D02*
X0131000Y0201202D01*
X0131000Y0200204D02*
X0137841Y0200204D01*
X0138255Y0199205D02*
X0131000Y0199205D01*
X0131000Y0198207D02*
X0139005Y0198207D01*
X0140318Y0197208D02*
X0131000Y0197208D01*
X0131000Y0196210D02*
X0140327Y0196210D01*
X0138423Y0195211D02*
X0131000Y0195211D01*
X0131000Y0194213D02*
X0137428Y0194213D01*
X0137015Y0193214D02*
X0131000Y0193214D01*
X0131000Y0192216D02*
X0136700Y0192216D01*
X0136700Y0191217D02*
X0131000Y0191217D01*
X0131000Y0190219D02*
X0136835Y0190219D01*
X0137099Y0189220D02*
X0131000Y0189220D01*
X0131000Y0188222D02*
X0136100Y0188222D01*
X0135102Y0187223D02*
X0131000Y0187223D01*
X0131000Y0186225D02*
X0134103Y0186225D01*
X0133105Y0185226D02*
X0131000Y0185226D01*
X0131000Y0184228D02*
X0133000Y0184228D01*
X0133000Y0183229D02*
X0131000Y0183229D01*
X0131000Y0182231D02*
X0133000Y0182231D01*
X0133000Y0181232D02*
X0131000Y0181232D01*
X0131000Y0180234D02*
X0133000Y0180234D01*
X0133000Y0179235D02*
X0131000Y0179235D01*
X0131000Y0178237D02*
X0133000Y0178237D01*
X0133000Y0177238D02*
X0131000Y0177238D01*
X0131000Y0176239D02*
X0133000Y0176239D01*
X0133000Y0175241D02*
X0131000Y0175241D01*
X0131000Y0174242D02*
X0133000Y0174242D01*
X0133000Y0173244D02*
X0131000Y0173244D01*
X0131000Y0172245D02*
X0133000Y0172245D01*
X0133000Y0171247D02*
X0131000Y0171247D01*
X0131000Y0170248D02*
X0133000Y0170248D01*
X0133000Y0169250D02*
X0131000Y0169250D01*
X0131000Y0168251D02*
X0133000Y0168251D01*
X0133000Y0167253D02*
X0131000Y0167253D01*
X0131000Y0166254D02*
X0133000Y0166254D01*
X0133000Y0165256D02*
X0131000Y0165256D01*
X0131000Y0164257D02*
X0133000Y0164257D01*
X0133000Y0163259D02*
X0131000Y0163259D01*
X0131000Y0162260D02*
X0133000Y0162260D01*
X0133000Y0161262D02*
X0131000Y0161262D01*
X0131000Y0160263D02*
X0133000Y0160263D01*
X0133000Y0159265D02*
X0131000Y0159265D01*
X0131000Y0158266D02*
X0133000Y0158266D01*
X0133000Y0157268D02*
X0131000Y0157268D01*
X0131000Y0156269D02*
X0133000Y0156269D01*
X0133000Y0155271D02*
X0131000Y0155271D01*
X0131000Y0154272D02*
X0133000Y0154272D01*
X0133000Y0153274D02*
X0131000Y0153274D01*
X0131000Y0152275D02*
X0133000Y0152275D01*
X0133000Y0151277D02*
X0131000Y0151277D01*
X0131000Y0150278D02*
X0133000Y0150278D01*
X0133000Y0149280D02*
X0131000Y0149280D01*
X0131000Y0148281D02*
X0133000Y0148281D01*
X0133000Y0147283D02*
X0131000Y0147283D01*
X0131000Y0146284D02*
X0133000Y0146284D01*
X0133000Y0145286D02*
X0131000Y0145286D01*
X0131000Y0144287D02*
X0133000Y0144287D01*
X0133000Y0143289D02*
X0131000Y0143289D01*
X0131000Y0142290D02*
X0133000Y0142290D01*
X0133000Y0141292D02*
X0131000Y0141292D01*
X0131000Y0140293D02*
X0133000Y0140293D01*
X0133000Y0139295D02*
X0131000Y0139295D01*
X0131000Y0138296D02*
X0133000Y0138296D01*
X0133000Y0137298D02*
X0131000Y0137298D01*
X0131000Y0136299D02*
X0133000Y0136299D01*
X0133000Y0135301D02*
X0131000Y0135301D01*
X0131000Y0134302D02*
X0133000Y0134302D01*
X0132697Y0133303D02*
X0131000Y0133303D01*
X0131000Y0132305D02*
X0132073Y0132305D01*
X0131950Y0131306D02*
X0131000Y0131306D01*
X0131000Y0130308D02*
X0132234Y0130308D01*
X0133125Y0129309D02*
X0131000Y0129309D01*
X0131000Y0128311D02*
X0155000Y0128311D01*
X0155000Y0129309D02*
X0135875Y0129309D01*
X0136766Y0130308D02*
X0155000Y0130308D01*
X0155000Y0131306D02*
X0137050Y0131306D01*
X0136927Y0132305D02*
X0155000Y0132305D01*
X0155000Y0133303D02*
X0136303Y0133303D01*
X0136000Y0134302D02*
X0155000Y0134302D01*
X0155000Y0135301D02*
X0136000Y0135301D01*
X0136000Y0136299D02*
X0155000Y0136299D01*
X0155000Y0137298D02*
X0136000Y0137298D01*
X0136000Y0138296D02*
X0155000Y0138296D01*
X0155000Y0139295D02*
X0136000Y0139295D01*
X0136000Y0140293D02*
X0155000Y0140293D01*
X0155000Y0141292D02*
X0136000Y0141292D01*
X0136000Y0142290D02*
X0155000Y0142290D01*
X0155000Y0143289D02*
X0136000Y0143289D01*
X0136000Y0144287D02*
X0155000Y0144287D01*
X0155000Y0145286D02*
X0136000Y0145286D01*
X0136000Y0146284D02*
X0155000Y0146284D01*
X0155000Y0147283D02*
X0136000Y0147283D01*
X0136000Y0148281D02*
X0155000Y0148281D01*
X0155000Y0149280D02*
X0136000Y0149280D01*
X0136000Y0150278D02*
X0155000Y0150278D01*
X0155000Y0151277D02*
X0136000Y0151277D01*
X0136000Y0152275D02*
X0155000Y0152275D01*
X0155000Y0153274D02*
X0136000Y0153274D01*
X0136000Y0154272D02*
X0155000Y0154272D01*
X0155000Y0155271D02*
X0136000Y0155271D01*
X0136000Y0156269D02*
X0155000Y0156269D01*
X0155000Y0157268D02*
X0136000Y0157268D01*
X0136000Y0158266D02*
X0155000Y0158266D01*
X0155000Y0159265D02*
X0136000Y0159265D01*
X0136000Y0160263D02*
X0155000Y0160263D01*
X0155000Y0161262D02*
X0136000Y0161262D01*
X0136000Y0162260D02*
X0155000Y0162260D01*
X0155000Y0163259D02*
X0136000Y0163259D01*
X0136000Y0164257D02*
X0155000Y0164257D01*
X0155000Y0165256D02*
X0136000Y0165256D01*
X0136000Y0166254D02*
X0155000Y0166254D01*
X0155000Y0167253D02*
X0143790Y0167253D01*
X0145040Y0168251D02*
X0154127Y0168251D01*
X0153129Y0169250D02*
X0145763Y0169250D01*
X0145973Y0173244D02*
X0155635Y0173244D01*
X0156633Y0172245D02*
X0154376Y0172245D01*
X0155374Y0171247D02*
X0157632Y0171247D01*
X0158000Y0170248D02*
X0156373Y0170248D01*
X0157371Y0169250D02*
X0158000Y0169250D01*
X0158000Y0168251D02*
X0158000Y0168251D01*
X0158000Y0167253D02*
X0158000Y0167253D01*
X0158000Y0166254D02*
X0158000Y0166254D01*
X0158000Y0165256D02*
X0158000Y0165256D01*
X0158000Y0164257D02*
X0158000Y0164257D01*
X0158000Y0163259D02*
X0158000Y0163259D01*
X0158000Y0162260D02*
X0158000Y0162260D01*
X0158000Y0161262D02*
X0158000Y0161262D01*
X0158000Y0160263D02*
X0158000Y0160263D01*
X0158000Y0159265D02*
X0158000Y0159265D01*
X0158000Y0158266D02*
X0158000Y0158266D01*
X0158000Y0157268D02*
X0158000Y0157268D01*
X0158000Y0156269D02*
X0158000Y0156269D01*
X0158000Y0155271D02*
X0158000Y0155271D01*
X0158000Y0154272D02*
X0158000Y0154272D01*
X0158000Y0153274D02*
X0158000Y0153274D01*
X0158000Y0152275D02*
X0158000Y0152275D01*
X0158000Y0151277D02*
X0158000Y0151277D01*
X0158000Y0150278D02*
X0158000Y0150278D01*
X0158000Y0149280D02*
X0158000Y0149280D01*
X0158000Y0148281D02*
X0158000Y0148281D01*
X0158000Y0147283D02*
X0158000Y0147283D01*
X0158000Y0146284D02*
X0158000Y0146284D01*
X0158000Y0145286D02*
X0158000Y0145286D01*
X0158000Y0144287D02*
X0158000Y0144287D01*
X0158000Y0143289D02*
X0158000Y0143289D01*
X0158000Y0142290D02*
X0158000Y0142290D01*
X0158000Y0141292D02*
X0158000Y0141292D01*
X0158000Y0140293D02*
X0158000Y0140293D01*
X0158000Y0139295D02*
X0158000Y0139295D01*
X0158000Y0138296D02*
X0158000Y0138296D01*
X0158000Y0137298D02*
X0158000Y0137298D01*
X0158000Y0136299D02*
X0158000Y0136299D01*
X0158000Y0135301D02*
X0158000Y0135301D01*
X0158000Y0134302D02*
X0158000Y0134302D01*
X0158000Y0133303D02*
X0158000Y0133303D01*
X0158000Y0132305D02*
X0158000Y0132305D01*
X0158000Y0131306D02*
X0158000Y0131306D01*
X0158000Y0130308D02*
X0158000Y0130308D01*
X0158000Y0129309D02*
X0158000Y0129309D01*
X0158000Y0128311D02*
X0158000Y0128311D01*
X0158000Y0127312D02*
X0158000Y0127312D01*
X0158000Y0126314D02*
X0158000Y0126314D01*
X0158000Y0125315D02*
X0158000Y0125315D01*
X0158000Y0124317D02*
X0158000Y0124317D01*
X0158000Y0123318D02*
X0158000Y0123318D01*
X0158000Y0122320D02*
X0158000Y0122320D01*
X0158000Y0121321D02*
X0158000Y0121321D01*
X0158000Y0120323D02*
X0158000Y0120323D01*
X0158000Y0119324D02*
X0158000Y0119324D01*
X0158000Y0118326D02*
X0158000Y0118326D01*
X0158000Y0117327D02*
X0158000Y0117327D01*
X0158000Y0116329D02*
X0158000Y0116329D01*
X0158000Y0115330D02*
X0158000Y0115330D01*
X0158000Y0114332D02*
X0158000Y0114332D01*
X0158000Y0113333D02*
X0158000Y0113333D01*
X0158000Y0112335D02*
X0158000Y0112335D01*
X0158000Y0111336D02*
X0158000Y0111336D01*
X0158000Y0110338D02*
X0158000Y0110338D01*
X0158000Y0109339D02*
X0158000Y0109339D01*
X0158000Y0108341D02*
X0158000Y0108341D01*
X0158000Y0107342D02*
X0158000Y0107342D01*
X0158000Y0106344D02*
X0158000Y0106344D01*
X0158000Y0105345D02*
X0158000Y0105345D01*
X0158000Y0104347D02*
X0158000Y0104347D01*
X0158000Y0103348D02*
X0158000Y0103348D01*
X0158000Y0102350D02*
X0158000Y0102350D01*
X0158000Y0101351D02*
X0158000Y0101351D01*
X0158000Y0100353D02*
X0158000Y0100353D01*
X0158000Y0099354D02*
X0158000Y0099354D01*
X0158000Y0098356D02*
X0158000Y0098356D01*
X0158000Y0097357D02*
X0158000Y0097357D01*
X0158000Y0096359D02*
X0158000Y0096359D01*
X0155000Y0096359D02*
X0145500Y0096359D01*
X0145500Y0097357D02*
X0155000Y0097357D01*
X0155000Y0098356D02*
X0145500Y0098356D01*
X0145500Y0099354D02*
X0155000Y0099354D01*
X0155000Y0100353D02*
X0145500Y0100353D01*
X0145500Y0101351D02*
X0155000Y0101351D01*
X0155000Y0102350D02*
X0145500Y0102350D01*
X0145500Y0103348D02*
X0155000Y0103348D01*
X0155000Y0104347D02*
X0145500Y0104347D01*
X0145500Y0105345D02*
X0155000Y0105345D01*
X0155000Y0106344D02*
X0145500Y0106344D01*
X0145500Y0107342D02*
X0155000Y0107342D01*
X0155000Y0108341D02*
X0145500Y0108341D01*
X0145500Y0109339D02*
X0155000Y0109339D01*
X0155000Y0110338D02*
X0145500Y0110338D01*
X0145285Y0111336D02*
X0155000Y0111336D01*
X0155000Y0112335D02*
X0144287Y0112335D01*
X0143288Y0113333D02*
X0155000Y0113333D01*
X0155000Y0114332D02*
X0142290Y0114332D01*
X0141291Y0115330D02*
X0155000Y0115330D01*
X0155000Y0116329D02*
X0140293Y0116329D01*
X0139294Y0117327D02*
X0155000Y0117327D01*
X0155000Y0118326D02*
X0138295Y0118326D01*
X0137297Y0119324D02*
X0155000Y0119324D01*
X0155000Y0120323D02*
X0136298Y0120323D01*
X0131772Y0121321D02*
X0155000Y0121321D01*
X0155000Y0122320D02*
X0132050Y0122320D01*
X0131921Y0123318D02*
X0155000Y0123318D01*
X0155000Y0124317D02*
X0131289Y0124317D01*
X0131000Y0125315D02*
X0155000Y0125315D01*
X0155000Y0126314D02*
X0131000Y0126314D01*
X0131000Y0127312D02*
X0155000Y0127312D01*
X0161000Y0127312D02*
X0167000Y0127312D01*
X0167000Y0126314D02*
X0161000Y0126314D01*
X0161000Y0125315D02*
X0167000Y0125315D01*
X0167000Y0124317D02*
X0161000Y0124317D01*
X0161000Y0123318D02*
X0167000Y0123318D01*
X0167000Y0122320D02*
X0161000Y0122320D01*
X0161000Y0121321D02*
X0167000Y0121321D01*
X0167000Y0120323D02*
X0161000Y0120323D01*
X0161000Y0119324D02*
X0167000Y0119324D01*
X0167000Y0118326D02*
X0161000Y0118326D01*
X0161000Y0117327D02*
X0167000Y0117327D01*
X0167000Y0116329D02*
X0161000Y0116329D01*
X0161000Y0115330D02*
X0167000Y0115330D01*
X0167000Y0114332D02*
X0161000Y0114332D01*
X0161000Y0113333D02*
X0167000Y0113333D01*
X0167000Y0112335D02*
X0161000Y0112335D01*
X0161000Y0111336D02*
X0167000Y0111336D01*
X0167000Y0110338D02*
X0161000Y0110338D01*
X0161000Y0109339D02*
X0167000Y0109339D01*
X0167000Y0108341D02*
X0161000Y0108341D01*
X0161000Y0107342D02*
X0167000Y0107342D01*
X0167000Y0106344D02*
X0161000Y0106344D01*
X0161000Y0105345D02*
X0167000Y0105345D01*
X0167000Y0104347D02*
X0161000Y0104347D01*
X0161000Y0103348D02*
X0167000Y0103348D01*
X0167000Y0102350D02*
X0161000Y0102350D01*
X0161000Y0101351D02*
X0167000Y0101351D01*
X0167000Y0100353D02*
X0161000Y0100353D01*
X0161000Y0099354D02*
X0167000Y0099354D01*
X0167000Y0098356D02*
X0161000Y0098356D01*
X0161000Y0097357D02*
X0167000Y0097357D01*
X0167000Y0096359D02*
X0161000Y0096359D01*
X0161000Y0095360D02*
X0167000Y0095360D01*
X0166240Y0094362D02*
X0161000Y0094362D01*
X0161000Y0093363D02*
X0165242Y0093363D01*
X0164243Y0092365D02*
X0161695Y0092365D01*
X0162050Y0091366D02*
X0163245Y0091366D01*
X0162246Y0090368D02*
X0161998Y0090368D01*
X0157002Y0090368D02*
X0148448Y0090368D01*
X0146552Y0090368D02*
X0145500Y0090368D01*
X0145500Y0091366D02*
X0156950Y0091366D01*
X0154529Y0092365D02*
X0145500Y0092365D01*
X0145500Y0093363D02*
X0154004Y0093363D01*
X0153950Y0094362D02*
X0145500Y0094362D01*
X0145500Y0095360D02*
X0154303Y0095360D01*
X0145500Y0072394D02*
X0182961Y0072394D01*
X0181097Y0071396D02*
X0145500Y0071396D01*
X0145500Y0070397D02*
X0180098Y0070397D01*
X0179100Y0069399D02*
X0145500Y0069399D01*
X0145500Y0068400D02*
X0178543Y0068400D01*
X0178129Y0067402D02*
X0145500Y0067402D01*
X0145500Y0066403D02*
X0177716Y0066403D01*
X0177433Y0065405D02*
X0145500Y0065405D01*
X0145500Y0064406D02*
X0177433Y0064406D01*
X0177433Y0063408D02*
X0145500Y0063408D01*
X0145500Y0062409D02*
X0177433Y0062409D01*
X0177679Y0061411D02*
X0145500Y0061411D01*
X0145500Y0060412D02*
X0178092Y0060412D01*
X0178506Y0059414D02*
X0145500Y0059414D01*
X0145500Y0058415D02*
X0179010Y0058415D01*
X0180009Y0057417D02*
X0145500Y0057417D01*
X0145500Y0056418D02*
X0181007Y0056418D01*
X0182745Y0055420D02*
X0145500Y0055420D01*
X0145565Y0039443D02*
X0199491Y0039443D01*
X0199491Y0038445D02*
X0145530Y0038445D01*
X0145053Y0037446D02*
X0199491Y0037446D01*
X0199491Y0036448D02*
X0145158Y0036448D01*
X0145550Y0035449D02*
X0199491Y0035449D01*
X0199490Y0034451D02*
X0145533Y0034451D01*
X0145059Y0033452D02*
X0199490Y0033452D01*
X0199490Y0032454D02*
X0145152Y0032454D01*
X0145550Y0031455D02*
X0199490Y0031455D01*
X0199490Y0030457D02*
X0145535Y0030457D01*
X0121795Y0057417D02*
X0118038Y0057417D01*
X0119036Y0058415D02*
X0122794Y0058415D01*
X0123792Y0059414D02*
X0120035Y0059414D01*
X0121033Y0060412D02*
X0124791Y0060412D01*
X0125789Y0061411D02*
X0122032Y0061411D01*
X0123031Y0062409D02*
X0126788Y0062409D01*
X0127786Y0063408D02*
X0124029Y0063408D01*
X0125028Y0064406D02*
X0128500Y0064406D01*
X0128500Y0065405D02*
X0127511Y0065405D01*
X0128306Y0066403D02*
X0128500Y0066403D01*
X0123274Y0071396D02*
X0101903Y0071396D01*
X0101517Y0071782D02*
X0098083Y0073205D01*
X0094366Y0073205D01*
X0090932Y0071782D01*
X0088304Y0069154D01*
X0086882Y0065721D01*
X0086882Y0062004D01*
X0088304Y0058570D01*
X0090932Y0055942D01*
X0094366Y0054520D01*
X0098083Y0054520D01*
X0101517Y0055942D01*
X0104145Y0058570D01*
X0105567Y0062004D01*
X0105567Y0065721D01*
X0104145Y0069154D01*
X0101517Y0071782D01*
X0100039Y0072394D02*
X0124273Y0072394D01*
X0124817Y0073393D02*
X0091014Y0073393D01*
X0092013Y0074391D02*
X0126110Y0074391D01*
X0127890Y0074391D02*
X0128500Y0074391D01*
X0128500Y0075390D02*
X0093011Y0075390D01*
X0094010Y0076388D02*
X0128500Y0076388D01*
X0128500Y0077387D02*
X0096493Y0077387D01*
X0096662Y0077556D02*
X0097050Y0078493D01*
X0097050Y0079133D01*
X0097493Y0078950D01*
X0098507Y0078950D01*
X0099444Y0079338D01*
X0100162Y0080056D01*
X0100550Y0080993D01*
X0100550Y0082007D01*
X0100162Y0082944D01*
X0099444Y0083662D01*
X0098507Y0084050D01*
X0097493Y0084050D01*
X0096556Y0083662D01*
X0095894Y0083000D01*
X0092379Y0083000D01*
X0091500Y0082121D01*
X0072379Y0063000D01*
X0068606Y0063000D01*
X0067944Y0063662D01*
X0067007Y0064050D01*
X0065993Y0064050D01*
X0065056Y0063662D01*
X0064338Y0062944D01*
X0063950Y0062007D01*
X0063950Y0060993D01*
X0064338Y0060056D01*
X0065056Y0059338D01*
X0065993Y0058950D01*
X0067007Y0058950D01*
X0067944Y0059338D01*
X0068606Y0060000D01*
X0073621Y0060000D01*
X0083000Y0069379D01*
X0083000Y0061606D01*
X0082338Y0060944D01*
X0081950Y0060007D01*
X0081950Y0058993D01*
X0082338Y0058056D01*
X0083056Y0057338D01*
X0083993Y0056950D01*
X0085007Y0056950D01*
X0085944Y0057338D01*
X0086662Y0058056D01*
X0087050Y0058993D01*
X0087050Y0060007D01*
X0086662Y0060944D01*
X0086000Y0061606D01*
X0086000Y0068379D01*
X0094071Y0076450D01*
X0095007Y0076450D01*
X0095944Y0076838D01*
X0096662Y0077556D01*
X0097005Y0078385D02*
X0128500Y0078385D01*
X0128500Y0079384D02*
X0099490Y0079384D01*
X0100297Y0080382D02*
X0128500Y0080382D01*
X0128500Y0081381D02*
X0100550Y0081381D01*
X0100396Y0082379D02*
X0128500Y0082379D01*
X0128500Y0083378D02*
X0099728Y0083378D01*
X0096272Y0083378D02*
X0092499Y0083378D01*
X0091758Y0082379D02*
X0068000Y0082379D01*
X0068000Y0081381D02*
X0090760Y0081381D01*
X0089761Y0080382D02*
X0068000Y0080382D01*
X0068000Y0079384D02*
X0088763Y0079384D01*
X0087764Y0078385D02*
X0068000Y0078385D01*
X0068000Y0077387D02*
X0086766Y0077387D01*
X0085767Y0076388D02*
X0068000Y0076388D01*
X0068000Y0075390D02*
X0084769Y0075390D01*
X0083770Y0074391D02*
X0068000Y0074391D01*
X0068000Y0073393D02*
X0082771Y0073393D01*
X0081773Y0072394D02*
X0068000Y0072394D01*
X0068726Y0071396D02*
X0080774Y0071396D01*
X0079776Y0070397D02*
X0069724Y0070397D01*
X0070723Y0069399D02*
X0078777Y0069399D01*
X0077779Y0068400D02*
X0073206Y0068400D01*
X0073887Y0067402D02*
X0076780Y0067402D01*
X0075782Y0066403D02*
X0074050Y0066403D01*
X0073806Y0065405D02*
X0074783Y0065405D01*
X0073785Y0064406D02*
X0073012Y0064406D01*
X0072786Y0063408D02*
X0068199Y0063408D01*
X0069988Y0064406D02*
X0063500Y0064406D01*
X0063500Y0063408D02*
X0064801Y0063408D01*
X0064117Y0062409D02*
X0063500Y0062409D01*
X0063500Y0061411D02*
X0063950Y0061411D01*
X0064190Y0060412D02*
X0063500Y0060412D01*
X0063500Y0059414D02*
X0064980Y0059414D01*
X0063706Y0058415D02*
X0082189Y0058415D01*
X0081950Y0059414D02*
X0068020Y0059414D01*
X0065703Y0056418D02*
X0090456Y0056418D01*
X0089458Y0057417D02*
X0086023Y0057417D01*
X0086811Y0058415D02*
X0088459Y0058415D01*
X0087955Y0059414D02*
X0087050Y0059414D01*
X0086882Y0060412D02*
X0087541Y0060412D01*
X0087128Y0061411D02*
X0086196Y0061411D01*
X0086000Y0062409D02*
X0086882Y0062409D01*
X0086882Y0063408D02*
X0086000Y0063408D01*
X0086000Y0064406D02*
X0086882Y0064406D01*
X0086882Y0065405D02*
X0086000Y0065405D01*
X0086000Y0066403D02*
X0087165Y0066403D01*
X0087578Y0067402D02*
X0086000Y0067402D01*
X0086022Y0068400D02*
X0087992Y0068400D01*
X0088549Y0069399D02*
X0087020Y0069399D01*
X0088019Y0070397D02*
X0089547Y0070397D01*
X0089017Y0071396D02*
X0090546Y0071396D01*
X0090016Y0072394D02*
X0092410Y0072394D01*
X0083000Y0068400D02*
X0082022Y0068400D01*
X0083000Y0067402D02*
X0081023Y0067402D01*
X0080025Y0066403D02*
X0083000Y0066403D01*
X0083000Y0065405D02*
X0079026Y0065405D01*
X0078028Y0064406D02*
X0083000Y0064406D01*
X0083000Y0063408D02*
X0077029Y0063408D01*
X0076030Y0062409D02*
X0083000Y0062409D01*
X0082804Y0061411D02*
X0075032Y0061411D01*
X0074033Y0060412D02*
X0082118Y0060412D01*
X0082977Y0057417D02*
X0064705Y0057417D01*
X0066702Y0055420D02*
X0092193Y0055420D01*
X0100255Y0055420D02*
X0107298Y0055420D01*
X0108297Y0056418D02*
X0101993Y0056418D01*
X0102991Y0057417D02*
X0109295Y0057417D01*
X0110294Y0058415D02*
X0103990Y0058415D01*
X0104494Y0059414D02*
X0111292Y0059414D01*
X0112291Y0060412D02*
X0104908Y0060412D01*
X0105321Y0061411D02*
X0113289Y0061411D01*
X0114288Y0062409D02*
X0105567Y0062409D01*
X0105567Y0063408D02*
X0115286Y0063408D01*
X0116285Y0064406D02*
X0105567Y0064406D01*
X0105567Y0065405D02*
X0117283Y0065405D01*
X0118282Y0066403D02*
X0105284Y0066403D01*
X0104871Y0067402D02*
X0119280Y0067402D01*
X0120279Y0068400D02*
X0104457Y0068400D01*
X0103900Y0069399D02*
X0121277Y0069399D01*
X0122276Y0070397D02*
X0102902Y0070397D01*
X0093498Y0084376D02*
X0128500Y0084376D01*
X0128500Y0085375D02*
X0094496Y0085375D01*
X0095495Y0086373D02*
X0126020Y0086373D01*
X0125207Y0087372D02*
X0096493Y0087372D01*
X0097492Y0088370D02*
X0124950Y0088370D01*
X0125100Y0089369D02*
X0098490Y0089369D01*
X0099489Y0090368D02*
X0124026Y0090368D01*
X0128528Y0101351D02*
X0107270Y0101351D01*
X0104145Y0103846D02*
X0105567Y0107279D01*
X0105567Y0110996D01*
X0104145Y0114430D01*
X0101517Y0117058D01*
X0098083Y0118480D01*
X0094366Y0118480D01*
X0090932Y0117058D01*
X0088304Y0114430D01*
X0088000Y0113695D01*
X0088000Y0115879D01*
X0101071Y0128950D01*
X0102007Y0128950D01*
X0102944Y0129338D01*
X0103662Y0130056D01*
X0104050Y0130993D01*
X0104050Y0132007D01*
X0103662Y0132944D01*
X0102944Y0133662D01*
X0102007Y0134050D01*
X0100993Y0134050D01*
X0100056Y0133662D01*
X0099338Y0132944D01*
X0098950Y0132007D01*
X0098950Y0131071D01*
X0085000Y0117121D01*
X0085000Y0090606D01*
X0084338Y0089944D01*
X0083950Y0089007D01*
X0083950Y0087993D01*
X0084338Y0087056D01*
X0085056Y0086338D01*
X0085993Y0085950D01*
X0087007Y0085950D01*
X0087944Y0086338D01*
X0088662Y0087056D01*
X0089050Y0087993D01*
X0089050Y0089007D01*
X0088662Y0089944D01*
X0088000Y0090606D01*
X0088000Y0104580D01*
X0088304Y0103846D01*
X0090932Y0101218D01*
X0094366Y0099795D01*
X0098083Y0099795D01*
X0101517Y0101218D01*
X0104145Y0103846D01*
X0104352Y0104347D02*
X0125532Y0104347D01*
X0124533Y0105345D02*
X0104766Y0105345D01*
X0105179Y0106344D02*
X0114535Y0106344D01*
X0113536Y0107342D02*
X0105567Y0107342D01*
X0105567Y0108341D02*
X0112538Y0108341D01*
X0111539Y0109339D02*
X0105567Y0109339D01*
X0105567Y0110338D02*
X0110541Y0110338D01*
X0109542Y0111336D02*
X0105426Y0111336D01*
X0105012Y0112335D02*
X0108544Y0112335D01*
X0107545Y0113333D02*
X0104599Y0113333D01*
X0104185Y0114332D02*
X0106547Y0114332D01*
X0105548Y0115330D02*
X0103244Y0115330D01*
X0102246Y0116329D02*
X0105500Y0116329D01*
X0105500Y0117327D02*
X0100866Y0117327D01*
X0098456Y0118326D02*
X0105500Y0118326D01*
X0105500Y0119324D02*
X0091446Y0119324D01*
X0092444Y0120323D02*
X0105500Y0120323D01*
X0105500Y0121321D02*
X0093443Y0121321D01*
X0094441Y0122320D02*
X0105500Y0122320D01*
X0105500Y0123318D02*
X0095440Y0123318D01*
X0096438Y0124317D02*
X0105500Y0124317D01*
X0105500Y0125315D02*
X0097437Y0125315D01*
X0098435Y0126314D02*
X0105500Y0126314D01*
X0105500Y0127312D02*
X0099434Y0127312D01*
X0100432Y0128311D02*
X0105500Y0128311D01*
X0105500Y0129309D02*
X0102875Y0129309D01*
X0103766Y0130308D02*
X0105500Y0130308D01*
X0105500Y0131306D02*
X0104050Y0131306D01*
X0103927Y0132305D02*
X0105500Y0132305D01*
X0105500Y0133303D02*
X0103303Y0133303D01*
X0105500Y0134302D02*
X0034500Y0134302D01*
X0035318Y0133303D02*
X0099697Y0133303D01*
X0099073Y0132305D02*
X0036316Y0132305D01*
X0037315Y0131306D02*
X0098950Y0131306D01*
X0098187Y0130308D02*
X0038313Y0130308D01*
X0039312Y0129309D02*
X0097188Y0129309D01*
X0096190Y0128311D02*
X0040310Y0128311D01*
X0041309Y0127312D02*
X0095191Y0127312D01*
X0094193Y0126314D02*
X0042307Y0126314D01*
X0043306Y0125315D02*
X0093194Y0125315D01*
X0092196Y0124317D02*
X0044304Y0124317D01*
X0045303Y0123318D02*
X0091197Y0123318D01*
X0090199Y0122320D02*
X0046301Y0122320D01*
X0047300Y0121321D02*
X0089200Y0121321D01*
X0088202Y0120323D02*
X0048298Y0120323D01*
X0049297Y0119324D02*
X0087203Y0119324D01*
X0086205Y0118326D02*
X0050295Y0118326D01*
X0051294Y0117327D02*
X0085206Y0117327D01*
X0085000Y0116329D02*
X0052293Y0116329D01*
X0053291Y0115330D02*
X0085000Y0115330D01*
X0085000Y0114332D02*
X0054290Y0114332D01*
X0055288Y0113333D02*
X0085000Y0113333D01*
X0085000Y0112335D02*
X0056287Y0112335D01*
X0057285Y0111336D02*
X0085000Y0111336D01*
X0085000Y0110338D02*
X0058284Y0110338D01*
X0059282Y0109339D02*
X0085000Y0109339D01*
X0085000Y0108341D02*
X0060281Y0108341D01*
X0061279Y0107342D02*
X0085000Y0107342D01*
X0085000Y0106344D02*
X0062278Y0106344D01*
X0063276Y0105345D02*
X0085000Y0105345D01*
X0085000Y0104347D02*
X0064275Y0104347D01*
X0065273Y0103348D02*
X0085000Y0103348D01*
X0085000Y0102350D02*
X0066272Y0102350D01*
X0067270Y0101351D02*
X0085000Y0101351D01*
X0085000Y0100353D02*
X0068269Y0100353D01*
X0069267Y0099354D02*
X0085000Y0099354D01*
X0085000Y0098356D02*
X0070266Y0098356D01*
X0071264Y0097357D02*
X0085000Y0097357D01*
X0085000Y0096359D02*
X0072263Y0096359D01*
X0073261Y0095360D02*
X0085000Y0095360D01*
X0085000Y0094362D02*
X0074260Y0094362D01*
X0075258Y0093363D02*
X0085000Y0093363D01*
X0085000Y0092365D02*
X0076257Y0092365D01*
X0077255Y0091366D02*
X0085000Y0091366D01*
X0084761Y0090368D02*
X0078254Y0090368D01*
X0079252Y0089369D02*
X0084100Y0089369D01*
X0083950Y0088370D02*
X0080251Y0088370D01*
X0081249Y0087372D02*
X0084207Y0087372D01*
X0085020Y0086373D02*
X0082248Y0086373D01*
X0081001Y0083378D02*
X0068000Y0083378D01*
X0068000Y0084376D02*
X0080002Y0084376D01*
X0079004Y0085375D02*
X0068000Y0085375D01*
X0068000Y0086373D02*
X0078005Y0086373D01*
X0077007Y0087372D02*
X0068000Y0087372D01*
X0068000Y0088370D02*
X0076008Y0088370D01*
X0075010Y0089369D02*
X0068000Y0089369D01*
X0068000Y0090368D02*
X0074011Y0090368D01*
X0073013Y0091366D02*
X0068000Y0091366D01*
X0067757Y0092365D02*
X0072014Y0092365D01*
X0071016Y0093363D02*
X0066758Y0093363D01*
X0065760Y0094362D02*
X0070017Y0094362D01*
X0069019Y0095360D02*
X0064761Y0095360D01*
X0063763Y0096359D02*
X0068020Y0096359D01*
X0067022Y0097357D02*
X0062764Y0097357D01*
X0061766Y0098356D02*
X0066023Y0098356D01*
X0065025Y0099354D02*
X0060767Y0099354D01*
X0059769Y0100353D02*
X0064026Y0100353D01*
X0063028Y0101351D02*
X0058770Y0101351D01*
X0057772Y0102350D02*
X0062029Y0102350D01*
X0061031Y0103348D02*
X0056773Y0103348D01*
X0055775Y0104347D02*
X0060032Y0104347D01*
X0059033Y0105345D02*
X0054776Y0105345D01*
X0053778Y0106344D02*
X0058035Y0106344D01*
X0057036Y0107342D02*
X0052779Y0107342D01*
X0051781Y0108341D02*
X0056038Y0108341D01*
X0055039Y0109339D02*
X0050782Y0109339D01*
X0049784Y0110338D02*
X0054041Y0110338D01*
X0053042Y0111336D02*
X0048785Y0111336D01*
X0047787Y0112335D02*
X0052044Y0112335D01*
X0051045Y0113333D02*
X0046788Y0113333D01*
X0045790Y0114332D02*
X0050047Y0114332D01*
X0049048Y0115330D02*
X0044791Y0115330D01*
X0043793Y0116329D02*
X0048050Y0116329D01*
X0047051Y0117327D02*
X0042794Y0117327D01*
X0041795Y0118326D02*
X0046053Y0118326D01*
X0045054Y0119324D02*
X0040797Y0119324D01*
X0039798Y0120323D02*
X0044056Y0120323D01*
X0043057Y0121321D02*
X0038800Y0121321D01*
X0037801Y0122320D02*
X0042059Y0122320D01*
X0041060Y0123318D02*
X0036803Y0123318D01*
X0035804Y0124317D02*
X0040062Y0124317D01*
X0039063Y0125315D02*
X0034806Y0125315D01*
X0033807Y0126314D02*
X0038065Y0126314D01*
X0037066Y0127312D02*
X0032809Y0127312D01*
X0031810Y0128311D02*
X0036068Y0128311D01*
X0035069Y0129309D02*
X0030812Y0129309D01*
X0029813Y0130308D02*
X0034071Y0130308D01*
X0033072Y0131306D02*
X0028815Y0131306D01*
X0027816Y0132305D02*
X0032074Y0132305D01*
X0031500Y0133303D02*
X0026818Y0133303D01*
X0025819Y0134302D02*
X0031500Y0134302D01*
X0031500Y0135301D02*
X0024821Y0135301D01*
X0023822Y0136299D02*
X0031500Y0136299D01*
X0031500Y0137298D02*
X0022824Y0137298D01*
X0021825Y0138296D02*
X0031500Y0138296D01*
X0031500Y0139295D02*
X0020827Y0139295D01*
X0019828Y0140293D02*
X0031500Y0140293D01*
X0031500Y0141292D02*
X0018830Y0141292D01*
X0018000Y0142290D02*
X0031500Y0142290D01*
X0031500Y0143289D02*
X0018000Y0143289D01*
X0018000Y0144287D02*
X0031500Y0144287D01*
X0031500Y0145286D02*
X0018000Y0145286D01*
X0018000Y0146284D02*
X0031500Y0146284D01*
X0041138Y0163259D02*
X0003500Y0163259D01*
X0003500Y0164257D02*
X0042136Y0164257D01*
X0043135Y0165256D02*
X0003500Y0165256D01*
X0003500Y0166254D02*
X0044133Y0166254D01*
X0045132Y0167253D02*
X0003500Y0167253D01*
X0003500Y0168251D02*
X0046130Y0168251D01*
X0047129Y0169250D02*
X0003500Y0169250D01*
X0003500Y0170248D02*
X0046823Y0170248D01*
X0046700Y0171247D02*
X0003500Y0171247D01*
X0003500Y0172245D02*
X0046700Y0172245D01*
X0047027Y0173244D02*
X0003500Y0173244D01*
X0003500Y0174242D02*
X0047454Y0174242D01*
X0048453Y0175241D02*
X0003500Y0175241D01*
X0003500Y0186225D02*
X0051363Y0186225D01*
X0053637Y0186225D02*
X0073950Y0186225D01*
X0074039Y0187223D02*
X0053718Y0187223D01*
X0055010Y0188222D02*
X0074615Y0188222D01*
X0074268Y0185226D02*
X0055562Y0185226D01*
X0056561Y0184228D02*
X0075323Y0184228D01*
X0077650Y0183229D02*
X0056979Y0183229D01*
X0056757Y0179235D02*
X0076644Y0179235D01*
X0077642Y0178237D02*
X0056025Y0178237D01*
X0054754Y0177238D02*
X0078641Y0177238D01*
X0080886Y0179235D02*
X0081644Y0179235D01*
X0081885Y0178237D02*
X0082642Y0178237D01*
X0082883Y0177238D02*
X0083641Y0177238D01*
X0083882Y0176239D02*
X0084639Y0176239D01*
X0084880Y0175241D02*
X0085638Y0175241D01*
X0085879Y0174242D02*
X0086636Y0174242D01*
X0086877Y0173244D02*
X0087635Y0173244D01*
X0087876Y0172245D02*
X0088633Y0172245D01*
X0088874Y0171247D02*
X0089632Y0171247D01*
X0089873Y0170248D02*
X0090630Y0170248D01*
X0090871Y0169250D02*
X0091629Y0169250D01*
X0091870Y0168251D02*
X0092627Y0168251D01*
X0092868Y0167253D02*
X0093626Y0167253D01*
X0093867Y0166254D02*
X0094624Y0166254D01*
X0094865Y0165256D02*
X0095623Y0165256D01*
X0095864Y0164257D02*
X0096621Y0164257D01*
X0096862Y0163259D02*
X0097620Y0163259D01*
X0097861Y0162260D02*
X0098618Y0162260D01*
X0098859Y0161262D02*
X0099617Y0161262D01*
X0099858Y0160263D02*
X0100615Y0160263D01*
X0100857Y0159265D02*
X0101614Y0159265D01*
X0101855Y0158266D02*
X0102612Y0158266D01*
X0102854Y0157268D02*
X0103611Y0157268D01*
X0103852Y0156269D02*
X0104609Y0156269D01*
X0104851Y0155271D02*
X0105608Y0155271D01*
X0105849Y0154272D02*
X0106606Y0154272D01*
X0106848Y0153274D02*
X0107605Y0153274D01*
X0107846Y0152275D02*
X0108000Y0152275D01*
X0105500Y0150278D02*
X0085899Y0150278D01*
X0086300Y0151277D02*
X0104602Y0151277D01*
X0103603Y0152275D02*
X0086300Y0152275D01*
X0086251Y0153274D02*
X0102605Y0153274D01*
X0101606Y0154272D02*
X0085837Y0154272D01*
X0085217Y0155271D02*
X0100608Y0155271D01*
X0099609Y0156269D02*
X0084219Y0156269D01*
X0085368Y0149280D02*
X0105500Y0149280D01*
X0109851Y0155271D02*
X0110500Y0155271D01*
X0110500Y0156269D02*
X0108852Y0156269D01*
X0107854Y0157268D02*
X0110500Y0157268D01*
X0110500Y0158266D02*
X0106855Y0158266D01*
X0105857Y0159265D02*
X0110500Y0159265D01*
X0110115Y0160263D02*
X0104858Y0160263D01*
X0103859Y0161262D02*
X0109117Y0161262D01*
X0108118Y0162260D02*
X0102861Y0162260D01*
X0101862Y0163259D02*
X0107120Y0163259D01*
X0106121Y0164257D02*
X0100864Y0164257D01*
X0099865Y0165256D02*
X0105123Y0165256D01*
X0104124Y0166254D02*
X0098867Y0166254D01*
X0097868Y0167253D02*
X0103126Y0167253D01*
X0102127Y0168251D02*
X0096870Y0168251D01*
X0095871Y0169250D02*
X0101129Y0169250D01*
X0100130Y0170248D02*
X0094873Y0170248D01*
X0093874Y0171247D02*
X0099132Y0171247D01*
X0098133Y0172245D02*
X0092876Y0172245D01*
X0091877Y0173244D02*
X0097135Y0173244D01*
X0096136Y0174242D02*
X0090879Y0174242D01*
X0089880Y0175241D02*
X0095138Y0175241D01*
X0094139Y0176239D02*
X0088882Y0176239D01*
X0087883Y0177238D02*
X0093141Y0177238D01*
X0092142Y0178237D02*
X0086885Y0178237D01*
X0085886Y0179235D02*
X0091144Y0179235D01*
X0090145Y0180234D02*
X0084888Y0180234D01*
X0083889Y0181232D02*
X0089147Y0181232D01*
X0088148Y0182231D02*
X0082891Y0182231D01*
X0081892Y0183229D02*
X0087150Y0183229D01*
X0086151Y0184228D02*
X0080894Y0184228D01*
X0079895Y0185226D02*
X0085153Y0185226D01*
X0084154Y0186225D02*
X0079050Y0186225D01*
X0078961Y0187223D02*
X0083156Y0187223D01*
X0082157Y0188222D02*
X0078385Y0188222D01*
X0080160Y0190219D02*
X0056165Y0190219D01*
X0056300Y0191217D02*
X0079162Y0191217D01*
X0078163Y0192216D02*
X0056300Y0192216D01*
X0055985Y0193214D02*
X0077164Y0193214D01*
X0076166Y0194213D02*
X0055572Y0194213D01*
X0054577Y0195211D02*
X0075167Y0195211D01*
X0078000Y0197208D02*
X0088500Y0197208D01*
X0088500Y0196210D02*
X0078412Y0196210D01*
X0079410Y0195211D02*
X0088500Y0195211D01*
X0088500Y0194213D02*
X0080409Y0194213D01*
X0081407Y0193214D02*
X0088500Y0193214D01*
X0088500Y0192216D02*
X0082406Y0192216D01*
X0083404Y0191217D02*
X0088500Y0191217D01*
X0088500Y0190219D02*
X0084403Y0190219D01*
X0085401Y0189220D02*
X0088500Y0189220D01*
X0088500Y0188222D02*
X0086400Y0188222D01*
X0087398Y0187223D02*
X0088500Y0187223D01*
X0088500Y0186225D02*
X0088397Y0186225D01*
X0081159Y0189220D02*
X0055751Y0189220D01*
X0056656Y0212186D02*
X0120693Y0212186D01*
X0119694Y0213184D02*
X0056420Y0213184D01*
X0055969Y0214183D02*
X0118696Y0214183D01*
X0120941Y0216180D02*
X0122699Y0216180D01*
X0121940Y0215181D02*
X0123697Y0215181D01*
X0122938Y0214183D02*
X0124696Y0214183D01*
X0123937Y0213184D02*
X0125694Y0213184D01*
X0124935Y0212186D02*
X0126693Y0212186D01*
X0125934Y0211187D02*
X0127691Y0211187D01*
X0128000Y0210189D02*
X0126932Y0210189D01*
X0127931Y0209190D02*
X0128000Y0209190D01*
X0128000Y0208192D02*
X0128000Y0208192D01*
X0128000Y0207193D02*
X0128000Y0207193D01*
X0128000Y0206195D02*
X0128000Y0206195D01*
X0128000Y0205196D02*
X0128000Y0205196D01*
X0128000Y0204198D02*
X0128000Y0204198D01*
X0128000Y0203199D02*
X0128000Y0203199D01*
X0128000Y0202201D02*
X0128000Y0202201D01*
X0128000Y0201202D02*
X0128000Y0201202D01*
X0128000Y0200204D02*
X0128000Y0200204D01*
X0128000Y0199205D02*
X0128000Y0199205D01*
X0128000Y0198207D02*
X0128000Y0198207D01*
X0128000Y0197208D02*
X0128000Y0197208D01*
X0128000Y0196210D02*
X0128000Y0196210D01*
X0128000Y0195211D02*
X0128000Y0195211D01*
X0128000Y0194213D02*
X0128000Y0194213D01*
X0128000Y0193214D02*
X0128000Y0193214D01*
X0128000Y0192216D02*
X0128000Y0192216D01*
X0128000Y0191217D02*
X0128000Y0191217D01*
X0128000Y0190219D02*
X0128000Y0190219D01*
X0128000Y0189220D02*
X0128000Y0189220D01*
X0128000Y0188222D02*
X0128000Y0188222D01*
X0128000Y0187223D02*
X0128000Y0187223D01*
X0128000Y0186225D02*
X0128000Y0186225D01*
X0128000Y0185226D02*
X0128000Y0185226D01*
X0128000Y0184228D02*
X0128000Y0184228D01*
X0128000Y0183229D02*
X0128000Y0183229D01*
X0128000Y0182231D02*
X0128000Y0182231D01*
X0128000Y0181232D02*
X0128000Y0181232D01*
X0128000Y0180234D02*
X0128000Y0180234D01*
X0128000Y0179235D02*
X0128000Y0179235D01*
X0128000Y0178237D02*
X0128000Y0178237D01*
X0128000Y0177238D02*
X0128000Y0177238D01*
X0128000Y0176239D02*
X0128000Y0176239D01*
X0128000Y0175241D02*
X0128000Y0175241D01*
X0128000Y0174242D02*
X0128000Y0174242D01*
X0128000Y0173244D02*
X0128000Y0173244D01*
X0128000Y0172245D02*
X0128000Y0172245D01*
X0128000Y0171247D02*
X0128000Y0171247D01*
X0128000Y0170248D02*
X0128000Y0170248D01*
X0128000Y0169250D02*
X0128000Y0169250D01*
X0128000Y0168251D02*
X0128000Y0168251D01*
X0128000Y0167253D02*
X0128000Y0167253D01*
X0128000Y0166254D02*
X0128000Y0166254D01*
X0128000Y0165256D02*
X0128000Y0165256D01*
X0128000Y0164257D02*
X0128000Y0164257D01*
X0128000Y0163259D02*
X0128000Y0163259D01*
X0128000Y0162260D02*
X0128000Y0162260D01*
X0128000Y0161262D02*
X0128000Y0161262D01*
X0128000Y0160263D02*
X0128000Y0160263D01*
X0128000Y0159265D02*
X0128000Y0159265D01*
X0128000Y0158266D02*
X0128000Y0158266D01*
X0128000Y0157268D02*
X0128000Y0157268D01*
X0128000Y0156269D02*
X0128000Y0156269D01*
X0128000Y0155271D02*
X0128000Y0155271D01*
X0128000Y0154272D02*
X0128000Y0154272D01*
X0128000Y0153274D02*
X0128000Y0153274D01*
X0128000Y0152275D02*
X0128000Y0152275D01*
X0128000Y0151277D02*
X0128000Y0151277D01*
X0128000Y0150278D02*
X0128000Y0150278D01*
X0128000Y0149280D02*
X0128000Y0149280D01*
X0128000Y0148281D02*
X0128000Y0148281D01*
X0128000Y0147283D02*
X0128000Y0147283D01*
X0128000Y0146284D02*
X0128000Y0146284D01*
X0128000Y0145286D02*
X0128000Y0145286D01*
X0128000Y0144287D02*
X0128000Y0144287D01*
X0128000Y0143289D02*
X0128000Y0143289D01*
X0128000Y0142290D02*
X0128000Y0142290D01*
X0128000Y0141292D02*
X0128000Y0141292D01*
X0128000Y0140293D02*
X0128000Y0140293D01*
X0128000Y0139295D02*
X0128000Y0139295D01*
X0128000Y0138296D02*
X0128000Y0138296D01*
X0128000Y0137298D02*
X0128000Y0137298D01*
X0128000Y0136299D02*
X0128000Y0136299D01*
X0128000Y0135301D02*
X0128000Y0135301D01*
X0128000Y0134302D02*
X0128000Y0134302D01*
X0128000Y0133303D02*
X0128000Y0133303D01*
X0128000Y0132305D02*
X0128000Y0132305D01*
X0128000Y0131306D02*
X0128000Y0131306D01*
X0128000Y0130308D02*
X0128000Y0130308D01*
X0128000Y0129309D02*
X0128000Y0129309D01*
X0128000Y0128311D02*
X0128000Y0128311D01*
X0125000Y0128311D02*
X0125000Y0128311D01*
X0125000Y0129309D02*
X0125000Y0129309D01*
X0125000Y0130308D02*
X0125000Y0130308D01*
X0125000Y0131306D02*
X0125000Y0131306D01*
X0125000Y0132305D02*
X0125000Y0132305D01*
X0125000Y0133303D02*
X0125000Y0133303D01*
X0125000Y0134302D02*
X0125000Y0134302D01*
X0125000Y0135301D02*
X0125000Y0135301D01*
X0125000Y0136299D02*
X0125000Y0136299D01*
X0125000Y0137298D02*
X0125000Y0137298D01*
X0125000Y0138296D02*
X0125000Y0138296D01*
X0125000Y0139295D02*
X0125000Y0139295D01*
X0125000Y0140293D02*
X0125000Y0140293D01*
X0125000Y0141292D02*
X0125000Y0141292D01*
X0125000Y0142290D02*
X0125000Y0142290D01*
X0125000Y0143289D02*
X0125000Y0143289D01*
X0125000Y0144287D02*
X0125000Y0144287D01*
X0125000Y0145286D02*
X0125000Y0145286D01*
X0125000Y0146284D02*
X0125000Y0146284D01*
X0125000Y0147283D02*
X0125000Y0147283D01*
X0125000Y0148281D02*
X0125000Y0148281D01*
X0125000Y0149280D02*
X0125000Y0149280D01*
X0125000Y0150278D02*
X0125000Y0150278D01*
X0125000Y0151277D02*
X0125000Y0151277D01*
X0125000Y0152275D02*
X0125000Y0152275D01*
X0125000Y0153274D02*
X0125000Y0153274D01*
X0125000Y0154272D02*
X0125000Y0154272D01*
X0125000Y0155271D02*
X0125000Y0155271D01*
X0125000Y0156269D02*
X0125000Y0156269D01*
X0125000Y0157268D02*
X0125000Y0157268D01*
X0125000Y0158266D02*
X0125000Y0158266D01*
X0125000Y0159265D02*
X0125000Y0159265D01*
X0125000Y0160263D02*
X0125000Y0160263D01*
X0125000Y0161262D02*
X0125000Y0161262D01*
X0125000Y0162260D02*
X0125000Y0162260D01*
X0125000Y0163259D02*
X0125000Y0163259D01*
X0125000Y0164257D02*
X0125000Y0164257D01*
X0125000Y0165256D02*
X0125000Y0165256D01*
X0125000Y0166254D02*
X0125000Y0166254D01*
X0125000Y0167253D02*
X0125000Y0167253D01*
X0125000Y0168251D02*
X0125000Y0168251D01*
X0125000Y0169250D02*
X0125000Y0169250D01*
X0125000Y0170248D02*
X0125000Y0170248D01*
X0125000Y0171247D02*
X0125000Y0171247D01*
X0125000Y0172245D02*
X0125000Y0172245D01*
X0125000Y0173244D02*
X0125000Y0173244D01*
X0125000Y0174242D02*
X0125000Y0174242D01*
X0125000Y0175241D02*
X0125000Y0175241D01*
X0125000Y0176239D02*
X0125000Y0176239D01*
X0125000Y0177238D02*
X0125000Y0177238D01*
X0125000Y0178237D02*
X0125000Y0178237D01*
X0125000Y0179235D02*
X0125000Y0179235D01*
X0125000Y0180234D02*
X0125000Y0180234D01*
X0125000Y0181232D02*
X0125000Y0181232D01*
X0125000Y0182231D02*
X0125000Y0182231D01*
X0125000Y0183229D02*
X0125000Y0183229D01*
X0125000Y0184228D02*
X0125000Y0184228D01*
X0125000Y0185226D02*
X0125000Y0185226D01*
X0125000Y0186225D02*
X0125000Y0186225D01*
X0125000Y0187223D02*
X0125000Y0187223D01*
X0125000Y0188222D02*
X0125000Y0188222D01*
X0125000Y0189220D02*
X0125000Y0189220D01*
X0125000Y0190219D02*
X0125000Y0190219D01*
X0125000Y0191217D02*
X0125000Y0191217D01*
X0125000Y0192216D02*
X0125000Y0192216D01*
X0125000Y0193214D02*
X0125000Y0193214D01*
X0125000Y0194213D02*
X0125000Y0194213D01*
X0125000Y0195211D02*
X0124910Y0195211D01*
X0125000Y0196210D02*
X0123912Y0196210D01*
X0122913Y0197208D02*
X0125000Y0197208D01*
X0125000Y0198207D02*
X0121915Y0198207D01*
X0120916Y0199205D02*
X0125000Y0199205D01*
X0125000Y0200204D02*
X0119918Y0200204D01*
X0119050Y0201202D02*
X0125000Y0201202D01*
X0125000Y0202201D02*
X0118970Y0202201D01*
X0118407Y0203199D02*
X0125000Y0203199D01*
X0118670Y0197208D02*
X0105413Y0197208D01*
X0106412Y0196210D02*
X0119669Y0196210D01*
X0120667Y0195211D02*
X0107410Y0195211D01*
X0108409Y0194213D02*
X0121666Y0194213D01*
X0122000Y0193214D02*
X0109407Y0193214D01*
X0110406Y0192216D02*
X0122000Y0192216D01*
X0122000Y0191217D02*
X0111404Y0191217D01*
X0112403Y0190219D02*
X0122000Y0190219D01*
X0122000Y0189220D02*
X0113401Y0189220D01*
X0114400Y0188222D02*
X0122000Y0188222D01*
X0122000Y0187223D02*
X0115398Y0187223D01*
X0116397Y0186225D02*
X0122000Y0186225D01*
X0122000Y0185226D02*
X0117395Y0185226D01*
X0118394Y0184228D02*
X0122000Y0184228D01*
X0122000Y0183229D02*
X0119392Y0183229D01*
X0120391Y0182231D02*
X0122000Y0182231D01*
X0122000Y0181232D02*
X0121389Y0181232D01*
X0121500Y0180234D02*
X0122000Y0180234D01*
X0122000Y0179235D02*
X0121500Y0179235D01*
X0121500Y0178237D02*
X0122000Y0178237D01*
X0122000Y0177238D02*
X0121500Y0177238D01*
X0121500Y0176239D02*
X0122000Y0176239D01*
X0122000Y0175241D02*
X0121500Y0175241D01*
X0121500Y0174242D02*
X0122000Y0174242D01*
X0122000Y0173244D02*
X0121500Y0173244D01*
X0121500Y0172245D02*
X0122000Y0172245D01*
X0122000Y0171247D02*
X0121500Y0171247D01*
X0121500Y0170248D02*
X0122000Y0170248D01*
X0122000Y0169250D02*
X0121500Y0169250D01*
X0121500Y0168251D02*
X0122000Y0168251D01*
X0122000Y0167253D02*
X0121500Y0167253D01*
X0121500Y0166254D02*
X0122000Y0166254D01*
X0122000Y0165256D02*
X0121500Y0165256D01*
X0121500Y0164257D02*
X0122000Y0164257D01*
X0122000Y0163259D02*
X0121500Y0163259D01*
X0121500Y0162260D02*
X0122000Y0162260D01*
X0122000Y0161262D02*
X0121500Y0161262D01*
X0121500Y0160263D02*
X0122000Y0160263D01*
X0122000Y0159265D02*
X0121500Y0159265D01*
X0121500Y0158266D02*
X0122000Y0158266D01*
X0122000Y0157268D02*
X0121500Y0157268D01*
X0121500Y0156269D02*
X0122000Y0156269D01*
X0122000Y0155271D02*
X0121500Y0155271D01*
X0121500Y0154272D02*
X0122000Y0154272D01*
X0122000Y0153274D02*
X0121500Y0153274D01*
X0121500Y0152275D02*
X0122000Y0152275D01*
X0122000Y0151277D02*
X0121500Y0151277D01*
X0121500Y0150278D02*
X0122000Y0150278D01*
X0122000Y0149280D02*
X0121500Y0149280D01*
X0121500Y0148281D02*
X0122000Y0148281D01*
X0122000Y0147283D02*
X0121500Y0147283D01*
X0121500Y0146284D02*
X0122000Y0146284D01*
X0122000Y0145286D02*
X0121500Y0145286D01*
X0121500Y0144287D02*
X0122000Y0144287D01*
X0122000Y0143289D02*
X0121500Y0143289D01*
X0121500Y0142290D02*
X0122000Y0142290D01*
X0122000Y0141292D02*
X0121500Y0141292D01*
X0121500Y0140293D02*
X0122000Y0140293D01*
X0122000Y0139295D02*
X0121500Y0139295D01*
X0121500Y0138296D02*
X0122000Y0138296D01*
X0122000Y0137298D02*
X0121500Y0137298D01*
X0121500Y0136299D02*
X0122000Y0136299D01*
X0122000Y0135301D02*
X0121500Y0135301D01*
X0121500Y0134302D02*
X0122000Y0134302D01*
X0122000Y0133303D02*
X0121500Y0133303D01*
X0121500Y0132305D02*
X0122000Y0132305D01*
X0122000Y0131306D02*
X0121500Y0131306D01*
X0121500Y0130308D02*
X0122000Y0130308D01*
X0122000Y0129309D02*
X0121500Y0129309D01*
X0121500Y0128311D02*
X0122000Y0128311D01*
X0122000Y0127312D02*
X0121500Y0127312D01*
X0121500Y0126314D02*
X0122000Y0126314D01*
X0122000Y0125315D02*
X0121500Y0125315D01*
X0121500Y0124317D02*
X0122000Y0124317D01*
X0126531Y0103348D02*
X0103647Y0103348D01*
X0102649Y0102350D02*
X0127529Y0102350D01*
X0102730Y0101351D02*
X0101650Y0101351D01*
X0101731Y0100353D02*
X0099428Y0100353D01*
X0100733Y0099354D02*
X0088000Y0099354D01*
X0088000Y0098356D02*
X0100000Y0098356D01*
X0100000Y0097357D02*
X0088000Y0097357D01*
X0088000Y0096359D02*
X0099303Y0096359D01*
X0098950Y0095360D02*
X0088000Y0095360D01*
X0088000Y0094362D02*
X0099004Y0094362D01*
X0098242Y0093363D02*
X0088000Y0093363D01*
X0088000Y0092365D02*
X0097243Y0092365D01*
X0096245Y0091366D02*
X0088000Y0091366D01*
X0088239Y0090368D02*
X0095246Y0090368D01*
X0094248Y0089369D02*
X0088900Y0089369D01*
X0089050Y0088370D02*
X0093249Y0088370D01*
X0092251Y0087372D02*
X0088793Y0087372D01*
X0087980Y0086373D02*
X0091252Y0086373D01*
X0093021Y0100353D02*
X0088000Y0100353D01*
X0088000Y0101351D02*
X0090799Y0101351D01*
X0089800Y0102350D02*
X0088000Y0102350D01*
X0088000Y0103348D02*
X0088802Y0103348D01*
X0088097Y0104347D02*
X0088000Y0104347D01*
X0088000Y0114332D02*
X0088264Y0114332D01*
X0088000Y0115330D02*
X0089205Y0115330D01*
X0088450Y0116329D02*
X0090203Y0116329D01*
X0089449Y0117327D02*
X0091583Y0117327D01*
X0090447Y0118326D02*
X0093993Y0118326D01*
X0064513Y0091366D02*
X0061255Y0091366D01*
X0060257Y0092365D02*
X0063514Y0092365D01*
X0062516Y0093363D02*
X0059258Y0093363D01*
X0058260Y0094362D02*
X0061517Y0094362D01*
X0060519Y0095360D02*
X0057261Y0095360D01*
X0056263Y0096359D02*
X0059520Y0096359D01*
X0058522Y0097357D02*
X0055264Y0097357D01*
X0054266Y0098356D02*
X0057523Y0098356D01*
X0056525Y0099354D02*
X0053267Y0099354D01*
X0052269Y0100353D02*
X0055526Y0100353D01*
X0054528Y0101351D02*
X0051270Y0101351D01*
X0050272Y0102350D02*
X0053529Y0102350D01*
X0052531Y0103348D02*
X0049273Y0103348D01*
X0048275Y0104347D02*
X0051532Y0104347D01*
X0050533Y0105345D02*
X0047276Y0105345D01*
X0046278Y0106344D02*
X0049535Y0106344D01*
X0048536Y0107342D02*
X0045279Y0107342D01*
X0044281Y0108341D02*
X0047538Y0108341D01*
X0046539Y0109339D02*
X0043282Y0109339D01*
X0042284Y0110338D02*
X0045541Y0110338D01*
X0044542Y0111336D02*
X0041285Y0111336D01*
X0040287Y0112335D02*
X0043544Y0112335D01*
X0042545Y0113333D02*
X0039288Y0113333D01*
X0038290Y0114332D02*
X0041547Y0114332D01*
X0040548Y0115330D02*
X0037291Y0115330D01*
X0036293Y0116329D02*
X0039550Y0116329D01*
X0038551Y0117327D02*
X0036050Y0117327D01*
X0035711Y0118326D02*
X0037553Y0118326D01*
X0036554Y0119324D02*
X0034552Y0119324D01*
X0031761Y0090368D02*
X0003500Y0090368D01*
X0003500Y0089369D02*
X0031100Y0089369D01*
X0030950Y0088370D02*
X0003500Y0088370D01*
X0003500Y0087372D02*
X0031207Y0087372D01*
X0032000Y0086373D02*
X0003500Y0086373D01*
X0003500Y0085375D02*
X0032000Y0085375D01*
X0032000Y0084376D02*
X0003500Y0084376D01*
X0003500Y0083378D02*
X0032000Y0083378D01*
X0032000Y0082379D02*
X0003500Y0082379D01*
X0003500Y0081381D02*
X0032998Y0081381D01*
X0033996Y0080382D02*
X0003500Y0080382D01*
X0003500Y0079384D02*
X0034995Y0079384D01*
X0035993Y0078385D02*
X0003500Y0078385D01*
X0003500Y0077387D02*
X0036992Y0077387D01*
X0037990Y0076388D02*
X0003500Y0076388D01*
X0003500Y0075390D02*
X0038989Y0075390D01*
X0039987Y0074391D02*
X0003500Y0074391D01*
X0003500Y0073393D02*
X0040986Y0073393D01*
X0041984Y0072394D02*
X0003500Y0072394D01*
X0003500Y0071396D02*
X0042983Y0071396D01*
X0043981Y0070397D02*
X0003500Y0070397D01*
X0003500Y0069399D02*
X0044980Y0069399D01*
X0045978Y0068400D02*
X0003500Y0068400D01*
X0003500Y0067402D02*
X0046977Y0067402D01*
X0047975Y0066403D02*
X0003500Y0066403D01*
X0003500Y0065405D02*
X0048974Y0065405D01*
X0049972Y0064406D02*
X0003500Y0064406D01*
X0003500Y0063408D02*
X0050971Y0063408D01*
X0051969Y0062409D02*
X0003500Y0062409D01*
X0003500Y0061411D02*
X0052968Y0061411D01*
X0053966Y0060412D02*
X0003500Y0060412D01*
X0003500Y0059414D02*
X0054965Y0059414D01*
X0055964Y0058415D02*
X0003500Y0058415D01*
X0003500Y0057417D02*
X0056962Y0057417D01*
X0060956Y0053423D02*
X0048184Y0053423D01*
X0048877Y0052424D02*
X0061955Y0052424D01*
X0062953Y0051426D02*
X0049050Y0051426D01*
X0049836Y0050427D02*
X0063952Y0050427D01*
X0057824Y0042439D02*
X0106818Y0042439D01*
X0107816Y0043437D02*
X0056825Y0043437D01*
X0055827Y0044436D02*
X0108815Y0044436D01*
X0109813Y0045434D02*
X0054828Y0045434D01*
X0053830Y0046433D02*
X0110812Y0046433D01*
X0111810Y0047432D02*
X0052831Y0047432D01*
X0051833Y0048430D02*
X0112809Y0048430D01*
X0113807Y0049429D02*
X0050834Y0049429D01*
X0048306Y0047432D02*
X0003500Y0047432D01*
X0003500Y0048430D02*
X0047307Y0048430D01*
X0049304Y0046433D02*
X0003500Y0046433D01*
X0003500Y0045434D02*
X0050303Y0045434D01*
X0051301Y0044436D02*
X0003500Y0044436D01*
X0003500Y0043437D02*
X0052300Y0043437D01*
X0053298Y0042439D02*
X0003500Y0042439D01*
X0003500Y0041440D02*
X0054297Y0041440D01*
X0055000Y0040442D02*
X0003500Y0040442D01*
X0003500Y0039443D02*
X0055000Y0039443D01*
X0055000Y0038445D02*
X0003500Y0038445D01*
X0003500Y0037446D02*
X0055000Y0037446D01*
X0055000Y0036448D02*
X0003500Y0036448D01*
X0003500Y0013482D02*
X0018108Y0013482D01*
X0017700Y0012484D02*
X0003500Y0012484D01*
X0003500Y0011485D02*
X0017700Y0011485D01*
X0017700Y0010487D02*
X0003500Y0010487D01*
X0003500Y0009488D02*
X0018138Y0009488D01*
X0019136Y0008490D02*
X0003500Y0008490D01*
X0023864Y0008490D02*
X0029136Y0008490D01*
X0028138Y0009488D02*
X0024862Y0009488D01*
X0025300Y0010487D02*
X0027700Y0010487D01*
X0027700Y0011485D02*
X0025300Y0011485D01*
X0025300Y0012484D02*
X0027700Y0012484D01*
X0028108Y0013482D02*
X0024892Y0013482D01*
X0023893Y0014481D02*
X0029107Y0014481D01*
X0029151Y0018475D02*
X0023849Y0018475D01*
X0024774Y0019473D02*
X0028153Y0019473D01*
X0027700Y0020472D02*
X0025187Y0020472D01*
X0025300Y0021470D02*
X0027700Y0021470D01*
X0027700Y0022469D02*
X0025212Y0022469D01*
X0024798Y0023467D02*
X0028093Y0023467D01*
X0029092Y0024466D02*
X0023908Y0024466D01*
X0031605Y0003497D02*
X0199488Y0003497D01*
X0199490Y0022469D02*
X0175700Y0022469D01*
X0175472Y0023467D02*
X0199490Y0023467D01*
X0199490Y0024466D02*
X0174474Y0024466D01*
X0173475Y0025464D02*
X0199490Y0025464D01*
X0199495Y0100353D02*
X0189979Y0100353D01*
X0192201Y0101351D02*
X0199495Y0101351D01*
X0199495Y0102350D02*
X0193200Y0102350D01*
X0194198Y0103348D02*
X0199495Y0103348D01*
X0199495Y0104347D02*
X0194903Y0104347D01*
X0195317Y0105345D02*
X0199495Y0105345D01*
X0199495Y0106344D02*
X0195730Y0106344D01*
X0196118Y0107342D02*
X0199495Y0107342D01*
X0199496Y0108341D02*
X0196118Y0108341D01*
X0196118Y0109339D02*
X0199496Y0109339D01*
X0199496Y0110338D02*
X0196118Y0110338D01*
X0195977Y0111336D02*
X0199496Y0111336D01*
X0199496Y0112335D02*
X0195564Y0112335D01*
X0195150Y0113333D02*
X0199496Y0113333D01*
X0199496Y0114332D02*
X0194736Y0114332D01*
X0193795Y0115330D02*
X0199496Y0115330D01*
X0199496Y0116329D02*
X0192797Y0116329D01*
X0191417Y0117327D02*
X0199496Y0117327D01*
X0172666Y0144287D02*
X0161000Y0144287D01*
X0161000Y0143289D02*
X0171667Y0143289D01*
X0170669Y0142290D02*
X0161000Y0142290D01*
X0161000Y0141292D02*
X0169670Y0141292D01*
X0168672Y0140293D02*
X0161000Y0140293D01*
X0161000Y0139295D02*
X0167673Y0139295D01*
X0167000Y0138296D02*
X0161000Y0138296D01*
X0161000Y0137298D02*
X0167000Y0137298D01*
X0167000Y0136299D02*
X0161000Y0136299D01*
X0161000Y0135301D02*
X0167000Y0135301D01*
X0167000Y0134302D02*
X0161000Y0134302D01*
X0161000Y0133303D02*
X0167000Y0133303D01*
X0167000Y0132305D02*
X0161000Y0132305D01*
X0161000Y0131306D02*
X0167000Y0131306D01*
X0167000Y0130308D02*
X0161000Y0130308D01*
X0161000Y0129309D02*
X0167000Y0129309D01*
X0167000Y0128311D02*
X0161000Y0128311D01*
X0161000Y0145286D02*
X0173450Y0145286D01*
X0173565Y0146284D02*
X0161000Y0146284D01*
X0154636Y0174242D02*
X0145546Y0174242D01*
X0144547Y0175241D02*
X0153638Y0175241D01*
X0152639Y0176239D02*
X0142601Y0176239D01*
X0140399Y0176239D02*
X0136000Y0176239D01*
X0136000Y0175241D02*
X0138453Y0175241D01*
X0137454Y0174242D02*
X0136000Y0174242D01*
X0136000Y0173244D02*
X0137027Y0173244D01*
X0136700Y0172245D02*
X0136000Y0172245D01*
X0136000Y0171247D02*
X0136700Y0171247D01*
X0136823Y0170248D02*
X0136000Y0170248D01*
X0136000Y0169250D02*
X0137237Y0169250D01*
X0137960Y0168251D02*
X0136000Y0168251D01*
X0136000Y0167253D02*
X0139210Y0167253D01*
X0140246Y0177238D02*
X0136000Y0177238D01*
X0136000Y0178237D02*
X0138975Y0178237D01*
X0138243Y0179235D02*
X0136000Y0179235D01*
X0136000Y0180234D02*
X0137829Y0180234D01*
X0137700Y0181232D02*
X0136000Y0181232D01*
X0136000Y0182231D02*
X0137700Y0182231D01*
X0138021Y0183229D02*
X0136000Y0183229D01*
X0136349Y0184228D02*
X0138439Y0184228D01*
X0139438Y0185226D02*
X0137347Y0185226D01*
X0138346Y0186225D02*
X0141363Y0186225D01*
X0146757Y0179235D02*
X0149644Y0179235D01*
X0150642Y0178237D02*
X0146025Y0178237D01*
X0144754Y0177238D02*
X0151641Y0177238D01*
X0121700Y0217178D02*
X0119943Y0217178D01*
X0120702Y0218177D02*
X0101944Y0218177D01*
X0100946Y0219175D02*
X0115448Y0219175D01*
X0114289Y0220174D02*
X0099947Y0220174D01*
X0099050Y0221172D02*
X0113950Y0221172D01*
X0114018Y0222171D02*
X0098982Y0222171D01*
X0098437Y0223170D02*
X0114563Y0223170D01*
X0117552Y0219175D02*
X0119703Y0219175D01*
X0114593Y0203199D02*
X0100907Y0203199D01*
X0101470Y0202201D02*
X0114030Y0202201D01*
X0113950Y0201202D02*
X0101550Y0201202D01*
X0102418Y0200204D02*
X0114277Y0200204D01*
X0115377Y0199205D02*
X0103416Y0199205D01*
X0104415Y0198207D02*
X0117672Y0198207D01*
X0100697Y0215181D02*
X0055172Y0215181D01*
X0078000Y0199205D02*
X0089584Y0199205D01*
X0088585Y0198207D02*
X0078000Y0198207D01*
X0078723Y0200204D02*
X0090582Y0200204D01*
X0091450Y0201202D02*
X0079050Y0201202D01*
X0078970Y0202201D02*
X0091530Y0202201D01*
X0092093Y0203199D02*
X0078407Y0203199D01*
X0095907Y0203199D02*
X0097093Y0203199D01*
X0096530Y0202201D02*
X0096470Y0202201D01*
X0078648Y0182231D02*
X0077891Y0182231D01*
X0078889Y0181232D02*
X0079647Y0181232D01*
X0079888Y0180234D02*
X0080645Y0180234D01*
X0065000Y0090368D02*
X0062254Y0090368D01*
X0063252Y0089369D02*
X0065000Y0089369D01*
X0065000Y0088370D02*
X0063500Y0088370D01*
X0063500Y0087372D02*
X0065000Y0087372D01*
X0065000Y0086373D02*
X0063500Y0086373D01*
X0063500Y0085375D02*
X0065000Y0085375D01*
X0065000Y0084376D02*
X0063500Y0084376D01*
X0063500Y0083378D02*
X0065000Y0083378D01*
X0065000Y0082379D02*
X0063500Y0082379D01*
X0063500Y0081381D02*
X0065000Y0081381D01*
X0065000Y0080382D02*
X0063500Y0080382D01*
X0063500Y0079384D02*
X0065000Y0079384D01*
X0065000Y0078385D02*
X0063500Y0078385D01*
X0063500Y0077387D02*
X0065000Y0077387D01*
X0065000Y0076388D02*
X0063500Y0076388D01*
X0063500Y0075390D02*
X0065000Y0075390D01*
X0065000Y0074391D02*
X0063500Y0074391D01*
X0063500Y0073393D02*
X0065000Y0073393D01*
X0065000Y0072394D02*
X0063500Y0072394D01*
X0063500Y0071396D02*
X0065000Y0071396D01*
X0065481Y0070397D02*
X0063500Y0070397D01*
X0063500Y0069399D02*
X0066480Y0069399D01*
X0067478Y0068400D02*
X0063500Y0068400D01*
X0063500Y0067402D02*
X0068477Y0067402D01*
X0068950Y0066403D02*
X0063500Y0066403D01*
X0063500Y0065405D02*
X0069194Y0065405D01*
X0111048Y0050427D02*
X0114806Y0050427D01*
X0115804Y0051426D02*
X0112047Y0051426D01*
X0113045Y0052424D02*
X0116803Y0052424D01*
X0117801Y0053423D02*
X0114044Y0053423D01*
X0115042Y0054421D02*
X0118800Y0054421D01*
X0119798Y0055420D02*
X0116041Y0055420D01*
X0117039Y0056418D02*
X0120797Y0056418D01*
M02*
