G75*
%MOIN*%
%OFA0B0*%
%FSLAX25Y25*%
%IPPOS*%
%LPD*%
%AMOC8*
5,1,8,0,0,1.08239X$1,22.5*
%
%ADD10C,0.13100*%
%ADD11C,0.06000*%
%ADD12OC8,0.06000*%
%ADD13C,0.15285*%
%ADD14C,0.08000*%
D10*
X0011500Y0216500D03*
X0191500Y0216500D03*
D11*
X0021500Y0021500D03*
D12*
X0021500Y0011500D03*
X0031500Y0011500D03*
X0031500Y0021500D03*
X0041500Y0021500D03*
X0041500Y0011500D03*
X0051500Y0011500D03*
X0051500Y0021500D03*
X0061500Y0021500D03*
X0061500Y0011500D03*
X0071500Y0011500D03*
X0071500Y0021500D03*
X0081500Y0021500D03*
X0081500Y0011500D03*
X0091500Y0011500D03*
X0091500Y0021500D03*
X0101500Y0021500D03*
X0101500Y0011500D03*
X0111500Y0011500D03*
X0111500Y0021500D03*
X0121500Y0021500D03*
X0121500Y0011500D03*
X0131500Y0011500D03*
X0131500Y0021500D03*
X0141500Y0021500D03*
X0141500Y0011500D03*
X0151500Y0011500D03*
X0151500Y0021500D03*
X0161500Y0021500D03*
X0161500Y0011500D03*
X0171500Y0011500D03*
X0171500Y0021500D03*
D13*
X0186776Y0063862D03*
X0186776Y0109138D03*
X0096224Y0109138D03*
X0096224Y0063862D03*
D14*
X0081500Y0140800D03*
X0081500Y0152200D03*
X0051500Y0171500D03*
X0052500Y0181500D03*
X0051500Y0191500D03*
X0052500Y0201500D03*
X0051500Y0211500D03*
X0052500Y0221500D03*
X0141500Y0211500D03*
X0142500Y0201500D03*
X0141500Y0191500D03*
X0142500Y0181500D03*
X0141500Y0171500D03*
X0142500Y0221500D03*
M02*
