%
M48
M72
T01C0.0150
T02C0.0360
T03C0.0400
T04C0.1250
T05C0.1469
%
T01
X4150Y3350
X4650Y5150
X6650Y6150
X7150Y6650
X7500Y7650
X8650Y8850
X9450Y7900
X9800Y8150
X10150Y9500
X10500Y9700
X12650Y9700
X12600Y9200
X12750Y8850
X13500Y9700
X13500Y10100
X13500Y10500
X14750Y8800
X14750Y8400
X15650Y9400
X15950Y9100
X12950Y12250
X12650Y12600
X12350Y12200
X13450Y13150
X10150Y13150
X7450Y10650
X4950Y13900
X3300Y15100
X3350Y11700
X3350Y8850
X8450Y5950
X12600Y6750
X12700Y7200
X14300Y4300
X14300Y3900
X14300Y3500
X14300Y3100
X17600Y14100
X17600Y14550
X11650Y20150
X9900Y20150
X9400Y20150
X9400Y18650
X9900Y18650
X7650Y18650
X7650Y20150
X9650Y22150
X11650Y22150
X8950Y25150
X6900Y25150
T02
X2150Y1150
X2150Y2150
X3150Y2150
X3150Y1150
X4150Y1150
X4150Y2150
X5150Y2150
X5150Y1150
X6150Y1150
X6150Y2150
X7150Y2150
X7150Y1150
X8150Y1150
X8150Y2150
X9150Y2150
X9150Y1150
X10150Y1150
X10150Y2150
X11150Y2150
X11150Y1150
X12150Y1150
X12150Y2150
X13150Y2150
X13150Y1150
X14150Y1150
X14150Y2150
X15150Y2150
X15150Y1150
X16150Y1150
X16150Y2150
X17150Y2150
X17150Y1150
T03
X8150Y14080
X8150Y15220
X5150Y17150
X5250Y18150
X5150Y19150
X5250Y20150
X5150Y21150
X5250Y22150
X14150Y21150
X14250Y20150
X14150Y19150
X14250Y18150
X14150Y17150
X14250Y22150
T04
X19150Y21650
X1150Y21650
T05
X9622Y10914
X9622Y6386
X18678Y6386
X18678Y10914
M30
