G75*
%MOIN*%
%OFA0B0*%
%FSLAX25Y25*%
%IPPOS*%
%LPD*%
%AMOC8*
5,1,8,0,0,1.08239X$1,22.5*
%
%ADD10C,0.00400*%
%ADD11C,0.01000*%
%ADD12C,0.00800*%
%ADD13C,0.00300*%
%ADD14C,0.00394*%
%ADD15R,0.11575X0.02913*%
D10*
X0087407Y0146665D02*
X0086540Y0147533D01*
X0086540Y0151870D01*
X0089142Y0151870D01*
X0090010Y0151002D01*
X0090010Y0149267D01*
X0089142Y0148400D01*
X0086540Y0148400D01*
X0087407Y0146665D02*
X0088275Y0146665D01*
X0091704Y0151870D02*
X0092572Y0151870D01*
X0094307Y0150135D01*
X0094307Y0148400D02*
X0094307Y0151870D01*
X0095993Y0151002D02*
X0095993Y0149267D01*
X0096861Y0148400D01*
X0098596Y0148400D01*
X0099463Y0149267D01*
X0099463Y0151002D01*
X0098596Y0151870D01*
X0096861Y0151870D01*
X0095993Y0151002D01*
X0096009Y0156800D02*
X0096009Y0162004D01*
X0097744Y0160270D01*
X0099431Y0161137D02*
X0099431Y0157667D01*
X0100298Y0156800D01*
X0102033Y0156800D01*
X0102901Y0157667D01*
X0099431Y0161137D01*
X0100298Y0162004D01*
X0102033Y0162004D01*
X0102901Y0161137D01*
X0102901Y0157667D01*
X0104587Y0156800D02*
X0108057Y0156800D01*
X0104587Y0160270D01*
X0104587Y0161137D01*
X0105455Y0162004D01*
X0107190Y0162004D01*
X0108057Y0161137D01*
X0114916Y0157667D02*
X0115784Y0157667D01*
X0115784Y0156800D01*
X0114916Y0156800D01*
X0114916Y0157667D01*
X0114916Y0156800D02*
X0116651Y0155065D01*
X0119205Y0156800D02*
X0118338Y0157667D01*
X0118338Y0158535D01*
X0119205Y0159402D01*
X0120073Y0159402D01*
X0119205Y0159402D02*
X0118338Y0160270D01*
X0118338Y0161137D01*
X0119205Y0162004D01*
X0120940Y0162004D01*
X0121807Y0161137D01*
X0123494Y0160270D02*
X0125229Y0162004D01*
X0126964Y0160270D01*
X0128651Y0160270D02*
X0128651Y0155933D01*
X0129518Y0155065D01*
X0130385Y0155065D01*
X0131253Y0156800D02*
X0128651Y0156800D01*
X0131253Y0156800D02*
X0132120Y0157667D01*
X0132120Y0159402D01*
X0131253Y0160270D01*
X0128651Y0160270D01*
X0133807Y0159402D02*
X0133807Y0156800D01*
X0133807Y0159402D02*
X0134674Y0160270D01*
X0137277Y0160270D01*
X0137277Y0156800D01*
X0138979Y0156800D02*
X0140714Y0156800D01*
X0139847Y0156800D02*
X0139847Y0160270D01*
X0140714Y0160270D01*
X0142409Y0160270D02*
X0143276Y0160270D01*
X0145011Y0158535D01*
X0146698Y0158535D02*
X0150168Y0158535D01*
X0150168Y0159402D02*
X0149300Y0160270D01*
X0147565Y0160270D01*
X0146698Y0159402D01*
X0146698Y0158535D01*
X0147565Y0156800D02*
X0149300Y0156800D01*
X0150168Y0157667D01*
X0150168Y0159402D01*
X0151854Y0159402D02*
X0151854Y0158535D01*
X0155324Y0158535D01*
X0155324Y0159402D02*
X0154457Y0160270D01*
X0152722Y0160270D01*
X0151854Y0159402D01*
X0152722Y0156800D02*
X0154457Y0156800D01*
X0155324Y0157667D01*
X0155324Y0159402D01*
X0157011Y0159402D02*
X0157011Y0156800D01*
X0157011Y0159402D02*
X0157878Y0160270D01*
X0160480Y0160270D01*
X0160480Y0156800D01*
X0162183Y0156800D02*
X0163918Y0156800D01*
X0163051Y0156800D02*
X0163051Y0160270D01*
X0163918Y0160270D01*
X0165605Y0160270D02*
X0165605Y0155933D01*
X0166472Y0155065D01*
X0167340Y0155065D01*
X0166464Y0153604D02*
X0169934Y0148400D01*
X0171645Y0148400D02*
X0172512Y0148400D01*
X0172512Y0149267D01*
X0171645Y0149267D01*
X0171645Y0148400D01*
X0171645Y0151002D02*
X0172512Y0151002D01*
X0172512Y0151870D01*
X0171645Y0151870D01*
X0171645Y0151002D01*
X0174199Y0151002D02*
X0174199Y0149267D01*
X0175066Y0148400D01*
X0177668Y0148400D01*
X0179371Y0148400D02*
X0180239Y0149267D01*
X0180239Y0152737D01*
X0181106Y0151870D02*
X0179371Y0151870D01*
X0177668Y0151870D02*
X0175066Y0151870D01*
X0174199Y0151002D01*
X0177668Y0151870D02*
X0177668Y0146665D01*
X0182809Y0148400D02*
X0183676Y0149267D01*
X0183676Y0152737D01*
X0184544Y0151870D02*
X0182809Y0151870D01*
X0186230Y0151002D02*
X0186230Y0148400D01*
X0186230Y0151002D02*
X0187098Y0151870D01*
X0188833Y0151870D01*
X0189700Y0151002D01*
X0189700Y0153604D02*
X0189700Y0148400D01*
X0179387Y0156800D02*
X0179387Y0162004D01*
X0175918Y0162004D01*
X0174231Y0160270D02*
X0171629Y0160270D01*
X0170761Y0159402D01*
X0170761Y0156800D01*
X0169074Y0157667D02*
X0169074Y0159402D01*
X0168207Y0160270D01*
X0165605Y0160270D01*
X0163051Y0162004D02*
X0163051Y0162872D01*
X0165605Y0156800D02*
X0168207Y0156800D01*
X0169074Y0157667D01*
X0174231Y0156800D02*
X0174231Y0160270D01*
X0175918Y0156800D02*
X0179387Y0156800D01*
X0179387Y0159402D02*
X0177652Y0159402D01*
X0164777Y0148400D02*
X0161308Y0153604D01*
X0158754Y0151870D02*
X0157019Y0151870D01*
X0156151Y0151002D01*
X0156151Y0150135D01*
X0159621Y0150135D01*
X0159621Y0151002D02*
X0158754Y0151870D01*
X0159621Y0151002D02*
X0159621Y0149267D01*
X0158754Y0148400D01*
X0157019Y0148400D01*
X0154465Y0148400D02*
X0154465Y0151870D01*
X0151862Y0151870D01*
X0150995Y0151002D01*
X0150995Y0148400D01*
X0149308Y0149267D02*
X0149308Y0151002D01*
X0148441Y0151870D01*
X0145839Y0151870D01*
X0145839Y0147533D01*
X0146706Y0146665D01*
X0147573Y0146665D01*
X0148441Y0148400D02*
X0145839Y0148400D01*
X0144152Y0148400D02*
X0142417Y0148400D01*
X0143284Y0148400D02*
X0143284Y0151870D01*
X0144152Y0151870D01*
X0143284Y0153604D02*
X0143284Y0154472D01*
X0145011Y0156800D02*
X0145011Y0160270D01*
X0139847Y0162004D02*
X0139847Y0162872D01*
X0140714Y0151870D02*
X0138112Y0151870D01*
X0137245Y0151002D01*
X0137245Y0148400D01*
X0135558Y0149267D02*
X0135558Y0151002D01*
X0134690Y0151870D01*
X0132956Y0151870D01*
X0132088Y0151002D01*
X0132088Y0150135D01*
X0135558Y0150135D01*
X0135558Y0149267D02*
X0134690Y0148400D01*
X0132956Y0148400D01*
X0130401Y0149267D02*
X0130401Y0151002D01*
X0129534Y0151870D01*
X0127799Y0151870D01*
X0126932Y0151002D01*
X0126932Y0150135D01*
X0130401Y0150135D01*
X0130401Y0149267D02*
X0129534Y0148400D01*
X0127799Y0148400D01*
X0125245Y0148400D02*
X0125245Y0151870D01*
X0125245Y0150135D02*
X0123510Y0151870D01*
X0122643Y0151870D01*
X0120948Y0151870D02*
X0120081Y0151870D01*
X0120081Y0148400D01*
X0120948Y0148400D02*
X0119213Y0148400D01*
X0117510Y0148400D02*
X0117510Y0151870D01*
X0114908Y0151870D01*
X0114041Y0151002D01*
X0114041Y0148400D01*
X0112354Y0149267D02*
X0112354Y0151002D01*
X0111487Y0151870D01*
X0108884Y0151870D01*
X0108884Y0147533D01*
X0109752Y0146665D01*
X0110619Y0146665D01*
X0111487Y0148400D02*
X0108884Y0148400D01*
X0107198Y0149267D02*
X0106330Y0148400D01*
X0104595Y0148400D01*
X0103728Y0149267D01*
X0103728Y0150135D01*
X0104595Y0151002D01*
X0105463Y0151002D01*
X0104595Y0151002D02*
X0103728Y0151870D01*
X0103728Y0152737D01*
X0104595Y0153604D01*
X0106330Y0153604D01*
X0107198Y0152737D01*
X0111487Y0148400D02*
X0112354Y0149267D01*
X0120081Y0153604D02*
X0120081Y0154472D01*
X0120940Y0156800D02*
X0121807Y0157667D01*
X0120940Y0156800D02*
X0119205Y0156800D01*
X0102041Y0149267D02*
X0101174Y0149267D01*
X0101174Y0148400D01*
X0102041Y0148400D01*
X0102041Y0149267D01*
X0097744Y0156800D02*
X0094275Y0156800D01*
X0092588Y0157667D02*
X0091720Y0156800D01*
X0089986Y0156800D01*
X0089118Y0157667D01*
X0089118Y0158535D01*
X0089986Y0159402D01*
X0092588Y0159402D01*
X0092588Y0157667D01*
X0092588Y0159402D02*
X0090853Y0161137D01*
X0089118Y0162004D01*
X0130519Y0114237D02*
X0130519Y0110767D01*
X0129652Y0109900D01*
X0133073Y0109900D02*
X0133073Y0112502D01*
X0133941Y0113370D01*
X0136543Y0113370D01*
X0136543Y0109900D01*
X0138230Y0109900D02*
X0138230Y0112502D01*
X0139097Y0113370D01*
X0140832Y0113370D01*
X0140832Y0111635D02*
X0138230Y0111635D01*
X0138230Y0109900D02*
X0140832Y0109900D01*
X0141699Y0110767D01*
X0140832Y0111635D01*
X0143402Y0109900D02*
X0145137Y0109900D01*
X0144269Y0109900D02*
X0144269Y0113370D01*
X0145137Y0113370D01*
X0144269Y0115104D02*
X0144269Y0115972D01*
X0147707Y0115104D02*
X0147707Y0109900D01*
X0148574Y0109900D02*
X0146840Y0109900D01*
X0150261Y0110767D02*
X0151129Y0109900D01*
X0153731Y0109900D01*
X0155418Y0109900D02*
X0155418Y0112502D01*
X0156285Y0113370D01*
X0157152Y0112502D01*
X0157152Y0109900D01*
X0158887Y0109900D02*
X0158887Y0113370D01*
X0158020Y0113370D01*
X0157152Y0112502D01*
X0160574Y0112502D02*
X0161441Y0113370D01*
X0163176Y0113370D01*
X0164044Y0112502D01*
X0164044Y0110767D01*
X0163176Y0109900D01*
X0161441Y0109900D01*
X0160574Y0110767D01*
X0160574Y0112502D01*
X0165730Y0110767D02*
X0166598Y0109900D01*
X0168333Y0109900D01*
X0169200Y0110767D01*
X0169200Y0114237D01*
X0168333Y0115104D01*
X0166598Y0115104D01*
X0165730Y0114237D01*
X0165730Y0118300D02*
X0167465Y0120035D01*
X0166598Y0120035D02*
X0169200Y0120035D01*
X0169200Y0118300D02*
X0169200Y0123504D01*
X0166598Y0123504D01*
X0165730Y0122637D01*
X0165730Y0120902D01*
X0166598Y0120035D01*
X0164044Y0120902D02*
X0164044Y0119167D01*
X0163176Y0118300D01*
X0161441Y0118300D01*
X0160574Y0119167D01*
X0160574Y0120902D01*
X0161441Y0121770D01*
X0163176Y0121770D01*
X0164044Y0120902D01*
X0158887Y0120902D02*
X0155418Y0120902D01*
X0153731Y0121770D02*
X0152863Y0120902D01*
X0151129Y0120902D01*
X0150261Y0120035D01*
X0150261Y0119167D01*
X0151129Y0118300D01*
X0152863Y0118300D01*
X0153731Y0119167D01*
X0155418Y0118300D02*
X0155418Y0123504D01*
X0153731Y0122637D02*
X0153731Y0121770D01*
X0153731Y0122637D02*
X0152863Y0123504D01*
X0151129Y0123504D01*
X0150261Y0122637D01*
X0148574Y0115104D02*
X0147707Y0115104D01*
X0150261Y0112502D02*
X0150261Y0110767D01*
X0150261Y0112502D02*
X0151129Y0113370D01*
X0153731Y0113370D01*
X0153731Y0108165D01*
X0158887Y0118300D02*
X0158887Y0123504D01*
X0148441Y0148400D02*
X0149308Y0149267D01*
X0140714Y0148400D02*
X0140714Y0151870D01*
X0131386Y0113370D02*
X0129652Y0113370D01*
D11*
X0188500Y0158500D02*
X0188599Y0158482D01*
X0188698Y0158468D01*
X0188797Y0158458D01*
X0188897Y0158452D01*
X0188998Y0158450D01*
X0189098Y0158452D01*
X0189198Y0158458D01*
X0189298Y0158467D01*
X0189397Y0158481D01*
X0189495Y0158499D01*
X0189593Y0158520D01*
X0189690Y0158545D01*
X0189786Y0158574D01*
X0189881Y0158607D01*
X0189974Y0158643D01*
X0190066Y0158684D01*
X0190156Y0158727D01*
X0190245Y0158774D01*
X0190331Y0158825D01*
X0190415Y0158879D01*
X0190498Y0158936D01*
X0190578Y0158997D01*
X0190655Y0159060D01*
X0190730Y0159127D01*
X0190802Y0159196D01*
X0190872Y0159268D01*
X0190938Y0159343D01*
X0191002Y0159421D01*
X0191062Y0159500D01*
X0191120Y0159583D01*
X0191174Y0159667D01*
X0191224Y0159753D01*
X0191272Y0159842D01*
X0191315Y0159932D01*
X0191356Y0160024D01*
X0191392Y0160117D01*
X0191425Y0160212D01*
X0191454Y0160307D01*
X0191479Y0160404D01*
X0191501Y0160502D01*
X0191519Y0160601D01*
X0191532Y0160700D01*
X0191542Y0160800D01*
X0191548Y0160900D01*
X0191550Y0161000D01*
X0191548Y0161100D01*
X0191542Y0161200D01*
X0191532Y0161300D01*
X0191519Y0161399D01*
X0191501Y0161498D01*
X0191479Y0161596D01*
X0191454Y0161693D01*
X0191425Y0161788D01*
X0191392Y0161883D01*
X0191356Y0161976D01*
X0191315Y0162068D01*
X0191272Y0162158D01*
X0191224Y0162247D01*
X0191174Y0162333D01*
X0191120Y0162417D01*
X0191062Y0162500D01*
X0191002Y0162579D01*
X0190938Y0162657D01*
X0190872Y0162732D01*
X0190802Y0162804D01*
X0190730Y0162873D01*
X0190655Y0162940D01*
X0190578Y0163003D01*
X0190498Y0163064D01*
X0190415Y0163121D01*
X0190331Y0163175D01*
X0190245Y0163226D01*
X0190156Y0163273D01*
X0190066Y0163316D01*
X0189974Y0163357D01*
X0189881Y0163393D01*
X0189786Y0163426D01*
X0189690Y0163455D01*
X0189593Y0163480D01*
X0189495Y0163501D01*
X0189397Y0163519D01*
X0189298Y0163533D01*
X0189198Y0163542D01*
X0189098Y0163548D01*
X0188998Y0163550D01*
X0188897Y0163548D01*
X0188797Y0163542D01*
X0188698Y0163532D01*
X0188599Y0163518D01*
X0188500Y0163500D01*
X0184550Y0161000D02*
X0184552Y0161140D01*
X0184558Y0161280D01*
X0184568Y0161420D01*
X0184582Y0161559D01*
X0184599Y0161698D01*
X0184621Y0161837D01*
X0184647Y0161974D01*
X0184676Y0162111D01*
X0184710Y0162247D01*
X0184747Y0162382D01*
X0184788Y0162516D01*
X0184833Y0162649D01*
X0184881Y0162780D01*
X0184934Y0162910D01*
X0184989Y0163039D01*
X0185049Y0163166D01*
X0185112Y0163291D01*
X0185179Y0163414D01*
X0185249Y0163535D01*
X0185322Y0163655D01*
X0185399Y0163772D01*
X0185479Y0163887D01*
X0185562Y0163999D01*
X0185649Y0164110D01*
X0185738Y0164217D01*
X0185831Y0164323D01*
X0185926Y0164425D01*
X0186025Y0164525D01*
X0186126Y0164622D01*
X0186230Y0164716D01*
X0186336Y0164807D01*
X0186445Y0164895D01*
X0186557Y0164980D01*
X0186670Y0165061D01*
X0186786Y0165140D01*
X0186905Y0165215D01*
X0187025Y0165287D01*
X0187147Y0165355D01*
X0187271Y0165420D01*
X0187397Y0165481D01*
X0187525Y0165539D01*
X0187654Y0165593D01*
X0187785Y0165643D01*
X0187917Y0165690D01*
X0188051Y0165733D01*
X0188185Y0165772D01*
X0188321Y0165807D01*
X0188457Y0165839D01*
X0188594Y0165866D01*
X0188733Y0165890D01*
X0188871Y0165910D01*
X0189010Y0165926D01*
X0189150Y0165938D01*
X0189290Y0165946D01*
X0189430Y0165950D01*
X0189570Y0165950D01*
X0189710Y0165946D01*
X0189850Y0165938D01*
X0189990Y0165926D01*
X0190129Y0165910D01*
X0190267Y0165890D01*
X0190406Y0165866D01*
X0190543Y0165839D01*
X0190679Y0165807D01*
X0190815Y0165772D01*
X0190949Y0165733D01*
X0191083Y0165690D01*
X0191215Y0165643D01*
X0191346Y0165593D01*
X0191475Y0165539D01*
X0191603Y0165481D01*
X0191729Y0165420D01*
X0191853Y0165355D01*
X0191975Y0165287D01*
X0192095Y0165215D01*
X0192214Y0165140D01*
X0192330Y0165061D01*
X0192443Y0164980D01*
X0192555Y0164895D01*
X0192664Y0164807D01*
X0192770Y0164716D01*
X0192874Y0164622D01*
X0192975Y0164525D01*
X0193074Y0164425D01*
X0193169Y0164323D01*
X0193262Y0164217D01*
X0193351Y0164110D01*
X0193438Y0163999D01*
X0193521Y0163887D01*
X0193601Y0163772D01*
X0193678Y0163655D01*
X0193751Y0163535D01*
X0193821Y0163414D01*
X0193888Y0163291D01*
X0193951Y0163166D01*
X0194011Y0163039D01*
X0194066Y0162910D01*
X0194119Y0162780D01*
X0194167Y0162649D01*
X0194212Y0162516D01*
X0194253Y0162382D01*
X0194290Y0162247D01*
X0194324Y0162111D01*
X0194353Y0161974D01*
X0194379Y0161837D01*
X0194401Y0161698D01*
X0194418Y0161559D01*
X0194432Y0161420D01*
X0194442Y0161280D01*
X0194448Y0161140D01*
X0194450Y0161000D01*
X0194448Y0160860D01*
X0194442Y0160720D01*
X0194432Y0160580D01*
X0194418Y0160441D01*
X0194401Y0160302D01*
X0194379Y0160163D01*
X0194353Y0160026D01*
X0194324Y0159889D01*
X0194290Y0159753D01*
X0194253Y0159618D01*
X0194212Y0159484D01*
X0194167Y0159351D01*
X0194119Y0159220D01*
X0194066Y0159090D01*
X0194011Y0158961D01*
X0193951Y0158834D01*
X0193888Y0158709D01*
X0193821Y0158586D01*
X0193751Y0158465D01*
X0193678Y0158345D01*
X0193601Y0158228D01*
X0193521Y0158113D01*
X0193438Y0158001D01*
X0193351Y0157890D01*
X0193262Y0157783D01*
X0193169Y0157677D01*
X0193074Y0157575D01*
X0192975Y0157475D01*
X0192874Y0157378D01*
X0192770Y0157284D01*
X0192664Y0157193D01*
X0192555Y0157105D01*
X0192443Y0157020D01*
X0192330Y0156939D01*
X0192214Y0156860D01*
X0192095Y0156785D01*
X0191975Y0156713D01*
X0191853Y0156645D01*
X0191729Y0156580D01*
X0191603Y0156519D01*
X0191475Y0156461D01*
X0191346Y0156407D01*
X0191215Y0156357D01*
X0191083Y0156310D01*
X0190949Y0156267D01*
X0190815Y0156228D01*
X0190679Y0156193D01*
X0190543Y0156161D01*
X0190406Y0156134D01*
X0190267Y0156110D01*
X0190129Y0156090D01*
X0189990Y0156074D01*
X0189850Y0156062D01*
X0189710Y0156054D01*
X0189570Y0156050D01*
X0189430Y0156050D01*
X0189290Y0156054D01*
X0189150Y0156062D01*
X0189010Y0156074D01*
X0188871Y0156090D01*
X0188733Y0156110D01*
X0188594Y0156134D01*
X0188457Y0156161D01*
X0188321Y0156193D01*
X0188185Y0156228D01*
X0188051Y0156267D01*
X0187917Y0156310D01*
X0187785Y0156357D01*
X0187654Y0156407D01*
X0187525Y0156461D01*
X0187397Y0156519D01*
X0187271Y0156580D01*
X0187147Y0156645D01*
X0187025Y0156713D01*
X0186905Y0156785D01*
X0186786Y0156860D01*
X0186670Y0156939D01*
X0186557Y0157020D01*
X0186445Y0157105D01*
X0186336Y0157193D01*
X0186230Y0157284D01*
X0186126Y0157378D01*
X0186025Y0157475D01*
X0185926Y0157575D01*
X0185831Y0157677D01*
X0185738Y0157783D01*
X0185649Y0157890D01*
X0185562Y0158001D01*
X0185479Y0158113D01*
X0185399Y0158228D01*
X0185322Y0158345D01*
X0185249Y0158465D01*
X0185179Y0158586D01*
X0185112Y0158709D01*
X0185049Y0158834D01*
X0184989Y0158961D01*
X0184934Y0159090D01*
X0184881Y0159220D01*
X0184833Y0159351D01*
X0184788Y0159484D01*
X0184747Y0159618D01*
X0184710Y0159753D01*
X0184676Y0159889D01*
X0184647Y0160026D01*
X0184621Y0160163D01*
X0184599Y0160302D01*
X0184582Y0160441D01*
X0184568Y0160580D01*
X0184558Y0160720D01*
X0184552Y0160860D01*
X0184550Y0161000D01*
D12*
X0028557Y0077100D02*
X0027523Y0078134D01*
X0027523Y0079168D01*
X0028557Y0080203D01*
X0031660Y0080203D01*
X0031660Y0078134D01*
X0030625Y0077100D01*
X0028557Y0077100D01*
X0031660Y0080203D02*
X0029591Y0082271D01*
X0027523Y0083305D01*
X0033968Y0077100D02*
X0038105Y0077100D01*
X0036037Y0077100D02*
X0036037Y0083305D01*
X0038105Y0081237D01*
X0040414Y0082271D02*
X0040414Y0078134D01*
X0041448Y0077100D01*
X0043516Y0077100D01*
X0044551Y0078134D01*
X0040414Y0082271D01*
X0041448Y0083305D01*
X0043516Y0083305D01*
X0044551Y0082271D01*
X0044551Y0078134D01*
X0046859Y0077100D02*
X0050996Y0077100D01*
X0046859Y0081237D01*
X0046859Y0082271D01*
X0047893Y0083305D01*
X0049962Y0083305D01*
X0050996Y0082271D01*
X0059670Y0081237D02*
X0061739Y0083305D01*
X0059670Y0081237D02*
X0059670Y0079168D01*
X0061739Y0077100D01*
X0064047Y0077100D02*
X0067150Y0077100D01*
X0068184Y0078134D01*
X0068184Y0080203D01*
X0067150Y0081237D01*
X0064047Y0081237D01*
X0070413Y0083305D02*
X0072481Y0081237D01*
X0072481Y0079168D01*
X0070413Y0077100D01*
X0081235Y0078134D02*
X0082269Y0077100D01*
X0084338Y0077100D01*
X0085372Y0078134D01*
X0083304Y0080203D02*
X0082269Y0080203D01*
X0081235Y0079168D01*
X0081235Y0078134D01*
X0082269Y0080203D02*
X0081235Y0081237D01*
X0081235Y0082271D01*
X0082269Y0083305D01*
X0084338Y0083305D01*
X0085372Y0082271D01*
X0087681Y0081237D02*
X0089749Y0077100D01*
X0091818Y0081237D01*
X0100572Y0083305D02*
X0100572Y0077100D01*
X0102640Y0079168D01*
X0104709Y0077100D01*
X0104709Y0083305D01*
X0107017Y0076066D02*
X0111154Y0076066D01*
X0113463Y0077100D02*
X0113463Y0080203D01*
X0114497Y0081237D01*
X0115531Y0080203D01*
X0115531Y0077100D01*
X0117600Y0077100D02*
X0117600Y0081237D01*
X0116565Y0081237D01*
X0115531Y0080203D01*
X0119908Y0080203D02*
X0119908Y0077100D01*
X0121977Y0077100D02*
X0121977Y0080203D01*
X0120942Y0081237D01*
X0119908Y0080203D01*
X0121977Y0080203D02*
X0123011Y0081237D01*
X0124045Y0081237D01*
X0124045Y0077100D01*
X0126354Y0078134D02*
X0126354Y0080203D01*
X0127388Y0081237D01*
X0129456Y0081237D01*
X0130491Y0080203D01*
X0130491Y0078134D01*
X0129456Y0077100D01*
X0127388Y0077100D01*
X0126354Y0078134D01*
X0132799Y0078134D02*
X0133833Y0077100D01*
X0135902Y0077100D01*
X0136936Y0078134D01*
X0136936Y0082271D01*
X0135902Y0083305D01*
X0133833Y0083305D01*
X0132799Y0082271D01*
X0139245Y0080203D02*
X0143382Y0080203D01*
X0145690Y0083305D02*
X0145690Y0077100D01*
X0147759Y0081237D02*
X0145690Y0083305D01*
X0147759Y0081237D02*
X0149827Y0083305D01*
X0149827Y0077100D01*
X0152136Y0078134D02*
X0153170Y0077100D01*
X0155238Y0077100D01*
X0156273Y0078134D01*
X0156273Y0082271D01*
X0155238Y0083305D01*
X0153170Y0083305D01*
X0152136Y0082271D01*
X0158581Y0082271D02*
X0158581Y0080203D01*
X0159615Y0079168D01*
X0162718Y0079168D01*
X0162718Y0077100D02*
X0162718Y0083305D01*
X0159615Y0083305D01*
X0158581Y0082271D01*
X0160650Y0079168D02*
X0158581Y0077100D01*
X0171472Y0078134D02*
X0172506Y0077100D01*
X0174575Y0077100D01*
X0175609Y0078134D01*
X0173541Y0080203D02*
X0172506Y0080203D01*
X0171472Y0079168D01*
X0171472Y0078134D01*
X0172506Y0080203D02*
X0171472Y0081237D01*
X0171472Y0082271D01*
X0172506Y0083305D01*
X0174575Y0083305D01*
X0175609Y0082271D01*
X0177918Y0081237D02*
X0179986Y0083305D01*
X0182055Y0081237D01*
X0184363Y0083305D02*
X0188500Y0083305D01*
X0188500Y0077100D01*
X0184363Y0077100D01*
X0186432Y0080203D02*
X0188500Y0080203D01*
D13*
X0071269Y0150300D02*
X0068093Y0149978D01*
X0067752Y0148911D01*
X0067239Y0147914D01*
X0069256Y0145440D01*
X0067560Y0143744D01*
X0065086Y0145761D01*
X0064090Y0145248D01*
X0062677Y0148658D01*
X0063209Y0148942D01*
X0063675Y0149325D01*
X0064058Y0149791D01*
X0064342Y0150323D01*
X0064517Y0150900D01*
X0064576Y0151500D01*
X0064511Y0152128D01*
X0064319Y0152730D01*
X0064009Y0153280D01*
X0063592Y0153755D01*
X0063088Y0154135D01*
X0062516Y0154403D01*
X0061902Y0154550D01*
X0061270Y0154567D01*
X0060649Y0154456D01*
X0060063Y0154220D01*
X0059538Y0153869D01*
X0059095Y0153418D01*
X0058754Y0152886D01*
X0058529Y0152296D01*
X0058429Y0151673D01*
X0058458Y0151042D01*
X0058616Y0150430D01*
X0058896Y0149864D01*
X0059285Y0149366D01*
X0059767Y0148959D01*
X0060323Y0148658D01*
X0058910Y0145248D01*
X0057914Y0145761D01*
X0055440Y0143744D01*
X0053744Y0145440D01*
X0055761Y0147914D01*
X0055248Y0148911D01*
X0054907Y0149978D01*
X0051731Y0150300D01*
X0051731Y0152700D01*
X0054907Y0153022D01*
X0055248Y0154089D01*
X0055761Y0155086D01*
X0053744Y0157560D01*
X0055440Y0159256D01*
X0057914Y0157239D01*
X0058911Y0157752D01*
X0059978Y0158093D01*
X0060300Y0161269D01*
X0062700Y0161269D01*
X0063022Y0158093D01*
X0064089Y0157752D01*
X0065086Y0157239D01*
X0067560Y0159256D01*
X0069256Y0157560D01*
X0067239Y0155086D01*
X0067752Y0154089D01*
X0068093Y0153022D01*
X0071269Y0152700D01*
X0071269Y0150300D01*
X0071269Y0150457D02*
X0064383Y0150457D01*
X0064473Y0150756D02*
X0071269Y0150756D01*
X0071269Y0151054D02*
X0064532Y0151054D01*
X0064561Y0151353D02*
X0071269Y0151353D01*
X0071269Y0151651D02*
X0064560Y0151651D01*
X0064530Y0151950D02*
X0071269Y0151950D01*
X0071269Y0152248D02*
X0064473Y0152248D01*
X0064378Y0152547D02*
X0071269Y0152547D01*
X0069835Y0152845D02*
X0064254Y0152845D01*
X0064086Y0153144D02*
X0068054Y0153144D01*
X0067959Y0153442D02*
X0063866Y0153442D01*
X0063605Y0153741D02*
X0067863Y0153741D01*
X0067768Y0154039D02*
X0063214Y0154039D01*
X0062655Y0154338D02*
X0067624Y0154338D01*
X0067470Y0154636D02*
X0055530Y0154636D01*
X0055376Y0154338D02*
X0060356Y0154338D01*
X0059793Y0154039D02*
X0055232Y0154039D01*
X0055137Y0153741D02*
X0059412Y0153741D01*
X0059119Y0153442D02*
X0055041Y0153442D01*
X0054946Y0153144D02*
X0058919Y0153144D01*
X0058739Y0152845D02*
X0053165Y0152845D01*
X0051731Y0152547D02*
X0058625Y0152547D01*
X0058521Y0152248D02*
X0051731Y0152248D01*
X0051731Y0151950D02*
X0058473Y0151950D01*
X0058430Y0151651D02*
X0051731Y0151651D01*
X0051731Y0151353D02*
X0058444Y0151353D01*
X0058458Y0151054D02*
X0051731Y0151054D01*
X0051731Y0150756D02*
X0058532Y0150756D01*
X0058609Y0150457D02*
X0051731Y0150457D01*
X0053127Y0150159D02*
X0058750Y0150159D01*
X0058898Y0149860D02*
X0054944Y0149860D01*
X0055040Y0149562D02*
X0059132Y0149562D01*
X0059407Y0149263D02*
X0055135Y0149263D01*
X0055231Y0148965D02*
X0059760Y0148965D01*
X0060308Y0148666D02*
X0055374Y0148666D01*
X0055528Y0148368D02*
X0060202Y0148368D01*
X0060079Y0148069D02*
X0055682Y0148069D01*
X0055644Y0147771D02*
X0059955Y0147771D01*
X0059831Y0147472D02*
X0055401Y0147472D01*
X0055157Y0147174D02*
X0059708Y0147174D01*
X0059584Y0146875D02*
X0054914Y0146875D01*
X0054671Y0146577D02*
X0059461Y0146577D01*
X0059337Y0146278D02*
X0054427Y0146278D01*
X0054184Y0145979D02*
X0059213Y0145979D01*
X0059090Y0145681D02*
X0058070Y0145681D01*
X0057816Y0145681D02*
X0053940Y0145681D01*
X0053802Y0145382D02*
X0057449Y0145382D01*
X0057083Y0145084D02*
X0054100Y0145084D01*
X0054399Y0144785D02*
X0056717Y0144785D01*
X0056351Y0144487D02*
X0054697Y0144487D01*
X0054996Y0144188D02*
X0055985Y0144188D01*
X0055619Y0143890D02*
X0055294Y0143890D01*
X0058649Y0145382D02*
X0058966Y0145382D01*
X0063292Y0147174D02*
X0067843Y0147174D01*
X0067599Y0147472D02*
X0063169Y0147472D01*
X0063045Y0147771D02*
X0067356Y0147771D01*
X0067318Y0148069D02*
X0062921Y0148069D01*
X0062798Y0148368D02*
X0067472Y0148368D01*
X0067626Y0148666D02*
X0062692Y0148666D01*
X0063236Y0148965D02*
X0067769Y0148965D01*
X0067865Y0149263D02*
X0063600Y0149263D01*
X0063869Y0149562D02*
X0067960Y0149562D01*
X0068056Y0149860D02*
X0064095Y0149860D01*
X0064254Y0150159D02*
X0069873Y0150159D01*
X0068086Y0146875D02*
X0063416Y0146875D01*
X0063539Y0146577D02*
X0068329Y0146577D01*
X0068573Y0146278D02*
X0063663Y0146278D01*
X0063787Y0145979D02*
X0068816Y0145979D01*
X0069060Y0145681D02*
X0065184Y0145681D01*
X0064930Y0145681D02*
X0063910Y0145681D01*
X0064034Y0145382D02*
X0064351Y0145382D01*
X0065551Y0145382D02*
X0069198Y0145382D01*
X0068900Y0145084D02*
X0065917Y0145084D01*
X0066283Y0144785D02*
X0068601Y0144785D01*
X0068303Y0144487D02*
X0066649Y0144487D01*
X0067015Y0144188D02*
X0068004Y0144188D01*
X0067706Y0143890D02*
X0067381Y0143890D01*
X0067316Y0154935D02*
X0055684Y0154935D01*
X0055641Y0155233D02*
X0067359Y0155233D01*
X0067602Y0155532D02*
X0055398Y0155532D01*
X0055154Y0155830D02*
X0067846Y0155830D01*
X0068089Y0156129D02*
X0054911Y0156129D01*
X0054668Y0156427D02*
X0068332Y0156427D01*
X0068576Y0156726D02*
X0054424Y0156726D01*
X0054181Y0157024D02*
X0068819Y0157024D01*
X0069063Y0157323D02*
X0065189Y0157323D01*
X0064922Y0157323D02*
X0058078Y0157323D01*
X0057811Y0157323D02*
X0053937Y0157323D01*
X0053806Y0157621D02*
X0057445Y0157621D01*
X0057079Y0157920D02*
X0054104Y0157920D01*
X0054403Y0158218D02*
X0056712Y0158218D01*
X0056346Y0158517D02*
X0054701Y0158517D01*
X0055000Y0158815D02*
X0055980Y0158815D01*
X0055614Y0159114D02*
X0055298Y0159114D01*
X0058658Y0157621D02*
X0064342Y0157621D01*
X0063564Y0157920D02*
X0059436Y0157920D01*
X0059991Y0158218D02*
X0063009Y0158218D01*
X0062979Y0158517D02*
X0060021Y0158517D01*
X0060051Y0158815D02*
X0062949Y0158815D01*
X0062918Y0159114D02*
X0060082Y0159114D01*
X0060112Y0159412D02*
X0062888Y0159412D01*
X0062858Y0159711D02*
X0060142Y0159711D01*
X0060172Y0160010D02*
X0062827Y0160010D01*
X0062797Y0160308D02*
X0060203Y0160308D01*
X0060233Y0160607D02*
X0062767Y0160607D01*
X0062737Y0160905D02*
X0060263Y0160905D01*
X0060294Y0161204D02*
X0062706Y0161204D01*
X0065555Y0157621D02*
X0069194Y0157621D01*
X0068896Y0157920D02*
X0065921Y0157920D01*
X0066288Y0158218D02*
X0068597Y0158218D01*
X0068299Y0158517D02*
X0066654Y0158517D01*
X0067020Y0158815D02*
X0068000Y0158815D01*
X0067702Y0159114D02*
X0067386Y0159114D01*
D14*
X0068000Y0136898D02*
X0055402Y0123906D01*
X0058276Y0125520D02*
X0058236Y0125874D01*
X0058276Y0126228D01*
X0058433Y0126504D01*
X0058669Y0126661D01*
X0058748Y0126780D02*
X0059102Y0126819D01*
X0059496Y0126780D01*
X0059890Y0126543D01*
X0060008Y0126307D01*
X0060126Y0126031D01*
X0060126Y0125717D01*
X0059969Y0125362D01*
X0059772Y0125126D01*
X0059496Y0124969D01*
X0059142Y0124929D01*
X0058748Y0125008D01*
X0058472Y0125205D01*
X0058276Y0125520D01*
X0058945Y0125795D02*
X0059024Y0125677D01*
X0059142Y0125638D01*
X0059260Y0125638D01*
X0059378Y0125717D01*
X0059417Y0125835D01*
X0059417Y0125953D01*
X0059339Y0126071D01*
X0059220Y0126110D01*
X0059181Y0125913D01*
X0059142Y0126110D02*
X0059024Y0126071D01*
X0058945Y0125953D01*
X0058945Y0125795D01*
X0058748Y0126780D02*
X0058197Y0133079D01*
X0057331Y0133079D01*
X0057331Y0134220D01*
X0058079Y0134220D01*
X0058472Y0134220D01*
X0058472Y0133079D01*
X0058197Y0133079D01*
X0058079Y0134220D02*
X0058079Y0134929D01*
X0058236Y0135362D01*
X0058512Y0135717D01*
X0058787Y0135953D01*
X0059142Y0136110D01*
X0059654Y0136228D01*
X0060126Y0136307D01*
X0060165Y0136031D02*
X0060165Y0136622D01*
X0061898Y0136622D01*
X0061898Y0136150D01*
X0061937Y0136031D02*
X0060165Y0136031D01*
X0061937Y0136031D02*
X0061937Y0136307D01*
X0062173Y0136307D01*
X0062488Y0136268D01*
X0062843Y0136228D01*
X0063315Y0136071D01*
X0063709Y0135913D01*
X0064024Y0135677D01*
X0064260Y0135362D01*
X0064378Y0134850D01*
X0063591Y0125677D01*
X0063079Y0125677D01*
X0063079Y0124811D01*
X0062803Y0124693D02*
X0062803Y0125677D01*
X0063079Y0125677D01*
X0062803Y0125677D02*
X0060087Y0125677D01*
X0062803Y0124693D02*
X0063394Y0124693D01*
X0063394Y0125638D01*
X0068000Y0123512D02*
X0055008Y0136898D01*
X0057409Y0135520D02*
X0057370Y0135323D01*
X0057409Y0135165D01*
X0057488Y0135087D01*
X0057685Y0135008D01*
X0057764Y0135008D01*
X0065008Y0135047D01*
X0065008Y0134811D01*
X0057764Y0134772D01*
X0057764Y0135008D01*
X0057921Y0135008D01*
X0057961Y0135165D01*
X0057724Y0135323D01*
X0057646Y0135677D02*
X0057528Y0135638D01*
X0057409Y0135520D01*
X0057646Y0135677D02*
X0057843Y0135677D01*
X0058000Y0135559D01*
X0058079Y0135402D01*
X0059732Y0132724D02*
X0061937Y0132724D01*
X0061937Y0132370D01*
X0059929Y0132370D01*
X0059732Y0132016D02*
X0059732Y0132724D01*
X0059732Y0132016D02*
X0061937Y0132016D01*
X0061937Y0132370D01*
X0063354Y0135087D02*
X0063354Y0136346D01*
X0063669Y0136346D01*
X0063669Y0136307D02*
X0063669Y0135087D01*
X0063354Y0135087D01*
D15*
X0061150Y0119417D03*
M02*
