G75*
%MOIN*%
%OFA0B0*%
%FSLAX24Y24*%
%IPPOS*%
%LPD*%
%AMOC8*
5,1,8,0,0,1.08239X$1,22.5*
%
%ADD10C,0.0000*%
%ADD11C,0.2540*%
%ADD12C,0.0540*%
%ADD13OC8,0.0540*%
%ADD14R,0.0531X0.0531*%
%ADD15C,0.0531*%
%ADD16OC8,0.0480*%
%ADD17C,0.0740*%
%ADD18C,0.0100*%
%ADD19C,0.0270*%
D10*
X006110Y000150D02*
X006110Y026150D01*
X026110Y026150D01*
X026110Y017350D01*
X026109Y000148D01*
X006110Y000150D01*
X009980Y024150D02*
X009982Y024200D01*
X009988Y024250D01*
X009998Y024299D01*
X010012Y024347D01*
X010029Y024394D01*
X010050Y024439D01*
X010075Y024483D01*
X010103Y024524D01*
X010135Y024563D01*
X010169Y024600D01*
X010206Y024634D01*
X010246Y024664D01*
X010288Y024691D01*
X010332Y024715D01*
X010378Y024736D01*
X010425Y024752D01*
X010473Y024765D01*
X010523Y024774D01*
X010572Y024779D01*
X010623Y024780D01*
X010673Y024777D01*
X010722Y024770D01*
X010771Y024759D01*
X010819Y024744D01*
X010865Y024726D01*
X010910Y024704D01*
X010953Y024678D01*
X010994Y024649D01*
X011033Y024617D01*
X011069Y024582D01*
X011101Y024544D01*
X011131Y024504D01*
X011158Y024461D01*
X011181Y024417D01*
X011200Y024371D01*
X011216Y024323D01*
X011228Y024274D01*
X011236Y024225D01*
X011240Y024175D01*
X011240Y024125D01*
X011236Y024075D01*
X011228Y024026D01*
X011216Y023977D01*
X011200Y023929D01*
X011181Y023883D01*
X011158Y023839D01*
X011131Y023796D01*
X011101Y023756D01*
X011069Y023718D01*
X011033Y023683D01*
X010994Y023651D01*
X010953Y023622D01*
X010910Y023596D01*
X010865Y023574D01*
X010819Y023556D01*
X010771Y023541D01*
X010722Y023530D01*
X010673Y023523D01*
X010623Y023520D01*
X010572Y023521D01*
X010523Y023526D01*
X010473Y023535D01*
X010425Y023548D01*
X010378Y023564D01*
X010332Y023585D01*
X010288Y023609D01*
X010246Y023636D01*
X010206Y023666D01*
X010169Y023700D01*
X010135Y023737D01*
X010103Y023776D01*
X010075Y023817D01*
X010050Y023861D01*
X010029Y023906D01*
X010012Y023953D01*
X009998Y024001D01*
X009988Y024050D01*
X009982Y024100D01*
X009980Y024150D01*
X019980Y024150D02*
X019982Y024200D01*
X019988Y024250D01*
X019998Y024299D01*
X020012Y024347D01*
X020029Y024394D01*
X020050Y024439D01*
X020075Y024483D01*
X020103Y024524D01*
X020135Y024563D01*
X020169Y024600D01*
X020206Y024634D01*
X020246Y024664D01*
X020288Y024691D01*
X020332Y024715D01*
X020378Y024736D01*
X020425Y024752D01*
X020473Y024765D01*
X020523Y024774D01*
X020572Y024779D01*
X020623Y024780D01*
X020673Y024777D01*
X020722Y024770D01*
X020771Y024759D01*
X020819Y024744D01*
X020865Y024726D01*
X020910Y024704D01*
X020953Y024678D01*
X020994Y024649D01*
X021033Y024617D01*
X021069Y024582D01*
X021101Y024544D01*
X021131Y024504D01*
X021158Y024461D01*
X021181Y024417D01*
X021200Y024371D01*
X021216Y024323D01*
X021228Y024274D01*
X021236Y024225D01*
X021240Y024175D01*
X021240Y024125D01*
X021236Y024075D01*
X021228Y024026D01*
X021216Y023977D01*
X021200Y023929D01*
X021181Y023883D01*
X021158Y023839D01*
X021131Y023796D01*
X021101Y023756D01*
X021069Y023718D01*
X021033Y023683D01*
X020994Y023651D01*
X020953Y023622D01*
X020910Y023596D01*
X020865Y023574D01*
X020819Y023556D01*
X020771Y023541D01*
X020722Y023530D01*
X020673Y023523D01*
X020623Y023520D01*
X020572Y023521D01*
X020523Y023526D01*
X020473Y023535D01*
X020425Y023548D01*
X020378Y023564D01*
X020332Y023585D01*
X020288Y023609D01*
X020246Y023636D01*
X020206Y023666D01*
X020169Y023700D01*
X020135Y023737D01*
X020103Y023776D01*
X020075Y023817D01*
X020050Y023861D01*
X020029Y023906D01*
X020012Y023953D01*
X019998Y024001D01*
X019988Y024050D01*
X019982Y024100D01*
X019980Y024150D01*
D11*
X020610Y024150D03*
X010610Y024150D03*
D12*
X008110Y002150D03*
D13*
X008110Y001150D03*
X009110Y001150D03*
X010110Y001150D03*
X010110Y002150D03*
X009110Y002150D03*
X011110Y002150D03*
X012110Y002150D03*
X012110Y001150D03*
X011110Y001150D03*
X013110Y001150D03*
X014110Y001150D03*
X014110Y002150D03*
X013110Y002150D03*
X015110Y002150D03*
X016110Y002150D03*
X016110Y001150D03*
X015110Y001150D03*
X017110Y001150D03*
X018110Y001150D03*
X018110Y002150D03*
X017110Y002150D03*
X019110Y002150D03*
X020110Y002150D03*
X020110Y001150D03*
X019110Y001150D03*
X021110Y001150D03*
X022110Y001150D03*
X022110Y002150D03*
X021110Y002150D03*
X023110Y002150D03*
X023110Y001150D03*
D14*
X024410Y006550D03*
D15*
X024410Y007340D03*
X024410Y008130D03*
X024410Y008920D03*
X024410Y009710D03*
X024410Y010500D03*
X024410Y011290D03*
X024410Y012080D03*
X024410Y012870D03*
X024410Y013660D03*
X024430Y014450D03*
X024430Y015240D03*
X024430Y016030D03*
X024430Y016820D03*
X024430Y017610D03*
X024430Y018400D03*
X024430Y019190D03*
X024430Y019980D03*
X024430Y020770D03*
X024430Y021560D03*
X010250Y021600D03*
X010250Y020810D03*
X010250Y020020D03*
X010250Y019230D03*
X010250Y018440D03*
X010250Y017650D03*
X010250Y016860D03*
X010250Y016070D03*
X010250Y015280D03*
X010250Y014490D03*
X010230Y013700D03*
X010230Y012910D03*
X010230Y012120D03*
X010230Y011330D03*
X010230Y010540D03*
X010230Y009750D03*
X010230Y008960D03*
X010230Y008170D03*
X010230Y007380D03*
X010230Y006590D03*
D16*
X020110Y010150D03*
X022110Y010150D03*
X022110Y014150D03*
X020110Y014150D03*
D17*
X018110Y021150D03*
X017110Y021150D03*
X016110Y021150D03*
X015110Y021150D03*
X014110Y021150D03*
X013110Y021150D03*
X023610Y023650D03*
X023610Y024650D03*
X024610Y024650D03*
X024610Y023650D03*
D18*
X024610Y022950D01*
X023210Y021550D01*
X023210Y017550D01*
X023940Y016820D01*
X024430Y016820D01*
X024689Y017092D02*
X025860Y017092D01*
X025860Y016994D02*
X024765Y016994D01*
X024749Y017033D02*
X024806Y016895D01*
X024806Y016745D01*
X024749Y016607D01*
X024643Y016501D01*
X024505Y016444D01*
X024355Y016444D01*
X024217Y016501D01*
X024111Y016607D01*
X024090Y016660D01*
X023874Y016660D01*
X023170Y017364D01*
X023170Y016616D01*
X024225Y015562D01*
X024355Y015616D01*
X024505Y015616D01*
X024643Y015559D01*
X024749Y015453D01*
X024806Y015315D01*
X024806Y015165D01*
X024749Y015027D01*
X024643Y014921D01*
X024505Y014864D01*
X024355Y014864D01*
X024217Y014921D01*
X024111Y015027D01*
X024070Y015127D01*
X024070Y014563D01*
X024111Y014663D01*
X024217Y014769D01*
X024355Y014826D01*
X024505Y014826D01*
X024643Y014769D01*
X024749Y014663D01*
X024806Y014525D01*
X024806Y014375D01*
X024749Y014237D01*
X024643Y014131D01*
X024505Y014074D01*
X024355Y014074D01*
X024217Y014131D01*
X024111Y014237D01*
X024070Y014337D01*
X024070Y013821D01*
X024091Y013873D01*
X024197Y013979D01*
X024335Y014036D01*
X024485Y014036D01*
X024623Y013979D01*
X024729Y013873D01*
X024786Y013735D01*
X024786Y013585D01*
X024729Y013447D01*
X024623Y013341D01*
X024485Y013284D01*
X024335Y013284D01*
X024197Y013341D01*
X024091Y013447D01*
X024070Y013499D01*
X024070Y013031D01*
X024091Y013083D01*
X024197Y013189D01*
X024335Y013246D01*
X024485Y013246D01*
X024623Y013189D01*
X024729Y013083D01*
X024786Y012945D01*
X024786Y012795D01*
X024729Y012657D01*
X024623Y012551D01*
X024485Y012494D01*
X024335Y012494D01*
X024197Y012551D01*
X024091Y012657D01*
X024070Y012709D01*
X024070Y012241D01*
X024091Y012293D01*
X024197Y012399D01*
X024335Y012456D01*
X024485Y012456D01*
X024623Y012399D01*
X024729Y012293D01*
X024786Y012155D01*
X024786Y012005D01*
X024729Y011867D01*
X024623Y011761D01*
X024485Y011704D01*
X024335Y011704D01*
X024197Y011761D01*
X024091Y011867D01*
X024070Y011919D01*
X024070Y011451D01*
X024091Y011503D01*
X024197Y011609D01*
X024335Y011666D01*
X024485Y011666D01*
X024623Y011609D01*
X024729Y011503D01*
X024786Y011365D01*
X024786Y011215D01*
X024729Y011077D01*
X024623Y010971D01*
X024485Y010914D01*
X024335Y010914D01*
X024197Y010971D01*
X024091Y011077D01*
X024070Y011129D01*
X024070Y010916D01*
X024182Y010804D01*
X024197Y010819D01*
X024335Y010876D01*
X024485Y010876D01*
X024623Y010819D01*
X024729Y010713D01*
X024786Y010575D01*
X024786Y010425D01*
X024729Y010287D01*
X024623Y010181D01*
X024485Y010124D01*
X024335Y010124D01*
X024282Y010146D01*
X022770Y008634D01*
X022770Y007084D01*
X022676Y006990D01*
X019676Y003990D01*
X016176Y003990D01*
X015176Y002990D01*
X013176Y002990D01*
X012490Y002304D01*
X012490Y001993D01*
X012267Y001770D01*
X011953Y001770D01*
X011730Y001993D01*
X011730Y002307D01*
X011953Y002530D01*
X012264Y002530D01*
X012950Y003216D01*
X013044Y003310D01*
X015044Y003310D01*
X015950Y004216D01*
X016044Y004310D01*
X019544Y004310D01*
X022450Y007216D01*
X022450Y008766D01*
X022589Y008905D01*
X022561Y008905D01*
X022471Y008942D01*
X022424Y008990D01*
X022044Y008990D01*
X016544Y014490D01*
X016450Y014584D01*
X016450Y020584D01*
X016317Y020716D01*
X016205Y020670D01*
X016015Y020670D01*
X015838Y020743D01*
X015703Y020878D01*
X015630Y021055D01*
X015630Y021245D01*
X015703Y021422D01*
X015838Y021557D01*
X016015Y021630D01*
X016205Y021630D01*
X016382Y021557D01*
X016517Y021422D01*
X016590Y021245D01*
X016590Y021055D01*
X016544Y020943D01*
X016770Y020716D01*
X016770Y014716D01*
X016950Y014536D01*
X016950Y020697D01*
X016838Y020743D01*
X016703Y020878D01*
X016630Y021055D01*
X016630Y021245D01*
X016703Y021422D01*
X016838Y021557D01*
X017015Y021630D01*
X017205Y021630D01*
X017382Y021557D01*
X017517Y021422D01*
X017590Y021245D01*
X017590Y021055D01*
X017517Y020878D01*
X017382Y020743D01*
X017270Y020697D01*
X017270Y014516D01*
X021760Y010026D01*
X021760Y010295D01*
X021965Y010500D01*
X022255Y010500D01*
X022460Y010295D01*
X022460Y010005D01*
X022265Y009810D01*
X022724Y009810D01*
X022771Y009858D01*
X022861Y009895D01*
X022959Y009895D01*
X023049Y009858D01*
X023118Y009789D01*
X023155Y009699D01*
X023155Y009601D01*
X023118Y009511D01*
X023049Y009442D01*
X022959Y009405D01*
X022861Y009405D01*
X022771Y009442D01*
X022724Y009490D01*
X021996Y009490D01*
X022176Y009310D01*
X022424Y009310D01*
X022471Y009358D01*
X022561Y009395D01*
X022659Y009395D01*
X022749Y009358D01*
X022818Y009289D01*
X022855Y009199D01*
X022855Y009171D01*
X024056Y010372D01*
X024034Y010425D01*
X024034Y010499D01*
X023844Y010690D01*
X023770Y010764D01*
X023770Y010636D01*
X023818Y010589D01*
X023855Y010499D01*
X023855Y010401D01*
X023818Y010311D01*
X023749Y010242D01*
X023659Y010205D01*
X023561Y010205D01*
X023471Y010242D01*
X023402Y010311D01*
X023365Y010401D01*
X023365Y010499D01*
X023402Y010589D01*
X023450Y010636D01*
X023450Y015084D01*
X022544Y015990D01*
X022450Y016084D01*
X022450Y024716D01*
X023150Y025416D01*
X023244Y025510D01*
X024476Y025510D01*
X024676Y025310D01*
X024770Y025216D01*
X024770Y025103D01*
X024882Y025057D01*
X025017Y024922D01*
X025090Y024745D01*
X025090Y024555D01*
X025017Y024378D01*
X024882Y024243D01*
X024705Y024170D01*
X024515Y024170D01*
X024338Y024243D01*
X024203Y024378D01*
X024130Y024555D01*
X024130Y024745D01*
X024203Y024922D01*
X024338Y025057D01*
X024436Y025098D01*
X024344Y025190D01*
X023376Y025190D01*
X022770Y024584D01*
X022770Y024036D01*
X023176Y024443D01*
X023130Y024555D01*
X023130Y024745D01*
X023203Y024922D01*
X023338Y025057D01*
X023515Y025130D01*
X023705Y025130D01*
X023882Y025057D01*
X024017Y024922D01*
X024090Y024745D01*
X024090Y024555D01*
X024017Y024378D01*
X023882Y024243D01*
X023705Y024170D01*
X023515Y024170D01*
X023403Y024216D01*
X022970Y023784D01*
X022970Y022136D01*
X023450Y022616D01*
X023450Y023197D01*
X023338Y023243D01*
X023203Y023378D01*
X023130Y023555D01*
X023130Y023745D01*
X023203Y023922D01*
X023338Y024057D01*
X023515Y024130D01*
X023705Y024130D01*
X023882Y024057D01*
X024017Y023922D01*
X024090Y023745D01*
X024090Y023555D01*
X024017Y023378D01*
X023882Y023243D01*
X023770Y023197D01*
X023770Y022484D01*
X023676Y022390D01*
X023170Y021884D01*
X023170Y021736D01*
X024450Y023016D01*
X024450Y023197D01*
X024338Y023243D01*
X024203Y023378D01*
X024130Y023555D01*
X024130Y023745D01*
X024203Y023922D01*
X024338Y024057D01*
X024515Y024130D01*
X024705Y024130D01*
X024882Y024057D01*
X025017Y023922D01*
X025090Y023745D01*
X025090Y023555D01*
X025017Y023378D01*
X024882Y023243D01*
X024770Y023197D01*
X024770Y022884D01*
X024676Y022790D01*
X023370Y021484D01*
X023370Y017616D01*
X024006Y016980D01*
X024090Y016980D01*
X024111Y017033D01*
X024217Y017139D01*
X024355Y017196D01*
X024505Y017196D01*
X024643Y017139D01*
X024749Y017033D01*
X024806Y016895D02*
X025860Y016895D01*
X025860Y016797D02*
X024806Y016797D01*
X024786Y016698D02*
X025860Y016698D01*
X025860Y016600D02*
X024741Y016600D01*
X024642Y016501D02*
X025860Y016501D01*
X025860Y016403D02*
X024512Y016403D01*
X024505Y016406D02*
X024355Y016406D01*
X024217Y016349D01*
X024111Y016243D01*
X024054Y016105D01*
X024054Y015955D01*
X024111Y015817D01*
X024217Y015711D01*
X024355Y015654D01*
X024505Y015654D01*
X024643Y015711D01*
X024749Y015817D01*
X024806Y015955D01*
X024806Y016105D01*
X024749Y016243D01*
X024643Y016349D01*
X024505Y016406D01*
X024348Y016403D02*
X023384Y016403D01*
X023285Y016501D02*
X024218Y016501D01*
X024119Y016600D02*
X023187Y016600D01*
X023170Y016698D02*
X023836Y016698D01*
X023737Y016797D02*
X023170Y016797D01*
X023170Y016895D02*
X023639Y016895D01*
X023540Y016994D02*
X023170Y016994D01*
X023170Y017092D02*
X023442Y017092D01*
X023343Y017191D02*
X023170Y017191D01*
X023170Y017289D02*
X023245Y017289D01*
X023500Y017486D02*
X024075Y017486D01*
X024054Y017535D02*
X024111Y017397D01*
X024217Y017291D01*
X024355Y017234D01*
X024505Y017234D01*
X024643Y017291D01*
X024749Y017397D01*
X024806Y017535D01*
X024806Y017685D01*
X024749Y017823D01*
X024643Y017929D01*
X024505Y017986D01*
X024355Y017986D01*
X024217Y017929D01*
X024111Y017823D01*
X024054Y017685D01*
X024054Y017535D01*
X024054Y017585D02*
X023402Y017585D01*
X023370Y017683D02*
X024054Y017683D01*
X024094Y017782D02*
X023370Y017782D01*
X023370Y017880D02*
X024169Y017880D01*
X024338Y017979D02*
X023370Y017979D01*
X023370Y018077D02*
X024228Y018077D01*
X024217Y018081D02*
X024355Y018024D01*
X024505Y018024D01*
X024643Y018081D01*
X024749Y018187D01*
X024806Y018325D01*
X024806Y018475D01*
X024749Y018613D01*
X024643Y018719D01*
X024505Y018776D01*
X024355Y018776D01*
X024217Y018719D01*
X024111Y018613D01*
X024054Y018475D01*
X024054Y018325D01*
X024111Y018187D01*
X024217Y018081D01*
X024123Y018176D02*
X023370Y018176D01*
X023370Y018274D02*
X024075Y018274D01*
X024054Y018373D02*
X023370Y018373D01*
X023370Y018471D02*
X024054Y018471D01*
X024094Y018570D02*
X023370Y018570D01*
X023370Y018668D02*
X024167Y018668D01*
X024333Y018767D02*
X023370Y018767D01*
X023370Y018865D02*
X024233Y018865D01*
X024217Y018871D02*
X024355Y018814D01*
X024505Y018814D01*
X024643Y018871D01*
X024749Y018977D01*
X024806Y019115D01*
X024806Y019265D01*
X024749Y019403D01*
X024643Y019509D01*
X024505Y019566D01*
X024355Y019566D01*
X024217Y019509D01*
X024111Y019403D01*
X024054Y019265D01*
X024054Y019115D01*
X024111Y018977D01*
X024217Y018871D01*
X024125Y018964D02*
X023370Y018964D01*
X023370Y019062D02*
X024076Y019062D01*
X024054Y019161D02*
X023370Y019161D01*
X023370Y019259D02*
X024054Y019259D01*
X024093Y019358D02*
X023370Y019358D01*
X023370Y019456D02*
X024165Y019456D01*
X024328Y019555D02*
X023370Y019555D01*
X023370Y019653D02*
X024237Y019653D01*
X024217Y019661D02*
X024355Y019604D01*
X024505Y019604D01*
X024643Y019661D01*
X024749Y019767D01*
X024806Y019905D01*
X024806Y020055D01*
X024749Y020193D01*
X024643Y020299D01*
X024505Y020356D01*
X024472Y020356D01*
X024527Y020364D01*
X024590Y020385D01*
X024648Y020414D01*
X024701Y020453D01*
X024747Y020499D01*
X024786Y020552D01*
X024815Y020610D01*
X024836Y020673D01*
X024845Y020731D01*
X024469Y020731D01*
X024469Y020809D01*
X024845Y020809D01*
X024836Y020867D01*
X024815Y020930D01*
X024786Y020988D01*
X024747Y021041D01*
X024701Y021087D01*
X024648Y021126D01*
X024590Y021155D01*
X024527Y021176D01*
X024472Y021184D01*
X024505Y021184D01*
X024643Y021241D01*
X024749Y021347D01*
X024806Y021485D01*
X024806Y021635D01*
X024749Y021773D01*
X024643Y021879D01*
X024505Y021936D01*
X024355Y021936D01*
X024217Y021879D01*
X024111Y021773D01*
X024054Y021635D01*
X024054Y021485D01*
X024111Y021347D01*
X024217Y021241D01*
X024355Y021184D01*
X024388Y021184D01*
X024333Y021176D01*
X024270Y021155D01*
X024212Y021126D01*
X024159Y021087D01*
X024113Y021041D01*
X024074Y020988D01*
X024045Y020930D01*
X024024Y020867D01*
X024015Y020809D01*
X024391Y020809D01*
X024391Y020731D01*
X024015Y020731D01*
X024024Y020673D01*
X024045Y020610D01*
X024074Y020552D01*
X024113Y020499D01*
X024159Y020453D01*
X024212Y020414D01*
X024270Y020385D01*
X024333Y020364D01*
X024388Y020356D01*
X024355Y020356D01*
X024217Y020299D01*
X024111Y020193D01*
X024054Y020055D01*
X024054Y019905D01*
X024111Y019767D01*
X024217Y019661D01*
X024127Y019752D02*
X023370Y019752D01*
X023370Y019850D02*
X024077Y019850D01*
X024054Y019949D02*
X023370Y019949D01*
X023370Y020047D02*
X024054Y020047D01*
X024092Y020146D02*
X023370Y020146D01*
X023370Y020244D02*
X024163Y020244D01*
X024323Y020343D02*
X023370Y020343D01*
X023370Y020441D02*
X024175Y020441D01*
X024084Y020540D02*
X023370Y020540D01*
X023370Y020638D02*
X024036Y020638D01*
X024019Y020835D02*
X023370Y020835D01*
X023370Y020737D02*
X024391Y020737D01*
X024469Y020737D02*
X025860Y020737D01*
X025860Y020835D02*
X024841Y020835D01*
X024813Y020934D02*
X025860Y020934D01*
X025860Y021032D02*
X024753Y021032D01*
X024638Y021131D02*
X025860Y021131D01*
X025860Y021229D02*
X024613Y021229D01*
X024729Y021328D02*
X025860Y021328D01*
X025860Y021426D02*
X024781Y021426D01*
X024806Y021525D02*
X025860Y021525D01*
X025860Y021623D02*
X024806Y021623D01*
X024770Y021722D02*
X025860Y021722D01*
X025860Y021820D02*
X024701Y021820D01*
X024546Y021919D02*
X025860Y021919D01*
X025860Y022017D02*
X023903Y022017D01*
X023805Y021919D02*
X024314Y021919D01*
X024159Y021820D02*
X023706Y021820D01*
X023608Y021722D02*
X024090Y021722D01*
X024054Y021623D02*
X023509Y021623D01*
X023411Y021525D02*
X024054Y021525D01*
X024079Y021426D02*
X023370Y021426D01*
X023370Y021328D02*
X024131Y021328D01*
X024247Y021229D02*
X023370Y021229D01*
X023370Y021131D02*
X024222Y021131D01*
X024107Y021032D02*
X023370Y021032D01*
X023370Y020934D02*
X024047Y020934D01*
X024537Y020343D02*
X025860Y020343D01*
X025860Y020441D02*
X024685Y020441D01*
X024776Y020540D02*
X025860Y020540D01*
X025860Y020638D02*
X024824Y020638D01*
X024697Y020244D02*
X025860Y020244D01*
X025860Y020146D02*
X024768Y020146D01*
X024806Y020047D02*
X025860Y020047D01*
X025860Y019949D02*
X024806Y019949D01*
X024783Y019850D02*
X025860Y019850D01*
X025860Y019752D02*
X024733Y019752D01*
X024623Y019653D02*
X025860Y019653D01*
X025860Y019555D02*
X024532Y019555D01*
X024695Y019456D02*
X025860Y019456D01*
X025860Y019358D02*
X024767Y019358D01*
X024806Y019259D02*
X025860Y019259D01*
X025860Y019161D02*
X024806Y019161D01*
X024784Y019062D02*
X025860Y019062D01*
X025860Y018964D02*
X024735Y018964D01*
X024627Y018865D02*
X025860Y018865D01*
X025860Y018767D02*
X024527Y018767D01*
X024693Y018668D02*
X025860Y018668D01*
X025860Y018570D02*
X024766Y018570D01*
X024806Y018471D02*
X025860Y018471D01*
X025860Y018373D02*
X024806Y018373D01*
X024785Y018274D02*
X025860Y018274D01*
X025860Y018176D02*
X024737Y018176D01*
X024632Y018077D02*
X025860Y018077D01*
X025860Y017979D02*
X024522Y017979D01*
X024691Y017880D02*
X025860Y017880D01*
X025860Y017782D02*
X024766Y017782D01*
X024806Y017683D02*
X025860Y017683D01*
X025860Y017585D02*
X024806Y017585D01*
X024785Y017486D02*
X025860Y017486D01*
X025860Y017388D02*
X024739Y017388D01*
X024637Y017289D02*
X025860Y017289D01*
X025860Y017346D02*
X025859Y000398D01*
X006360Y000400D01*
X006360Y025900D01*
X025860Y025900D01*
X025860Y017346D01*
X025860Y017191D02*
X024517Y017191D01*
X024343Y017191D02*
X023796Y017191D01*
X023697Y017289D02*
X024223Y017289D01*
X024121Y017388D02*
X023599Y017388D01*
X023894Y017092D02*
X024171Y017092D01*
X024095Y016994D02*
X023993Y016994D01*
X024173Y016304D02*
X023482Y016304D01*
X023581Y016206D02*
X024096Y016206D01*
X024055Y016107D02*
X023679Y016107D01*
X023778Y016009D02*
X024054Y016009D01*
X024073Y015910D02*
X023876Y015910D01*
X023975Y015812D02*
X024117Y015812D01*
X024073Y015713D02*
X024216Y015713D01*
X024172Y015615D02*
X024352Y015615D01*
X024508Y015615D02*
X025860Y015615D01*
X025860Y015713D02*
X024644Y015713D01*
X024743Y015812D02*
X025860Y015812D01*
X025860Y015910D02*
X024787Y015910D01*
X024806Y016009D02*
X025860Y016009D01*
X025860Y016107D02*
X024805Y016107D01*
X024764Y016206D02*
X025860Y016206D01*
X025860Y016304D02*
X024687Y016304D01*
X024685Y015516D02*
X025860Y015516D01*
X025860Y015418D02*
X024763Y015418D01*
X024804Y015319D02*
X025860Y015319D01*
X025860Y015221D02*
X024806Y015221D01*
X024788Y015122D02*
X025860Y015122D01*
X025860Y015024D02*
X024745Y015024D01*
X024646Y014925D02*
X025860Y014925D01*
X025860Y014827D02*
X024070Y014827D01*
X024070Y014925D02*
X024214Y014925D01*
X024115Y015024D02*
X024070Y015024D01*
X024070Y015122D02*
X024072Y015122D01*
X023910Y015250D02*
X022810Y016350D01*
X022810Y023850D01*
X023610Y024650D01*
X023161Y024480D02*
X022770Y024480D01*
X022770Y024578D02*
X023130Y024578D01*
X023130Y024677D02*
X022863Y024677D01*
X022961Y024775D02*
X023142Y024775D01*
X023183Y024874D02*
X023060Y024874D01*
X023158Y024972D02*
X023253Y024972D01*
X023257Y025071D02*
X023371Y025071D01*
X023355Y025169D02*
X024365Y025169D01*
X024371Y025071D02*
X023849Y025071D01*
X023967Y024972D02*
X024253Y024972D01*
X024183Y024874D02*
X024037Y024874D01*
X024078Y024775D02*
X024142Y024775D01*
X024130Y024677D02*
X024090Y024677D01*
X024090Y024578D02*
X024130Y024578D01*
X024161Y024480D02*
X024059Y024480D01*
X024018Y024381D02*
X024202Y024381D01*
X024299Y024283D02*
X023921Y024283D01*
X023739Y024184D02*
X024481Y024184D01*
X024407Y024086D02*
X023813Y024086D01*
X023952Y023987D02*
X024268Y023987D01*
X024189Y023889D02*
X024031Y023889D01*
X024072Y023790D02*
X024148Y023790D01*
X024130Y023692D02*
X024090Y023692D01*
X024090Y023593D02*
X024130Y023593D01*
X024155Y023495D02*
X024065Y023495D01*
X024024Y023396D02*
X024196Y023396D01*
X024284Y023298D02*
X023936Y023298D01*
X023776Y023199D02*
X024444Y023199D01*
X024450Y023101D02*
X023770Y023101D01*
X023770Y023002D02*
X024436Y023002D01*
X024337Y022904D02*
X023770Y022904D01*
X023770Y022805D02*
X024239Y022805D01*
X024140Y022707D02*
X023770Y022707D01*
X023770Y022608D02*
X024042Y022608D01*
X023943Y022510D02*
X023770Y022510D01*
X023697Y022411D02*
X023845Y022411D01*
X023746Y022313D02*
X023599Y022313D01*
X023648Y022214D02*
X023500Y022214D01*
X023549Y022116D02*
X023402Y022116D01*
X023451Y022017D02*
X023303Y022017D01*
X023352Y021919D02*
X023205Y021919D01*
X023170Y021820D02*
X023254Y021820D01*
X023010Y021950D02*
X023610Y022550D01*
X023610Y023650D01*
X023284Y023298D02*
X022970Y023298D01*
X022970Y023396D02*
X023196Y023396D01*
X023155Y023495D02*
X022970Y023495D01*
X022970Y023593D02*
X023130Y023593D01*
X023130Y023692D02*
X022970Y023692D01*
X022976Y023790D02*
X023148Y023790D01*
X023189Y023889D02*
X023075Y023889D01*
X023173Y023987D02*
X023268Y023987D01*
X023272Y024086D02*
X023407Y024086D01*
X023370Y024184D02*
X023481Y024184D01*
X023115Y024381D02*
X022770Y024381D01*
X022770Y024283D02*
X023016Y024283D01*
X022918Y024184D02*
X022770Y024184D01*
X022770Y024086D02*
X022819Y024086D01*
X022450Y024086D02*
X021990Y024086D01*
X021990Y024184D02*
X022450Y024184D01*
X022450Y024283D02*
X021990Y024283D01*
X021990Y024332D02*
X021896Y024683D01*
X021714Y024997D01*
X021457Y025254D01*
X021143Y025436D01*
X020792Y025530D01*
X020428Y025530D01*
X020077Y025436D01*
X019763Y025254D01*
X019506Y024997D01*
X019324Y024683D01*
X019230Y024332D01*
X019230Y023968D01*
X019324Y023617D01*
X019506Y023303D01*
X019763Y023046D01*
X020077Y022864D01*
X020428Y022770D01*
X020792Y022770D01*
X021143Y022864D01*
X021457Y023046D01*
X021714Y023303D01*
X021896Y023617D01*
X021990Y023968D01*
X021990Y024332D01*
X021977Y024381D02*
X022450Y024381D01*
X022450Y024480D02*
X021950Y024480D01*
X021924Y024578D02*
X022450Y024578D01*
X022450Y024677D02*
X021898Y024677D01*
X021843Y024775D02*
X022509Y024775D01*
X022607Y024874D02*
X021786Y024874D01*
X021729Y024972D02*
X022706Y024972D01*
X022804Y025071D02*
X021641Y025071D01*
X021543Y025169D02*
X022903Y025169D01*
X023001Y025268D02*
X021434Y025268D01*
X021264Y025366D02*
X023100Y025366D01*
X023198Y025465D02*
X021036Y025465D01*
X020184Y025465D02*
X011036Y025465D01*
X011143Y025436D02*
X010792Y025530D01*
X010428Y025530D01*
X010077Y025436D01*
X009763Y025254D01*
X009506Y024997D01*
X009324Y024683D01*
X009230Y024332D01*
X009230Y023968D01*
X009324Y023617D01*
X009506Y023303D01*
X009763Y023046D01*
X010077Y022864D01*
X010428Y022770D01*
X010792Y022770D01*
X011143Y022864D01*
X011457Y023046D01*
X011714Y023303D01*
X011896Y023617D01*
X011990Y023968D01*
X011990Y024332D01*
X011896Y024683D01*
X011714Y024997D01*
X011457Y025254D01*
X011143Y025436D01*
X011264Y025366D02*
X019956Y025366D01*
X019786Y025268D02*
X011434Y025268D01*
X011543Y025169D02*
X019677Y025169D01*
X019579Y025071D02*
X011641Y025071D01*
X011729Y024972D02*
X019491Y024972D01*
X019434Y024874D02*
X011786Y024874D01*
X011843Y024775D02*
X019377Y024775D01*
X019322Y024677D02*
X011898Y024677D01*
X011924Y024578D02*
X019296Y024578D01*
X019270Y024480D02*
X011950Y024480D01*
X011977Y024381D02*
X019243Y024381D01*
X019230Y024283D02*
X011990Y024283D01*
X011990Y024184D02*
X019230Y024184D01*
X019230Y024086D02*
X011990Y024086D01*
X011990Y023987D02*
X019230Y023987D01*
X019251Y023889D02*
X011969Y023889D01*
X011942Y023790D02*
X019278Y023790D01*
X019304Y023692D02*
X011916Y023692D01*
X011882Y023593D02*
X019338Y023593D01*
X019395Y023495D02*
X011825Y023495D01*
X011768Y023396D02*
X019452Y023396D01*
X019511Y023298D02*
X011709Y023298D01*
X011611Y023199D02*
X019609Y023199D01*
X019708Y023101D02*
X011512Y023101D01*
X011382Y023002D02*
X019838Y023002D01*
X020009Y022904D02*
X011211Y022904D01*
X010923Y022805D02*
X020297Y022805D01*
X020923Y022805D02*
X022450Y022805D01*
X022450Y022707D02*
X006360Y022707D01*
X006360Y022805D02*
X010297Y022805D01*
X010009Y022904D02*
X006360Y022904D01*
X006360Y023002D02*
X009838Y023002D01*
X009708Y023101D02*
X006360Y023101D01*
X006360Y023199D02*
X009609Y023199D01*
X009511Y023298D02*
X006360Y023298D01*
X006360Y023396D02*
X009452Y023396D01*
X009395Y023495D02*
X006360Y023495D01*
X006360Y023593D02*
X009338Y023593D01*
X009304Y023692D02*
X006360Y023692D01*
X006360Y023790D02*
X009278Y023790D01*
X009251Y023889D02*
X006360Y023889D01*
X006360Y023987D02*
X009230Y023987D01*
X009230Y024086D02*
X006360Y024086D01*
X006360Y024184D02*
X009230Y024184D01*
X009230Y024283D02*
X006360Y024283D01*
X006360Y024381D02*
X009243Y024381D01*
X009270Y024480D02*
X006360Y024480D01*
X006360Y024578D02*
X009296Y024578D01*
X009322Y024677D02*
X006360Y024677D01*
X006360Y024775D02*
X009377Y024775D01*
X009434Y024874D02*
X006360Y024874D01*
X006360Y024972D02*
X009491Y024972D01*
X009579Y025071D02*
X006360Y025071D01*
X006360Y025169D02*
X009677Y025169D01*
X009786Y025268D02*
X006360Y025268D01*
X006360Y025366D02*
X009956Y025366D01*
X010184Y025465D02*
X006360Y025465D01*
X006360Y025563D02*
X025860Y025563D01*
X025860Y025465D02*
X024522Y025465D01*
X024620Y025366D02*
X025860Y025366D01*
X025860Y025268D02*
X024719Y025268D01*
X024770Y025169D02*
X025860Y025169D01*
X025860Y025071D02*
X024849Y025071D01*
X024967Y024972D02*
X025860Y024972D01*
X025860Y024874D02*
X025037Y024874D01*
X025078Y024775D02*
X025860Y024775D01*
X025860Y024677D02*
X025090Y024677D01*
X025090Y024578D02*
X025860Y024578D01*
X025860Y024480D02*
X025059Y024480D01*
X025018Y024381D02*
X025860Y024381D01*
X025860Y024283D02*
X024921Y024283D01*
X024739Y024184D02*
X025860Y024184D01*
X025860Y024086D02*
X024813Y024086D01*
X024952Y023987D02*
X025860Y023987D01*
X025860Y023889D02*
X025031Y023889D01*
X025072Y023790D02*
X025860Y023790D01*
X025860Y023692D02*
X025090Y023692D01*
X025090Y023593D02*
X025860Y023593D01*
X025860Y023495D02*
X025065Y023495D01*
X025024Y023396D02*
X025860Y023396D01*
X025860Y023298D02*
X024936Y023298D01*
X024776Y023199D02*
X025860Y023199D01*
X025860Y023101D02*
X024770Y023101D01*
X024770Y023002D02*
X025860Y023002D01*
X025860Y022904D02*
X024770Y022904D01*
X024691Y022805D02*
X025860Y022805D01*
X025860Y022707D02*
X024593Y022707D01*
X024494Y022608D02*
X025860Y022608D01*
X025860Y022510D02*
X024396Y022510D01*
X024297Y022411D02*
X025860Y022411D01*
X025860Y022313D02*
X024199Y022313D01*
X024100Y022214D02*
X025860Y022214D01*
X025860Y022116D02*
X024002Y022116D01*
X023442Y022608D02*
X022970Y022608D01*
X022970Y022510D02*
X023343Y022510D01*
X023245Y022411D02*
X022970Y022411D01*
X022970Y022313D02*
X023146Y022313D01*
X023048Y022214D02*
X022970Y022214D01*
X023010Y021950D02*
X023010Y016550D01*
X024320Y015240D01*
X024430Y015240D01*
X023910Y015250D02*
X023910Y010850D01*
X024260Y010500D01*
X024410Y010500D01*
X022610Y008700D01*
X022610Y007150D01*
X019610Y004150D01*
X016110Y004150D01*
X015110Y003150D01*
X013110Y003150D01*
X012110Y002150D01*
X011838Y002416D02*
X011382Y002416D01*
X011283Y002514D02*
X011937Y002514D01*
X011740Y002317D02*
X011480Y002317D01*
X011490Y002307D02*
X011267Y002530D01*
X010953Y002530D01*
X010730Y002307D01*
X010730Y001993D01*
X010953Y001770D01*
X011267Y001770D01*
X011490Y001993D01*
X011490Y002307D01*
X011490Y002219D02*
X011730Y002219D01*
X011730Y002120D02*
X011490Y002120D01*
X011490Y002022D02*
X011730Y002022D01*
X011800Y001923D02*
X011420Y001923D01*
X011322Y001825D02*
X011898Y001825D01*
X011953Y001530D02*
X011730Y001307D01*
X011730Y000993D01*
X011953Y000770D01*
X012267Y000770D01*
X012490Y000993D01*
X012490Y001307D01*
X012267Y001530D01*
X011953Y001530D01*
X011952Y001529D02*
X011268Y001529D01*
X011267Y001530D02*
X010953Y001530D01*
X010730Y001307D01*
X010730Y000993D01*
X010953Y000770D01*
X011267Y000770D01*
X011490Y000993D01*
X011490Y001307D01*
X011267Y001530D01*
X011367Y001431D02*
X011853Y001431D01*
X011755Y001332D02*
X011465Y001332D01*
X011490Y001234D02*
X011730Y001234D01*
X011730Y001135D02*
X011490Y001135D01*
X011490Y001037D02*
X011730Y001037D01*
X011785Y000938D02*
X011435Y000938D01*
X011337Y000840D02*
X011883Y000840D01*
X012337Y000840D02*
X012883Y000840D01*
X012953Y000770D02*
X013267Y000770D01*
X013490Y000993D01*
X013490Y001307D01*
X013267Y001530D01*
X012953Y001530D01*
X012730Y001307D01*
X012730Y000993D01*
X012953Y000770D01*
X012785Y000938D02*
X012435Y000938D01*
X012490Y001037D02*
X012730Y001037D01*
X012730Y001135D02*
X012490Y001135D01*
X012490Y001234D02*
X012730Y001234D01*
X012755Y001332D02*
X012465Y001332D01*
X012367Y001431D02*
X012853Y001431D01*
X012952Y001529D02*
X012268Y001529D01*
X012322Y001825D02*
X012898Y001825D01*
X012953Y001770D02*
X013267Y001770D01*
X013490Y001993D01*
X013490Y002307D01*
X013267Y002530D01*
X012953Y002530D01*
X012730Y002307D01*
X012730Y001993D01*
X012953Y001770D01*
X012800Y001923D02*
X012420Y001923D01*
X012490Y002022D02*
X012730Y002022D01*
X012730Y002120D02*
X012490Y002120D01*
X012490Y002219D02*
X012730Y002219D01*
X012740Y002317D02*
X012503Y002317D01*
X012602Y002416D02*
X012838Y002416D01*
X012937Y002514D02*
X012700Y002514D01*
X012799Y002613D02*
X015346Y002613D01*
X015264Y002530D02*
X014953Y002530D01*
X014730Y002307D01*
X014730Y001993D01*
X014953Y001770D01*
X015267Y001770D01*
X015490Y001993D01*
X015490Y002304D01*
X016176Y002990D01*
X019676Y002990D01*
X023176Y006490D01*
X023270Y006584D01*
X023270Y007554D01*
X024282Y008566D01*
X024335Y008544D01*
X024485Y008544D01*
X024623Y008601D01*
X024729Y008707D01*
X024786Y008845D01*
X024786Y008995D01*
X024729Y009133D01*
X024623Y009239D01*
X024485Y009296D01*
X024335Y009296D01*
X024197Y009239D01*
X024091Y009133D01*
X024034Y008995D01*
X024034Y008845D01*
X024056Y008792D01*
X022950Y007686D01*
X022950Y006716D01*
X019544Y003310D01*
X016044Y003310D01*
X015950Y003216D01*
X015264Y002530D01*
X015445Y002711D02*
X012897Y002711D01*
X012996Y002810D02*
X015543Y002810D01*
X015642Y002908D02*
X013094Y002908D01*
X012839Y003105D02*
X006360Y003105D01*
X006360Y003007D02*
X012740Y003007D01*
X012642Y002908D02*
X006360Y002908D01*
X006360Y002810D02*
X012543Y002810D01*
X012445Y002711D02*
X006360Y002711D01*
X006360Y002613D02*
X012346Y002613D01*
X012937Y003204D02*
X006360Y003204D01*
X006360Y003302D02*
X013036Y003302D01*
X013283Y002514D02*
X013937Y002514D01*
X013953Y002530D02*
X013730Y002307D01*
X013730Y001993D01*
X013953Y001770D01*
X014267Y001770D01*
X014490Y001993D01*
X014490Y002307D01*
X014267Y002530D01*
X013953Y002530D01*
X013838Y002416D02*
X013382Y002416D01*
X013480Y002317D02*
X013740Y002317D01*
X013730Y002219D02*
X013490Y002219D01*
X013490Y002120D02*
X013730Y002120D01*
X013730Y002022D02*
X013490Y002022D01*
X013420Y001923D02*
X013800Y001923D01*
X013898Y001825D02*
X013322Y001825D01*
X013268Y001529D02*
X013952Y001529D01*
X013953Y001530D02*
X013730Y001307D01*
X013730Y000993D01*
X013953Y000770D01*
X014267Y000770D01*
X014490Y000993D01*
X014490Y001307D01*
X014267Y001530D01*
X013953Y001530D01*
X013853Y001431D02*
X013367Y001431D01*
X013465Y001332D02*
X013755Y001332D01*
X013730Y001234D02*
X013490Y001234D01*
X013490Y001135D02*
X013730Y001135D01*
X013730Y001037D02*
X013490Y001037D01*
X013435Y000938D02*
X013785Y000938D01*
X013883Y000840D02*
X013337Y000840D01*
X014337Y000840D02*
X014883Y000840D01*
X014953Y000770D02*
X015267Y000770D01*
X015490Y000993D01*
X015490Y001307D01*
X015267Y001530D01*
X014953Y001530D01*
X014730Y001307D01*
X014730Y000993D01*
X014953Y000770D01*
X014785Y000938D02*
X014435Y000938D01*
X014490Y001037D02*
X014730Y001037D01*
X014730Y001135D02*
X014490Y001135D01*
X014490Y001234D02*
X014730Y001234D01*
X014755Y001332D02*
X014465Y001332D01*
X014367Y001431D02*
X014853Y001431D01*
X014952Y001529D02*
X014268Y001529D01*
X014322Y001825D02*
X014898Y001825D01*
X014800Y001923D02*
X014420Y001923D01*
X014490Y002022D02*
X014730Y002022D01*
X014730Y002120D02*
X014490Y002120D01*
X014490Y002219D02*
X014730Y002219D01*
X014740Y002317D02*
X014480Y002317D01*
X014382Y002416D02*
X014838Y002416D01*
X014937Y002514D02*
X014283Y002514D01*
X015110Y002150D02*
X016110Y003150D01*
X019610Y003150D01*
X023110Y006650D01*
X023110Y007620D01*
X024410Y008920D01*
X024034Y008917D02*
X023843Y008917D01*
X023941Y009015D02*
X024043Y009015D01*
X024040Y009114D02*
X024083Y009114D01*
X024138Y009212D02*
X024171Y009212D01*
X024237Y009311D02*
X025859Y009311D01*
X025859Y009409D02*
X024640Y009409D01*
X024623Y009391D02*
X024729Y009497D01*
X024786Y009635D01*
X024786Y009785D01*
X024729Y009923D01*
X024623Y010029D01*
X024485Y010086D01*
X024335Y010086D01*
X024197Y010029D01*
X024091Y009923D01*
X024034Y009785D01*
X024034Y009635D01*
X024056Y009582D01*
X023129Y008655D01*
X023061Y008655D01*
X022971Y008618D01*
X022902Y008549D01*
X022865Y008459D01*
X022865Y008361D01*
X022902Y008271D01*
X022971Y008202D01*
X023061Y008165D01*
X023159Y008165D01*
X023249Y008202D01*
X023318Y008271D01*
X023355Y008361D01*
X023355Y008429D01*
X024282Y009356D01*
X024335Y009334D01*
X024485Y009334D01*
X024623Y009391D01*
X024733Y009508D02*
X025859Y009508D01*
X025859Y009606D02*
X024774Y009606D01*
X024786Y009705D02*
X025859Y009705D01*
X025859Y009803D02*
X024778Y009803D01*
X024737Y009902D02*
X025859Y009902D01*
X025859Y010000D02*
X024651Y010000D01*
X024638Y010197D02*
X025860Y010197D01*
X025860Y010099D02*
X024235Y010099D01*
X024169Y010000D02*
X024136Y010000D01*
X024083Y009902D02*
X024038Y009902D01*
X024042Y009803D02*
X023939Y009803D01*
X024034Y009705D02*
X023841Y009705D01*
X023742Y009606D02*
X024046Y009606D01*
X023981Y009508D02*
X023644Y009508D01*
X023545Y009409D02*
X023883Y009409D01*
X023784Y009311D02*
X023447Y009311D01*
X023348Y009212D02*
X023686Y009212D01*
X023587Y009114D02*
X023250Y009114D01*
X023151Y009015D02*
X023489Y009015D01*
X023390Y008917D02*
X023053Y008917D01*
X022954Y008818D02*
X023292Y008818D01*
X023193Y008720D02*
X022856Y008720D01*
X022770Y008621D02*
X022979Y008621D01*
X022891Y008523D02*
X022770Y008523D01*
X022770Y008424D02*
X022865Y008424D01*
X022880Y008326D02*
X022770Y008326D01*
X022770Y008227D02*
X022946Y008227D01*
X022770Y008129D02*
X023392Y008129D01*
X023491Y008227D02*
X023274Y008227D01*
X023340Y008326D02*
X023589Y008326D01*
X023688Y008424D02*
X023355Y008424D01*
X023449Y008523D02*
X023786Y008523D01*
X023885Y008621D02*
X023547Y008621D01*
X023646Y008720D02*
X023983Y008720D01*
X024046Y008818D02*
X023744Y008818D01*
X024140Y008424D02*
X024173Y008424D01*
X024197Y008449D02*
X024091Y008343D01*
X024034Y008205D01*
X024034Y008055D01*
X024056Y008002D01*
X023450Y007396D01*
X023450Y003716D01*
X022450Y002716D01*
X022450Y002347D01*
X022267Y002530D01*
X021953Y002530D01*
X021730Y002307D01*
X021730Y001993D01*
X021953Y001770D01*
X022267Y001770D01*
X022450Y001953D01*
X022450Y001716D01*
X022264Y001530D01*
X021953Y001530D01*
X021730Y001307D01*
X021730Y000993D01*
X021953Y000770D01*
X022267Y000770D01*
X022490Y000993D01*
X022490Y001304D01*
X022676Y001490D01*
X022770Y001584D01*
X022770Y001896D01*
X022936Y001730D01*
X023070Y001730D01*
X023070Y002110D01*
X023150Y002110D01*
X023150Y002190D01*
X023070Y002190D01*
X023070Y002570D01*
X022936Y002570D01*
X022770Y002404D01*
X022770Y002584D01*
X023676Y003490D01*
X023770Y003584D01*
X023770Y007264D01*
X024282Y007776D01*
X024335Y007754D01*
X024485Y007754D01*
X024623Y007811D01*
X024729Y007917D01*
X024786Y008055D01*
X024786Y008205D01*
X024729Y008343D01*
X024623Y008449D01*
X024485Y008506D01*
X024335Y008506D01*
X024197Y008449D01*
X024239Y008523D02*
X025859Y008523D01*
X025859Y008621D02*
X024642Y008621D01*
X024734Y008720D02*
X025859Y008720D01*
X025859Y008818D02*
X024774Y008818D01*
X024786Y008917D02*
X025859Y008917D01*
X025859Y009015D02*
X024777Y009015D01*
X024737Y009114D02*
X025859Y009114D01*
X025859Y009212D02*
X024649Y009212D01*
X024410Y009710D02*
X023110Y008410D01*
X023294Y008030D02*
X022770Y008030D01*
X022770Y007932D02*
X023195Y007932D01*
X023097Y007833D02*
X022770Y007833D01*
X022770Y007735D02*
X022998Y007735D01*
X022950Y007636D02*
X022770Y007636D01*
X022770Y007538D02*
X022950Y007538D01*
X022950Y007439D02*
X022770Y007439D01*
X022770Y007341D02*
X022950Y007341D01*
X022950Y007242D02*
X022770Y007242D01*
X022770Y007144D02*
X022950Y007144D01*
X022950Y007045D02*
X022731Y007045D01*
X022633Y006947D02*
X022950Y006947D01*
X022950Y006848D02*
X022534Y006848D01*
X022436Y006750D02*
X022950Y006750D01*
X022885Y006651D02*
X022337Y006651D01*
X022239Y006553D02*
X022786Y006553D01*
X022688Y006454D02*
X022140Y006454D01*
X022042Y006356D02*
X022589Y006356D01*
X022491Y006257D02*
X021943Y006257D01*
X021845Y006159D02*
X022392Y006159D01*
X022294Y006060D02*
X021746Y006060D01*
X021648Y005962D02*
X022195Y005962D01*
X022097Y005863D02*
X021549Y005863D01*
X021451Y005765D02*
X021998Y005765D01*
X021900Y005666D02*
X021352Y005666D01*
X021254Y005568D02*
X021801Y005568D01*
X021703Y005469D02*
X021155Y005469D01*
X021057Y005371D02*
X021604Y005371D01*
X021506Y005272D02*
X020958Y005272D01*
X020860Y005174D02*
X021407Y005174D01*
X021309Y005075D02*
X020761Y005075D01*
X020663Y004977D02*
X021210Y004977D01*
X021112Y004878D02*
X020564Y004878D01*
X020466Y004780D02*
X021013Y004780D01*
X020915Y004681D02*
X020367Y004681D01*
X020269Y004583D02*
X020816Y004583D01*
X020718Y004484D02*
X020170Y004484D01*
X020072Y004386D02*
X020619Y004386D01*
X020521Y004287D02*
X019973Y004287D01*
X019875Y004189D02*
X020422Y004189D01*
X020324Y004090D02*
X019776Y004090D01*
X019678Y003992D02*
X020225Y003992D01*
X020127Y003893D02*
X016079Y003893D01*
X015981Y003795D02*
X020028Y003795D01*
X019930Y003696D02*
X015882Y003696D01*
X015784Y003598D02*
X019831Y003598D01*
X019733Y003499D02*
X015685Y003499D01*
X015587Y003401D02*
X019634Y003401D01*
X019890Y003204D02*
X022937Y003204D01*
X023036Y003302D02*
X019988Y003302D01*
X020087Y003401D02*
X023134Y003401D01*
X023233Y003499D02*
X020185Y003499D01*
X020284Y003598D02*
X023331Y003598D01*
X023430Y003696D02*
X020382Y003696D01*
X020481Y003795D02*
X023450Y003795D01*
X023450Y003893D02*
X020579Y003893D01*
X020678Y003992D02*
X023450Y003992D01*
X023450Y004090D02*
X020776Y004090D01*
X020875Y004189D02*
X023450Y004189D01*
X023450Y004287D02*
X020973Y004287D01*
X021072Y004386D02*
X023450Y004386D01*
X023450Y004484D02*
X021170Y004484D01*
X021269Y004583D02*
X023450Y004583D01*
X023450Y004681D02*
X021367Y004681D01*
X021466Y004780D02*
X023450Y004780D01*
X023450Y004878D02*
X021564Y004878D01*
X021663Y004977D02*
X023450Y004977D01*
X023450Y005075D02*
X021761Y005075D01*
X021860Y005174D02*
X023450Y005174D01*
X023450Y005272D02*
X021958Y005272D01*
X022057Y005371D02*
X023450Y005371D01*
X023450Y005469D02*
X022155Y005469D01*
X022254Y005568D02*
X023450Y005568D01*
X023450Y005666D02*
X022352Y005666D01*
X022451Y005765D02*
X023450Y005765D01*
X023450Y005863D02*
X022549Y005863D01*
X022648Y005962D02*
X023450Y005962D01*
X023450Y006060D02*
X022746Y006060D01*
X022845Y006159D02*
X023450Y006159D01*
X023450Y006257D02*
X022943Y006257D01*
X023042Y006356D02*
X023450Y006356D01*
X023450Y006454D02*
X023140Y006454D01*
X023239Y006553D02*
X023450Y006553D01*
X023450Y006651D02*
X023270Y006651D01*
X023270Y006750D02*
X023450Y006750D01*
X023450Y006848D02*
X023270Y006848D01*
X023270Y006947D02*
X023450Y006947D01*
X023450Y007045D02*
X023270Y007045D01*
X023270Y007144D02*
X023450Y007144D01*
X023450Y007242D02*
X023270Y007242D01*
X023270Y007341D02*
X023450Y007341D01*
X023493Y007439D02*
X023270Y007439D01*
X023270Y007538D02*
X023591Y007538D01*
X023690Y007636D02*
X023352Y007636D01*
X023451Y007735D02*
X023788Y007735D01*
X023887Y007833D02*
X023549Y007833D01*
X023648Y007932D02*
X023985Y007932D01*
X024045Y008030D02*
X023746Y008030D01*
X023845Y008129D02*
X024034Y008129D01*
X024043Y008227D02*
X023943Y008227D01*
X024042Y008326D02*
X024084Y008326D01*
X024410Y008130D02*
X023610Y007330D01*
X023610Y003650D01*
X022610Y002650D01*
X022610Y001650D01*
X022110Y001150D01*
X021730Y001135D02*
X021490Y001135D01*
X021490Y001037D02*
X021730Y001037D01*
X021785Y000938D02*
X021435Y000938D01*
X021490Y000993D02*
X021267Y000770D01*
X020953Y000770D01*
X020730Y000993D01*
X020730Y001307D01*
X020953Y001530D01*
X021267Y001530D01*
X021490Y001307D01*
X021490Y000993D01*
X021337Y000840D02*
X021883Y000840D01*
X021730Y001234D02*
X021490Y001234D01*
X021465Y001332D02*
X021755Y001332D01*
X021853Y001431D02*
X021367Y001431D01*
X021268Y001529D02*
X021952Y001529D01*
X021898Y001825D02*
X021322Y001825D01*
X021267Y001770D02*
X021490Y001993D01*
X021490Y002307D01*
X021267Y002530D01*
X020953Y002530D01*
X020730Y002307D01*
X020730Y001993D01*
X020953Y001770D01*
X021267Y001770D01*
X021420Y001923D02*
X021800Y001923D01*
X021730Y002022D02*
X021490Y002022D01*
X021490Y002120D02*
X021730Y002120D01*
X021730Y002219D02*
X021490Y002219D01*
X021480Y002317D02*
X021740Y002317D01*
X021838Y002416D02*
X021382Y002416D01*
X021283Y002514D02*
X021937Y002514D01*
X022283Y002514D02*
X022450Y002514D01*
X022450Y002416D02*
X022382Y002416D01*
X022450Y002613D02*
X015799Y002613D01*
X015897Y002711D02*
X022450Y002711D01*
X022543Y002810D02*
X015996Y002810D01*
X016094Y002908D02*
X022642Y002908D01*
X022740Y003007D02*
X019693Y003007D01*
X019791Y003105D02*
X022839Y003105D01*
X023094Y002908D02*
X025859Y002908D01*
X025859Y002810D02*
X022996Y002810D01*
X022897Y002711D02*
X025859Y002711D01*
X025859Y002613D02*
X022799Y002613D01*
X022770Y002514D02*
X022880Y002514D01*
X022782Y002416D02*
X022770Y002416D01*
X023070Y002416D02*
X023150Y002416D01*
X023150Y002514D02*
X023070Y002514D01*
X023150Y002570D02*
X023150Y002190D01*
X023530Y002190D01*
X023530Y002324D01*
X023284Y002570D01*
X023150Y002570D01*
X023340Y002514D02*
X025859Y002514D01*
X025859Y002416D02*
X023438Y002416D01*
X023530Y002317D02*
X025859Y002317D01*
X025859Y002219D02*
X023530Y002219D01*
X023530Y002110D02*
X023150Y002110D01*
X023150Y001730D01*
X023284Y001730D01*
X023530Y001976D01*
X023530Y002110D01*
X023530Y002022D02*
X025859Y002022D01*
X025859Y002120D02*
X023150Y002120D01*
X023150Y002022D02*
X023070Y002022D01*
X023070Y001923D02*
X023150Y001923D01*
X023150Y001825D02*
X023070Y001825D01*
X022842Y001825D02*
X022770Y001825D01*
X022770Y001726D02*
X025859Y001726D01*
X025859Y001628D02*
X022770Y001628D01*
X022715Y001529D02*
X022952Y001529D01*
X022953Y001530D02*
X022730Y001307D01*
X022730Y000993D01*
X022953Y000770D01*
X023267Y000770D01*
X023490Y000993D01*
X023490Y001307D01*
X023267Y001530D01*
X022953Y001530D01*
X022853Y001431D02*
X022617Y001431D01*
X022518Y001332D02*
X022755Y001332D01*
X022730Y001234D02*
X022490Y001234D01*
X022490Y001135D02*
X022730Y001135D01*
X022730Y001037D02*
X022490Y001037D01*
X022435Y000938D02*
X022785Y000938D01*
X022883Y000840D02*
X022337Y000840D01*
X022361Y001628D02*
X006360Y001628D01*
X006360Y001726D02*
X022450Y001726D01*
X022450Y001825D02*
X022322Y001825D01*
X022420Y001923D02*
X022450Y001923D01*
X023070Y002219D02*
X023150Y002219D01*
X023150Y002317D02*
X023070Y002317D01*
X023477Y001923D02*
X025859Y001923D01*
X025859Y001825D02*
X023378Y001825D01*
X023268Y001529D02*
X025859Y001529D01*
X025859Y001431D02*
X023367Y001431D01*
X023465Y001332D02*
X025859Y001332D01*
X025859Y001234D02*
X023490Y001234D01*
X023490Y001135D02*
X025859Y001135D01*
X025859Y001037D02*
X023490Y001037D01*
X023435Y000938D02*
X025859Y000938D01*
X025859Y000840D02*
X023337Y000840D01*
X023193Y003007D02*
X025859Y003007D01*
X025859Y003105D02*
X023291Y003105D01*
X023390Y003204D02*
X025859Y003204D01*
X025859Y003302D02*
X023488Y003302D01*
X023587Y003401D02*
X025859Y003401D01*
X025859Y003499D02*
X023685Y003499D01*
X023770Y003598D02*
X025859Y003598D01*
X025859Y003696D02*
X023770Y003696D01*
X023770Y003795D02*
X025859Y003795D01*
X025859Y003893D02*
X023770Y003893D01*
X023770Y003992D02*
X025859Y003992D01*
X025859Y004090D02*
X023770Y004090D01*
X023770Y004189D02*
X025859Y004189D01*
X025859Y004287D02*
X023770Y004287D01*
X023770Y004386D02*
X025859Y004386D01*
X025859Y004484D02*
X023770Y004484D01*
X023770Y004583D02*
X025859Y004583D01*
X025859Y004681D02*
X023770Y004681D01*
X023770Y004780D02*
X025859Y004780D01*
X025859Y004878D02*
X023770Y004878D01*
X023770Y004977D02*
X025859Y004977D01*
X025859Y005075D02*
X023770Y005075D01*
X023770Y005174D02*
X025859Y005174D01*
X025859Y005272D02*
X023770Y005272D01*
X023770Y005371D02*
X025859Y005371D01*
X025859Y005469D02*
X023770Y005469D01*
X023770Y005568D02*
X025859Y005568D01*
X025859Y005666D02*
X023770Y005666D01*
X023770Y005765D02*
X025859Y005765D01*
X025859Y005863D02*
X023770Y005863D01*
X023770Y005962D02*
X025859Y005962D01*
X025859Y006060D02*
X023770Y006060D01*
X023770Y006159D02*
X025859Y006159D01*
X025859Y006257D02*
X024786Y006257D01*
X024786Y006239D02*
X024786Y006861D01*
X024721Y006926D01*
X024099Y006926D01*
X024034Y006861D01*
X024034Y006239D01*
X024099Y006174D01*
X024721Y006174D01*
X024786Y006239D01*
X024786Y006356D02*
X025859Y006356D01*
X025859Y006454D02*
X024786Y006454D01*
X024786Y006553D02*
X025859Y006553D01*
X025859Y006651D02*
X024786Y006651D01*
X024786Y006750D02*
X025859Y006750D01*
X025859Y006848D02*
X024786Y006848D01*
X024623Y007021D02*
X024729Y007127D01*
X024786Y007265D01*
X024786Y007415D01*
X024729Y007553D01*
X024623Y007659D01*
X024485Y007716D01*
X024335Y007716D01*
X024197Y007659D01*
X024091Y007553D01*
X024034Y007415D01*
X024034Y007265D01*
X024091Y007127D01*
X024197Y007021D01*
X024335Y006964D01*
X024485Y006964D01*
X024623Y007021D01*
X024646Y007045D02*
X025859Y007045D01*
X025859Y006947D02*
X023770Y006947D01*
X023770Y007045D02*
X024174Y007045D01*
X024085Y007144D02*
X023770Y007144D01*
X023770Y007242D02*
X024044Y007242D01*
X024034Y007341D02*
X023847Y007341D01*
X023945Y007439D02*
X024044Y007439D01*
X024044Y007538D02*
X024085Y007538D01*
X024142Y007636D02*
X024175Y007636D01*
X024241Y007735D02*
X025859Y007735D01*
X025859Y007833D02*
X024644Y007833D01*
X024734Y007932D02*
X025859Y007932D01*
X025859Y008030D02*
X024775Y008030D01*
X024786Y008129D02*
X025859Y008129D01*
X025859Y008227D02*
X024777Y008227D01*
X024736Y008326D02*
X025859Y008326D01*
X025859Y008424D02*
X024647Y008424D01*
X024645Y007636D02*
X025859Y007636D01*
X025859Y007538D02*
X024735Y007538D01*
X024776Y007439D02*
X025859Y007439D01*
X025859Y007341D02*
X024786Y007341D01*
X024776Y007242D02*
X025859Y007242D01*
X025859Y007144D02*
X024735Y007144D01*
X024034Y006848D02*
X023770Y006848D01*
X023770Y006750D02*
X024034Y006750D01*
X024034Y006651D02*
X023770Y006651D01*
X023770Y006553D02*
X024034Y006553D01*
X024034Y006454D02*
X023770Y006454D01*
X023770Y006356D02*
X024034Y006356D01*
X024034Y006257D02*
X023770Y006257D01*
X022450Y007242D02*
X010580Y007242D01*
X010606Y007305D02*
X010549Y007167D01*
X010443Y007061D01*
X010305Y007004D01*
X010155Y007004D01*
X010017Y007061D01*
X009911Y007167D01*
X009854Y007305D01*
X009854Y007455D01*
X009911Y007593D01*
X010017Y007699D01*
X010155Y007756D01*
X010305Y007756D01*
X010443Y007699D01*
X010549Y007593D01*
X010606Y007455D01*
X010606Y007305D01*
X010606Y007341D02*
X022450Y007341D01*
X022450Y007439D02*
X010606Y007439D01*
X010571Y007538D02*
X022450Y007538D01*
X022450Y007636D02*
X010505Y007636D01*
X010356Y007735D02*
X022450Y007735D01*
X022450Y007833D02*
X010398Y007833D01*
X010443Y007851D02*
X010549Y007957D01*
X010606Y008095D01*
X010606Y008245D01*
X010549Y008383D01*
X010443Y008489D01*
X010305Y008546D01*
X010155Y008546D01*
X010017Y008489D01*
X009911Y008383D01*
X009854Y008245D01*
X009854Y008095D01*
X009911Y007957D01*
X010017Y007851D01*
X010155Y007794D01*
X010305Y007794D01*
X010443Y007851D01*
X010523Y007932D02*
X022450Y007932D01*
X022450Y008030D02*
X010579Y008030D01*
X010606Y008129D02*
X022450Y008129D01*
X022450Y008227D02*
X010606Y008227D01*
X010572Y008326D02*
X022450Y008326D01*
X022450Y008424D02*
X010507Y008424D01*
X010361Y008523D02*
X022450Y008523D01*
X022450Y008621D02*
X010394Y008621D01*
X010443Y008641D02*
X010549Y008747D01*
X010606Y008885D01*
X010606Y009035D01*
X010549Y009173D01*
X010443Y009279D01*
X010305Y009336D01*
X010155Y009336D01*
X010017Y009279D01*
X009911Y009173D01*
X009854Y009035D01*
X009854Y008885D01*
X009911Y008747D01*
X010017Y008641D01*
X010155Y008584D01*
X010305Y008584D01*
X010443Y008641D01*
X010521Y008720D02*
X022450Y008720D01*
X022502Y008818D02*
X010578Y008818D01*
X010606Y008917D02*
X022533Y008917D01*
X022610Y009150D02*
X022110Y009150D01*
X016610Y014650D01*
X016610Y020650D01*
X016110Y021150D01*
X015664Y021328D02*
X015556Y021328D01*
X015590Y021245D02*
X015517Y021422D01*
X015382Y021557D01*
X015205Y021630D01*
X015015Y021630D01*
X014838Y021557D01*
X014703Y021422D01*
X014630Y021245D01*
X014630Y021055D01*
X014703Y020878D01*
X014838Y020743D01*
X015015Y020670D01*
X015205Y020670D01*
X015382Y020743D01*
X015517Y020878D01*
X015590Y021055D01*
X015590Y021245D01*
X015590Y021229D02*
X015630Y021229D01*
X015630Y021131D02*
X015590Y021131D01*
X015581Y021032D02*
X015639Y021032D01*
X015680Y020934D02*
X015540Y020934D01*
X015474Y020835D02*
X015746Y020835D01*
X015854Y020737D02*
X015366Y020737D01*
X014854Y020737D02*
X014366Y020737D01*
X014382Y020743D02*
X014517Y020878D01*
X014590Y021055D01*
X014590Y021245D01*
X014517Y021422D01*
X014382Y021557D01*
X014205Y021630D01*
X014015Y021630D01*
X013838Y021557D01*
X013703Y021422D01*
X013630Y021245D01*
X013630Y021055D01*
X013703Y020878D01*
X013838Y020743D01*
X014015Y020670D01*
X014205Y020670D01*
X014382Y020743D01*
X014474Y020835D02*
X014746Y020835D01*
X014680Y020934D02*
X014540Y020934D01*
X014581Y021032D02*
X014639Y021032D01*
X014630Y021131D02*
X014590Y021131D01*
X014590Y021229D02*
X014630Y021229D01*
X014664Y021328D02*
X014556Y021328D01*
X014513Y021426D02*
X014707Y021426D01*
X014806Y021525D02*
X014414Y021525D01*
X014222Y021623D02*
X014998Y021623D01*
X015222Y021623D02*
X015998Y021623D01*
X015806Y021525D02*
X015414Y021525D01*
X015513Y021426D02*
X015707Y021426D01*
X016222Y021623D02*
X016998Y021623D01*
X016806Y021525D02*
X016414Y021525D01*
X016513Y021426D02*
X016707Y021426D01*
X016664Y021328D02*
X016556Y021328D01*
X016590Y021229D02*
X016630Y021229D01*
X016630Y021131D02*
X016590Y021131D01*
X016581Y021032D02*
X016639Y021032D01*
X016680Y020934D02*
X016553Y020934D01*
X016651Y020835D02*
X016746Y020835D01*
X016750Y020737D02*
X016854Y020737D01*
X016770Y020638D02*
X016950Y020638D01*
X016950Y020540D02*
X016770Y020540D01*
X016770Y020441D02*
X016950Y020441D01*
X016950Y020343D02*
X016770Y020343D01*
X016770Y020244D02*
X016950Y020244D01*
X016950Y020146D02*
X016770Y020146D01*
X016770Y020047D02*
X016950Y020047D01*
X016950Y019949D02*
X016770Y019949D01*
X016770Y019850D02*
X016950Y019850D01*
X016950Y019752D02*
X016770Y019752D01*
X016770Y019653D02*
X016950Y019653D01*
X016950Y019555D02*
X016770Y019555D01*
X016770Y019456D02*
X016950Y019456D01*
X016950Y019358D02*
X016770Y019358D01*
X016770Y019259D02*
X016950Y019259D01*
X016950Y019161D02*
X016770Y019161D01*
X016770Y019062D02*
X016950Y019062D01*
X016950Y018964D02*
X016770Y018964D01*
X016770Y018865D02*
X016950Y018865D01*
X016950Y018767D02*
X016770Y018767D01*
X016770Y018668D02*
X016950Y018668D01*
X016950Y018570D02*
X016770Y018570D01*
X016770Y018471D02*
X016950Y018471D01*
X016950Y018373D02*
X016770Y018373D01*
X016770Y018274D02*
X016950Y018274D01*
X016950Y018176D02*
X016770Y018176D01*
X016770Y018077D02*
X016950Y018077D01*
X016950Y017979D02*
X016770Y017979D01*
X016770Y017880D02*
X016950Y017880D01*
X016950Y017782D02*
X016770Y017782D01*
X016770Y017683D02*
X016950Y017683D01*
X016950Y017585D02*
X016770Y017585D01*
X016770Y017486D02*
X016950Y017486D01*
X016950Y017388D02*
X016770Y017388D01*
X016770Y017289D02*
X016950Y017289D01*
X016950Y017191D02*
X016770Y017191D01*
X016770Y017092D02*
X016950Y017092D01*
X016950Y016994D02*
X016770Y016994D01*
X016770Y016895D02*
X016950Y016895D01*
X016950Y016797D02*
X016770Y016797D01*
X016770Y016698D02*
X016950Y016698D01*
X016950Y016600D02*
X016770Y016600D01*
X016770Y016501D02*
X016950Y016501D01*
X016950Y016403D02*
X016770Y016403D01*
X016770Y016304D02*
X016950Y016304D01*
X016950Y016206D02*
X016770Y016206D01*
X016770Y016107D02*
X016950Y016107D01*
X016950Y016009D02*
X016770Y016009D01*
X016770Y015910D02*
X016950Y015910D01*
X016950Y015812D02*
X016770Y015812D01*
X016770Y015713D02*
X016950Y015713D01*
X016950Y015615D02*
X016770Y015615D01*
X016770Y015516D02*
X016950Y015516D01*
X016950Y015418D02*
X016770Y015418D01*
X016770Y015319D02*
X016950Y015319D01*
X016950Y015221D02*
X016770Y015221D01*
X016770Y015122D02*
X016950Y015122D01*
X016950Y015024D02*
X016770Y015024D01*
X016770Y014925D02*
X016950Y014925D01*
X016950Y014827D02*
X016770Y014827D01*
X016770Y014728D02*
X016950Y014728D01*
X016950Y014630D02*
X016857Y014630D01*
X017110Y014450D02*
X021910Y009650D01*
X022910Y009650D01*
X023103Y009803D02*
X023487Y009803D01*
X023585Y009902D02*
X022356Y009902D01*
X022455Y010000D02*
X023684Y010000D01*
X023782Y010099D02*
X022460Y010099D01*
X022460Y010197D02*
X023881Y010197D01*
X023802Y010296D02*
X023979Y010296D01*
X024047Y010394D02*
X023852Y010394D01*
X023855Y010493D02*
X024034Y010493D01*
X023943Y010591D02*
X023815Y010591D01*
X023844Y010690D02*
X023770Y010690D01*
X023610Y010450D02*
X023610Y015150D01*
X022610Y016150D01*
X022610Y024650D01*
X023310Y025350D01*
X024410Y025350D01*
X024610Y025150D01*
X024610Y024650D01*
X025860Y025662D02*
X006360Y025662D01*
X006360Y025760D02*
X025860Y025760D01*
X025860Y025859D02*
X006360Y025859D01*
X006360Y022608D02*
X022450Y022608D01*
X022450Y022510D02*
X006360Y022510D01*
X006360Y022411D02*
X022450Y022411D01*
X022450Y022313D02*
X006360Y022313D01*
X006360Y022214D02*
X022450Y022214D01*
X022450Y022116D02*
X006360Y022116D01*
X006360Y022017D02*
X022450Y022017D01*
X022450Y021919D02*
X010463Y021919D01*
X010325Y021976D01*
X010175Y021976D01*
X010037Y021919D01*
X006360Y021919D01*
X006360Y021820D02*
X009939Y021820D01*
X009931Y021813D02*
X009874Y021675D01*
X009874Y021525D01*
X009931Y021387D01*
X010037Y021281D01*
X010175Y021224D01*
X010325Y021224D01*
X010463Y021281D01*
X010569Y021387D01*
X010626Y021525D01*
X010626Y021675D01*
X010569Y021813D01*
X010463Y021919D01*
X010561Y021820D02*
X022450Y021820D01*
X022450Y021722D02*
X010606Y021722D01*
X010626Y021623D02*
X012998Y021623D01*
X013015Y021630D02*
X012838Y021557D01*
X012703Y021422D01*
X012630Y021245D01*
X012630Y021055D01*
X012703Y020878D01*
X012838Y020743D01*
X013015Y020670D01*
X013205Y020670D01*
X013382Y020743D01*
X013517Y020878D01*
X013590Y021055D01*
X013590Y021245D01*
X013517Y021422D01*
X013382Y021557D01*
X013205Y021630D01*
X013015Y021630D01*
X013222Y021623D02*
X013998Y021623D01*
X013806Y021525D02*
X013414Y021525D01*
X013513Y021426D02*
X013707Y021426D01*
X013664Y021328D02*
X013556Y021328D01*
X013590Y021229D02*
X013630Y021229D01*
X013630Y021131D02*
X013590Y021131D01*
X013581Y021032D02*
X013639Y021032D01*
X013680Y020934D02*
X013540Y020934D01*
X013474Y020835D02*
X013746Y020835D01*
X013854Y020737D02*
X013366Y020737D01*
X012854Y020737D02*
X010626Y020737D01*
X010626Y020735D02*
X010569Y020597D01*
X010463Y020491D01*
X010325Y020434D01*
X010175Y020434D01*
X010037Y020491D01*
X009931Y020597D01*
X009874Y020735D01*
X009874Y020885D01*
X009931Y021023D01*
X010037Y021129D01*
X010175Y021186D01*
X010325Y021186D01*
X010463Y021129D01*
X010569Y021023D01*
X010626Y020885D01*
X010626Y020735D01*
X010626Y020835D02*
X012746Y020835D01*
X012680Y020934D02*
X010606Y020934D01*
X010559Y021032D02*
X012639Y021032D01*
X012630Y021131D02*
X010458Y021131D01*
X010336Y021229D02*
X012630Y021229D01*
X012664Y021328D02*
X010509Y021328D01*
X010585Y021426D02*
X012707Y021426D01*
X012806Y021525D02*
X010625Y021525D01*
X010164Y021229D02*
X006360Y021229D01*
X006360Y021131D02*
X010042Y021131D01*
X009941Y021032D02*
X006360Y021032D01*
X006360Y020934D02*
X009894Y020934D01*
X009874Y020835D02*
X006360Y020835D01*
X006360Y020737D02*
X009874Y020737D01*
X009915Y020638D02*
X006360Y020638D01*
X006360Y020540D02*
X009989Y020540D01*
X010159Y020441D02*
X006360Y020441D01*
X006360Y020343D02*
X010047Y020343D01*
X010037Y020339D02*
X009931Y020233D01*
X009874Y020095D01*
X009874Y019945D01*
X009931Y019807D01*
X010037Y019701D01*
X010175Y019644D01*
X010325Y019644D01*
X010463Y019701D01*
X010569Y019807D01*
X010626Y019945D01*
X010626Y020095D01*
X010569Y020233D01*
X010463Y020339D01*
X010325Y020396D01*
X010175Y020396D01*
X010037Y020339D01*
X009943Y020244D02*
X006360Y020244D01*
X006360Y020146D02*
X009895Y020146D01*
X009874Y020047D02*
X006360Y020047D01*
X006360Y019949D02*
X009874Y019949D01*
X009914Y019850D02*
X006360Y019850D01*
X006360Y019752D02*
X009987Y019752D01*
X010154Y019653D02*
X006360Y019653D01*
X006360Y019555D02*
X010052Y019555D01*
X010037Y019549D02*
X009931Y019443D01*
X009874Y019305D01*
X009874Y019155D01*
X009931Y019017D01*
X010037Y018911D01*
X010175Y018854D01*
X010325Y018854D01*
X010463Y018911D01*
X010569Y019017D01*
X010626Y019155D01*
X010626Y019305D01*
X010569Y019443D01*
X010463Y019549D01*
X010325Y019606D01*
X010175Y019606D01*
X010037Y019549D01*
X009945Y019456D02*
X006360Y019456D01*
X006360Y019358D02*
X009896Y019358D01*
X009874Y019259D02*
X006360Y019259D01*
X006360Y019161D02*
X009874Y019161D01*
X009913Y019062D02*
X006360Y019062D01*
X006360Y018964D02*
X009985Y018964D01*
X010149Y018865D02*
X006360Y018865D01*
X006360Y018767D02*
X010056Y018767D01*
X010037Y018759D02*
X009931Y018653D01*
X009874Y018515D01*
X009874Y018365D01*
X009931Y018227D01*
X010037Y018121D01*
X010175Y018064D01*
X010325Y018064D01*
X010463Y018121D01*
X010569Y018227D01*
X010626Y018365D01*
X010626Y018515D01*
X010569Y018653D01*
X010463Y018759D01*
X010325Y018816D01*
X010175Y018816D01*
X010037Y018759D01*
X009947Y018668D02*
X006360Y018668D01*
X006360Y018570D02*
X009897Y018570D01*
X009874Y018471D02*
X006360Y018471D01*
X006360Y018373D02*
X009874Y018373D01*
X009912Y018274D02*
X006360Y018274D01*
X006360Y018176D02*
X009983Y018176D01*
X010144Y018077D02*
X006360Y018077D01*
X006360Y017979D02*
X010061Y017979D01*
X010037Y017969D02*
X009931Y017863D01*
X009874Y017725D01*
X009874Y017575D01*
X009931Y017437D01*
X010037Y017331D01*
X010175Y017274D01*
X010325Y017274D01*
X010463Y017331D01*
X010569Y017437D01*
X010626Y017575D01*
X010626Y017725D01*
X010569Y017863D01*
X010463Y017969D01*
X010325Y018026D01*
X010175Y018026D01*
X010037Y017969D01*
X009949Y017880D02*
X006360Y017880D01*
X006360Y017782D02*
X009898Y017782D01*
X009874Y017683D02*
X006360Y017683D01*
X006360Y017585D02*
X009874Y017585D01*
X009911Y017486D02*
X006360Y017486D01*
X006360Y017388D02*
X009981Y017388D01*
X010140Y017289D02*
X006360Y017289D01*
X006360Y017191D02*
X010066Y017191D01*
X010037Y017179D02*
X009931Y017073D01*
X009874Y016935D01*
X009874Y016785D01*
X009931Y016647D01*
X010037Y016541D01*
X010175Y016484D01*
X010325Y016484D01*
X010463Y016541D01*
X010569Y016647D01*
X010626Y016785D01*
X010626Y016935D01*
X010569Y017073D01*
X010463Y017179D01*
X010325Y017236D01*
X010175Y017236D01*
X010037Y017179D01*
X009951Y017092D02*
X006360Y017092D01*
X006360Y016994D02*
X009899Y016994D01*
X009874Y016895D02*
X006360Y016895D01*
X006360Y016797D02*
X009874Y016797D01*
X009910Y016698D02*
X006360Y016698D01*
X006360Y016600D02*
X009979Y016600D01*
X010135Y016501D02*
X006360Y016501D01*
X006360Y016403D02*
X010071Y016403D01*
X010037Y016389D02*
X009931Y016283D01*
X009874Y016145D01*
X009874Y015995D01*
X009931Y015857D01*
X010037Y015751D01*
X010175Y015694D01*
X010325Y015694D01*
X010463Y015751D01*
X010569Y015857D01*
X010626Y015995D01*
X010626Y016145D01*
X010569Y016283D01*
X010463Y016389D01*
X010325Y016446D01*
X010175Y016446D01*
X010037Y016389D01*
X009953Y016304D02*
X006360Y016304D01*
X006360Y016206D02*
X009899Y016206D01*
X009874Y016107D02*
X006360Y016107D01*
X006360Y016009D02*
X009874Y016009D01*
X009910Y015910D02*
X006360Y015910D01*
X006360Y015812D02*
X009977Y015812D01*
X010130Y015713D02*
X006360Y015713D01*
X006360Y015615D02*
X010076Y015615D01*
X010037Y015599D02*
X009931Y015493D01*
X009874Y015355D01*
X009874Y015205D01*
X009931Y015067D01*
X010037Y014961D01*
X010175Y014904D01*
X010325Y014904D01*
X010463Y014961D01*
X010569Y015067D01*
X010626Y015205D01*
X010626Y015355D01*
X010569Y015493D01*
X010463Y015599D01*
X010325Y015656D01*
X010175Y015656D01*
X010037Y015599D01*
X009955Y015516D02*
X006360Y015516D01*
X006360Y015418D02*
X009900Y015418D01*
X009874Y015319D02*
X006360Y015319D01*
X006360Y015221D02*
X009874Y015221D01*
X009909Y015122D02*
X006360Y015122D01*
X006360Y015024D02*
X009975Y015024D01*
X010125Y014925D02*
X006360Y014925D01*
X006360Y014827D02*
X010081Y014827D01*
X010037Y014809D02*
X009931Y014703D01*
X009874Y014565D01*
X009874Y014415D01*
X009931Y014277D01*
X010037Y014171D01*
X010175Y014114D01*
X010325Y014114D01*
X010463Y014171D01*
X010569Y014277D01*
X010626Y014415D01*
X010626Y014565D01*
X010569Y014703D01*
X010463Y014809D01*
X010325Y014866D01*
X010175Y014866D01*
X010037Y014809D01*
X009957Y014728D02*
X006360Y014728D01*
X006360Y014630D02*
X009901Y014630D01*
X009874Y014531D02*
X006360Y014531D01*
X006360Y014433D02*
X009874Y014433D01*
X009908Y014334D02*
X006360Y014334D01*
X006360Y014236D02*
X009973Y014236D01*
X010120Y014137D02*
X006360Y014137D01*
X006360Y014039D02*
X010065Y014039D01*
X010017Y014019D02*
X009911Y013913D01*
X009854Y013775D01*
X009854Y013625D01*
X009911Y013487D01*
X010017Y013381D01*
X010155Y013324D01*
X010305Y013324D01*
X010443Y013381D01*
X010549Y013487D01*
X010606Y013625D01*
X010606Y013775D01*
X010549Y013913D01*
X010443Y014019D01*
X010305Y014076D01*
X010155Y014076D01*
X010017Y014019D01*
X009939Y013940D02*
X006360Y013940D01*
X006360Y013842D02*
X009882Y013842D01*
X009854Y013743D02*
X006360Y013743D01*
X006360Y013645D02*
X009854Y013645D01*
X009887Y013546D02*
X006360Y013546D01*
X006360Y013448D02*
X009951Y013448D01*
X010095Y013349D02*
X006360Y013349D01*
X006360Y013251D02*
X010070Y013251D01*
X010017Y013229D02*
X009911Y013123D01*
X009854Y012985D01*
X009854Y012835D01*
X009911Y012697D01*
X010017Y012591D01*
X010155Y012534D01*
X010305Y012534D01*
X010443Y012591D01*
X010549Y012697D01*
X010606Y012835D01*
X010606Y012985D01*
X010549Y013123D01*
X010443Y013229D01*
X010305Y013286D01*
X010155Y013286D01*
X010017Y013229D01*
X009941Y013152D02*
X006360Y013152D01*
X006360Y013054D02*
X009883Y013054D01*
X009854Y012955D02*
X006360Y012955D01*
X006360Y012857D02*
X009854Y012857D01*
X009886Y012758D02*
X006360Y012758D01*
X006360Y012660D02*
X009949Y012660D01*
X010091Y012561D02*
X006360Y012561D01*
X006360Y012463D02*
X010075Y012463D01*
X010017Y012439D02*
X009911Y012333D01*
X009854Y012195D01*
X009854Y012045D01*
X009911Y011907D01*
X010017Y011801D01*
X010155Y011744D01*
X010305Y011744D01*
X010443Y011801D01*
X010549Y011907D01*
X010606Y012045D01*
X010606Y012195D01*
X010549Y012333D01*
X010443Y012439D01*
X010305Y012496D01*
X010155Y012496D01*
X010017Y012439D01*
X009943Y012364D02*
X006360Y012364D01*
X006360Y012266D02*
X009884Y012266D01*
X009854Y012167D02*
X006360Y012167D01*
X006360Y012069D02*
X009854Y012069D01*
X009885Y011970D02*
X006360Y011970D01*
X006360Y011872D02*
X009947Y011872D01*
X010086Y011773D02*
X006360Y011773D01*
X006360Y011675D02*
X010080Y011675D01*
X010017Y011649D02*
X009911Y011543D01*
X009854Y011405D01*
X009854Y011255D01*
X009911Y011117D01*
X010017Y011011D01*
X010155Y010954D01*
X010305Y010954D01*
X010443Y011011D01*
X010549Y011117D01*
X010606Y011255D01*
X010606Y011405D01*
X010549Y011543D01*
X010443Y011649D01*
X010305Y011706D01*
X010155Y011706D01*
X010017Y011649D01*
X009945Y011576D02*
X006360Y011576D01*
X006360Y011478D02*
X009884Y011478D01*
X009854Y011379D02*
X006360Y011379D01*
X006360Y011281D02*
X009854Y011281D01*
X009885Y011182D02*
X006360Y011182D01*
X006360Y011084D02*
X009945Y011084D01*
X010081Y010985D02*
X006360Y010985D01*
X006360Y010887D02*
X010085Y010887D01*
X010017Y010859D02*
X009911Y010753D01*
X009854Y010615D01*
X009854Y010465D01*
X009911Y010327D01*
X010017Y010221D01*
X010155Y010164D01*
X010305Y010164D01*
X010443Y010221D01*
X010549Y010327D01*
X010606Y010465D01*
X010606Y010615D01*
X010549Y010753D01*
X010443Y010859D01*
X010305Y010916D01*
X010155Y010916D01*
X010017Y010859D01*
X009947Y010788D02*
X006360Y010788D01*
X006360Y010690D02*
X009885Y010690D01*
X009854Y010591D02*
X006360Y010591D01*
X006360Y010493D02*
X009854Y010493D01*
X009884Y010394D02*
X006360Y010394D01*
X006360Y010296D02*
X009943Y010296D01*
X010076Y010197D02*
X006360Y010197D01*
X006360Y010099D02*
X010090Y010099D01*
X010155Y010126D02*
X010017Y010069D01*
X009911Y009963D01*
X009854Y009825D01*
X009854Y009675D01*
X009911Y009537D01*
X010017Y009431D01*
X010155Y009374D01*
X010305Y009374D01*
X010443Y009431D01*
X010549Y009537D01*
X010606Y009675D01*
X010606Y009825D01*
X010549Y009963D01*
X010443Y010069D01*
X010305Y010126D01*
X010155Y010126D01*
X010370Y010099D02*
X019760Y010099D01*
X019760Y010005D02*
X019965Y009800D01*
X020255Y009800D01*
X020460Y010005D01*
X020460Y010295D01*
X020255Y010500D01*
X019965Y010500D01*
X019760Y010295D01*
X019760Y010005D01*
X019765Y010000D02*
X010511Y010000D01*
X010574Y009902D02*
X019864Y009902D01*
X019962Y009803D02*
X010606Y009803D01*
X010606Y009705D02*
X021329Y009705D01*
X021231Y009803D02*
X020258Y009803D01*
X020356Y009902D02*
X021132Y009902D01*
X021034Y010000D02*
X020455Y010000D01*
X020460Y010099D02*
X020935Y010099D01*
X020837Y010197D02*
X020460Y010197D01*
X020459Y010296D02*
X020738Y010296D01*
X020640Y010394D02*
X020361Y010394D01*
X020262Y010493D02*
X020541Y010493D01*
X020443Y010591D02*
X010606Y010591D01*
X010606Y010493D02*
X019958Y010493D01*
X019859Y010394D02*
X010576Y010394D01*
X010517Y010296D02*
X019761Y010296D01*
X019760Y010197D02*
X010384Y010197D01*
X009949Y010000D02*
X006360Y010000D01*
X006360Y009902D02*
X009886Y009902D01*
X009854Y009803D02*
X006360Y009803D01*
X006360Y009705D02*
X009854Y009705D01*
X009883Y009606D02*
X006360Y009606D01*
X006360Y009508D02*
X009941Y009508D01*
X010071Y009409D02*
X006360Y009409D01*
X006360Y009311D02*
X010094Y009311D01*
X009951Y009212D02*
X006360Y009212D01*
X006360Y009114D02*
X009887Y009114D01*
X009854Y009015D02*
X006360Y009015D01*
X006360Y008917D02*
X009854Y008917D01*
X009882Y008818D02*
X006360Y008818D01*
X006360Y008720D02*
X009939Y008720D01*
X010066Y008621D02*
X006360Y008621D01*
X006360Y008523D02*
X010099Y008523D01*
X009953Y008424D02*
X006360Y008424D01*
X006360Y008326D02*
X009888Y008326D01*
X009854Y008227D02*
X006360Y008227D01*
X006360Y008129D02*
X009854Y008129D01*
X009881Y008030D02*
X006360Y008030D01*
X006360Y007932D02*
X009937Y007932D01*
X010062Y007833D02*
X006360Y007833D01*
X006360Y007735D02*
X010104Y007735D01*
X009955Y007636D02*
X006360Y007636D01*
X006360Y007538D02*
X009889Y007538D01*
X009854Y007439D02*
X006360Y007439D01*
X006360Y007341D02*
X009854Y007341D01*
X009880Y007242D02*
X006360Y007242D01*
X006360Y007144D02*
X009935Y007144D01*
X010057Y007045D02*
X006360Y007045D01*
X006360Y006947D02*
X010109Y006947D01*
X010155Y006966D02*
X010017Y006909D01*
X009911Y006803D01*
X009854Y006665D01*
X009854Y006515D01*
X009911Y006377D01*
X010017Y006271D01*
X010155Y006214D01*
X010305Y006214D01*
X010443Y006271D01*
X010549Y006377D01*
X010606Y006515D01*
X010606Y006665D01*
X010549Y006803D01*
X010443Y006909D01*
X010305Y006966D01*
X010155Y006966D01*
X010351Y006947D02*
X022180Y006947D01*
X022279Y007045D02*
X010403Y007045D01*
X010525Y007144D02*
X022377Y007144D01*
X022082Y006848D02*
X010503Y006848D01*
X010571Y006750D02*
X021983Y006750D01*
X021885Y006651D02*
X010606Y006651D01*
X010606Y006553D02*
X021786Y006553D01*
X021688Y006454D02*
X010580Y006454D01*
X010527Y006356D02*
X021589Y006356D01*
X021491Y006257D02*
X010408Y006257D01*
X010052Y006257D02*
X006360Y006257D01*
X006360Y006159D02*
X021392Y006159D01*
X021294Y006060D02*
X006360Y006060D01*
X006360Y005962D02*
X021195Y005962D01*
X021097Y005863D02*
X006360Y005863D01*
X006360Y005765D02*
X020998Y005765D01*
X020900Y005666D02*
X006360Y005666D01*
X006360Y005568D02*
X020801Y005568D01*
X020703Y005469D02*
X006360Y005469D01*
X006360Y005371D02*
X020604Y005371D01*
X020506Y005272D02*
X006360Y005272D01*
X006360Y005174D02*
X020407Y005174D01*
X020309Y005075D02*
X006360Y005075D01*
X006360Y004977D02*
X020210Y004977D01*
X020112Y004878D02*
X006360Y004878D01*
X006360Y004780D02*
X020013Y004780D01*
X019915Y004681D02*
X006360Y004681D01*
X006360Y004583D02*
X019816Y004583D01*
X019718Y004484D02*
X006360Y004484D01*
X006360Y004386D02*
X019619Y004386D01*
X019953Y002530D02*
X019730Y002307D01*
X019730Y001993D01*
X019953Y001770D01*
X020267Y001770D01*
X020490Y001993D01*
X020490Y002307D01*
X020267Y002530D01*
X019953Y002530D01*
X019937Y002514D02*
X019283Y002514D01*
X019267Y002530D02*
X018953Y002530D01*
X018730Y002307D01*
X018730Y001993D01*
X018953Y001770D01*
X019267Y001770D01*
X019490Y001993D01*
X019490Y002307D01*
X019267Y002530D01*
X019382Y002416D02*
X019838Y002416D01*
X019740Y002317D02*
X019480Y002317D01*
X019490Y002219D02*
X019730Y002219D01*
X019730Y002120D02*
X019490Y002120D01*
X019490Y002022D02*
X019730Y002022D01*
X019800Y001923D02*
X019420Y001923D01*
X019322Y001825D02*
X019898Y001825D01*
X019953Y001530D02*
X019730Y001307D01*
X019730Y000993D01*
X019953Y000770D01*
X020267Y000770D01*
X020490Y000993D01*
X020490Y001307D01*
X020267Y001530D01*
X019953Y001530D01*
X019952Y001529D02*
X019268Y001529D01*
X019267Y001530D02*
X018953Y001530D01*
X018730Y001307D01*
X018730Y000993D01*
X018953Y000770D01*
X019267Y000770D01*
X019490Y000993D01*
X019490Y001307D01*
X019267Y001530D01*
X019367Y001431D02*
X019853Y001431D01*
X019755Y001332D02*
X019465Y001332D01*
X019490Y001234D02*
X019730Y001234D01*
X019730Y001135D02*
X019490Y001135D01*
X019490Y001037D02*
X019730Y001037D01*
X019785Y000938D02*
X019435Y000938D01*
X019337Y000840D02*
X019883Y000840D01*
X020337Y000840D02*
X020883Y000840D01*
X020785Y000938D02*
X020435Y000938D01*
X020490Y001037D02*
X020730Y001037D01*
X020730Y001135D02*
X020490Y001135D01*
X020490Y001234D02*
X020730Y001234D01*
X020755Y001332D02*
X020465Y001332D01*
X020367Y001431D02*
X020853Y001431D01*
X020952Y001529D02*
X020268Y001529D01*
X020322Y001825D02*
X020898Y001825D01*
X020800Y001923D02*
X020420Y001923D01*
X020490Y002022D02*
X020730Y002022D01*
X020730Y002120D02*
X020490Y002120D01*
X020490Y002219D02*
X020730Y002219D01*
X020740Y002317D02*
X020480Y002317D01*
X020382Y002416D02*
X020838Y002416D01*
X020937Y002514D02*
X020283Y002514D01*
X018937Y002514D02*
X018283Y002514D01*
X018267Y002530D02*
X017953Y002530D01*
X017730Y002307D01*
X017730Y001993D01*
X017953Y001770D01*
X018267Y001770D01*
X018490Y001993D01*
X018490Y002307D01*
X018267Y002530D01*
X018382Y002416D02*
X018838Y002416D01*
X018740Y002317D02*
X018480Y002317D01*
X018490Y002219D02*
X018730Y002219D01*
X018730Y002120D02*
X018490Y002120D01*
X018490Y002022D02*
X018730Y002022D01*
X018800Y001923D02*
X018420Y001923D01*
X018322Y001825D02*
X018898Y001825D01*
X018952Y001529D02*
X018268Y001529D01*
X018267Y001530D02*
X017953Y001530D01*
X017730Y001307D01*
X017730Y000993D01*
X017953Y000770D01*
X018267Y000770D01*
X018490Y000993D01*
X018490Y001307D01*
X018267Y001530D01*
X018367Y001431D02*
X018853Y001431D01*
X018755Y001332D02*
X018465Y001332D01*
X018490Y001234D02*
X018730Y001234D01*
X018730Y001135D02*
X018490Y001135D01*
X018490Y001037D02*
X018730Y001037D01*
X018785Y000938D02*
X018435Y000938D01*
X018337Y000840D02*
X018883Y000840D01*
X017952Y001529D02*
X017268Y001529D01*
X017267Y001530D02*
X016953Y001530D01*
X016730Y001307D01*
X016730Y000993D01*
X016953Y000770D01*
X017267Y000770D01*
X017490Y000993D01*
X017490Y001307D01*
X017267Y001530D01*
X017367Y001431D02*
X017853Y001431D01*
X017755Y001332D02*
X017465Y001332D01*
X017490Y001234D02*
X017730Y001234D01*
X017730Y001135D02*
X017490Y001135D01*
X017490Y001037D02*
X017730Y001037D01*
X017785Y000938D02*
X017435Y000938D01*
X017337Y000840D02*
X017883Y000840D01*
X017898Y001825D02*
X017322Y001825D01*
X017267Y001770D02*
X017490Y001993D01*
X017490Y002307D01*
X017267Y002530D01*
X016953Y002530D01*
X016730Y002307D01*
X016730Y001993D01*
X016953Y001770D01*
X017267Y001770D01*
X017420Y001923D02*
X017800Y001923D01*
X017730Y002022D02*
X017490Y002022D01*
X017490Y002120D02*
X017730Y002120D01*
X017730Y002219D02*
X017490Y002219D01*
X017480Y002317D02*
X017740Y002317D01*
X017838Y002416D02*
X017382Y002416D01*
X017283Y002514D02*
X017937Y002514D01*
X016937Y002514D02*
X016283Y002514D01*
X016267Y002530D02*
X015953Y002530D01*
X015730Y002307D01*
X015730Y001993D01*
X015953Y001770D01*
X016267Y001770D01*
X016490Y001993D01*
X016490Y002307D01*
X016267Y002530D01*
X016382Y002416D02*
X016838Y002416D01*
X016740Y002317D02*
X016480Y002317D01*
X016490Y002219D02*
X016730Y002219D01*
X016730Y002120D02*
X016490Y002120D01*
X016490Y002022D02*
X016730Y002022D01*
X016800Y001923D02*
X016420Y001923D01*
X016322Y001825D02*
X016898Y001825D01*
X016952Y001529D02*
X016268Y001529D01*
X016267Y001530D02*
X015953Y001530D01*
X015730Y001307D01*
X015730Y000993D01*
X015953Y000770D01*
X016267Y000770D01*
X016490Y000993D01*
X016490Y001307D01*
X016267Y001530D01*
X016367Y001431D02*
X016853Y001431D01*
X016755Y001332D02*
X016465Y001332D01*
X016490Y001234D02*
X016730Y001234D01*
X016730Y001135D02*
X016490Y001135D01*
X016490Y001037D02*
X016730Y001037D01*
X016785Y000938D02*
X016435Y000938D01*
X016337Y000840D02*
X016883Y000840D01*
X015952Y001529D02*
X015268Y001529D01*
X015367Y001431D02*
X015853Y001431D01*
X015755Y001332D02*
X015465Y001332D01*
X015490Y001234D02*
X015730Y001234D01*
X015730Y001135D02*
X015490Y001135D01*
X015490Y001037D02*
X015730Y001037D01*
X015785Y000938D02*
X015435Y000938D01*
X015337Y000840D02*
X015883Y000840D01*
X015898Y001825D02*
X015322Y001825D01*
X015420Y001923D02*
X015800Y001923D01*
X015730Y002022D02*
X015490Y002022D01*
X015490Y002120D02*
X015730Y002120D01*
X015730Y002219D02*
X015490Y002219D01*
X015503Y002317D02*
X015740Y002317D01*
X015838Y002416D02*
X015602Y002416D01*
X015700Y002514D02*
X015937Y002514D01*
X015740Y003007D02*
X015193Y003007D01*
X015291Y003105D02*
X015839Y003105D01*
X015937Y003204D02*
X015390Y003204D01*
X015488Y003302D02*
X016036Y003302D01*
X015528Y003795D02*
X006360Y003795D01*
X006360Y003893D02*
X015627Y003893D01*
X015725Y003992D02*
X006360Y003992D01*
X006360Y004090D02*
X015824Y004090D01*
X015922Y004189D02*
X006360Y004189D01*
X006360Y004287D02*
X016021Y004287D01*
X015430Y003696D02*
X006360Y003696D01*
X006360Y003598D02*
X015331Y003598D01*
X015233Y003499D02*
X006360Y003499D01*
X006360Y003401D02*
X015134Y003401D01*
X010937Y002514D02*
X010283Y002514D01*
X010267Y002530D02*
X009953Y002530D01*
X009730Y002307D01*
X009730Y001993D01*
X009953Y001770D01*
X010267Y001770D01*
X010490Y001993D01*
X010490Y002307D01*
X010267Y002530D01*
X010382Y002416D02*
X010838Y002416D01*
X010740Y002317D02*
X010480Y002317D01*
X010490Y002219D02*
X010730Y002219D01*
X010730Y002120D02*
X010490Y002120D01*
X010490Y002022D02*
X010730Y002022D01*
X010800Y001923D02*
X010420Y001923D01*
X010322Y001825D02*
X010898Y001825D01*
X010952Y001529D02*
X010268Y001529D01*
X010267Y001530D02*
X009953Y001530D01*
X009730Y001307D01*
X009730Y000993D01*
X009953Y000770D01*
X010267Y000770D01*
X010490Y000993D01*
X010490Y001307D01*
X010267Y001530D01*
X010367Y001431D02*
X010853Y001431D01*
X010755Y001332D02*
X010465Y001332D01*
X010490Y001234D02*
X010730Y001234D01*
X010730Y001135D02*
X010490Y001135D01*
X010490Y001037D02*
X010730Y001037D01*
X010785Y000938D02*
X010435Y000938D01*
X010337Y000840D02*
X010883Y000840D01*
X009883Y000840D02*
X009337Y000840D01*
X009267Y000770D02*
X008953Y000770D01*
X008730Y000993D01*
X008730Y001307D01*
X008953Y001530D01*
X009267Y001530D01*
X009490Y001307D01*
X009490Y000993D01*
X009267Y000770D01*
X009435Y000938D02*
X009785Y000938D01*
X009730Y001037D02*
X009490Y001037D01*
X009490Y001135D02*
X009730Y001135D01*
X009730Y001234D02*
X009490Y001234D01*
X009465Y001332D02*
X009755Y001332D01*
X009853Y001431D02*
X009367Y001431D01*
X009268Y001529D02*
X009952Y001529D01*
X009898Y001825D02*
X009322Y001825D01*
X009267Y001770D02*
X009490Y001993D01*
X009490Y002307D01*
X009267Y002530D01*
X008953Y002530D01*
X008730Y002307D01*
X008730Y001993D01*
X008953Y001770D01*
X009267Y001770D01*
X009420Y001923D02*
X009800Y001923D01*
X009730Y002022D02*
X009490Y002022D01*
X009490Y002120D02*
X009730Y002120D01*
X009730Y002219D02*
X009490Y002219D01*
X009480Y002317D02*
X009740Y002317D01*
X009838Y002416D02*
X009382Y002416D01*
X009283Y002514D02*
X009937Y002514D01*
X008937Y002514D02*
X008224Y002514D01*
X008186Y002530D02*
X008034Y002530D01*
X007895Y002472D01*
X007788Y002365D01*
X007730Y002226D01*
X007730Y002074D01*
X007788Y001935D01*
X007895Y001828D01*
X008034Y001770D01*
X008186Y001770D01*
X008325Y001828D01*
X008432Y001935D01*
X008490Y002074D01*
X008490Y002226D01*
X008432Y002365D01*
X008325Y002472D01*
X008186Y002530D01*
X007996Y002514D02*
X006360Y002514D01*
X006360Y002416D02*
X007838Y002416D01*
X007768Y002317D02*
X006360Y002317D01*
X006360Y002219D02*
X007730Y002219D01*
X007730Y002120D02*
X006360Y002120D01*
X006360Y002022D02*
X007752Y002022D01*
X007800Y001923D02*
X006360Y001923D01*
X006360Y001825D02*
X007903Y001825D01*
X007953Y001530D02*
X007730Y001307D01*
X007730Y000993D01*
X007953Y000770D01*
X008267Y000770D01*
X008490Y000993D01*
X008490Y001307D01*
X008267Y001530D01*
X007953Y001530D01*
X007952Y001529D02*
X006360Y001529D01*
X006360Y001431D02*
X007853Y001431D01*
X007755Y001332D02*
X006360Y001332D01*
X006360Y001234D02*
X007730Y001234D01*
X007730Y001135D02*
X006360Y001135D01*
X006360Y001037D02*
X007730Y001037D01*
X007785Y000938D02*
X006360Y000938D01*
X006360Y000840D02*
X007883Y000840D01*
X008337Y000840D02*
X008883Y000840D01*
X008785Y000938D02*
X008435Y000938D01*
X008490Y001037D02*
X008730Y001037D01*
X008730Y001135D02*
X008490Y001135D01*
X008490Y001234D02*
X008730Y001234D01*
X008755Y001332D02*
X008465Y001332D01*
X008367Y001431D02*
X008853Y001431D01*
X008952Y001529D02*
X008268Y001529D01*
X008317Y001825D02*
X008898Y001825D01*
X008800Y001923D02*
X008420Y001923D01*
X008468Y002022D02*
X008730Y002022D01*
X008730Y002120D02*
X008490Y002120D01*
X008490Y002219D02*
X008730Y002219D01*
X008740Y002317D02*
X008452Y002317D01*
X008382Y002416D02*
X008838Y002416D01*
X007170Y003670D02*
X007120Y003670D01*
X007110Y005740D02*
X007160Y005740D01*
X006360Y006356D02*
X009933Y006356D01*
X009880Y006454D02*
X006360Y006454D01*
X006360Y006553D02*
X009854Y006553D01*
X009854Y006651D02*
X006360Y006651D01*
X006360Y006750D02*
X009889Y006750D01*
X009957Y006848D02*
X006360Y006848D01*
X007146Y007700D02*
X007155Y007699D01*
X007163Y007695D01*
X007170Y007690D01*
X007146Y007700D02*
X007110Y007700D01*
X007110Y009790D02*
X007116Y009790D01*
X007125Y009791D01*
X007133Y009795D01*
X007140Y009800D01*
X010366Y009311D02*
X021723Y009311D01*
X021625Y009409D02*
X010389Y009409D01*
X010519Y009508D02*
X021526Y009508D01*
X021428Y009606D02*
X010577Y009606D01*
X010509Y009212D02*
X021822Y009212D01*
X021920Y009114D02*
X010573Y009114D01*
X010606Y009015D02*
X022019Y009015D01*
X022176Y009311D02*
X022424Y009311D01*
X022077Y009409D02*
X022852Y009409D01*
X022796Y009311D02*
X022994Y009311D01*
X022968Y009409D02*
X023093Y009409D01*
X023114Y009508D02*
X023191Y009508D01*
X023155Y009606D02*
X023290Y009606D01*
X023388Y009705D02*
X023153Y009705D01*
X022896Y009212D02*
X022849Y009212D01*
X021760Y010099D02*
X021688Y010099D01*
X021760Y010197D02*
X021589Y010197D01*
X021491Y010296D02*
X021761Y010296D01*
X021859Y010394D02*
X021392Y010394D01*
X021294Y010493D02*
X021958Y010493D01*
X022262Y010493D02*
X023365Y010493D01*
X023368Y010394D02*
X022361Y010394D01*
X022459Y010296D02*
X023418Y010296D01*
X023405Y010591D02*
X021195Y010591D01*
X021097Y010690D02*
X023450Y010690D01*
X023450Y010788D02*
X020998Y010788D01*
X020900Y010887D02*
X023450Y010887D01*
X023450Y010985D02*
X020801Y010985D01*
X020703Y011084D02*
X023450Y011084D01*
X023450Y011182D02*
X020604Y011182D01*
X020506Y011281D02*
X023450Y011281D01*
X023450Y011379D02*
X020407Y011379D01*
X020309Y011478D02*
X023450Y011478D01*
X023450Y011576D02*
X020210Y011576D01*
X020112Y011675D02*
X023450Y011675D01*
X023450Y011773D02*
X020013Y011773D01*
X019915Y011872D02*
X023450Y011872D01*
X023450Y011970D02*
X019816Y011970D01*
X019718Y012069D02*
X023450Y012069D01*
X023450Y012167D02*
X019619Y012167D01*
X019521Y012266D02*
X023450Y012266D01*
X023450Y012364D02*
X019422Y012364D01*
X019324Y012463D02*
X023450Y012463D01*
X023450Y012561D02*
X019225Y012561D01*
X019127Y012660D02*
X023450Y012660D01*
X023450Y012758D02*
X019028Y012758D01*
X018930Y012857D02*
X023450Y012857D01*
X023450Y012955D02*
X018831Y012955D01*
X018733Y013054D02*
X023450Y013054D01*
X023450Y013152D02*
X018634Y013152D01*
X018536Y013251D02*
X023450Y013251D01*
X023450Y013349D02*
X018437Y013349D01*
X018339Y013448D02*
X023450Y013448D01*
X023450Y013546D02*
X018240Y013546D01*
X018142Y013645D02*
X023450Y013645D01*
X023450Y013743D02*
X018043Y013743D01*
X017945Y013842D02*
X019923Y013842D01*
X019965Y013800D02*
X020255Y013800D01*
X020460Y014005D01*
X020460Y014295D01*
X020255Y014500D01*
X019965Y014500D01*
X019760Y014295D01*
X019760Y014005D01*
X019965Y013800D01*
X019825Y013940D02*
X017846Y013940D01*
X017748Y014039D02*
X019760Y014039D01*
X019760Y014137D02*
X017649Y014137D01*
X017551Y014236D02*
X019760Y014236D01*
X019799Y014334D02*
X017452Y014334D01*
X017354Y014433D02*
X019898Y014433D01*
X020322Y014433D02*
X021898Y014433D01*
X021965Y014500D02*
X021760Y014295D01*
X021760Y014005D01*
X021965Y013800D01*
X022255Y013800D01*
X022460Y014005D01*
X022460Y014295D01*
X022255Y014500D01*
X021965Y014500D01*
X021799Y014334D02*
X020421Y014334D01*
X020460Y014236D02*
X021760Y014236D01*
X021760Y014137D02*
X020460Y014137D01*
X020460Y014039D02*
X021760Y014039D01*
X021825Y013940D02*
X020395Y013940D01*
X020297Y013842D02*
X021923Y013842D01*
X022297Y013842D02*
X023450Y013842D01*
X023450Y013940D02*
X022395Y013940D01*
X022460Y014039D02*
X023450Y014039D01*
X023450Y014137D02*
X022460Y014137D01*
X022460Y014236D02*
X023450Y014236D01*
X023450Y014334D02*
X022421Y014334D01*
X022322Y014433D02*
X023450Y014433D01*
X023450Y014531D02*
X017270Y014531D01*
X017270Y014630D02*
X023450Y014630D01*
X023450Y014728D02*
X017270Y014728D01*
X017270Y014827D02*
X023450Y014827D01*
X023450Y014925D02*
X017270Y014925D01*
X017270Y015024D02*
X023450Y015024D01*
X023412Y015122D02*
X017270Y015122D01*
X017270Y015221D02*
X023313Y015221D01*
X023215Y015319D02*
X017270Y015319D01*
X017270Y015418D02*
X023116Y015418D01*
X023018Y015516D02*
X017270Y015516D01*
X017270Y015615D02*
X022919Y015615D01*
X022821Y015713D02*
X017270Y015713D01*
X017270Y015812D02*
X022722Y015812D01*
X022624Y015910D02*
X017270Y015910D01*
X017270Y016009D02*
X022525Y016009D01*
X022450Y016107D02*
X017270Y016107D01*
X017270Y016206D02*
X022450Y016206D01*
X022450Y016304D02*
X017270Y016304D01*
X017270Y016403D02*
X022450Y016403D01*
X022450Y016501D02*
X017270Y016501D01*
X017270Y016600D02*
X022450Y016600D01*
X022450Y016698D02*
X017270Y016698D01*
X017270Y016797D02*
X022450Y016797D01*
X022450Y016895D02*
X017270Y016895D01*
X017270Y016994D02*
X022450Y016994D01*
X022450Y017092D02*
X017270Y017092D01*
X017270Y017191D02*
X022450Y017191D01*
X022450Y017289D02*
X017270Y017289D01*
X017270Y017388D02*
X022450Y017388D01*
X022450Y017486D02*
X017270Y017486D01*
X017270Y017585D02*
X022450Y017585D01*
X022450Y017683D02*
X017270Y017683D01*
X017270Y017782D02*
X022450Y017782D01*
X022450Y017880D02*
X017270Y017880D01*
X017270Y017979D02*
X022450Y017979D01*
X022450Y018077D02*
X017270Y018077D01*
X017270Y018176D02*
X022450Y018176D01*
X022450Y018274D02*
X017270Y018274D01*
X017270Y018373D02*
X022450Y018373D01*
X022450Y018471D02*
X017270Y018471D01*
X017270Y018570D02*
X022450Y018570D01*
X022450Y018668D02*
X017270Y018668D01*
X017270Y018767D02*
X022450Y018767D01*
X022450Y018865D02*
X017270Y018865D01*
X017270Y018964D02*
X022450Y018964D01*
X022450Y019062D02*
X017270Y019062D01*
X017270Y019161D02*
X022450Y019161D01*
X022450Y019259D02*
X017270Y019259D01*
X017270Y019358D02*
X022450Y019358D01*
X022450Y019456D02*
X017270Y019456D01*
X017270Y019555D02*
X022450Y019555D01*
X022450Y019653D02*
X017270Y019653D01*
X017270Y019752D02*
X022450Y019752D01*
X022450Y019850D02*
X017270Y019850D01*
X017270Y019949D02*
X022450Y019949D01*
X022450Y020047D02*
X017270Y020047D01*
X017270Y020146D02*
X022450Y020146D01*
X022450Y020244D02*
X017270Y020244D01*
X017270Y020343D02*
X022450Y020343D01*
X022450Y020441D02*
X017270Y020441D01*
X017270Y020540D02*
X022450Y020540D01*
X022450Y020638D02*
X017270Y020638D01*
X017366Y020737D02*
X017854Y020737D01*
X017838Y020743D02*
X018015Y020670D01*
X018205Y020670D01*
X018382Y020743D01*
X018517Y020878D01*
X018590Y021055D01*
X018590Y021245D01*
X018517Y021422D01*
X018382Y021557D01*
X018205Y021630D01*
X018015Y021630D01*
X017838Y021557D01*
X017703Y021422D01*
X017630Y021245D01*
X017630Y021055D01*
X017703Y020878D01*
X017838Y020743D01*
X017746Y020835D02*
X017474Y020835D01*
X017540Y020934D02*
X017680Y020934D01*
X017639Y021032D02*
X017581Y021032D01*
X017590Y021131D02*
X017630Y021131D01*
X017630Y021229D02*
X017590Y021229D01*
X017556Y021328D02*
X017664Y021328D01*
X017707Y021426D02*
X017513Y021426D01*
X017414Y021525D02*
X017806Y021525D01*
X017998Y021623D02*
X017222Y021623D01*
X017110Y021150D02*
X017110Y014450D01*
X016798Y014236D02*
X010527Y014236D01*
X010592Y014334D02*
X016700Y014334D01*
X016601Y014433D02*
X010626Y014433D01*
X010626Y014531D02*
X016503Y014531D01*
X016450Y014630D02*
X010599Y014630D01*
X010543Y014728D02*
X016450Y014728D01*
X016450Y014827D02*
X010419Y014827D01*
X010375Y014925D02*
X016450Y014925D01*
X016450Y015024D02*
X010525Y015024D01*
X010591Y015122D02*
X016450Y015122D01*
X016450Y015221D02*
X010626Y015221D01*
X010626Y015319D02*
X016450Y015319D01*
X016450Y015418D02*
X010600Y015418D01*
X010545Y015516D02*
X016450Y015516D01*
X016450Y015615D02*
X010424Y015615D01*
X010370Y015713D02*
X016450Y015713D01*
X016450Y015812D02*
X010523Y015812D01*
X010590Y015910D02*
X016450Y015910D01*
X016450Y016009D02*
X010626Y016009D01*
X010626Y016107D02*
X016450Y016107D01*
X016450Y016206D02*
X010601Y016206D01*
X010547Y016304D02*
X016450Y016304D01*
X016450Y016403D02*
X010429Y016403D01*
X010365Y016501D02*
X016450Y016501D01*
X016450Y016600D02*
X010521Y016600D01*
X010590Y016698D02*
X016450Y016698D01*
X016450Y016797D02*
X010626Y016797D01*
X010626Y016895D02*
X016450Y016895D01*
X016450Y016994D02*
X010601Y016994D01*
X010549Y017092D02*
X016450Y017092D01*
X016450Y017191D02*
X010434Y017191D01*
X010360Y017289D02*
X016450Y017289D01*
X016450Y017388D02*
X010519Y017388D01*
X010589Y017486D02*
X016450Y017486D01*
X016450Y017585D02*
X010626Y017585D01*
X010626Y017683D02*
X016450Y017683D01*
X016450Y017782D02*
X010602Y017782D01*
X010551Y017880D02*
X016450Y017880D01*
X016450Y017979D02*
X010439Y017979D01*
X010356Y018077D02*
X016450Y018077D01*
X016450Y018176D02*
X010517Y018176D01*
X010588Y018274D02*
X016450Y018274D01*
X016450Y018373D02*
X010626Y018373D01*
X010626Y018471D02*
X016450Y018471D01*
X016450Y018570D02*
X010603Y018570D01*
X010553Y018668D02*
X016450Y018668D01*
X016450Y018767D02*
X010444Y018767D01*
X010351Y018865D02*
X016450Y018865D01*
X016450Y018964D02*
X010515Y018964D01*
X010587Y019062D02*
X016450Y019062D01*
X016450Y019161D02*
X010626Y019161D01*
X010626Y019259D02*
X016450Y019259D01*
X016450Y019358D02*
X010604Y019358D01*
X010555Y019456D02*
X016450Y019456D01*
X016450Y019555D02*
X010448Y019555D01*
X010346Y019653D02*
X016450Y019653D01*
X016450Y019752D02*
X010513Y019752D01*
X010586Y019850D02*
X016450Y019850D01*
X016450Y019949D02*
X010626Y019949D01*
X010626Y020047D02*
X016450Y020047D01*
X016450Y020146D02*
X010605Y020146D01*
X010557Y020244D02*
X016450Y020244D01*
X016450Y020343D02*
X010453Y020343D01*
X010341Y020441D02*
X016450Y020441D01*
X016450Y020540D02*
X010511Y020540D01*
X010585Y020638D02*
X016396Y020638D01*
X018366Y020737D02*
X022450Y020737D01*
X022450Y020835D02*
X018474Y020835D01*
X018540Y020934D02*
X022450Y020934D01*
X022450Y021032D02*
X018581Y021032D01*
X018590Y021131D02*
X022450Y021131D01*
X022450Y021229D02*
X018590Y021229D01*
X018556Y021328D02*
X022450Y021328D01*
X022450Y021426D02*
X018513Y021426D01*
X018414Y021525D02*
X022450Y021525D01*
X022450Y021623D02*
X018222Y021623D01*
X021211Y022904D02*
X022450Y022904D01*
X022450Y023002D02*
X021382Y023002D01*
X021512Y023101D02*
X022450Y023101D01*
X022450Y023199D02*
X021611Y023199D01*
X021709Y023298D02*
X022450Y023298D01*
X022450Y023396D02*
X021768Y023396D01*
X021825Y023495D02*
X022450Y023495D01*
X022450Y023593D02*
X021882Y023593D01*
X021916Y023692D02*
X022450Y023692D01*
X022450Y023790D02*
X021942Y023790D01*
X021969Y023889D02*
X022450Y023889D01*
X022450Y023987D02*
X021990Y023987D01*
X022970Y023199D02*
X023444Y023199D01*
X023450Y023101D02*
X022970Y023101D01*
X022970Y023002D02*
X023450Y023002D01*
X023450Y022904D02*
X022970Y022904D01*
X022970Y022805D02*
X023450Y022805D01*
X023450Y022707D02*
X022970Y022707D01*
X024070Y014728D02*
X024177Y014728D01*
X024098Y014630D02*
X024070Y014630D01*
X024070Y014334D02*
X024071Y014334D01*
X024070Y014236D02*
X024113Y014236D01*
X024070Y014137D02*
X024212Y014137D01*
X024070Y014039D02*
X025860Y014039D01*
X025860Y014137D02*
X024648Y014137D01*
X024747Y014236D02*
X025860Y014236D01*
X025860Y014334D02*
X024789Y014334D01*
X024806Y014433D02*
X025860Y014433D01*
X025860Y014531D02*
X024803Y014531D01*
X024762Y014630D02*
X025860Y014630D01*
X025860Y014728D02*
X024683Y014728D01*
X024661Y013940D02*
X025860Y013940D01*
X025860Y013842D02*
X024742Y013842D01*
X024782Y013743D02*
X025860Y013743D01*
X025860Y013645D02*
X024786Y013645D01*
X024769Y013546D02*
X025860Y013546D01*
X025860Y013448D02*
X024729Y013448D01*
X024630Y013349D02*
X025860Y013349D01*
X025860Y013251D02*
X024070Y013251D01*
X024070Y013349D02*
X024190Y013349D01*
X024091Y013448D02*
X024070Y013448D01*
X024070Y013842D02*
X024078Y013842D01*
X024070Y013940D02*
X024159Y013940D01*
X024161Y013152D02*
X024070Y013152D01*
X024070Y013054D02*
X024079Y013054D01*
X024070Y012660D02*
X024090Y012660D01*
X024070Y012561D02*
X024188Y012561D01*
X024070Y012463D02*
X025860Y012463D01*
X025860Y012561D02*
X024632Y012561D01*
X024730Y012660D02*
X025860Y012660D01*
X025860Y012758D02*
X024770Y012758D01*
X024786Y012857D02*
X025860Y012857D01*
X025860Y012955D02*
X024781Y012955D01*
X024741Y013054D02*
X025860Y013054D01*
X025860Y013152D02*
X024659Y013152D01*
X024657Y012364D02*
X025860Y012364D01*
X025860Y012266D02*
X024740Y012266D01*
X024781Y012167D02*
X025860Y012167D01*
X025860Y012069D02*
X024786Y012069D01*
X024771Y011970D02*
X025860Y011970D01*
X025860Y011872D02*
X024730Y011872D01*
X024634Y011773D02*
X025860Y011773D01*
X025860Y011675D02*
X024070Y011675D01*
X024070Y011773D02*
X024186Y011773D01*
X024090Y011872D02*
X024070Y011872D01*
X024070Y012266D02*
X024080Y012266D01*
X024070Y012364D02*
X024163Y012364D01*
X024165Y011576D02*
X024070Y011576D01*
X024070Y011478D02*
X024081Y011478D01*
X024070Y011084D02*
X024089Y011084D01*
X024070Y010985D02*
X024184Y010985D01*
X024100Y010887D02*
X025860Y010887D01*
X025860Y010985D02*
X024636Y010985D01*
X024731Y011084D02*
X025860Y011084D01*
X025860Y011182D02*
X024772Y011182D01*
X024786Y011281D02*
X025860Y011281D01*
X025860Y011379D02*
X024780Y011379D01*
X024739Y011478D02*
X025860Y011478D01*
X025860Y011576D02*
X024655Y011576D01*
X024653Y010788D02*
X025860Y010788D01*
X025860Y010690D02*
X024738Y010690D01*
X024779Y010591D02*
X025860Y010591D01*
X025860Y010493D02*
X024786Y010493D01*
X024773Y010394D02*
X025860Y010394D01*
X025860Y010296D02*
X024732Y010296D01*
X020344Y010690D02*
X010575Y010690D01*
X010513Y010788D02*
X020246Y010788D01*
X020147Y010887D02*
X010375Y010887D01*
X010379Y010985D02*
X020049Y010985D01*
X019950Y011084D02*
X010515Y011084D01*
X010575Y011182D02*
X019852Y011182D01*
X019753Y011281D02*
X010606Y011281D01*
X010606Y011379D02*
X019655Y011379D01*
X019556Y011478D02*
X010576Y011478D01*
X010515Y011576D02*
X019458Y011576D01*
X019359Y011675D02*
X010380Y011675D01*
X010374Y011773D02*
X019261Y011773D01*
X019162Y011872D02*
X010513Y011872D01*
X010575Y011970D02*
X019064Y011970D01*
X018965Y012069D02*
X010606Y012069D01*
X010606Y012167D02*
X018867Y012167D01*
X018768Y012266D02*
X010576Y012266D01*
X010517Y012364D02*
X018670Y012364D01*
X018571Y012463D02*
X010385Y012463D01*
X010369Y012561D02*
X018473Y012561D01*
X018374Y012660D02*
X010511Y012660D01*
X010574Y012758D02*
X018276Y012758D01*
X018177Y012857D02*
X010606Y012857D01*
X010606Y012955D02*
X018079Y012955D01*
X017980Y013054D02*
X010577Y013054D01*
X010519Y013152D02*
X017882Y013152D01*
X017783Y013251D02*
X010390Y013251D01*
X010365Y013349D02*
X017685Y013349D01*
X017586Y013448D02*
X010509Y013448D01*
X010573Y013546D02*
X017488Y013546D01*
X017389Y013645D02*
X010606Y013645D01*
X010606Y013743D02*
X017291Y013743D01*
X017192Y013842D02*
X010578Y013842D01*
X010521Y013940D02*
X017094Y013940D01*
X016995Y014039D02*
X010395Y014039D01*
X010380Y014137D02*
X016897Y014137D01*
X009991Y021328D02*
X006360Y021328D01*
X006360Y021426D02*
X009915Y021426D01*
X009875Y021525D02*
X006360Y021525D01*
X006360Y021623D02*
X009874Y021623D01*
X009894Y021722D02*
X006360Y021722D01*
X009931Y021813D02*
X010037Y021919D01*
X006360Y000741D02*
X025859Y000741D01*
X025859Y000643D02*
X006360Y000643D01*
X006360Y000544D02*
X025859Y000544D01*
X025859Y000446D02*
X006360Y000446D01*
D19*
X007120Y003670D03*
X007110Y005740D03*
X007110Y007700D03*
X007110Y009790D03*
X022610Y009150D03*
X022910Y009650D03*
X023610Y010450D03*
X023110Y008410D03*
M02*
