G75*
%MOIN*%
%OFA0B0*%
%FSLAX24Y24*%
%IPPOS*%
%LPD*%
%AMOC8*
5,1,8,0,0,1.08239X$1,22.5*
%
%ADD10C,0.0000*%
D10*
X006110Y000150D02*
X006110Y026150D01*
X026110Y026150D01*
X026110Y017350D01*
X026109Y000148D01*
X006110Y000150D01*
X009980Y024150D02*
X009982Y024200D01*
X009988Y024250D01*
X009998Y024299D01*
X010012Y024347D01*
X010029Y024394D01*
X010050Y024439D01*
X010075Y024483D01*
X010103Y024524D01*
X010135Y024563D01*
X010169Y024600D01*
X010206Y024634D01*
X010246Y024664D01*
X010288Y024691D01*
X010332Y024715D01*
X010378Y024736D01*
X010425Y024752D01*
X010473Y024765D01*
X010523Y024774D01*
X010572Y024779D01*
X010623Y024780D01*
X010673Y024777D01*
X010722Y024770D01*
X010771Y024759D01*
X010819Y024744D01*
X010865Y024726D01*
X010910Y024704D01*
X010953Y024678D01*
X010994Y024649D01*
X011033Y024617D01*
X011069Y024582D01*
X011101Y024544D01*
X011131Y024504D01*
X011158Y024461D01*
X011181Y024417D01*
X011200Y024371D01*
X011216Y024323D01*
X011228Y024274D01*
X011236Y024225D01*
X011240Y024175D01*
X011240Y024125D01*
X011236Y024075D01*
X011228Y024026D01*
X011216Y023977D01*
X011200Y023929D01*
X011181Y023883D01*
X011158Y023839D01*
X011131Y023796D01*
X011101Y023756D01*
X011069Y023718D01*
X011033Y023683D01*
X010994Y023651D01*
X010953Y023622D01*
X010910Y023596D01*
X010865Y023574D01*
X010819Y023556D01*
X010771Y023541D01*
X010722Y023530D01*
X010673Y023523D01*
X010623Y023520D01*
X010572Y023521D01*
X010523Y023526D01*
X010473Y023535D01*
X010425Y023548D01*
X010378Y023564D01*
X010332Y023585D01*
X010288Y023609D01*
X010246Y023636D01*
X010206Y023666D01*
X010169Y023700D01*
X010135Y023737D01*
X010103Y023776D01*
X010075Y023817D01*
X010050Y023861D01*
X010029Y023906D01*
X010012Y023953D01*
X009998Y024001D01*
X009988Y024050D01*
X009982Y024100D01*
X009980Y024150D01*
X019980Y024150D02*
X019982Y024200D01*
X019988Y024250D01*
X019998Y024299D01*
X020012Y024347D01*
X020029Y024394D01*
X020050Y024439D01*
X020075Y024483D01*
X020103Y024524D01*
X020135Y024563D01*
X020169Y024600D01*
X020206Y024634D01*
X020246Y024664D01*
X020288Y024691D01*
X020332Y024715D01*
X020378Y024736D01*
X020425Y024752D01*
X020473Y024765D01*
X020523Y024774D01*
X020572Y024779D01*
X020623Y024780D01*
X020673Y024777D01*
X020722Y024770D01*
X020771Y024759D01*
X020819Y024744D01*
X020865Y024726D01*
X020910Y024704D01*
X020953Y024678D01*
X020994Y024649D01*
X021033Y024617D01*
X021069Y024582D01*
X021101Y024544D01*
X021131Y024504D01*
X021158Y024461D01*
X021181Y024417D01*
X021200Y024371D01*
X021216Y024323D01*
X021228Y024274D01*
X021236Y024225D01*
X021240Y024175D01*
X021240Y024125D01*
X021236Y024075D01*
X021228Y024026D01*
X021216Y023977D01*
X021200Y023929D01*
X021181Y023883D01*
X021158Y023839D01*
X021131Y023796D01*
X021101Y023756D01*
X021069Y023718D01*
X021033Y023683D01*
X020994Y023651D01*
X020953Y023622D01*
X020910Y023596D01*
X020865Y023574D01*
X020819Y023556D01*
X020771Y023541D01*
X020722Y023530D01*
X020673Y023523D01*
X020623Y023520D01*
X020572Y023521D01*
X020523Y023526D01*
X020473Y023535D01*
X020425Y023548D01*
X020378Y023564D01*
X020332Y023585D01*
X020288Y023609D01*
X020246Y023636D01*
X020206Y023666D01*
X020169Y023700D01*
X020135Y023737D01*
X020103Y023776D01*
X020075Y023817D01*
X020050Y023861D01*
X020029Y023906D01*
X020012Y023953D01*
X019998Y024001D01*
X019988Y024050D01*
X019982Y024100D01*
X019980Y024150D01*
M02*
