G75*
%MOIN*%
%OFA0B0*%
%FSLAX24Y24*%
%IPPOS*%
%LPD*%
%AMOC8*
5,1,8,0,0,1.08239X$1,22.5*
%
%ADD10C,0.0000*%
%ADD11C,0.2540*%
%ADD12C,0.0540*%
%ADD13OC8,0.0540*%
%ADD14R,0.0531X0.0531*%
%ADD15C,0.0531*%
%ADD16R,0.0394X0.0433*%
%ADD17OC8,0.0480*%
%ADD18R,0.0315X0.0315*%
%ADD19C,0.0740*%
%ADD20C,0.0394*%
%ADD21C,0.0100*%
%ADD22C,0.0270*%
%ADD23C,0.0160*%
D10*
X006110Y000150D02*
X006110Y026150D01*
X026110Y026150D01*
X026110Y017350D01*
X026109Y000148D01*
X006110Y000150D01*
X009980Y024150D02*
X009982Y024200D01*
X009988Y024250D01*
X009998Y024299D01*
X010012Y024347D01*
X010029Y024394D01*
X010050Y024439D01*
X010075Y024483D01*
X010103Y024524D01*
X010135Y024563D01*
X010169Y024600D01*
X010206Y024634D01*
X010246Y024664D01*
X010288Y024691D01*
X010332Y024715D01*
X010378Y024736D01*
X010425Y024752D01*
X010473Y024765D01*
X010523Y024774D01*
X010572Y024779D01*
X010623Y024780D01*
X010673Y024777D01*
X010722Y024770D01*
X010771Y024759D01*
X010819Y024744D01*
X010865Y024726D01*
X010910Y024704D01*
X010953Y024678D01*
X010994Y024649D01*
X011033Y024617D01*
X011069Y024582D01*
X011101Y024544D01*
X011131Y024504D01*
X011158Y024461D01*
X011181Y024417D01*
X011200Y024371D01*
X011216Y024323D01*
X011228Y024274D01*
X011236Y024225D01*
X011240Y024175D01*
X011240Y024125D01*
X011236Y024075D01*
X011228Y024026D01*
X011216Y023977D01*
X011200Y023929D01*
X011181Y023883D01*
X011158Y023839D01*
X011131Y023796D01*
X011101Y023756D01*
X011069Y023718D01*
X011033Y023683D01*
X010994Y023651D01*
X010953Y023622D01*
X010910Y023596D01*
X010865Y023574D01*
X010819Y023556D01*
X010771Y023541D01*
X010722Y023530D01*
X010673Y023523D01*
X010623Y023520D01*
X010572Y023521D01*
X010523Y023526D01*
X010473Y023535D01*
X010425Y023548D01*
X010378Y023564D01*
X010332Y023585D01*
X010288Y023609D01*
X010246Y023636D01*
X010206Y023666D01*
X010169Y023700D01*
X010135Y023737D01*
X010103Y023776D01*
X010075Y023817D01*
X010050Y023861D01*
X010029Y023906D01*
X010012Y023953D01*
X009998Y024001D01*
X009988Y024050D01*
X009982Y024100D01*
X009980Y024150D01*
X019980Y024150D02*
X019982Y024200D01*
X019988Y024250D01*
X019998Y024299D01*
X020012Y024347D01*
X020029Y024394D01*
X020050Y024439D01*
X020075Y024483D01*
X020103Y024524D01*
X020135Y024563D01*
X020169Y024600D01*
X020206Y024634D01*
X020246Y024664D01*
X020288Y024691D01*
X020332Y024715D01*
X020378Y024736D01*
X020425Y024752D01*
X020473Y024765D01*
X020523Y024774D01*
X020572Y024779D01*
X020623Y024780D01*
X020673Y024777D01*
X020722Y024770D01*
X020771Y024759D01*
X020819Y024744D01*
X020865Y024726D01*
X020910Y024704D01*
X020953Y024678D01*
X020994Y024649D01*
X021033Y024617D01*
X021069Y024582D01*
X021101Y024544D01*
X021131Y024504D01*
X021158Y024461D01*
X021181Y024417D01*
X021200Y024371D01*
X021216Y024323D01*
X021228Y024274D01*
X021236Y024225D01*
X021240Y024175D01*
X021240Y024125D01*
X021236Y024075D01*
X021228Y024026D01*
X021216Y023977D01*
X021200Y023929D01*
X021181Y023883D01*
X021158Y023839D01*
X021131Y023796D01*
X021101Y023756D01*
X021069Y023718D01*
X021033Y023683D01*
X020994Y023651D01*
X020953Y023622D01*
X020910Y023596D01*
X020865Y023574D01*
X020819Y023556D01*
X020771Y023541D01*
X020722Y023530D01*
X020673Y023523D01*
X020623Y023520D01*
X020572Y023521D01*
X020523Y023526D01*
X020473Y023535D01*
X020425Y023548D01*
X020378Y023564D01*
X020332Y023585D01*
X020288Y023609D01*
X020246Y023636D01*
X020206Y023666D01*
X020169Y023700D01*
X020135Y023737D01*
X020103Y023776D01*
X020075Y023817D01*
X020050Y023861D01*
X020029Y023906D01*
X020012Y023953D01*
X019998Y024001D01*
X019988Y024050D01*
X019982Y024100D01*
X019980Y024150D01*
D11*
X020610Y024150D03*
X010610Y024150D03*
D12*
X008110Y002150D03*
D13*
X008110Y001150D03*
X009110Y001150D03*
X010110Y001150D03*
X010110Y002150D03*
X009110Y002150D03*
X011110Y002150D03*
X012110Y002150D03*
X012110Y001150D03*
X011110Y001150D03*
X013110Y001150D03*
X014110Y001150D03*
X014110Y002150D03*
X013110Y002150D03*
X015110Y002150D03*
X016110Y002150D03*
X016110Y001150D03*
X015110Y001150D03*
X017110Y001150D03*
X018110Y001150D03*
X018110Y002150D03*
X017110Y002150D03*
X019110Y002150D03*
X020110Y002150D03*
X020110Y001150D03*
X019110Y001150D03*
X021110Y001150D03*
X022110Y001150D03*
X022110Y002150D03*
X021110Y002150D03*
X023110Y002150D03*
X023110Y001150D03*
D14*
X024410Y006550D03*
D15*
X024410Y007340D03*
X024410Y008130D03*
X024410Y008920D03*
X024410Y009710D03*
X024410Y010500D03*
X024410Y011290D03*
X024410Y012080D03*
X024410Y012870D03*
X024410Y013660D03*
X024430Y014450D03*
X024430Y015240D03*
X024430Y016030D03*
X024430Y016820D03*
X024430Y017610D03*
X024430Y018400D03*
X024430Y019190D03*
X024430Y019980D03*
X024430Y020770D03*
X024430Y021560D03*
X010250Y021600D03*
X010250Y020810D03*
X010250Y020020D03*
X010250Y019230D03*
X010250Y018440D03*
X010250Y017650D03*
X010250Y016860D03*
X010250Y016070D03*
X010250Y015280D03*
X010250Y014490D03*
X010230Y013700D03*
X010230Y012910D03*
X010230Y012120D03*
X010230Y011330D03*
X010230Y010540D03*
X010230Y009750D03*
X010230Y008960D03*
X010230Y008170D03*
X010230Y007380D03*
X010230Y006590D03*
D16*
X008110Y006315D03*
X008110Y006985D03*
X008110Y008315D03*
X008110Y008985D03*
X008110Y010315D03*
X008110Y010985D03*
X008110Y004985D03*
X008110Y004315D03*
X024510Y002485D03*
X024510Y001815D03*
D17*
X022110Y010150D03*
X020110Y010150D03*
X020110Y014150D03*
X022110Y014150D03*
D18*
X007110Y010945D03*
X007110Y010355D03*
X007110Y008945D03*
X007110Y008355D03*
X007110Y006945D03*
X007110Y006355D03*
X007110Y004945D03*
X007110Y004355D03*
D19*
X013110Y021150D03*
X014110Y021150D03*
X015110Y021150D03*
X016110Y021150D03*
X017110Y021150D03*
X018110Y021150D03*
X023610Y023650D03*
X023610Y024650D03*
X024610Y024650D03*
X024610Y023650D03*
D20*
X021610Y021650D03*
X006940Y001760D03*
X025110Y001150D03*
D21*
X024842Y001533D02*
X024847Y001541D01*
X024857Y001579D01*
X024857Y001767D01*
X024558Y001767D01*
X024558Y001449D01*
X024727Y001449D01*
X024754Y001456D01*
X024751Y001451D01*
X024733Y001434D01*
X024733Y001427D01*
X024721Y001409D01*
X024714Y001407D01*
X024704Y001384D01*
X024690Y001364D01*
X024691Y001357D01*
X024682Y001338D01*
X024676Y001334D01*
X024669Y001310D01*
X024659Y001288D01*
X024661Y001281D01*
X024656Y001261D01*
X024650Y001256D01*
X024648Y001231D01*
X024642Y001208D01*
X024646Y001201D01*
X024644Y001180D01*
X024639Y001174D01*
X024641Y001150D01*
X024639Y001126D01*
X024644Y001120D01*
X024646Y001099D01*
X024642Y001092D01*
X024648Y001069D01*
X024650Y001044D01*
X024656Y001039D01*
X024661Y001019D01*
X024659Y001012D01*
X024669Y000990D01*
X024676Y000966D01*
X024682Y000962D01*
X024691Y000943D01*
X024690Y000936D01*
X024704Y000916D01*
X024714Y000893D01*
X024721Y000891D01*
X024733Y000873D01*
X024733Y000866D01*
X024751Y000849D01*
X024765Y000828D01*
X024772Y000827D01*
X024787Y000812D01*
X024788Y000805D01*
X024809Y000791D01*
X024826Y000773D01*
X024833Y000773D01*
X024851Y000761D01*
X024853Y000754D01*
X024876Y000744D01*
X024896Y000730D01*
X024903Y000731D01*
X024922Y000722D01*
X024926Y000716D01*
X024950Y000709D01*
X024972Y000699D01*
X024979Y000701D01*
X024999Y000696D01*
X025004Y000690D01*
X025029Y000688D01*
X025052Y000682D01*
X025059Y000686D01*
X025080Y000684D01*
X025086Y000679D01*
X025110Y000681D01*
X025134Y000679D01*
X025140Y000684D01*
X025161Y000686D01*
X025168Y000682D01*
X025191Y000688D01*
X025216Y000690D01*
X025221Y000696D01*
X025241Y000701D01*
X025248Y000699D01*
X025270Y000709D01*
X025294Y000716D01*
X025298Y000722D01*
X025317Y000731D01*
X025324Y000730D01*
X025344Y000744D01*
X025367Y000754D01*
X025369Y000761D01*
X025387Y000773D01*
X025394Y000773D01*
X025411Y000791D01*
X025432Y000805D01*
X025433Y000812D01*
X025448Y000827D01*
X025455Y000828D01*
X025469Y000849D01*
X025487Y000866D01*
X025487Y000873D01*
X025499Y000891D01*
X025506Y000893D01*
X025516Y000916D01*
X025530Y000936D01*
X025529Y000943D01*
X025538Y000962D01*
X025544Y000966D01*
X025551Y000990D01*
X025561Y001012D01*
X025559Y001019D01*
X025564Y001039D01*
X025570Y001044D01*
X025572Y001069D01*
X025578Y001092D01*
X025574Y001099D01*
X025576Y001120D01*
X025581Y001126D01*
X025579Y001150D01*
X025581Y001174D01*
X025576Y001180D01*
X025574Y001201D01*
X025578Y001208D01*
X025572Y001231D01*
X025570Y001256D01*
X025564Y001261D01*
X025559Y001281D01*
X025561Y001288D01*
X025551Y001310D01*
X025544Y001334D01*
X025538Y001338D01*
X025529Y001357D01*
X025530Y001364D01*
X025516Y001384D01*
X025506Y001407D01*
X025499Y001409D01*
X025487Y001427D01*
X025487Y001434D01*
X025469Y001451D01*
X025455Y001472D01*
X025448Y001473D01*
X025433Y001488D01*
X025432Y001495D01*
X025411Y001509D01*
X025394Y001527D01*
X025387Y001527D01*
X025369Y001539D01*
X025367Y001546D01*
X025344Y001556D01*
X025324Y001570D01*
X025317Y001569D01*
X025298Y001578D01*
X025294Y001584D01*
X025270Y001591D01*
X025248Y001601D01*
X025241Y001599D01*
X025221Y001604D01*
X025216Y001610D01*
X025191Y001612D01*
X025168Y001618D01*
X025161Y001614D01*
X025140Y001616D01*
X025134Y001621D01*
X025110Y001619D01*
X025086Y001621D01*
X025080Y001616D01*
X025059Y001614D01*
X025052Y001618D01*
X025029Y001612D01*
X025004Y001610D01*
X024999Y001604D01*
X024979Y001599D01*
X024972Y001601D01*
X024950Y001591D01*
X024926Y001584D01*
X024922Y001578D01*
X024903Y001569D01*
X024896Y001570D01*
X024876Y001556D01*
X024853Y001546D01*
X024851Y001539D01*
X024842Y001533D01*
X024857Y001628D02*
X025859Y001628D01*
X025859Y001726D02*
X024857Y001726D01*
X024857Y001864D02*
X024558Y001864D01*
X024558Y001767D01*
X024462Y001767D01*
X024462Y001449D01*
X024293Y001449D01*
X024255Y001459D01*
X024221Y001479D01*
X024193Y001507D01*
X024173Y001541D01*
X024163Y001579D01*
X024163Y001767D01*
X024462Y001767D01*
X024462Y001864D01*
X024163Y001864D01*
X024163Y002052D01*
X024173Y002090D01*
X024193Y002124D01*
X024221Y002152D01*
X024254Y002171D01*
X024203Y002223D01*
X024203Y002747D01*
X024268Y002811D01*
X024290Y002811D01*
X024141Y002960D01*
X023689Y002960D01*
X023300Y002571D01*
X023300Y002497D01*
X023490Y002307D01*
X023490Y001993D01*
X023267Y001770D01*
X022953Y001770D01*
X022730Y001993D01*
X022730Y002307D01*
X022920Y002497D01*
X022920Y002729D01*
X023420Y003229D01*
X023531Y003340D01*
X024299Y003340D01*
X024589Y003050D01*
X024700Y002939D01*
X024700Y002811D01*
X024752Y002811D01*
X024817Y002747D01*
X024817Y002223D01*
X024766Y002171D01*
X024799Y002152D01*
X024827Y002124D01*
X024847Y002090D01*
X024857Y002052D01*
X024857Y001864D01*
X024857Y001923D02*
X025859Y001923D01*
X025859Y001825D02*
X024558Y001825D01*
X024462Y001825D02*
X023322Y001825D01*
X023420Y001923D02*
X024163Y001923D01*
X024163Y002022D02*
X023490Y002022D01*
X023490Y002120D02*
X024191Y002120D01*
X024207Y002219D02*
X023490Y002219D01*
X023480Y002317D02*
X024203Y002317D01*
X024203Y002416D02*
X023382Y002416D01*
X023300Y002514D02*
X024203Y002514D01*
X024203Y002613D02*
X023341Y002613D01*
X023440Y002711D02*
X024203Y002711D01*
X024266Y002810D02*
X023538Y002810D01*
X023637Y002908D02*
X024193Y002908D01*
X024435Y003204D02*
X025859Y003204D01*
X025859Y003302D02*
X024337Y003302D01*
X024534Y003105D02*
X025859Y003105D01*
X025859Y003007D02*
X024632Y003007D01*
X024700Y002908D02*
X025859Y002908D01*
X025859Y002810D02*
X024754Y002810D01*
X024817Y002711D02*
X025859Y002711D01*
X025859Y002613D02*
X024817Y002613D01*
X024817Y002514D02*
X025859Y002514D01*
X025859Y002416D02*
X024817Y002416D01*
X024817Y002317D02*
X025859Y002317D01*
X025859Y002219D02*
X024813Y002219D01*
X024829Y002120D02*
X025859Y002120D01*
X025859Y002022D02*
X024857Y002022D01*
X024558Y001726D02*
X024462Y001726D01*
X024462Y001628D02*
X024558Y001628D01*
X024558Y001529D02*
X024462Y001529D01*
X024180Y001529D02*
X023325Y001529D01*
X023284Y001570D02*
X023150Y001570D01*
X023150Y001190D01*
X023530Y001190D01*
X023530Y001324D01*
X023284Y001570D01*
X023150Y001529D02*
X023070Y001529D01*
X023070Y001570D02*
X022936Y001570D01*
X022690Y001324D01*
X022690Y001190D01*
X023070Y001190D01*
X023070Y001570D01*
X023070Y001431D02*
X023150Y001431D01*
X023150Y001332D02*
X023070Y001332D01*
X023070Y001234D02*
X023150Y001234D01*
X023150Y001190D02*
X023070Y001190D01*
X023070Y001110D01*
X023150Y001110D01*
X023150Y001190D01*
X023150Y001135D02*
X024640Y001135D01*
X024648Y001234D02*
X023530Y001234D01*
X023522Y001332D02*
X024675Y001332D01*
X024733Y001431D02*
X023423Y001431D01*
X023530Y001110D02*
X023150Y001110D01*
X023150Y000730D01*
X023284Y000730D01*
X023530Y000976D01*
X023530Y001110D01*
X023530Y001037D02*
X024657Y001037D01*
X024690Y000938D02*
X023492Y000938D01*
X023393Y000840D02*
X024757Y000840D01*
X024880Y000741D02*
X023295Y000741D01*
X023150Y000741D02*
X023070Y000741D01*
X023070Y000730D02*
X023070Y001110D01*
X022690Y001110D01*
X022690Y000976D01*
X022936Y000730D01*
X023070Y000730D01*
X023070Y000840D02*
X023150Y000840D01*
X023150Y000938D02*
X023070Y000938D01*
X023070Y001037D02*
X023150Y001037D01*
X023070Y001135D02*
X022490Y001135D01*
X022490Y001037D02*
X022690Y001037D01*
X022728Y000938D02*
X022435Y000938D01*
X022490Y000993D02*
X022267Y000770D01*
X021953Y000770D01*
X021730Y000993D01*
X021730Y001307D01*
X021953Y001530D01*
X022267Y001530D01*
X022490Y001307D01*
X022490Y000993D01*
X022337Y000840D02*
X022827Y000840D01*
X022925Y000741D02*
X016295Y000741D01*
X016284Y000730D02*
X016530Y000976D01*
X016530Y001110D01*
X016150Y001110D01*
X016150Y001190D01*
X016530Y001190D01*
X016530Y001324D01*
X016284Y001570D01*
X016150Y001570D01*
X016150Y001190D01*
X016070Y001190D01*
X016070Y001570D01*
X015936Y001570D01*
X015690Y001324D01*
X015690Y001190D01*
X016070Y001190D01*
X016070Y001110D01*
X016150Y001110D01*
X016150Y000730D01*
X016284Y000730D01*
X016150Y000741D02*
X016070Y000741D01*
X016070Y000730D02*
X016070Y001110D01*
X015690Y001110D01*
X015690Y000976D01*
X015936Y000730D01*
X016070Y000730D01*
X016070Y000840D02*
X016150Y000840D01*
X016150Y000938D02*
X016070Y000938D01*
X016070Y001037D02*
X016150Y001037D01*
X016150Y001135D02*
X016730Y001135D01*
X016730Y001037D02*
X016530Y001037D01*
X016492Y000938D02*
X016785Y000938D01*
X016730Y000993D02*
X016953Y000770D01*
X017267Y000770D01*
X017490Y000993D01*
X017490Y001307D01*
X017267Y001530D01*
X016953Y001530D01*
X016730Y001307D01*
X016730Y000993D01*
X016883Y000840D02*
X016393Y000840D01*
X016530Y001234D02*
X016730Y001234D01*
X016755Y001332D02*
X016522Y001332D01*
X016423Y001431D02*
X016853Y001431D01*
X016952Y001529D02*
X016325Y001529D01*
X016150Y001529D02*
X016070Y001529D01*
X016070Y001431D02*
X016150Y001431D01*
X016150Y001332D02*
X016070Y001332D01*
X016070Y001234D02*
X016150Y001234D01*
X016070Y001135D02*
X015490Y001135D01*
X015490Y001037D02*
X015690Y001037D01*
X015728Y000938D02*
X015435Y000938D01*
X015490Y000993D02*
X015267Y000770D01*
X014953Y000770D01*
X014730Y000993D01*
X014730Y001307D01*
X014953Y001530D01*
X015267Y001530D01*
X015490Y001307D01*
X015490Y000993D01*
X015337Y000840D02*
X015827Y000840D01*
X015925Y000741D02*
X006360Y000741D01*
X006360Y000643D02*
X025859Y000643D01*
X025859Y000741D02*
X025340Y000741D01*
X025463Y000840D02*
X025859Y000840D01*
X025859Y000938D02*
X025530Y000938D01*
X025563Y001037D02*
X025859Y001037D01*
X025859Y001135D02*
X025580Y001135D01*
X025572Y001234D02*
X025859Y001234D01*
X025859Y001332D02*
X025545Y001332D01*
X025487Y001431D02*
X025859Y001431D01*
X025859Y001529D02*
X025383Y001529D01*
X025859Y000544D02*
X006360Y000544D01*
X006360Y000446D02*
X025859Y000446D01*
X025859Y000398D02*
X006360Y000400D01*
X006360Y025900D01*
X025860Y025900D01*
X025860Y017346D01*
X025859Y000398D01*
X024163Y001628D02*
X021770Y001628D01*
X021770Y001584D02*
X021770Y001953D01*
X021953Y001770D01*
X022267Y001770D01*
X022490Y001993D01*
X022490Y002307D01*
X022270Y002527D01*
X022270Y002584D01*
X023176Y003490D01*
X023270Y003584D01*
X023270Y008224D01*
X023318Y008271D01*
X023355Y008361D01*
X023355Y008459D01*
X023318Y008549D01*
X023270Y008596D01*
X023270Y008716D01*
X022855Y009131D01*
X022855Y009199D01*
X022818Y009289D01*
X022749Y009358D01*
X022659Y009395D01*
X022561Y009395D01*
X022471Y009358D01*
X022402Y009289D01*
X022365Y009199D01*
X022365Y009101D01*
X022402Y009011D01*
X022471Y008942D01*
X022561Y008905D01*
X022629Y008905D01*
X022944Y008590D01*
X022902Y008549D01*
X022865Y008459D01*
X022865Y008361D01*
X022902Y008271D01*
X022950Y008224D01*
X022950Y003716D01*
X021950Y002716D01*
X021950Y002527D01*
X021770Y002347D01*
X021770Y003084D01*
X022270Y003584D01*
X022270Y009815D01*
X022460Y010005D01*
X022460Y010295D01*
X022255Y010500D01*
X021965Y010500D01*
X021760Y010295D01*
X021760Y010005D01*
X021950Y009815D01*
X021950Y003716D01*
X021544Y003310D01*
X021450Y003216D01*
X021450Y002347D01*
X021270Y002527D01*
X021270Y003216D01*
X020270Y004216D01*
X020270Y009815D01*
X020460Y010005D01*
X020460Y010295D01*
X020255Y010500D01*
X019965Y010500D01*
X019760Y010295D01*
X019760Y010005D01*
X019950Y009815D01*
X019950Y004084D01*
X020044Y003990D01*
X020950Y003084D01*
X020950Y002527D01*
X020730Y002307D01*
X020730Y001993D01*
X020953Y001770D01*
X021267Y001770D01*
X021450Y001953D01*
X021450Y001716D01*
X021264Y001530D01*
X020953Y001530D01*
X020730Y001307D01*
X020730Y000993D01*
X020953Y000770D01*
X021267Y000770D01*
X021490Y000993D01*
X021490Y001304D01*
X021770Y001584D01*
X021715Y001529D02*
X021952Y001529D01*
X021853Y001431D02*
X021617Y001431D01*
X021518Y001332D02*
X021755Y001332D01*
X021730Y001234D02*
X021490Y001234D01*
X021490Y001135D02*
X021730Y001135D01*
X021730Y001037D02*
X021490Y001037D01*
X021435Y000938D02*
X021785Y000938D01*
X021883Y000840D02*
X021337Y000840D01*
X021110Y001150D02*
X021610Y001650D01*
X021610Y003150D01*
X022110Y003650D01*
X022110Y010150D01*
X022356Y009902D02*
X023450Y009902D01*
X023450Y010000D02*
X022455Y010000D01*
X022460Y010099D02*
X023450Y010099D01*
X023450Y010197D02*
X022460Y010197D01*
X022459Y010296D02*
X023418Y010296D01*
X023402Y010311D02*
X023450Y010264D01*
X023450Y009584D01*
X023544Y009490D01*
X024036Y008998D01*
X024034Y008995D01*
X024034Y008845D01*
X024091Y008707D01*
X024197Y008601D01*
X024335Y008544D01*
X024485Y008544D01*
X024623Y008601D01*
X024729Y008707D01*
X024786Y008845D01*
X024786Y008995D01*
X024729Y009133D01*
X024623Y009239D01*
X024485Y009296D01*
X024335Y009296D01*
X024233Y009253D01*
X023770Y009716D01*
X023770Y010264D01*
X023818Y010311D01*
X023855Y010401D01*
X023855Y010499D01*
X023818Y010589D01*
X023749Y010658D01*
X023659Y010695D01*
X023561Y010695D01*
X023471Y010658D01*
X023402Y010589D01*
X023365Y010499D01*
X023365Y010401D01*
X023402Y010311D01*
X023368Y010394D02*
X022361Y010394D01*
X022262Y010493D02*
X023365Y010493D01*
X023405Y010591D02*
X010606Y010591D01*
X010606Y010615D02*
X010549Y010753D01*
X010443Y010859D01*
X010305Y010916D01*
X010155Y010916D01*
X010017Y010859D01*
X009911Y010753D01*
X009854Y010615D01*
X009854Y010465D01*
X009911Y010327D01*
X010017Y010221D01*
X010155Y010164D01*
X010305Y010164D01*
X010443Y010221D01*
X010549Y010327D01*
X010606Y010465D01*
X010606Y010615D01*
X010575Y010690D02*
X023548Y010690D01*
X023672Y010690D02*
X024082Y010690D01*
X024091Y010713D02*
X024034Y010575D01*
X024034Y010425D01*
X024091Y010287D01*
X024197Y010181D01*
X024335Y010124D01*
X024485Y010124D01*
X024623Y010181D01*
X024729Y010287D01*
X024786Y010425D01*
X024786Y010575D01*
X024729Y010713D01*
X024623Y010819D01*
X024485Y010876D01*
X024335Y010876D01*
X024197Y010819D01*
X024091Y010713D01*
X024167Y010788D02*
X010513Y010788D01*
X010375Y010887D02*
X025860Y010887D01*
X025860Y010985D02*
X024636Y010985D01*
X024623Y010971D02*
X024729Y011077D01*
X024786Y011215D01*
X024786Y011365D01*
X024729Y011503D01*
X024623Y011609D01*
X024485Y011666D01*
X024335Y011666D01*
X024197Y011609D01*
X024091Y011503D01*
X024034Y011365D01*
X024034Y011215D01*
X024091Y011077D01*
X024197Y010971D01*
X024335Y010914D01*
X024485Y010914D01*
X024623Y010971D01*
X024731Y011084D02*
X025860Y011084D01*
X025860Y011182D02*
X024772Y011182D01*
X024786Y011281D02*
X025860Y011281D01*
X025860Y011379D02*
X024780Y011379D01*
X024739Y011478D02*
X025860Y011478D01*
X025860Y011576D02*
X024655Y011576D01*
X024623Y011761D02*
X024729Y011867D01*
X024786Y012005D01*
X024786Y012155D01*
X024729Y012293D01*
X024623Y012399D01*
X024485Y012456D01*
X024335Y012456D01*
X024197Y012399D01*
X024091Y012293D01*
X024034Y012155D01*
X024034Y012005D01*
X024091Y011867D01*
X024197Y011761D01*
X024335Y011704D01*
X024485Y011704D01*
X024623Y011761D01*
X024634Y011773D02*
X025860Y011773D01*
X025860Y011675D02*
X010380Y011675D01*
X010443Y011649D02*
X010305Y011706D01*
X010155Y011706D01*
X010017Y011649D01*
X009911Y011543D01*
X009854Y011405D01*
X009854Y011255D01*
X009911Y011117D01*
X010017Y011011D01*
X010155Y010954D01*
X010305Y010954D01*
X010443Y011011D01*
X010549Y011117D01*
X010606Y011255D01*
X010606Y011405D01*
X010549Y011543D01*
X010443Y011649D01*
X010515Y011576D02*
X024165Y011576D01*
X024081Y011478D02*
X010576Y011478D01*
X010606Y011379D02*
X024040Y011379D01*
X024034Y011281D02*
X010606Y011281D01*
X010575Y011182D02*
X024048Y011182D01*
X024089Y011084D02*
X010515Y011084D01*
X010379Y010985D02*
X024184Y010985D01*
X024041Y010591D02*
X023815Y010591D01*
X023855Y010493D02*
X024034Y010493D01*
X024047Y010394D02*
X023852Y010394D01*
X023802Y010296D02*
X024088Y010296D01*
X024182Y010197D02*
X023770Y010197D01*
X023770Y010099D02*
X025860Y010099D01*
X025860Y010197D02*
X024638Y010197D01*
X024732Y010296D02*
X025860Y010296D01*
X025860Y010394D02*
X024773Y010394D01*
X024786Y010493D02*
X025860Y010493D01*
X025860Y010591D02*
X024779Y010591D01*
X024738Y010690D02*
X025860Y010690D01*
X025860Y010788D02*
X024653Y010788D01*
X024485Y010086D02*
X024335Y010086D01*
X024197Y010029D01*
X024091Y009923D01*
X024034Y009785D01*
X024034Y009635D01*
X024091Y009497D01*
X024197Y009391D01*
X024335Y009334D01*
X024485Y009334D01*
X024623Y009391D01*
X024729Y009497D01*
X024786Y009635D01*
X024786Y009785D01*
X024729Y009923D01*
X024623Y010029D01*
X024485Y010086D01*
X024651Y010000D02*
X025859Y010000D01*
X025859Y009902D02*
X024737Y009902D01*
X024778Y009803D02*
X025859Y009803D01*
X025859Y009705D02*
X024786Y009705D01*
X024774Y009606D02*
X025859Y009606D01*
X025859Y009508D02*
X024733Y009508D01*
X024640Y009409D02*
X025859Y009409D01*
X025859Y009311D02*
X024176Y009311D01*
X024180Y009409D02*
X024077Y009409D01*
X024087Y009508D02*
X023979Y009508D01*
X024046Y009606D02*
X023880Y009606D01*
X023782Y009705D02*
X024034Y009705D01*
X024042Y009803D02*
X023770Y009803D01*
X023770Y009902D02*
X024083Y009902D01*
X024169Y010000D02*
X023770Y010000D01*
X023450Y009803D02*
X023103Y009803D01*
X023118Y009789D02*
X023049Y009858D01*
X022959Y009895D01*
X022861Y009895D01*
X022771Y009858D01*
X022702Y009789D01*
X022665Y009699D01*
X022665Y009601D01*
X022702Y009511D01*
X022771Y009442D01*
X022861Y009405D01*
X022909Y009405D01*
X024056Y008258D01*
X024034Y008205D01*
X024034Y008055D01*
X024091Y007917D01*
X024197Y007811D01*
X024335Y007754D01*
X024485Y007754D01*
X024623Y007811D01*
X024729Y007917D01*
X024786Y008055D01*
X024786Y008205D01*
X024729Y008343D01*
X024623Y008449D01*
X024485Y008506D01*
X024335Y008506D01*
X024282Y008484D01*
X023155Y009611D01*
X023155Y009699D01*
X023118Y009789D01*
X023153Y009705D02*
X023450Y009705D01*
X023450Y009606D02*
X023160Y009606D01*
X023259Y009508D02*
X023526Y009508D01*
X023625Y009409D02*
X023357Y009409D01*
X023456Y009311D02*
X023723Y009311D01*
X023822Y009212D02*
X023554Y009212D01*
X023653Y009114D02*
X023920Y009114D01*
X024019Y009015D02*
X023751Y009015D01*
X023850Y008917D02*
X024034Y008917D01*
X024046Y008818D02*
X023948Y008818D01*
X024047Y008720D02*
X024086Y008720D01*
X024145Y008621D02*
X024178Y008621D01*
X024244Y008523D02*
X025859Y008523D01*
X025859Y008621D02*
X024642Y008621D01*
X024734Y008720D02*
X025859Y008720D01*
X025859Y008818D02*
X024774Y008818D01*
X024786Y008917D02*
X025859Y008917D01*
X025859Y009015D02*
X024777Y009015D01*
X024737Y009114D02*
X025859Y009114D01*
X025859Y009212D02*
X024649Y009212D01*
X024410Y008920D02*
X024340Y008920D01*
X023610Y009650D01*
X023610Y010450D01*
X022910Y009650D02*
X022910Y009630D01*
X024410Y008130D01*
X024034Y008129D02*
X023270Y008129D01*
X023274Y008227D02*
X024043Y008227D01*
X023988Y008326D02*
X023340Y008326D01*
X023355Y008424D02*
X023890Y008424D01*
X023791Y008523D02*
X023329Y008523D01*
X023270Y008621D02*
X023693Y008621D01*
X023594Y008720D02*
X023267Y008720D01*
X023168Y008818D02*
X023496Y008818D01*
X023397Y008917D02*
X023070Y008917D01*
X022971Y009015D02*
X023299Y009015D01*
X023200Y009114D02*
X022873Y009114D01*
X022849Y009212D02*
X023102Y009212D01*
X023003Y009311D02*
X022796Y009311D01*
X022852Y009409D02*
X022270Y009409D01*
X022270Y009311D02*
X022424Y009311D01*
X022371Y009212D02*
X022270Y009212D01*
X022270Y009114D02*
X022365Y009114D01*
X022401Y009015D02*
X022270Y009015D01*
X022270Y008917D02*
X022533Y008917D01*
X022716Y008818D02*
X022270Y008818D01*
X022270Y008720D02*
X022814Y008720D01*
X022913Y008621D02*
X022270Y008621D01*
X022270Y008523D02*
X022891Y008523D01*
X022865Y008424D02*
X022270Y008424D01*
X022270Y008326D02*
X022880Y008326D01*
X022946Y008227D02*
X022270Y008227D01*
X022270Y008129D02*
X022950Y008129D01*
X022950Y008030D02*
X022270Y008030D01*
X022270Y007932D02*
X022950Y007932D01*
X022950Y007833D02*
X022270Y007833D01*
X022270Y007735D02*
X022950Y007735D01*
X022950Y007636D02*
X022270Y007636D01*
X022270Y007538D02*
X022950Y007538D01*
X022950Y007439D02*
X022270Y007439D01*
X022270Y007341D02*
X022950Y007341D01*
X022950Y007242D02*
X022270Y007242D01*
X022270Y007144D02*
X022950Y007144D01*
X022950Y007045D02*
X022270Y007045D01*
X022270Y006947D02*
X022950Y006947D01*
X022950Y006848D02*
X022270Y006848D01*
X022270Y006750D02*
X022950Y006750D01*
X022950Y006651D02*
X022270Y006651D01*
X022270Y006553D02*
X022950Y006553D01*
X022950Y006454D02*
X022270Y006454D01*
X022270Y006356D02*
X022950Y006356D01*
X022950Y006257D02*
X022270Y006257D01*
X022270Y006159D02*
X022950Y006159D01*
X022950Y006060D02*
X022270Y006060D01*
X022270Y005962D02*
X022950Y005962D01*
X022950Y005863D02*
X022270Y005863D01*
X022270Y005765D02*
X022950Y005765D01*
X022950Y005666D02*
X022270Y005666D01*
X022270Y005568D02*
X022950Y005568D01*
X022950Y005469D02*
X022270Y005469D01*
X022270Y005371D02*
X022950Y005371D01*
X022950Y005272D02*
X022270Y005272D01*
X022270Y005174D02*
X022950Y005174D01*
X022950Y005075D02*
X022270Y005075D01*
X022270Y004977D02*
X022950Y004977D01*
X022950Y004878D02*
X022270Y004878D01*
X022270Y004780D02*
X022950Y004780D01*
X022950Y004681D02*
X022270Y004681D01*
X022270Y004583D02*
X022950Y004583D01*
X022950Y004484D02*
X022270Y004484D01*
X022270Y004386D02*
X022950Y004386D01*
X022950Y004287D02*
X022270Y004287D01*
X022270Y004189D02*
X022950Y004189D01*
X022950Y004090D02*
X022270Y004090D01*
X022270Y003992D02*
X022950Y003992D01*
X022950Y003893D02*
X022270Y003893D01*
X022270Y003795D02*
X022950Y003795D01*
X022930Y003696D02*
X022270Y003696D01*
X022270Y003598D02*
X022831Y003598D01*
X022733Y003499D02*
X022185Y003499D01*
X022087Y003401D02*
X022634Y003401D01*
X022536Y003302D02*
X021988Y003302D01*
X021890Y003204D02*
X022437Y003204D01*
X022339Y003105D02*
X021791Y003105D01*
X021770Y003007D02*
X022240Y003007D01*
X022142Y002908D02*
X021770Y002908D01*
X021770Y002810D02*
X022043Y002810D01*
X021950Y002711D02*
X021770Y002711D01*
X021770Y002613D02*
X021950Y002613D01*
X021937Y002514D02*
X021770Y002514D01*
X021770Y002416D02*
X021838Y002416D01*
X022110Y002650D02*
X022110Y002150D01*
X022382Y002416D02*
X022838Y002416D01*
X022920Y002514D02*
X022283Y002514D01*
X022299Y002613D02*
X022920Y002613D01*
X022920Y002711D02*
X022397Y002711D01*
X022496Y002810D02*
X023001Y002810D01*
X023099Y002908D02*
X022594Y002908D01*
X022693Y003007D02*
X023198Y003007D01*
X023296Y003105D02*
X022791Y003105D01*
X022890Y003204D02*
X023395Y003204D01*
X023493Y003302D02*
X022988Y003302D01*
X023087Y003401D02*
X025859Y003401D01*
X025859Y003499D02*
X023185Y003499D01*
X023270Y003598D02*
X025859Y003598D01*
X025859Y003696D02*
X023270Y003696D01*
X023270Y003795D02*
X025859Y003795D01*
X025859Y003893D02*
X023270Y003893D01*
X023270Y003992D02*
X025859Y003992D01*
X025859Y004090D02*
X023270Y004090D01*
X023270Y004189D02*
X025859Y004189D01*
X025859Y004287D02*
X023270Y004287D01*
X023270Y004386D02*
X025859Y004386D01*
X025859Y004484D02*
X023270Y004484D01*
X023270Y004583D02*
X025859Y004583D01*
X025859Y004681D02*
X023270Y004681D01*
X023270Y004780D02*
X025859Y004780D01*
X025859Y004878D02*
X023270Y004878D01*
X023270Y004977D02*
X025859Y004977D01*
X025859Y005075D02*
X023270Y005075D01*
X023270Y005174D02*
X025859Y005174D01*
X025859Y005272D02*
X023270Y005272D01*
X023270Y005371D02*
X025859Y005371D01*
X025859Y005469D02*
X023270Y005469D01*
X023270Y005568D02*
X025859Y005568D01*
X025859Y005666D02*
X023270Y005666D01*
X023270Y005765D02*
X025859Y005765D01*
X025859Y005863D02*
X023270Y005863D01*
X023270Y005962D02*
X025859Y005962D01*
X025859Y006060D02*
X023270Y006060D01*
X023270Y006159D02*
X025859Y006159D01*
X025859Y006257D02*
X024786Y006257D01*
X024786Y006239D02*
X024786Y006861D01*
X024721Y006926D01*
X024099Y006926D01*
X024034Y006861D01*
X024034Y006239D01*
X024099Y006174D01*
X024721Y006174D01*
X024786Y006239D01*
X024786Y006356D02*
X025859Y006356D01*
X025859Y006454D02*
X024786Y006454D01*
X024786Y006553D02*
X025859Y006553D01*
X025859Y006651D02*
X024786Y006651D01*
X024786Y006750D02*
X025859Y006750D01*
X025859Y006848D02*
X024786Y006848D01*
X024623Y007021D02*
X024729Y007127D01*
X024786Y007265D01*
X024786Y007415D01*
X024729Y007553D01*
X024623Y007659D01*
X024485Y007716D01*
X024335Y007716D01*
X024197Y007659D01*
X024091Y007553D01*
X024034Y007415D01*
X024034Y007265D01*
X024091Y007127D01*
X024197Y007021D01*
X024335Y006964D01*
X024485Y006964D01*
X024623Y007021D01*
X024646Y007045D02*
X025859Y007045D01*
X025859Y006947D02*
X023270Y006947D01*
X023270Y007045D02*
X024174Y007045D01*
X024085Y007144D02*
X023270Y007144D01*
X023270Y007242D02*
X024044Y007242D01*
X024034Y007341D02*
X023270Y007341D01*
X023270Y007439D02*
X024044Y007439D01*
X024085Y007538D02*
X023270Y007538D01*
X023270Y007636D02*
X024175Y007636D01*
X024176Y007833D02*
X023270Y007833D01*
X023270Y007735D02*
X025859Y007735D01*
X025859Y007833D02*
X024644Y007833D01*
X024734Y007932D02*
X025859Y007932D01*
X025859Y008030D02*
X024775Y008030D01*
X024786Y008129D02*
X025859Y008129D01*
X025859Y008227D02*
X024777Y008227D01*
X024736Y008326D02*
X025859Y008326D01*
X025859Y008424D02*
X024647Y008424D01*
X024045Y008030D02*
X023270Y008030D01*
X023270Y007932D02*
X024086Y007932D01*
X024645Y007636D02*
X025859Y007636D01*
X025859Y007538D02*
X024735Y007538D01*
X024776Y007439D02*
X025859Y007439D01*
X025859Y007341D02*
X024786Y007341D01*
X024776Y007242D02*
X025859Y007242D01*
X025859Y007144D02*
X024735Y007144D01*
X024034Y006848D02*
X023270Y006848D01*
X023270Y006750D02*
X024034Y006750D01*
X024034Y006651D02*
X023270Y006651D01*
X023270Y006553D02*
X024034Y006553D01*
X024034Y006454D02*
X023270Y006454D01*
X023270Y006356D02*
X024034Y006356D01*
X024034Y006257D02*
X023270Y006257D01*
X021950Y006257D02*
X020270Y006257D01*
X020270Y006159D02*
X021950Y006159D01*
X021950Y006060D02*
X020270Y006060D01*
X020270Y005962D02*
X021950Y005962D01*
X021950Y005863D02*
X020270Y005863D01*
X020270Y005765D02*
X021950Y005765D01*
X021950Y005666D02*
X020270Y005666D01*
X020270Y005568D02*
X021950Y005568D01*
X021950Y005469D02*
X020270Y005469D01*
X020270Y005371D02*
X021950Y005371D01*
X021950Y005272D02*
X020270Y005272D01*
X020270Y005174D02*
X021950Y005174D01*
X021950Y005075D02*
X020270Y005075D01*
X020270Y004977D02*
X021950Y004977D01*
X021950Y004878D02*
X020270Y004878D01*
X020270Y004780D02*
X021950Y004780D01*
X021950Y004681D02*
X020270Y004681D01*
X020270Y004583D02*
X021950Y004583D01*
X021950Y004484D02*
X020270Y004484D01*
X020270Y004386D02*
X021950Y004386D01*
X021950Y004287D02*
X020270Y004287D01*
X020298Y004189D02*
X021950Y004189D01*
X021950Y004090D02*
X020396Y004090D01*
X020495Y003992D02*
X021950Y003992D01*
X021950Y003893D02*
X020593Y003893D01*
X020692Y003795D02*
X021950Y003795D01*
X021930Y003696D02*
X020790Y003696D01*
X020889Y003598D02*
X021831Y003598D01*
X021733Y003499D02*
X020987Y003499D01*
X021086Y003401D02*
X021634Y003401D01*
X021536Y003302D02*
X021184Y003302D01*
X021270Y003204D02*
X021450Y003204D01*
X021450Y003105D02*
X021270Y003105D01*
X021270Y003007D02*
X021450Y003007D01*
X021450Y002908D02*
X021270Y002908D01*
X021270Y002810D02*
X021450Y002810D01*
X021450Y002711D02*
X021270Y002711D01*
X021270Y002613D02*
X021450Y002613D01*
X021450Y002514D02*
X021283Y002514D01*
X021382Y002416D02*
X021450Y002416D01*
X021110Y002150D02*
X021110Y003150D01*
X020110Y004150D01*
X020110Y010150D01*
X020356Y009902D02*
X021864Y009902D01*
X021950Y009803D02*
X020270Y009803D01*
X020270Y009705D02*
X021950Y009705D01*
X021950Y009606D02*
X020270Y009606D01*
X020270Y009508D02*
X021950Y009508D01*
X021950Y009409D02*
X020270Y009409D01*
X020270Y009311D02*
X021950Y009311D01*
X021950Y009212D02*
X020270Y009212D01*
X020270Y009114D02*
X021950Y009114D01*
X021950Y009015D02*
X020270Y009015D01*
X020270Y008917D02*
X021950Y008917D01*
X021950Y008818D02*
X020270Y008818D01*
X020270Y008720D02*
X021950Y008720D01*
X021950Y008621D02*
X020270Y008621D01*
X020270Y008523D02*
X021950Y008523D01*
X021950Y008424D02*
X020270Y008424D01*
X020270Y008326D02*
X021950Y008326D01*
X021950Y008227D02*
X020270Y008227D01*
X020270Y008129D02*
X021950Y008129D01*
X021950Y008030D02*
X020270Y008030D01*
X020270Y007932D02*
X021950Y007932D01*
X021950Y007833D02*
X020270Y007833D01*
X020270Y007735D02*
X021950Y007735D01*
X021950Y007636D02*
X020270Y007636D01*
X020270Y007538D02*
X021950Y007538D01*
X021950Y007439D02*
X020270Y007439D01*
X020270Y007341D02*
X021950Y007341D01*
X021950Y007242D02*
X020270Y007242D01*
X020270Y007144D02*
X021950Y007144D01*
X021950Y007045D02*
X020270Y007045D01*
X020270Y006947D02*
X021950Y006947D01*
X021950Y006848D02*
X020270Y006848D01*
X020270Y006750D02*
X021950Y006750D01*
X021950Y006651D02*
X020270Y006651D01*
X020270Y006553D02*
X021950Y006553D01*
X021950Y006454D02*
X020270Y006454D01*
X020270Y006356D02*
X021950Y006356D01*
X019950Y006356D02*
X010574Y006356D01*
X010586Y006372D02*
X010615Y006430D01*
X010636Y006493D01*
X010645Y006551D01*
X010269Y006551D01*
X010269Y006629D01*
X010645Y006629D01*
X010636Y006687D01*
X010615Y006750D01*
X010586Y006808D01*
X010547Y006861D01*
X010501Y006907D01*
X010448Y006946D01*
X010390Y006975D01*
X010327Y006996D01*
X010272Y007004D01*
X010305Y007004D01*
X010443Y007061D01*
X010549Y007167D01*
X010606Y007305D01*
X010606Y007455D01*
X010549Y007593D01*
X010443Y007699D01*
X010305Y007756D01*
X010155Y007756D01*
X010017Y007699D01*
X009911Y007593D01*
X009854Y007455D01*
X009854Y007305D01*
X009911Y007167D01*
X010017Y007061D01*
X010155Y007004D01*
X010188Y007004D01*
X010133Y006996D01*
X010070Y006975D01*
X010012Y006946D01*
X009959Y006907D01*
X009913Y006861D01*
X009874Y006808D01*
X009845Y006750D01*
X009824Y006687D01*
X009815Y006629D01*
X010191Y006629D01*
X010191Y006551D01*
X010269Y006551D01*
X010269Y006175D01*
X010327Y006184D01*
X010390Y006205D01*
X010448Y006234D01*
X010501Y006273D01*
X010547Y006319D01*
X010586Y006372D01*
X010623Y006454D02*
X019950Y006454D01*
X019950Y006553D02*
X010269Y006553D01*
X010191Y006553D02*
X008939Y006553D01*
X009037Y006651D02*
X009819Y006651D01*
X009815Y006551D02*
X009824Y006493D01*
X009845Y006430D01*
X009874Y006372D01*
X009913Y006319D01*
X009959Y006273D01*
X010012Y006234D01*
X010070Y006205D01*
X010133Y006184D01*
X010191Y006175D01*
X010191Y006551D01*
X009815Y006551D01*
X009837Y006454D02*
X008840Y006454D01*
X008742Y006356D02*
X009886Y006356D01*
X009981Y006257D02*
X008643Y006257D01*
X008665Y006278D02*
X008665Y006278D01*
X009570Y007184D01*
X009570Y012584D01*
X009736Y012750D01*
X009890Y012750D01*
X009911Y012697D01*
X010017Y012591D01*
X010155Y012534D01*
X010305Y012534D01*
X010443Y012591D01*
X010549Y012697D01*
X010606Y012835D01*
X010606Y012985D01*
X010549Y013123D01*
X010443Y013229D01*
X010305Y013286D01*
X010155Y013286D01*
X010017Y013229D01*
X009911Y013123D01*
X009890Y013070D01*
X009604Y013070D01*
X009344Y012810D01*
X009270Y012736D01*
X009270Y013384D01*
X009426Y013540D01*
X009890Y013540D01*
X009911Y013487D01*
X010017Y013381D01*
X010155Y013324D01*
X010305Y013324D01*
X010443Y013381D01*
X010549Y013487D01*
X010606Y013625D01*
X010606Y013775D01*
X010549Y013913D01*
X010443Y014019D01*
X010305Y014076D01*
X010155Y014076D01*
X010017Y014019D01*
X009911Y013913D01*
X009890Y013860D01*
X009294Y013860D01*
X009044Y013610D01*
X008970Y013536D01*
X008970Y014084D01*
X009216Y014330D01*
X009910Y014330D01*
X009931Y014277D01*
X010037Y014171D01*
X010175Y014114D01*
X010325Y014114D01*
X010463Y014171D01*
X010569Y014277D01*
X010626Y014415D01*
X010626Y014565D01*
X010569Y014703D01*
X010463Y014809D01*
X010325Y014866D01*
X010175Y014866D01*
X010037Y014809D01*
X009931Y014703D01*
X009910Y014650D01*
X009084Y014650D01*
X008744Y014310D01*
X008650Y014216D01*
X008650Y010816D01*
X008414Y010580D01*
X008352Y010642D01*
X007868Y010642D01*
X007803Y010577D01*
X007803Y010053D01*
X007868Y009989D01*
X008352Y009989D01*
X008417Y010053D01*
X008417Y010168D01*
X008456Y010185D01*
X008471Y010185D01*
X008483Y010197D01*
X008518Y010232D01*
X008565Y010278D01*
X008876Y010590D01*
X008876Y010590D01*
X008950Y010664D01*
X008950Y009016D01*
X008417Y008483D01*
X008417Y008577D01*
X008352Y008642D01*
X007868Y008642D01*
X007803Y008577D01*
X007803Y008053D01*
X007868Y007989D01*
X008352Y007989D01*
X008417Y008053D01*
X008417Y008155D01*
X008500Y008155D01*
X008510Y008166D01*
X008556Y008185D01*
X008571Y008185D01*
X008587Y008201D01*
X008618Y008232D01*
X008665Y008278D01*
X009250Y008864D01*
X009250Y007316D01*
X008417Y006483D01*
X008417Y006577D01*
X008352Y006642D01*
X007868Y006642D01*
X007803Y006577D01*
X007803Y006053D01*
X007868Y005989D01*
X008352Y005989D01*
X008417Y006053D01*
X008417Y006155D01*
X008500Y006155D01*
X008510Y006166D01*
X008556Y006185D01*
X008571Y006185D01*
X008581Y006195D01*
X008582Y006196D01*
X008618Y006232D01*
X008665Y006278D01*
X008505Y006345D02*
X009410Y007250D01*
X009410Y012650D01*
X009670Y012910D01*
X010230Y012910D01*
X010070Y013251D02*
X009270Y013251D01*
X009270Y013349D02*
X010095Y013349D01*
X009951Y013448D02*
X009334Y013448D01*
X009110Y013450D02*
X009110Y008950D01*
X008505Y008345D01*
X008434Y008315D02*
X008110Y008315D01*
X007803Y008326D02*
X007377Y008326D01*
X007377Y008424D02*
X007803Y008424D01*
X007803Y008523D02*
X007377Y008523D01*
X007377Y008558D02*
X007313Y008622D01*
X006907Y008622D01*
X006843Y008558D01*
X006843Y008152D01*
X006907Y008087D01*
X006950Y008087D01*
X006950Y007886D01*
X006902Y007839D01*
X006865Y007749D01*
X006865Y007651D01*
X006902Y007561D01*
X006971Y007492D01*
X007061Y007455D01*
X007159Y007455D01*
X007249Y007492D01*
X007318Y007561D01*
X007355Y007651D01*
X007355Y007749D01*
X007318Y007839D01*
X007270Y007886D01*
X007270Y008087D01*
X007313Y008087D01*
X007377Y008152D01*
X007377Y008558D01*
X007314Y008621D02*
X007847Y008621D01*
X007868Y008658D02*
X008352Y008658D01*
X008417Y008723D01*
X008417Y009247D01*
X008352Y009311D01*
X007868Y009311D01*
X007803Y009247D01*
X007803Y009140D01*
X007544Y009140D01*
X007509Y009105D01*
X007377Y009105D01*
X007377Y009148D01*
X007313Y009213D01*
X006907Y009213D01*
X006843Y009148D01*
X006843Y008742D01*
X006907Y008678D01*
X007313Y008678D01*
X007377Y008742D01*
X007377Y008785D01*
X007642Y008785D01*
X007676Y008820D01*
X007803Y008820D01*
X007803Y008723D01*
X007868Y008658D01*
X007806Y008720D02*
X007355Y008720D01*
X007575Y008945D02*
X007610Y008980D01*
X008105Y008980D01*
X008110Y008985D01*
X008417Y009015D02*
X008949Y009015D01*
X008950Y009114D02*
X008417Y009114D01*
X008417Y009212D02*
X008950Y009212D01*
X008950Y009311D02*
X008353Y009311D01*
X008417Y008917D02*
X008850Y008917D01*
X008752Y008818D02*
X008417Y008818D01*
X008414Y008720D02*
X008653Y008720D01*
X008555Y008621D02*
X008373Y008621D01*
X008417Y008523D02*
X008456Y008523D01*
X008505Y008344D02*
X008490Y008332D01*
X008472Y008323D01*
X008454Y008317D01*
X008434Y008315D01*
X008417Y008129D02*
X009250Y008129D01*
X009250Y008227D02*
X008613Y008227D01*
X008665Y008278D02*
X008665Y008278D01*
X008712Y008326D02*
X009250Y008326D01*
X009250Y008424D02*
X008810Y008424D01*
X008909Y008523D02*
X009250Y008523D01*
X009250Y008621D02*
X009007Y008621D01*
X009106Y008720D02*
X009250Y008720D01*
X009250Y008818D02*
X009204Y008818D01*
X009570Y008818D02*
X009882Y008818D01*
X009854Y008885D02*
X009911Y008747D01*
X010017Y008641D01*
X010155Y008584D01*
X010305Y008584D01*
X010443Y008641D01*
X010549Y008747D01*
X010606Y008885D01*
X010606Y009035D01*
X010549Y009173D01*
X010443Y009279D01*
X010305Y009336D01*
X010155Y009336D01*
X010017Y009279D01*
X009911Y009173D01*
X009854Y009035D01*
X009854Y008885D01*
X009854Y008917D02*
X009570Y008917D01*
X009570Y009015D02*
X009854Y009015D01*
X009887Y009114D02*
X009570Y009114D01*
X009570Y009212D02*
X009951Y009212D01*
X010094Y009311D02*
X009570Y009311D01*
X009570Y009409D02*
X010071Y009409D01*
X010017Y009431D02*
X010155Y009374D01*
X010305Y009374D01*
X010443Y009431D01*
X010549Y009537D01*
X010606Y009675D01*
X010606Y009825D01*
X010549Y009963D01*
X010443Y010069D01*
X010305Y010126D01*
X010155Y010126D01*
X010017Y010069D01*
X009911Y009963D01*
X009854Y009825D01*
X009854Y009675D01*
X009911Y009537D01*
X010017Y009431D01*
X009941Y009508D02*
X009570Y009508D01*
X009570Y009606D02*
X009883Y009606D01*
X009854Y009705D02*
X009570Y009705D01*
X009570Y009803D02*
X009854Y009803D01*
X009886Y009902D02*
X009570Y009902D01*
X009570Y010000D02*
X009949Y010000D01*
X010090Y010099D02*
X009570Y010099D01*
X009570Y010197D02*
X010076Y010197D01*
X009943Y010296D02*
X009570Y010296D01*
X009570Y010394D02*
X009884Y010394D01*
X009854Y010493D02*
X009570Y010493D01*
X009570Y010591D02*
X009854Y010591D01*
X009885Y010690D02*
X009570Y010690D01*
X009570Y010788D02*
X009947Y010788D01*
X010085Y010887D02*
X009570Y010887D01*
X009570Y010985D02*
X010081Y010985D01*
X009945Y011084D02*
X009570Y011084D01*
X009570Y011182D02*
X009885Y011182D01*
X009854Y011281D02*
X009570Y011281D01*
X009570Y011379D02*
X009854Y011379D01*
X009884Y011478D02*
X009570Y011478D01*
X009570Y011576D02*
X009945Y011576D01*
X010080Y011675D02*
X009570Y011675D01*
X009570Y011773D02*
X010086Y011773D01*
X010017Y011801D02*
X010155Y011744D01*
X010305Y011744D01*
X010443Y011801D01*
X010549Y011907D01*
X010606Y012045D01*
X010606Y012195D01*
X010549Y012333D01*
X010443Y012439D01*
X010305Y012496D01*
X010155Y012496D01*
X010017Y012439D01*
X009911Y012333D01*
X009854Y012195D01*
X009854Y012045D01*
X009911Y011907D01*
X010017Y011801D01*
X009947Y011872D02*
X009570Y011872D01*
X009570Y011970D02*
X009885Y011970D01*
X009854Y012069D02*
X009570Y012069D01*
X009570Y012167D02*
X009854Y012167D01*
X009884Y012266D02*
X009570Y012266D01*
X009570Y012364D02*
X009943Y012364D01*
X010075Y012463D02*
X009570Y012463D01*
X009570Y012561D02*
X010091Y012561D01*
X009949Y012660D02*
X009646Y012660D01*
X009390Y012857D02*
X009270Y012857D01*
X009270Y012955D02*
X009489Y012955D01*
X009587Y013054D02*
X009270Y013054D01*
X009270Y013152D02*
X009941Y013152D01*
X010390Y013251D02*
X025860Y013251D01*
X025860Y013349D02*
X024630Y013349D01*
X024623Y013341D02*
X024729Y013447D01*
X024786Y013585D01*
X024786Y013735D01*
X024729Y013873D01*
X024623Y013979D01*
X024485Y014036D01*
X024335Y014036D01*
X024197Y013979D01*
X024091Y013873D01*
X024034Y013735D01*
X024034Y013585D01*
X024091Y013447D01*
X024197Y013341D01*
X024335Y013284D01*
X024485Y013284D01*
X024623Y013341D01*
X024729Y013448D02*
X025860Y013448D01*
X025860Y013546D02*
X024769Y013546D01*
X024786Y013645D02*
X025860Y013645D01*
X025860Y013743D02*
X024782Y013743D01*
X024742Y013842D02*
X025860Y013842D01*
X025860Y013940D02*
X024661Y013940D01*
X024643Y014131D02*
X024749Y014237D01*
X024806Y014375D01*
X024806Y014525D01*
X024749Y014663D01*
X024643Y014769D01*
X024505Y014826D01*
X024355Y014826D01*
X024217Y014769D01*
X024111Y014663D01*
X024090Y014610D01*
X022344Y014610D01*
X022234Y014500D01*
X021965Y014500D01*
X021760Y014295D01*
X021760Y014005D01*
X021965Y013800D01*
X022255Y013800D01*
X022460Y014005D01*
X022460Y014274D01*
X022476Y014290D01*
X024090Y014290D01*
X024111Y014237D01*
X024217Y014131D01*
X024355Y014074D01*
X024505Y014074D01*
X024643Y014131D01*
X024648Y014137D02*
X025860Y014137D01*
X025860Y014039D02*
X022460Y014039D01*
X022460Y014137D02*
X024212Y014137D01*
X024113Y014236D02*
X022460Y014236D01*
X022410Y014450D02*
X022110Y014150D01*
X021760Y014137D02*
X020460Y014137D01*
X020460Y014039D02*
X021760Y014039D01*
X021825Y013940D02*
X020395Y013940D01*
X020460Y014005D02*
X020255Y013800D01*
X019965Y013800D01*
X019760Y014005D01*
X019760Y014295D01*
X019965Y014500D01*
X020234Y014500D01*
X021924Y016190D01*
X024090Y016190D01*
X024111Y016243D01*
X024217Y016349D01*
X024355Y016406D01*
X024505Y016406D01*
X024643Y016349D01*
X024749Y016243D01*
X024806Y016105D01*
X024806Y015955D01*
X024749Y015817D01*
X024643Y015711D01*
X024505Y015654D01*
X024355Y015654D01*
X024217Y015711D01*
X024111Y015817D01*
X024090Y015870D01*
X022056Y015870D01*
X020460Y014274D01*
X020460Y014005D01*
X020460Y014236D02*
X021760Y014236D01*
X021799Y014334D02*
X020520Y014334D01*
X020619Y014433D02*
X021898Y014433D01*
X022265Y014531D02*
X020717Y014531D01*
X020816Y014630D02*
X024098Y014630D01*
X024177Y014728D02*
X020914Y014728D01*
X021013Y014827D02*
X025860Y014827D01*
X025860Y014925D02*
X024646Y014925D01*
X024643Y014921D02*
X024749Y015027D01*
X024806Y015165D01*
X024806Y015315D01*
X024749Y015453D01*
X024643Y015559D01*
X024505Y015616D01*
X024355Y015616D01*
X024217Y015559D01*
X024111Y015453D01*
X024054Y015315D01*
X024054Y015165D01*
X024111Y015027D01*
X024217Y014921D01*
X024355Y014864D01*
X024505Y014864D01*
X024643Y014921D01*
X024745Y015024D02*
X025860Y015024D01*
X025860Y015122D02*
X024788Y015122D01*
X024806Y015221D02*
X025860Y015221D01*
X025860Y015319D02*
X024804Y015319D01*
X024763Y015418D02*
X025860Y015418D01*
X025860Y015516D02*
X024685Y015516D01*
X024644Y015713D02*
X025860Y015713D01*
X025860Y015615D02*
X024508Y015615D01*
X024352Y015615D02*
X021801Y015615D01*
X021899Y015713D02*
X024216Y015713D01*
X024117Y015812D02*
X021998Y015812D01*
X021990Y016030D02*
X020110Y014150D01*
X019760Y014137D02*
X010380Y014137D01*
X010395Y014039D02*
X019760Y014039D01*
X019825Y013940D02*
X010521Y013940D01*
X010578Y013842D02*
X019923Y013842D01*
X020297Y013842D02*
X021923Y013842D01*
X022297Y013842D02*
X024078Y013842D01*
X024038Y013743D02*
X010606Y013743D01*
X010606Y013645D02*
X024034Y013645D01*
X024050Y013546D02*
X010573Y013546D01*
X010509Y013448D02*
X024091Y013448D01*
X024190Y013349D02*
X010365Y013349D01*
X010519Y013152D02*
X024161Y013152D01*
X024197Y013189D02*
X024091Y013083D01*
X024034Y012945D01*
X024034Y012795D01*
X024091Y012657D01*
X024197Y012551D01*
X024335Y012494D01*
X024485Y012494D01*
X024623Y012551D01*
X024729Y012657D01*
X024786Y012795D01*
X024786Y012945D01*
X024729Y013083D01*
X024623Y013189D01*
X024485Y013246D01*
X024335Y013246D01*
X024197Y013189D01*
X024079Y013054D02*
X010577Y013054D01*
X010606Y012955D02*
X024039Y012955D01*
X024034Y012857D02*
X010606Y012857D01*
X010574Y012758D02*
X024050Y012758D01*
X024090Y012660D02*
X010511Y012660D01*
X010369Y012561D02*
X024188Y012561D01*
X024163Y012364D02*
X010517Y012364D01*
X010576Y012266D02*
X024080Y012266D01*
X024039Y012167D02*
X010606Y012167D01*
X010606Y012069D02*
X024034Y012069D01*
X024049Y011970D02*
X010575Y011970D01*
X010513Y011872D02*
X024090Y011872D01*
X024186Y011773D02*
X010374Y011773D01*
X010385Y012463D02*
X025860Y012463D01*
X025860Y012561D02*
X024632Y012561D01*
X024730Y012660D02*
X025860Y012660D01*
X025860Y012758D02*
X024770Y012758D01*
X024786Y012857D02*
X025860Y012857D01*
X025860Y012955D02*
X024781Y012955D01*
X024741Y013054D02*
X025860Y013054D01*
X025860Y013152D02*
X024659Y013152D01*
X024657Y012364D02*
X025860Y012364D01*
X025860Y012266D02*
X024740Y012266D01*
X024781Y012167D02*
X025860Y012167D01*
X025860Y012069D02*
X024786Y012069D01*
X024771Y011970D02*
X025860Y011970D01*
X025860Y011872D02*
X024730Y011872D01*
X024159Y013940D02*
X022395Y013940D01*
X022410Y014450D02*
X024430Y014450D01*
X024683Y014728D02*
X025860Y014728D01*
X025860Y014630D02*
X024762Y014630D01*
X024803Y014531D02*
X025860Y014531D01*
X025860Y014433D02*
X024806Y014433D01*
X024789Y014334D02*
X025860Y014334D01*
X025860Y014236D02*
X024747Y014236D01*
X024214Y014925D02*
X021111Y014925D01*
X021210Y015024D02*
X024115Y015024D01*
X024072Y015122D02*
X021308Y015122D01*
X021407Y015221D02*
X024054Y015221D01*
X024056Y015319D02*
X021505Y015319D01*
X021604Y015418D02*
X024097Y015418D01*
X024175Y015516D02*
X021702Y015516D01*
X021447Y015713D02*
X010370Y015713D01*
X010325Y015694D02*
X010463Y015751D01*
X010569Y015857D01*
X010626Y015995D01*
X010626Y016145D01*
X010569Y016283D01*
X010463Y016389D01*
X010325Y016446D01*
X010175Y016446D01*
X010037Y016389D01*
X009931Y016283D01*
X009874Y016145D01*
X009874Y015995D01*
X009931Y015857D01*
X010037Y015751D01*
X010175Y015694D01*
X010325Y015694D01*
X010325Y015656D02*
X010175Y015656D01*
X010037Y015599D01*
X009931Y015493D01*
X009874Y015355D01*
X009874Y015205D01*
X009931Y015067D01*
X010037Y014961D01*
X010175Y014904D01*
X010325Y014904D01*
X010463Y014961D01*
X010569Y015067D01*
X010626Y015205D01*
X010626Y015355D01*
X010569Y015493D01*
X010463Y015599D01*
X010325Y015656D01*
X010424Y015615D02*
X021348Y015615D01*
X021250Y015516D02*
X010545Y015516D01*
X010600Y015418D02*
X021151Y015418D01*
X021053Y015319D02*
X010626Y015319D01*
X010626Y015221D02*
X020954Y015221D01*
X020856Y015122D02*
X010591Y015122D01*
X010525Y015024D02*
X020757Y015024D01*
X020659Y014925D02*
X010375Y014925D01*
X010419Y014827D02*
X020560Y014827D01*
X020462Y014728D02*
X010543Y014728D01*
X010599Y014630D02*
X020363Y014630D01*
X020265Y014531D02*
X010626Y014531D01*
X010626Y014433D02*
X019898Y014433D01*
X019799Y014334D02*
X010592Y014334D01*
X010527Y014236D02*
X019760Y014236D01*
X021545Y015812D02*
X010523Y015812D01*
X010590Y015910D02*
X021644Y015910D01*
X021742Y016009D02*
X010626Y016009D01*
X010626Y016107D02*
X021841Y016107D01*
X021990Y016030D02*
X024430Y016030D01*
X024687Y016304D02*
X025860Y016304D01*
X025860Y016206D02*
X024764Y016206D01*
X024805Y016107D02*
X025860Y016107D01*
X025860Y016009D02*
X024806Y016009D01*
X024787Y015910D02*
X025860Y015910D01*
X025860Y015812D02*
X024743Y015812D01*
X024512Y016403D02*
X025860Y016403D01*
X025860Y016501D02*
X024642Y016501D01*
X024643Y016501D02*
X024749Y016607D01*
X024806Y016745D01*
X024806Y016895D01*
X024749Y017033D01*
X024643Y017139D01*
X024505Y017196D01*
X024355Y017196D01*
X024217Y017139D01*
X024111Y017033D01*
X024054Y016895D01*
X024054Y016745D01*
X024111Y016607D01*
X024217Y016501D01*
X024355Y016444D01*
X024505Y016444D01*
X024643Y016501D01*
X024741Y016600D02*
X025860Y016600D01*
X025860Y016698D02*
X024786Y016698D01*
X024806Y016797D02*
X025860Y016797D01*
X025860Y016895D02*
X024806Y016895D01*
X024765Y016994D02*
X025860Y016994D01*
X025860Y017092D02*
X024689Y017092D01*
X024517Y017191D02*
X025860Y017191D01*
X025860Y017289D02*
X024637Y017289D01*
X024643Y017291D02*
X024749Y017397D01*
X024806Y017535D01*
X024806Y017685D01*
X024749Y017823D01*
X024643Y017929D01*
X024505Y017986D01*
X024355Y017986D01*
X024217Y017929D01*
X024111Y017823D01*
X024054Y017685D01*
X024054Y017535D01*
X024111Y017397D01*
X024217Y017291D01*
X024355Y017234D01*
X024505Y017234D01*
X024643Y017291D01*
X024739Y017388D02*
X025860Y017388D01*
X025860Y017486D02*
X024785Y017486D01*
X024806Y017585D02*
X025860Y017585D01*
X025860Y017683D02*
X024806Y017683D01*
X024766Y017782D02*
X025860Y017782D01*
X025860Y017880D02*
X024691Y017880D01*
X024522Y017979D02*
X025860Y017979D01*
X025860Y018077D02*
X024632Y018077D01*
X024643Y018081D02*
X024749Y018187D01*
X024806Y018325D01*
X024806Y018475D01*
X024749Y018613D01*
X024643Y018719D01*
X024505Y018776D01*
X024355Y018776D01*
X024217Y018719D01*
X024111Y018613D01*
X024054Y018475D01*
X024054Y018325D01*
X024111Y018187D01*
X024217Y018081D01*
X024355Y018024D01*
X024505Y018024D01*
X024643Y018081D01*
X024737Y018176D02*
X025860Y018176D01*
X025860Y018274D02*
X024785Y018274D01*
X024806Y018373D02*
X025860Y018373D01*
X025860Y018471D02*
X024806Y018471D01*
X024766Y018570D02*
X025860Y018570D01*
X025860Y018668D02*
X024693Y018668D01*
X024527Y018767D02*
X025860Y018767D01*
X025860Y018865D02*
X024627Y018865D01*
X024643Y018871D02*
X024749Y018977D01*
X024806Y019115D01*
X024806Y019265D01*
X024749Y019403D01*
X024643Y019509D01*
X024505Y019566D01*
X024355Y019566D01*
X024217Y019509D01*
X024111Y019403D01*
X024054Y019265D01*
X024054Y019115D01*
X024111Y018977D01*
X024217Y018871D01*
X024355Y018814D01*
X024505Y018814D01*
X024643Y018871D01*
X024735Y018964D02*
X025860Y018964D01*
X025860Y019062D02*
X024784Y019062D01*
X024806Y019161D02*
X025860Y019161D01*
X025860Y019259D02*
X024806Y019259D01*
X024767Y019358D02*
X025860Y019358D01*
X025860Y019456D02*
X024695Y019456D01*
X024532Y019555D02*
X025860Y019555D01*
X025860Y019653D02*
X024623Y019653D01*
X024643Y019661D02*
X024749Y019767D01*
X024806Y019905D01*
X024806Y020055D01*
X024749Y020193D01*
X024643Y020299D01*
X024505Y020356D01*
X024355Y020356D01*
X024217Y020299D01*
X024111Y020193D01*
X024054Y020055D01*
X024054Y019905D01*
X024111Y019767D01*
X024217Y019661D01*
X024355Y019604D01*
X024505Y019604D01*
X024643Y019661D01*
X024733Y019752D02*
X025860Y019752D01*
X025860Y019850D02*
X024783Y019850D01*
X024806Y019949D02*
X025860Y019949D01*
X025860Y020047D02*
X024806Y020047D01*
X024768Y020146D02*
X025860Y020146D01*
X025860Y020244D02*
X024697Y020244D01*
X024537Y020343D02*
X025860Y020343D01*
X025860Y020441D02*
X024618Y020441D01*
X024643Y020451D02*
X024749Y020557D01*
X024806Y020695D01*
X024806Y020845D01*
X024749Y020983D01*
X024643Y021089D01*
X024505Y021146D01*
X024472Y021146D01*
X024527Y021154D01*
X024590Y021175D01*
X024648Y021204D01*
X024701Y021243D01*
X024747Y021289D01*
X024786Y021342D01*
X024815Y021400D01*
X024836Y021463D01*
X024845Y021521D01*
X024469Y021521D01*
X024469Y021599D01*
X024845Y021599D01*
X024836Y021657D01*
X024815Y021720D01*
X024786Y021778D01*
X024747Y021831D01*
X024701Y021877D01*
X024648Y021916D01*
X024590Y021945D01*
X024527Y021966D01*
X024469Y021975D01*
X024469Y021599D01*
X024391Y021599D01*
X024391Y021975D01*
X024333Y021966D01*
X024270Y021945D01*
X024212Y021916D01*
X024159Y021877D01*
X024113Y021831D01*
X024074Y021778D01*
X024045Y021720D01*
X024024Y021657D01*
X024015Y021599D01*
X024391Y021599D01*
X024391Y021521D01*
X024015Y021521D01*
X024024Y021463D01*
X024045Y021400D01*
X024074Y021342D01*
X024113Y021289D01*
X024159Y021243D01*
X024212Y021204D01*
X024270Y021175D01*
X024333Y021154D01*
X024388Y021146D01*
X024355Y021146D01*
X024217Y021089D01*
X024111Y020983D01*
X024054Y020845D01*
X024054Y020695D01*
X024111Y020557D01*
X024217Y020451D01*
X024355Y020394D01*
X024505Y020394D01*
X024643Y020451D01*
X024731Y020540D02*
X025860Y020540D01*
X025860Y020638D02*
X024782Y020638D01*
X024806Y020737D02*
X025860Y020737D01*
X025860Y020835D02*
X024806Y020835D01*
X024769Y020934D02*
X025860Y020934D01*
X025860Y021032D02*
X024699Y021032D01*
X024541Y021131D02*
X025860Y021131D01*
X025860Y021229D02*
X024682Y021229D01*
X024775Y021328D02*
X025860Y021328D01*
X025860Y021426D02*
X024824Y021426D01*
X024841Y021623D02*
X025860Y021623D01*
X025860Y021525D02*
X024469Y021525D01*
X024391Y021525D02*
X022060Y021525D01*
X022059Y021519D02*
X022064Y021539D01*
X022070Y021544D01*
X022072Y021569D01*
X022078Y021592D01*
X022074Y021599D01*
X022076Y021620D01*
X022081Y021626D01*
X022079Y021650D01*
X022081Y021674D01*
X022076Y021680D01*
X022074Y021701D01*
X022078Y021708D01*
X022072Y021731D01*
X022070Y021756D01*
X022064Y021761D01*
X022059Y021781D01*
X022061Y021788D01*
X022051Y021810D01*
X022044Y021834D01*
X022038Y021838D01*
X022029Y021857D01*
X022030Y021864D01*
X022016Y021884D01*
X022006Y021907D01*
X021999Y021909D01*
X021987Y021927D01*
X021987Y021934D01*
X021969Y021951D01*
X021955Y021972D01*
X021948Y021973D01*
X021933Y021988D01*
X021932Y021995D01*
X021911Y022009D01*
X021894Y022027D01*
X021887Y022027D01*
X021869Y022039D01*
X021867Y022046D01*
X021844Y022056D01*
X021824Y022070D01*
X021817Y022069D01*
X021798Y022078D01*
X021794Y022084D01*
X021770Y022091D01*
X021748Y022101D01*
X021741Y022099D01*
X021721Y022104D01*
X021716Y022110D01*
X021691Y022112D01*
X021668Y022118D01*
X021661Y022114D01*
X021640Y022116D01*
X021634Y022121D01*
X021610Y022119D01*
X021586Y022121D01*
X021580Y022116D01*
X021559Y022114D01*
X021552Y022118D01*
X021529Y022112D01*
X021504Y022110D01*
X021499Y022104D01*
X021479Y022099D01*
X021472Y022101D01*
X021450Y022091D01*
X021426Y022084D01*
X021422Y022078D01*
X021403Y022069D01*
X021396Y022070D01*
X021376Y022056D01*
X021353Y022046D01*
X021351Y022039D01*
X021333Y022027D01*
X021326Y022027D01*
X021309Y022009D01*
X021288Y021995D01*
X021287Y021988D01*
X021272Y021973D01*
X021265Y021972D01*
X021251Y021951D01*
X021233Y021934D01*
X021233Y021927D01*
X021221Y021909D01*
X021214Y021907D01*
X021204Y021884D01*
X021190Y021864D01*
X021191Y021857D01*
X021182Y021838D01*
X021176Y021834D01*
X021169Y021810D01*
X021159Y021788D01*
X021161Y021781D01*
X021156Y021761D01*
X021150Y021756D01*
X021148Y021731D01*
X021142Y021708D01*
X021146Y021701D01*
X021144Y021680D01*
X021139Y021674D01*
X021141Y021650D01*
X021139Y021626D01*
X021144Y021620D01*
X021146Y021599D01*
X021142Y021592D01*
X021148Y021569D01*
X021150Y021544D01*
X021156Y021539D01*
X021161Y021519D01*
X021159Y021512D01*
X021169Y021490D01*
X021176Y021466D01*
X021182Y021462D01*
X021191Y021443D01*
X021190Y021436D01*
X021204Y021416D01*
X021214Y021393D01*
X021221Y021391D01*
X021233Y021373D01*
X021233Y021366D01*
X021251Y021349D01*
X021265Y021328D01*
X021272Y021327D01*
X021287Y021312D01*
X021288Y021305D01*
X021309Y021291D01*
X021326Y021273D01*
X021333Y021273D01*
X021351Y021261D01*
X021353Y021254D01*
X021376Y021244D01*
X021396Y021230D01*
X021403Y021231D01*
X021422Y021222D01*
X021426Y021216D01*
X021450Y021209D01*
X021472Y021199D01*
X021479Y021201D01*
X021499Y021196D01*
X021504Y021190D01*
X021529Y021188D01*
X021552Y021182D01*
X021559Y021186D01*
X021580Y021184D01*
X021586Y021179D01*
X021610Y021181D01*
X021634Y021179D01*
X021640Y021184D01*
X021661Y021186D01*
X021668Y021182D01*
X021691Y021188D01*
X021716Y021190D01*
X021721Y021196D01*
X021741Y021201D01*
X021748Y021199D01*
X021770Y021209D01*
X021794Y021216D01*
X021798Y021222D01*
X021817Y021231D01*
X021824Y021230D01*
X021844Y021244D01*
X021867Y021254D01*
X021869Y021261D01*
X021887Y021273D01*
X021894Y021273D01*
X021911Y021291D01*
X021932Y021305D01*
X021933Y021312D01*
X021948Y021327D01*
X021955Y021328D01*
X021969Y021349D01*
X021987Y021366D01*
X021987Y021373D01*
X021999Y021391D01*
X022006Y021393D01*
X022016Y021416D01*
X022030Y021436D01*
X022029Y021443D01*
X022038Y021462D01*
X022044Y021466D01*
X022051Y021490D01*
X022061Y021512D01*
X022059Y021519D01*
X022024Y021426D02*
X024036Y021426D01*
X024085Y021328D02*
X021950Y021328D01*
X021813Y021229D02*
X024178Y021229D01*
X024319Y021131D02*
X018590Y021131D01*
X018590Y021055D02*
X018590Y021245D01*
X018517Y021422D01*
X018382Y021557D01*
X018205Y021630D01*
X018015Y021630D01*
X017838Y021557D01*
X017703Y021422D01*
X017630Y021245D01*
X017630Y021055D01*
X017703Y020878D01*
X017838Y020743D01*
X018015Y020670D01*
X018205Y020670D01*
X018382Y020743D01*
X018517Y020878D01*
X018590Y021055D01*
X018581Y021032D02*
X024161Y021032D01*
X024091Y020934D02*
X018540Y020934D01*
X018474Y020835D02*
X024054Y020835D01*
X024054Y020737D02*
X018366Y020737D01*
X017854Y020737D02*
X017366Y020737D01*
X017382Y020743D02*
X017517Y020878D01*
X017590Y021055D01*
X017590Y021245D01*
X017517Y021422D01*
X017382Y021557D01*
X017205Y021630D01*
X017015Y021630D01*
X016838Y021557D01*
X016703Y021422D01*
X016630Y021245D01*
X016630Y021055D01*
X016703Y020878D01*
X016838Y020743D01*
X017015Y020670D01*
X017205Y020670D01*
X017382Y020743D01*
X017474Y020835D02*
X017746Y020835D01*
X017680Y020934D02*
X017540Y020934D01*
X017581Y021032D02*
X017639Y021032D01*
X017630Y021131D02*
X017590Y021131D01*
X017590Y021229D02*
X017630Y021229D01*
X017664Y021328D02*
X017556Y021328D01*
X017513Y021426D02*
X017707Y021426D01*
X017806Y021525D02*
X017414Y021525D01*
X017222Y021623D02*
X017998Y021623D01*
X018222Y021623D02*
X021141Y021623D01*
X021145Y021722D02*
X010606Y021722D01*
X010626Y021675D02*
X010569Y021813D01*
X010463Y021919D01*
X021228Y021919D01*
X021172Y021820D02*
X010561Y021820D01*
X010463Y021919D02*
X010325Y021976D01*
X010175Y021976D01*
X010037Y021919D01*
X006360Y021919D01*
X006360Y022017D02*
X021316Y022017D01*
X021542Y022116D02*
X006360Y022116D01*
X006360Y022214D02*
X025860Y022214D01*
X025860Y022116D02*
X021678Y022116D01*
X021663Y022116D02*
X021649Y022116D01*
X021571Y022116D02*
X021557Y022116D01*
X021904Y022017D02*
X025860Y022017D01*
X025860Y021919D02*
X024642Y021919D01*
X024755Y021820D02*
X025860Y021820D01*
X025860Y021722D02*
X024814Y021722D01*
X024469Y021722D02*
X024391Y021722D01*
X024391Y021820D02*
X024469Y021820D01*
X024469Y021919D02*
X024391Y021919D01*
X024218Y021919D02*
X021992Y021919D01*
X022048Y021820D02*
X024105Y021820D01*
X024046Y021722D02*
X022075Y021722D01*
X022079Y021623D02*
X024019Y021623D01*
X024391Y021623D02*
X024469Y021623D01*
X024078Y020638D02*
X013202Y020638D01*
X013232Y020643D02*
X013310Y020668D01*
X013383Y020705D01*
X013449Y020753D01*
X013507Y020811D01*
X013555Y020877D01*
X013592Y020950D01*
X013617Y021028D01*
X013629Y021100D01*
X013160Y021100D01*
X013160Y021200D01*
X013060Y021200D01*
X013060Y021669D01*
X012988Y021657D01*
X012910Y021632D01*
X012837Y021595D01*
X012771Y021547D01*
X012713Y021489D01*
X012665Y021423D01*
X012628Y021350D01*
X012603Y021272D01*
X012591Y021200D01*
X013060Y021200D01*
X013060Y021100D01*
X012591Y021100D01*
X012603Y021028D01*
X012628Y020950D01*
X012665Y020877D01*
X012713Y020811D01*
X012771Y020753D01*
X012837Y020705D01*
X012910Y020668D01*
X012988Y020643D01*
X013060Y020631D01*
X013060Y021100D01*
X013160Y021100D01*
X013160Y020631D01*
X013232Y020643D01*
X013160Y020638D02*
X013060Y020638D01*
X013018Y020638D02*
X010585Y020638D01*
X010569Y020597D02*
X010626Y020735D01*
X010626Y020885D01*
X010569Y021023D01*
X010463Y021129D01*
X010325Y021186D01*
X010175Y021186D01*
X010037Y021129D01*
X009931Y021023D01*
X009874Y020885D01*
X009874Y020735D01*
X009931Y020597D01*
X010037Y020491D01*
X010175Y020434D01*
X010325Y020434D01*
X010463Y020491D01*
X010569Y020597D01*
X010511Y020540D02*
X024129Y020540D01*
X024242Y020441D02*
X010341Y020441D01*
X010325Y020396D02*
X010175Y020396D01*
X010037Y020339D01*
X009931Y020233D01*
X009874Y020095D01*
X009874Y019945D01*
X009931Y019807D01*
X010037Y019701D01*
X010175Y019644D01*
X010325Y019644D01*
X010463Y019701D01*
X010569Y019807D01*
X010626Y019945D01*
X010626Y020095D01*
X010569Y020233D01*
X010463Y020339D01*
X010325Y020396D01*
X010453Y020343D02*
X024323Y020343D01*
X024163Y020244D02*
X010557Y020244D01*
X010605Y020146D02*
X024092Y020146D01*
X024054Y020047D02*
X010626Y020047D01*
X010626Y019949D02*
X024054Y019949D01*
X024077Y019850D02*
X010586Y019850D01*
X010513Y019752D02*
X024127Y019752D01*
X024237Y019653D02*
X010346Y019653D01*
X010325Y019606D02*
X010175Y019606D01*
X010037Y019549D01*
X009931Y019443D01*
X009874Y019305D01*
X009874Y019155D01*
X009931Y019017D01*
X010037Y018911D01*
X010175Y018854D01*
X010325Y018854D01*
X010463Y018911D01*
X010569Y019017D01*
X010626Y019155D01*
X010626Y019305D01*
X010569Y019443D01*
X010463Y019549D01*
X010325Y019606D01*
X010448Y019555D02*
X024328Y019555D01*
X024165Y019456D02*
X010555Y019456D01*
X010604Y019358D02*
X024093Y019358D01*
X024054Y019259D02*
X010626Y019259D01*
X010626Y019161D02*
X024054Y019161D01*
X024076Y019062D02*
X010587Y019062D01*
X010515Y018964D02*
X024125Y018964D01*
X024233Y018865D02*
X010351Y018865D01*
X010325Y018816D02*
X010175Y018816D01*
X010037Y018759D01*
X009931Y018653D01*
X009874Y018515D01*
X009874Y018365D01*
X009931Y018227D01*
X010037Y018121D01*
X010175Y018064D01*
X010325Y018064D01*
X010463Y018121D01*
X010569Y018227D01*
X010626Y018365D01*
X010626Y018515D01*
X010569Y018653D01*
X010463Y018759D01*
X010325Y018816D01*
X010444Y018767D02*
X024333Y018767D01*
X024167Y018668D02*
X010553Y018668D01*
X010603Y018570D02*
X024094Y018570D01*
X024054Y018471D02*
X010626Y018471D01*
X010626Y018373D02*
X024054Y018373D01*
X024075Y018274D02*
X010588Y018274D01*
X010517Y018176D02*
X024123Y018176D01*
X024228Y018077D02*
X010356Y018077D01*
X010325Y018026D02*
X010175Y018026D01*
X010037Y017969D01*
X009931Y017863D01*
X009874Y017725D01*
X009874Y017575D01*
X009931Y017437D01*
X010037Y017331D01*
X010175Y017274D01*
X010325Y017274D01*
X010463Y017331D01*
X010569Y017437D01*
X010626Y017575D01*
X010626Y017725D01*
X010569Y017863D01*
X010463Y017969D01*
X010325Y018026D01*
X010439Y017979D02*
X024338Y017979D01*
X024169Y017880D02*
X010551Y017880D01*
X010602Y017782D02*
X024094Y017782D01*
X024054Y017683D02*
X010626Y017683D01*
X010626Y017585D02*
X024054Y017585D01*
X024075Y017486D02*
X010589Y017486D01*
X010519Y017388D02*
X024121Y017388D01*
X024223Y017289D02*
X010360Y017289D01*
X010325Y017236D02*
X010175Y017236D01*
X010037Y017179D01*
X009931Y017073D01*
X009874Y016935D01*
X009874Y016785D01*
X009931Y016647D01*
X010037Y016541D01*
X010175Y016484D01*
X010325Y016484D01*
X010463Y016541D01*
X010569Y016647D01*
X010626Y016785D01*
X010626Y016935D01*
X010569Y017073D01*
X010463Y017179D01*
X010325Y017236D01*
X010434Y017191D02*
X024343Y017191D01*
X024171Y017092D02*
X010549Y017092D01*
X010601Y016994D02*
X024095Y016994D01*
X024054Y016895D02*
X010626Y016895D01*
X010626Y016797D02*
X024054Y016797D01*
X024074Y016698D02*
X010590Y016698D01*
X010521Y016600D02*
X024119Y016600D01*
X024218Y016501D02*
X010365Y016501D01*
X010429Y016403D02*
X024348Y016403D01*
X024173Y016304D02*
X010547Y016304D01*
X010601Y016206D02*
X024096Y016206D01*
X021407Y021229D02*
X018590Y021229D01*
X018556Y021328D02*
X021270Y021328D01*
X021196Y021426D02*
X018513Y021426D01*
X018414Y021525D02*
X021160Y021525D01*
X020955Y022771D02*
X021089Y022811D01*
X021218Y022865D01*
X021341Y022931D01*
X021457Y023008D01*
X021565Y023097D01*
X021663Y023195D01*
X021752Y023303D01*
X021829Y023419D01*
X021895Y023542D01*
X021949Y023671D01*
X021989Y023805D01*
X022016Y023941D01*
X022030Y024080D01*
X022030Y024100D01*
X021490Y024100D01*
X021490Y024200D01*
X022030Y024200D01*
X022030Y024220D01*
X022016Y024359D01*
X021989Y024495D01*
X021949Y024629D01*
X021895Y024758D01*
X021829Y024881D01*
X021752Y024997D01*
X021663Y025105D01*
X021565Y025203D01*
X021457Y025292D01*
X021341Y025369D01*
X021218Y025435D01*
X021089Y025489D01*
X020955Y025529D01*
X020819Y025556D01*
X020680Y025570D01*
X020660Y025570D01*
X020660Y025030D01*
X020560Y025030D01*
X020560Y025570D01*
X020540Y025570D01*
X020401Y025556D01*
X020265Y025529D01*
X020131Y025489D01*
X020002Y025435D01*
X019879Y025369D01*
X019763Y025292D01*
X019655Y025203D01*
X019557Y025105D01*
X019468Y024997D01*
X019391Y024881D01*
X019325Y024758D01*
X019271Y024629D01*
X019231Y024495D01*
X019204Y024359D01*
X019190Y024220D01*
X019190Y024200D01*
X019730Y024200D01*
X019730Y024100D01*
X019190Y024100D01*
X019190Y024080D01*
X019204Y023941D01*
X019231Y023805D01*
X019271Y023671D01*
X019325Y023542D01*
X019391Y023419D01*
X019468Y023303D01*
X019557Y023195D01*
X019655Y023097D01*
X019763Y023008D01*
X019879Y022931D01*
X020002Y022865D01*
X020131Y022811D01*
X020265Y022771D01*
X020401Y022744D01*
X020540Y022730D01*
X020560Y022730D01*
X020560Y023270D01*
X020660Y023270D01*
X020660Y022730D01*
X020680Y022730D01*
X020819Y022744D01*
X020955Y022771D01*
X021068Y022805D02*
X025860Y022805D01*
X025860Y022707D02*
X006360Y022707D01*
X006360Y022805D02*
X010152Y022805D01*
X010131Y022811D02*
X010265Y022771D01*
X010401Y022744D01*
X010540Y022730D01*
X010560Y022730D01*
X010560Y023270D01*
X010660Y023270D01*
X010660Y022730D01*
X010680Y022730D01*
X010819Y022744D01*
X010955Y022771D01*
X011089Y022811D01*
X011218Y022865D01*
X011341Y022931D01*
X011457Y023008D01*
X011565Y023097D01*
X011663Y023195D01*
X011752Y023303D01*
X011829Y023419D01*
X011895Y023542D01*
X011949Y023671D01*
X011989Y023805D01*
X012016Y023941D01*
X012030Y024080D01*
X012030Y024100D01*
X011490Y024100D01*
X011490Y024200D01*
X012030Y024200D01*
X012030Y024220D01*
X012016Y024359D01*
X011989Y024495D01*
X011949Y024629D01*
X011895Y024758D01*
X011829Y024881D01*
X011752Y024997D01*
X011663Y025105D01*
X011565Y025203D01*
X011457Y025292D01*
X011341Y025369D01*
X011218Y025435D01*
X011089Y025489D01*
X010955Y025529D01*
X010819Y025556D01*
X010680Y025570D01*
X010660Y025570D01*
X010660Y025030D01*
X010560Y025030D01*
X010560Y025570D01*
X010540Y025570D01*
X010401Y025556D01*
X010265Y025529D01*
X010131Y025489D01*
X010002Y025435D01*
X009879Y025369D01*
X009763Y025292D01*
X009655Y025203D01*
X009557Y025105D01*
X009468Y024997D01*
X009391Y024881D01*
X009325Y024758D01*
X009271Y024629D01*
X009231Y024495D01*
X009204Y024359D01*
X009190Y024220D01*
X009190Y024200D01*
X009730Y024200D01*
X009730Y024100D01*
X009190Y024100D01*
X009190Y024080D01*
X009204Y023941D01*
X009231Y023805D01*
X009271Y023671D01*
X009325Y023542D01*
X009391Y023419D01*
X009468Y023303D01*
X009557Y023195D01*
X009655Y023097D01*
X009763Y023008D01*
X009879Y022931D01*
X010002Y022865D01*
X010131Y022811D01*
X009930Y022904D02*
X006360Y022904D01*
X006360Y023002D02*
X009772Y023002D01*
X009651Y023101D02*
X006360Y023101D01*
X006360Y023199D02*
X009553Y023199D01*
X009473Y023298D02*
X006360Y023298D01*
X006360Y023396D02*
X009406Y023396D01*
X009350Y023495D02*
X006360Y023495D01*
X006360Y023593D02*
X009304Y023593D01*
X009265Y023692D02*
X006360Y023692D01*
X006360Y023790D02*
X009235Y023790D01*
X009214Y023889D02*
X006360Y023889D01*
X006360Y023987D02*
X009199Y023987D01*
X009190Y024086D02*
X006360Y024086D01*
X006360Y024184D02*
X009730Y024184D01*
X009196Y024283D02*
X006360Y024283D01*
X006360Y024381D02*
X009208Y024381D01*
X009228Y024480D02*
X006360Y024480D01*
X006360Y024578D02*
X009256Y024578D01*
X009291Y024677D02*
X006360Y024677D01*
X006360Y024775D02*
X009334Y024775D01*
X009387Y024874D02*
X006360Y024874D01*
X006360Y024972D02*
X009451Y024972D01*
X009529Y025071D02*
X006360Y025071D01*
X006360Y025169D02*
X009621Y025169D01*
X009733Y025268D02*
X006360Y025268D01*
X006360Y025366D02*
X009874Y025366D01*
X010073Y025465D02*
X006360Y025465D01*
X006360Y025563D02*
X010470Y025563D01*
X010560Y025563D02*
X010660Y025563D01*
X010750Y025563D02*
X020470Y025563D01*
X020560Y025563D02*
X020660Y025563D01*
X020750Y025563D02*
X025860Y025563D01*
X025860Y025465D02*
X021147Y025465D01*
X021346Y025366D02*
X025860Y025366D01*
X025860Y025268D02*
X021487Y025268D01*
X021599Y025169D02*
X025860Y025169D01*
X025860Y025071D02*
X024849Y025071D01*
X024882Y025057D02*
X024705Y025130D01*
X024515Y025130D01*
X024338Y025057D01*
X024203Y024922D01*
X024130Y024745D01*
X024130Y024555D01*
X024203Y024378D01*
X024338Y024243D01*
X024515Y024170D01*
X024705Y024170D01*
X024882Y024243D01*
X025017Y024378D01*
X025090Y024555D01*
X025090Y024745D01*
X025017Y024922D01*
X024882Y025057D01*
X024967Y024972D02*
X025860Y024972D01*
X025860Y024874D02*
X025037Y024874D01*
X025078Y024775D02*
X025860Y024775D01*
X025860Y024677D02*
X025090Y024677D01*
X025090Y024578D02*
X025860Y024578D01*
X025860Y024480D02*
X025059Y024480D01*
X025018Y024381D02*
X025860Y024381D01*
X025860Y024283D02*
X024921Y024283D01*
X024739Y024184D02*
X025860Y024184D01*
X025860Y024086D02*
X024813Y024086D01*
X024882Y024057D02*
X024705Y024130D01*
X024515Y024130D01*
X024338Y024057D01*
X024203Y023922D01*
X024130Y023745D01*
X024130Y023555D01*
X024203Y023378D01*
X024338Y023243D01*
X024515Y023170D01*
X024705Y023170D01*
X024882Y023243D01*
X025017Y023378D01*
X025090Y023555D01*
X025090Y023745D01*
X025017Y023922D01*
X024882Y024057D01*
X024952Y023987D02*
X025860Y023987D01*
X025860Y023889D02*
X025031Y023889D01*
X025072Y023790D02*
X025860Y023790D01*
X025860Y023692D02*
X025090Y023692D01*
X025090Y023593D02*
X025860Y023593D01*
X025860Y023495D02*
X025065Y023495D01*
X025024Y023396D02*
X025860Y023396D01*
X025860Y023298D02*
X024936Y023298D01*
X024776Y023199D02*
X025860Y023199D01*
X025860Y023101D02*
X021569Y023101D01*
X021667Y023199D02*
X023444Y023199D01*
X023515Y023170D02*
X023338Y023243D01*
X023203Y023378D01*
X023130Y023555D01*
X023130Y023745D01*
X023203Y023922D01*
X023338Y024057D01*
X023515Y024130D01*
X023705Y024130D01*
X023882Y024057D01*
X024017Y023922D01*
X024090Y023745D01*
X024090Y023555D01*
X024017Y023378D01*
X023882Y023243D01*
X023705Y023170D01*
X023515Y023170D01*
X023776Y023199D02*
X024444Y023199D01*
X024284Y023298D02*
X023936Y023298D01*
X024024Y023396D02*
X024196Y023396D01*
X024155Y023495D02*
X024065Y023495D01*
X024090Y023593D02*
X024130Y023593D01*
X024130Y023692D02*
X024090Y023692D01*
X024072Y023790D02*
X024148Y023790D01*
X024189Y023889D02*
X024031Y023889D01*
X023952Y023987D02*
X024268Y023987D01*
X024407Y024086D02*
X023813Y024086D01*
X023739Y024184D02*
X024481Y024184D01*
X024299Y024283D02*
X023921Y024283D01*
X023882Y024243D02*
X024017Y024378D01*
X024090Y024555D01*
X024090Y024745D01*
X024017Y024922D01*
X023882Y025057D01*
X023705Y025130D01*
X023515Y025130D01*
X023338Y025057D01*
X023203Y024922D01*
X023130Y024745D01*
X023130Y024555D01*
X023203Y024378D01*
X023338Y024243D01*
X023515Y024170D01*
X023705Y024170D01*
X023882Y024243D01*
X024018Y024381D02*
X024202Y024381D01*
X024161Y024480D02*
X024059Y024480D01*
X024090Y024578D02*
X024130Y024578D01*
X024130Y024677D02*
X024090Y024677D01*
X024078Y024775D02*
X024142Y024775D01*
X024183Y024874D02*
X024037Y024874D01*
X023967Y024972D02*
X024253Y024972D01*
X024371Y025071D02*
X023849Y025071D01*
X023371Y025071D02*
X021691Y025071D01*
X021769Y024972D02*
X023253Y024972D01*
X023183Y024874D02*
X021833Y024874D01*
X021886Y024775D02*
X023142Y024775D01*
X023130Y024677D02*
X021929Y024677D01*
X021964Y024578D02*
X023130Y024578D01*
X023161Y024480D02*
X021992Y024480D01*
X022012Y024381D02*
X023202Y024381D01*
X023299Y024283D02*
X022024Y024283D01*
X022030Y024086D02*
X023407Y024086D01*
X023481Y024184D02*
X021490Y024184D01*
X022021Y023987D02*
X023268Y023987D01*
X023189Y023889D02*
X022006Y023889D01*
X021985Y023790D02*
X023148Y023790D01*
X023130Y023692D02*
X021955Y023692D01*
X021916Y023593D02*
X023130Y023593D01*
X023155Y023495D02*
X021870Y023495D01*
X021814Y023396D02*
X023196Y023396D01*
X023284Y023298D02*
X021747Y023298D01*
X021448Y023002D02*
X025860Y023002D01*
X025860Y022904D02*
X021290Y022904D01*
X020660Y022904D02*
X020560Y022904D01*
X020560Y023002D02*
X020660Y023002D01*
X020660Y023101D02*
X020560Y023101D01*
X020560Y023199D02*
X020660Y023199D01*
X020660Y022805D02*
X020560Y022805D01*
X020152Y022805D02*
X011068Y022805D01*
X011290Y022904D02*
X019930Y022904D01*
X019772Y023002D02*
X011448Y023002D01*
X011569Y023101D02*
X019651Y023101D01*
X019553Y023199D02*
X011667Y023199D01*
X011747Y023298D02*
X019473Y023298D01*
X019406Y023396D02*
X011814Y023396D01*
X011870Y023495D02*
X019350Y023495D01*
X019304Y023593D02*
X011916Y023593D01*
X011955Y023692D02*
X019265Y023692D01*
X019235Y023790D02*
X011985Y023790D01*
X012006Y023889D02*
X019214Y023889D01*
X019199Y023987D02*
X012021Y023987D01*
X012030Y024086D02*
X019190Y024086D01*
X019196Y024283D02*
X012024Y024283D01*
X012012Y024381D02*
X019208Y024381D01*
X019228Y024480D02*
X011992Y024480D01*
X011964Y024578D02*
X019256Y024578D01*
X019291Y024677D02*
X011929Y024677D01*
X011886Y024775D02*
X019334Y024775D01*
X019387Y024874D02*
X011833Y024874D01*
X011769Y024972D02*
X019451Y024972D01*
X019529Y025071D02*
X011691Y025071D01*
X011599Y025169D02*
X019621Y025169D01*
X019733Y025268D02*
X011487Y025268D01*
X011346Y025366D02*
X019874Y025366D01*
X020073Y025465D02*
X011147Y025465D01*
X010660Y025465D02*
X010560Y025465D01*
X010560Y025366D02*
X010660Y025366D01*
X010660Y025268D02*
X010560Y025268D01*
X010560Y025169D02*
X010660Y025169D01*
X010660Y025071D02*
X010560Y025071D01*
X011490Y024184D02*
X019730Y024184D01*
X020560Y025071D02*
X020660Y025071D01*
X020660Y025169D02*
X020560Y025169D01*
X020560Y025268D02*
X020660Y025268D01*
X020660Y025366D02*
X020560Y025366D01*
X020560Y025465D02*
X020660Y025465D01*
X016998Y021623D02*
X016222Y021623D01*
X016205Y021630D02*
X016015Y021630D01*
X015838Y021557D01*
X015703Y021422D01*
X015630Y021245D01*
X015630Y021055D01*
X015703Y020878D01*
X015838Y020743D01*
X016015Y020670D01*
X016205Y020670D01*
X016382Y020743D01*
X016517Y020878D01*
X016590Y021055D01*
X016590Y021245D01*
X016517Y021422D01*
X016382Y021557D01*
X016205Y021630D01*
X015998Y021623D02*
X015222Y021623D01*
X015205Y021630D02*
X015015Y021630D01*
X014838Y021557D01*
X014703Y021422D01*
X014630Y021245D01*
X014630Y021055D01*
X014703Y020878D01*
X014838Y020743D01*
X015015Y020670D01*
X015205Y020670D01*
X015382Y020743D01*
X015517Y020878D01*
X015590Y021055D01*
X015590Y021245D01*
X015517Y021422D01*
X015382Y021557D01*
X015205Y021630D01*
X014998Y021623D02*
X014222Y021623D01*
X014205Y021630D02*
X014015Y021630D01*
X013838Y021557D01*
X013703Y021422D01*
X013630Y021245D01*
X013630Y021055D01*
X013703Y020878D01*
X013838Y020743D01*
X014015Y020670D01*
X014205Y020670D01*
X014382Y020743D01*
X014517Y020878D01*
X014590Y021055D01*
X014590Y021245D01*
X014517Y021422D01*
X014382Y021557D01*
X014205Y021630D01*
X013998Y021623D02*
X013327Y021623D01*
X013310Y021632D02*
X013232Y021657D01*
X013160Y021669D01*
X013160Y021200D01*
X013629Y021200D01*
X013617Y021272D01*
X013592Y021350D01*
X013555Y021423D01*
X013507Y021489D01*
X013449Y021547D01*
X013383Y021595D01*
X013310Y021632D01*
X013160Y021623D02*
X013060Y021623D01*
X013060Y021525D02*
X013160Y021525D01*
X013160Y021426D02*
X013060Y021426D01*
X013060Y021328D02*
X013160Y021328D01*
X013160Y021229D02*
X013060Y021229D01*
X013060Y021131D02*
X010458Y021131D01*
X010559Y021032D02*
X012602Y021032D01*
X012637Y020934D02*
X010606Y020934D01*
X010626Y020835D02*
X012696Y020835D01*
X012794Y020737D02*
X010626Y020737D01*
X010159Y020441D02*
X006360Y020441D01*
X006360Y020343D02*
X010047Y020343D01*
X009943Y020244D02*
X006360Y020244D01*
X006360Y020146D02*
X009895Y020146D01*
X009874Y020047D02*
X006360Y020047D01*
X006360Y019949D02*
X009874Y019949D01*
X009914Y019850D02*
X006360Y019850D01*
X006360Y019752D02*
X009987Y019752D01*
X010154Y019653D02*
X006360Y019653D01*
X006360Y019555D02*
X010052Y019555D01*
X009945Y019456D02*
X006360Y019456D01*
X006360Y019358D02*
X009896Y019358D01*
X009874Y019259D02*
X006360Y019259D01*
X006360Y019161D02*
X009874Y019161D01*
X009913Y019062D02*
X006360Y019062D01*
X006360Y018964D02*
X009985Y018964D01*
X010149Y018865D02*
X006360Y018865D01*
X006360Y018767D02*
X010056Y018767D01*
X009947Y018668D02*
X006360Y018668D01*
X006360Y018570D02*
X009897Y018570D01*
X009874Y018471D02*
X006360Y018471D01*
X006360Y018373D02*
X009874Y018373D01*
X009912Y018274D02*
X006360Y018274D01*
X006360Y018176D02*
X009983Y018176D01*
X010144Y018077D02*
X006360Y018077D01*
X006360Y017979D02*
X010061Y017979D01*
X009949Y017880D02*
X006360Y017880D01*
X006360Y017782D02*
X009898Y017782D01*
X009874Y017683D02*
X006360Y017683D01*
X006360Y017585D02*
X009874Y017585D01*
X009911Y017486D02*
X006360Y017486D01*
X006360Y017388D02*
X009981Y017388D01*
X010140Y017289D02*
X006360Y017289D01*
X006360Y017191D02*
X010066Y017191D01*
X009951Y017092D02*
X006360Y017092D01*
X006360Y016994D02*
X009899Y016994D01*
X009874Y016895D02*
X006360Y016895D01*
X006360Y016797D02*
X009874Y016797D01*
X009910Y016698D02*
X006360Y016698D01*
X006360Y016600D02*
X009979Y016600D01*
X010135Y016501D02*
X006360Y016501D01*
X006360Y016403D02*
X010071Y016403D01*
X009953Y016304D02*
X006360Y016304D01*
X006360Y016206D02*
X009899Y016206D01*
X009874Y016107D02*
X006360Y016107D01*
X006360Y016009D02*
X009874Y016009D01*
X009910Y015910D02*
X006360Y015910D01*
X006360Y015812D02*
X009977Y015812D01*
X010130Y015713D02*
X006360Y015713D01*
X006360Y015615D02*
X010076Y015615D01*
X009955Y015516D02*
X006360Y015516D01*
X006360Y015418D02*
X009900Y015418D01*
X009874Y015319D02*
X006360Y015319D01*
X006360Y015221D02*
X009874Y015221D01*
X009909Y015122D02*
X006360Y015122D01*
X006360Y015024D02*
X009975Y015024D01*
X010125Y014925D02*
X006360Y014925D01*
X006360Y014827D02*
X010081Y014827D01*
X009957Y014728D02*
X006360Y014728D01*
X006360Y014630D02*
X009063Y014630D01*
X008965Y014531D02*
X006360Y014531D01*
X006360Y014433D02*
X008866Y014433D01*
X008768Y014334D02*
X006360Y014334D01*
X006360Y014236D02*
X008669Y014236D01*
X008650Y014137D02*
X006360Y014137D01*
X006360Y014039D02*
X008650Y014039D01*
X008650Y013940D02*
X006360Y013940D01*
X006360Y013842D02*
X008650Y013842D01*
X008650Y013743D02*
X006360Y013743D01*
X006360Y013645D02*
X008650Y013645D01*
X008650Y013546D02*
X006360Y013546D01*
X006360Y013448D02*
X008650Y013448D01*
X008650Y013349D02*
X006360Y013349D01*
X006360Y013251D02*
X008650Y013251D01*
X008650Y013152D02*
X006360Y013152D01*
X006360Y013054D02*
X008650Y013054D01*
X008650Y012955D02*
X006360Y012955D01*
X006360Y012857D02*
X008650Y012857D01*
X008650Y012758D02*
X006360Y012758D01*
X006360Y012660D02*
X008650Y012660D01*
X008650Y012561D02*
X006360Y012561D01*
X006360Y012463D02*
X008650Y012463D01*
X008650Y012364D02*
X006360Y012364D01*
X006360Y012266D02*
X008650Y012266D01*
X008650Y012167D02*
X006360Y012167D01*
X006360Y012069D02*
X008650Y012069D01*
X008650Y011970D02*
X006360Y011970D01*
X006360Y011872D02*
X008650Y011872D01*
X008650Y011773D02*
X006360Y011773D01*
X006360Y011675D02*
X008650Y011675D01*
X008650Y011576D02*
X006360Y011576D01*
X006360Y011478D02*
X008650Y011478D01*
X008650Y011379D02*
X006360Y011379D01*
X006360Y011281D02*
X007837Y011281D01*
X007868Y011311D02*
X007803Y011247D01*
X007803Y011140D01*
X007524Y011140D01*
X007489Y011105D01*
X007377Y011105D01*
X007377Y011148D01*
X007313Y011213D01*
X006907Y011213D01*
X006843Y011148D01*
X006843Y010742D01*
X006907Y010678D01*
X007313Y010678D01*
X007377Y010742D01*
X007377Y010785D01*
X007622Y010785D01*
X007656Y010820D01*
X007803Y010820D01*
X007803Y010723D01*
X007868Y010658D01*
X008352Y010658D01*
X008417Y010723D01*
X008417Y011247D01*
X008352Y011311D01*
X007868Y011311D01*
X007803Y011182D02*
X007344Y011182D01*
X007555Y010945D02*
X007110Y010945D01*
X006843Y010985D02*
X006360Y010985D01*
X006360Y010887D02*
X006843Y010887D01*
X006843Y010788D02*
X006360Y010788D01*
X006360Y010690D02*
X006895Y010690D01*
X006907Y010622D02*
X006843Y010558D01*
X006843Y010152D01*
X006907Y010087D01*
X006950Y010087D01*
X006950Y009976D01*
X006902Y009929D01*
X006865Y009839D01*
X006865Y009741D01*
X006902Y009651D01*
X006971Y009582D01*
X007061Y009545D01*
X007159Y009545D01*
X007249Y009582D01*
X007318Y009651D01*
X007355Y009741D01*
X007355Y009839D01*
X007318Y009929D01*
X007270Y009976D01*
X007270Y010087D01*
X007313Y010087D01*
X007377Y010152D01*
X007377Y010558D01*
X007313Y010622D01*
X006907Y010622D01*
X006876Y010591D02*
X006360Y010591D01*
X006360Y010493D02*
X006843Y010493D01*
X006843Y010394D02*
X006360Y010394D01*
X006360Y010296D02*
X006843Y010296D01*
X006843Y010197D02*
X006360Y010197D01*
X006360Y010099D02*
X006896Y010099D01*
X006950Y010000D02*
X006360Y010000D01*
X006360Y009902D02*
X006891Y009902D01*
X006865Y009803D02*
X006360Y009803D01*
X006360Y009705D02*
X006880Y009705D01*
X006947Y009606D02*
X006360Y009606D01*
X006360Y009508D02*
X008950Y009508D01*
X008950Y009606D02*
X007273Y009606D01*
X007340Y009705D02*
X008950Y009705D01*
X008950Y009803D02*
X007355Y009803D01*
X007329Y009902D02*
X008950Y009902D01*
X008950Y010000D02*
X008364Y010000D01*
X008417Y010099D02*
X008950Y010099D01*
X008950Y010197D02*
X008483Y010197D01*
X008518Y010232D02*
X008518Y010232D01*
X008565Y010278D02*
X008565Y010278D01*
X008582Y010296D02*
X008950Y010296D01*
X008950Y010394D02*
X008680Y010394D01*
X008779Y010493D02*
X008950Y010493D01*
X008950Y010591D02*
X008877Y010591D01*
X008810Y010750D02*
X008405Y010345D01*
X008334Y010315D02*
X008110Y010315D01*
X008334Y010315D02*
X008354Y010317D01*
X008372Y010323D01*
X008390Y010332D01*
X008405Y010344D01*
X008403Y010591D02*
X008425Y010591D01*
X008384Y010690D02*
X008523Y010690D01*
X008622Y010788D02*
X008417Y010788D01*
X008417Y010887D02*
X008650Y010887D01*
X008650Y010985D02*
X008417Y010985D01*
X008417Y011084D02*
X008650Y011084D01*
X008650Y011182D02*
X008417Y011182D01*
X008383Y011281D02*
X008650Y011281D01*
X008810Y010750D02*
X008810Y014150D01*
X009150Y014490D01*
X010250Y014490D01*
X009973Y014236D02*
X009122Y014236D01*
X009023Y014137D02*
X010120Y014137D01*
X010065Y014039D02*
X008970Y014039D01*
X008970Y013940D02*
X009939Y013940D01*
X010230Y013700D02*
X009360Y013700D01*
X009110Y013450D01*
X008980Y013546D02*
X008970Y013546D01*
X008970Y013645D02*
X009078Y013645D01*
X009177Y013743D02*
X008970Y013743D01*
X008970Y013842D02*
X009275Y013842D01*
X009270Y012758D02*
X009292Y012758D01*
X008110Y010985D02*
X008105Y010980D01*
X007590Y010980D01*
X007555Y010945D01*
X007624Y010788D02*
X007803Y010788D01*
X007836Y010690D02*
X007325Y010690D01*
X007344Y010591D02*
X007817Y010591D01*
X007803Y010493D02*
X007377Y010493D01*
X007377Y010394D02*
X007803Y010394D01*
X007803Y010296D02*
X007377Y010296D01*
X007377Y010197D02*
X007803Y010197D01*
X007803Y010099D02*
X007324Y010099D01*
X007270Y010000D02*
X007856Y010000D01*
X007867Y009311D02*
X006360Y009311D01*
X006360Y009409D02*
X008950Y009409D01*
X009570Y008720D02*
X009939Y008720D01*
X010066Y008621D02*
X009570Y008621D01*
X009570Y008523D02*
X010099Y008523D01*
X010155Y008546D02*
X010017Y008489D01*
X009911Y008383D01*
X009854Y008245D01*
X009854Y008095D01*
X009911Y007957D01*
X010017Y007851D01*
X010155Y007794D01*
X010305Y007794D01*
X010443Y007851D01*
X010549Y007957D01*
X010606Y008095D01*
X010606Y008245D01*
X010549Y008383D01*
X010443Y008489D01*
X010305Y008546D01*
X010155Y008546D01*
X010361Y008523D02*
X019950Y008523D01*
X019950Y008621D02*
X010394Y008621D01*
X010521Y008720D02*
X019950Y008720D01*
X019950Y008818D02*
X010578Y008818D01*
X010606Y008917D02*
X019950Y008917D01*
X019950Y009015D02*
X010606Y009015D01*
X010573Y009114D02*
X019950Y009114D01*
X019950Y009212D02*
X010509Y009212D01*
X010366Y009311D02*
X019950Y009311D01*
X019950Y009409D02*
X010389Y009409D01*
X010519Y009508D02*
X019950Y009508D01*
X019950Y009606D02*
X010577Y009606D01*
X010606Y009705D02*
X019950Y009705D01*
X019950Y009803D02*
X010606Y009803D01*
X010574Y009902D02*
X019864Y009902D01*
X019765Y010000D02*
X010511Y010000D01*
X010370Y010099D02*
X019760Y010099D01*
X019760Y010197D02*
X010384Y010197D01*
X010517Y010296D02*
X019761Y010296D01*
X019859Y010394D02*
X010576Y010394D01*
X010606Y010493D02*
X019958Y010493D01*
X020262Y010493D02*
X021958Y010493D01*
X021859Y010394D02*
X020361Y010394D01*
X020459Y010296D02*
X021761Y010296D01*
X021760Y010197D02*
X020460Y010197D01*
X020460Y010099D02*
X021760Y010099D01*
X021765Y010000D02*
X020455Y010000D01*
X019950Y008424D02*
X010507Y008424D01*
X010572Y008326D02*
X019950Y008326D01*
X019950Y008227D02*
X010606Y008227D01*
X010606Y008129D02*
X019950Y008129D01*
X019950Y008030D02*
X010579Y008030D01*
X010523Y007932D02*
X019950Y007932D01*
X019950Y007833D02*
X010398Y007833D01*
X010356Y007735D02*
X019950Y007735D01*
X019950Y007636D02*
X010505Y007636D01*
X010571Y007538D02*
X019950Y007538D01*
X019950Y007439D02*
X010606Y007439D01*
X010606Y007341D02*
X019950Y007341D01*
X019950Y007242D02*
X010580Y007242D01*
X010525Y007144D02*
X019950Y007144D01*
X019950Y007045D02*
X010403Y007045D01*
X010446Y006947D02*
X019950Y006947D01*
X019950Y006848D02*
X010556Y006848D01*
X010615Y006750D02*
X019950Y006750D01*
X019950Y006651D02*
X010641Y006651D01*
X010269Y006454D02*
X010191Y006454D01*
X010191Y006356D02*
X010269Y006356D01*
X010269Y006257D02*
X010191Y006257D01*
X010479Y006257D02*
X019950Y006257D01*
X019950Y006159D02*
X008503Y006159D01*
X008417Y006060D02*
X019950Y006060D01*
X019950Y005962D02*
X007270Y005962D01*
X007270Y005926D02*
X007270Y006087D01*
X007313Y006087D01*
X007377Y006152D01*
X007377Y006558D01*
X007313Y006622D01*
X006907Y006622D01*
X006843Y006558D01*
X006843Y006152D01*
X006907Y006087D01*
X006950Y006087D01*
X006950Y005926D01*
X006902Y005879D01*
X006865Y005789D01*
X006865Y005691D01*
X006902Y005601D01*
X006971Y005532D01*
X007061Y005495D01*
X007159Y005495D01*
X007249Y005532D01*
X007318Y005601D01*
X007355Y005691D01*
X007355Y005789D01*
X007318Y005879D01*
X007270Y005926D01*
X007324Y005863D02*
X019950Y005863D01*
X019950Y005765D02*
X007355Y005765D01*
X007345Y005666D02*
X019950Y005666D01*
X019950Y005568D02*
X007284Y005568D01*
X007110Y005740D02*
X007110Y006355D01*
X007377Y006356D02*
X007803Y006356D01*
X007803Y006454D02*
X007377Y006454D01*
X007377Y006553D02*
X007803Y006553D01*
X007868Y006658D02*
X008352Y006658D01*
X008417Y006723D01*
X008417Y007247D01*
X008352Y007311D01*
X007868Y007311D01*
X007803Y007247D01*
X007803Y007140D01*
X007554Y007140D01*
X007519Y007105D01*
X007377Y007105D01*
X007377Y007148D01*
X007313Y007213D01*
X006907Y007213D01*
X006843Y007148D01*
X006843Y006742D01*
X006907Y006678D01*
X007313Y006678D01*
X007377Y006742D01*
X007377Y006785D01*
X007652Y006785D01*
X007686Y006820D01*
X007803Y006820D01*
X007803Y006723D01*
X007868Y006658D01*
X007803Y006750D02*
X007377Y006750D01*
X007585Y006945D02*
X007110Y006945D01*
X006843Y006947D02*
X006360Y006947D01*
X006360Y007045D02*
X006843Y007045D01*
X006843Y007144D02*
X006360Y007144D01*
X006360Y007242D02*
X007803Y007242D01*
X007803Y007144D02*
X007377Y007144D01*
X007585Y006945D02*
X007620Y006980D01*
X008105Y006980D01*
X008110Y006985D01*
X008417Y006947D02*
X008880Y006947D01*
X008979Y007045D02*
X008417Y007045D01*
X008417Y007144D02*
X009077Y007144D01*
X009176Y007242D02*
X008417Y007242D01*
X008417Y006848D02*
X008782Y006848D01*
X008683Y006750D02*
X008417Y006750D01*
X008585Y006651D02*
X006360Y006651D01*
X006360Y006553D02*
X006843Y006553D01*
X006843Y006454D02*
X006360Y006454D01*
X006360Y006356D02*
X006843Y006356D01*
X006843Y006257D02*
X006360Y006257D01*
X006360Y006159D02*
X006843Y006159D01*
X006950Y006060D02*
X006360Y006060D01*
X006360Y005962D02*
X006950Y005962D01*
X006896Y005863D02*
X006360Y005863D01*
X006360Y005765D02*
X006865Y005765D01*
X006875Y005666D02*
X006360Y005666D01*
X006360Y005568D02*
X006936Y005568D01*
X006907Y005213D02*
X006843Y005148D01*
X006843Y004742D01*
X006907Y004678D01*
X007313Y004678D01*
X007377Y004742D01*
X007377Y004785D01*
X007662Y004785D01*
X007696Y004820D01*
X007803Y004820D01*
X007803Y004723D01*
X007854Y004671D01*
X007821Y004652D01*
X007793Y004624D01*
X007773Y004590D01*
X007763Y004552D01*
X007763Y004364D01*
X008062Y004364D01*
X008062Y004267D01*
X008158Y004267D01*
X008158Y003949D01*
X008327Y003949D01*
X008365Y003959D01*
X008399Y003979D01*
X008427Y004007D01*
X008447Y004041D01*
X008457Y004079D01*
X008457Y004267D01*
X008158Y004267D01*
X008158Y004364D01*
X008457Y004364D01*
X008457Y004552D01*
X008447Y004590D01*
X008427Y004624D01*
X008399Y004652D01*
X008366Y004671D01*
X008417Y004723D01*
X008417Y005247D01*
X008352Y005311D01*
X007868Y005311D01*
X007803Y005247D01*
X007803Y005140D01*
X007564Y005140D01*
X007529Y005105D01*
X007377Y005105D01*
X007377Y005148D01*
X007313Y005213D01*
X006907Y005213D01*
X006868Y005174D02*
X006360Y005174D01*
X006360Y005272D02*
X007828Y005272D01*
X007803Y005174D02*
X007352Y005174D01*
X007110Y004945D02*
X007595Y004945D01*
X007630Y004980D01*
X008105Y004980D01*
X008110Y004985D01*
X008417Y004977D02*
X019950Y004977D01*
X019950Y005075D02*
X008417Y005075D01*
X008417Y005174D02*
X019950Y005174D01*
X019950Y005272D02*
X008392Y005272D01*
X008417Y004878D02*
X019950Y004878D01*
X019950Y004780D02*
X008417Y004780D01*
X008375Y004681D02*
X019950Y004681D01*
X019950Y004583D02*
X008449Y004583D01*
X008457Y004484D02*
X019950Y004484D01*
X019950Y004386D02*
X008457Y004386D01*
X008457Y004189D02*
X019950Y004189D01*
X019950Y004287D02*
X008158Y004287D01*
X008062Y004287D02*
X007377Y004287D01*
X007377Y004189D02*
X007763Y004189D01*
X007763Y004267D02*
X007763Y004079D01*
X007773Y004041D01*
X007793Y004007D01*
X007821Y003979D01*
X007855Y003959D01*
X007893Y003949D01*
X008062Y003949D01*
X008062Y004267D01*
X007763Y004267D01*
X007763Y004386D02*
X007377Y004386D01*
X007377Y004484D02*
X007763Y004484D01*
X007771Y004583D02*
X007353Y004583D01*
X007377Y004558D02*
X007313Y004622D01*
X006907Y004622D01*
X006843Y004558D01*
X006843Y004152D01*
X006907Y004087D01*
X006950Y004087D01*
X006950Y003846D01*
X006912Y003809D01*
X006875Y003719D01*
X006875Y003621D01*
X006912Y003531D01*
X006981Y003462D01*
X007071Y003425D01*
X007169Y003425D01*
X007259Y003462D01*
X007328Y003531D01*
X007365Y003621D01*
X007365Y003719D01*
X007328Y003809D01*
X007270Y003866D01*
X007270Y004087D01*
X007313Y004087D01*
X007377Y004152D01*
X007377Y004558D01*
X007316Y004681D02*
X007845Y004681D01*
X007803Y004780D02*
X007377Y004780D01*
X006904Y004681D02*
X006360Y004681D01*
X006360Y004583D02*
X006867Y004583D01*
X006843Y004484D02*
X006360Y004484D01*
X006360Y004386D02*
X006843Y004386D01*
X006843Y004287D02*
X006360Y004287D01*
X006360Y004189D02*
X006843Y004189D01*
X006904Y004090D02*
X006360Y004090D01*
X006360Y003992D02*
X006950Y003992D01*
X006950Y003893D02*
X006360Y003893D01*
X006360Y003795D02*
X006906Y003795D01*
X006875Y003696D02*
X006360Y003696D01*
X006360Y003598D02*
X006885Y003598D01*
X006945Y003499D02*
X006360Y003499D01*
X006360Y003401D02*
X020633Y003401D01*
X020535Y003499D02*
X007295Y003499D01*
X007355Y003598D02*
X020436Y003598D01*
X020338Y003696D02*
X007365Y003696D01*
X007334Y003795D02*
X020239Y003795D01*
X020141Y003893D02*
X007270Y003893D01*
X007270Y003992D02*
X007808Y003992D01*
X007763Y004090D02*
X007316Y004090D01*
X007110Y004355D02*
X007110Y003694D01*
X007111Y003685D01*
X007115Y003677D01*
X007120Y003670D01*
X006360Y003302D02*
X020732Y003302D01*
X020830Y003204D02*
X006360Y003204D01*
X006360Y003105D02*
X020929Y003105D01*
X020950Y003007D02*
X006360Y003007D01*
X006360Y002908D02*
X020950Y002908D01*
X020950Y002810D02*
X006360Y002810D01*
X006360Y002711D02*
X020950Y002711D01*
X020950Y002613D02*
X006360Y002613D01*
X006360Y002514D02*
X007996Y002514D01*
X008034Y002530D02*
X007895Y002472D01*
X007788Y002365D01*
X007730Y002226D01*
X007730Y002074D01*
X007788Y001935D01*
X007895Y001828D01*
X008034Y001770D01*
X008186Y001770D01*
X008325Y001828D01*
X008432Y001935D01*
X008490Y002074D01*
X008490Y002226D01*
X008432Y002365D01*
X008325Y002472D01*
X008186Y002530D01*
X008034Y002530D01*
X008224Y002514D02*
X008937Y002514D01*
X008953Y002530D02*
X008730Y002307D01*
X008730Y001993D01*
X008953Y001770D01*
X009267Y001770D01*
X009490Y001993D01*
X009490Y002307D01*
X009267Y002530D01*
X008953Y002530D01*
X008838Y002416D02*
X008382Y002416D01*
X008452Y002317D02*
X008740Y002317D01*
X008730Y002219D02*
X008490Y002219D01*
X008490Y002120D02*
X008730Y002120D01*
X008730Y002022D02*
X008468Y002022D01*
X008420Y001923D02*
X008800Y001923D01*
X008898Y001825D02*
X008317Y001825D01*
X008267Y001530D02*
X007953Y001530D01*
X007730Y001307D01*
X007730Y000993D01*
X007953Y000770D01*
X008267Y000770D01*
X008490Y000993D01*
X008490Y001307D01*
X008267Y001530D01*
X008268Y001529D02*
X008952Y001529D01*
X008953Y001530D02*
X008730Y001307D01*
X008730Y000993D01*
X008953Y000770D01*
X009267Y000770D01*
X009490Y000993D01*
X009490Y001307D01*
X009267Y001530D01*
X008953Y001530D01*
X008853Y001431D02*
X008367Y001431D01*
X008465Y001332D02*
X008755Y001332D01*
X008730Y001234D02*
X008490Y001234D01*
X008490Y001135D02*
X008730Y001135D01*
X008730Y001037D02*
X008490Y001037D01*
X008435Y000938D02*
X008785Y000938D01*
X008883Y000840D02*
X008337Y000840D01*
X007883Y000840D02*
X006360Y000840D01*
X006360Y000938D02*
X007785Y000938D01*
X007730Y001037D02*
X006360Y001037D01*
X006360Y001135D02*
X007730Y001135D01*
X007730Y001234D02*
X006360Y001234D01*
X006360Y001332D02*
X006752Y001332D01*
X006756Y001326D01*
X006780Y001319D01*
X006802Y001309D01*
X006809Y001311D01*
X006829Y001306D01*
X006834Y001300D01*
X006859Y001298D01*
X006882Y001292D01*
X006889Y001296D01*
X006910Y001294D01*
X006916Y001289D01*
X006940Y001291D01*
X006964Y001289D01*
X006970Y001294D01*
X006991Y001296D01*
X006998Y001292D01*
X007021Y001298D01*
X007046Y001300D01*
X007051Y001306D01*
X007071Y001311D01*
X007078Y001309D01*
X007100Y001319D01*
X007124Y001326D01*
X007128Y001332D01*
X007147Y001341D01*
X007154Y001340D01*
X007174Y001354D01*
X007197Y001364D01*
X007199Y001371D01*
X007217Y001383D01*
X007224Y001383D01*
X007241Y001401D01*
X007262Y001415D01*
X007263Y001422D01*
X007278Y001437D01*
X007285Y001438D01*
X007299Y001459D01*
X007317Y001476D01*
X007317Y001483D01*
X007329Y001501D01*
X007336Y001503D01*
X007346Y001526D01*
X007360Y001546D01*
X007359Y001553D01*
X007368Y001572D01*
X007374Y001576D01*
X007381Y001600D01*
X007391Y001622D01*
X007389Y001629D01*
X007394Y001649D01*
X007400Y001654D01*
X007402Y001679D01*
X007408Y001702D01*
X007404Y001709D01*
X007406Y001730D01*
X007411Y001736D01*
X007409Y001760D01*
X007411Y001784D01*
X007406Y001790D01*
X007404Y001811D01*
X007408Y001818D01*
X007402Y001841D01*
X007400Y001866D01*
X007394Y001871D01*
X007389Y001891D01*
X007391Y001898D01*
X007381Y001920D01*
X007374Y001944D01*
X007368Y001948D01*
X007359Y001967D01*
X007360Y001974D01*
X007346Y001994D01*
X007336Y002017D01*
X007329Y002019D01*
X007317Y002037D01*
X007317Y002044D01*
X007299Y002061D01*
X007285Y002082D01*
X007278Y002083D01*
X007263Y002098D01*
X007262Y002105D01*
X007241Y002119D01*
X007224Y002137D01*
X007217Y002137D01*
X007199Y002149D01*
X007197Y002156D01*
X007174Y002166D01*
X007154Y002180D01*
X007147Y002179D01*
X007128Y002188D01*
X007124Y002194D01*
X007100Y002201D01*
X007078Y002211D01*
X007071Y002209D01*
X007051Y002214D01*
X007046Y002220D01*
X007021Y002222D01*
X006998Y002228D01*
X006991Y002224D01*
X006970Y002226D01*
X006964Y002231D01*
X006940Y002229D01*
X006916Y002231D01*
X006910Y002226D01*
X006889Y002224D01*
X006882Y002228D01*
X006859Y002222D01*
X006834Y002220D01*
X006829Y002214D01*
X006809Y002209D01*
X006802Y002211D01*
X006780Y002201D01*
X006756Y002194D01*
X006752Y002188D01*
X006733Y002179D01*
X006726Y002180D01*
X006706Y002166D01*
X006683Y002156D01*
X006681Y002149D01*
X006663Y002137D01*
X006656Y002137D01*
X006639Y002119D01*
X006618Y002105D01*
X006617Y002098D01*
X006602Y002083D01*
X006595Y002082D01*
X006581Y002061D01*
X006563Y002044D01*
X006563Y002037D01*
X006551Y002019D01*
X006544Y002017D01*
X006534Y001994D01*
X006520Y001974D01*
X006521Y001967D01*
X006512Y001948D01*
X006506Y001944D01*
X006499Y001920D01*
X006489Y001898D01*
X006491Y001891D01*
X006486Y001871D01*
X006480Y001866D01*
X006478Y001841D01*
X006472Y001818D01*
X006476Y001811D01*
X006474Y001790D01*
X006469Y001784D01*
X006471Y001760D01*
X006469Y001736D01*
X006474Y001730D01*
X006476Y001709D01*
X006472Y001702D01*
X006478Y001679D01*
X006480Y001654D01*
X006486Y001649D01*
X006491Y001629D01*
X006489Y001622D01*
X006499Y001600D01*
X006506Y001576D01*
X006512Y001572D01*
X006521Y001553D01*
X006520Y001546D01*
X006534Y001526D01*
X006544Y001503D01*
X006551Y001501D01*
X006563Y001483D01*
X006563Y001476D01*
X006581Y001459D01*
X006595Y001438D01*
X006602Y001437D01*
X006617Y001422D01*
X006618Y001415D01*
X006639Y001401D01*
X006656Y001383D01*
X006663Y001383D01*
X006681Y001371D01*
X006683Y001364D01*
X006706Y001354D01*
X006726Y001340D01*
X006733Y001341D01*
X006752Y001332D01*
X006609Y001431D02*
X006360Y001431D01*
X006360Y001529D02*
X006531Y001529D01*
X006491Y001628D02*
X006360Y001628D01*
X006360Y001726D02*
X006474Y001726D01*
X006474Y001825D02*
X006360Y001825D01*
X006360Y001923D02*
X006500Y001923D01*
X006553Y002022D02*
X006360Y002022D01*
X006360Y002120D02*
X006639Y002120D01*
X006833Y002219D02*
X006360Y002219D01*
X006360Y002317D02*
X007768Y002317D01*
X007730Y002219D02*
X007047Y002219D01*
X007241Y002120D02*
X007730Y002120D01*
X007752Y002022D02*
X007327Y002022D01*
X007380Y001923D02*
X007800Y001923D01*
X007903Y001825D02*
X007406Y001825D01*
X007406Y001726D02*
X021450Y001726D01*
X021450Y001825D02*
X021322Y001825D01*
X021420Y001923D02*
X021450Y001923D01*
X021361Y001628D02*
X007389Y001628D01*
X007349Y001529D02*
X007952Y001529D01*
X007853Y001431D02*
X007271Y001431D01*
X007128Y001332D02*
X007755Y001332D01*
X007838Y002416D02*
X006360Y002416D01*
X008062Y003992D02*
X008158Y003992D01*
X008158Y004090D02*
X008062Y004090D01*
X008062Y004189D02*
X008158Y004189D01*
X008457Y004090D02*
X019950Y004090D01*
X020042Y003992D02*
X008412Y003992D01*
X006843Y004780D02*
X006360Y004780D01*
X006360Y004878D02*
X006843Y004878D01*
X006843Y004977D02*
X006360Y004977D01*
X006360Y005075D02*
X006843Y005075D01*
X006360Y005371D02*
X019950Y005371D01*
X019950Y005469D02*
X006360Y005469D01*
X007270Y006060D02*
X007803Y006060D01*
X007803Y006159D02*
X007377Y006159D01*
X007377Y006257D02*
X007803Y006257D01*
X008110Y006315D02*
X008434Y006315D01*
X008454Y006317D01*
X008472Y006323D01*
X008490Y006332D01*
X008505Y006344D01*
X008486Y006553D02*
X008417Y006553D01*
X009136Y006750D02*
X009845Y006750D01*
X009904Y006848D02*
X009234Y006848D01*
X009333Y006947D02*
X010014Y006947D01*
X010057Y007045D02*
X009431Y007045D01*
X009530Y007144D02*
X009935Y007144D01*
X009880Y007242D02*
X009570Y007242D01*
X009570Y007341D02*
X009854Y007341D01*
X009854Y007439D02*
X009570Y007439D01*
X009570Y007538D02*
X009889Y007538D01*
X009955Y007636D02*
X009570Y007636D01*
X009570Y007735D02*
X010104Y007735D01*
X010062Y007833D02*
X009570Y007833D01*
X009570Y007932D02*
X009937Y007932D01*
X009881Y008030D02*
X009570Y008030D01*
X009570Y008129D02*
X009854Y008129D01*
X009854Y008227D02*
X009570Y008227D01*
X009570Y008326D02*
X009888Y008326D01*
X009953Y008424D02*
X009570Y008424D01*
X009250Y008030D02*
X008394Y008030D01*
X007826Y008030D02*
X007270Y008030D01*
X007270Y007932D02*
X009250Y007932D01*
X009250Y007833D02*
X007320Y007833D01*
X007355Y007735D02*
X009250Y007735D01*
X009250Y007636D02*
X007349Y007636D01*
X007294Y007538D02*
X009250Y007538D01*
X009250Y007439D02*
X006360Y007439D01*
X006360Y007341D02*
X009250Y007341D01*
X007803Y008129D02*
X007354Y008129D01*
X007377Y008227D02*
X007803Y008227D01*
X007803Y008818D02*
X007674Y008818D01*
X007575Y008945D02*
X007110Y008945D01*
X006843Y008917D02*
X006360Y008917D01*
X006360Y009015D02*
X006843Y009015D01*
X006843Y009114D02*
X006360Y009114D01*
X006360Y009212D02*
X006906Y009212D01*
X006843Y008818D02*
X006360Y008818D01*
X006360Y008720D02*
X006865Y008720D01*
X006906Y008621D02*
X006360Y008621D01*
X006360Y008523D02*
X006843Y008523D01*
X006843Y008424D02*
X006360Y008424D01*
X006360Y008326D02*
X006843Y008326D01*
X006843Y008227D02*
X006360Y008227D01*
X006360Y008129D02*
X006866Y008129D01*
X006950Y008030D02*
X006360Y008030D01*
X006360Y007932D02*
X006950Y007932D01*
X006900Y007833D02*
X006360Y007833D01*
X006360Y007735D02*
X006865Y007735D01*
X006871Y007636D02*
X006360Y007636D01*
X006360Y007538D02*
X006926Y007538D01*
X007110Y007700D02*
X007110Y008355D01*
X007377Y009114D02*
X007517Y009114D01*
X007314Y009212D02*
X007803Y009212D01*
X007110Y009790D02*
X007110Y010355D01*
X006843Y011084D02*
X006360Y011084D01*
X006360Y011182D02*
X006876Y011182D01*
X006843Y006848D02*
X006360Y006848D01*
X006360Y006750D02*
X006843Y006750D01*
X009283Y002514D02*
X009937Y002514D01*
X009953Y002530D02*
X009730Y002307D01*
X009730Y001993D01*
X009953Y001770D01*
X010267Y001770D01*
X010490Y001993D01*
X010490Y002307D01*
X010267Y002530D01*
X009953Y002530D01*
X009838Y002416D02*
X009382Y002416D01*
X009480Y002317D02*
X009740Y002317D01*
X009730Y002219D02*
X009490Y002219D01*
X009490Y002120D02*
X009730Y002120D01*
X009730Y002022D02*
X009490Y002022D01*
X009420Y001923D02*
X009800Y001923D01*
X009898Y001825D02*
X009322Y001825D01*
X009268Y001529D02*
X009952Y001529D01*
X009953Y001530D02*
X009730Y001307D01*
X009730Y000993D01*
X009953Y000770D01*
X010267Y000770D01*
X010490Y000993D01*
X010490Y001307D01*
X010267Y001530D01*
X009953Y001530D01*
X009853Y001431D02*
X009367Y001431D01*
X009465Y001332D02*
X009755Y001332D01*
X009730Y001234D02*
X009490Y001234D01*
X009490Y001135D02*
X009730Y001135D01*
X009730Y001037D02*
X009490Y001037D01*
X009435Y000938D02*
X009785Y000938D01*
X009883Y000840D02*
X009337Y000840D01*
X010337Y000840D02*
X010883Y000840D01*
X010953Y000770D02*
X011267Y000770D01*
X011490Y000993D01*
X011490Y001307D01*
X011267Y001530D01*
X010953Y001530D01*
X010730Y001307D01*
X010730Y000993D01*
X010953Y000770D01*
X010785Y000938D02*
X010435Y000938D01*
X010490Y001037D02*
X010730Y001037D01*
X010730Y001135D02*
X010490Y001135D01*
X010490Y001234D02*
X010730Y001234D01*
X010755Y001332D02*
X010465Y001332D01*
X010367Y001431D02*
X010853Y001431D01*
X010952Y001529D02*
X010268Y001529D01*
X010322Y001825D02*
X010898Y001825D01*
X010953Y001770D02*
X011267Y001770D01*
X011490Y001993D01*
X011490Y002307D01*
X011267Y002530D01*
X010953Y002530D01*
X010730Y002307D01*
X010730Y001993D01*
X010953Y001770D01*
X010800Y001923D02*
X010420Y001923D01*
X010490Y002022D02*
X010730Y002022D01*
X010730Y002120D02*
X010490Y002120D01*
X010490Y002219D02*
X010730Y002219D01*
X010740Y002317D02*
X010480Y002317D01*
X010382Y002416D02*
X010838Y002416D01*
X010937Y002514D02*
X010283Y002514D01*
X011283Y002514D02*
X011937Y002514D01*
X011953Y002530D02*
X011730Y002307D01*
X011730Y001993D01*
X011953Y001770D01*
X012267Y001770D01*
X012490Y001993D01*
X012490Y002307D01*
X012267Y002530D01*
X011953Y002530D01*
X011838Y002416D02*
X011382Y002416D01*
X011480Y002317D02*
X011740Y002317D01*
X011730Y002219D02*
X011490Y002219D01*
X011490Y002120D02*
X011730Y002120D01*
X011730Y002022D02*
X011490Y002022D01*
X011420Y001923D02*
X011800Y001923D01*
X011898Y001825D02*
X011322Y001825D01*
X011268Y001529D02*
X011952Y001529D01*
X011953Y001530D02*
X011730Y001307D01*
X011730Y000993D01*
X011953Y000770D01*
X012267Y000770D01*
X012490Y000993D01*
X012490Y001307D01*
X012267Y001530D01*
X011953Y001530D01*
X011853Y001431D02*
X011367Y001431D01*
X011465Y001332D02*
X011755Y001332D01*
X011730Y001234D02*
X011490Y001234D01*
X011490Y001135D02*
X011730Y001135D01*
X011730Y001037D02*
X011490Y001037D01*
X011435Y000938D02*
X011785Y000938D01*
X011883Y000840D02*
X011337Y000840D01*
X012337Y000840D02*
X012883Y000840D01*
X012953Y000770D02*
X013267Y000770D01*
X013490Y000993D01*
X013490Y001307D01*
X013267Y001530D01*
X012953Y001530D01*
X012730Y001307D01*
X012730Y000993D01*
X012953Y000770D01*
X012785Y000938D02*
X012435Y000938D01*
X012490Y001037D02*
X012730Y001037D01*
X012730Y001135D02*
X012490Y001135D01*
X012490Y001234D02*
X012730Y001234D01*
X012755Y001332D02*
X012465Y001332D01*
X012367Y001431D02*
X012853Y001431D01*
X012952Y001529D02*
X012268Y001529D01*
X012322Y001825D02*
X012898Y001825D01*
X012953Y001770D02*
X013267Y001770D01*
X013490Y001993D01*
X013490Y002307D01*
X013267Y002530D01*
X012953Y002530D01*
X012730Y002307D01*
X012730Y001993D01*
X012953Y001770D01*
X012800Y001923D02*
X012420Y001923D01*
X012490Y002022D02*
X012730Y002022D01*
X012730Y002120D02*
X012490Y002120D01*
X012490Y002219D02*
X012730Y002219D01*
X012740Y002317D02*
X012480Y002317D01*
X012382Y002416D02*
X012838Y002416D01*
X012937Y002514D02*
X012283Y002514D01*
X013283Y002514D02*
X013937Y002514D01*
X013953Y002530D02*
X013730Y002307D01*
X013730Y001993D01*
X013953Y001770D01*
X014267Y001770D01*
X014490Y001993D01*
X014490Y002307D01*
X014267Y002530D01*
X013953Y002530D01*
X013838Y002416D02*
X013382Y002416D01*
X013480Y002317D02*
X013740Y002317D01*
X013730Y002219D02*
X013490Y002219D01*
X013490Y002120D02*
X013730Y002120D01*
X013730Y002022D02*
X013490Y002022D01*
X013420Y001923D02*
X013800Y001923D01*
X013898Y001825D02*
X013322Y001825D01*
X013268Y001529D02*
X013952Y001529D01*
X013953Y001530D02*
X013730Y001307D01*
X013730Y000993D01*
X013953Y000770D01*
X014267Y000770D01*
X014490Y000993D01*
X014490Y001307D01*
X014267Y001530D01*
X013953Y001530D01*
X013853Y001431D02*
X013367Y001431D01*
X013465Y001332D02*
X013755Y001332D01*
X013730Y001234D02*
X013490Y001234D01*
X013490Y001135D02*
X013730Y001135D01*
X013730Y001037D02*
X013490Y001037D01*
X013435Y000938D02*
X013785Y000938D01*
X013883Y000840D02*
X013337Y000840D01*
X014337Y000840D02*
X014883Y000840D01*
X014785Y000938D02*
X014435Y000938D01*
X014490Y001037D02*
X014730Y001037D01*
X014730Y001135D02*
X014490Y001135D01*
X014490Y001234D02*
X014730Y001234D01*
X014755Y001332D02*
X014465Y001332D01*
X014367Y001431D02*
X014853Y001431D01*
X014952Y001529D02*
X014268Y001529D01*
X014322Y001825D02*
X014898Y001825D01*
X014953Y001770D02*
X015267Y001770D01*
X015490Y001993D01*
X015490Y002307D01*
X015267Y002530D01*
X014953Y002530D01*
X014730Y002307D01*
X014730Y001993D01*
X014953Y001770D01*
X014800Y001923D02*
X014420Y001923D01*
X014490Y002022D02*
X014730Y002022D01*
X014730Y002120D02*
X014490Y002120D01*
X014490Y002219D02*
X014730Y002219D01*
X014740Y002317D02*
X014480Y002317D01*
X014382Y002416D02*
X014838Y002416D01*
X014937Y002514D02*
X014283Y002514D01*
X015283Y002514D02*
X015937Y002514D01*
X015953Y002530D02*
X015730Y002307D01*
X015730Y001993D01*
X015953Y001770D01*
X016267Y001770D01*
X016490Y001993D01*
X016490Y002307D01*
X016267Y002530D01*
X015953Y002530D01*
X015838Y002416D02*
X015382Y002416D01*
X015480Y002317D02*
X015740Y002317D01*
X015730Y002219D02*
X015490Y002219D01*
X015490Y002120D02*
X015730Y002120D01*
X015730Y002022D02*
X015490Y002022D01*
X015420Y001923D02*
X015800Y001923D01*
X015898Y001825D02*
X015322Y001825D01*
X015268Y001529D02*
X015895Y001529D01*
X015797Y001431D02*
X015367Y001431D01*
X015465Y001332D02*
X015698Y001332D01*
X015690Y001234D02*
X015490Y001234D01*
X016322Y001825D02*
X016898Y001825D01*
X016953Y001770D02*
X017267Y001770D01*
X017490Y001993D01*
X017490Y002307D01*
X017267Y002530D01*
X016953Y002530D01*
X016730Y002307D01*
X016730Y001993D01*
X016953Y001770D01*
X016800Y001923D02*
X016420Y001923D01*
X016490Y002022D02*
X016730Y002022D01*
X016730Y002120D02*
X016490Y002120D01*
X016490Y002219D02*
X016730Y002219D01*
X016740Y002317D02*
X016480Y002317D01*
X016382Y002416D02*
X016838Y002416D01*
X016937Y002514D02*
X016283Y002514D01*
X017283Y002514D02*
X017937Y002514D01*
X017953Y002530D02*
X017730Y002307D01*
X017730Y001993D01*
X017953Y001770D01*
X018267Y001770D01*
X018490Y001993D01*
X018490Y002307D01*
X018267Y002530D01*
X017953Y002530D01*
X017838Y002416D02*
X017382Y002416D01*
X017480Y002317D02*
X017740Y002317D01*
X017730Y002219D02*
X017490Y002219D01*
X017490Y002120D02*
X017730Y002120D01*
X017730Y002022D02*
X017490Y002022D01*
X017420Y001923D02*
X017800Y001923D01*
X017898Y001825D02*
X017322Y001825D01*
X017268Y001529D02*
X017952Y001529D01*
X017953Y001530D02*
X017730Y001307D01*
X017730Y000993D01*
X017953Y000770D01*
X018267Y000770D01*
X018490Y000993D01*
X018490Y001307D01*
X018267Y001530D01*
X017953Y001530D01*
X017853Y001431D02*
X017367Y001431D01*
X017465Y001332D02*
X017755Y001332D01*
X017730Y001234D02*
X017490Y001234D01*
X017490Y001135D02*
X017730Y001135D01*
X017730Y001037D02*
X017490Y001037D01*
X017435Y000938D02*
X017785Y000938D01*
X017883Y000840D02*
X017337Y000840D01*
X018337Y000840D02*
X018883Y000840D01*
X018953Y000770D02*
X019267Y000770D01*
X019490Y000993D01*
X019490Y001307D01*
X019267Y001530D01*
X018953Y001530D01*
X018730Y001307D01*
X018730Y000993D01*
X018953Y000770D01*
X018785Y000938D02*
X018435Y000938D01*
X018490Y001037D02*
X018730Y001037D01*
X018730Y001135D02*
X018490Y001135D01*
X018490Y001234D02*
X018730Y001234D01*
X018755Y001332D02*
X018465Y001332D01*
X018367Y001431D02*
X018853Y001431D01*
X018952Y001529D02*
X018268Y001529D01*
X018322Y001825D02*
X018898Y001825D01*
X018953Y001770D02*
X019267Y001770D01*
X019490Y001993D01*
X019490Y002307D01*
X019267Y002530D01*
X018953Y002530D01*
X018730Y002307D01*
X018730Y001993D01*
X018953Y001770D01*
X018800Y001923D02*
X018420Y001923D01*
X018490Y002022D02*
X018730Y002022D01*
X018730Y002120D02*
X018490Y002120D01*
X018490Y002219D02*
X018730Y002219D01*
X018740Y002317D02*
X018480Y002317D01*
X018382Y002416D02*
X018838Y002416D01*
X018937Y002514D02*
X018283Y002514D01*
X019283Y002514D02*
X019937Y002514D01*
X019953Y002530D02*
X019730Y002307D01*
X019730Y001993D01*
X019953Y001770D01*
X020267Y001770D01*
X020490Y001993D01*
X020490Y002307D01*
X020267Y002530D01*
X019953Y002530D01*
X019838Y002416D02*
X019382Y002416D01*
X019480Y002317D02*
X019740Y002317D01*
X019730Y002219D02*
X019490Y002219D01*
X019490Y002120D02*
X019730Y002120D01*
X019730Y002022D02*
X019490Y002022D01*
X019420Y001923D02*
X019800Y001923D01*
X019898Y001825D02*
X019322Y001825D01*
X019268Y001529D02*
X019952Y001529D01*
X019953Y001530D02*
X019730Y001307D01*
X019730Y000993D01*
X019953Y000770D01*
X020267Y000770D01*
X020490Y000993D01*
X020490Y001307D01*
X020267Y001530D01*
X019953Y001530D01*
X019853Y001431D02*
X019367Y001431D01*
X019465Y001332D02*
X019755Y001332D01*
X019730Y001234D02*
X019490Y001234D01*
X019490Y001135D02*
X019730Y001135D01*
X019730Y001037D02*
X019490Y001037D01*
X019435Y000938D02*
X019785Y000938D01*
X019883Y000840D02*
X019337Y000840D01*
X020337Y000840D02*
X020883Y000840D01*
X020785Y000938D02*
X020435Y000938D01*
X020490Y001037D02*
X020730Y001037D01*
X020730Y001135D02*
X020490Y001135D01*
X020490Y001234D02*
X020730Y001234D01*
X020755Y001332D02*
X020465Y001332D01*
X020367Y001431D02*
X020853Y001431D01*
X020952Y001529D02*
X020268Y001529D01*
X020322Y001825D02*
X020898Y001825D01*
X020800Y001923D02*
X020420Y001923D01*
X020490Y002022D02*
X020730Y002022D01*
X020730Y002120D02*
X020490Y002120D01*
X020490Y002219D02*
X020730Y002219D01*
X020740Y002317D02*
X020480Y002317D01*
X020382Y002416D02*
X020838Y002416D01*
X020937Y002514D02*
X020283Y002514D01*
X021770Y001923D02*
X021800Y001923D01*
X021770Y001825D02*
X021898Y001825D01*
X021770Y001726D02*
X024163Y001726D01*
X022898Y001825D02*
X022322Y001825D01*
X022420Y001923D02*
X022800Y001923D01*
X022730Y002022D02*
X022490Y002022D01*
X022490Y002120D02*
X022730Y002120D01*
X022730Y002219D02*
X022490Y002219D01*
X022480Y002317D02*
X022740Y002317D01*
X022110Y002650D02*
X023110Y003650D01*
X023110Y008410D01*
X023110Y008650D01*
X022610Y009150D01*
X022706Y009508D02*
X022270Y009508D01*
X022270Y009606D02*
X022665Y009606D01*
X022667Y009705D02*
X022270Y009705D01*
X022270Y009803D02*
X022717Y009803D01*
X022895Y001529D02*
X022268Y001529D01*
X022367Y001431D02*
X022797Y001431D01*
X022698Y001332D02*
X022465Y001332D01*
X022490Y001234D02*
X022690Y001234D01*
X009989Y020540D02*
X006360Y020540D01*
X006360Y020638D02*
X009915Y020638D01*
X009874Y020737D02*
X006360Y020737D01*
X006360Y020835D02*
X009874Y020835D01*
X009894Y020934D02*
X006360Y020934D01*
X006360Y021032D02*
X009941Y021032D01*
X010042Y021131D02*
X006360Y021131D01*
X006360Y021229D02*
X010164Y021229D01*
X010175Y021224D02*
X010325Y021224D01*
X010463Y021281D01*
X010569Y021387D01*
X010626Y021525D01*
X010626Y021675D01*
X010626Y021623D02*
X012893Y021623D01*
X012749Y021525D02*
X010625Y021525D01*
X010585Y021426D02*
X012668Y021426D01*
X012621Y021328D02*
X010509Y021328D01*
X010336Y021229D02*
X012596Y021229D01*
X013060Y021032D02*
X013160Y021032D01*
X013160Y020934D02*
X013060Y020934D01*
X013060Y020835D02*
X013160Y020835D01*
X013160Y020737D02*
X013060Y020737D01*
X013426Y020737D02*
X013854Y020737D01*
X013746Y020835D02*
X013524Y020835D01*
X013583Y020934D02*
X013680Y020934D01*
X013639Y021032D02*
X013618Y021032D01*
X013630Y021131D02*
X013160Y021131D01*
X013624Y021229D02*
X013630Y021229D01*
X013599Y021328D02*
X013664Y021328D01*
X013707Y021426D02*
X013552Y021426D01*
X013471Y021525D02*
X013806Y021525D01*
X014414Y021525D02*
X014806Y021525D01*
X014707Y021426D02*
X014513Y021426D01*
X014556Y021328D02*
X014664Y021328D01*
X014630Y021229D02*
X014590Y021229D01*
X014590Y021131D02*
X014630Y021131D01*
X014639Y021032D02*
X014581Y021032D01*
X014540Y020934D02*
X014680Y020934D01*
X014746Y020835D02*
X014474Y020835D01*
X014366Y020737D02*
X014854Y020737D01*
X015366Y020737D02*
X015854Y020737D01*
X015746Y020835D02*
X015474Y020835D01*
X015540Y020934D02*
X015680Y020934D01*
X015639Y021032D02*
X015581Y021032D01*
X015590Y021131D02*
X015630Y021131D01*
X015630Y021229D02*
X015590Y021229D01*
X015556Y021328D02*
X015664Y021328D01*
X015707Y021426D02*
X015513Y021426D01*
X015414Y021525D02*
X015806Y021525D01*
X016414Y021525D02*
X016806Y021525D01*
X016707Y021426D02*
X016513Y021426D01*
X016556Y021328D02*
X016664Y021328D01*
X016630Y021229D02*
X016590Y021229D01*
X016590Y021131D02*
X016630Y021131D01*
X016639Y021032D02*
X016581Y021032D01*
X016540Y020934D02*
X016680Y020934D01*
X016746Y020835D02*
X016474Y020835D01*
X016366Y020737D02*
X016854Y020737D01*
X010660Y022805D02*
X010560Y022805D01*
X010560Y022904D02*
X010660Y022904D01*
X010660Y023002D02*
X010560Y023002D01*
X010560Y023101D02*
X010660Y023101D01*
X010660Y023199D02*
X010560Y023199D01*
X010037Y021919D02*
X009931Y021813D01*
X009874Y021675D01*
X009874Y021525D01*
X009931Y021387D01*
X010037Y021281D01*
X010175Y021224D01*
X009991Y021328D02*
X006360Y021328D01*
X006360Y021426D02*
X009915Y021426D01*
X009875Y021525D02*
X006360Y021525D01*
X006360Y021623D02*
X009874Y021623D01*
X009894Y021722D02*
X006360Y021722D01*
X006360Y021820D02*
X009939Y021820D01*
X006360Y022313D02*
X025860Y022313D01*
X025860Y022411D02*
X006360Y022411D01*
X006360Y022510D02*
X025860Y022510D01*
X025860Y022608D02*
X006360Y022608D01*
X006360Y025662D02*
X025860Y025662D01*
X025860Y025760D02*
X006360Y025760D01*
X006360Y025859D02*
X025860Y025859D01*
D22*
X023610Y010450D03*
X022910Y009650D03*
X022610Y009150D03*
X023110Y008410D03*
X007120Y003670D03*
X007110Y005740D03*
X007110Y007700D03*
X007110Y009790D03*
D23*
X023110Y002650D02*
X023110Y002150D01*
X023110Y002650D02*
X023610Y003150D01*
X024220Y003150D01*
X024510Y002860D01*
X024510Y002485D01*
M02*
