G75*
%MOIN*%
%OFA0B0*%
%FSLAX24Y24*%
%IPPOS*%
%LPD*%
%AMOC8*
5,1,8,0,0,1.08239X$1,22.5*
%
%ADD10C,0.0000*%
%ADD11C,0.0060*%
%ADD12C,0.0059*%
%ADD13C,0.0039*%
%ADD14R,0.1157X0.0291*%
D10*
X006110Y000150D02*
X006110Y026150D01*
X026110Y026150D01*
X026110Y017350D01*
X026109Y000148D01*
X006110Y000150D01*
X009980Y024150D02*
X009982Y024200D01*
X009988Y024250D01*
X009998Y024299D01*
X010012Y024347D01*
X010029Y024394D01*
X010050Y024439D01*
X010075Y024483D01*
X010103Y024524D01*
X010135Y024563D01*
X010169Y024600D01*
X010206Y024634D01*
X010246Y024664D01*
X010288Y024691D01*
X010332Y024715D01*
X010378Y024736D01*
X010425Y024752D01*
X010473Y024765D01*
X010523Y024774D01*
X010572Y024779D01*
X010623Y024780D01*
X010673Y024777D01*
X010722Y024770D01*
X010771Y024759D01*
X010819Y024744D01*
X010865Y024726D01*
X010910Y024704D01*
X010953Y024678D01*
X010994Y024649D01*
X011033Y024617D01*
X011069Y024582D01*
X011101Y024544D01*
X011131Y024504D01*
X011158Y024461D01*
X011181Y024417D01*
X011200Y024371D01*
X011216Y024323D01*
X011228Y024274D01*
X011236Y024225D01*
X011240Y024175D01*
X011240Y024125D01*
X011236Y024075D01*
X011228Y024026D01*
X011216Y023977D01*
X011200Y023929D01*
X011181Y023883D01*
X011158Y023839D01*
X011131Y023796D01*
X011101Y023756D01*
X011069Y023718D01*
X011033Y023683D01*
X010994Y023651D01*
X010953Y023622D01*
X010910Y023596D01*
X010865Y023574D01*
X010819Y023556D01*
X010771Y023541D01*
X010722Y023530D01*
X010673Y023523D01*
X010623Y023520D01*
X010572Y023521D01*
X010523Y023526D01*
X010473Y023535D01*
X010425Y023548D01*
X010378Y023564D01*
X010332Y023585D01*
X010288Y023609D01*
X010246Y023636D01*
X010206Y023666D01*
X010169Y023700D01*
X010135Y023737D01*
X010103Y023776D01*
X010075Y023817D01*
X010050Y023861D01*
X010029Y023906D01*
X010012Y023953D01*
X009998Y024001D01*
X009988Y024050D01*
X009982Y024100D01*
X009980Y024150D01*
X019980Y024150D02*
X019982Y024200D01*
X019988Y024250D01*
X019998Y024299D01*
X020012Y024347D01*
X020029Y024394D01*
X020050Y024439D01*
X020075Y024483D01*
X020103Y024524D01*
X020135Y024563D01*
X020169Y024600D01*
X020206Y024634D01*
X020246Y024664D01*
X020288Y024691D01*
X020332Y024715D01*
X020378Y024736D01*
X020425Y024752D01*
X020473Y024765D01*
X020523Y024774D01*
X020572Y024779D01*
X020623Y024780D01*
X020673Y024777D01*
X020722Y024770D01*
X020771Y024759D01*
X020819Y024744D01*
X020865Y024726D01*
X020910Y024704D01*
X020953Y024678D01*
X020994Y024649D01*
X021033Y024617D01*
X021069Y024582D01*
X021101Y024544D01*
X021131Y024504D01*
X021158Y024461D01*
X021181Y024417D01*
X021200Y024371D01*
X021216Y024323D01*
X021228Y024274D01*
X021236Y024225D01*
X021240Y024175D01*
X021240Y024125D01*
X021236Y024075D01*
X021228Y024026D01*
X021216Y023977D01*
X021200Y023929D01*
X021181Y023883D01*
X021158Y023839D01*
X021131Y023796D01*
X021101Y023756D01*
X021069Y023718D01*
X021033Y023683D01*
X020994Y023651D01*
X020953Y023622D01*
X020910Y023596D01*
X020865Y023574D01*
X020819Y023556D01*
X020771Y023541D01*
X020722Y023530D01*
X020673Y023523D01*
X020623Y023520D01*
X020572Y023521D01*
X020523Y023526D01*
X020473Y023535D01*
X020425Y023548D01*
X020378Y023564D01*
X020332Y023585D01*
X020288Y023609D01*
X020246Y023636D01*
X020206Y023666D01*
X020169Y023700D01*
X020135Y023737D01*
X020103Y023776D01*
X020075Y023817D01*
X020050Y023861D01*
X020029Y023906D01*
X020012Y023953D01*
X019998Y024001D01*
X019988Y024050D01*
X019982Y024100D01*
X019980Y024150D01*
D11*
X021858Y005927D02*
X021858Y005821D01*
X021858Y005607D02*
X021858Y005180D01*
X021965Y005180D02*
X021751Y005180D01*
X021535Y005287D02*
X021428Y005180D01*
X021108Y005180D01*
X021108Y005073D02*
X021108Y005607D01*
X021428Y005607D01*
X021535Y005500D01*
X021535Y005287D01*
X021215Y004966D02*
X021108Y005073D01*
X021215Y004966D02*
X021321Y004966D01*
X021213Y004607D02*
X021106Y004607D01*
X020999Y004500D01*
X020892Y004607D01*
X020786Y004500D01*
X020786Y004180D01*
X020999Y004180D02*
X020999Y004500D01*
X021213Y004607D02*
X021213Y004180D01*
X021430Y004287D02*
X021430Y004500D01*
X021537Y004607D01*
X021750Y004607D01*
X021857Y004500D01*
X021857Y004287D01*
X021750Y004180D01*
X021537Y004180D01*
X021430Y004287D01*
X022075Y004287D02*
X022182Y004180D01*
X022395Y004180D01*
X022502Y004287D01*
X022502Y004714D01*
X022395Y004821D01*
X022182Y004821D01*
X022075Y004714D01*
X022502Y005180D02*
X022502Y005607D01*
X022502Y005394D02*
X022288Y005607D01*
X022182Y005607D01*
X021965Y005607D02*
X021858Y005607D01*
X022719Y005607D02*
X022719Y005073D01*
X022826Y004966D01*
X022933Y004966D01*
X023040Y005180D02*
X022719Y005180D01*
X023040Y005180D02*
X023146Y005287D01*
X023146Y005607D01*
X023364Y005500D02*
X023364Y005287D01*
X023471Y005180D01*
X023791Y005180D01*
X023791Y004966D02*
X023791Y005607D01*
X023471Y005607D01*
X023364Y005500D01*
X024008Y005500D02*
X024115Y005607D01*
X024329Y005607D01*
X024435Y005500D01*
X024435Y005287D01*
X024329Y005180D01*
X024115Y005180D01*
X024008Y005287D01*
X024008Y005500D01*
X024653Y005287D02*
X024760Y005180D01*
X024973Y005180D01*
X025080Y005287D01*
X025080Y005714D01*
X024973Y005821D01*
X024760Y005821D01*
X024653Y005714D01*
X024760Y004821D02*
X024653Y004714D01*
X024653Y004500D01*
X024760Y004394D01*
X025080Y004394D01*
X024866Y004394D02*
X024653Y004180D01*
X024435Y004287D02*
X024329Y004180D01*
X024115Y004180D01*
X024008Y004287D01*
X023791Y004180D02*
X023791Y004821D01*
X023577Y004607D01*
X023364Y004821D01*
X023364Y004180D01*
X023146Y004500D02*
X022719Y004500D01*
X024008Y004714D02*
X024115Y004821D01*
X024329Y004821D01*
X024435Y004714D01*
X024435Y004287D01*
X024760Y004821D02*
X025080Y004821D01*
X025080Y004180D01*
X020890Y005180D02*
X020890Y005821D01*
X020784Y005607D02*
X020570Y005607D01*
X020463Y005500D01*
X020463Y005180D01*
X020139Y005287D02*
X020032Y005180D01*
X020139Y005287D02*
X020139Y005714D01*
X020246Y005607D02*
X020032Y005607D01*
X020784Y005607D02*
X020890Y005500D01*
X020568Y004607D02*
X020461Y004607D01*
X020355Y004500D01*
X020248Y004607D01*
X020141Y004500D01*
X020141Y004180D01*
X020355Y004180D02*
X020355Y004500D01*
X020568Y004607D02*
X020568Y004180D01*
X019279Y004607D02*
X019066Y004180D01*
X018852Y004607D01*
X018635Y004607D02*
X018421Y004821D01*
X018421Y004180D01*
X018635Y004180D02*
X018207Y004180D01*
X017345Y004394D02*
X017132Y004180D01*
X016916Y004287D02*
X016809Y004180D01*
X016489Y004180D01*
X016271Y004180D02*
X016058Y004394D01*
X016058Y004607D01*
X016271Y004821D01*
X016489Y004607D02*
X016809Y004607D01*
X016916Y004500D01*
X016916Y004287D01*
X017345Y004394D02*
X017345Y004607D01*
X017132Y004821D01*
X017131Y005180D02*
X016918Y005180D01*
X016811Y005287D01*
X016811Y005500D01*
X016918Y005607D01*
X017024Y005607D01*
X017238Y005500D01*
X017238Y005821D01*
X016811Y005821D01*
X017238Y005287D02*
X017131Y005180D01*
X017455Y005180D02*
X017883Y005180D01*
X017669Y005180D02*
X017669Y005821D01*
X017883Y005607D01*
X018100Y005714D02*
X018100Y005287D01*
X018207Y005180D01*
X018420Y005180D01*
X018527Y005287D01*
X018100Y005714D01*
X018207Y005821D01*
X018420Y005821D01*
X018527Y005714D01*
X018527Y005287D01*
X018745Y005180D02*
X019172Y005180D01*
X018745Y005607D01*
X018745Y005714D01*
X018851Y005821D01*
X019065Y005821D01*
X019172Y005714D01*
X015949Y005821D02*
X015949Y005180D01*
X015522Y005180D01*
X015304Y005180D02*
X015304Y005607D01*
X014984Y005607D01*
X014877Y005500D01*
X014877Y005180D01*
X014660Y005287D02*
X014553Y005180D01*
X014233Y005180D01*
X014233Y005073D02*
X014233Y005607D01*
X014553Y005607D01*
X014660Y005500D01*
X014660Y005287D01*
X014340Y004966D02*
X014233Y005073D01*
X014340Y004966D02*
X014446Y004966D01*
X014446Y004821D02*
X014232Y004821D01*
X014125Y004714D01*
X014552Y004287D01*
X014446Y004180D01*
X014232Y004180D01*
X014125Y004287D01*
X014125Y004714D01*
X013908Y004607D02*
X013694Y004821D01*
X013694Y004180D01*
X013481Y004180D02*
X013908Y004180D01*
X013263Y004500D02*
X012836Y004500D01*
X012943Y004180D02*
X012943Y004821D01*
X013263Y004500D01*
X013158Y005180D02*
X013158Y005500D01*
X013265Y005607D01*
X013586Y005607D01*
X013586Y005180D01*
X013802Y005180D02*
X014015Y005180D01*
X013908Y005180D02*
X013908Y005607D01*
X014015Y005607D01*
X013908Y005821D02*
X013908Y005927D01*
X012941Y005500D02*
X012834Y005607D01*
X012621Y005607D01*
X012514Y005500D01*
X012514Y005394D01*
X012941Y005394D01*
X012941Y005500D02*
X012941Y005287D01*
X012834Y005180D01*
X012621Y005180D01*
X012296Y005287D02*
X012296Y005500D01*
X012190Y005607D01*
X011976Y005607D01*
X011869Y005500D01*
X011869Y005394D01*
X012296Y005394D01*
X012296Y005287D02*
X012190Y005180D01*
X011976Y005180D01*
X011652Y005180D02*
X011652Y005607D01*
X011652Y005394D02*
X011438Y005607D01*
X011332Y005607D01*
X011115Y005607D02*
X011008Y005607D01*
X011008Y005180D01*
X011115Y005180D02*
X010901Y005180D01*
X010685Y005180D02*
X010685Y005607D01*
X010365Y005607D01*
X010258Y005500D01*
X010258Y005180D01*
X010041Y005287D02*
X009934Y005180D01*
X009613Y005180D01*
X009613Y005073D02*
X009613Y005607D01*
X009934Y005607D01*
X010041Y005500D01*
X010041Y005287D01*
X009827Y004966D02*
X009720Y004966D01*
X009613Y005073D01*
X009611Y004821D02*
X009184Y004821D01*
X009291Y004607D02*
X009184Y004500D01*
X009184Y004287D01*
X009291Y004180D01*
X009504Y004180D01*
X009611Y004287D01*
X009611Y004500D02*
X009397Y004607D01*
X009291Y004607D01*
X009611Y004500D02*
X009611Y004821D01*
X010042Y004821D02*
X010042Y004180D01*
X010255Y004180D02*
X009828Y004180D01*
X010255Y004607D02*
X010042Y004821D01*
X010473Y004714D02*
X010900Y004287D01*
X010793Y004180D01*
X010580Y004180D01*
X010473Y004287D01*
X010473Y004714D01*
X010580Y004821D01*
X010793Y004821D01*
X010900Y004714D01*
X010900Y004287D01*
X011117Y004180D02*
X011544Y004180D01*
X011117Y004607D01*
X011117Y004714D01*
X011224Y004821D01*
X011438Y004821D01*
X011544Y004714D01*
X012405Y004287D02*
X012405Y004180D01*
X012512Y004180D01*
X012512Y004287D01*
X012405Y004287D01*
X012405Y004180D02*
X012619Y003966D01*
X014446Y004821D02*
X014552Y004714D01*
X014552Y004287D01*
X014770Y004180D02*
X015197Y004180D01*
X014770Y004607D01*
X014770Y004714D01*
X014877Y004821D01*
X015090Y004821D01*
X015197Y004714D01*
X015735Y005500D02*
X015949Y005500D01*
X015949Y005821D02*
X015522Y005821D01*
X011008Y005821D02*
X011008Y005927D01*
X009396Y005607D02*
X009182Y005821D01*
X008969Y005607D01*
X008751Y005714D02*
X008645Y005821D01*
X008431Y005821D01*
X008324Y005714D01*
X008324Y005607D01*
X008431Y005500D01*
X008324Y005394D01*
X008324Y005287D01*
X008431Y005180D01*
X008645Y005180D01*
X008751Y005287D01*
X008538Y005500D02*
X008431Y005500D01*
D12*
X017133Y008030D02*
X017133Y008270D01*
X017451Y008302D01*
X017485Y008409D01*
X017536Y008509D01*
X017334Y008756D01*
X017504Y008926D01*
X017751Y008724D01*
X017851Y008775D01*
X017958Y008809D01*
X017990Y009127D01*
X018230Y009127D01*
X018262Y008809D01*
X018369Y008775D01*
X018469Y008724D01*
X018716Y008926D01*
X018886Y008756D01*
X018684Y008509D01*
X018735Y008409D01*
X018769Y008302D01*
X019087Y008270D01*
X019087Y008030D01*
X018769Y007998D01*
X018735Y007891D01*
X018684Y007791D01*
X018886Y007544D01*
X018716Y007374D01*
X018469Y007576D01*
X018369Y007525D01*
X018228Y007866D01*
X018281Y007894D01*
X018328Y007932D01*
X018366Y007979D01*
X018394Y008032D01*
X018412Y008090D01*
X018418Y008150D01*
X018411Y008213D01*
X018392Y008273D01*
X018361Y008328D01*
X018319Y008375D01*
X018269Y008413D01*
X018212Y008440D01*
X018150Y008455D01*
X018087Y008457D01*
X018025Y008446D01*
X017966Y008422D01*
X017914Y008387D01*
X017870Y008342D01*
X017835Y008289D01*
X017813Y008230D01*
X017803Y008167D01*
X017806Y008104D01*
X017822Y008043D01*
X017850Y007986D01*
X017888Y007937D01*
X017937Y007896D01*
X017992Y007866D01*
X017851Y007525D01*
X017751Y007576D01*
X017504Y007374D01*
X017334Y007544D01*
X017536Y007791D01*
X017485Y007891D01*
X017451Y007998D01*
X017133Y008030D01*
X017133Y008035D02*
X017826Y008035D01*
X017809Y008093D02*
X017133Y008093D01*
X017133Y008150D02*
X017804Y008150D01*
X017809Y008208D02*
X017133Y008208D01*
X017133Y008265D02*
X017827Y008265D01*
X017857Y008323D02*
X017457Y008323D01*
X017476Y008380D02*
X017907Y008380D01*
X018006Y008438D02*
X017500Y008438D01*
X017529Y008496D02*
X018691Y008496D01*
X018720Y008553D02*
X017500Y008553D01*
X017453Y008611D02*
X018767Y008611D01*
X018814Y008668D02*
X017406Y008668D01*
X017359Y008726D02*
X017749Y008726D01*
X017755Y008726D02*
X018465Y008726D01*
X018471Y008726D02*
X018861Y008726D01*
X018858Y008783D02*
X018541Y008783D01*
X018612Y008841D02*
X018801Y008841D01*
X018743Y008898D02*
X018683Y008898D01*
X018344Y008783D02*
X017876Y008783D01*
X017961Y008841D02*
X018259Y008841D01*
X018253Y008898D02*
X017967Y008898D01*
X017973Y008956D02*
X018247Y008956D01*
X018241Y009014D02*
X017979Y009014D01*
X017984Y009071D02*
X018236Y009071D01*
X017679Y008783D02*
X017362Y008783D01*
X017419Y008841D02*
X017608Y008841D01*
X017537Y008898D02*
X017477Y008898D01*
X018217Y008438D02*
X018720Y008438D01*
X018744Y008380D02*
X018313Y008380D01*
X018364Y008323D02*
X018763Y008323D01*
X019087Y008265D02*
X018394Y008265D01*
X018412Y008208D02*
X019087Y008208D01*
X019087Y008150D02*
X018418Y008150D01*
X018412Y008093D02*
X019087Y008093D01*
X019087Y008035D02*
X018395Y008035D01*
X018364Y007978D02*
X018763Y007978D01*
X018744Y007920D02*
X018312Y007920D01*
X018229Y007862D02*
X018720Y007862D01*
X018691Y007805D02*
X018253Y007805D01*
X018277Y007747D02*
X018720Y007747D01*
X018767Y007690D02*
X018301Y007690D01*
X018324Y007632D02*
X018814Y007632D01*
X018861Y007575D02*
X018470Y007575D01*
X018466Y007575D02*
X018348Y007575D01*
X018541Y007517D02*
X018859Y007517D01*
X018801Y007460D02*
X018612Y007460D01*
X018682Y007402D02*
X018744Y007402D01*
X017943Y007747D02*
X017500Y007747D01*
X017529Y007805D02*
X017967Y007805D01*
X017991Y007862D02*
X017500Y007862D01*
X017476Y007920D02*
X017908Y007920D01*
X017856Y007978D02*
X017457Y007978D01*
X017453Y007690D02*
X017919Y007690D01*
X017896Y007632D02*
X017406Y007632D01*
X017359Y007575D02*
X017750Y007575D01*
X017754Y007575D02*
X017872Y007575D01*
X017679Y007517D02*
X017361Y007517D01*
X017419Y007460D02*
X017608Y007460D01*
X017538Y007402D02*
X017476Y007402D01*
D13*
X020350Y007741D02*
X021610Y009040D01*
X021311Y008855D02*
X021311Y008831D01*
X020586Y008827D01*
X020586Y008851D01*
X021311Y008855D01*
X021248Y008835D02*
X021236Y008886D01*
X021212Y008918D01*
X021181Y008941D01*
X021141Y008957D01*
X021094Y008973D01*
X021059Y008977D01*
X021027Y008981D01*
X021004Y008981D01*
X021004Y008953D01*
X020827Y008953D01*
X020827Y009012D01*
X021000Y009012D01*
X021000Y008965D01*
X021145Y008985D02*
X021145Y008859D01*
X021177Y008859D01*
X021177Y008981D01*
X021177Y008985D02*
X021145Y008985D01*
X021248Y008835D02*
X021169Y007918D01*
X021118Y007918D01*
X021118Y007831D01*
X021090Y007819D02*
X021090Y007918D01*
X021118Y007918D01*
X021090Y007918D02*
X020819Y007918D01*
X020823Y007922D02*
X020807Y007886D01*
X020787Y007863D01*
X020760Y007847D01*
X020724Y007843D01*
X020685Y007851D01*
X020657Y007870D01*
X020638Y007902D01*
X020634Y007937D01*
X020638Y007973D01*
X020653Y008000D01*
X020677Y008016D01*
X020685Y008028D02*
X020720Y008032D01*
X020760Y008028D01*
X020799Y008004D01*
X020811Y007981D01*
X020823Y007953D01*
X020823Y007922D01*
X020752Y007933D02*
X020752Y007945D01*
X020744Y007957D01*
X020732Y007961D01*
X020728Y007941D01*
X020724Y007961D02*
X020712Y007957D01*
X020704Y007945D01*
X020704Y007930D01*
X020712Y007918D01*
X020724Y007914D01*
X020736Y007914D01*
X020748Y007922D01*
X020752Y007933D01*
X020685Y008028D02*
X020630Y008658D01*
X020543Y008658D01*
X020543Y008772D01*
X020618Y008772D01*
X020657Y008772D01*
X020657Y008658D01*
X020630Y008658D01*
X020618Y008772D02*
X020618Y008843D01*
X020634Y008886D01*
X020661Y008922D01*
X020689Y008945D01*
X020724Y008961D01*
X020775Y008973D01*
X020823Y008981D01*
X020618Y008890D02*
X020610Y008906D01*
X020594Y008918D01*
X020575Y008918D01*
X020563Y008914D01*
X020551Y008902D01*
X020547Y008882D01*
X020551Y008867D01*
X020559Y008859D01*
X020579Y008851D01*
X020586Y008851D01*
X020602Y008851D01*
X020606Y008867D01*
X020582Y008882D01*
X020311Y009040D02*
X021610Y007701D01*
X021149Y007819D02*
X021149Y007914D01*
X021149Y007819D02*
X021090Y007819D01*
X021004Y008552D02*
X020783Y008552D01*
X020783Y008622D01*
X021004Y008622D01*
X021004Y008587D01*
X020803Y008587D01*
X021004Y008587D02*
X021004Y008552D01*
D14*
X020925Y007292D03*
M02*
