%
M48
M72
T01C0.0150
T02C0.0320
T03C0.0354
T04C0.0360
T05C0.0400
T06C0.1260
%
T01
X7110Y5740
X7110Y7700
X7110Y9790
X7120Y3670
X22610Y9150
X22910Y9650
X23610Y10450
X23110Y8410
T02
X22110Y10150
X20110Y10150
X20110Y14150
X22110Y14150
T03
X24430Y14450
X24430Y15240
X24430Y16030
X24430Y16820
X24430Y17610
X24430Y18400
X24430Y19190
X24430Y19980
X24430Y20770
X24430Y21560
X24410Y13660
X24410Y12870
X24410Y12080
X24410Y11290
X24410Y10500
X24410Y9710
X24410Y8920
X24410Y8130
X24410Y7340
X24410Y6550
X10250Y14490
X10250Y15280
X10250Y16070
X10250Y16860
X10250Y17650
X10250Y18440
X10250Y19230
X10250Y20020
X10250Y20810
X10250Y21600
X10230Y13700
X10230Y12910
X10230Y12120
X10230Y11330
X10230Y10540
X10230Y9750
X10230Y8960
X10230Y8170
X10230Y7380
X10230Y6590
T04
X10110Y2150
X9110Y2150
X9110Y1150
X10110Y1150
X11110Y1150
X12110Y1150
X12110Y2150
X11110Y2150
X13110Y2150
X14110Y2150
X14110Y1150
X13110Y1150
X15110Y1150
X16110Y1150
X16110Y2150
X15110Y2150
X17110Y2150
X18110Y2150
X18110Y1150
X17110Y1150
X19110Y1150
X20110Y1150
X20110Y2150
X19110Y2150
X21110Y2150
X22110Y2150
X22110Y1150
X21110Y1150
X23110Y1150
X23110Y2150
X8110Y2150
X8110Y1150
T05
X13110Y21150
X14110Y21150
X15110Y21150
X16110Y21150
X17110Y21150
X18110Y21150
X23610Y23650
X23610Y24650
X24610Y24650
X24610Y23650
T06
X20610Y24150
X20610Y24150
X10610Y24150
X10610Y24150
M30
